<svg id="Слой_1" data-name="Слой 1" xmlns="http://www.w3.org/2000/svg" viewBox="0 0 607.24 548.47"><defs><style>.cls-1{fill:#91bfdb;}.cls-2{fill:#a6cee2;}.cls-3{fill:#73f4db;}.cls-4{fill:#964cc1;}.cls-5{fill:#8245ad;}.cls-6{fill:#3cbc79;}.cls-7{fill:#cb9fff;}.cls-8{fill:#42f49b;}.cls-9{fill:#495059;}.cls-10{fill:#e1f4ff;}.cls-11{fill:#dee2e5;}.cls-12{fill:#779caf;}.cls-13{fill:#b68eef;}</style></defs><rect class="cls-1" x="587.65" y="470.12" width="19.59" height="19.59"/><rect class="cls-1" x="587.65" y="450.53" width="19.59" height="19.59"/><rect class="cls-1" x="587.65" y="430.94" width="19.59" height="19.59"/><rect class="cls-2" x="587.65" y="411.36" width="19.59" height="19.58"/><rect class="cls-2" x="587.65" y="391.77" width="19.59" height="19.59"/><rect class="cls-2" x="587.65" y="372.18" width="19.59" height="19.59"/><rect class="cls-2" x="587.65" y="352.59" width="19.59" height="19.59"/><rect class="cls-2" x="587.65" y="333" width="19.59" height="19.59"/><rect class="cls-2" x="587.65" y="313.41" width="19.59" height="19.59"/><rect class="cls-2" x="587.65" y="293.83" width="19.59" height="19.58"/><rect class="cls-2" x="587.65" y="274.24" width="19.59" height="19.59"/><rect class="cls-2" x="587.65" y="254.65" width="19.59" height="19.59"/><rect class="cls-2" x="587.65" y="235.06" width="19.59" height="19.59"/><rect class="cls-1" x="568.06" y="470.12" width="19.59" height="19.59"/><rect class="cls-1" x="568.06" y="450.53" width="19.59" height="19.59"/><rect class="cls-1" x="568.06" y="430.94" width="19.59" height="19.59"/><rect class="cls-2" x="568.06" y="411.36" width="19.59" height="19.58"/><rect class="cls-2" x="568.06" y="391.77" width="19.59" height="19.59"/><rect class="cls-2" x="568.06" y="372.18" width="19.59" height="19.59"/><rect class="cls-2" x="568.06" y="352.59" width="19.59" height="19.59"/><rect class="cls-2" x="568.06" y="333" width="19.59" height="19.59"/><rect class="cls-2" x="568.06" y="313.41" width="19.59" height="19.59"/><rect class="cls-2" x="568.06" y="293.83" width="19.59" height="19.58"/><rect class="cls-2" x="568.06" y="274.24" width="19.59" height="19.59"/><rect class="cls-2" x="568.06" y="254.65" width="19.59" height="19.59"/><rect class="cls-2" x="568.06" y="235.06" width="19.59" height="19.59"/><rect class="cls-1" x="548.47" y="470.12" width="19.59" height="19.59"/><rect class="cls-1" x="548.47" y="450.53" width="19.59" height="19.59"/><rect class="cls-1" x="548.47" y="430.94" width="19.59" height="19.59"/><rect class="cls-2" x="548.47" y="411.36" width="19.59" height="19.58"/><rect class="cls-2" x="548.47" y="391.77" width="19.59" height="19.59"/><rect class="cls-2" x="548.47" y="372.18" width="19.59" height="19.59"/><rect class="cls-2" x="548.47" y="352.59" width="19.59" height="19.59"/><rect class="cls-2" x="548.47" y="333" width="19.59" height="19.59"/><rect class="cls-2" x="548.47" y="313.41" width="19.59" height="19.59"/><rect class="cls-2" x="548.47" y="293.83" width="19.59" height="19.58"/><rect class="cls-2" x="548.47" y="274.24" width="19.59" height="19.59"/><rect class="cls-2" x="548.47" y="254.65" width="19.59" height="19.59"/><rect class="cls-2" x="548.47" y="235.06" width="19.59" height="19.59"/><rect class="cls-1" x="528.89" y="470.12" width="19.58" height="19.59"/><rect class="cls-1" x="528.89" y="450.53" width="19.58" height="19.59"/><rect class="cls-1" x="528.89" y="430.94" width="19.58" height="19.59"/><rect class="cls-2" x="528.89" y="411.36" width="19.58" height="19.58"/><rect class="cls-2" x="528.89" y="391.77" width="19.58" height="19.59"/><rect class="cls-2" x="528.89" y="372.18" width="19.58" height="19.59"/><rect class="cls-2" x="528.89" y="352.59" width="19.58" height="19.59"/><rect class="cls-2" x="528.89" y="333" width="19.58" height="19.59"/><rect class="cls-2" x="528.89" y="313.41" width="19.58" height="19.59"/><rect class="cls-2" x="528.89" y="293.83" width="19.58" height="19.58"/><rect class="cls-2" x="528.89" y="274.24" width="19.58" height="19.59"/><rect class="cls-2" x="528.89" y="254.65" width="19.58" height="19.59"/><rect class="cls-2" x="528.89" y="235.06" width="19.58" height="19.59"/><rect class="cls-1" x="509.3" y="470.12" width="19.59" height="19.59"/><rect class="cls-1" x="509.3" y="450.53" width="19.59" height="19.59"/><rect class="cls-1" x="509.3" y="430.94" width="19.59" height="19.59"/><rect class="cls-2" x="509.3" y="411.36" width="19.59" height="19.58"/><rect class="cls-2" x="509.3" y="391.77" width="19.59" height="19.59"/><rect class="cls-2" x="509.3" y="372.18" width="19.59" height="19.59"/><rect class="cls-2" x="509.3" y="352.59" width="19.59" height="19.59"/><rect class="cls-2" x="509.3" y="333" width="19.59" height="19.59"/><rect class="cls-2" x="509.3" y="313.41" width="19.59" height="19.59"/><rect class="cls-2" x="509.3" y="293.83" width="19.59" height="19.58"/><rect class="cls-2" x="509.3" y="274.24" width="19.59" height="19.59"/><rect class="cls-2" x="509.3" y="254.65" width="19.59" height="19.59"/><rect class="cls-2" x="509.3" y="235.06" width="19.59" height="19.59"/><rect class="cls-1" x="489.71" y="470.12" width="19.59" height="19.59"/><rect class="cls-1" x="489.71" y="450.53" width="19.59" height="19.59"/><rect class="cls-1" x="489.71" y="430.94" width="19.59" height="19.59"/><rect class="cls-2" x="489.71" y="411.36" width="19.59" height="19.58"/><rect class="cls-2" x="489.71" y="391.77" width="19.59" height="19.59"/><rect class="cls-2" x="489.71" y="372.18" width="19.59" height="19.59"/><rect class="cls-2" x="489.71" y="352.59" width="19.59" height="19.59"/><rect class="cls-2" x="489.71" y="333" width="19.59" height="19.59"/><rect class="cls-2" x="489.71" y="313.41" width="19.59" height="19.59"/><rect class="cls-2" x="489.71" y="293.83" width="19.59" height="19.58"/><rect class="cls-2" x="489.71" y="274.24" width="19.59" height="19.59"/><rect class="cls-2" x="489.71" y="254.65" width="19.59" height="19.59"/><rect class="cls-2" x="489.71" y="235.06" width="19.59" height="19.59"/><rect class="cls-3" x="489.71" y="97.94" width="19.59" height="19.59"/><rect class="cls-3" x="489.71" y="78.36" width="19.59" height="19.58"/><rect class="cls-3" x="489.71" y="58.77" width="19.59" height="19.59"/><rect class="cls-3" x="489.71" y="39.18" width="19.59" height="19.59"/><rect class="cls-4" x="489.71" y="19.59" width="19.59" height="19.59"/><rect class="cls-5" x="470.12" y="509.3" width="19.59" height="19.59"/><rect class="cls-5" x="470.12" y="489.71" width="19.59" height="19.59"/><rect class="cls-1" x="470.12" y="470.12" width="19.59" height="19.59"/><rect class="cls-1" x="470.12" y="450.53" width="19.59" height="19.59"/><rect class="cls-1" x="470.12" y="430.94" width="19.59" height="19.59"/><rect class="cls-2" x="470.12" y="411.36" width="19.59" height="19.58"/><rect class="cls-2" x="470.12" y="391.77" width="19.59" height="19.59"/><rect class="cls-2" x="470.12" y="372.18" width="19.59" height="19.59"/><rect class="cls-2" x="470.12" y="352.59" width="19.59" height="19.59"/><rect class="cls-2" x="470.12" y="333" width="19.59" height="19.59"/><rect class="cls-6" x="470.12" y="313.41" width="19.59" height="19.59"/><rect class="cls-6" x="470.12" y="293.83" width="19.59" height="19.58"/><rect class="cls-2" x="470.12" y="274.24" width="19.59" height="19.59"/><rect class="cls-2" x="470.12" y="254.65" width="19.59" height="19.59"/><rect class="cls-2" x="470.12" y="235.06" width="19.59" height="19.59"/><rect class="cls-7" x="470.12" y="215.47" width="19.59" height="19.59"/><rect class="cls-7" x="470.12" y="195.89" width="19.59" height="19.58"/><rect class="cls-7" x="470.12" y="176.3" width="19.59" height="19.59"/><rect class="cls-7" x="470.12" y="156.71" width="19.59" height="19.59"/><rect class="cls-3" x="470.12" y="137.12" width="19.59" height="19.59"/><rect class="cls-3" x="470.12" y="117.53" width="19.59" height="19.59"/><rect class="cls-3" x="470.12" y="97.94" width="19.59" height="19.59"/><rect class="cls-3" x="470.12" y="78.36" width="19.59" height="19.58"/><rect class="cls-3" x="470.12" y="58.77" width="19.59" height="19.59"/><rect class="cls-3" x="470.12" y="39.18" width="19.59" height="19.59"/><rect class="cls-4" x="470.12" y="19.59" width="19.59" height="19.59"/><rect class="cls-4" x="470.12" width="19.59" height="19.59"/><rect class="cls-5" x="450.53" y="528.89" width="19.59" height="19.58"/><rect class="cls-5" x="450.53" y="509.3" width="19.59" height="19.59"/><rect class="cls-5" x="450.53" y="489.71" width="19.59" height="19.59"/><rect class="cls-1" x="450.53" y="470.12" width="19.59" height="19.59"/><rect class="cls-1" x="450.53" y="450.53" width="19.59" height="19.59"/><rect class="cls-1" x="450.53" y="430.94" width="19.59" height="19.59"/><rect class="cls-2" x="450.53" y="411.36" width="19.59" height="19.58"/><rect class="cls-2" x="450.53" y="391.77" width="19.59" height="19.59"/><rect class="cls-2" x="450.53" y="372.18" width="19.59" height="19.59"/><rect class="cls-2" x="450.53" y="352.59" width="19.59" height="19.59"/><rect class="cls-6" x="450.53" y="333" width="19.59" height="19.59"/><rect class="cls-6" x="450.53" y="313.41" width="19.59" height="19.59"/><rect class="cls-6" x="450.53" y="293.83" width="19.59" height="19.58"/><rect class="cls-8" x="450.53" y="274.24" width="19.59" height="19.59"/><rect class="cls-2" x="450.53" y="254.65" width="19.59" height="19.59"/><rect class="cls-2" x="450.53" y="235.06" width="19.59" height="19.59"/><rect class="cls-9" x="450.53" y="215.47" width="19.59" height="19.59"/><rect class="cls-7" x="450.53" y="195.89" width="19.59" height="19.58"/><rect class="cls-7" x="450.53" y="176.3" width="19.59" height="19.59"/><rect class="cls-7" x="450.53" y="156.71" width="19.59" height="19.59"/><rect class="cls-7" x="450.53" y="137.12" width="19.59" height="19.59"/><rect class="cls-4" x="450.53" y="117.53" width="19.59" height="19.59"/><rect class="cls-4" x="450.53" y="97.94" width="19.59" height="19.59"/><rect class="cls-4" x="450.53" y="78.36" width="19.59" height="19.58"/><rect class="cls-4" x="450.53" y="58.77" width="19.59" height="19.59"/><rect class="cls-4" x="450.53" y="39.18" width="19.59" height="19.59"/><rect class="cls-4" x="450.53" y="19.59" width="19.59" height="19.59"/><rect class="cls-5" x="430.94" y="528.89" width="19.59" height="19.58"/><rect class="cls-5" x="430.94" y="509.3" width="19.59" height="19.59"/><rect class="cls-5" x="430.94" y="489.71" width="19.59" height="19.59"/><rect class="cls-1" x="430.94" y="470.12" width="19.59" height="19.59"/><rect class="cls-1" x="430.94" y="450.53" width="19.59" height="19.59"/><rect class="cls-1" x="430.94" y="430.94" width="19.59" height="19.59"/><rect class="cls-2" x="430.94" y="411.36" width="19.59" height="19.58"/><rect class="cls-2" x="430.94" y="391.77" width="19.59" height="19.59"/><rect class="cls-2" x="430.94" y="372.18" width="19.59" height="19.59"/><rect class="cls-2" x="430.94" y="352.59" width="19.59" height="19.59"/><rect class="cls-6" x="430.94" y="333" width="19.59" height="19.59"/><rect class="cls-6" x="430.94" y="313.41" width="19.59" height="19.59"/><rect class="cls-10" x="430.94" y="293.83" width="19.59" height="19.58"/><rect class="cls-8" x="430.94" y="274.24" width="19.59" height="19.59"/><rect class="cls-2" x="430.94" y="254.65" width="19.59" height="19.59"/><rect class="cls-2" x="430.94" y="235.06" width="19.59" height="19.59"/><rect class="cls-9" x="430.94" y="215.47" width="19.59" height="19.59"/><rect class="cls-7" x="430.94" y="195.89" width="19.59" height="19.58"/><rect class="cls-9" x="430.94" y="176.3" width="19.59" height="19.59"/><rect class="cls-7" x="430.94" y="156.71" width="19.59" height="19.59"/><rect class="cls-7" x="430.94" y="137.12" width="19.59" height="19.59"/><rect class="cls-7" x="430.94" y="117.53" width="19.59" height="19.59"/><rect class="cls-7" x="430.94" y="97.94" width="19.59" height="19.59"/><rect class="cls-4" x="430.94" y="78.36" width="19.59" height="19.58"/><rect class="cls-4" x="430.94" y="58.77" width="19.59" height="19.59"/><rect class="cls-4" x="430.94" y="39.18" width="19.59" height="19.59"/><rect class="cls-4" x="430.94" y="19.59" width="19.59" height="19.59"/><rect class="cls-5" x="411.36" y="528.89" width="19.58" height="19.58"/><rect class="cls-5" x="411.36" y="509.3" width="19.58" height="19.59"/><rect class="cls-5" x="411.36" y="489.71" width="19.58" height="19.59"/><rect class="cls-1" x="411.36" y="470.12" width="19.58" height="19.59"/><rect class="cls-1" x="411.36" y="450.53" width="19.58" height="19.59"/><rect class="cls-1" x="411.36" y="430.94" width="19.58" height="19.59"/><rect class="cls-2" x="411.36" y="411.36" width="19.58" height="19.58"/><rect class="cls-2" x="411.36" y="391.77" width="19.58" height="19.59"/><rect class="cls-2" x="411.36" y="372.18" width="19.58" height="19.59"/><rect class="cls-2" x="411.36" y="352.59" width="19.58" height="19.59"/><rect class="cls-2" x="411.36" y="333" width="19.58" height="19.59"/><rect class="cls-8" x="411.36" y="313.41" width="19.58" height="19.59"/><rect class="cls-8" x="411.36" y="293.83" width="19.58" height="19.58"/><rect class="cls-2" x="411.36" y="274.24" width="19.58" height="19.59"/><rect class="cls-2" x="411.36" y="254.65" width="19.58" height="19.59"/><rect class="cls-2" x="411.36" y="235.06" width="19.58" height="19.59"/><rect class="cls-9" x="411.36" y="215.47" width="19.58" height="19.59"/><rect class="cls-9" x="411.36" y="195.89" width="19.58" height="19.58"/><rect class="cls-7" x="411.36" y="176.3" width="19.58" height="19.59"/><rect class="cls-7" x="411.36" y="156.71" width="19.58" height="19.59"/><rect class="cls-7" x="411.36" y="137.12" width="19.58" height="19.59"/><rect class="cls-7" x="411.36" y="117.53" width="19.58" height="19.59"/><rect class="cls-7" x="411.36" y="97.94" width="19.58" height="19.59"/><rect class="cls-7" x="411.36" y="78.36" width="19.58" height="19.58"/><rect class="cls-4" x="411.36" y="58.77" width="19.58" height="19.59"/><rect class="cls-4" x="411.36" y="39.18" width="19.58" height="19.59"/><rect class="cls-4" x="411.36" y="19.59" width="19.58" height="19.59"/><rect class="cls-5" x="391.77" y="528.89" width="19.59" height="19.58"/><rect class="cls-5" x="391.77" y="509.3" width="19.59" height="19.59"/><rect class="cls-5" x="391.77" y="489.71" width="19.59" height="19.59"/><rect class="cls-1" x="391.77" y="470.12" width="19.59" height="19.59"/><rect class="cls-1" x="391.77" y="450.53" width="19.59" height="19.59"/><rect class="cls-1" x="391.77" y="430.94" width="19.59" height="19.59"/><rect class="cls-2" x="391.77" y="411.36" width="19.59" height="19.58"/><rect class="cls-2" x="391.77" y="391.77" width="19.59" height="19.59"/><rect class="cls-2" x="391.77" y="372.18" width="19.59" height="19.59"/><rect class="cls-2" x="391.77" y="352.59" width="19.59" height="19.59"/><rect class="cls-2" x="391.77" y="333" width="19.59" height="19.59"/><rect class="cls-2" x="391.77" y="313.41" width="19.59" height="19.59"/><rect class="cls-2" x="391.77" y="293.83" width="19.59" height="19.58"/><rect class="cls-2" x="391.77" y="274.24" width="19.59" height="19.59"/><rect class="cls-2" x="391.77" y="254.65" width="19.59" height="19.59"/><rect class="cls-2" x="391.77" y="235.06" width="19.59" height="19.59"/><rect class="cls-3" x="391.77" y="215.47" width="19.59" height="19.59"/><rect class="cls-3" x="391.77" y="195.89" width="19.59" height="19.58"/><rect class="cls-7" x="391.77" y="176.3" width="19.59" height="19.59"/><rect class="cls-7" x="391.77" y="156.71" width="19.59" height="19.59"/><rect class="cls-7" x="391.77" y="137.12" width="19.59" height="19.59"/><rect class="cls-9" x="391.77" y="117.53" width="19.59" height="19.59"/><rect class="cls-7" x="391.77" y="97.94" width="19.59" height="19.59"/><rect class="cls-7" x="391.77" y="78.36" width="19.59" height="19.58"/><rect class="cls-4" x="391.77" y="58.77" width="19.59" height="19.59"/><rect class="cls-4" x="391.77" y="39.18" width="19.59" height="19.59"/><rect class="cls-5" x="372.18" y="528.89" width="19.59" height="19.58"/><rect class="cls-4" x="372.18" y="509.3" width="19.59" height="19.59"/><rect class="cls-4" x="372.18" y="489.71" width="19.59" height="19.59"/><rect class="cls-1" x="372.18" y="470.12" width="19.59" height="19.59"/><rect class="cls-1" x="372.18" y="450.53" width="19.59" height="19.59"/><rect class="cls-1" x="372.18" y="430.94" width="19.59" height="19.59"/><rect class="cls-2" x="372.18" y="411.36" width="19.59" height="19.58"/><rect class="cls-2" x="372.18" y="391.77" width="19.59" height="19.59"/><rect class="cls-2" x="372.18" y="372.18" width="19.59" height="19.59"/><rect class="cls-2" x="372.18" y="352.59" width="19.59" height="19.59"/><rect class="cls-2" x="372.18" y="333" width="19.59" height="19.59"/><rect class="cls-2" x="372.18" y="313.41" width="19.59" height="19.59"/><rect class="cls-2" x="372.18" y="293.83" width="19.59" height="19.58"/><rect class="cls-2" x="372.18" y="274.24" width="19.59" height="19.59"/><rect class="cls-2" x="372.18" y="254.65" width="19.59" height="19.59"/><rect class="cls-2" x="372.18" y="235.06" width="19.59" height="19.59"/><rect class="cls-3" x="372.18" y="215.47" width="19.59" height="19.59"/><rect class="cls-11" x="372.18" y="195.89" width="19.59" height="19.58"/><rect class="cls-9" x="372.18" y="176.3" width="19.59" height="19.59"/><rect class="cls-9" x="372.18" y="156.71" width="19.59" height="19.59"/><rect class="cls-7" x="372.18" y="137.12" width="19.59" height="19.59"/><rect class="cls-7" x="372.18" y="117.53" width="19.59" height="19.59"/><rect class="cls-9" x="372.18" y="97.94" width="19.59" height="19.59"/><rect class="cls-7" x="372.18" y="78.36" width="19.59" height="19.58"/><rect class="cls-7" x="372.18" y="58.77" width="19.59" height="19.59"/><rect class="cls-4" x="372.18" y="39.18" width="19.59" height="19.59"/><rect class="cls-4" x="352.59" y="528.89" width="19.59" height="19.58"/><rect class="cls-4" x="352.59" y="509.3" width="19.59" height="19.59"/><rect class="cls-4" x="352.59" y="489.71" width="19.59" height="19.59"/><rect class="cls-1" x="352.59" y="470.12" width="19.59" height="19.59"/><rect class="cls-1" x="352.59" y="450.53" width="19.59" height="19.59"/><rect class="cls-1" x="352.59" y="430.94" width="19.59" height="19.59"/><rect class="cls-2" x="352.59" y="411.36" width="19.59" height="19.58"/><rect class="cls-2" x="352.59" y="391.77" width="19.59" height="19.59"/><rect class="cls-2" x="352.59" y="372.18" width="19.59" height="19.59"/><rect class="cls-2" x="352.59" y="352.59" width="19.59" height="19.59"/><rect class="cls-2" x="352.59" y="333" width="19.59" height="19.59"/><rect class="cls-2" x="352.59" y="313.41" width="19.59" height="19.59"/><rect class="cls-2" x="352.59" y="293.83" width="19.59" height="19.58"/><rect class="cls-2" x="352.59" y="274.24" width="19.59" height="19.59"/><rect class="cls-2" x="352.59" y="254.65" width="19.59" height="19.59"/><rect class="cls-2" x="352.59" y="235.06" width="19.59" height="19.59"/><rect class="cls-7" x="352.59" y="215.47" width="19.59" height="19.59"/><rect class="cls-9" x="352.59" y="195.89" width="19.59" height="19.58"/><rect class="cls-9" x="352.59" y="176.3" width="19.59" height="19.59"/><rect class="cls-9" x="352.59" y="156.71" width="19.59" height="19.59"/><rect class="cls-7" x="352.59" y="137.12" width="19.59" height="19.59"/><rect class="cls-7" x="352.59" y="117.53" width="19.59" height="19.59"/><rect class="cls-9" x="352.59" y="97.94" width="19.59" height="19.59"/><rect class="cls-7" x="352.59" y="78.36" width="19.59" height="19.58"/><rect class="cls-7" x="352.59" y="58.77" width="19.59" height="19.59"/><rect class="cls-4" x="333" y="528.89" width="19.59" height="19.58"/><rect class="cls-4" x="333" y="509.3" width="19.59" height="19.59"/><rect class="cls-4" x="333" y="489.71" width="19.59" height="19.59"/><rect class="cls-1" x="333" y="470.12" width="19.59" height="19.59"/><rect class="cls-1" x="333" y="450.53" width="19.59" height="19.59"/><rect class="cls-1" x="333" y="430.94" width="19.59" height="19.59"/><rect class="cls-2" x="333" y="411.36" width="19.59" height="19.58"/><rect class="cls-2" x="333" y="391.77" width="19.59" height="19.59"/><rect class="cls-2" x="333" y="372.18" width="19.59" height="19.59"/><rect class="cls-2" x="333" y="352.59" width="19.59" height="19.59"/><rect class="cls-2" x="333" y="333" width="19.59" height="19.59"/><rect class="cls-2" x="333" y="313.41" width="19.59" height="19.59"/><rect class="cls-2" x="333" y="293.83" width="19.59" height="19.58"/><rect class="cls-2" x="333" y="274.24" width="19.59" height="19.59"/><rect class="cls-2" x="333" y="254.65" width="19.59" height="19.59"/><rect class="cls-2" x="333" y="235.06" width="19.59" height="19.59"/><rect class="cls-7" x="333" y="215.47" width="19.59" height="19.59"/><rect class="cls-7" x="333" y="195.89" width="19.59" height="19.58"/><rect class="cls-7" x="333" y="176.3" width="19.59" height="19.59"/><rect class="cls-7" x="333" y="156.71" width="19.59" height="19.59"/><rect class="cls-7" x="333" y="137.12" width="19.59" height="19.59"/><rect class="cls-7" x="333" y="117.53" width="19.59" height="19.59"/><rect class="cls-7" x="333" y="97.94" width="19.59" height="19.59"/><rect class="cls-7" x="333" y="78.36" width="19.59" height="19.58"/><rect class="cls-7" x="333" y="58.77" width="19.59" height="19.59"/><rect class="cls-7" x="333" y="39.18" width="19.59" height="19.59"/><rect class="cls-4" x="313.42" y="528.89" width="19.58" height="19.58"/><rect class="cls-4" x="313.42" y="509.3" width="19.58" height="19.59"/><rect class="cls-4" x="313.42" y="489.71" width="19.58" height="19.59"/><rect class="cls-1" x="313.42" y="470.12" width="19.58" height="19.59"/><rect class="cls-1" x="313.42" y="450.53" width="19.58" height="19.59"/><rect class="cls-1" x="313.42" y="430.94" width="19.58" height="19.59"/><rect class="cls-2" x="313.42" y="411.36" width="19.58" height="19.58"/><rect class="cls-2" x="313.42" y="391.77" width="19.58" height="19.59"/><rect class="cls-2" x="313.42" y="372.18" width="19.58" height="19.59"/><rect class="cls-2" x="313.42" y="352.59" width="19.58" height="19.59"/><rect class="cls-2" x="313.42" y="333" width="19.58" height="19.59"/><rect class="cls-2" x="313.42" y="313.41" width="19.58" height="19.59"/><rect class="cls-2" x="313.42" y="293.83" width="19.58" height="19.58"/><rect class="cls-2" x="313.42" y="274.24" width="19.58" height="19.59"/><rect class="cls-2" x="313.42" y="254.65" width="19.58" height="19.59"/><rect class="cls-2" x="313.42" y="235.06" width="19.58" height="19.59"/><rect class="cls-7" x="313.42" y="215.47" width="19.58" height="19.59"/><rect class="cls-7" x="313.42" y="195.89" width="19.58" height="19.58"/><rect class="cls-7" x="313.42" y="176.3" width="19.58" height="19.59"/><rect class="cls-7" x="313.42" y="156.71" width="19.58" height="19.59"/><rect class="cls-7" x="313.42" y="137.12" width="19.58" height="19.59"/><rect class="cls-7" x="313.42" y="117.53" width="19.58" height="19.59"/><rect class="cls-7" x="313.42" y="97.94" width="19.58" height="19.59"/><rect class="cls-7" x="313.42" y="78.36" width="19.58" height="19.58"/><rect class="cls-7" x="313.42" y="58.77" width="19.58" height="19.59"/><rect class="cls-7" x="313.42" y="39.18" width="19.58" height="19.59"/><rect class="cls-4" x="293.83" y="528.89" width="19.59" height="19.58"/><rect class="cls-4" x="293.83" y="509.3" width="19.59" height="19.59"/><rect class="cls-4" x="293.83" y="489.71" width="19.59" height="19.59"/><rect class="cls-1" x="293.83" y="470.12" width="19.59" height="19.59"/><rect class="cls-1" x="293.83" y="450.53" width="19.59" height="19.59"/><rect class="cls-1" x="293.83" y="430.94" width="19.59" height="19.59"/><rect class="cls-2" x="293.83" y="411.36" width="19.59" height="19.58"/><rect class="cls-2" x="293.83" y="391.77" width="19.59" height="19.59"/><rect class="cls-2" x="293.83" y="372.18" width="19.59" height="19.59"/><rect class="cls-2" x="293.83" y="352.59" width="19.59" height="19.59"/><rect class="cls-2" x="293.83" y="333" width="19.59" height="19.59"/><rect class="cls-2" x="293.83" y="313.41" width="19.59" height="19.59"/><rect class="cls-2" x="293.83" y="293.83" width="19.59" height="19.58"/><rect class="cls-2" x="293.83" y="274.24" width="19.59" height="19.59"/><rect class="cls-2" x="293.83" y="254.65" width="19.59" height="19.59"/><rect class="cls-2" x="293.83" y="235.06" width="19.59" height="19.59"/><rect class="cls-3" x="293.83" y="215.47" width="19.59" height="19.59"/><rect class="cls-7" x="293.83" y="195.89" width="19.59" height="19.58"/><rect class="cls-7" x="293.83" y="176.3" width="19.59" height="19.59"/><rect class="cls-7" x="293.83" y="156.71" width="19.59" height="19.59"/><rect class="cls-7" x="293.83" y="137.12" width="19.59" height="19.59"/><rect class="cls-7" x="293.83" y="117.53" width="19.59" height="19.59"/><rect class="cls-7" x="293.83" y="97.94" width="19.59" height="19.59"/><rect class="cls-7" x="293.83" y="78.36" width="19.59" height="19.58"/><rect class="cls-7" x="293.83" y="58.77" width="19.59" height="19.59"/><rect class="cls-7" x="293.83" y="39.18" width="19.59" height="19.59"/><rect class="cls-4" x="274.24" y="528.89" width="19.59" height="19.58"/><rect class="cls-4" x="274.24" y="509.3" width="19.59" height="19.59"/><rect class="cls-4" x="274.24" y="489.71" width="19.59" height="19.59"/><rect class="cls-1" x="274.24" y="470.12" width="19.59" height="19.59"/><rect class="cls-1" x="274.24" y="450.53" width="19.59" height="19.59"/><rect class="cls-1" x="274.24" y="430.94" width="19.59" height="19.59"/><rect class="cls-2" x="274.24" y="411.36" width="19.59" height="19.58"/><rect class="cls-2" x="274.24" y="391.77" width="19.59" height="19.59"/><rect class="cls-2" x="274.24" y="372.18" width="19.59" height="19.59"/><rect class="cls-2" x="274.24" y="352.59" width="19.59" height="19.59"/><rect class="cls-2" x="274.24" y="333" width="19.59" height="19.59"/><rect class="cls-2" x="274.24" y="313.41" width="19.59" height="19.59"/><rect class="cls-2" x="274.24" y="293.83" width="19.59" height="19.58"/><rect class="cls-2" x="274.24" y="274.24" width="19.59" height="19.59"/><rect class="cls-2" x="274.24" y="254.65" width="19.59" height="19.59"/><rect class="cls-2" x="274.24" y="235.06" width="19.59" height="19.59"/><rect class="cls-3" x="274.24" y="215.47" width="19.59" height="19.59"/><rect class="cls-7" x="274.24" y="195.89" width="19.59" height="19.58"/><rect class="cls-7" x="274.24" y="176.3" width="19.59" height="19.59"/><rect class="cls-7" x="274.24" y="156.71" width="19.59" height="19.59"/><rect class="cls-7" x="274.24" y="137.12" width="19.59" height="19.59"/><rect class="cls-7" x="274.24" y="117.53" width="19.59" height="19.59"/><rect class="cls-7" x="274.24" y="97.94" width="19.59" height="19.59"/><rect class="cls-7" x="274.24" y="78.36" width="19.59" height="19.58"/><rect class="cls-7" x="274.24" y="58.77" width="19.59" height="19.59"/><rect class="cls-7" x="274.24" y="39.18" width="19.59" height="19.59"/><rect class="cls-4" x="254.65" y="528.89" width="19.59" height="19.58"/><rect class="cls-4" x="254.65" y="509.3" width="19.59" height="19.59"/><rect class="cls-4" x="254.65" y="489.71" width="19.59" height="19.59"/><rect class="cls-12" x="254.65" y="470.12" width="19.59" height="19.59"/><rect class="cls-12" x="254.65" y="450.53" width="19.59" height="19.59"/><rect class="cls-12" x="254.65" y="430.94" width="19.59" height="19.59"/><rect class="cls-4" x="254.65" y="411.36" width="19.59" height="19.58"/><rect class="cls-4" x="254.65" y="391.77" width="19.59" height="19.59"/><rect class="cls-4" x="254.65" y="372.18" width="19.59" height="19.59"/><rect class="cls-7" x="254.65" y="352.59" width="19.59" height="19.59"/><rect class="cls-7" x="254.65" y="333" width="19.59" height="19.59"/><rect class="cls-7" x="254.65" y="313.41" width="19.59" height="19.59"/><rect class="cls-7" x="254.65" y="293.83" width="19.59" height="19.58"/><rect class="cls-7" x="254.65" y="274.24" width="19.59" height="19.59"/><rect class="cls-7" x="254.65" y="254.65" width="19.59" height="19.59"/><rect class="cls-7" x="254.65" y="235.06" width="19.59" height="19.59"/><rect class="cls-7" x="254.65" y="215.47" width="19.59" height="19.59"/><rect class="cls-7" x="254.65" y="195.89" width="19.59" height="19.58"/><rect class="cls-7" x="254.65" y="176.3" width="19.59" height="19.59"/><rect class="cls-7" x="254.65" y="156.71" width="19.59" height="19.59"/><rect class="cls-7" x="254.65" y="137.12" width="19.59" height="19.59"/><rect class="cls-7" x="254.65" y="117.53" width="19.59" height="19.59"/><rect class="cls-7" x="254.65" y="97.94" width="19.59" height="19.59"/><rect class="cls-7" x="254.65" y="78.36" width="19.59" height="19.58"/><rect class="cls-7" x="254.65" y="58.77" width="19.59" height="19.59"/><rect class="cls-7" x="254.65" y="39.18" width="19.59" height="19.59"/><rect class="cls-13" x="235.06" y="528.89" width="19.59" height="19.58"/><rect class="cls-4" x="235.06" y="509.3" width="19.59" height="19.59"/><rect class="cls-4" x="235.06" y="489.71" width="19.59" height="19.59"/><rect class="cls-12" x="235.06" y="470.12" width="19.59" height="19.59"/><rect class="cls-12" x="235.06" y="450.53" width="19.59" height="19.59"/><rect class="cls-12" x="235.06" y="430.94" width="19.59" height="19.59"/><rect class="cls-4" x="235.06" y="411.36" width="19.59" height="19.58"/><rect class="cls-4" x="235.06" y="391.77" width="19.59" height="19.59"/><rect class="cls-4" x="235.06" y="372.18" width="19.59" height="19.59"/><rect class="cls-13" x="235.06" y="352.59" width="19.59" height="19.59"/><rect class="cls-7" x="235.06" y="333" width="19.59" height="19.59"/><rect class="cls-7" x="235.06" y="313.41" width="19.59" height="19.59"/><rect class="cls-7" x="235.06" y="293.83" width="19.59" height="19.58"/><rect class="cls-7" x="235.06" y="274.24" width="19.59" height="19.59"/><rect class="cls-7" x="235.06" y="254.65" width="19.59" height="19.59"/><rect class="cls-7" x="235.06" y="235.06" width="19.59" height="19.59"/><rect class="cls-7" x="235.06" y="215.47" width="19.59" height="19.59"/><rect class="cls-7" x="235.06" y="195.89" width="19.59" height="19.58"/><rect class="cls-7" x="235.06" y="176.3" width="19.59" height="19.59"/><rect class="cls-7" x="235.06" y="156.71" width="19.59" height="19.59"/><rect class="cls-7" x="235.06" y="137.12" width="19.59" height="19.59"/><rect class="cls-7" x="235.06" y="117.53" width="19.59" height="19.59"/><rect class="cls-7" x="235.06" y="97.94" width="19.59" height="19.59"/><rect class="cls-7" x="235.06" y="78.36" width="19.59" height="19.58"/><rect class="cls-7" x="235.06" y="58.77" width="19.59" height="19.59"/><rect class="cls-7" x="235.06" y="39.18" width="19.59" height="19.59"/><rect class="cls-13" x="215.47" y="528.89" width="19.59" height="19.58"/><rect class="cls-13" x="215.47" y="509.3" width="19.59" height="19.59"/><rect class="cls-7" x="215.47" y="489.71" width="19.59" height="19.59"/><rect class="cls-12" x="215.47" y="470.12" width="19.59" height="19.59"/><rect class="cls-12" x="215.47" y="450.53" width="19.59" height="19.59"/><rect class="cls-12" x="215.47" y="430.94" width="19.59" height="19.59"/><rect class="cls-7" x="215.47" y="411.36" width="19.59" height="19.58"/><rect class="cls-4" x="215.47" y="391.77" width="19.59" height="19.59"/><rect class="cls-4" x="215.47" y="372.18" width="19.59" height="19.59"/><rect class="cls-4" x="215.47" y="352.59" width="19.59" height="19.59"/><rect class="cls-7" x="215.47" y="333" width="19.59" height="19.59"/><rect class="cls-7" x="215.47" y="313.41" width="19.59" height="19.59"/><rect class="cls-7" x="215.47" y="293.83" width="19.59" height="19.58"/><rect class="cls-7" x="215.47" y="274.24" width="19.59" height="19.59"/><rect class="cls-7" x="215.47" y="254.65" width="19.59" height="19.59"/><rect class="cls-7" x="215.47" y="235.06" width="19.59" height="19.59"/><rect class="cls-7" x="215.47" y="215.47" width="19.59" height="19.59"/><rect class="cls-11" x="215.47" y="195.89" width="19.59" height="19.58"/><rect class="cls-9" x="215.47" y="176.3" width="19.59" height="19.59"/><rect class="cls-9" x="215.47" y="156.71" width="19.59" height="19.59"/><rect class="cls-7" x="215.47" y="137.12" width="19.59" height="19.59"/><rect class="cls-7" x="215.47" y="117.53" width="19.59" height="19.59"/><rect class="cls-9" x="215.47" y="97.94" width="19.59" height="19.59"/><rect class="cls-7" x="215.47" y="78.36" width="19.59" height="19.58"/><rect class="cls-7" x="215.47" y="58.77" width="19.59" height="19.59"/><rect class="cls-7" x="215.47" y="39.18" width="19.59" height="19.59"/><rect class="cls-13" x="195.89" y="528.89" width="19.58" height="19.58"/><rect class="cls-13" x="195.89" y="509.3" width="19.58" height="19.59"/><rect class="cls-13" x="195.89" y="489.71" width="19.58" height="19.59"/><rect class="cls-12" x="195.89" y="470.12" width="19.58" height="19.59"/><rect class="cls-12" x="195.89" y="450.53" width="19.58" height="19.59"/><rect class="cls-12" x="195.89" y="430.94" width="19.58" height="19.59"/><rect class="cls-7" x="195.89" y="411.36" width="19.58" height="19.58"/><rect class="cls-4" x="195.89" y="391.77" width="19.58" height="19.59"/><rect class="cls-4" x="195.89" y="372.18" width="19.58" height="19.59"/><rect class="cls-4" x="195.89" y="352.59" width="19.58" height="19.59"/><rect class="cls-7" x="195.89" y="333" width="19.58" height="19.59"/><rect class="cls-7" x="195.89" y="313.41" width="19.58" height="19.59"/><rect class="cls-7" x="195.89" y="293.83" width="19.58" height="19.58"/><rect class="cls-7" x="195.89" y="274.24" width="19.58" height="19.59"/><rect class="cls-7" x="195.89" y="254.65" width="19.58" height="19.59"/><rect class="cls-3" x="195.89" y="235.06" width="19.58" height="19.59"/><rect class="cls-3" x="195.89" y="215.47" width="19.58" height="19.59"/><rect class="cls-9" x="195.89" y="195.89" width="19.58" height="19.58"/><rect class="cls-9" x="195.89" y="176.3" width="19.58" height="19.59"/><rect class="cls-9" x="195.89" y="156.71" width="19.58" height="19.59"/><rect class="cls-7" x="195.89" y="137.12" width="19.58" height="19.59"/><rect class="cls-7" x="195.89" y="117.53" width="19.58" height="19.59"/><rect class="cls-9" x="195.89" y="97.94" width="19.58" height="19.59"/><rect class="cls-7" x="195.89" y="78.36" width="19.58" height="19.58"/><rect class="cls-7" x="195.89" y="58.77" width="19.58" height="19.59"/><rect class="cls-7" x="195.89" y="39.18" width="19.58" height="19.59"/><rect class="cls-13" x="176.3" y="509.3" width="19.59" height="19.59"/><rect class="cls-13" x="176.3" y="489.71" width="19.59" height="19.59"/><rect class="cls-12" x="176.3" y="470.12" width="19.59" height="19.59"/><rect class="cls-12" x="176.3" y="450.53" width="19.59" height="19.59"/><rect class="cls-12" x="176.3" y="430.94" width="19.59" height="19.59"/><rect class="cls-13" x="176.3" y="411.36" width="19.59" height="19.58"/><rect class="cls-4" x="176.3" y="391.77" width="19.59" height="19.59"/><rect class="cls-4" x="176.3" y="372.18" width="19.59" height="19.59"/><rect class="cls-4" x="176.3" y="352.59" width="19.59" height="19.59"/><rect class="cls-7" x="176.3" y="333" width="19.59" height="19.59"/><rect class="cls-7" x="176.3" y="313.41" width="19.59" height="19.59"/><rect class="cls-7" x="176.3" y="293.83" width="19.59" height="19.58"/><rect class="cls-7" x="176.3" y="274.24" width="19.59" height="19.59"/><rect class="cls-3" x="176.3" y="254.65" width="19.59" height="19.59"/><rect class="cls-3" x="176.3" y="235.06" width="19.59" height="19.59"/><rect class="cls-3" x="176.3" y="215.47" width="19.59" height="19.59"/><rect class="cls-3" x="176.3" y="195.89" width="19.59" height="19.58"/><rect class="cls-7" x="176.3" y="176.3" width="19.59" height="19.59"/><rect class="cls-7" x="176.3" y="156.71" width="19.59" height="19.59"/><rect class="cls-7" x="176.3" y="137.12" width="19.59" height="19.59"/><rect class="cls-9" x="176.3" y="117.53" width="19.59" height="19.59"/><rect class="cls-7" x="176.3" y="97.94" width="19.59" height="19.59"/><rect class="cls-7" x="176.3" y="78.36" width="19.59" height="19.58"/><rect class="cls-7" x="176.3" y="58.77" width="19.59" height="19.59"/><rect class="cls-4" x="156.71" y="509.3" width="19.59" height="19.59"/><rect class="cls-4" x="156.71" y="489.71" width="19.59" height="19.59"/><rect class="cls-12" x="156.71" y="470.12" width="19.59" height="19.59"/><rect class="cls-12" x="156.71" y="450.53" width="19.59" height="19.59"/><rect class="cls-12" x="156.71" y="430.94" width="19.59" height="19.59"/><rect class="cls-4" x="156.71" y="411.36" width="19.59" height="19.58"/><rect class="cls-4" x="156.71" y="391.77" width="19.59" height="19.59"/><rect class="cls-4" x="156.71" y="372.18" width="19.59" height="19.59"/><rect class="cls-13" x="156.71" y="352.59" width="19.59" height="19.59"/><rect class="cls-7" x="156.71" y="333" width="19.59" height="19.59"/><rect class="cls-7" x="156.71" y="313.41" width="19.59" height="19.59"/><rect class="cls-7" x="156.71" y="293.83" width="19.59" height="19.58"/><rect class="cls-7" x="156.71" y="274.24" width="19.59" height="19.59"/><rect class="cls-3" x="156.71" y="254.65" width="19.59" height="19.59"/><rect class="cls-3" x="156.71" y="235.06" width="19.59" height="19.59"/><rect class="cls-3" x="156.71" y="215.47" width="19.59" height="19.59"/><rect class="cls-3" x="156.71" y="195.89" width="19.59" height="19.58"/><rect class="cls-7" x="156.71" y="176.3" width="19.59" height="19.59"/><rect class="cls-7" x="156.71" y="156.71" width="19.59" height="19.59"/><rect class="cls-7" x="156.71" y="137.12" width="19.59" height="19.59"/><rect class="cls-7" x="156.71" y="117.53" width="19.59" height="19.59"/><rect class="cls-7" x="156.71" y="97.94" width="19.59" height="19.59"/><rect class="cls-7" x="156.71" y="78.36" width="19.59" height="19.58"/><rect class="cls-7" x="156.71" y="58.77" width="19.59" height="19.59"/><rect class="cls-4" x="137.12" y="509.3" width="19.59" height="19.59"/><rect class="cls-4" x="137.12" y="489.71" width="19.59" height="19.59"/><rect class="cls-12" x="137.12" y="470.12" width="19.59" height="19.59"/><rect class="cls-12" x="137.12" y="450.53" width="19.59" height="19.59"/><rect class="cls-12" x="137.12" y="430.94" width="19.59" height="19.59"/><rect class="cls-4" x="137.12" y="411.36" width="19.59" height="19.58"/><rect class="cls-4" x="137.12" y="391.77" width="19.59" height="19.59"/><rect class="cls-4" x="137.12" y="372.18" width="19.59" height="19.59"/><rect class="cls-13" x="137.12" y="352.59" width="19.59" height="19.59"/><rect class="cls-13" x="137.12" y="333" width="19.59" height="19.59"/><rect class="cls-7" x="137.12" y="313.41" width="19.59" height="19.59"/><rect class="cls-7" x="137.12" y="293.83" width="19.59" height="19.58"/><rect class="cls-7" x="137.12" y="274.24" width="19.59" height="19.59"/><rect class="cls-9" x="137.12" y="254.65" width="19.59" height="19.59"/><rect class="cls-3" x="137.12" y="235.06" width="19.59" height="19.59"/><rect class="cls-9" x="137.12" y="215.47" width="19.59" height="19.59"/><rect class="cls-9" x="137.12" y="195.89" width="19.59" height="19.58"/><rect class="cls-7" x="137.12" y="176.3" width="19.59" height="19.59"/><rect class="cls-7" x="137.12" y="156.71" width="19.59" height="19.59"/><rect class="cls-7" x="137.12" y="137.12" width="19.59" height="19.59"/><rect class="cls-7" x="137.12" y="117.53" width="19.59" height="19.59"/><rect class="cls-7" x="137.12" y="97.94" width="19.59" height="19.59"/><rect class="cls-7" x="137.12" y="78.36" width="19.59" height="19.58"/><rect class="cls-4" x="137.12" y="58.77" width="19.59" height="19.59"/><rect class="cls-4" x="137.12" y="39.18" width="19.59" height="19.59"/><rect class="cls-4" x="117.53" y="509.3" width="19.59" height="19.59"/><rect class="cls-4" x="117.53" y="489.71" width="19.59" height="19.59"/><rect class="cls-13" x="117.53" y="352.59" width="19.59" height="19.59"/><rect class="cls-13" x="117.53" y="333" width="19.59" height="19.59"/><rect class="cls-13" x="117.53" y="313.41" width="19.59" height="19.59"/><rect class="cls-13" x="117.53" y="293.83" width="19.59" height="19.58"/><rect class="cls-9" x="117.53" y="274.24" width="19.59" height="19.59"/><rect class="cls-7" x="117.53" y="254.65" width="19.59" height="19.59"/><rect class="cls-7" x="117.53" y="235.06" width="19.59" height="19.59"/><rect class="cls-9" x="117.53" y="215.47" width="19.59" height="19.59"/><rect class="cls-7" x="117.53" y="195.89" width="19.59" height="19.58"/><rect class="cls-9" x="117.53" y="176.3" width="19.59" height="19.59"/><rect class="cls-7" x="117.53" y="156.71" width="19.59" height="19.59"/><rect class="cls-7" x="117.53" y="137.12" width="19.59" height="19.59"/><rect class="cls-7" x="117.53" y="117.53" width="19.59" height="19.59"/><rect class="cls-13" x="117.53" y="97.94" width="19.59" height="19.59"/><rect class="cls-13" x="117.53" y="78.36" width="19.59" height="19.58"/><rect class="cls-4" x="117.53" y="58.77" width="19.59" height="19.59"/><rect class="cls-4" x="117.53" y="39.18" width="19.59" height="19.59"/><rect class="cls-4" x="117.53" y="19.59" width="19.59" height="19.59"/><rect class="cls-4" x="97.94" y="509.3" width="19.59" height="19.59"/><rect class="cls-4" x="97.94" y="489.71" width="19.59" height="19.59"/><rect class="cls-13" x="97.94" y="333" width="19.59" height="19.59"/><rect class="cls-13" x="97.94" y="313.41" width="19.59" height="19.59"/><rect class="cls-13" x="97.94" y="293.83" width="19.59" height="19.58"/><rect class="cls-13" x="97.94" y="274.24" width="19.59" height="19.59"/><rect class="cls-13" x="97.94" y="254.65" width="19.59" height="19.59"/><rect class="cls-7" x="97.94" y="235.06" width="19.59" height="19.59"/><rect class="cls-9" x="97.94" y="215.47" width="19.59" height="19.59"/><rect class="cls-7" x="97.94" y="195.89" width="19.59" height="19.58"/><rect class="cls-7" x="97.94" y="176.3" width="19.59" height="19.59"/><rect class="cls-13" x="97.94" y="156.71" width="19.59" height="19.59"/><rect class="cls-13" x="97.94" y="137.12" width="19.59" height="19.59"/><rect class="cls-13" x="97.94" y="117.53" width="19.59" height="19.59"/><rect class="cls-13" x="97.94" y="97.94" width="19.59" height="19.59"/><rect class="cls-3" x="97.94" y="78.36" width="19.59" height="19.58"/><rect class="cls-4" x="97.94" y="58.77" width="19.59" height="19.59"/><rect class="cls-4" x="97.94" y="39.18" width="19.59" height="19.59"/><rect class="cls-4" x="97.94" y="19.59" width="19.59" height="19.59"/><rect class="cls-4" x="78.36" y="509.3" width="19.58" height="19.59"/><rect class="cls-4" x="78.36" y="489.71" width="19.58" height="19.59"/><rect class="cls-4" x="78.36" y="470.12" width="19.58" height="19.59"/><rect class="cls-13" x="78.36" y="313.41" width="19.58" height="19.59"/><rect class="cls-13" x="78.36" y="293.83" width="19.58" height="19.58"/><rect class="cls-13" x="78.36" y="274.24" width="19.58" height="19.59"/><rect class="cls-13" x="78.36" y="254.65" width="19.58" height="19.59"/><rect class="cls-13" x="78.36" y="235.06" width="19.58" height="19.59"/><rect class="cls-13" x="78.36" y="215.47" width="19.58" height="19.59"/><rect class="cls-13" x="78.36" y="195.89" width="19.58" height="19.58"/><rect class="cls-13" x="78.36" y="176.3" width="19.58" height="19.59"/><rect class="cls-13" x="78.36" y="156.71" width="19.58" height="19.59"/><rect class="cls-13" x="78.36" y="137.12" width="19.58" height="19.59"/><rect class="cls-13" x="78.36" y="117.53" width="19.58" height="19.59"/><rect class="cls-3" x="78.36" y="97.94" width="19.58" height="19.59"/><rect class="cls-3" x="78.36" y="78.36" width="19.58" height="19.58"/><rect class="cls-4" x="78.36" y="58.77" width="19.58" height="19.59"/><rect class="cls-4" x="78.36" y="39.18" width="19.58" height="19.59"/><rect class="cls-4" x="78.36" y="19.59" width="19.58" height="19.59"/><rect class="cls-4" x="58.77" y="489.71" width="19.59" height="19.59"/><rect class="cls-4" x="58.77" y="470.12" width="19.59" height="19.59"/><rect class="cls-4" x="58.77" y="450.53" width="19.59" height="19.59"/><rect class="cls-4" x="58.77" y="430.94" width="19.59" height="19.59"/><rect class="cls-4" x="58.77" y="411.36" width="19.59" height="19.58"/><rect class="cls-4" x="58.77" y="391.77" width="19.59" height="19.59"/><rect class="cls-13" x="58.77" y="293.83" width="19.59" height="19.58"/><rect class="cls-13" x="58.77" y="274.24" width="19.59" height="19.59"/><rect class="cls-13" x="58.77" y="254.65" width="19.59" height="19.59"/><rect class="cls-13" x="58.77" y="235.06" width="19.59" height="19.59"/><rect class="cls-13" x="58.77" y="215.47" width="19.59" height="19.59"/><rect class="cls-13" x="58.77" y="195.89" width="19.59" height="19.58"/><rect class="cls-13" x="58.77" y="176.3" width="19.59" height="19.59"/><rect class="cls-13" x="58.77" y="156.71" width="19.59" height="19.59"/><rect class="cls-13" x="58.77" y="137.12" width="19.59" height="19.59"/><rect class="cls-3" x="58.77" y="117.53" width="19.59" height="19.59"/><rect class="cls-3" x="58.77" y="97.94" width="19.59" height="19.59"/><rect class="cls-3" x="58.77" y="78.36" width="19.59" height="19.58"/><rect class="cls-3" x="58.77" y="58.77" width="19.59" height="19.59"/><rect class="cls-4" x="58.77" y="39.18" width="19.59" height="19.59"/><rect class="cls-4" x="58.77" y="19.59" width="19.59" height="19.59"/><rect class="cls-4" x="58.77" width="19.59" height="19.59"/><rect class="cls-4" x="39.18" y="470.12" width="19.59" height="19.59"/><rect class="cls-4" x="39.18" y="450.53" width="19.59" height="19.59"/><rect class="cls-4" x="39.18" y="430.94" width="19.59" height="19.59"/><rect class="cls-4" x="39.18" y="411.36" width="19.59" height="19.58"/><rect class="cls-7" x="39.18" y="391.77" width="19.59" height="19.59"/><rect class="cls-7" x="39.18" y="372.18" width="19.59" height="19.59"/><rect class="cls-13" x="39.18" y="254.65" width="19.59" height="19.59"/><rect class="cls-13" x="39.18" y="235.06" width="19.59" height="19.59"/><rect class="cls-13" x="39.18" y="215.47" width="19.59" height="19.59"/><rect class="cls-13" x="39.18" y="195.89" width="19.59" height="19.58"/><rect class="cls-13" x="39.18" y="176.3" width="19.59" height="19.59"/><rect class="cls-3" x="39.18" y="137.12" width="19.59" height="19.59"/><rect class="cls-3" x="39.18" y="117.53" width="19.59" height="19.59"/><rect class="cls-3" x="39.18" y="97.94" width="19.59" height="19.59"/><rect class="cls-3" x="39.18" y="78.36" width="19.59" height="19.58"/><rect class="cls-3" x="39.18" y="58.77" width="19.59" height="19.59"/><rect class="cls-3" x="39.18" y="39.18" width="19.59" height="19.59"/><rect class="cls-4" x="39.18" y="19.59" width="19.59" height="19.59"/><rect class="cls-7" x="19.59" y="391.77" width="19.59" height="19.59"/><rect class="cls-7" x="19.59" y="372.18" width="19.59" height="19.59"/><rect class="cls-7" x="19.59" y="352.59" width="19.59" height="19.59"/><rect class="cls-3" x="19.59" y="97.94" width="19.59" height="19.59"/><rect class="cls-3" x="19.59" y="78.36" width="19.59" height="19.58"/><rect class="cls-7" y="372.18" width="19.59" height="19.59"/></svg>