<svg width="158" height="197" viewBox="0 0 158 197" fill="none" xmlns="http://www.w3.org/2000/svg">
<g clip-path="url(#clip0_204_4031)" filter="url(#filter0_i_204_4031)">
<path d="M0.499985 143.963H7.63354V151.541H0.499985V143.963Z" fill="#E2505E"/>
<path d="M0.499985 136.385H7.63354V143.963H0.499985V136.385Z" fill="#E2505E"/>
<path d="M0.499985 98.5H7.63354V106.078H0.499985V98.5Z" fill="#F4E1E1"/>
<path d="M0.499985 90.9222H7.63354V98.5H0.499985V90.9222Z" fill="#F4E1E1"/>
<path d="M0.499985 83.3483H7.63354V90.9222H0.499985V83.3483Z" fill="#AA2639"/>
<path d="M0.499985 75.7704H7.63354V83.3483H0.499985V75.7704Z" fill="#AA2639"/>
<path d="M7.63358 151.541H14.7708V159.119H7.63358V151.541Z" fill="#E2505E"/>
<path d="M7.63358 143.963H14.7708V151.541H7.63358V143.963Z" fill="#E2505E"/>
<path d="M7.63358 136.385H14.7708V143.963H7.63358V136.385Z" fill="#E2505E"/>
<path d="M7.63358 128.807H14.7708V136.385H7.63358V128.807Z" fill="#E2505E"/>
<path d="M7.63358 121.233H14.7708V128.807H7.63358V121.233Z" fill="#E2505E"/>
<path d="M7.63358 113.656H14.7708V121.233H7.63358V113.656Z" fill="#F4E1E1"/>
<path d="M7.63358 106.078H14.7708V113.656H7.63358V106.078Z" fill="#F4E1E1"/>
<path d="M7.63358 98.5H14.7708V106.078H7.63358V98.5Z" fill="#F4E1E1"/>
<path d="M7.63358 90.9222H14.7708V98.5H7.63358V90.9222Z" fill="#F4E1E1"/>
<path d="M7.63358 83.3483H14.7708V90.9222H7.63358V83.3483Z" fill="#F4E1E1"/>
<path d="M7.63358 75.7704H14.7708V83.3483H7.63358V75.7704Z" fill="#AA2639"/>
<path d="M7.63358 68.1926H14.7708V75.7704H7.63358V68.1926Z" fill="#AA2639"/>
<path d="M14.7708 166.693H21.908V174.27H14.7708V166.693Z" fill="#E2505E"/>
<path d="M14.7708 159.119H21.908V166.693H14.7708V159.119Z" fill="#E2505E"/>
<path d="M14.7708 151.541H21.908V159.119H14.7708V151.541Z" fill="#E2505E"/>
<path d="M14.7708 143.963H21.908V151.541H14.7708V143.963Z" fill="#E2505E"/>
<path d="M14.7708 136.385H21.908V143.963H14.7708V136.385Z" fill="#E2505E"/>
<path d="M14.7708 128.807H21.908V136.385H14.7708V128.807Z" fill="#E2505E"/>
<path d="M14.7708 121.233H21.908V128.807H14.7708V121.233Z" fill="#E2505E"/>
<path d="M14.7708 113.656H21.908V121.233H14.7708V113.656Z" fill="#E2505E"/>
<path d="M14.7708 106.078H21.908V113.656H14.7708V106.078Z" fill="#F4E1E1"/>
<path d="M14.7708 98.5H21.908V106.078H14.7708V98.5Z" fill="#F4E1E1"/>
<path d="M14.7708 90.9222H21.908V98.5H14.7708V90.9222Z" fill="#F4E1E1"/>
<path d="M14.7708 83.3483H21.908V90.9222H14.7708V83.3483Z" fill="#AA2639"/>
<path d="M14.7708 75.7704H21.908V83.3483H14.7708V75.7704Z" fill="#AA2639"/>
<path d="M14.7708 68.1926H21.908V75.7704H14.7708V68.1926Z" fill="#AA2639"/>
<path d="M21.9079 174.27H29.0451V181.848H21.9079V174.27Z" fill="#E2505E"/>
<path d="M21.9079 166.693H29.0451V174.27H21.9079V166.693Z" fill="#E2505E"/>
<path d="M21.9079 159.119H29.0451V166.693H21.9079V159.119Z" fill="#E2505E"/>
<path d="M21.9079 151.541H29.0451V159.119H21.9079V151.541Z" fill="#E2505E"/>
<path d="M21.9079 143.963H29.0451V151.541H21.9079V143.963Z" fill="#23282D"/>
<path d="M21.9079 136.385H29.0451V143.963H21.9079V136.385Z" fill="#E2505E"/>
<path d="M21.9079 128.807H29.0451V136.385H21.9079V128.807Z" fill="#E2505E"/>
<path d="M21.9079 121.233H29.0451V128.807H21.9079V121.233Z" fill="#E2505E"/>
<path d="M21.9079 113.656H29.0451V121.233H21.9079V113.656Z" fill="#E2505E"/>
<path d="M21.9079 106.078H29.0451V113.656H21.9079V106.078Z" fill="#E2505E"/>
<path d="M21.9079 98.5H29.0451V106.078H21.9079V98.5Z" fill="#F4E1E1"/>
<path d="M21.9079 90.9222H29.0451V98.5H21.9079V90.9222Z" fill="#AA2639"/>
<path d="M21.9079 83.3483H29.0451V90.9222H21.9079V83.3483Z" fill="#AA2639"/>
<path d="M21.9079 75.7704H29.0451V83.3483H21.9079V75.7704Z" fill="#AA2639"/>
<path d="M29.0451 174.27H36.1823V181.848H29.0451V174.27Z" fill="#E2505E"/>
<path d="M29.0451 166.693H36.1823V174.27H29.0451V166.693Z" fill="#E2505E"/>
<path d="M29.0451 159.119H36.1823V166.693H29.0451V159.119Z" fill="#23282D"/>
<path d="M29.0451 151.541H36.1823V159.119H29.0451V151.541Z" fill="#E2505E"/>
<path d="M29.0451 143.963H36.1823V151.541H29.0451V143.963Z" fill="#23282D"/>
<path d="M29.0451 136.385H36.1823V143.963H29.0451V136.385Z" fill="#E2505E"/>
<path d="M29.0451 128.807H36.1823V136.385H29.0451V128.807Z" fill="#23282D"/>
<path d="M29.0451 121.233H36.1823V128.807H29.0451V121.233Z" fill="#E2505E"/>
<path d="M29.0451 113.656H36.1823V121.233H29.0451V113.656Z" fill="#E2505E"/>
<path d="M29.0451 106.078H36.1823V113.656H29.0451V106.078Z" fill="#E2505E"/>
<path d="M29.0451 98.5H36.1823V106.078H29.0451V98.5Z" fill="#E2505E"/>
<path d="M29.0451 90.9222H36.1823V98.5H29.0451V90.9222Z" fill="#AA2639"/>
<path d="M29.0451 83.3483H36.1823V90.9222H29.0451V83.3483Z" fill="#AA2639"/>
<path d="M29.0451 75.7704H36.1823V83.3483H29.0451V75.7704Z" fill="#AA2639"/>
<path d="M36.1823 181.848H43.3159V189.426H36.1823V181.848Z" fill="#E2505E"/>
<path d="M36.1823 174.27H43.3159V181.848H36.1823V174.27Z" fill="#E2505E"/>
<path d="M36.1823 166.693H43.3159V174.27H36.1823V166.693Z" fill="#E2505E"/>
<path d="M36.1823 159.119H43.3159V166.693H36.1823V159.119Z" fill="#E2505E"/>
<path d="M36.1823 151.541H43.3159V159.119H36.1823V151.541Z" fill="#23282D"/>
<path d="M36.1823 143.963H43.3159V151.541H36.1823V143.963Z" fill="#F4E1E1"/>
<path d="M36.1823 136.385H43.3159V143.963H36.1823V136.385Z" fill="#23282D"/>
<path d="M36.1823 128.807H43.3159V136.385H36.1823V128.807Z" fill="#E2505E"/>
<path d="M36.1823 121.233H43.3159V128.807H36.1823V121.233Z" fill="#E2505E"/>
<path d="M36.1823 113.656H43.3159V121.233H36.1823V113.656Z" fill="#E2505E"/>
<path d="M36.1823 106.078H43.3159V113.656H36.1823V106.078Z" fill="#E2505E"/>
<path d="M36.1823 98.5H43.3159V106.078H36.1823V98.5Z" fill="#E2505E"/>
<path d="M36.1823 90.9222H43.3159V98.5H36.1823V90.9222Z" fill="#E2505E"/>
<path d="M36.1823 83.3483H43.3159V90.9222H36.1823V83.3483Z" fill="#AA2639"/>
<path d="M43.3159 181.848H50.4531V189.426H43.3159V181.848Z" fill="#E2505E"/>
<path d="M43.3159 174.27H50.4531V181.848H43.3159V174.27Z" fill="#E2505E"/>
<path d="M43.3159 166.693H50.4531V174.27H43.3159V166.693Z" fill="#E2505E"/>
<path d="M43.3159 159.119H50.4531V166.693H43.3159V159.119Z" fill="#E2505E"/>
<path d="M43.3159 151.541H50.4531V159.119H43.3159V151.541Z" fill="#F4E1E1"/>
<path d="M43.3159 143.963H50.4531V151.541H43.3159V143.963Z" fill="#F4E1E1"/>
<path d="M43.3159 136.385H50.4531V143.963H43.3159V136.385Z" fill="#F4E1E1"/>
<path d="M43.3159 128.807H50.4531V136.385H43.3159V128.807Z" fill="#23282D"/>
<path d="M43.3159 121.233H50.4531V128.807H43.3159V121.233Z" fill="#E2505E"/>
<path d="M43.3159 113.656H50.4531V121.233H43.3159V113.656Z" fill="#E2505E"/>
<path d="M43.3159 106.078H50.4531V113.656H43.3159V106.078Z" fill="#E2505E"/>
<path d="M43.3159 98.5H50.4531V106.078H43.3159V98.5Z" fill="#E2505E"/>
<path d="M43.3159 90.9222H50.4531V98.5H43.3159V90.9222Z" fill="#E2505E"/>
<path d="M43.3159 83.3483H50.4531V90.9222H43.3159V83.3483Z" fill="#AA2639"/>
<path d="M43.3159 37.8852H50.4531V45.463H43.3159V37.8852Z" fill="#F48F42"/>
<path d="M43.3159 0H50.4531V7.57782H43.3159V0Z" fill="#F48F42"/>
<path d="M50.4531 181.848H57.5903V189.426H50.4531V181.848Z" fill="#E2505E"/>
<path d="M50.4531 174.27H57.5903V181.848H50.4531V174.27Z" fill="#E2505E"/>
<path d="M50.4531 166.693H57.5903V174.27H50.4531V166.693Z" fill="#E2505E"/>
<path d="M50.4531 159.119H57.5903V166.693H50.4531V159.119Z" fill="#E2505E"/>
<path d="M50.4531 151.541H57.5903V159.119H50.4531V151.541Z" fill="#E2505E"/>
<path d="M50.4531 143.963H57.5903V151.541H50.4531V143.963Z" fill="#F4E1E1"/>
<path d="M50.4531 136.385H57.5903V143.963H50.4531V136.385Z" fill="#23282D"/>
<path d="M50.4531 128.807H57.5903V136.385H50.4531V128.807Z" fill="#23282D"/>
<path d="M50.4531 121.233H57.5903V128.807H50.4531V121.233Z" fill="#DEE2E5"/>
<path d="M50.4531 113.656H57.5903V121.233H50.4531V113.656Z" fill="#E2505E"/>
<path d="M50.4531 106.078H57.5903V113.656H50.4531V106.078Z" fill="#23282D"/>
<path d="M50.4531 98.5H57.5903V106.078H50.4531V98.5Z" fill="#23282D"/>
<path d="M50.4531 90.9222H57.5903V98.5H50.4531V90.9222Z" fill="#E2505E"/>
<path d="M50.4531 83.3483H57.5903V90.9222H50.4531V83.3483Z" fill="#E2505E"/>
<path d="M50.4531 30.3074H57.5903V37.8852H50.4531V30.3074Z" fill="#F48F42"/>
<path d="M50.4531 7.57782H57.5903V15.1556H50.4531V7.57782Z" fill="#F48F42"/>
<path d="M57.5902 189.426H64.7274V197H57.5902V189.426Z" fill="#E2505E"/>
<path d="M57.5902 181.848H64.7274V189.426H57.5902V181.848Z" fill="#E2505E"/>
<path d="M57.5902 174.27H64.7274V181.848H57.5902V174.27Z" fill="#E2505E"/>
<path d="M57.5902 166.693H64.7274V174.27H57.5902V166.693Z" fill="#E2505E"/>
<path d="M57.5902 159.119H64.7274V166.693H57.5902V159.119Z" fill="#E2505E"/>
<path d="M57.5902 151.541H64.7274V159.119H57.5902V151.541Z" fill="#E2505E"/>
<path d="M57.5902 143.963H64.7274V151.541H57.5902V143.963Z" fill="#E2505E"/>
<path d="M57.5902 136.385H64.7274V143.963H57.5902V136.385Z" fill="#23282D"/>
<path d="M57.5902 128.807H64.7274V136.385H57.5902V128.807Z" fill="#23282D"/>
<path d="M57.5902 121.233H64.7274V128.807H57.5902V121.233Z" fill="#DEE2E5"/>
<path d="M57.5902 113.656H64.7274V121.233H57.5902V113.656Z" fill="#E2505E"/>
<path d="M57.5902 106.078H64.7274V113.656H57.5902V106.078Z" fill="#E2505E"/>
<path d="M57.5902 98.5H64.7274V106.078H57.5902V98.5Z" fill="#23282D"/>
<path d="M57.5902 90.9222H64.7274V98.5H57.5902V90.9222Z" fill="#E2505E"/>
<path d="M57.5902 83.3483H64.7274V90.9222H57.5902V83.3483Z" fill="#E2505E"/>
<path d="M64.7274 189.426H71.861V197H64.7274V189.426Z" fill="#E2505E"/>
<path d="M64.7274 181.848H71.861V189.426H64.7274V181.848Z" fill="#E2505E"/>
<path d="M64.7274 174.27H71.861V181.848H64.7274V174.27Z" fill="#E2505E"/>
<path d="M64.7274 166.693H71.861V174.27H64.7274V166.693Z" fill="#E2505E"/>
<path d="M64.7274 159.119H71.861V166.693H64.7274V159.119Z" fill="#23282D"/>
<path d="M64.7274 151.541H71.861V159.119H64.7274V151.541Z" fill="#E2505E"/>
<path d="M64.7274 143.963H71.861V151.541H64.7274V143.963Z" fill="#E2505E"/>
<path d="M64.7274 136.385H71.861V143.963H64.7274V136.385Z" fill="#E2505E"/>
<path d="M64.7274 128.807H71.861V136.385H64.7274V128.807Z" fill="#23282D"/>
<path d="M64.7274 121.233H71.861V128.807H64.7274V121.233Z" fill="#E2505E"/>
<path d="M64.7274 113.656H71.861V121.233H64.7274V113.656Z" fill="#E2505E"/>
<path d="M64.7274 106.078H71.861V113.656H64.7274V106.078Z" fill="#E2505E"/>
<path d="M64.7274 98.5H71.861V106.078H64.7274V98.5Z" fill="#E2505E"/>
<path d="M64.7274 90.9222H71.861V98.5H64.7274V90.9222Z" fill="#E2505E"/>
<path d="M64.7274 83.3483H71.861V90.9222H64.7274V83.3483Z" fill="#E2505E"/>
<path d="M64.7274 60.6148H71.861V68.1926H64.7274V60.6148Z" fill="#23282D"/>
<path d="M64.7274 53.0408H71.861V60.6148H64.7274V53.0408Z" fill="#7E7E8C"/>
<path d="M64.7274 30.3074H71.861V37.8852H64.7274V30.3074Z" fill="#F48F42"/>
<path d="M64.7274 22.7296H71.861V30.3074H64.7274V22.7296Z" fill="#F48F42"/>
<path d="M64.7274 15.1556H71.861V22.7296H64.7274V15.1556Z" fill="#F48F42"/>
<path d="M71.861 189.426H78.9982V197H71.861V189.426Z" fill="#E2505E"/>
<path d="M71.861 181.848H78.9982V189.426H71.861V181.848Z" fill="#E2505E"/>
<path d="M71.861 174.27H78.9982V181.848H71.861V174.27Z" fill="#E2505E"/>
<path d="M71.861 166.693H78.9982V174.27H71.861V166.693Z" fill="#23282D"/>
<path d="M71.861 159.119H78.9982V166.693H71.861V159.119Z" fill="#23282D"/>
<path d="M71.861 151.541H78.9982V159.119H71.861V151.541Z" fill="#E2505E"/>
<path d="M71.861 143.963H78.9982V151.541H71.861V143.963Z" fill="#F4E1E1"/>
<path d="M71.861 136.385H78.9982V143.963H71.861V136.385Z" fill="#F4E1E1"/>
<path d="M71.861 128.807H78.9982V136.385H71.861V128.807Z" fill="#E2505E"/>
<path d="M71.861 121.233H78.9982V128.807H71.861V121.233Z" fill="#E2505E"/>
<path d="M71.861 113.656H78.9982V121.233H71.861V113.656Z" fill="#E2505E"/>
<path d="M71.861 106.078H78.9982V113.656H71.861V106.078Z" fill="#E2505E"/>
<path d="M71.861 98.5H78.9982V106.078H71.861V98.5Z" fill="#E2505E"/>
<path d="M71.861 90.9222H78.9982V98.5H71.861V90.9222Z" fill="#E2505E"/>
<path d="M71.861 83.3483H78.9982V90.9222H71.861V83.3483Z" fill="#E2505E"/>
<path d="M71.861 68.1926H78.9982V75.7704H71.861V68.1926Z" fill="#23282D"/>
<path d="M71.861 60.6148H78.9982V68.1926H71.861V60.6148Z" fill="#23282D"/>
<path d="M71.861 53.0408H78.9982V60.6148H71.861V53.0408Z" fill="#7E7E8C"/>
<path d="M71.861 45.463H78.9982V53.0408H71.861V45.463Z" fill="#F48F42"/>
<path d="M71.861 37.8852H78.9982V45.463H71.861V37.8852Z" fill="#F48F42"/>
<path d="M71.861 30.3074H78.9982V37.8852H71.861V30.3074Z" fill="#F48F42"/>
<path d="M71.861 22.7296H78.9982V30.3074H71.861V22.7296Z" fill="#F48F42"/>
<path d="M71.861 15.1556H78.9982V22.7296H71.861V15.1556Z" fill="#F48F42"/>
<path d="M71.861 7.57782H78.9982V15.1556H71.861V7.57782Z" fill="#F48F42"/>
<path d="M78.9982 189.426H86.1354V197H78.9982V189.426Z" fill="#E2505E"/>
<path d="M78.9982 181.848H86.1354V189.426H78.9982V181.848Z" fill="#E2505E"/>
<path d="M78.9982 174.27H86.1354V181.848H78.9982V174.27Z" fill="#E2505E"/>
<path d="M78.9982 166.693H86.1354V174.27H78.9982V166.693Z" fill="#23282D"/>
<path d="M78.9982 159.119H86.1354V166.693H78.9982V159.119Z" fill="#23282D"/>
<path d="M78.9982 151.541H86.1354V159.119H78.9982V151.541Z" fill="#E2505E"/>
<path d="M78.9982 143.963H86.1354V151.541H78.9982V143.963Z" fill="#F4E1E1"/>
<path d="M78.9982 136.385H86.1354V143.963H78.9982V136.385Z" fill="#F4E1E1"/>
<path d="M78.9982 128.807H86.1354V136.385H78.9982V128.807Z" fill="#E2505E"/>
<path d="M78.9982 121.233H86.1354V128.807H78.9982V121.233Z" fill="#E2505E"/>
<path d="M78.9982 113.656H86.1354V121.233H78.9982V113.656Z" fill="#E2505E"/>
<path d="M78.9982 106.078H86.1354V113.656H78.9982V106.078Z" fill="#E2505E"/>
<path d="M78.9982 98.5H86.1354V106.078H78.9982V98.5Z" fill="#E2505E"/>
<path d="M78.9982 90.9222H86.1354V98.5H78.9982V90.9222Z" fill="#E2505E"/>
<path d="M78.9982 83.3483H86.1354V90.9222H78.9982V83.3483Z" fill="#E2505E"/>
<path d="M78.9982 68.1926H86.1354V75.7704H78.9982V68.1926Z" fill="#23282D"/>
<path d="M78.9982 60.6148H86.1354V68.1926H78.9982V60.6148Z" fill="#23282D"/>
<path d="M78.9982 53.0408H86.1354V60.6148H78.9982V53.0408Z" fill="#656D72"/>
<path d="M78.9982 45.463H86.1354V53.0408H78.9982V45.463Z" fill="#F26E14"/>
<path d="M78.9982 37.8852H86.1354V45.463H78.9982V37.8852Z" fill="#F26E14"/>
<path d="M78.9982 30.3074H86.1354V37.8852H78.9982V30.3074Z" fill="#F26E14"/>
<path d="M78.9982 22.7296H86.1354V30.3074H78.9982V22.7296Z" fill="#F26E14"/>
<path d="M78.9982 15.1556H86.1354V22.7296H78.9982V15.1556Z" fill="#F26E14"/>
<path d="M78.9982 7.57782H86.1354V15.1556H78.9982V7.57782Z" fill="#F26E14"/>
<path d="M86.1354 189.426H93.2726V197H86.1354V189.426Z" fill="#AA2639"/>
<path d="M86.1354 181.848H93.2726V189.426H86.1354V181.848Z" fill="#E2505E"/>
<path d="M86.1354 174.27H93.2726V181.848H86.1354V174.27Z" fill="#E2505E"/>
<path d="M86.1354 166.693H93.2726V174.27H86.1354V166.693Z" fill="#E2505E"/>
<path d="M86.1354 159.119H93.2726V166.693H86.1354V159.119Z" fill="#23282D"/>
<path d="M86.1354 151.541H93.2726V159.119H86.1354V151.541Z" fill="#E2505E"/>
<path d="M86.1354 143.963H93.2726V151.541H86.1354V143.963Z" fill="#E2505E"/>
<path d="M86.1354 136.385H93.2726V143.963H86.1354V136.385Z" fill="#E2505E"/>
<path d="M86.1354 128.807H93.2726V136.385H86.1354V128.807Z" fill="#23282D"/>
<path d="M86.1354 121.233H93.2726V128.807H86.1354V121.233Z" fill="#E2505E"/>
<path d="M86.1354 113.656H93.2726V121.233H86.1354V113.656Z" fill="#E2505E"/>
<path d="M86.1354 106.078H93.2726V113.656H86.1354V106.078Z" fill="#E2505E"/>
<path d="M86.1354 98.5H93.2726V106.078H86.1354V98.5Z" fill="#E2505E"/>
<path d="M86.1354 90.9222H93.2726V98.5H86.1354V90.9222Z" fill="#E2505E"/>
<path d="M86.1354 83.3483H93.2726V90.9222H86.1354V83.3483Z" fill="#E2505E"/>
<path d="M86.1354 60.6148H93.2726V68.1926H86.1354V60.6148Z" fill="#23282D"/>
<path d="M86.1354 53.0408H93.2726V60.6148H86.1354V53.0408Z" fill="#656D72"/>
<path d="M86.1354 30.3074H93.2726V37.8852H86.1354V30.3074Z" fill="#F26E14"/>
<path d="M86.1354 22.7296H93.2726V30.3074H86.1354V22.7296Z" fill="#F26E14"/>
<path d="M86.1354 15.1556H93.2726V22.7296H86.1354V15.1556Z" fill="#F26E14"/>
<path d="M93.2725 189.426H100.41V197H93.2725V189.426Z" fill="#AA2639"/>
<path d="M93.2725 181.848H100.41V189.426H93.2725V181.848Z" fill="#AA2639"/>
<path d="M93.2725 174.27H100.41V181.848H93.2725V174.27Z" fill="#E2505E"/>
<path d="M93.2725 166.693H100.41V174.27H93.2725V166.693Z" fill="#E2505E"/>
<path d="M93.2725 159.119H100.41V166.693H93.2725V159.119Z" fill="#E2505E"/>
<path d="M93.2725 151.541H100.41V159.119H93.2725V151.541Z" fill="#E2505E"/>
<path d="M93.2725 143.963H100.41V151.541H93.2725V143.963Z" fill="#E2505E"/>
<path d="M93.2725 136.385H100.41V143.963H93.2725V136.385Z" fill="#23282D"/>
<path d="M93.2725 128.807H100.41V136.385H93.2725V128.807Z" fill="#23282D"/>
<path d="M93.2725 121.233H100.41V128.807H93.2725V121.233Z" fill="#DEE2E5"/>
<path d="M93.2725 113.656H100.41V121.233H93.2725V113.656Z" fill="#E2505E"/>
<path d="M93.2725 106.078H100.41V113.656H93.2725V106.078Z" fill="#E2505E"/>
<path d="M93.2725 98.5H100.41V106.078H93.2725V98.5Z" fill="#23282D"/>
<path d="M93.2725 90.9222H100.41V98.5H93.2725V90.9222Z" fill="#E2505E"/>
<path d="M93.2725 83.3483H100.41V90.9222H93.2725V83.3483Z" fill="#AA2639"/>
<path d="M100.41 181.848H107.543V189.426H100.41V181.848Z" fill="#AA2639"/>
<path d="M100.41 174.27H107.543V181.848H100.41V174.27Z" fill="#E2505E"/>
<path d="M100.41 166.693H107.543V174.27H100.41V166.693Z" fill="#E2505E"/>
<path d="M100.41 159.119H107.543V166.693H100.41V159.119Z" fill="#E2505E"/>
<path d="M100.41 151.541H107.543V159.119H100.41V151.541Z" fill="#E2505E"/>
<path d="M100.41 143.963H107.543V151.541H100.41V143.963Z" fill="#F4E1E1"/>
<path d="M100.41 136.385H107.543V143.963H100.41V136.385Z" fill="#23282D"/>
<path d="M100.41 128.807H107.543V136.385H100.41V128.807Z" fill="#23282D"/>
<path d="M100.41 121.233H107.543V128.807H100.41V121.233Z" fill="#DEE2E5"/>
<path d="M100.41 113.656H107.543V121.233H100.41V113.656Z" fill="#E2505E"/>
<path d="M100.41 106.078H107.543V113.656H100.41V106.078Z" fill="#23282D"/>
<path d="M100.41 98.5H107.543V106.078H100.41V98.5Z" fill="#23282D"/>
<path d="M100.41 90.9222H107.543V98.5H100.41V90.9222Z" fill="#E2505E"/>
<path d="M100.41 83.3483H107.543V90.9222H100.41V83.3483Z" fill="#AA2639"/>
<path d="M100.41 30.3074H107.543V37.8852H100.41V30.3074Z" fill="#F48F42"/>
<path d="M100.41 7.57782H107.543V15.1556H100.41V7.57782Z" fill="#F48F42"/>
<path d="M107.543 181.848H114.68V189.426H107.543V181.848Z" fill="#AA2639"/>
<path d="M107.543 174.27H114.68V181.848H107.543V174.27Z" fill="#E2505E"/>
<path d="M107.543 166.693H114.68V174.27H107.543V166.693Z" fill="#E2505E"/>
<path d="M107.543 159.119H114.68V166.693H107.543V159.119Z" fill="#E2505E"/>
<path d="M107.543 151.541H114.68V159.119H107.543V151.541Z" fill="#F4E1E1"/>
<path d="M107.543 143.963H114.68V151.541H107.543V143.963Z" fill="#F4E1E1"/>
<path d="M107.543 136.385H114.68V143.963H107.543V136.385Z" fill="#F4E1E1"/>
<path d="M107.543 128.807H114.68V136.385H107.543V128.807Z" fill="#23282D"/>
<path d="M107.543 121.233H114.68V128.807H107.543V121.233Z" fill="#E2505E"/>
<path d="M107.543 113.656H114.68V121.233H107.543V113.656Z" fill="#E2505E"/>
<path d="M107.543 106.078H114.68V113.656H107.543V106.078Z" fill="#E2505E"/>
<path d="M107.543 98.5H114.68V106.078H107.543V98.5Z" fill="#AA2639"/>
<path d="M107.543 90.9222H114.68V98.5H107.543V90.9222Z" fill="#AA2639"/>
<path d="M107.543 83.3483H114.68V90.9222H107.543V83.3483Z" fill="#AA2639"/>
<path d="M107.543 37.8852H114.68V45.463H107.543V37.8852Z" fill="#F48F42"/>
<path d="M107.543 0H114.68V7.57782H107.543V0Z" fill="#F48F42"/>
<path d="M114.68 181.848H121.818V189.426H114.68V181.848Z" fill="#AA2639"/>
<path d="M114.68 174.27H121.818V181.848H114.68V174.27Z" fill="#E2505E"/>
<path d="M114.68 166.693H121.818V174.27H114.68V166.693Z" fill="#E2505E"/>
<path d="M114.68 159.119H121.818V166.693H114.68V159.119Z" fill="#E2505E"/>
<path d="M114.68 151.541H121.818V159.119H114.68V151.541Z" fill="#23282D"/>
<path d="M114.68 143.963H121.818V151.541H114.68V143.963Z" fill="#F4E1E1"/>
<path d="M114.68 136.385H121.818V143.963H114.68V136.385Z" fill="#23282D"/>
<path d="M114.68 128.807H121.818V136.385H114.68V128.807Z" fill="#E2505E"/>
<path d="M114.68 121.233H121.818V128.807H114.68V121.233Z" fill="#E2505E"/>
<path d="M114.68 113.656H121.818V121.233H114.68V113.656Z" fill="#AA2639"/>
<path d="M114.68 106.078H121.818V113.656H114.68V106.078Z" fill="#AA2639"/>
<path d="M114.68 98.5H121.818V106.078H114.68V98.5Z" fill="#AA2639"/>
<path d="M114.68 90.9222H121.818V98.5H114.68V90.9222Z" fill="#AA2639"/>
<path d="M114.68 83.3483H121.818V90.9222H114.68V83.3483Z" fill="#AA2639"/>
<path d="M121.818 174.27H128.955V181.848H121.818V174.27Z" fill="#AA2639"/>
<path d="M121.818 166.693H128.955V174.27H121.818V166.693Z" fill="#E2505E"/>
<path d="M121.818 159.119H128.955V166.693H121.818V159.119Z" fill="#23282D"/>
<path d="M121.818 151.541H128.955V159.119H121.818V151.541Z" fill="#E2505E"/>
<path d="M121.818 143.963H128.955V151.541H121.818V143.963Z" fill="#23282D"/>
<path d="M121.818 136.385H128.955V143.963H121.818V136.385Z" fill="#E2505E"/>
<path d="M121.818 128.807H128.955V136.385H121.818V128.807Z" fill="#23282D"/>
<path d="M121.818 121.233H128.955V128.807H121.818V121.233Z" fill="#AA2639"/>
<path d="M121.818 113.656H128.955V121.233H121.818V113.656Z" fill="#AA2639"/>
<path d="M121.818 106.078H128.955V113.656H121.818V106.078Z" fill="#AA2639"/>
<path d="M121.818 98.5H128.955V106.078H121.818V98.5Z" fill="#AA2639"/>
<path d="M121.818 90.9222H128.955V98.5H121.818V90.9222Z" fill="#AA2639"/>
<path d="M121.818 83.3483H128.955V90.9222H121.818V83.3483Z" fill="#AA2639"/>
<path d="M121.818 75.7704H128.955V83.3483H121.818V75.7704Z" fill="#AA2639"/>
<path d="M128.955 174.27H136.092V181.848H128.955V174.27Z" fill="#AA2639"/>
<path d="M128.955 166.693H136.092V174.27H128.955V166.693Z" fill="#AA2639"/>
<path d="M128.955 159.119H136.092V166.693H128.955V159.119Z" fill="#AA2639"/>
<path d="M128.955 151.541H136.092V159.119H128.955V151.541Z" fill="#AA2639"/>
<path d="M128.955 143.963H136.092V151.541H128.955V143.963Z" fill="#23282D"/>
<path d="M128.955 136.385H136.092V143.963H128.955V136.385Z" fill="#AA2639"/>
<path d="M128.955 128.807H136.092V136.385H128.955V128.807Z" fill="#AA2639"/>
<path d="M128.955 121.233H136.092V128.807H128.955V121.233Z" fill="#AA2639"/>
<path d="M128.955 113.656H136.092V121.233H128.955V113.656Z" fill="#AA2639"/>
<path d="M128.955 106.078H136.092V113.656H128.955V106.078Z" fill="#AA2639"/>
<path d="M128.955 98.5H136.092V106.078H128.955V98.5Z" fill="#F4E1E1"/>
<path d="M128.955 90.9222H136.092V98.5H128.955V90.9222Z" fill="#AA2639"/>
<path d="M128.955 83.3483H136.092V90.9222H128.955V83.3483Z" fill="#AA2639"/>
<path d="M128.955 75.7704H136.092V83.3483H128.955V75.7704Z" fill="#AA2639"/>
<path d="M136.092 166.693H143.226V174.27H136.092V166.693Z" fill="#AA2639"/>
<path d="M136.092 159.119H143.226V166.693H136.092V159.119Z" fill="#AA2639"/>
<path d="M136.092 151.541H143.226V159.119H136.092V151.541Z" fill="#AA2639"/>
<path d="M136.092 143.963H143.226V151.541H136.092V143.963Z" fill="#AA2639"/>
<path d="M136.092 136.385H143.226V143.963H136.092V136.385Z" fill="#AA2639"/>
<path d="M136.092 128.807H143.226V136.385H136.092V128.807Z" fill="#AA2639"/>
<path d="M136.092 121.233H143.226V128.807H136.092V121.233Z" fill="#AA2639"/>
<path d="M136.092 113.656H143.226V121.233H136.092V113.656Z" fill="#AA2639"/>
<path d="M136.092 106.078H143.226V113.656H136.092V106.078Z" fill="#F4E1E1"/>
<path d="M136.092 98.5H143.226V106.078H136.092V98.5Z" fill="#F4E1E1"/>
<path d="M136.092 90.9222H143.226V98.5H136.092V90.9222Z" fill="#F4E1E1"/>
<path d="M136.092 83.3483H143.226V90.9222H136.092V83.3483Z" fill="#AA2639"/>
<path d="M136.092 75.7704H143.226V83.3483H136.092V75.7704Z" fill="#AA2639"/>
<path d="M136.092 68.1926H143.226V75.7704H136.092V68.1926Z" fill="#AA2639"/>
<path d="M143.226 159.119H150.363V166.693H143.226V159.119Z" fill="#AA2639"/>
<path d="M143.226 151.541H150.363V159.119H143.226V151.541Z" fill="#AA2639"/>
<path d="M143.226 143.963H150.363V151.541H143.226V143.963Z" fill="#AA2639"/>
<path d="M143.226 136.385H150.363V143.963H143.226V136.385Z" fill="#AA2639"/>
<path d="M143.226 128.807H150.363V136.385H143.226V128.807Z" fill="#AA2639"/>
<path d="M143.226 121.233H150.363V128.807H143.226V121.233Z" fill="#AA2639"/>
<path d="M143.226 113.656H150.363V121.233H143.226V113.656Z" fill="#F4E1E1"/>
<path d="M143.226 106.078H150.363V113.656H143.226V106.078Z" fill="#F4E1E1"/>
<path d="M143.226 98.5H150.363V106.078H143.226V98.5Z" fill="#F4E1E1"/>
<path d="M143.226 90.9222H150.363V98.5H143.226V90.9222Z" fill="#F4E1E1"/>
<path d="M143.226 83.3483H150.363V90.9222H143.226V83.3483Z" fill="#F4E1E1"/>
<path d="M143.226 75.7704H150.363V83.3483H143.226V75.7704Z" fill="#AA2639"/>
<path d="M143.226 68.1926H150.363V75.7704H143.226V68.1926Z" fill="#AA2639"/>
<path d="M150.363 143.963H157.5V151.541H150.363V143.963Z" fill="#AA2639"/>
<path d="M150.363 136.385H157.5V143.963H150.363V136.385Z" fill="#AA2639"/>
<path d="M150.363 98.5H157.5V106.078H150.363V98.5Z" fill="#F4E1E1"/>
<path d="M150.363 90.9222H157.5V98.5H150.363V90.9222Z" fill="#F4E1E1"/>
<path d="M150.363 83.3483H157.5V90.9222H150.363V83.3483Z" fill="#AA2639"/>
<path d="M150.363 75.7704H157.5V83.3483H150.363V75.7704Z" fill="#AA2639"/>
</g>
<defs>
<filter id="filter0_i_204_4031" x="0.5" y="-4" width="157" height="201" filterUnits="userSpaceOnUse" color-interpolation-filters="sRGB">
<feFlood flood-opacity="0" result="BackgroundImageFix"/>
<feBlend mode="normal" in="SourceGraphic" in2="BackgroundImageFix" result="shape"/>
<feColorMatrix in="SourceAlpha" type="matrix" values="0 0 0 0 0 0 0 0 0 0 0 0 0 0 0 0 0 0 127 0" result="hardAlpha"/>
<feOffset dy="-9"/>
<feGaussianBlur stdDeviation="2"/>
<feComposite in2="hardAlpha" operator="arithmetic" k2="-1" k3="1"/>
<feColorMatrix type="matrix" values="0 0 0 0 0 0 0 0 0 0 0 0 0 0 0 0 0 0 0.25 0"/>
<feBlend mode="normal" in2="shape" result="effect1_innerShadow_204_4031"/>
</filter>
<clipPath id="clip0_204_4031">
<rect width="157" height="197" fill="white" transform="matrix(-1 0 0 1 157.5 0)"/>
</clipPath>
</defs>
</svg>
