<svg width="246" height="301" viewBox="0 0 246 301" fill="none" xmlns="http://www.w3.org/2000/svg">
<path d="M246 178.976H238.064V187.108H246V178.976Z" fill="#FFDC9C"/>
<path d="M246 170.84H238.064V178.976H246V170.84Z" fill="#FFDC9C"/>
<path d="M246 48.812H238.064V56.9481H246V48.812Z" fill="#FF91AB"/>
<path d="M246 40.676H238.064V48.8121H246V40.676Z" fill="#FF91AB"/>
<path d="M246 32.54H238.064V40.676H246V32.54Z" fill="#FF91AB"/>
<path d="M246 24.4081H238.064V32.54H246V24.4081Z" fill="#FF91AB"/>
<path d="M238.064 187.108H230.127V195.244H238.064V187.108Z" fill="#EDA751"/>
<path d="M238.064 178.976H230.127V187.108H238.064V178.976Z" fill="#FFDC9C"/>
<path d="M238.064 170.84H230.127V178.976H238.064V170.84Z" fill="#FFDC9C"/>
<path d="M238.064 122.028H230.127V130.164H238.064V122.028Z" fill="#FFDC9C"/>
<path d="M238.064 113.892H230.127V122.028H238.064V113.892Z" fill="#FFDC9C"/>
<path d="M238.064 105.756H230.127V113.892H238.064V105.756Z" fill="#FFDC9C"/>
<path d="M238.064 97.6241H230.127V105.756H238.064V97.6241Z" fill="#FFDC9C"/>
<path d="M238.064 89.488H230.127V97.6241H238.064V89.488Z" fill="#FFDC9C"/>
<path d="M238.064 56.9481H230.127V65.0841H238.064V56.9481Z" fill="#FF91AB"/>
<path d="M238.064 48.812H230.127V56.9481H238.064V48.812Z" fill="#FF91AB"/>
<path d="M238.064 40.676H230.127V48.8121H238.064V40.676Z" fill="#FF91AB"/>
<path d="M238.064 32.54H230.127V40.676H238.064V32.54Z" fill="#FF91AB"/>
<path d="M238.064 24.4081H230.127V32.54H238.064V24.4081Z" fill="#FF91AB"/>
<path d="M238.064 16.2721H230.127V24.4081H238.064V16.2721Z" fill="#FF91AB"/>
<path d="M238.064 8.13605H230.127V16.2721H238.064V8.13605Z" fill="#EDA751"/>
<path d="M238.064 0H230.127V8.13603H238.064V0Z" fill="#EDA751"/>
<path d="M230.127 203.38H222.195V211.516H230.127V203.38Z" fill="#EDA751"/>
<path d="M230.127 195.244H222.195V203.38H230.127V195.244Z" fill="#EDA751"/>
<path d="M230.127 187.108H222.195V195.244H230.127V187.108Z" fill="#EDA751"/>
<path d="M230.127 178.976H222.195V187.108H230.127V178.976Z" fill="#EDA751"/>
<path d="M230.127 170.84H222.195V178.976H230.127V170.84Z" fill="#EDA751"/>
<path d="M230.127 138.3H222.195V146.432H230.127V138.3Z" fill="#FFDC9C"/>
<path d="M230.127 130.164H222.195V138.3H230.127V130.164Z" fill="#FFDC9C"/>
<path d="M230.127 122.028H222.195V130.164H230.127V122.028Z" fill="#FFDC9C"/>
<path d="M230.127 113.892H222.195V122.028H230.127V113.892Z" fill="#FFDC9C"/>
<path d="M230.127 105.756H222.195V113.892H230.127V105.756Z" fill="#FFDC9C"/>
<path d="M230.127 97.6241H222.195V105.756H230.127V97.6241Z" fill="#FFDC9C"/>
<path d="M230.127 89.488H222.195V97.6241H230.127V89.488Z" fill="#FFDC9C"/>
<path d="M230.127 81.3521H222.195V89.4881H230.127V81.3521Z" fill="#FFDC9C"/>
<path d="M230.127 73.216H222.195V81.352H230.127V73.216Z" fill="#FFDC9C"/>
<path d="M230.127 65.0841H222.195V73.216H230.127V65.0841Z" fill="#FF91AB"/>
<path d="M230.127 56.9481H222.195V65.0841H230.127V56.9481Z" fill="#FF91AB"/>
<path d="M230.127 48.812H222.195V56.9481H230.127V48.812Z" fill="#FF91AB"/>
<path d="M230.127 40.676H222.195V48.8121H230.127V40.676Z" fill="#FF91AB"/>
<path d="M230.127 32.54H222.195V40.676H230.127V32.54Z" fill="#FF91AB"/>
<path d="M230.127 24.4081H222.195V32.54H230.127V24.4081Z" fill="#FF91AB"/>
<path d="M230.127 16.2721H222.195V24.4081H230.127V16.2721Z" fill="#EDA751"/>
<path d="M230.127 8.13605H222.195V16.2721H230.127V8.13605Z" fill="#EDA751"/>
<path d="M230.127 0H222.195V8.13603H230.127V0Z" fill="#EDA751"/>
<path d="M222.195 219.648H214.258V227.784H222.195V219.648Z" fill="#EDA751"/>
<path d="M222.195 211.516H214.258V219.648H222.195V211.516Z" fill="#EDA751"/>
<path d="M222.195 203.38H214.258V211.516H222.195V203.38Z" fill="#EDA751"/>
<path d="M222.195 195.244H214.258V203.38H222.195V195.244Z" fill="#EDA751"/>
<path d="M222.195 187.108H214.258V195.244H222.195V187.108Z" fill="#EDA751"/>
<path d="M222.195 178.976H214.258V187.108H222.195V178.976Z" fill="#EDA751"/>
<path d="M222.195 146.432H214.258V154.568H222.195V146.432Z" fill="#FFDC9C"/>
<path d="M222.195 138.3H214.258V146.432H222.195V138.3Z" fill="#FFDC9C"/>
<path d="M222.195 130.164H214.258V138.3H222.195V130.164Z" fill="#FFDC9C"/>
<path d="M222.195 122.028H214.258V130.164H222.195V122.028Z" fill="#FFDC9C"/>
<path d="M222.195 113.892H214.258V122.028H222.195V113.892Z" fill="#FFDC9C"/>
<path d="M222.195 105.756H214.258V113.892H222.195V105.756Z" fill="#FFDC9C"/>
<path d="M222.195 97.6241H214.258V105.756H222.195V97.6241Z" fill="#FFDC9C"/>
<path d="M222.195 89.488H214.258V97.6241H222.195V89.488Z" fill="#FFDC9C"/>
<path d="M222.195 81.3521H214.258V89.4881H222.195V81.3521Z" fill="#FFDC9C"/>
<path d="M222.195 73.216H214.258V81.352H222.195V73.216Z" fill="#FFDC9C"/>
<path d="M222.195 65.0841H214.258V73.216H222.195V65.0841Z" fill="#FFDC9C"/>
<path d="M222.195 56.9481H214.258V65.0841H222.195V56.9481Z" fill="#FFDC9C"/>
<path d="M222.195 48.812H214.258V56.9481H222.195V48.812Z" fill="#FF91AB"/>
<path d="M222.195 40.676H214.258V48.8121H222.195V40.676Z" fill="#FF91AB"/>
<path d="M222.195 32.54H214.258V40.676H222.195V32.54Z" fill="#FF91AB"/>
<path d="M222.195 24.4081H214.258V32.54H222.195V24.4081Z" fill="#FF91AB"/>
<path d="M222.195 16.2721H214.258V24.4081H222.195V16.2721Z" fill="#EDA751"/>
<path d="M222.195 8.13605H214.258V16.2721H222.195V8.13605Z" fill="#EDA751"/>
<path d="M222.195 0H214.258V8.13603H222.195V0Z" fill="#EDA751"/>
<path d="M214.258 252.192H206.322V260.324H214.258V252.192Z" fill="#EDA751"/>
<path d="M214.258 244.056H206.322V252.192H214.258V244.056Z" fill="#EDA751"/>
<path d="M214.258 235.92H206.322V244.056H214.258V235.92Z" fill="#EDA751"/>
<path d="M214.258 219.648H206.322V227.784H214.258V219.648Z" fill="#EDA751"/>
<path d="M214.258 211.516H206.322V219.648H214.258V211.516Z" fill="#EDA751"/>
<path d="M214.258 203.38H206.322V211.516H214.258V203.38Z" fill="#EDA751"/>
<path d="M214.258 195.244H206.322V203.38H214.258V195.244Z" fill="#EDA751"/>
<path d="M214.258 154.568H206.322V162.704H214.258V154.568Z" fill="#FFDC9C"/>
<path d="M214.258 146.432H206.322V154.568H214.258V146.432Z" fill="#FFDC9C"/>
<path d="M214.258 138.3H206.322V146.432H214.258V138.3Z" fill="#FFDC9C"/>
<path d="M214.258 130.164H206.322V138.3H214.258V130.164Z" fill="#FFDC9C"/>
<path d="M214.258 122.028H206.322V130.164H214.258V122.028Z" fill="#FFDC9C"/>
<path d="M214.258 113.892H206.322V122.028H214.258V113.892Z" fill="#FFDC9C"/>
<path d="M214.258 105.756H206.322V113.892H214.258V105.756Z" fill="#FFDC9C"/>
<path d="M214.258 97.6241H206.322V105.756H214.258V97.6241Z" fill="#FFDC9C"/>
<path d="M214.258 89.488H206.322V97.6241H214.258V89.488Z" fill="#FFDC9C"/>
<path d="M214.258 81.3521H206.322V89.4881H214.258V81.3521Z" fill="#FFDC9C"/>
<path d="M214.258 73.216H206.322V81.352H214.258V73.216Z" fill="#FFDC9C"/>
<path d="M214.258 65.0841H206.322V73.216H214.258V65.0841Z" fill="#FFDC9C"/>
<path d="M214.258 56.9481H206.322V65.0841H214.258V56.9481Z" fill="#FFDC9C"/>
<path d="M214.258 48.812H206.322V56.9481H214.258V48.812Z" fill="#FFDC9C"/>
<path d="M214.258 40.676H206.322V48.8121H214.258V40.676Z" fill="#FF91AB"/>
<path d="M214.258 32.54H206.322V40.676H214.258V32.54Z" fill="#FF91AB"/>
<path d="M214.258 24.4081H206.322V32.54H214.258V24.4081Z" fill="#FF91AB"/>
<path d="M214.258 16.2721H206.322V24.4081H214.258V16.2721Z" fill="#EDA751"/>
<path d="M214.258 8.13605H206.322V16.2721H214.258V8.13605Z" fill="#EDA751"/>
<path d="M214.258 0H206.322V8.13603H214.258V0Z" fill="#EDA751"/>
<path d="M206.322 252.192H198.386V260.324H206.322V252.192Z" fill="#EDA751"/>
<path d="M206.322 244.056H198.386V252.192H206.322V244.056Z" fill="#EDA751"/>
<path d="M206.322 235.92H198.386V244.056H206.322V235.92Z" fill="#EDA751"/>
<path d="M206.322 227.784H198.386V235.92H206.322V227.784Z" fill="#EDA751"/>
<path d="M206.322 219.648H198.386V227.784H206.322V219.648Z" fill="#CC8232"/>
<path d="M206.322 211.516H198.386V219.648H206.322V211.516Z" fill="#EDA751"/>
<path d="M206.322 203.38H198.386V211.516H206.322V203.38Z" fill="#EDA751"/>
<path d="M206.322 162.704H198.386V170.84H206.322V162.704Z" fill="#FFDC9C"/>
<path d="M206.322 154.568H198.386V162.704H206.322V154.568Z" fill="#FFDC9C"/>
<path d="M206.322 146.432H198.386V154.568H206.322V146.432Z" fill="#FFDC9C"/>
<path d="M206.322 138.3H198.386V146.432H206.322V138.3Z" fill="#FFDC9C"/>
<path d="M206.322 130.164H198.386V138.3H206.322V130.164Z" fill="#FFDC9C"/>
<path d="M206.322 122.028H198.386V130.164H206.322V122.028Z" fill="#495059"/>
<path d="M206.322 113.892H198.386V122.028H206.322V113.892Z" fill="#FFDC9C"/>
<path d="M206.322 105.756H198.386V113.892H206.322V105.756Z" fill="#FFDC9C"/>
<path d="M206.322 97.6241H198.386V105.756H206.322V97.6241Z" fill="#FFDC9C"/>
<path d="M206.322 89.488H198.386V97.6241H206.322V89.488Z" fill="#FFDC9C"/>
<path d="M206.322 81.3521H198.386V89.4881H206.322V81.3521Z" fill="#FFDC9C"/>
<path d="M206.322 73.216H198.386V81.352H206.322V73.216Z" fill="#FFDC9C"/>
<path d="M206.322 65.0841H198.386V73.216H206.322V65.0841Z" fill="#FFDC9C"/>
<path d="M206.322 56.9481H198.386V65.0841H206.322V56.9481Z" fill="#FFDC9C"/>
<path d="M206.322 48.812H198.386V56.9481H206.322V48.812Z" fill="#FFDC9C"/>
<path d="M206.322 40.676H198.386V48.8121H206.322V40.676Z" fill="#FFDC9C"/>
<path d="M206.322 32.54H198.386V40.676H206.322V32.54Z" fill="#FF91AB"/>
<path d="M206.322 24.4081H198.386V32.54H206.322V24.4081Z" fill="#EDA751"/>
<path d="M206.322 16.2721H198.386V24.4081H206.322V16.2721Z" fill="#EDA751"/>
<path d="M206.322 8.13605H198.386V16.2721H206.322V8.13605Z" fill="#EDA751"/>
<path d="M198.386 252.192H190.453V260.324H198.386V252.192Z" fill="#EDA751"/>
<path d="M198.386 244.056H190.453V252.192H198.386V244.056Z" fill="#EDA751"/>
<path d="M198.386 235.92H190.453V244.056H198.386V235.92Z" fill="#EDA751"/>
<path d="M198.386 227.784H190.453V235.92H198.386V227.784Z" fill="#EDA751"/>
<path d="M198.386 219.648H190.453V227.784H198.386V219.648Z" fill="#CC8232"/>
<path d="M198.386 211.516H190.453V219.648H198.386V211.516Z" fill="#CC8232"/>
<path d="M198.386 203.38H190.453V211.516H198.386V203.38Z" fill="#FFDC9C"/>
<path d="M198.386 195.244H190.453V203.38H198.386V195.244Z" fill="#FFDC9C"/>
<path d="M198.386 187.108H190.453V195.244H198.386V187.108Z" fill="#FFDC9C"/>
<path d="M198.386 162.704H190.453V170.84H198.386V162.704Z" fill="#FFDC9C"/>
<path d="M198.386 154.568H190.453V162.704H198.386V154.568Z" fill="#FFDC9C"/>
<path d="M198.386 146.432H190.453V154.568H198.386V146.432Z" fill="#FFDC9C"/>
<path d="M198.386 138.3H190.453V146.432H198.386V138.3Z" fill="#495059"/>
<path d="M198.386 130.164H190.453V138.3H198.386V130.164Z" fill="#FFDC9C"/>
<path d="M198.386 122.028H190.453V130.164H198.386V122.028Z" fill="#495059"/>
<path d="M198.386 113.892H190.453V122.028H198.386V113.892Z" fill="#FFDC9C"/>
<path d="M198.386 105.756H190.453V113.892H198.386V105.756Z" fill="#495059"/>
<path d="M198.386 97.6241H190.453V105.756H198.386V97.6241Z" fill="#FFDC9C"/>
<path d="M198.386 89.488H190.453V97.6241H198.386V89.488Z" fill="#FFDC9C"/>
<path d="M198.386 81.3521H190.453V89.4881H198.386V81.3521Z" fill="#FFDC9C"/>
<path d="M198.386 73.216H190.453V81.352H198.386V73.216Z" fill="#FFDC9C"/>
<path d="M198.386 65.0841H190.453V73.216H198.386V65.0841Z" fill="#FFDC9C"/>
<path d="M198.386 56.9481H190.453V65.0841H198.386V56.9481Z" fill="#FFDC9C"/>
<path d="M198.386 48.812H190.453V56.9481H198.386V48.812Z" fill="#FFDC9C"/>
<path d="M198.386 40.676H190.453V48.8121H198.386V40.676Z" fill="#FFDC9C"/>
<path d="M198.386 32.54H190.453V40.676H198.386V32.54Z" fill="#EDA751"/>
<path d="M198.386 24.4081H190.453V32.54H198.386V24.4081Z" fill="#EDA751"/>
<path d="M198.386 16.2721H190.453V24.4081H198.386V16.2721Z" fill="#EDA751"/>
<path d="M198.386 8.13605H190.453V16.2721H198.386V8.13605Z" fill="#EDA751"/>
<path d="M190.453 244.056H182.517V252.192H190.453V244.056Z" fill="#EDA751"/>
<path d="M190.453 235.92H182.517V244.056H190.453V235.92Z" fill="#EDA751"/>
<path d="M190.453 227.784H182.517V235.92H190.453V227.784Z" fill="#CC8232"/>
<path d="M190.453 219.648H182.517V227.784H190.453V219.648Z" fill="#CC8232"/>
<path d="M190.453 211.516H182.517V219.648H190.453V211.516Z" fill="#FFDC9C"/>
<path d="M190.453 203.38H182.517V211.516H190.453V203.38Z" fill="#FFDC9C"/>
<path d="M190.453 195.244H182.517V203.38H190.453V195.244Z" fill="#FFDC9C"/>
<path d="M190.453 187.108H182.517V195.244H190.453V187.108Z" fill="#FFDC9C"/>
<path d="M190.453 178.976H182.517V187.108H190.453V178.976Z" fill="#FFDC9C"/>
<path d="M190.453 170.84H182.517V178.976H190.453V170.84Z" fill="#FFDC9C"/>
<path d="M190.453 162.704H182.517V170.84H190.453V162.704Z" fill="#FFDC9C"/>
<path d="M190.453 154.568H182.517V162.704H190.453V154.568Z" fill="#FFDC9C"/>
<path d="M190.453 146.432H182.517V154.568H190.453V146.432Z" fill="#FFDC9C"/>
<path d="M190.453 138.3H182.517V146.432H190.453V138.3Z" fill="#FFDC9C"/>
<path d="M190.453 130.164H182.517V138.3H190.453V130.164Z" fill="#495059"/>
<path d="M190.453 122.028H182.517V130.164H190.453V122.028Z" fill="#FF91AB"/>
<path d="M190.453 113.892H182.517V122.028H190.453V113.892Z" fill="#495059"/>
<path d="M190.453 105.756H182.517V113.892H190.453V105.756Z" fill="#FFDC9C"/>
<path d="M190.453 97.6241H182.517V105.756H190.453V97.6241Z" fill="#FFDC9C"/>
<path d="M190.453 89.488H182.517V97.6241H190.453V89.488Z" fill="#FFDC9C"/>
<path d="M190.453 81.3521H182.517V89.4881H190.453V81.3521Z" fill="#FFDC9C"/>
<path d="M190.453 73.216H182.517V81.352H190.453V73.216Z" fill="#FFDC9C"/>
<path d="M190.453 65.0841H182.517V73.216H190.453V65.0841Z" fill="#FFDC9C"/>
<path d="M190.453 56.9481H182.517V65.0841H190.453V56.9481Z" fill="#FFDC9C"/>
<path d="M190.453 48.812H182.517V56.9481H190.453V48.812Z" fill="#FFDC9C"/>
<path d="M190.453 40.676H182.517V48.8121H190.453V40.676Z" fill="#FFDC9C"/>
<path d="M190.453 32.54H182.517V40.676H190.453V32.54Z" fill="#FFDC9C"/>
<path d="M190.453 24.4081H182.517V32.54H190.453V24.4081Z" fill="#EDA751"/>
<path d="M190.453 16.2721H182.517V24.4081H190.453V16.2721Z" fill="#EDA751"/>
<path d="M190.453 8.13605H182.517V16.2721H190.453V8.13605Z" fill="#EDA751"/>
<path d="M182.517 235.92H174.581V244.056H182.517V235.92Z" fill="#CC8232"/>
<path d="M182.517 227.784H174.581V235.92H182.517V227.784Z" fill="#FFDC9C"/>
<path d="M182.517 219.648H174.581V227.784H182.517V219.648Z" fill="#FFDC9C"/>
<path d="M182.517 211.516H174.581V219.648H182.517V211.516Z" fill="#FFDC9C"/>
<path d="M182.517 203.38H174.581V211.516H182.517V203.38Z" fill="#FFDC9C"/>
<path d="M182.517 195.244H174.581V203.38H182.517V195.244Z" fill="#FFDC9C"/>
<path d="M182.517 187.108H174.581V195.244H182.517V187.108Z" fill="#FFDC9C"/>
<path d="M182.517 178.976H174.581V187.108H182.517V178.976Z" fill="#FFDC9C"/>
<path d="M182.517 170.84H174.581V178.976H182.517V170.84Z" fill="#FFDC9C"/>
<path d="M182.517 162.704H174.581V170.84H182.517V162.704Z" fill="#FFDC9C"/>
<path d="M182.517 154.568H174.581V162.704H182.517V154.568Z" fill="#FFDC9C"/>
<path d="M182.517 146.432H174.581V154.568H182.517V146.432Z" fill="#FFDC9C"/>
<path d="M182.517 138.3H174.581V146.432H182.517V138.3Z" fill="#FF91AB"/>
<path d="M182.517 130.164H174.581V138.3H182.517V130.164Z" fill="#FF91AB"/>
<path d="M182.517 122.028H174.581V130.164H182.517V122.028Z" fill="#5CE5E5"/>
<path d="M182.517 113.892H174.581V122.028H182.517V113.892Z" fill="#FF91AB"/>
<path d="M182.517 105.756H174.581V113.892H182.517V105.756Z" fill="#FFDC9C"/>
<path d="M182.517 97.6241H174.581V105.756H182.517V97.6241Z" fill="#FFDC9C"/>
<path d="M182.517 89.488H174.581V97.6241H182.517V89.488Z" fill="#FFDC9C"/>
<path d="M182.517 81.3521H174.581V89.4881H182.517V81.3521Z" fill="#FFDC9C"/>
<path d="M182.517 73.216H174.581V81.352H182.517V73.216Z" fill="#495059"/>
<path d="M182.517 65.0841H174.581V73.216H182.517V65.0841Z" fill="#FFDC9C"/>
<path d="M182.517 56.9481H174.581V65.0841H182.517V56.9481Z" fill="#FFDC9C"/>
<path d="M182.517 48.812H174.581V56.9481H182.517V48.812Z" fill="#FFDC9C"/>
<path d="M182.517 40.676H174.581V48.8121H182.517V40.676Z" fill="#FFDC9C"/>
<path d="M182.517 32.54H174.581V40.676H182.517V32.54Z" fill="#FFDC9C"/>
<path d="M182.517 24.4081H174.581V32.54H182.517V24.4081Z" fill="#FFDC9C"/>
<path d="M182.517 16.2721H174.581V24.4081H182.517V16.2721Z" fill="#EDA751"/>
<path d="M174.581 235.92H166.644V244.056H174.581V235.92Z" fill="#FFDC9C"/>
<path d="M174.581 227.784H166.644V235.92H174.581V227.784Z" fill="#FFDC9C"/>
<path d="M174.581 219.648H166.644V227.784H174.581V219.648Z" fill="#FFDC9C"/>
<path d="M174.581 211.516H166.644V219.648H174.581V211.516Z" fill="#FFDC9C"/>
<path d="M174.581 203.38H166.644V211.516H174.581V203.38Z" fill="#FFDC9C"/>
<path d="M174.581 195.244H166.644V203.38H174.581V195.244Z" fill="#FFDC9C"/>
<path d="M174.581 187.108H166.644V195.244H174.581V187.108Z" fill="#FFDC9C"/>
<path d="M174.581 178.976H166.644V187.108H174.581V178.976Z" fill="#FFDC9C"/>
<path d="M174.581 170.84H166.644V178.976H174.581V170.84Z" fill="#FFDC9C"/>
<path d="M174.581 162.704H166.644V170.84H174.581V162.704Z" fill="#FFDC9C"/>
<path d="M174.581 154.568H166.644V162.704H174.581V154.568Z" fill="#FFDC9C"/>
<path d="M174.581 146.432H166.644V154.568H174.581V146.432Z" fill="#FFDC9C"/>
<path d="M174.581 138.3H166.644V146.432H174.581V138.3Z" fill="#FF91AB"/>
<path d="M174.581 130.164H166.644V138.3H174.581V130.164Z" fill="#5CE5E5"/>
<path d="M174.581 122.028H166.644V130.164H174.581V122.028Z" fill="#5CE5E5"/>
<path d="M174.581 113.892H166.644V122.028H174.581V113.892Z" fill="#4BB9F7"/>
<path d="M174.581 105.756H166.644V113.892H174.581V105.756Z" fill="#495059"/>
<path d="M174.581 97.6241H166.644V105.756H174.581V97.6241Z" fill="#495059"/>
<path d="M174.581 89.488H166.644V97.6241H174.581V89.488Z" fill="#495059"/>
<path d="M174.581 81.3521H166.644V89.4881H174.581V81.3521Z" fill="#FFDC9C"/>
<path d="M174.581 73.216H166.644V81.352H174.581V73.216Z" fill="#495059"/>
<path d="M174.581 65.0841H166.644V73.216H174.581V65.0841Z" fill="#FFDC9C"/>
<path d="M174.581 56.9481H166.644V65.0841H174.581V56.9481Z" fill="#FFDC9C"/>
<path d="M174.581 48.812H166.644V56.9481H174.581V48.812Z" fill="#FFDC9C"/>
<path d="M174.581 40.676H166.644V48.8121H174.581V40.676Z" fill="#FFDC9C"/>
<path d="M174.581 32.54H166.644V40.676H174.581V32.54Z" fill="#FFDC9C"/>
<path d="M174.581 24.4081H166.644V32.54H174.581V24.4081Z" fill="#FFDC9C"/>
<path d="M166.644 284.732H158.708V292.864H166.644V284.732Z" fill="#EDA751"/>
<path d="M166.644 276.596H158.708V284.732H166.644V276.596Z" fill="#EDA751"/>
<path d="M166.644 268.46H158.708V276.596H166.644V268.46Z" fill="#EDA751"/>
<path d="M166.644 260.324H158.708V268.46H166.644V260.324Z" fill="#EDA751"/>
<path d="M166.644 252.192H158.708V260.324H166.644V252.192Z" fill="#CC8232"/>
<path d="M166.644 244.056H158.708V252.192H166.644V244.056Z" fill="#FFDC9C"/>
<path d="M166.644 235.92H158.708V244.056H166.644V235.92Z" fill="#FFDC9C"/>
<path d="M166.644 227.784H158.708V235.92H166.644V227.784Z" fill="#FFDC9C"/>
<path d="M166.644 219.648H158.708V227.784H166.644V219.648Z" fill="#FFDC9C"/>
<path d="M166.644 211.516H158.708V219.648H166.644V211.516Z" fill="#FFDC9C"/>
<path d="M166.644 203.38H158.708V211.516H166.644V203.38Z" fill="#FFDC9C"/>
<path d="M166.644 195.244H158.708V203.38H166.644V195.244Z" fill="#FFDC9C"/>
<path d="M166.644 187.108H158.708V195.244H166.644V187.108Z" fill="#FFDC9C"/>
<path d="M166.644 178.976H158.708V187.108H166.644V178.976Z" fill="#FFDC9C"/>
<path d="M166.644 170.84H158.708V178.976H166.644V170.84Z" fill="#FFDC9C"/>
<path d="M166.644 162.704H158.708V170.84H166.644V162.704Z" fill="#FFDC9C"/>
<path d="M166.644 154.568H158.708V162.704H166.644V154.568Z" fill="#FFDC9C"/>
<path d="M166.644 146.432H158.708V154.568H166.644V146.432Z" fill="#FFDC9C"/>
<path d="M166.644 138.3H158.708V146.432H166.644V138.3Z" fill="#FFDC9C"/>
<path d="M166.644 130.164H158.708V138.3H166.644V130.164Z" fill="#FF91AB"/>
<path d="M166.644 122.028H158.708V130.164H166.644V122.028Z" fill="#4BB9F7"/>
<path d="M166.644 113.892H158.708V122.028H166.644V113.892Z" fill="#FFDC9C"/>
<path d="M166.644 105.756H158.708V113.892H166.644V105.756Z" fill="#495059"/>
<path d="M166.644 97.6241H158.708V105.756H166.644V97.6241Z" fill="#495059"/>
<path d="M166.644 89.488H158.708V97.6241H166.644V89.488Z" fill="#DEE2E5"/>
<path d="M166.644 81.3521H158.708V89.4881H166.644V81.3521Z" fill="#FFDC9C"/>
<path d="M166.644 73.216H158.708V81.352H166.644V73.216Z" fill="#FFDC9C"/>
<path d="M166.644 65.0841H158.708V73.216H166.644V65.0841Z" fill="#495059"/>
<path d="M166.644 56.9481H158.708V65.0841H166.644V56.9481Z" fill="#FFDC9C"/>
<path d="M166.644 48.812H158.708V56.9481H166.644V48.812Z" fill="#FFDC9C"/>
<path d="M166.644 40.676H158.708V48.8121H166.644V40.676Z" fill="#FFDC9C"/>
<path d="M166.644 32.54H158.708V40.676H166.644V32.54Z" fill="#FFDC9C"/>
<path d="M166.644 24.4081H158.708V32.54H166.644V24.4081Z" fill="#FFDC9C"/>
<path d="M158.708 292.864H150.775V301H158.708V292.864Z" fill="#EDA751"/>
<path d="M158.708 284.732H150.775V292.864H158.708V284.732Z" fill="#EDA751"/>
<path d="M158.708 276.596H150.775V284.732H158.708V276.596Z" fill="#EDA751"/>
<path d="M158.708 268.46H150.775V276.596H158.708V268.46Z" fill="#EDA751"/>
<path d="M158.708 260.324H150.775V268.46H158.708V260.324Z" fill="#CC8232"/>
<path d="M158.708 252.192H150.775V260.324H158.708V252.192Z" fill="#CC8232"/>
<path d="M158.708 244.056H150.775V252.192H158.708V244.056Z" fill="#FFDC9C"/>
<path d="M158.708 235.92H150.775V244.056H158.708V235.92Z" fill="#FFDC9C"/>
<path d="M158.708 227.784H150.775V235.92H158.708V227.784Z" fill="#FFDC9C"/>
<path d="M158.708 219.648H150.775V227.784H158.708V219.648Z" fill="#FFDC9C"/>
<path d="M158.708 211.516H150.775V219.648H158.708V211.516Z" fill="#FFDC9C"/>
<path d="M158.708 203.38H150.775V211.516H158.708V203.38Z" fill="#FFDC9C"/>
<path d="M158.708 195.244H150.775V203.38H158.708V195.244Z" fill="#FFDC9C"/>
<path d="M158.708 187.108H150.775V195.244H158.708V187.108Z" fill="#FFDC9C"/>
<path d="M158.708 178.976H150.775V187.108H158.708V178.976Z" fill="#FFDC9C"/>
<path d="M158.708 170.84H150.775V178.976H158.708V170.84Z" fill="#FFDC9C"/>
<path d="M158.708 162.704H150.775V170.84H158.708V162.704Z" fill="#FFDC9C"/>
<path d="M158.708 154.568H150.775V162.704H158.708V154.568Z" fill="#FFDC9C"/>
<path d="M158.708 146.432H150.775V154.568H158.708V146.432Z" fill="#FFDC9C"/>
<path d="M158.708 138.3H150.775V146.432H158.708V138.3Z" fill="#FFDC9C"/>
<path d="M158.708 130.164H150.775V138.3H158.708V130.164Z" fill="#FFDC9C"/>
<path d="M158.708 122.028H150.775V130.164H158.708V122.028Z" fill="#FFDC9C"/>
<path d="M158.708 113.892H150.775V122.028H158.708V113.892Z" fill="#FFDC9C"/>
<path d="M158.708 105.756H150.775V113.892H158.708V105.756Z" fill="#FFDC9C"/>
<path d="M158.708 97.6241H150.775V105.756H158.708V97.6241Z" fill="#FFDC9C"/>
<path d="M158.708 89.488H150.775V97.6241H158.708V89.488Z" fill="#FFDC9C"/>
<path d="M158.708 81.3521H150.775V89.4881H158.708V81.3521Z" fill="#FFDC9C"/>
<path d="M158.708 73.216H150.775V81.352H158.708V73.216Z" fill="#FFDC9C"/>
<path d="M158.708 65.0841H150.775V73.216H158.708V65.0841Z" fill="#FFDC9C"/>
<path d="M158.708 56.9481H150.775V65.0841H158.708V56.9481Z" fill="#FFDC9C"/>
<path d="M158.708 48.812H150.775V56.9481H158.708V48.812Z" fill="#FFDC9C"/>
<path d="M158.708 40.676H150.775V48.8121H158.708V40.676Z" fill="#FFDC9C"/>
<path d="M158.708 32.54H150.775V40.676H158.708V32.54Z" fill="#FFDC9C"/>
<path d="M158.708 24.4081H150.775V32.54H158.708V24.4081Z" fill="#FFDC9C"/>
<path d="M158.708 16.2721H150.775V24.4081H158.708V16.2721Z" fill="#FFDC9C"/>
<path d="M150.775 292.864H142.839V301H150.775V292.864Z" fill="#EDA751"/>
<path d="M150.775 284.732H142.839V292.864H150.775V284.732Z" fill="#EDA751"/>
<path d="M150.775 276.596H142.839V284.732H150.775V276.596Z" fill="#EDA751"/>
<path d="M150.775 268.46H142.839V276.596H150.775V268.46Z" fill="#EDA751"/>
<path d="M150.775 260.324H142.839V268.46H150.775V260.324Z" fill="#CC8232"/>
<path d="M150.775 252.192H142.839V260.324H150.775V252.192Z" fill="#FFDC9C"/>
<path d="M150.775 244.056H142.839V252.192H150.775V244.056Z" fill="#FFDC9C"/>
<path d="M150.775 235.92H142.839V244.056H150.775V235.92Z" fill="#FFDC9C"/>
<path d="M150.775 227.784H142.839V235.92H150.775V227.784Z" fill="#FFDC9C"/>
<path d="M150.775 219.648H142.839V227.784H150.775V219.648Z" fill="#FFDC9C"/>
<path d="M150.775 211.516H142.839V219.648H150.775V211.516Z" fill="#FFDC9C"/>
<path d="M150.775 203.38H142.839V211.516H150.775V203.38Z" fill="#FFDC9C"/>
<path d="M150.775 195.244H142.839V203.38H150.775V195.244Z" fill="#FFDC9C"/>
<path d="M150.775 187.108H142.839V195.244H150.775V187.108Z" fill="#FFDC9C"/>
<path d="M150.775 178.976H142.839V187.108H150.775V178.976Z" fill="#FFDC9C"/>
<path d="M150.775 170.84H142.839V178.976H150.775V170.84Z" fill="#FFDC9C"/>
<path d="M150.775 162.704H142.839V170.84H150.775V162.704Z" fill="#FFDC9C"/>
<path d="M150.775 154.568H142.839V162.704H150.775V154.568Z" fill="#FFDC9C"/>
<path d="M150.775 146.432H142.839V154.568H150.775V146.432Z" fill="#FFDC9C"/>
<path d="M150.775 138.3H142.839V146.432H150.775V138.3Z" fill="#FFDC9C"/>
<path d="M150.775 130.164H142.839V138.3H150.775V130.164Z" fill="#FFDC9C"/>
<path d="M150.775 122.028H142.839V130.164H150.775V122.028Z" fill="#FFDC9C"/>
<path d="M150.775 113.892H142.839V122.028H150.775V113.892Z" fill="#FFDC9C"/>
<path d="M150.775 105.756H142.839V113.892H150.775V105.756Z" fill="#FFDC9C"/>
<path d="M150.775 97.6241H142.839V105.756H150.775V97.6241Z" fill="#FFDC9C"/>
<path d="M150.775 89.488H142.839V97.6241H150.775V89.488Z" fill="#FFDC9C"/>
<path d="M150.775 81.3521H142.839V89.4881H150.775V81.3521Z" fill="#FFDC9C"/>
<path d="M150.775 73.216H142.839V81.352H150.775V73.216Z" fill="#FFDC9C"/>
<path d="M150.775 65.0841H142.839V73.216H150.775V65.0841Z" fill="#FFDC9C"/>
<path d="M150.775 56.9481H142.839V65.0841H150.775V56.9481Z" fill="#FFDC9C"/>
<path d="M150.775 48.812H142.839V56.9481H150.775V48.812Z" fill="#FFDC9C"/>
<path d="M150.775 40.676H142.839V48.8121H150.775V40.676Z" fill="#FFDC9C"/>
<path d="M150.775 32.54H142.839V40.676H150.775V32.54Z" fill="#FFDC9C"/>
<path d="M150.775 24.4081H142.839V32.54H150.775V24.4081Z" fill="#FFDC9C"/>
<path d="M150.775 16.2721H142.839V24.4081H150.775V16.2721Z" fill="#FFDC9C"/>
<path d="M142.839 292.864H134.903V301H142.839V292.864Z" fill="#EDA751"/>
<path d="M142.839 284.732H134.903V292.864H142.839V284.732Z" fill="#EDA751"/>
<path d="M142.839 276.596H134.903V284.732H142.839V276.596Z" fill="#EDA751"/>
<path d="M142.839 268.46H134.903V276.596H142.839V268.46Z" fill="#EDA751"/>
<path d="M142.839 260.324H134.903V268.46H142.839V260.324Z" fill="#CC8232"/>
<path d="M142.839 252.192H134.903V260.324H142.839V252.192Z" fill="#FFDC9C"/>
<path d="M142.839 244.056H134.903V252.192H142.839V244.056Z" fill="#FFDC9C"/>
<path d="M142.839 235.92H134.903V244.056H142.839V235.92Z" fill="#FFDC9C"/>
<path d="M142.839 227.784H134.903V235.92H142.839V227.784Z" fill="#FFDC9C"/>
<path d="M142.839 219.648H134.903V227.784H142.839V219.648Z" fill="#FFDC9C"/>
<path d="M142.839 211.516H134.903V219.648H142.839V211.516Z" fill="#FFDC9C"/>
<path d="M142.839 203.38H134.903V211.516H142.839V203.38Z" fill="#FFDC9C"/>
<path d="M142.839 195.244H134.903V203.38H142.839V195.244Z" fill="#FFDC9C"/>
<path d="M142.839 187.108H134.903V195.244H142.839V187.108Z" fill="#FFDC9C"/>
<path d="M142.839 178.976H134.903V187.108H142.839V178.976Z" fill="#FFDC9C"/>
<path d="M142.839 170.84H134.903V178.976H142.839V170.84Z" fill="#FFDC9C"/>
<path d="M142.839 162.704H134.903V170.84H142.839V162.704Z" fill="#FFDC9C"/>
<path d="M142.839 154.568H134.903V162.704H142.839V154.568Z" fill="#FFDC9C"/>
<path d="M142.839 146.432H134.903V154.568H142.839V146.432Z" fill="#FFDC9C"/>
<path d="M142.839 138.3H134.903V146.432H142.839V138.3Z" fill="#FFDC9C"/>
<path d="M142.839 130.164H134.903V138.3H142.839V130.164Z" fill="#FFDC9C"/>
<path d="M142.839 122.028H134.903V130.164H142.839V122.028Z" fill="#FFDC9C"/>
<path d="M142.839 113.892H134.903V122.028H142.839V113.892Z" fill="#FFDC9C"/>
<path d="M142.839 105.756H134.903V113.892H142.839V105.756Z" fill="#FFDC9C"/>
<path d="M142.839 97.6241H134.903V105.756H142.839V97.6241Z" fill="#FFDC9C"/>
<path d="M142.839 89.488H134.903V97.6241H142.839V89.488Z" fill="#FFDC9C"/>
<path d="M142.839 81.3521H134.903V89.4881H142.839V81.3521Z" fill="#FFDC9C"/>
<path d="M142.839 73.216H134.903V81.352H142.839V73.216Z" fill="#FFDC9C"/>
<path d="M142.839 65.0841H134.903V73.216H142.839V65.0841Z" fill="#FFDC9C"/>
<path d="M142.839 56.9481H134.903V65.0841H142.839V56.9481Z" fill="#FFDC9C"/>
<path d="M142.839 48.812H134.903V56.9481H142.839V48.812Z" fill="#FFDC9C"/>
<path d="M142.839 40.676H134.903V48.8121H142.839V40.676Z" fill="#FFDC9C"/>
<path d="M142.839 32.54H134.903V40.676H142.839V32.54Z" fill="#FFDC9C"/>
<path d="M142.839 24.4081H134.903V32.54H142.839V24.4081Z" fill="#FFDC9C"/>
<path d="M142.839 16.2721H134.903V24.4081H142.839V16.2721Z" fill="#FFDC9C"/>
<path d="M134.903 252.192H126.966V260.324H134.903V252.192Z" fill="#FFDC9C"/>
<path d="M134.903 244.056H126.966V252.192H134.903V244.056Z" fill="#FFDC9C"/>
<path d="M134.903 235.92H126.966V244.056H134.903V235.92Z" fill="#FFDC9C"/>
<path d="M134.903 227.784H126.966V235.92H134.903V227.784Z" fill="#FFDC9C"/>
<path d="M134.903 219.648H126.966V227.784H134.903V219.648Z" fill="#FFDC9C"/>
<path d="M134.903 211.516H126.966V219.648H134.903V211.516Z" fill="#FFDC9C"/>
<path d="M134.903 203.38H126.966V211.516H134.903V203.38Z" fill="#FFDC9C"/>
<path d="M134.903 195.244H126.966V203.38H134.903V195.244Z" fill="#FFDC9C"/>
<path d="M134.903 187.108H126.966V195.244H134.903V187.108Z" fill="#FFDC9C"/>
<path d="M134.903 178.976H126.966V187.108H134.903V178.976Z" fill="#FFDC9C"/>
<path d="M134.903 170.84H126.966V178.976H134.903V170.84Z" fill="#FFDC9C"/>
<path d="M134.903 162.704H126.966V170.84H134.903V162.704Z" fill="#FFDC9C"/>
<path d="M134.903 154.568H126.966V162.704H134.903V154.568Z" fill="#FFDC9C"/>
<path d="M134.903 146.432H126.966V154.568H134.903V146.432Z" fill="#FFDC9C"/>
<path d="M134.903 138.3H126.966V146.432H134.903V138.3Z" fill="#FFDC9C"/>
<path d="M134.903 130.164H126.966V138.3H134.903V130.164Z" fill="#FFDC9C"/>
<path d="M134.903 122.028H126.966V130.164H134.903V122.028Z" fill="#FFDC9C"/>
<path d="M134.903 113.892H126.966V122.028H134.903V113.892Z" fill="#FF91AB"/>
<path d="M134.903 105.756H126.966V113.892H134.903V105.756Z" fill="#FF91AB"/>
<path d="M134.903 97.6241H126.966V105.756H134.903V97.6241Z" fill="#FFDC9C"/>
<path d="M134.903 89.488H126.966V97.6241H134.903V89.488Z" fill="#FFDC9C"/>
<path d="M134.903 81.3521H126.966V89.4881H134.903V81.3521Z" fill="#FFDC9C"/>
<path d="M134.903 73.216H126.966V81.352H134.903V73.216Z" fill="#FFDC9C"/>
<path d="M134.903 65.0841H126.966V73.216H134.903V65.0841Z" fill="#FFDC9C"/>
<path d="M134.903 56.9481H126.966V65.0841H134.903V56.9481Z" fill="#FFDC9C"/>
<path d="M134.903 48.812H126.966V56.9481H134.903V48.812Z" fill="#FFDC9C"/>
<path d="M134.903 40.676H126.966V48.8121H134.903V40.676Z" fill="#FFDC9C"/>
<path d="M134.903 32.54H126.966V40.676H134.903V32.54Z" fill="#FFDC9C"/>
<path d="M134.903 24.4081H126.966V32.54H134.903V24.4081Z" fill="#FFDC9C"/>
<path d="M134.903 16.2721H126.966V24.4081H134.903V16.2721Z" fill="#FFDC9C"/>
<path d="M126.966 252.192H119.03V260.324H126.966V252.192Z" fill="#FFDC9C"/>
<path d="M126.966 244.056H119.03V252.192H126.966V244.056Z" fill="#FFDC9C"/>
<path d="M126.966 235.92H119.03V244.056H126.966V235.92Z" fill="#FFDC9C"/>
<path d="M126.966 227.784H119.03V235.92H126.966V227.784Z" fill="#FFDC9C"/>
<path d="M126.966 219.648H119.03V227.784H126.966V219.648Z" fill="#FFDC9C"/>
<path d="M126.966 211.516H119.03V219.648H126.966V211.516Z" fill="#FFDC9C"/>
<path d="M126.966 203.38H119.03V211.516H126.966V203.38Z" fill="#FFDC9C"/>
<path d="M126.966 195.244H119.03V203.38H126.966V195.244Z" fill="#FFDC9C"/>
<path d="M126.966 187.108H119.03V195.244H126.966V187.108Z" fill="#FFDC9C"/>
<path d="M126.966 178.976H119.03V187.108H126.966V178.976Z" fill="#FFDC9C"/>
<path d="M126.966 170.84H119.03V178.976H126.966V170.84Z" fill="#FFDC9C"/>
<path d="M126.966 162.704H119.03V170.84H126.966V162.704Z" fill="#FFDC9C"/>
<path d="M126.966 154.568H119.03V162.704H126.966V154.568Z" fill="#FFDC9C"/>
<path d="M126.966 146.432H119.03V154.568H126.966V146.432Z" fill="#FFDC9C"/>
<path d="M126.966 138.3H119.03V146.432H126.966V138.3Z" fill="#FFDC9C"/>
<path d="M126.966 130.164H119.03V138.3H126.966V130.164Z" fill="#FFDC9C"/>
<path d="M126.966 122.028H119.03V130.164H126.966V122.028Z" fill="#FFDC9C"/>
<path d="M126.966 113.892H119.03V122.028H126.966V113.892Z" fill="#FF91AB"/>
<path d="M126.966 105.756H119.03V113.892H126.966V105.756Z" fill="#FF91AB"/>
<path d="M126.966 97.6241H119.03V105.756H126.966V97.6241Z" fill="#FFDC9C"/>
<path d="M126.966 89.488H119.03V97.6241H126.966V89.488Z" fill="#FFDC9C"/>
<path d="M126.966 81.3521H119.03V89.4881H126.966V81.3521Z" fill="#FFDC9C"/>
<path d="M126.966 73.216H119.03V81.352H126.966V73.216Z" fill="#FFDC9C"/>
<path d="M126.966 65.0841H119.03V73.216H126.966V65.0841Z" fill="#FFDC9C"/>
<path d="M126.966 56.9481H119.03V65.0841H126.966V56.9481Z" fill="#FFDC9C"/>
<path d="M126.966 48.812H119.03V56.9481H126.966V48.812Z" fill="#FFDC9C"/>
<path d="M126.966 40.676H119.03V48.8121H126.966V40.676Z" fill="#FFDC9C"/>
<path d="M126.966 32.54H119.03V40.676H126.966V32.54Z" fill="#FFDC9C"/>
<path d="M126.966 24.4081H119.03V32.54H126.966V24.4081Z" fill="#FFDC9C"/>
<path d="M126.966 16.2721H119.03V24.4081H126.966V16.2721Z" fill="#FFDC9C"/>
<path d="M119.03 252.192H111.097V260.324H119.03V252.192Z" fill="#FFDC9C"/>
<path d="M119.03 244.056H111.097V252.192H119.03V244.056Z" fill="#FFDC9C"/>
<path d="M119.03 235.92H111.097V244.056H119.03V235.92Z" fill="#FFDC9C"/>
<path d="M119.03 227.784H111.097V235.92H119.03V227.784Z" fill="#FFDC9C"/>
<path d="M119.03 219.648H111.097V227.784H119.03V219.648Z" fill="#FFDC9C"/>
<path d="M119.03 211.516H111.097V219.648H119.03V211.516Z" fill="#FFDC9C"/>
<path d="M119.03 203.38H111.097V211.516H119.03V203.38Z" fill="#FFDC9C"/>
<path d="M119.03 195.244H111.097V203.38H119.03V195.244Z" fill="#FFDC9C"/>
<path d="M119.03 187.108H111.097V195.244H119.03V187.108Z" fill="#FFDC9C"/>
<path d="M119.03 178.976H111.097V187.108H119.03V178.976Z" fill="#FFDC9C"/>
<path d="M119.03 170.84H111.097V178.976H119.03V170.84Z" fill="#FFDC9C"/>
<path d="M119.03 162.704H111.097V170.84H119.03V162.704Z" fill="#FFDC9C"/>
<path d="M119.03 154.568H111.097V162.704H119.03V154.568Z" fill="#FFDC9C"/>
<path d="M119.03 146.432H111.097V154.568H119.03V146.432Z" fill="#FFDC9C"/>
<path d="M119.03 138.3H111.097V146.432H119.03V138.3Z" fill="#FFDC9C"/>
<path d="M119.03 130.164H111.097V138.3H119.03V130.164Z" fill="#FFDC9C"/>
<path d="M119.03 122.028H111.097V130.164H119.03V122.028Z" fill="#FFDC9C"/>
<path d="M119.03 113.892H111.097V122.028H119.03V113.892Z" fill="#FF91AB"/>
<path d="M119.03 105.756H111.097V113.892H119.03V105.756Z" fill="#FF91AB"/>
<path d="M119.03 97.6241H111.097V105.756H119.03V97.6241Z" fill="#FFDC9C"/>
<path d="M119.03 89.488H111.097V97.6241H119.03V89.488Z" fill="#FFDC9C"/>
<path d="M119.03 81.3521H111.097V89.4881H119.03V81.3521Z" fill="#FFDC9C"/>
<path d="M119.03 73.216H111.097V81.352H119.03V73.216Z" fill="#FFDC9C"/>
<path d="M119.03 65.0841H111.097V73.216H119.03V65.0841Z" fill="#FFDC9C"/>
<path d="M119.03 56.9481H111.097V65.0841H119.03V56.9481Z" fill="#FFDC9C"/>
<path d="M119.03 48.812H111.097V56.9481H119.03V48.812Z" fill="#FFDC9C"/>
<path d="M119.03 40.676H111.097V48.8121H119.03V40.676Z" fill="#FFDC9C"/>
<path d="M119.03 32.54H111.097V40.676H119.03V32.54Z" fill="#FFDC9C"/>
<path d="M119.03 24.4081H111.097V32.54H119.03V24.4081Z" fill="#FFDC9C"/>
<path d="M119.03 16.2721H111.097V24.4081H119.03V16.2721Z" fill="#FFDC9C"/>
<path d="M111.097 292.864H103.161V301H111.097V292.864Z" fill="#EDA751"/>
<path d="M111.097 284.732H103.161V292.864H111.097V284.732Z" fill="#EDA751"/>
<path d="M111.097 276.596H103.161V284.732H111.097V276.596Z" fill="#EDA751"/>
<path d="M111.097 268.46H103.161V276.596H111.097V268.46Z" fill="#EDA751"/>
<path d="M111.097 260.324H103.161V268.46H111.097V260.324Z" fill="#CC8232"/>
<path d="M111.097 252.192H103.161V260.324H111.097V252.192Z" fill="#E5BD7C"/>
<path d="M111.097 244.056H103.161V252.192H111.097V244.056Z" fill="#FFDC9C"/>
<path d="M111.097 235.92H103.161V244.056H111.097V235.92Z" fill="#FFDC9C"/>
<path d="M111.097 227.784H103.161V235.92H111.097V227.784Z" fill="#FFDC9C"/>
<path d="M111.097 219.648H103.161V227.784H111.097V219.648Z" fill="#FFDC9C"/>
<path d="M111.097 211.516H103.161V219.648H111.097V211.516Z" fill="#FFDC9C"/>
<path d="M111.097 203.38H103.161V211.516H111.097V203.38Z" fill="#FFDC9C"/>
<path d="M111.097 195.244H103.161V203.38H111.097V195.244Z" fill="#FFDC9C"/>
<path d="M111.097 187.108H103.161V195.244H111.097V187.108Z" fill="#FFDC9C"/>
<path d="M111.097 178.976H103.161V187.108H111.097V178.976Z" fill="#FFDC9C"/>
<path d="M111.097 170.84H103.161V178.976H111.097V170.84Z" fill="#FFDC9C"/>
<path d="M111.097 162.704H103.161V170.84H111.097V162.704Z" fill="#FFDC9C"/>
<path d="M111.097 154.568H103.161V162.704H111.097V154.568Z" fill="#FFDC9C"/>
<path d="M111.097 146.432H103.161V154.568H111.097V146.432Z" fill="#FFDC9C"/>
<path d="M111.097 138.3H103.161V146.432H111.097V138.3Z" fill="#FFDC9C"/>
<path d="M111.097 130.164H103.161V138.3H111.097V130.164Z" fill="#FFDC9C"/>
<path d="M111.097 122.028H103.161V130.164H111.097V122.028Z" fill="#FFDC9C"/>
<path d="M111.097 113.892H103.161V122.028H111.097V113.892Z" fill="#FFDC9C"/>
<path d="M111.097 105.756H103.161V113.892H111.097V105.756Z" fill="#FFDC9C"/>
<path d="M111.097 97.6241H103.161V105.756H111.097V97.6241Z" fill="#FFDC9C"/>
<path d="M111.097 89.488H103.161V97.6241H111.097V89.488Z" fill="#FFDC9C"/>
<path d="M111.097 81.3521H103.161V89.4881H111.097V81.3521Z" fill="#FFDC9C"/>
<path d="M111.097 73.216H103.161V81.352H111.097V73.216Z" fill="#FFDC9C"/>
<path d="M111.097 65.0841H103.161V73.216H111.097V65.0841Z" fill="#FFDC9C"/>
<path d="M111.097 56.9481H103.161V65.0841H111.097V56.9481Z" fill="#FFDC9C"/>
<path d="M111.097 48.812H103.161V56.9481H111.097V48.812Z" fill="#FFDC9C"/>
<path d="M111.097 40.676H103.161V48.8121H111.097V40.676Z" fill="#FFDC9C"/>
<path d="M111.097 32.54H103.161V40.676H111.097V32.54Z" fill="#FFDC9C"/>
<path d="M111.097 24.4081H103.161V32.54H111.097V24.4081Z" fill="#FFDC9C"/>
<path d="M111.097 16.2721H103.161V24.4081H111.097V16.2721Z" fill="#FFDC9C"/>
<path d="M103.161 292.864H95.2246V301H103.161V292.864Z" fill="#EDA751"/>
<path d="M103.161 284.732H95.2246V292.864H103.161V284.732Z" fill="#EDA751"/>
<path d="M103.161 276.596H95.2246V284.732H103.161V276.596Z" fill="#EDA751"/>
<path d="M103.161 268.46H95.2246V276.596H103.161V268.46Z" fill="#EDA751"/>
<path d="M103.161 260.324H95.2246V268.46H103.161V260.324Z" fill="#CC8232"/>
<path d="M103.161 252.192H95.2246V260.324H103.161V252.192Z" fill="#E5BD7C"/>
<path d="M103.161 244.056H95.2246V252.192H103.161V244.056Z" fill="#E5BD7C"/>
<path d="M103.161 235.92H95.2246V244.056H103.161V235.92Z" fill="#FFDC9C"/>
<path d="M103.161 227.784H95.2246V235.92H103.161V227.784Z" fill="#FFDC9C"/>
<path d="M103.161 219.648H95.2246V227.784H103.161V219.648Z" fill="#FFDC9C"/>
<path d="M103.161 211.516H95.2246V219.648H103.161V211.516Z" fill="#FFDC9C"/>
<path d="M103.161 203.38H95.2246V211.516H103.161V203.38Z" fill="#FFDC9C"/>
<path d="M103.161 195.244H95.2246V203.38H103.161V195.244Z" fill="#FFDC9C"/>
<path d="M103.161 187.108H95.2246V195.244H103.161V187.108Z" fill="#FFDC9C"/>
<path d="M103.161 178.976H95.2246V187.108H103.161V178.976Z" fill="#FFDC9C"/>
<path d="M103.161 170.84H95.2246V178.976H103.161V170.84Z" fill="#FFDC9C"/>
<path d="M103.161 162.704H95.2246V170.84H103.161V162.704Z" fill="#FFDC9C"/>
<path d="M103.161 154.568H95.2246V162.704H103.161V154.568Z" fill="#FFDC9C"/>
<path d="M103.161 146.432H95.2246V154.568H103.161V146.432Z" fill="#FFDC9C"/>
<path d="M103.161 138.3H95.2246V146.432H103.161V138.3Z" fill="#FFDC9C"/>
<path d="M103.161 130.164H95.2246V138.3H103.161V130.164Z" fill="#FFDC9C"/>
<path d="M103.161 122.028H95.2246V130.164H103.161V122.028Z" fill="#FFDC9C"/>
<path d="M103.161 113.892H95.2246V122.028H103.161V113.892Z" fill="#FFDC9C"/>
<path d="M103.161 105.756H95.2246V113.892H103.161V105.756Z" fill="#FFDC9C"/>
<path d="M103.161 97.6241H95.2246V105.756H103.161V97.6241Z" fill="#FFDC9C"/>
<path d="M103.161 89.488H95.2246V97.6241H103.161V89.488Z" fill="#FFDC9C"/>
<path d="M103.161 81.3521H95.2246V89.4881H103.161V81.3521Z" fill="#FFDC9C"/>
<path d="M103.161 73.216H95.2246V81.352H103.161V73.216Z" fill="#FFDC9C"/>
<path d="M103.161 65.0841H95.2246V73.216H103.161V65.0841Z" fill="#FFDC9C"/>
<path d="M103.161 56.9481H95.2246V65.0841H103.161V56.9481Z" fill="#FFDC9C"/>
<path d="M103.161 48.812H95.2246V56.9481H103.161V48.812Z" fill="#FFDC9C"/>
<path d="M103.161 40.676H95.2246V48.8121H103.161V40.676Z" fill="#FFDC9C"/>
<path d="M103.161 32.54H95.2246V40.676H103.161V32.54Z" fill="#FFDC9C"/>
<path d="M103.161 24.4081H95.2246V32.54H103.161V24.4081Z" fill="#FFDC9C"/>
<path d="M103.161 16.2721H95.2246V24.4081H103.161V16.2721Z" fill="#FFDC9C"/>
<path d="M95.2246 292.864H87.2882V301H95.2246V292.864Z" fill="#EDA751"/>
<path d="M95.2246 284.732H87.2882V292.864H95.2246V284.732Z" fill="#EDA751"/>
<path d="M95.2246 276.596H87.2882V284.732H95.2246V276.596Z" fill="#EDA751"/>
<path d="M95.2246 268.46H87.2882V276.596H95.2246V268.46Z" fill="#EDA751"/>
<path d="M95.2246 260.324H87.2882V268.46H95.2246V260.324Z" fill="#CC8232"/>
<path d="M95.2246 252.192H87.2882V260.324H95.2246V252.192Z" fill="#CC8232"/>
<path d="M95.2246 244.056H87.2882V252.192H95.2246V244.056Z" fill="#E5BD7C"/>
<path d="M95.2246 235.92H87.2882V244.056H95.2246V235.92Z" fill="#E5BD7C"/>
<path d="M95.2246 227.784H87.2882V235.92H95.2246V227.784Z" fill="#E5BD7C"/>
<path d="M95.2246 219.648H87.2882V227.784H95.2246V219.648Z" fill="#FFDC9C"/>
<path d="M95.2246 211.516H87.2882V219.648H95.2246V211.516Z" fill="#FFDC9C"/>
<path d="M95.2246 203.38H87.2882V211.516H95.2246V203.38Z" fill="#FFDC9C"/>
<path d="M95.2246 195.244H87.2882V203.38H95.2246V195.244Z" fill="#FFDC9C"/>
<path d="M95.2246 187.108H87.2882V195.244H95.2246V187.108Z" fill="#FFDC9C"/>
<path d="M95.2246 178.976H87.2882V187.108H95.2246V178.976Z" fill="#FFDC9C"/>
<path d="M95.2246 170.84H87.2882V178.976H95.2246V170.84Z" fill="#FFDC9C"/>
<path d="M95.2246 162.704H87.2882V170.84H95.2246V162.704Z" fill="#FFDC9C"/>
<path d="M95.2246 154.568H87.2882V162.704H95.2246V154.568Z" fill="#FFDC9C"/>
<path d="M95.2246 146.432H87.2882V154.568H95.2246V146.432Z" fill="#FFDC9C"/>
<path d="M95.2246 138.3H87.2882V146.432H95.2246V138.3Z" fill="#FFDC9C"/>
<path d="M95.2246 130.164H87.2882V138.3H95.2246V130.164Z" fill="#FFDC9C"/>
<path d="M95.2246 122.028H87.2882V130.164H95.2246V122.028Z" fill="#FFDC9C"/>
<path d="M95.2246 113.892H87.2882V122.028H95.2246V113.892Z" fill="#FFDC9C"/>
<path d="M95.2246 105.756H87.2882V113.892H95.2246V105.756Z" fill="#FFDC9C"/>
<path d="M95.2246 97.6241H87.2882V105.756H95.2246V97.6241Z" fill="#FFDC9C"/>
<path d="M95.2246 89.488H87.2882V97.6241H95.2246V89.488Z" fill="#FFDC9C"/>
<path d="M95.2246 81.3521H87.2882V89.4881H95.2246V81.3521Z" fill="#FFDC9C"/>
<path d="M95.2246 73.216H87.2882V81.352H95.2246V73.216Z" fill="#FFDC9C"/>
<path d="M95.2246 65.0841H87.2882V73.216H95.2246V65.0841Z" fill="#FFDC9C"/>
<path d="M95.2246 56.9481H87.2882V65.0841H95.2246V56.9481Z" fill="#FFDC9C"/>
<path d="M95.2246 48.812H87.2882V56.9481H95.2246V48.812Z" fill="#FFDC9C"/>
<path d="M95.2246 40.676H87.2882V48.8121H95.2246V40.676Z" fill="#FFDC9C"/>
<path d="M95.2246 32.54H87.2882V40.676H95.2246V32.54Z" fill="#FFDC9C"/>
<path d="M95.2246 24.4081H87.2882V32.54H95.2246V24.4081Z" fill="#FFDC9C"/>
<path d="M95.2246 16.2721H87.2882V24.4081H95.2246V16.2721Z" fill="#FFDC9C"/>
<path d="M87.2883 284.732H79.3559V292.864H87.2883V284.732Z" fill="#EDA751"/>
<path d="M87.2883 276.596H79.3559V284.732H87.2883V276.596Z" fill="#EDA751"/>
<path d="M87.2883 268.46H79.3559V276.596H87.2883V268.46Z" fill="#EDA751"/>
<path d="M87.2883 260.324H79.3559V268.46H87.2883V260.324Z" fill="#EDA751"/>
<path d="M87.2883 252.192H79.3559V260.324H87.2883V252.192Z" fill="#CC8232"/>
<path d="M87.2883 244.056H79.3559V252.192H87.2883V244.056Z" fill="#E5BD7C"/>
<path d="M87.2883 235.92H79.3559V244.056H87.2883V235.92Z" fill="#E5BD7C"/>
<path d="M87.2883 227.784H79.3559V235.92H87.2883V227.784Z" fill="#E5BD7C"/>
<path d="M87.2883 219.648H79.3559V227.784H87.2883V219.648Z" fill="#E5BD7C"/>
<path d="M87.2883 211.516H79.3559V219.648H87.2883V211.516Z" fill="#E5BD7C"/>
<path d="M87.2883 203.38H79.3559V211.516H87.2883V203.38Z" fill="#E5BD7C"/>
<path d="M87.2883 195.244H79.3559V203.38H87.2883V195.244Z" fill="#E5BD7C"/>
<path d="M87.2883 187.108H79.3559V195.244H87.2883V187.108Z" fill="#E5BD7C"/>
<path d="M87.2883 178.976H79.3559V187.108H87.2883V178.976Z" fill="#E5BD7C"/>
<path d="M87.2883 170.84H79.3559V178.976H87.2883V170.84Z" fill="#FFDC9C"/>
<path d="M87.2883 162.704H79.3559V170.84H87.2883V162.704Z" fill="#FFDC9C"/>
<path d="M87.2883 154.568H79.3559V162.704H87.2883V154.568Z" fill="#FFDC9C"/>
<path d="M87.2883 146.432H79.3559V154.568H87.2883V146.432Z" fill="#FFDC9C"/>
<path d="M87.2883 138.3H79.3559V146.432H87.2883V138.3Z" fill="#FFDC9C"/>
<path d="M87.2883 130.164H79.3559V138.3H87.2883V130.164Z" fill="#FF91AB"/>
<path d="M87.2883 122.028H79.3559V130.164H87.2883V122.028Z" fill="#5CE5E5"/>
<path d="M87.2883 113.892H79.3559V122.028H87.2883V113.892Z" fill="#FFDC9C"/>
<path d="M87.2883 105.756H79.3559V113.892H87.2883V105.756Z" fill="#495059"/>
<path d="M87.2883 97.6241H79.3559V105.756H87.2883V97.6241Z" fill="#495059"/>
<path d="M87.2883 89.488H79.3559V97.6241H87.2883V89.488Z" fill="#495059"/>
<path d="M87.2883 81.3521H79.3559V89.4881H87.2883V81.3521Z" fill="#FFDC9C"/>
<path d="M87.2883 73.216H79.3559V81.352H87.2883V73.216Z" fill="#FFDC9C"/>
<path d="M87.2883 65.0841H79.3559V73.216H87.2883V65.0841Z" fill="#495059"/>
<path d="M87.2883 56.9481H79.3559V65.0841H87.2883V56.9481Z" fill="#FFDC9C"/>
<path d="M87.2883 48.812H79.3559V56.9481H87.2883V48.812Z" fill="#FFDC9C"/>
<path d="M87.2883 40.676H79.3559V48.8121H87.2883V40.676Z" fill="#FFDC9C"/>
<path d="M87.2883 32.54H79.3559V40.676H87.2883V32.54Z" fill="#FFDC9C"/>
<path d="M87.2883 24.4081H79.3559V32.54H87.2883V24.4081Z" fill="#FFDC9C"/>
<path d="M79.3559 235.92H71.4195V244.056H79.3559V235.92Z" fill="#E5BD7C"/>
<path d="M79.3559 227.784H71.4195V235.92H79.3559V227.784Z" fill="#E5BD7C"/>
<path d="M79.3559 219.648H71.4195V227.784H79.3559V219.648Z" fill="#E5BD7C"/>
<path d="M79.3559 211.516H71.4195V219.648H79.3559V211.516Z" fill="#E5BD7C"/>
<path d="M79.3559 203.38H71.4195V211.516H79.3559V203.38Z" fill="#E5BD7C"/>
<path d="M79.3559 195.244H71.4195V203.38H79.3559V195.244Z" fill="#E5BD7C"/>
<path d="M79.3559 187.108H71.4195V195.244H79.3559V187.108Z" fill="#E5BD7C"/>
<path d="M79.3559 178.976H71.4195V187.108H79.3559V178.976Z" fill="#E5BD7C"/>
<path d="M79.3559 170.84H71.4195V178.976H79.3559V170.84Z" fill="#E5BD7C"/>
<path d="M79.3559 162.704H71.4195V170.84H79.3559V162.704Z" fill="#FFDC9C"/>
<path d="M79.3559 154.568H71.4195V162.704H79.3559V154.568Z" fill="#FFDC9C"/>
<path d="M79.3559 146.432H71.4195V154.568H79.3559V146.432Z" fill="#FFDC9C"/>
<path d="M79.3559 138.3H71.4195V146.432H79.3559V138.3Z" fill="#FF91AB"/>
<path d="M79.3559 130.164H71.4195V138.3H79.3559V130.164Z" fill="#5CE5E5"/>
<path d="M79.3559 122.028H71.4195V130.164H79.3559V122.028Z" fill="#5CE5E5"/>
<path d="M79.3559 113.892H71.4195V122.028H79.3559V113.892Z" fill="#4BB9F7"/>
<path d="M79.3559 105.756H71.4195V113.892H79.3559V105.756Z" fill="#495059"/>
<path d="M79.3559 97.6241H71.4195V105.756H79.3559V97.6241Z" fill="#495059"/>
<path d="M79.3559 89.488H71.4195V97.6241H79.3559V89.488Z" fill="#DEE2E5"/>
<path d="M79.3559 81.3521H71.4195V89.4881H79.3559V81.3521Z" fill="#FFDC9C"/>
<path d="M79.3559 73.216H71.4195V81.352H79.3559V73.216Z" fill="#495059"/>
<path d="M79.3559 65.0841H71.4195V73.216H79.3559V65.0841Z" fill="#FFDC9C"/>
<path d="M79.3559 56.9481H71.4195V65.0841H79.3559V56.9481Z" fill="#FFDC9C"/>
<path d="M79.3559 48.812H71.4195V56.9481H79.3559V48.812Z" fill="#FFDC9C"/>
<path d="M79.3559 40.676H71.4195V48.8121H79.3559V40.676Z" fill="#FFDC9C"/>
<path d="M79.3559 32.54H71.4195V40.676H79.3559V32.54Z" fill="#FFDC9C"/>
<path d="M79.3559 24.4081H71.4195V32.54H79.3559V24.4081Z" fill="#FFDC9C"/>
<path d="M71.4195 235.92H63.4831V244.056H71.4195V235.92Z" fill="#CC8232"/>
<path d="M71.4195 227.784H63.4831V235.92H71.4195V227.784Z" fill="#E5BD7C"/>
<path d="M71.4195 219.648H63.4831V227.784H71.4195V219.648Z" fill="#E5BD7C"/>
<path d="M71.4195 211.516H63.4831V219.648H71.4195V211.516Z" fill="#E5BD7C"/>
<path d="M71.4195 203.38H63.4831V211.516H71.4195V203.38Z" fill="#E5BD7C"/>
<path d="M71.4195 195.244H63.4831V203.38H71.4195V195.244Z" fill="#E5BD7C"/>
<path d="M71.4195 187.108H63.4831V195.244H71.4195V187.108Z" fill="#E5BD7C"/>
<path d="M71.4195 178.976H63.4831V187.108H71.4195V178.976Z" fill="#E5BD7C"/>
<path d="M71.4195 170.84H63.4831V178.976H71.4195V170.84Z" fill="#E5BD7C"/>
<path d="M71.4195 162.704H63.4831V170.84H71.4195V162.704Z" fill="#E5BD7C"/>
<path d="M71.4195 154.568H63.4831V162.704H71.4195V154.568Z" fill="#FFDC9C"/>
<path d="M71.4195 146.432H63.4831V154.568H71.4195V146.432Z" fill="#FFDC9C"/>
<path d="M71.4195 138.3H63.4831V146.432H71.4195V138.3Z" fill="#FF91AB"/>
<path d="M71.4195 130.164H63.4831V138.3H71.4195V130.164Z" fill="#FF91AB"/>
<path d="M71.4195 122.028H63.4831V130.164H71.4195V122.028Z" fill="#4BB9F7"/>
<path d="M71.4195 113.892H63.4831V122.028H71.4195V113.892Z" fill="#FF91AB"/>
<path d="M71.4195 105.756H63.4831V113.892H71.4195V105.756Z" fill="#FFDC9C"/>
<path d="M71.4195 97.6241H63.4831V105.756H71.4195V97.6241Z" fill="#FFDC9C"/>
<path d="M71.4195 89.488H63.4831V97.6241H71.4195V89.488Z" fill="#FFDC9C"/>
<path d="M71.4195 81.3521H63.4831V89.4881H71.4195V81.3521Z" fill="#FFDC9C"/>
<path d="M71.4195 73.216H63.4831V81.352H71.4195V73.216Z" fill="#495059"/>
<path d="M71.4195 65.0841H63.4831V73.216H71.4195V65.0841Z" fill="#FFDC9C"/>
<path d="M71.4195 56.9481H63.4831V65.0841H71.4195V56.9481Z" fill="#FFDC9C"/>
<path d="M71.4195 48.812H63.4831V56.9481H71.4195V48.812Z" fill="#FFDC9C"/>
<path d="M71.4195 40.676H63.4831V48.8121H71.4195V40.676Z" fill="#FFDC9C"/>
<path d="M71.4195 32.54H63.4831V40.676H71.4195V32.54Z" fill="#FFDC9C"/>
<path d="M71.4195 24.4081H63.4831V32.54H71.4195V24.4081Z" fill="#FFDC9C"/>
<path d="M71.4195 16.2721H63.4831V24.4081H71.4195V16.2721Z" fill="#EDA751"/>
<path d="M63.4831 244.056H55.5467V252.192H63.4831V244.056Z" fill="#EDA751"/>
<path d="M63.4831 235.92H55.5467V244.056H63.4831V235.92Z" fill="#EDA751"/>
<path d="M63.4831 227.784H55.5467V235.92H63.4831V227.784Z" fill="#CC8232"/>
<path d="M63.4831 219.648H55.5467V227.784H63.4831V219.648Z" fill="#CC8232"/>
<path d="M63.4831 211.516H55.5467V219.648H63.4831V211.516Z" fill="#E5BD7C"/>
<path d="M63.4831 203.38H55.5467V211.516H63.4831V203.38Z" fill="#E5BD7C"/>
<path d="M63.4831 195.244H55.5467V203.38H63.4831V195.244Z" fill="#E5BD7C"/>
<path d="M63.4831 187.108H55.5467V195.244H63.4831V187.108Z" fill="#E5BD7C"/>
<path d="M63.4831 178.976H55.5467V187.108H63.4831V178.976Z" fill="#E5BD7C"/>
<path d="M63.4831 170.84H55.5467V178.976H63.4831V170.84Z" fill="#E5BD7C"/>
<path d="M63.4831 162.704H55.5467V170.84H63.4831V162.704Z" fill="#E5BD7C"/>
<path d="M63.4831 154.568H55.5467V162.704H63.4831V154.568Z" fill="#E5BD7C"/>
<path d="M63.4831 146.432H55.5467V154.568H63.4831V146.432Z" fill="#FFDC9C"/>
<path d="M63.4831 138.3H55.5467V146.432H63.4831V138.3Z" fill="#FFDC9C"/>
<path d="M63.4831 130.164H55.5467V138.3H63.4831V130.164Z" fill="#495059"/>
<path d="M63.4831 122.028H55.5467V130.164H63.4831V122.028Z" fill="#FF91AB"/>
<path d="M63.4831 113.892H55.5467V122.028H63.4831V113.892Z" fill="#495059"/>
<path d="M63.4831 105.756H55.5467V113.892H63.4831V105.756Z" fill="#FFDC9C"/>
<path d="M63.4831 97.6241H55.5467V105.756H63.4831V97.6241Z" fill="#FFDC9C"/>
<path d="M63.4831 89.488H55.5467V97.6241H63.4831V89.488Z" fill="#FFDC9C"/>
<path d="M63.4831 81.3521H55.5467V89.4881H63.4831V81.3521Z" fill="#FFDC9C"/>
<path d="M63.4831 73.216H55.5467V81.352H63.4831V73.216Z" fill="#FFDC9C"/>
<path d="M63.4831 65.0841H55.5467V73.216H63.4831V65.0841Z" fill="#FFDC9C"/>
<path d="M63.4831 56.9481H55.5467V65.0841H63.4831V56.9481Z" fill="#FFDC9C"/>
<path d="M63.4831 48.812H55.5467V56.9481H63.4831V48.812Z" fill="#FFDC9C"/>
<path d="M63.4831 40.676H55.5467V48.8121H63.4831V40.676Z" fill="#FFDC9C"/>
<path d="M63.4831 32.54H55.5467V40.676H63.4831V32.54Z" fill="#FFDC9C"/>
<path d="M63.4831 24.4081H55.5467V32.54H63.4831V24.4081Z" fill="#EDA751"/>
<path d="M63.4831 16.2721H55.5467V24.4081H63.4831V16.2721Z" fill="#EDA751"/>
<path d="M63.4831 8.13605H55.5467V16.2721H63.4831V8.13605Z" fill="#EDA751"/>
<path d="M55.5467 252.192H47.6103V260.324H55.5467V252.192Z" fill="#EDA751"/>
<path d="M55.5467 244.056H47.6103V252.192H55.5467V244.056Z" fill="#EDA751"/>
<path d="M55.5467 235.92H47.6103V244.056H55.5467V235.92Z" fill="#EDA751"/>
<path d="M55.5467 227.784H47.6103V235.92H55.5467V227.784Z" fill="#EDA751"/>
<path d="M55.5467 219.648H47.6103V227.784H55.5467V219.648Z" fill="#CC8232"/>
<path d="M55.5467 211.516H47.6103V219.648H55.5467V211.516Z" fill="#CC8232"/>
<path d="M55.5467 203.38H47.6103V211.516H55.5467V203.38Z" fill="#E5BD7C"/>
<path d="M55.5467 195.244H47.6103V203.38H55.5467V195.244Z" fill="#E5BD7C"/>
<path d="M55.5467 187.108H47.6103V195.244H55.5467V187.108Z" fill="#E5BD7C"/>
<path d="M55.5467 162.704H47.6103V170.84H55.5467V162.704Z" fill="#E5BD7C"/>
<path d="M55.5467 154.568H47.6103V162.704H55.5467V154.568Z" fill="#E5BD7C"/>
<path d="M55.5467 146.432H47.6103V154.568H55.5467V146.432Z" fill="#E5BD7C"/>
<path d="M55.5467 138.3H47.6103V146.432H55.5467V138.3Z" fill="#495059"/>
<path d="M55.5467 130.164H47.6103V138.3H55.5467V130.164Z" fill="#FFDC9C"/>
<path d="M55.5467 122.028H47.6103V130.164H55.5467V122.028Z" fill="#495059"/>
<path d="M55.5467 113.892H47.6103V122.028H55.5467V113.892Z" fill="#FFDC9C"/>
<path d="M55.5467 105.756H47.6103V113.892H55.5467V105.756Z" fill="#495059"/>
<path d="M55.5467 97.6241H47.6103V105.756H55.5467V97.6241Z" fill="#FFDC9C"/>
<path d="M55.5467 89.488H47.6103V97.6241H55.5467V89.488Z" fill="#FFDC9C"/>
<path d="M55.5467 81.3521H47.6103V89.4881H55.5467V81.3521Z" fill="#FFDC9C"/>
<path d="M55.5467 73.216H47.6103V81.352H55.5467V73.216Z" fill="#FFDC9C"/>
<path d="M55.5467 65.0841H47.6103V73.216H55.5467V65.0841Z" fill="#FFDC9C"/>
<path d="M55.5467 56.9481H47.6103V65.0841H55.5467V56.9481Z" fill="#FFDC9C"/>
<path d="M55.5467 48.812H47.6103V56.9481H55.5467V48.812Z" fill="#E5BD7C"/>
<path d="M55.5467 40.676H47.6103V48.8121H55.5467V40.676Z" fill="#E5BD7C"/>
<path d="M55.5467 32.54H47.6103V40.676H55.5467V32.54Z" fill="#EDA751"/>
<path d="M55.5467 24.4081H47.6103V32.54H55.5467V24.4081Z" fill="#EDA751"/>
<path d="M55.5467 16.2721H47.6103V24.4081H55.5467V16.2721Z" fill="#EDA751"/>
<path d="M55.5467 8.13605H47.6103V16.2721H55.5467V8.13605Z" fill="#EDA751"/>
<path d="M47.6103 252.192H39.6779V260.324H47.6103V252.192Z" fill="#EDA751"/>
<path d="M47.6103 244.056H39.6779V252.192H47.6103V244.056Z" fill="#EDA751"/>
<path d="M47.6103 235.92H39.6779V244.056H47.6103V235.92Z" fill="#EDA751"/>
<path d="M47.6103 227.784H39.6779V235.92H47.6103V227.784Z" fill="#EDA751"/>
<path d="M47.6103 219.648H39.6779V227.784H47.6103V219.648Z" fill="#CC8232"/>
<path d="M47.6103 162.704H39.6779V170.84H47.6103V162.704Z" fill="#E5BD7C"/>
<path d="M47.6103 154.568H39.6779V162.704H47.6103V154.568Z" fill="#E5BD7C"/>
<path d="M47.6103 146.432H39.6779V154.568H47.6103V146.432Z" fill="#E5BD7C"/>
<path d="M47.6103 138.3H39.6779V146.432H47.6103V138.3Z" fill="#E5BD7C"/>
<path d="M47.6103 130.164H39.6779V138.3H47.6103V130.164Z" fill="#E5BD7C"/>
<path d="M47.6103 122.028H39.6779V130.164H47.6103V122.028Z" fill="#495059"/>
<path d="M47.6103 113.892H39.6779V122.028H47.6103V113.892Z" fill="#FFDC9C"/>
<path d="M47.6103 105.756H39.6779V113.892H47.6103V105.756Z" fill="#FFDC9C"/>
<path d="M47.6103 97.6241H39.6779V105.756H47.6103V97.6241Z" fill="#FFDC9C"/>
<path d="M47.6103 89.488H39.6779V97.6241H47.6103V89.488Z" fill="#FFDC9C"/>
<path d="M47.6103 81.3521H39.6779V89.4881H47.6103V81.3521Z" fill="#FFDC9C"/>
<path d="M47.6103 73.216H39.6779V81.352H47.6103V73.216Z" fill="#FFDC9C"/>
<path d="M47.6103 65.0841H39.6779V73.216H47.6103V65.0841Z" fill="#E5BD7C"/>
<path d="M47.6103 56.9481H39.6779V65.0841H47.6103V56.9481Z" fill="#E5BD7C"/>
<path d="M47.6103 48.812H39.6779V56.9481H47.6103V48.812Z" fill="#E5BD7C"/>
<path d="M47.6103 40.676H39.6779V48.8121H47.6103V40.676Z" fill="#E5BD7C"/>
<path d="M47.6103 32.54H39.6779V40.676H47.6103V32.54Z" fill="#FF91AB"/>
<path d="M47.6103 24.4081H39.6779V32.54H47.6103V24.4081Z" fill="#EDA751"/>
<path d="M47.6103 16.2721H39.6779V24.4081H47.6103V16.2721Z" fill="#EDA751"/>
<path d="M47.6103 8.13605H39.6779V16.2721H47.6103V8.13605Z" fill="#EDA751"/>
<path d="M47.6103 0H39.6779V8.13603H47.6103V0Z" fill="#EDA751"/>
<path d="M39.6779 252.192H31.7415V260.324H39.6779V252.192Z" fill="#EDA751"/>
<path d="M39.6779 244.056H31.7415V252.192H39.6779V244.056Z" fill="#EDA751"/>
<path d="M39.6779 235.92H31.7415V244.056H39.6779V235.92Z" fill="#EDA751"/>
<path d="M39.6779 154.568H31.7415V162.704H39.6779V154.568Z" fill="#E5BD7C"/>
<path d="M39.6779 146.432H31.7415V154.568H39.6779V146.432Z" fill="#E5BD7C"/>
<path d="M39.6779 138.3H31.7415V146.432H39.6779V138.3Z" fill="#E5BD7C"/>
<path d="M39.6779 130.164H31.7415V138.3H39.6779V130.164Z" fill="#E5BD7C"/>
<path d="M39.6779 122.028H31.7415V130.164H39.6779V122.028Z" fill="#E5BD7C"/>
<path d="M39.6779 113.892H31.7415V122.028H39.6779V113.892Z" fill="#E5BD7C"/>
<path d="M39.6779 105.756H31.7415V113.892H39.6779V105.756Z" fill="#E5BD7C"/>
<path d="M39.6779 97.6241H31.7415V105.756H39.6779V97.6241Z" fill="#E5BD7C"/>
<path d="M39.6779 89.488H31.7415V97.6241H39.6779V89.488Z" fill="#E5BD7C"/>
<path d="M39.6779 81.3521H31.7415V89.4881H39.6779V81.3521Z" fill="#E5BD7C"/>
<path d="M39.6779 73.216H31.7415V81.352H39.6779V73.216Z" fill="#E5BD7C"/>
<path d="M39.6779 65.0841H31.7415V73.216H39.6779V65.0841Z" fill="#E5BD7C"/>
<path d="M39.6779 56.9481H31.7415V65.0841H39.6779V56.9481Z" fill="#E5BD7C"/>
<path d="M39.6779 48.812H31.7415V56.9481H39.6779V48.812Z" fill="#E5BD7C"/>
<path d="M39.6779 40.676H31.7415V48.8121H39.6779V40.676Z" fill="#FF91AB"/>
<path d="M39.6779 32.54H31.7415V40.676H39.6779V32.54Z" fill="#FF91AB"/>
<path d="M39.6779 24.4081H31.7415V32.54H39.6779V24.4081Z" fill="#EDA751"/>
<path d="M39.6779 16.2721H31.7415V24.4081H39.6779V16.2721Z" fill="#EDA751"/>
<path d="M39.6779 8.13605H31.7415V16.2721H39.6779V8.13605Z" fill="#EDA751"/>
<path d="M39.6779 0H31.7415V8.13603H39.6779V0Z" fill="#EDA751"/>
<path d="M31.7415 146.432H23.8051V154.568H31.7415V146.432Z" fill="#E5BD7C"/>
<path d="M31.7415 138.3H23.8051V146.432H31.7415V138.3Z" fill="#E5BD7C"/>
<path d="M31.7415 130.164H23.8051V138.3H31.7415V130.164Z" fill="#E5BD7C"/>
<path d="M31.7415 122.028H23.8051V130.164H31.7415V122.028Z" fill="#E5BD7C"/>
<path d="M31.7415 113.892H23.8051V122.028H31.7415V113.892Z" fill="#E5BD7C"/>
<path d="M31.7415 105.756H23.8051V113.892H31.7415V105.756Z" fill="#E5BD7C"/>
<path d="M31.7415 97.6241H23.8051V105.756H31.7415V97.6241Z" fill="#E5BD7C"/>
<path d="M31.7415 89.488H23.8051V97.6241H31.7415V89.488Z" fill="#E5BD7C"/>
<path d="M31.7415 81.3521H23.8051V89.4881H31.7415V81.3521Z" fill="#E5BD7C"/>
<path d="M31.7415 73.216H23.8051V81.352H31.7415V73.216Z" fill="#E5BD7C"/>
<path d="M31.7415 65.0841H23.8051V73.216H31.7415V65.0841Z" fill="#E5BD7C"/>
<path d="M31.7415 56.9481H23.8051V65.0841H31.7415V56.9481Z" fill="#E5BD7C"/>
<path d="M31.7415 48.812H23.8051V56.9481H31.7415V48.812Z" fill="#FF91AB"/>
<path d="M31.7415 40.676H23.8051V48.8121H31.7415V40.676Z" fill="#FF91AB"/>
<path d="M31.7415 32.54H23.8051V40.676H31.7415V32.54Z" fill="#FF91AB"/>
<path d="M31.7415 24.4081H23.8051V32.54H31.7415V24.4081Z" fill="#FF91AB"/>
<path d="M31.7415 16.2721H23.8051V24.4081H31.7415V16.2721Z" fill="#EDA751"/>
<path d="M31.7415 8.13605H23.8051V16.2721H31.7415V8.13605Z" fill="#EDA751"/>
<path d="M31.7415 0H23.8051V8.13603H31.7415V0Z" fill="#EDA751"/>
<path d="M23.8052 138.3H15.8688V146.432H23.8052V138.3Z" fill="#E5BD7C"/>
<path d="M23.8052 130.164H15.8688V138.3H23.8052V130.164Z" fill="#E5BD7C"/>
<path d="M23.8052 122.028H15.8688V130.164H23.8052V122.028Z" fill="#E5BD7C"/>
<path d="M23.8052 113.892H15.8688V122.028H23.8052V113.892Z" fill="#E5BD7C"/>
<path d="M23.8052 105.756H15.8688V113.892H23.8052V105.756Z" fill="#E5BD7C"/>
<path d="M23.8052 97.6241H15.8688V105.756H23.8052V97.6241Z" fill="#E5BD7C"/>
<path d="M23.8052 89.488H15.8688V97.6241H23.8052V89.488Z" fill="#E5BD7C"/>
<path d="M23.8052 81.3521H15.8688V89.4881H23.8052V81.3521Z" fill="#E5BD7C"/>
<path d="M23.8052 73.216H15.8688V81.352H23.8052V73.216Z" fill="#E5BD7C"/>
<path d="M23.8052 65.0841H15.8688V73.216H23.8052V65.0841Z" fill="#E5BD7C"/>
<path d="M23.8052 56.9481H15.8688V65.0841H23.8052V56.9481Z" fill="#FF91AB"/>
<path d="M23.8052 48.812H15.8688V56.9481H23.8052V48.812Z" fill="#FF91AB"/>
<path d="M23.8052 40.676H15.8688V48.8121H23.8052V40.676Z" fill="#FF91AB"/>
<path d="M23.8052 32.54H15.8688V40.676H23.8052V32.54Z" fill="#FF91AB"/>
<path d="M23.8052 24.4081H15.8688V32.54H23.8052V24.4081Z" fill="#FF91AB"/>
<path d="M23.8052 16.2721H15.8688V24.4081H23.8052V16.2721Z" fill="#EDA751"/>
<path d="M23.8052 8.13605H15.8688V16.2721H23.8052V8.13605Z" fill="#EDA751"/>
<path d="M23.8052 0H15.8688V8.13603H23.8052V0Z" fill="#EDA751"/>
<path d="M15.8688 122.028H7.93237V130.164H15.8688V122.028Z" fill="#E5BD7C"/>
<path d="M15.8688 113.892H7.93237V122.028H15.8688V113.892Z" fill="#E5BD7C"/>
<path d="M15.8688 105.756H7.93237V113.892H15.8688V105.756Z" fill="#E5BD7C"/>
<path d="M15.8688 97.6241H7.93237V105.756H15.8688V97.6241Z" fill="#E5BD7C"/>
<path d="M15.8688 89.488H7.93237V97.6241H15.8688V89.488Z" fill="#E5BD7C"/>
<path d="M15.8688 56.9481H7.93237V65.0841H15.8688V56.9481Z" fill="#FF91AB"/>
<path d="M15.8688 48.812H7.93237V56.9481H15.8688V48.812Z" fill="#FF91AB"/>
<path d="M15.8688 40.676H7.93237V48.8121H15.8688V40.676Z" fill="#FF91AB"/>
<path d="M15.8688 32.54H7.93237V40.676H15.8688V32.54Z" fill="#FF91AB"/>
<path d="M15.8688 24.4081H7.93237V32.54H15.8688V24.4081Z" fill="#FF91AB"/>
<path d="M15.8688 16.2721H7.93237V24.4081H15.8688V16.2721Z" fill="#FF91AB"/>
<path d="M15.8688 8.13605H7.93237V16.2721H15.8688V8.13605Z" fill="#EDA751"/>
<path d="M15.8688 0H7.93237V8.13603H15.8688V0Z" fill="#EDA751"/>
<path d="M7.93235 48.812H0V56.9481H7.93235V48.812Z" fill="#FF91AB"/>
<path d="M7.93235 40.676H0V48.8121H7.93235V40.676Z" fill="#FF91AB"/>
<path d="M7.93235 32.54H0V40.676H7.93235V32.54Z" fill="#FF91AB"/>
<path d="M7.93235 24.4081H0V32.54H7.93235V24.4081Z" fill="#FF91AB"/>
</svg>
