<svg width="294" height="333" viewBox="0 0 294 333" fill="none" xmlns="http://www.w3.org/2000/svg">
<path d="M294 108.225H286.053V116.551H294V108.225Z" fill="#EBC434"/>
<path d="M294 91.577H286.053V99.8987H294V91.577Z" fill="#EBC434"/>
<path d="M286.053 99.8987H278.11V108.225H286.053V99.8987Z" fill="#EBC434"/>
<path d="M278.11 124.877H270.164V133.198H278.11V124.877Z" fill="#EBC434"/>
<path d="M278.11 108.225H270.164V116.551H278.11V108.225Z" fill="#EBC434"/>
<path d="M278.11 99.8987H270.164V108.225H278.11V99.8987Z" fill="#EBC434"/>
<path d="M278.11 91.577H270.164V99.8987H278.11V91.577Z" fill="#EBC434"/>
<path d="M278.11 74.9251H270.164V83.2511H278.11V74.9251Z" fill="#EBC434"/>
<path d="M270.164 166.502H262.217V174.824H270.164V166.502Z" fill="#F5D141"/>
<path d="M270.164 99.8987H262.217V108.225H270.164V99.8987Z" fill="#EBC434"/>
<path d="M262.217 208.128H254.27V216.449H262.217V208.128Z" fill="#CB9FFF"/>
<path d="M262.217 199.802H254.27V208.128H262.217V199.802Z" fill="#CB9FFF"/>
<path d="M262.217 108.225H254.27V116.551H262.217V108.225Z" fill="#EBC434"/>
<path d="M262.217 91.577H254.27V99.8987H262.217V91.577Z" fill="#EBC434"/>
<path d="M262.217 74.9251H254.27V83.2511H262.217V74.9251Z" fill="#73F4DB"/>
<path d="M262.217 66.5992H254.27V74.9251H262.217V66.5992Z" fill="#73F4DB"/>
<path d="M262.217 58.2732H254.27V66.5991H262.217V58.2732Z" fill="#73F4DB"/>
<path d="M262.217 49.9515H254.27V58.2732H262.217V49.9515Z" fill="#73F4DB"/>
<path d="M254.27 216.449H246.323V224.775H254.27V216.449Z" fill="#964CC1"/>
<path d="M254.27 208.128H246.323V216.449H254.27V208.128Z" fill="#CB9FFF"/>
<path d="M254.27 199.802H246.323V208.128H254.27V199.802Z" fill="#CB9FFF"/>
<path d="M254.27 149.85H246.323V158.176H254.27V149.85Z" fill="#CB9FFF"/>
<path d="M254.27 141.524H246.323V149.85H254.27V141.524Z" fill="#CB9FFF"/>
<path d="M254.27 133.198H246.323V141.524H254.27V133.198Z" fill="#CB9FFF"/>
<path d="M254.27 124.877H246.323V133.198H254.27V124.877Z" fill="#CB9FFF"/>
<path d="M254.27 116.551H246.323V124.877H254.27V116.551Z" fill="#CB9FFF"/>
<path d="M254.27 83.251H246.323V91.577H254.27V83.251Z" fill="#73F4DB"/>
<path d="M254.27 74.9251H246.323V83.2511H254.27V74.9251Z" fill="#73F4DB"/>
<path d="M254.27 66.5992H246.323V74.9251H254.27V66.5992Z" fill="#73F4DB"/>
<path d="M254.27 58.2732H246.323V66.5991H254.27V58.2732Z" fill="#73F4DB"/>
<path d="M254.27 49.9515H246.323V58.2732H254.27V49.9515Z" fill="#73F4DB"/>
<path d="M254.27 41.6255H246.323V49.9515H254.27V41.6255Z" fill="#73F4DB"/>
<path d="M254.27 33.2996H246.323V41.6255H254.27V33.2996Z" fill="#964CC1"/>
<path d="M254.27 24.9736H246.323V33.2996H254.27V24.9736Z" fill="#964CC1"/>
<path d="M246.323 233.101H238.38V241.427H246.323V233.101Z" fill="#964CC1"/>
<path d="M246.323 224.775H238.38V233.101H246.323V224.775Z" fill="#964CC1"/>
<path d="M246.323 216.449H238.38V224.775H246.323V216.449Z" fill="#964CC1"/>
<path d="M246.323 208.128H238.38V216.449H246.323V208.128Z" fill="#964CC1"/>
<path d="M246.323 199.802H238.38V208.128H246.323V199.802Z" fill="#964CC1"/>
<path d="M246.323 166.502H238.38V174.824H246.323V166.502Z" fill="#CB9FFF"/>
<path d="M246.323 158.176H238.38V166.502H246.323V158.176Z" fill="#CB9FFF"/>
<path d="M246.323 149.85H238.38V158.176H246.323V149.85Z" fill="#CB9FFF"/>
<path d="M246.323 141.524H238.38V149.85H246.323V141.524Z" fill="#CB9FFF"/>
<path d="M246.323 133.198H238.38V141.524H246.323V133.198Z" fill="#CB9FFF"/>
<path d="M246.323 124.877H238.38V133.198H246.323V124.877Z" fill="#CB9FFF"/>
<path d="M246.323 116.551H238.38V124.877H246.323V116.551Z" fill="#CB9FFF"/>
<path d="M246.323 108.225H238.38V116.551H246.323V108.225Z" fill="#CB9FFF"/>
<path d="M246.323 99.8987H238.38V108.225H246.323V99.8987Z" fill="#CB9FFF"/>
<path d="M246.323 91.577H238.38V99.8987H246.323V91.577Z" fill="#73F4DB"/>
<path d="M246.323 83.251H238.38V91.577H246.323V83.251Z" fill="#73F4DB"/>
<path d="M246.323 74.9251H238.38V83.2511H246.323V74.9251Z" fill="#73F4DB"/>
<path d="M246.323 66.5992H238.38V74.9251H246.323V66.5992Z" fill="#73F4DB"/>
<path d="M246.323 58.2732H238.38V66.5991H246.323V58.2732Z" fill="#73F4DB"/>
<path d="M246.323 49.9515H238.38V58.2732H246.323V49.9515Z" fill="#73F4DB"/>
<path d="M246.323 41.6255H238.38V49.9515H246.323V41.6255Z" fill="#964CC1"/>
<path d="M246.323 33.2996H238.38V41.6255H246.323V33.2996Z" fill="#964CC1"/>
<path d="M246.323 24.9736H238.38V33.2996H246.323V24.9736Z" fill="#964CC1"/>
<path d="M238.38 249.749H230.434V258.075H238.38V249.749Z" fill="#964CC1"/>
<path d="M238.38 241.427H230.434V249.749H238.38V241.427Z" fill="#964CC1"/>
<path d="M238.38 233.101H230.434V241.427H238.38V233.101Z" fill="#964CC1"/>
<path d="M238.38 224.775H230.434V233.101H238.38V224.775Z" fill="#964CC1"/>
<path d="M238.38 216.449H230.434V224.775H238.38V216.449Z" fill="#964CC1"/>
<path d="M238.38 208.128H230.434V216.449H238.38V208.128Z" fill="#964CC1"/>
<path d="M238.38 174.824H230.434V183.15H238.38V174.824Z" fill="#CB9FFF"/>
<path d="M238.38 166.502H230.434V174.824H238.38V166.502Z" fill="#CB9FFF"/>
<path d="M238.38 158.176H230.434V166.502H238.38V158.176Z" fill="#CB9FFF"/>
<path d="M238.38 149.85H230.434V158.176H238.38V149.85Z" fill="#CB9FFF"/>
<path d="M238.38 141.524H230.434V149.85H238.38V141.524Z" fill="#CB9FFF"/>
<path d="M238.38 133.198H230.434V141.524H238.38V133.198Z" fill="#CB9FFF"/>
<path d="M238.38 124.877H230.434V133.198H238.38V124.877Z" fill="#CB9FFF"/>
<path d="M238.38 116.551H230.434V124.877H238.38V116.551Z" fill="#CB9FFF"/>
<path d="M238.38 108.225H230.434V116.551H238.38V108.225Z" fill="#CB9FFF"/>
<path d="M238.38 99.8987H230.434V108.225H238.38V99.8987Z" fill="#CB9FFF"/>
<path d="M238.38 91.577H230.434V99.8987H238.38V91.577Z" fill="#CB9FFF"/>
<path d="M238.38 83.251H230.434V91.577H238.38V83.251Z" fill="#CB9FFF"/>
<path d="M238.38 74.9251H230.434V83.2511H238.38V74.9251Z" fill="#73F4DB"/>
<path d="M238.38 66.5992H230.434V74.9251H238.38V66.5992Z" fill="#73F4DB"/>
<path d="M238.38 58.2732H230.434V66.5991H238.38V58.2732Z" fill="#73F4DB"/>
<path d="M238.38 49.9515H230.434V58.2732H238.38V49.9515Z" fill="#73F4DB"/>
<path d="M238.38 41.6255H230.434V49.9515H238.38V41.6255Z" fill="#964CC1"/>
<path d="M238.38 33.2996H230.434V41.6255H238.38V33.2996Z" fill="#964CC1"/>
<path d="M238.38 24.9736H230.434V33.2996H238.38V24.9736Z" fill="#964CC1"/>
<path d="M230.434 283.053H222.487V291.374H230.434V283.053Z" fill="#964CC1"/>
<path d="M230.434 274.727H222.487V283.053H230.434V274.727Z" fill="#964CC1"/>
<path d="M230.434 266.401H222.487V274.727H230.434V266.401Z" fill="#964CC1"/>
<path d="M230.434 249.749H222.487V258.075H230.434V249.749Z" fill="#964CC1"/>
<path d="M230.434 241.427H222.487V249.749H230.434V241.427Z" fill="#964CC1"/>
<path d="M230.434 233.101H222.487V241.427H230.434V233.101Z" fill="#964CC1"/>
<path d="M230.434 224.775H222.487V233.101H230.434V224.775Z" fill="#964CC1"/>
<path d="M230.434 183.15H222.487V191.476H230.434V183.15Z" fill="#CB9FFF"/>
<path d="M230.434 174.824H222.487V183.15H230.434V174.824Z" fill="#CB9FFF"/>
<path d="M230.434 166.502H222.487V174.824H230.434V166.502Z" fill="#CB9FFF"/>
<path d="M230.434 158.176H222.487V166.502H230.434V158.176Z" fill="#CB9FFF"/>
<path d="M230.434 149.85H222.487V158.176H230.434V149.85Z" fill="#CB9FFF"/>
<path d="M230.434 141.524H222.487V149.85H230.434V141.524Z" fill="#CB9FFF"/>
<path d="M230.434 133.198H222.487V141.524H230.434V133.198Z" fill="#CB9FFF"/>
<path d="M230.434 124.877H222.487V133.198H230.434V124.877Z" fill="#CB9FFF"/>
<path d="M230.434 116.551H222.487V124.877H230.434V116.551Z" fill="#CB9FFF"/>
<path d="M230.434 108.225H222.487V116.551H230.434V108.225Z" fill="#CB9FFF"/>
<path d="M230.434 99.8987H222.487V108.225H230.434V99.8987Z" fill="#CB9FFF"/>
<path d="M230.434 91.577H222.487V99.8987H230.434V91.577Z" fill="#CB9FFF"/>
<path d="M230.434 83.251H222.487V91.577H230.434V83.251Z" fill="#CB9FFF"/>
<path d="M230.434 74.9251H222.487V83.2511H230.434V74.9251Z" fill="#CB9FFF"/>
<path d="M230.434 66.5992H222.487V74.9251H230.434V66.5992Z" fill="#73F4DB"/>
<path d="M230.434 58.2732H222.487V66.5991H230.434V58.2732Z" fill="#73F4DB"/>
<path d="M230.434 49.9515H222.487V58.2732H230.434V49.9515Z" fill="#73F4DB"/>
<path d="M230.434 41.6255H222.487V49.9515H230.434V41.6255Z" fill="#964CC1"/>
<path d="M230.434 33.2996H222.487V41.6255H230.434V33.2996Z" fill="#964CC1"/>
<path d="M230.434 24.9736H222.487V33.2996H230.434V24.9736Z" fill="#964CC1"/>
<path d="M222.487 283.053H214.54V291.374H222.487V283.053Z" fill="#964CC1"/>
<path d="M222.487 274.727H214.54V283.053H222.487V274.727Z" fill="#964CC1"/>
<path d="M222.487 266.401H214.54V274.727H222.487V266.401Z" fill="#964CC1"/>
<path d="M222.487 258.075H214.54V266.401H222.487V258.075Z" fill="#964CC1"/>
<path d="M222.487 249.749H214.54V258.075H222.487V249.749Z" fill="#7942A0"/>
<path d="M222.487 241.427H214.54V249.749H222.487V241.427Z" fill="#964CC1"/>
<path d="M222.487 233.101H214.54V241.427H222.487V233.101Z" fill="#964CC1"/>
<path d="M222.487 224.775H214.54V233.101H222.487V224.775Z" fill="#F5D141"/>
<path d="M222.487 191.476H214.54V199.802H222.487V191.476Z" fill="#CB9FFF"/>
<path d="M222.487 183.15H214.54V191.476H222.487V183.15Z" fill="#CB9FFF"/>
<path d="M222.487 174.824H214.54V183.15H222.487V174.824Z" fill="#CB9FFF"/>
<path d="M222.487 166.502H214.54V174.824H222.487V166.502Z" fill="#CB9FFF"/>
<path d="M222.487 158.176H214.54V166.502H222.487V158.176Z" fill="#CB9FFF"/>
<path d="M222.487 149.85H214.54V158.176H222.487V149.85Z" fill="#18314C"/>
<path d="M222.487 141.524H214.54V149.85H222.487V141.524Z" fill="#CB9FFF"/>
<path d="M222.487 133.198H214.54V141.524H222.487V133.198Z" fill="#CB9FFF"/>
<path d="M222.487 124.877H214.54V133.198H222.487V124.877Z" fill="#CB9FFF"/>
<path d="M222.487 116.551H214.54V124.877H222.487V116.551Z" fill="#CB9FFF"/>
<path d="M222.487 108.225H214.54V116.551H222.487V108.225Z" fill="#CB9FFF"/>
<path d="M222.487 99.8987H214.54V108.225H222.487V99.8987Z" fill="#CB9FFF"/>
<path d="M222.487 91.577H214.54V99.8987H222.487V91.577Z" fill="#CB9FFF"/>
<path d="M222.487 83.251H214.54V91.577H222.487V83.251Z" fill="#CB9FFF"/>
<path d="M222.487 74.9251H214.54V83.2511H222.487V74.9251Z" fill="#CB9FFF"/>
<path d="M222.487 66.5992H214.54V74.9251H222.487V66.5992Z" fill="#CB9FFF"/>
<path d="M222.487 58.2732H214.54V66.5991H222.487V58.2732Z" fill="#73F4DB"/>
<path d="M222.487 49.9515H214.54V58.2732H222.487V49.9515Z" fill="#964CC1"/>
<path d="M222.487 41.6255H214.54V49.9515H222.487V41.6255Z" fill="#964CC1"/>
<path d="M222.487 33.2996H214.54V41.6255H222.487V33.2996Z" fill="#964CC1"/>
<path d="M214.54 283.053H206.597V291.374H214.54V283.053Z" fill="#964CC1"/>
<path d="M214.54 274.727H206.597V283.053H214.54V274.727Z" fill="#964CC1"/>
<path d="M214.54 266.401H206.597V274.727H214.54V266.401Z" fill="#964CC1"/>
<path d="M214.54 258.075H206.597V266.401H214.54V258.075Z" fill="#964CC1"/>
<path d="M214.54 249.749H206.597V258.075H214.54V249.749Z" fill="#7942A0"/>
<path d="M214.54 241.427H206.597V249.749H214.54V241.427Z" fill="#7942A0"/>
<path d="M214.54 233.101H206.597V241.427H214.54V233.101Z" fill="#F5D141"/>
<path d="M214.54 224.775H206.597V233.101H214.54V224.775Z" fill="#CB9FFF"/>
<path d="M214.54 216.449H206.597V224.775H214.54V216.449Z" fill="#F5D141"/>
<path d="M214.54 191.476H206.597V199.802H214.54V191.476Z" fill="#CB9FFF"/>
<path d="M214.54 183.15H206.597V191.476H214.54V183.15Z" fill="#CB9FFF"/>
<path d="M214.54 174.824H206.597V183.15H214.54V174.824Z" fill="#CB9FFF"/>
<path d="M214.54 166.502H206.597V174.824H214.54V166.502Z" fill="#18314C"/>
<path d="M214.54 158.176H206.597V166.502H214.54V158.176Z" fill="#CB9FFF"/>
<path d="M214.54 149.85H206.597V158.176H214.54V149.85Z" fill="#18314C"/>
<path d="M214.54 141.524H206.597V149.85H214.54V141.524Z" fill="#CB9FFF"/>
<path d="M214.54 133.198H206.597V141.524H214.54V133.198Z" fill="#18314C"/>
<path d="M214.54 124.877H206.597V133.198H214.54V124.877Z" fill="#CB9FFF"/>
<path d="M214.54 116.551H206.597V124.877H214.54V116.551Z" fill="#CB9FFF"/>
<path d="M214.54 108.225H206.597V116.551H214.54V108.225Z" fill="#CB9FFF"/>
<path d="M214.54 99.8987H206.597V108.225H214.54V99.8987Z" fill="#CB9FFF"/>
<path d="M214.54 91.577H206.597V99.8987H214.54V91.577Z" fill="#CB9FFF"/>
<path d="M214.54 83.251H206.597V91.577H214.54V83.251Z" fill="#CB9FFF"/>
<path d="M214.54 74.9251H206.597V83.2511H214.54V74.9251Z" fill="#CB9FFF"/>
<path d="M214.54 66.5992H206.597V74.9251H214.54V66.5992Z" fill="#CB9FFF"/>
<path d="M214.54 58.2732H206.597V66.5991H214.54V58.2732Z" fill="#964CC1"/>
<path d="M214.54 49.9515H206.597V58.2732H214.54V49.9515Z" fill="#964CC1"/>
<path d="M214.54 41.6255H206.597V49.9515H214.54V41.6255Z" fill="#964CC1"/>
<path d="M214.54 33.2996H206.597V41.6255H214.54V33.2996Z" fill="#964CC1"/>
<path d="M206.597 274.727H198.65V283.053H206.597V274.727Z" fill="#964CC1"/>
<path d="M206.597 266.401H198.65V274.727H206.597V266.401Z" fill="#964CC1"/>
<path d="M206.597 258.075H198.65V266.401H206.597V258.075Z" fill="#7942A0"/>
<path d="M206.597 249.749H198.65V258.075H206.597V249.749Z" fill="#7942A0"/>
<path d="M206.597 241.427H198.65V249.749H206.597V241.427Z" fill="#CB9FFF"/>
<path d="M206.597 233.101H198.65V241.427H206.597V233.101Z" fill="#CB9FFF"/>
<path d="M206.597 224.775H198.65V233.101H206.597V224.775Z" fill="#F5D141"/>
<path d="M206.597 216.449H198.65V224.775H206.597V216.449Z" fill="#CB9FFF"/>
<path d="M206.597 208.128H198.65V216.449H206.597V208.128Z" fill="#CB9FFF"/>
<path d="M206.597 199.802H198.65V208.128H206.597V199.802Z" fill="#CB9FFF"/>
<path d="M206.597 191.476H198.65V199.802H206.597V191.476Z" fill="#CB9FFF"/>
<path d="M206.597 183.15H198.65V191.476H206.597V183.15Z" fill="#CB9FFF"/>
<path d="M206.597 174.824H198.65V183.15H206.597V174.824Z" fill="#CB9FFF"/>
<path d="M206.597 166.502H198.65V174.824H206.597V166.502Z" fill="#CB9FFF"/>
<path d="M206.597 158.176H198.65V166.502H206.597V158.176Z" fill="#18314C"/>
<path d="M206.597 149.85H198.65V158.176H206.597V149.85Z" fill="#73F4DB"/>
<path d="M206.597 141.524H198.65V149.85H206.597V141.524Z" fill="#18314C"/>
<path d="M206.597 133.198H198.65V141.524H206.597V133.198Z" fill="#CB9FFF"/>
<path d="M206.597 124.877H198.65V133.198H206.597V124.877Z" fill="#CB9FFF"/>
<path d="M206.597 116.551H198.65V124.877H206.597V116.551Z" fill="#CB9FFF"/>
<path d="M206.597 108.225H198.65V116.551H206.597V108.225Z" fill="#CB9FFF"/>
<path d="M206.597 99.8987H198.65V108.225H206.597V99.8987Z" fill="#CB9FFF"/>
<path d="M206.597 91.577H198.65V99.8987H206.597V91.577Z" fill="#CB9FFF"/>
<path d="M206.597 83.251H198.65V91.577H206.597V83.251Z" fill="#CB9FFF"/>
<path d="M206.597 74.9251H198.65V83.2511H206.597V74.9251Z" fill="#CB9FFF"/>
<path d="M206.597 66.5992H198.65V74.9251H206.597V66.5992Z" fill="#CB9FFF"/>
<path d="M206.597 58.2732H198.65V66.5991H206.597V58.2732Z" fill="#CB9FFF"/>
<path d="M206.597 49.9515H198.65V58.2732H206.597V49.9515Z" fill="#964CC1"/>
<path d="M206.597 41.6255H198.65V49.9515H206.597V41.6255Z" fill="#964CC1"/>
<path d="M206.597 33.2996H198.65V41.6255H206.597V33.2996Z" fill="#964CC1"/>
<path d="M198.65 266.401H190.704V274.727H198.65V266.401Z" fill="#7942A0"/>
<path d="M198.65 258.075H190.704V266.401H198.65V258.075Z" fill="#CB9FFF"/>
<path d="M198.65 249.749H190.704V258.075H198.65V249.749Z" fill="#CB9FFF"/>
<path d="M198.65 241.427H190.704V249.749H198.65V241.427Z" fill="#CB9FFF"/>
<path d="M198.65 233.101H190.704V241.427H198.65V233.101Z" fill="#CB9FFF"/>
<path d="M198.65 224.775H190.704V233.101H198.65V224.775Z" fill="#CB9FFF"/>
<path d="M198.65 216.449H190.704V224.775H198.65V216.449Z" fill="#CB9FFF"/>
<path d="M198.65 208.128H190.704V216.449H198.65V208.128Z" fill="#CB9FFF"/>
<path d="M198.65 199.802H190.704V208.128H198.65V199.802Z" fill="#CB9FFF"/>
<path d="M198.65 191.476H190.704V199.802H198.65V191.476Z" fill="#CB9FFF"/>
<path d="M198.65 183.15H190.704V191.476H198.65V183.15Z" fill="#CB9FFF"/>
<path d="M198.65 174.824H190.704V183.15H198.65V174.824Z" fill="#CB9FFF"/>
<path d="M198.65 166.502H190.704V174.824H198.65V166.502Z" fill="#73F4DB"/>
<path d="M198.65 158.176H190.704V166.502H198.65V158.176Z" fill="#73F4DB"/>
<path d="M198.65 149.85H190.704V158.176H198.65V149.85Z" fill="#42F49B"/>
<path d="M198.65 141.524H190.704V149.85H198.65V141.524Z" fill="#73F4DB"/>
<path d="M198.65 133.198H190.704V141.524H198.65V133.198Z" fill="#CB9FFF"/>
<path d="M198.65 124.877H190.704V133.198H198.65V124.877Z" fill="#CB9FFF"/>
<path d="M198.65 116.551H190.704V124.877H198.65V116.551Z" fill="#CB9FFF"/>
<path d="M198.65 108.225H190.704V116.551H198.65V108.225Z" fill="#CB9FFF"/>
<path d="M198.65 99.8987H190.704V108.225H198.65V99.8987Z" fill="#18314C"/>
<path d="M198.65 91.577H190.704V99.8987H198.65V91.577Z" fill="#CB9FFF"/>
<path d="M198.65 83.251H190.704V91.577H198.65V83.251Z" fill="#CB9FFF"/>
<path d="M198.65 74.9251H190.704V83.2511H198.65V74.9251Z" fill="#CB9FFF"/>
<path d="M198.65 66.5992H190.704V74.9251H198.65V66.5992Z" fill="#CB9FFF"/>
<path d="M198.65 58.2732H190.704V66.5991H198.65V58.2732Z" fill="#CB9FFF"/>
<path d="M198.65 49.9515H190.704V58.2732H198.65V49.9515Z" fill="#CB9FFF"/>
<path d="M198.65 41.6255H190.704V49.9515H198.65V41.6255Z" fill="#964CC1"/>
<path d="M190.704 266.401H182.757V274.727H190.704V266.401Z" fill="#CB9FFF"/>
<path d="M190.704 258.075H182.757V266.401H190.704V258.075Z" fill="#CB9FFF"/>
<path d="M190.704 249.749H182.757V258.075H190.704V249.749Z" fill="#CB9FFF"/>
<path d="M190.704 241.427H182.757V249.749H190.704V241.427Z" fill="#CB9FFF"/>
<path d="M190.704 233.101H182.757V241.427H190.704V233.101Z" fill="#CB9FFF"/>
<path d="M190.704 224.775H182.757V233.101H190.704V224.775Z" fill="#CB9FFF"/>
<path d="M190.704 216.449H182.757V224.775H190.704V216.449Z" fill="#CB9FFF"/>
<path d="M190.704 208.128H182.757V216.449H190.704V208.128Z" fill="#CB9FFF"/>
<path d="M190.704 199.802H182.757V208.128H190.704V199.802Z" fill="#CB9FFF"/>
<path d="M190.704 191.476H182.757V199.802H190.704V191.476Z" fill="#CB9FFF"/>
<path d="M190.704 183.15H182.757V191.476H190.704V183.15Z" fill="#CB9FFF"/>
<path d="M190.704 174.824H182.757V183.15H190.704V174.824Z" fill="#CB9FFF"/>
<path d="M190.704 166.502H182.757V174.824H190.704V166.502Z" fill="#73F4DB"/>
<path d="M190.704 158.176H182.757V166.502H190.704V158.176Z" fill="#42F49B"/>
<path d="M190.704 149.85H182.757V158.176H190.704V149.85Z" fill="#42F49B"/>
<path d="M190.704 141.524H182.757V149.85H190.704V141.524Z" fill="#3CBC79"/>
<path d="M190.704 133.198H182.757V141.524H190.704V133.198Z" fill="#18314C"/>
<path d="M190.704 124.877H182.757V133.198H190.704V124.877Z" fill="#18314C"/>
<path d="M190.704 116.551H182.757V124.877H190.704V116.551Z" fill="#18314C"/>
<path d="M190.704 108.225H182.757V116.551H190.704V108.225Z" fill="#CB9FFF"/>
<path d="M190.704 99.8987H182.757V108.225H190.704V99.8987Z" fill="#18314C"/>
<path d="M190.704 91.577H182.757V99.8987H190.704V91.577Z" fill="#CB9FFF"/>
<path d="M190.704 83.251H182.757V91.577H190.704V83.251Z" fill="#CB9FFF"/>
<path d="M190.704 74.9251H182.757V83.2511H190.704V74.9251Z" fill="#CB9FFF"/>
<path d="M190.704 66.5992H182.757V74.9251H190.704V66.5992Z" fill="#CB9FFF"/>
<path d="M190.704 58.2732H182.757V66.5991H190.704V58.2732Z" fill="#CB9FFF"/>
<path d="M190.704 49.9515H182.757V58.2732H190.704V49.9515Z" fill="#CB9FFF"/>
<path d="M182.757 316.352H174.81V324.674H182.757V316.352Z" fill="#964CC1"/>
<path d="M182.757 308.026H174.81V316.352H182.757V308.026Z" fill="#964CC1"/>
<path d="M182.757 299.7H174.81V308.026H182.757V299.7Z" fill="#964CC1"/>
<path d="M182.757 291.375H174.81V299.7H182.757V291.375Z" fill="#964CC1"/>
<path d="M182.757 283.053H174.81V291.374H182.757V283.053Z" fill="#7942A0"/>
<path d="M182.757 274.727H174.81V283.053H182.757V274.727Z" fill="#CB9FFF"/>
<path d="M182.757 266.401H174.81V274.727H182.757V266.401Z" fill="#CB9FFF"/>
<path d="M182.757 258.075H174.81V266.401H182.757V258.075Z" fill="#CB9FFF"/>
<path d="M182.757 249.749H174.81V258.075H182.757V249.749Z" fill="#CB9FFF"/>
<path d="M182.757 241.427H174.81V249.749H182.757V241.427Z" fill="#CB9FFF"/>
<path d="M182.757 233.101H174.81V241.427H182.757V233.101Z" fill="#CB9FFF"/>
<path d="M182.757 224.775H174.81V233.101H182.757V224.775Z" fill="#CB9FFF"/>
<path d="M182.757 216.449H174.81V224.775H182.757V216.449Z" fill="#CB9FFF"/>
<path d="M182.757 208.128H174.81V216.449H182.757V208.128Z" fill="#CB9FFF"/>
<path d="M182.757 199.802H174.81V208.128H182.757V199.802Z" fill="#CB9FFF"/>
<path d="M182.757 191.476H174.81V199.802H182.757V191.476Z" fill="#CB9FFF"/>
<path d="M182.757 183.15H174.81V191.476H182.757V183.15Z" fill="#CB9FFF"/>
<path d="M182.757 174.824H174.81V183.15H182.757V174.824Z" fill="#CB9FFF"/>
<path d="M182.757 166.502H174.81V174.824H182.757V166.502Z" fill="#CB9FFF"/>
<path d="M182.757 158.176H174.81V166.502H182.757V158.176Z" fill="#73F4DB"/>
<path d="M182.757 149.85H174.81V158.176H182.757V149.85Z" fill="#3CBC79"/>
<path d="M182.757 141.524H174.81V149.85H182.757V141.524Z" fill="#CB9FFF"/>
<path d="M182.757 133.198H174.81V141.524H182.757V133.198Z" fill="#18314C"/>
<path d="M182.757 124.877H174.81V133.198H182.757V124.877Z" fill="#18314C"/>
<path d="M182.757 116.551H174.81V124.877H182.757V116.551Z" fill="#DEE2E5"/>
<path d="M182.757 108.225H174.81V116.551H182.757V108.225Z" fill="#CB9FFF"/>
<path d="M182.757 99.8987H174.81V108.225H182.757V99.8987Z" fill="#CB9FFF"/>
<path d="M182.757 91.577H174.81V99.8987H182.757V91.577Z" fill="#18314C"/>
<path d="M182.757 83.251H174.81V91.577H182.757V83.251Z" fill="#CB9FFF"/>
<path d="M182.757 74.9251H174.81V83.2511H182.757V74.9251Z" fill="#CB9FFF"/>
<path d="M182.757 66.5992H174.81V74.9251H182.757V66.5992Z" fill="#CB9FFF"/>
<path d="M182.757 58.2732H174.81V66.5991H182.757V58.2732Z" fill="#CB9FFF"/>
<path d="M182.757 49.9515H174.81V58.2732H182.757V49.9515Z" fill="#CB9FFF"/>
<path d="M182.757 33.2996H174.81V41.6255H182.757V33.2996Z" fill="#F5D141"/>
<path d="M174.81 324.674H166.867V333H174.81V324.674Z" fill="#964CC1"/>
<path d="M174.81 316.352H166.867V324.674H174.81V316.352Z" fill="#964CC1"/>
<path d="M174.81 308.026H166.867V316.352H174.81V308.026Z" fill="#964CC1"/>
<path d="M174.81 299.7H166.867V308.026H174.81V299.7Z" fill="#964CC1"/>
<path d="M174.81 291.375H166.867V299.7H174.81V291.375Z" fill="#7942A0"/>
<path d="M174.81 283.053H166.867V291.374H174.81V283.053Z" fill="#7942A0"/>
<path d="M174.81 274.727H166.867V283.053H174.81V274.727Z" fill="#CB9FFF"/>
<path d="M174.81 266.401H166.867V274.727H174.81V266.401Z" fill="#CB9FFF"/>
<path d="M174.81 258.075H166.867V266.401H174.81V258.075Z" fill="#CB9FFF"/>
<path d="M174.81 249.749H166.867V258.075H174.81V249.749Z" fill="#CB9FFF"/>
<path d="M174.81 241.427H166.867V249.749H174.81V241.427Z" fill="#CB9FFF"/>
<path d="M174.81 233.101H166.867V241.427H174.81V233.101Z" fill="#CB9FFF"/>
<path d="M174.81 224.775H166.867V233.101H174.81V224.775Z" fill="#CB9FFF"/>
<path d="M174.81 216.449H166.867V224.775H174.81V216.449Z" fill="#CB9FFF"/>
<path d="M174.81 208.128H166.867V216.449H174.81V208.128Z" fill="#CB9FFF"/>
<path d="M174.81 199.802H166.867V208.128H174.81V199.802Z" fill="#CB9FFF"/>
<path d="M174.81 191.476H166.867V199.802H174.81V191.476Z" fill="#CB9FFF"/>
<path d="M174.81 183.15H166.867V191.476H174.81V183.15Z" fill="#CB9FFF"/>
<path d="M174.81 174.824H166.867V183.15H174.81V174.824Z" fill="#CB9FFF"/>
<path d="M174.81 166.502H166.867V174.824H174.81V166.502Z" fill="#CB9FFF"/>
<path d="M174.81 158.176H166.867V166.502H174.81V158.176Z" fill="#CB9FFF"/>
<path d="M174.81 149.85H166.867V158.176H174.81V149.85Z" fill="#CB9FFF"/>
<path d="M174.81 141.524H166.867V149.85H174.81V141.524Z" fill="#CB9FFF"/>
<path d="M174.81 133.198H166.867V141.524H174.81V133.198Z" fill="#CB9FFF"/>
<path d="M174.81 124.877H166.867V133.198H174.81V124.877Z" fill="#CB9FFF"/>
<path d="M174.81 116.551H166.867V124.877H174.81V116.551Z" fill="#CB9FFF"/>
<path d="M174.81 108.225H166.867V116.551H174.81V108.225Z" fill="#CB9FFF"/>
<path d="M174.81 99.8987H166.867V108.225H174.81V99.8987Z" fill="#CB9FFF"/>
<path d="M174.81 91.577H166.867V99.8987H174.81V91.577Z" fill="#CB9FFF"/>
<path d="M174.81 83.251H166.867V91.577H174.81V83.251Z" fill="#CB9FFF"/>
<path d="M174.81 74.9251H166.867V83.2511H174.81V74.9251Z" fill="#CB9FFF"/>
<path d="M174.81 66.5992H166.867V74.9251H174.81V66.5992Z" fill="#CB9FFF"/>
<path d="M174.81 58.2732H166.867V66.5991H174.81V58.2732Z" fill="#CB9FFF"/>
<path d="M174.81 49.9515H166.867V58.2732H174.81V49.9515Z" fill="#CB9FFF"/>
<path d="M174.81 41.6255H166.867V49.9515H174.81V41.6255Z" fill="#F5D141"/>
<path d="M174.81 24.9736H166.867V33.2996H174.81V24.9736Z" fill="#F5D141"/>
<path d="M166.867 324.674H158.92V333H166.867V324.674Z" fill="#964CC1"/>
<path d="M166.867 316.352H158.92V324.674H166.867V316.352Z" fill="#964CC1"/>
<path d="M166.867 308.026H158.92V316.352H166.867V308.026Z" fill="#964CC1"/>
<path d="M166.867 299.7H158.92V308.026H166.867V299.7Z" fill="#964CC1"/>
<path d="M166.867 291.375H158.92V299.7H166.867V291.375Z" fill="#7942A0"/>
<path d="M166.867 283.053H158.92V291.374H166.867V283.053Z" fill="#CB9FFF"/>
<path d="M166.867 274.727H158.92V283.053H166.867V274.727Z" fill="#CB9FFF"/>
<path d="M166.867 266.401H158.92V274.727H166.867V266.401Z" fill="#CB9FFF"/>
<path d="M166.867 258.075H158.92V266.401H166.867V258.075Z" fill="#CB9FFF"/>
<path d="M166.867 249.749H158.92V258.075H166.867V249.749Z" fill="#CB9FFF"/>
<path d="M166.867 241.427H158.92V249.749H166.867V241.427Z" fill="#CB9FFF"/>
<path d="M166.867 233.101H158.92V241.427H166.867V233.101Z" fill="#CB9FFF"/>
<path d="M166.867 224.775H158.92V233.101H166.867V224.775Z" fill="#CB9FFF"/>
<path d="M166.867 216.449H158.92V224.775H166.867V216.449Z" fill="#CB9FFF"/>
<path d="M166.867 208.128H158.92V216.449H166.867V208.128Z" fill="#CB9FFF"/>
<path d="M166.867 199.802H158.92V208.128H166.867V199.802Z" fill="#CB9FFF"/>
<path d="M166.867 191.476H158.92V199.802H166.867V191.476Z" fill="#CB9FFF"/>
<path d="M166.867 183.15H158.92V191.476H166.867V183.15Z" fill="#CB9FFF"/>
<path d="M166.867 174.824H158.92V183.15H166.867V174.824Z" fill="#CB9FFF"/>
<path d="M166.867 166.502H158.92V174.824H166.867V166.502Z" fill="#CB9FFF"/>
<path d="M166.867 158.176H158.92V166.502H166.867V158.176Z" fill="#CB9FFF"/>
<path d="M166.867 149.85H158.92V158.176H166.867V149.85Z" fill="#CB9FFF"/>
<path d="M166.867 141.524H158.92V149.85H166.867V141.524Z" fill="#CB9FFF"/>
<path d="M166.867 133.198H158.92V141.524H166.867V133.198Z" fill="#CB9FFF"/>
<path d="M166.867 124.877H158.92V133.198H166.867V124.877Z" fill="#CB9FFF"/>
<path d="M166.867 116.551H158.92V124.877H166.867V116.551Z" fill="#CB9FFF"/>
<path d="M166.867 108.225H158.92V116.551H166.867V108.225Z" fill="#CB9FFF"/>
<path d="M166.867 99.8987H158.92V108.225H166.867V99.8987Z" fill="#CB9FFF"/>
<path d="M166.867 91.577H158.92V99.8987H166.867V91.577Z" fill="#CB9FFF"/>
<path d="M166.867 83.251H158.92V91.577H166.867V83.251Z" fill="#CB9FFF"/>
<path d="M166.867 74.9251H158.92V83.2511H166.867V74.9251Z" fill="#CB9FFF"/>
<path d="M166.867 66.5992H158.92V74.9251H166.867V66.5992Z" fill="#CB9FFF"/>
<path d="M166.867 58.2732H158.92V66.5991H166.867V58.2732Z" fill="#CB9FFF"/>
<path d="M166.867 49.9515H158.92V58.2732H166.867V49.9515Z" fill="#CB9FFF"/>
<path d="M166.867 41.6255H158.92V49.9515H166.867V41.6255Z" fill="#CB9FFF"/>
<path d="M166.867 33.2996H158.92V41.6255H166.867V33.2996Z" fill="#F5D141"/>
<path d="M158.92 324.674H150.974V333H158.92V324.674Z" fill="#964CC1"/>
<path d="M158.92 316.352H150.974V324.674H158.92V316.352Z" fill="#964CC1"/>
<path d="M158.92 308.026H150.974V316.352H158.92V308.026Z" fill="#964CC1"/>
<path d="M158.92 299.7H150.974V308.026H158.92V299.7Z" fill="#964CC1"/>
<path d="M158.92 291.375H150.974V299.7H158.92V291.375Z" fill="#7942A0"/>
<path d="M158.92 283.053H150.974V291.374H158.92V283.053Z" fill="#CB9FFF"/>
<path d="M158.92 274.727H150.974V283.053H158.92V274.727Z" fill="#CB9FFF"/>
<path d="M158.92 266.401H150.974V274.727H158.92V266.401Z" fill="#CB9FFF"/>
<path d="M158.92 258.075H150.974V266.401H158.92V258.075Z" fill="#CB9FFF"/>
<path d="M158.92 249.749H150.974V258.075H158.92V249.749Z" fill="#CB9FFF"/>
<path d="M158.92 241.427H150.974V249.749H158.92V241.427Z" fill="#CB9FFF"/>
<path d="M158.92 233.101H150.974V241.427H158.92V233.101Z" fill="#CB9FFF"/>
<path d="M158.92 224.775H150.974V233.101H158.92V224.775Z" fill="#CB9FFF"/>
<path d="M158.92 216.449H150.974V224.775H158.92V216.449Z" fill="#CB9FFF"/>
<path d="M158.92 208.128H150.974V216.449H158.92V208.128Z" fill="#CB9FFF"/>
<path d="M158.92 199.802H150.974V208.128H158.92V199.802Z" fill="#CB9FFF"/>
<path d="M158.92 191.476H150.974V199.802H158.92V191.476Z" fill="#CB9FFF"/>
<path d="M158.92 183.15H150.974V191.476H158.92V183.15Z" fill="#CB9FFF"/>
<path d="M158.92 174.824H150.974V183.15H158.92V174.824Z" fill="#CB9FFF"/>
<path d="M158.92 166.502H150.974V174.824H158.92V166.502Z" fill="#CB9FFF"/>
<path d="M158.92 158.176H150.974V166.502H158.92V158.176Z" fill="#CB9FFF"/>
<path d="M158.92 149.85H150.974V158.176H158.92V149.85Z" fill="#CB9FFF"/>
<path d="M158.92 141.524H150.974V149.85H158.92V141.524Z" fill="#CB9FFF"/>
<path d="M158.92 133.198H150.974V141.524H158.92V133.198Z" fill="#CB9FFF"/>
<path d="M158.92 124.877H150.974V133.198H158.92V124.877Z" fill="#CB9FFF"/>
<path d="M158.92 116.551H150.974V124.877H158.92V116.551Z" fill="#CB9FFF"/>
<path d="M158.92 108.225H150.974V116.551H158.92V108.225Z" fill="#CB9FFF"/>
<path d="M158.92 99.8987H150.974V108.225H158.92V99.8987Z" fill="#CB9FFF"/>
<path d="M158.92 91.577H150.974V99.8987H158.92V91.577Z" fill="#CB9FFF"/>
<path d="M158.92 83.251H150.974V91.577H158.92V83.251Z" fill="#CB9FFF"/>
<path d="M158.92 74.9251H150.974V83.2511H158.92V74.9251Z" fill="#CB9FFF"/>
<path d="M158.92 66.5992H150.974V74.9251H158.92V66.5992Z" fill="#CB9FFF"/>
<path d="M158.92 58.2732H150.974V66.5991H158.92V58.2732Z" fill="#CB9FFF"/>
<path d="M158.92 49.9515H150.974V58.2732H158.92V49.9515Z" fill="#CB9FFF"/>
<path d="M158.92 41.6255H150.974V49.9515H158.92V41.6255Z" fill="#CB9FFF"/>
<path d="M150.973 283.053H143.026V291.374H150.973V283.053Z" fill="#CB9FFF"/>
<path d="M150.973 274.727H143.026V283.053H150.973V274.727Z" fill="#CB9FFF"/>
<path d="M150.973 266.401H143.026V274.727H150.973V266.401Z" fill="#CB9FFF"/>
<path d="M150.973 258.075H143.026V266.401H150.973V258.075Z" fill="#CB9FFF"/>
<path d="M150.973 249.749H143.026V258.075H150.973V249.749Z" fill="#CB9FFF"/>
<path d="M150.973 241.427H143.026V249.749H150.973V241.427Z" fill="#CB9FFF"/>
<path d="M150.973 233.101H143.026V241.427H150.973V233.101Z" fill="#CB9FFF"/>
<path d="M150.973 224.775H143.026V233.101H150.973V224.775Z" fill="#CB9FFF"/>
<path d="M150.973 216.449H143.026V224.775H150.973V216.449Z" fill="#CB9FFF"/>
<path d="M150.973 208.128H143.026V216.449H150.973V208.128Z" fill="#CB9FFF"/>
<path d="M150.973 199.802H143.026V208.128H150.973V199.802Z" fill="#CB9FFF"/>
<path d="M150.973 191.476H143.026V199.802H150.973V191.476Z" fill="#CB9FFF"/>
<path d="M150.973 183.15H143.026V191.476H150.973V183.15Z" fill="#CB9FFF"/>
<path d="M150.973 174.824H143.026V183.15H150.973V174.824Z" fill="#CB9FFF"/>
<path d="M150.973 166.502H143.026V174.824H150.973V166.502Z" fill="#CB9FFF"/>
<path d="M150.973 158.176H143.026V166.502H150.973V158.176Z" fill="#CB9FFF"/>
<path d="M150.973 149.85H143.026V158.176H150.973V149.85Z" fill="#CB9FFF"/>
<path d="M150.973 141.524H143.026V149.85H150.973V141.524Z" fill="#73F4DB"/>
<path d="M150.973 133.198H143.026V141.524H150.973V133.198Z" fill="#73F4DB"/>
<path d="M150.973 124.877H143.026V133.198H150.973V124.877Z" fill="#CB9FFF"/>
<path d="M150.973 116.551H143.026V124.877H150.973V116.551Z" fill="#CB9FFF"/>
<path d="M150.973 108.225H143.026V116.551H150.973V108.225Z" fill="#CB9FFF"/>
<path d="M150.973 99.8987H143.026V108.225H150.973V99.8987Z" fill="#CB9FFF"/>
<path d="M150.973 91.577H143.026V99.8987H150.973V91.577Z" fill="#CB9FFF"/>
<path d="M150.973 83.251H143.026V91.577H150.973V83.251Z" fill="#CB9FFF"/>
<path d="M150.973 74.9251H143.026V83.2511H150.973V74.9251Z" fill="#CB9FFF"/>
<path d="M150.973 66.5992H143.026V74.9251H150.973V66.5992Z" fill="#CB9FFF"/>
<path d="M150.973 58.2732H143.026V66.5991H150.973V58.2732Z" fill="#CB9FFF"/>
<path d="M150.973 49.9515H143.026V58.2732H150.973V49.9515Z" fill="#CB9FFF"/>
<path d="M150.973 41.6255H143.026V49.9515H150.973V41.6255Z" fill="#CB9FFF"/>
<path d="M150.973 8.32596H143.026V16.6477H150.973V8.32596Z" fill="#F5D141"/>
<path d="M143.026 283.053H135.08V291.374H143.026V283.053Z" fill="#CB9FFF"/>
<path d="M143.026 274.727H135.08V283.053H143.026V274.727Z" fill="#CB9FFF"/>
<path d="M143.026 266.401H135.08V274.727H143.026V266.401Z" fill="#CB9FFF"/>
<path d="M143.026 258.075H135.08V266.401H143.026V258.075Z" fill="#CB9FFF"/>
<path d="M143.026 249.749H135.08V258.075H143.026V249.749Z" fill="#CB9FFF"/>
<path d="M143.026 241.427H135.08V249.749H143.026V241.427Z" fill="#CB9FFF"/>
<path d="M143.026 233.101H135.08V241.427H143.026V233.101Z" fill="#CB9FFF"/>
<path d="M143.026 224.775H135.08V233.101H143.026V224.775Z" fill="#CB9FFF"/>
<path d="M143.026 216.449H135.08V224.775H143.026V216.449Z" fill="#CB9FFF"/>
<path d="M143.026 208.128H135.08V216.449H143.026V208.128Z" fill="#CB9FFF"/>
<path d="M143.026 199.802H135.08V208.128H143.026V199.802Z" fill="#CB9FFF"/>
<path d="M143.026 191.476H135.08V199.802H143.026V191.476Z" fill="#CB9FFF"/>
<path d="M143.026 183.15H135.08V191.476H143.026V183.15Z" fill="#CB9FFF"/>
<path d="M143.026 174.824H135.08V183.15H143.026V174.824Z" fill="#CB9FFF"/>
<path d="M143.026 166.502H135.08V174.824H143.026V166.502Z" fill="#CB9FFF"/>
<path d="M143.026 158.176H135.08V166.502H143.026V158.176Z" fill="#CB9FFF"/>
<path d="M143.026 149.85H135.08V158.176H143.026V149.85Z" fill="#CB9FFF"/>
<path d="M143.026 141.524H135.08V149.85H143.026V141.524Z" fill="#73F4DB"/>
<path d="M143.026 133.198H135.08V141.524H143.026V133.198Z" fill="#73F4DB"/>
<path d="M143.026 124.877H135.08V133.198H143.026V124.877Z" fill="#CB9FFF"/>
<path d="M143.026 116.551H135.08V124.877H143.026V116.551Z" fill="#CB9FFF"/>
<path d="M143.026 108.225H135.08V116.551H143.026V108.225Z" fill="#CB9FFF"/>
<path d="M143.026 99.8987H135.08V108.225H143.026V99.8987Z" fill="#CB9FFF"/>
<path d="M143.026 91.577H135.08V99.8987H143.026V91.577Z" fill="#CB9FFF"/>
<path d="M143.026 83.251H135.08V91.577H143.026V83.251Z" fill="#CB9FFF"/>
<path d="M143.026 74.9251H135.08V83.2511H143.026V74.9251Z" fill="#CB9FFF"/>
<path d="M143.026 66.5992H135.08V74.9251H143.026V66.5992Z" fill="#CB9FFF"/>
<path d="M143.026 58.2732H135.08V66.5991H143.026V58.2732Z" fill="#CB9FFF"/>
<path d="M143.026 49.9515H135.08V58.2732H143.026V49.9515Z" fill="#CB9FFF"/>
<path d="M143.026 41.6255H135.08V49.9515H143.026V41.6255Z" fill="#CB9FFF"/>
<path d="M143.026 16.6477H135.08V24.9736H143.026V16.6477Z" fill="#F5D141"/>
<path d="M143.026 0H135.08V8.32596H143.026V0Z" fill="#F5D141"/>
<path d="M135.08 283.053H127.137V291.374H135.08V283.053Z" fill="#CB9FFF"/>
<path d="M135.08 274.727H127.137V283.053H135.08V274.727Z" fill="#CB9FFF"/>
<path d="M135.08 266.401H127.137V274.727H135.08V266.401Z" fill="#CB9FFF"/>
<path d="M135.08 258.075H127.137V266.401H135.08V258.075Z" fill="#CB9FFF"/>
<path d="M135.08 249.749H127.137V258.075H135.08V249.749Z" fill="#CB9FFF"/>
<path d="M135.08 241.427H127.137V249.749H135.08V241.427Z" fill="#CB9FFF"/>
<path d="M135.08 233.101H127.137V241.427H135.08V233.101Z" fill="#CB9FFF"/>
<path d="M135.08 224.775H127.137V233.101H135.08V224.775Z" fill="#CB9FFF"/>
<path d="M135.08 216.449H127.137V224.775H135.08V216.449Z" fill="#CB9FFF"/>
<path d="M135.08 208.128H127.137V216.449H135.08V208.128Z" fill="#CB9FFF"/>
<path d="M135.08 199.802H127.137V208.128H135.08V199.802Z" fill="#CB9FFF"/>
<path d="M135.08 191.476H127.137V199.802H135.08V191.476Z" fill="#CB9FFF"/>
<path d="M135.08 183.15H127.137V191.476H135.08V183.15Z" fill="#CB9FFF"/>
<path d="M135.08 174.824H127.137V183.15H135.08V174.824Z" fill="#CB9FFF"/>
<path d="M135.08 166.502H127.137V174.824H135.08V166.502Z" fill="#CB9FFF"/>
<path d="M135.08 158.176H127.137V166.502H135.08V158.176Z" fill="#CB9FFF"/>
<path d="M135.08 149.85H127.137V158.176H135.08V149.85Z" fill="#CB9FFF"/>
<path d="M135.08 141.524H127.137V149.85H135.08V141.524Z" fill="#73F4DB"/>
<path d="M135.08 133.198H127.137V141.524H135.08V133.198Z" fill="#73F4DB"/>
<path d="M135.08 124.877H127.137V133.198H135.08V124.877Z" fill="#CB9FFF"/>
<path d="M135.08 116.551H127.137V124.877H135.08V116.551Z" fill="#CB9FFF"/>
<path d="M135.08 108.225H127.137V116.551H135.08V108.225Z" fill="#CB9FFF"/>
<path d="M135.08 99.8987H127.137V108.225H135.08V99.8987Z" fill="#CB9FFF"/>
<path d="M135.08 91.577H127.137V99.8987H135.08V91.577Z" fill="#CB9FFF"/>
<path d="M135.08 83.251H127.137V91.577H135.08V83.251Z" fill="#CB9FFF"/>
<path d="M135.08 74.9251H127.137V83.2511H135.08V74.9251Z" fill="#CB9FFF"/>
<path d="M135.08 66.5992H127.137V74.9251H135.08V66.5992Z" fill="#CB9FFF"/>
<path d="M135.08 58.2732H127.137V66.5991H135.08V58.2732Z" fill="#CB9FFF"/>
<path d="M135.08 49.9515H127.137V58.2732H135.08V49.9515Z" fill="#CB9FFF"/>
<path d="M135.08 41.6255H127.137V49.9515H135.08V41.6255Z" fill="#CB9FFF"/>
<path d="M135.08 8.32596H127.137V16.6477H135.08V8.32596Z" fill="#F5D141"/>
<path d="M127.137 324.674H119.19V333H127.137V324.674Z" fill="#964CC1"/>
<path d="M127.137 316.352H119.19V324.674H127.137V316.352Z" fill="#964CC1"/>
<path d="M127.137 308.026H119.19V316.352H127.137V308.026Z" fill="#964CC1"/>
<path d="M127.137 299.7H119.19V308.026H127.137V299.7Z" fill="#964CC1"/>
<path d="M127.137 291.375H119.19V299.7H127.137V291.375Z" fill="#7942A0"/>
<path d="M127.137 283.053H119.19V291.374H127.137V283.053Z" fill="#B68EEF"/>
<path d="M127.137 274.727H119.19V283.053H127.137V274.727Z" fill="#CB9FFF"/>
<path d="M127.137 266.401H119.19V274.727H127.137V266.401Z" fill="#CB9FFF"/>
<path d="M127.137 258.075H119.19V266.401H127.137V258.075Z" fill="#CB9FFF"/>
<path d="M127.137 249.749H119.19V258.075H127.137V249.749Z" fill="#CB9FFF"/>
<path d="M127.137 241.427H119.19V249.749H127.137V241.427Z" fill="#CB9FFF"/>
<path d="M127.137 233.101H119.19V241.427H127.137V233.101Z" fill="#CB9FFF"/>
<path d="M127.137 224.775H119.19V233.101H127.137V224.775Z" fill="#CB9FFF"/>
<path d="M127.137 216.449H119.19V224.775H127.137V216.449Z" fill="#CB9FFF"/>
<path d="M127.137 208.128H119.19V216.449H127.137V208.128Z" fill="#CB9FFF"/>
<path d="M127.137 199.802H119.19V208.128H127.137V199.802Z" fill="#CB9FFF"/>
<path d="M127.137 191.476H119.19V199.802H127.137V191.476Z" fill="#CB9FFF"/>
<path d="M127.137 183.15H119.19V191.476H127.137V183.15Z" fill="#CB9FFF"/>
<path d="M127.137 174.824H119.19V183.15H127.137V174.824Z" fill="#CB9FFF"/>
<path d="M127.137 166.502H119.19V174.824H127.137V166.502Z" fill="#CB9FFF"/>
<path d="M127.137 158.176H119.19V166.502H127.137V158.176Z" fill="#CB9FFF"/>
<path d="M127.137 149.85H119.19V158.176H127.137V149.85Z" fill="#CB9FFF"/>
<path d="M127.137 141.524H119.19V149.85H127.137V141.524Z" fill="#CB9FFF"/>
<path d="M127.137 133.198H119.19V141.524H127.137V133.198Z" fill="#CB9FFF"/>
<path d="M127.137 124.877H119.19V133.198H127.137V124.877Z" fill="#CB9FFF"/>
<path d="M127.137 116.551H119.19V124.877H127.137V116.551Z" fill="#CB9FFF"/>
<path d="M127.137 108.225H119.19V116.551H127.137V108.225Z" fill="#CB9FFF"/>
<path d="M127.137 99.8987H119.19V108.225H127.137V99.8987Z" fill="#CB9FFF"/>
<path d="M127.137 91.577H119.19V99.8987H127.137V91.577Z" fill="#CB9FFF"/>
<path d="M127.137 83.251H119.19V91.577H127.137V83.251Z" fill="#CB9FFF"/>
<path d="M127.137 74.9251H119.19V83.2511H127.137V74.9251Z" fill="#CB9FFF"/>
<path d="M127.137 66.5992H119.19V74.9251H127.137V66.5992Z" fill="#CB9FFF"/>
<path d="M127.137 58.2732H119.19V66.5991H127.137V58.2732Z" fill="#CB9FFF"/>
<path d="M127.137 49.9515H119.19V58.2732H127.137V49.9515Z" fill="#CB9FFF"/>
<path d="M127.137 41.6255H119.19V49.9515H127.137V41.6255Z" fill="#CB9FFF"/>
<path d="M119.19 324.674H111.243V333H119.19V324.674Z" fill="#964CC1"/>
<path d="M119.19 316.352H111.243V324.674H119.19V316.352Z" fill="#964CC1"/>
<path d="M119.19 308.026H111.243V316.352H119.19V308.026Z" fill="#964CC1"/>
<path d="M119.19 299.7H111.243V308.026H119.19V299.7Z" fill="#964CC1"/>
<path d="M119.19 291.375H111.243V299.7H119.19V291.375Z" fill="#7942A0"/>
<path d="M119.19 283.053H111.243V291.374H119.19V283.053Z" fill="#B68EEF"/>
<path d="M119.19 274.727H111.243V283.053H119.19V274.727Z" fill="#B68EEF"/>
<path d="M119.19 266.401H111.243V274.727H119.19V266.401Z" fill="#CB9FFF"/>
<path d="M119.19 258.075H111.243V266.401H119.19V258.075Z" fill="#CB9FFF"/>
<path d="M119.19 249.749H111.243V258.075H119.19V249.749Z" fill="#CB9FFF"/>
<path d="M119.19 241.427H111.243V249.749H119.19V241.427Z" fill="#CB9FFF"/>
<path d="M119.19 233.101H111.243V241.427H119.19V233.101Z" fill="#CB9FFF"/>
<path d="M119.19 224.775H111.243V233.101H119.19V224.775Z" fill="#CB9FFF"/>
<path d="M119.19 216.449H111.243V224.775H119.19V216.449Z" fill="#CB9FFF"/>
<path d="M119.19 208.128H111.243V216.449H119.19V208.128Z" fill="#CB9FFF"/>
<path d="M119.19 199.802H111.243V208.128H119.19V199.802Z" fill="#CB9FFF"/>
<path d="M119.19 191.476H111.243V199.802H119.19V191.476Z" fill="#CB9FFF"/>
<path d="M119.19 183.15H111.243V191.476H119.19V183.15Z" fill="#CB9FFF"/>
<path d="M119.19 174.824H111.243V183.15H119.19V174.824Z" fill="#CB9FFF"/>
<path d="M119.19 166.502H111.243V174.824H119.19V166.502Z" fill="#CB9FFF"/>
<path d="M119.19 158.176H111.243V166.502H119.19V158.176Z" fill="#CB9FFF"/>
<path d="M119.19 149.85H111.243V158.176H119.19V149.85Z" fill="#CB9FFF"/>
<path d="M119.19 141.524H111.243V149.85H119.19V141.524Z" fill="#CB9FFF"/>
<path d="M119.19 133.198H111.243V141.524H119.19V133.198Z" fill="#CB9FFF"/>
<path d="M119.19 124.877H111.243V133.198H119.19V124.877Z" fill="#CB9FFF"/>
<path d="M119.19 116.551H111.243V124.877H119.19V116.551Z" fill="#CB9FFF"/>
<path d="M119.19 108.225H111.243V116.551H119.19V108.225Z" fill="#CB9FFF"/>
<path d="M119.19 99.8987H111.243V108.225H119.19V99.8987Z" fill="#CB9FFF"/>
<path d="M119.19 91.577H111.243V99.8987H119.19V91.577Z" fill="#CB9FFF"/>
<path d="M119.19 83.251H111.243V91.577H119.19V83.251Z" fill="#CB9FFF"/>
<path d="M119.19 74.9251H111.243V83.2511H119.19V74.9251Z" fill="#CB9FFF"/>
<path d="M119.19 66.5992H111.243V74.9251H119.19V66.5992Z" fill="#CB9FFF"/>
<path d="M119.19 58.2732H111.243V66.5991H119.19V58.2732Z" fill="#CB9FFF"/>
<path d="M119.19 49.9515H111.243V58.2732H119.19V49.9515Z" fill="#CB9FFF"/>
<path d="M119.19 41.6255H111.243V49.9515H119.19V41.6255Z" fill="#CB9FFF"/>
<path d="M111.243 324.674H103.296V333H111.243V324.674Z" fill="#964CC1"/>
<path d="M111.243 316.352H103.296V324.674H111.243V316.352Z" fill="#964CC1"/>
<path d="M111.243 308.026H103.296V316.352H111.243V308.026Z" fill="#964CC1"/>
<path d="M111.243 299.7H103.296V308.026H111.243V299.7Z" fill="#964CC1"/>
<path d="M111.243 291.375H103.296V299.7H111.243V291.375Z" fill="#7942A0"/>
<path d="M111.243 283.053H103.296V291.374H111.243V283.053Z" fill="#7942A0"/>
<path d="M111.243 274.727H103.296V283.053H111.243V274.727Z" fill="#B68EEF"/>
<path d="M111.243 266.401H103.296V274.727H111.243V266.401Z" fill="#B68EEF"/>
<path d="M111.243 258.075H103.296V266.401H111.243V258.075Z" fill="#B68EEF"/>
<path d="M111.243 249.749H103.296V258.075H111.243V249.749Z" fill="#CB9FFF"/>
<path d="M111.243 241.427H103.296V249.749H111.243V241.427Z" fill="#CB9FFF"/>
<path d="M111.243 233.101H103.296V241.427H111.243V233.101Z" fill="#CB9FFF"/>
<path d="M111.243 224.775H103.296V233.101H111.243V224.775Z" fill="#CB9FFF"/>
<path d="M111.243 216.449H103.296V224.775H111.243V216.449Z" fill="#CB9FFF"/>
<path d="M111.243 208.128H103.296V216.449H111.243V208.128Z" fill="#CB9FFF"/>
<path d="M111.243 199.802H103.296V208.128H111.243V199.802Z" fill="#CB9FFF"/>
<path d="M111.243 191.476H103.296V199.802H111.243V191.476Z" fill="#CB9FFF"/>
<path d="M111.243 183.15H103.296V191.476H111.243V183.15Z" fill="#CB9FFF"/>
<path d="M111.243 174.824H103.296V183.15H111.243V174.824Z" fill="#CB9FFF"/>
<path d="M111.243 166.502H103.296V174.824H111.243V166.502Z" fill="#CB9FFF"/>
<path d="M111.243 158.176H103.296V166.502H111.243V158.176Z" fill="#CB9FFF"/>
<path d="M111.243 149.85H103.296V158.176H111.243V149.85Z" fill="#CB9FFF"/>
<path d="M111.243 141.524H103.296V149.85H111.243V141.524Z" fill="#CB9FFF"/>
<path d="M111.243 133.198H103.296V141.524H111.243V133.198Z" fill="#CB9FFF"/>
<path d="M111.243 124.877H103.296V133.198H111.243V124.877Z" fill="#CB9FFF"/>
<path d="M111.243 116.551H103.296V124.877H111.243V116.551Z" fill="#CB9FFF"/>
<path d="M111.243 108.225H103.296V116.551H111.243V108.225Z" fill="#CB9FFF"/>
<path d="M111.243 99.8987H103.296V108.225H111.243V99.8987Z" fill="#CB9FFF"/>
<path d="M111.243 91.577H103.296V99.8987H111.243V91.577Z" fill="#CB9FFF"/>
<path d="M111.243 83.251H103.296V91.577H111.243V83.251Z" fill="#CB9FFF"/>
<path d="M111.243 74.9251H103.296V83.2511H111.243V74.9251Z" fill="#CB9FFF"/>
<path d="M111.243 66.5992H103.296V74.9251H111.243V66.5992Z" fill="#CB9FFF"/>
<path d="M111.243 58.2732H103.296V66.5991H111.243V58.2732Z" fill="#CB9FFF"/>
<path d="M111.243 49.9515H103.296V58.2732H111.243V49.9515Z" fill="#CB9FFF"/>
<path d="M111.243 41.6255H103.296V49.9515H111.243V41.6255Z" fill="#CB9FFF"/>
<path d="M103.297 316.352H95.354V324.674H103.297V316.352Z" fill="#964CC1"/>
<path d="M103.297 308.026H95.354V316.352H103.297V308.026Z" fill="#964CC1"/>
<path d="M103.297 299.7H95.354V308.026H103.297V299.7Z" fill="#F5D141"/>
<path d="M103.297 291.375H95.354V299.7H103.297V291.375Z" fill="#964CC1"/>
<path d="M103.297 283.053H95.354V291.374H103.297V283.053Z" fill="#7942A0"/>
<path d="M103.297 274.727H95.354V283.053H103.297V274.727Z" fill="#B68EEF"/>
<path d="M103.297 266.401H95.354V274.727H103.297V266.401Z" fill="#B68EEF"/>
<path d="M103.297 258.075H95.354V266.401H103.297V258.075Z" fill="#B68EEF"/>
<path d="M103.297 249.749H95.354V258.075H103.297V249.749Z" fill="#B68EEF"/>
<path d="M103.297 241.427H95.354V249.749H103.297V241.427Z" fill="#B68EEF"/>
<path d="M103.297 233.101H95.354V241.427H103.297V233.101Z" fill="#B68EEF"/>
<path d="M103.297 224.775H95.354V233.101H103.297V224.775Z" fill="#B68EEF"/>
<path d="M103.297 216.449H95.354V224.775H103.297V216.449Z" fill="#B68EEF"/>
<path d="M103.297 208.128H95.354V216.449H103.297V208.128Z" fill="#B68EEF"/>
<path d="M103.297 199.802H95.354V208.128H103.297V199.802Z" fill="#CB9FFF"/>
<path d="M103.297 191.476H95.354V199.802H103.297V191.476Z" fill="#CB9FFF"/>
<path d="M103.297 183.15H95.354V191.476H103.297V183.15Z" fill="#CB9FFF"/>
<path d="M103.297 174.824H95.354V183.15H103.297V174.824Z" fill="#CB9FFF"/>
<path d="M103.297 166.502H95.354V174.824H103.297V166.502Z" fill="#CB9FFF"/>
<path d="M103.297 158.176H95.354V166.502H103.297V158.176Z" fill="#73F4DB"/>
<path d="M103.297 149.85H95.354V158.176H103.297V149.85Z" fill="#42F49B"/>
<path d="M103.297 141.524H95.354V149.85H103.297V141.524Z" fill="#CB9FFF"/>
<path d="M103.297 133.198H95.354V141.524H103.297V133.198Z" fill="#18314C"/>
<path d="M103.297 124.877H95.354V133.198H103.297V124.877Z" fill="#18314C"/>
<path d="M103.297 116.551H95.354V124.877H103.297V116.551Z" fill="#18314C"/>
<path d="M103.297 108.225H95.354V116.551H103.297V108.225Z" fill="#CB9FFF"/>
<path d="M103.297 99.8987H95.354V108.225H103.297V99.8987Z" fill="#CB9FFF"/>
<path d="M103.297 91.577H95.354V99.8987H103.297V91.577Z" fill="#18314C"/>
<path d="M103.297 83.251H95.354V91.577H103.297V83.251Z" fill="#CB9FFF"/>
<path d="M103.297 74.9251H95.354V83.2511H103.297V74.9251Z" fill="#CB9FFF"/>
<path d="M103.297 66.5992H95.354V74.9251H103.297V66.5992Z" fill="#CB9FFF"/>
<path d="M103.297 58.2732H95.354V66.5991H103.297V58.2732Z" fill="#CB9FFF"/>
<path d="M103.297 49.9515H95.354V58.2732H103.297V49.9515Z" fill="#CB9FFF"/>
<path d="M103.297 33.2996H95.354V41.6255H103.297V33.2996Z" fill="#F5D141"/>
<path d="M95.3536 308.026H87.4067V316.352H95.3536V308.026Z" fill="#F5D141"/>
<path d="M95.3536 299.7H87.4067V308.026H95.3536V299.7Z" fill="#F5D141"/>
<path d="M95.3536 291.375H87.4067V299.7H95.3536V291.375Z" fill="#F5D141"/>
<path d="M95.3536 266.401H87.4067V274.727H95.3536V266.401Z" fill="#B68EEF"/>
<path d="M95.3536 258.075H87.4067V266.401H95.3536V258.075Z" fill="#B68EEF"/>
<path d="M95.3536 249.749H87.4067V258.075H95.3536V249.749Z" fill="#B68EEF"/>
<path d="M95.3536 241.427H87.4067V249.749H95.3536V241.427Z" fill="#B68EEF"/>
<path d="M95.3536 233.101H87.4067V241.427H95.3536V233.101Z" fill="#B68EEF"/>
<path d="M95.3536 224.775H87.4067V233.101H95.3536V224.775Z" fill="#B68EEF"/>
<path d="M95.3536 216.449H87.4067V224.775H95.3536V216.449Z" fill="#B68EEF"/>
<path d="M95.3536 208.128H87.4067V216.449H95.3536V208.128Z" fill="#B68EEF"/>
<path d="M95.3536 199.802H87.4067V208.128H95.3536V199.802Z" fill="#B68EEF"/>
<path d="M95.3536 191.476H87.4067V199.802H95.3536V191.476Z" fill="#CB9FFF"/>
<path d="M95.3536 183.15H87.4067V191.476H95.3536V183.15Z" fill="#CB9FFF"/>
<path d="M95.3536 174.824H87.4067V183.15H95.3536V174.824Z" fill="#CB9FFF"/>
<path d="M95.3536 166.502H87.4067V174.824H95.3536V166.502Z" fill="#73F4DB"/>
<path d="M95.3536 158.176H87.4067V166.502H95.3536V158.176Z" fill="#42F49B"/>
<path d="M95.3536 149.85H87.4067V158.176H95.3536V149.85Z" fill="#42F49B"/>
<path d="M95.3536 141.524H87.4067V149.85H95.3536V141.524Z" fill="#3CBC79"/>
<path d="M95.3536 133.198H87.4067V141.524H95.3536V133.198Z" fill="#18314C"/>
<path d="M95.3536 124.877H87.4067V133.198H95.3536V124.877Z" fill="#18314C"/>
<path d="M95.3536 116.551H87.4067V124.877H95.3536V116.551Z" fill="#DEE2E5"/>
<path d="M95.3536 108.225H87.4067V116.551H95.3536V108.225Z" fill="#CB9FFF"/>
<path d="M95.3536 99.8987H87.4067V108.225H95.3536V99.8987Z" fill="#18314C"/>
<path d="M95.3536 91.577H87.4067V99.8987H95.3536V91.577Z" fill="#CB9FFF"/>
<path d="M95.3536 83.251H87.4067V91.577H95.3536V83.251Z" fill="#CB9FFF"/>
<path d="M95.3536 74.9251H87.4067V83.2511H95.3536V74.9251Z" fill="#CB9FFF"/>
<path d="M95.3536 66.5992H87.4067V74.9251H95.3536V66.5992Z" fill="#CB9FFF"/>
<path d="M95.3536 58.2732H87.4067V66.5991H95.3536V58.2732Z" fill="#CB9FFF"/>
<path d="M95.3536 49.9515H87.4067V58.2732H95.3536V49.9515Z" fill="#CB9FFF"/>
<path d="M95.3536 41.6255H87.4067V49.9515H95.3536V41.6255Z" fill="#F5D141"/>
<path d="M95.3536 33.2996H87.4067V41.6255H95.3536V33.2996Z" fill="#F5D141"/>
<path d="M95.3536 24.9736H87.4067V33.2996H95.3536V24.9736Z" fill="#F5D141"/>
<path d="M87.4068 299.7H79.46V308.026H87.4068V299.7Z" fill="#F5D141"/>
<path d="M87.4068 266.401H79.46V274.727H87.4068V266.401Z" fill="#7942A0"/>
<path d="M87.4068 258.075H79.46V266.401H87.4068V258.075Z" fill="#B68EEF"/>
<path d="M87.4068 249.749H79.46V258.075H87.4068V249.749Z" fill="#B68EEF"/>
<path d="M87.4068 241.427H79.46V249.749H87.4068V241.427Z" fill="#B68EEF"/>
<path d="M87.4068 233.101H79.46V241.427H87.4068V233.101Z" fill="#B68EEF"/>
<path d="M87.4068 224.775H79.46V233.101H87.4068V224.775Z" fill="#B68EEF"/>
<path d="M87.4068 216.449H79.46V224.775H87.4068V216.449Z" fill="#B68EEF"/>
<path d="M87.4068 208.128H79.46V216.449H87.4068V208.128Z" fill="#B68EEF"/>
<path d="M87.4068 199.802H79.46V208.128H87.4068V199.802Z" fill="#B68EEF"/>
<path d="M87.4068 191.476H79.46V199.802H87.4068V191.476Z" fill="#B68EEF"/>
<path d="M87.4068 183.15H79.46V191.476H87.4068V183.15Z" fill="#CB9FFF"/>
<path d="M87.4068 174.824H79.46V183.15H87.4068V174.824Z" fill="#CB9FFF"/>
<path d="M87.4068 166.502H79.46V174.824H87.4068V166.502Z" fill="#73F4DB"/>
<path d="M87.4068 158.176H79.46V166.502H87.4068V158.176Z" fill="#73F4DB"/>
<path d="M87.4068 149.85H79.46V158.176H87.4068V149.85Z" fill="#3CBC79"/>
<path d="M87.4068 141.524H79.46V149.85H87.4068V141.524Z" fill="#73F4DB"/>
<path d="M87.4068 133.198H79.46V141.524H87.4068V133.198Z" fill="#CB9FFF"/>
<path d="M87.4068 124.877H79.46V133.198H87.4068V124.877Z" fill="#CB9FFF"/>
<path d="M87.4068 116.551H79.46V124.877H87.4068V116.551Z" fill="#CB9FFF"/>
<path d="M87.4068 108.225H79.46V116.551H87.4068V108.225Z" fill="#CB9FFF"/>
<path d="M87.4068 99.8987H79.46V108.225H87.4068V99.8987Z" fill="#18314C"/>
<path d="M87.4068 91.577H79.46V99.8987H87.4068V91.577Z" fill="#CB9FFF"/>
<path d="M87.4068 83.251H79.46V91.577H87.4068V83.251Z" fill="#CB9FFF"/>
<path d="M87.4068 74.9251H79.46V83.2511H87.4068V74.9251Z" fill="#CB9FFF"/>
<path d="M87.4068 66.5992H79.46V74.9251H87.4068V66.5992Z" fill="#CB9FFF"/>
<path d="M87.4068 58.2732H79.46V66.5991H87.4068V58.2732Z" fill="#CB9FFF"/>
<path d="M87.4068 49.9515H79.46V58.2732H87.4068V49.9515Z" fill="#CB9FFF"/>
<path d="M87.4068 41.6255H79.46V49.9515H87.4068V41.6255Z" fill="#964CC1"/>
<path d="M87.4068 33.2996H79.46V41.6255H87.4068V33.2996Z" fill="#F5D141"/>
<path d="M79.46 274.727H71.5132V283.053H79.46V274.727Z" fill="#964CC1"/>
<path d="M79.46 266.401H71.5132V274.727H79.46V266.401Z" fill="#964CC1"/>
<path d="M79.46 258.075H71.5132V266.401H79.46V258.075Z" fill="#7942A0"/>
<path d="M79.46 249.749H71.5132V258.075H79.46V249.749Z" fill="#7942A0"/>
<path d="M79.46 241.427H71.5132V249.749H79.46V241.427Z" fill="#B68EEF"/>
<path d="M79.46 233.101H71.5132V241.427H79.46V233.101Z" fill="#B68EEF"/>
<path d="M79.46 224.775H71.5132V233.101H79.46V224.775Z" fill="#B68EEF"/>
<path d="M79.46 216.449H71.5132V224.775H79.46V216.449Z" fill="#B68EEF"/>
<path d="M79.46 208.128H71.5132V216.449H79.46V208.128Z" fill="#B68EEF"/>
<path d="M79.46 199.802H71.5132V208.128H79.46V199.802Z" fill="#B68EEF"/>
<path d="M79.46 191.476H71.5132V199.802H79.46V191.476Z" fill="#B68EEF"/>
<path d="M79.46 183.15H71.5132V191.476H79.46V183.15Z" fill="#B68EEF"/>
<path d="M79.46 174.824H71.5132V183.15H79.46V174.824Z" fill="#CB9FFF"/>
<path d="M79.46 166.502H71.5132V174.824H79.46V166.502Z" fill="#CB9FFF"/>
<path d="M79.46 158.176H71.5132V166.502H79.46V158.176Z" fill="#18314C"/>
<path d="M79.46 149.85H71.5132V158.176H79.46V149.85Z" fill="#73F4DB"/>
<path d="M79.46 141.524H71.5132V149.85H79.46V141.524Z" fill="#18314C"/>
<path d="M79.46 133.198H71.5132V141.524H79.46V133.198Z" fill="#CB9FFF"/>
<path d="M79.46 124.877H71.5132V133.198H79.46V124.877Z" fill="#CB9FFF"/>
<path d="M79.46 116.551H71.5132V124.877H79.46V116.551Z" fill="#CB9FFF"/>
<path d="M79.46 108.225H71.5132V116.551H79.46V108.225Z" fill="#CB9FFF"/>
<path d="M79.46 99.8987H71.5132V108.225H79.46V99.8987Z" fill="#CB9FFF"/>
<path d="M79.46 91.577H71.5132V99.8987H79.46V91.577Z" fill="#CB9FFF"/>
<path d="M79.46 83.251H71.5132V91.577H79.46V83.251Z" fill="#CB9FFF"/>
<path d="M79.46 74.9251H71.5132V83.2511H79.46V74.9251Z" fill="#CB9FFF"/>
<path d="M79.46 66.5992H71.5132V74.9251H79.46V66.5992Z" fill="#CB9FFF"/>
<path d="M79.46 58.2732H71.5132V66.5991H79.46V58.2732Z" fill="#CB9FFF"/>
<path d="M79.46 49.9515H71.5132V58.2732H79.46V49.9515Z" fill="#964CC1"/>
<path d="M79.46 41.6255H71.5132V49.9515H79.46V41.6255Z" fill="#964CC1"/>
<path d="M79.46 33.2996H71.5132V41.6255H79.46V33.2996Z" fill="#964CC1"/>
<path d="M71.5132 283.053H63.5664V291.374H71.5132V283.053Z" fill="#964CC1"/>
<path d="M71.5132 274.727H63.5664V283.053H71.5132V274.727Z" fill="#964CC1"/>
<path d="M71.5132 266.401H63.5664V274.727H71.5132V266.401Z" fill="#964CC1"/>
<path d="M71.5132 258.075H63.5664V266.401H71.5132V258.075Z" fill="#964CC1"/>
<path d="M71.5132 249.749H63.5664V258.075H71.5132V249.749Z" fill="#7942A0"/>
<path d="M71.5132 241.427H63.5664V249.749H71.5132V241.427Z" fill="#7942A0"/>
<path d="M71.5132 233.101H63.5664V241.427H71.5132V233.101Z" fill="#B68EEF"/>
<path d="M71.5132 224.775H63.5664V233.101H71.5132V224.775Z" fill="#B68EEF"/>
<path d="M71.5132 216.449H63.5664V224.775H71.5132V216.449Z" fill="#B68EEF"/>
<path d="M71.5132 191.476H63.5664V199.802H71.5132V191.476Z" fill="#B68EEF"/>
<path d="M71.5132 183.15H63.5664V191.476H71.5132V183.15Z" fill="#B68EEF"/>
<path d="M71.5132 174.824H63.5664V183.15H71.5132V174.824Z" fill="#B68EEF"/>
<path d="M71.5132 166.502H63.5664V174.824H71.5132V166.502Z" fill="#18314C"/>
<path d="M71.5132 158.176H63.5664V166.502H71.5132V158.176Z" fill="#CB9FFF"/>
<path d="M71.5132 149.85H63.5664V158.176H71.5132V149.85Z" fill="#18314C"/>
<path d="M71.5132 141.524H63.5664V149.85H71.5132V141.524Z" fill="#CB9FFF"/>
<path d="M71.5132 133.198H63.5664V141.524H71.5132V133.198Z" fill="#18314C"/>
<path d="M71.5132 124.877H63.5664V133.198H71.5132V124.877Z" fill="#CB9FFF"/>
<path d="M71.5132 116.551H63.5664V124.877H71.5132V116.551Z" fill="#CB9FFF"/>
<path d="M71.5132 108.225H63.5664V116.551H71.5132V108.225Z" fill="#CB9FFF"/>
<path d="M71.5132 99.8987H63.5664V108.225H71.5132V99.8987Z" fill="#CB9FFF"/>
<path d="M71.5132 91.577H63.5664V99.8987H71.5132V91.577Z" fill="#CB9FFF"/>
<path d="M71.5132 83.251H63.5664V91.577H71.5132V83.251Z" fill="#CB9FFF"/>
<path d="M71.5132 74.9251H63.5664V83.2511H71.5132V74.9251Z" fill="#B68EEF"/>
<path d="M71.5132 66.5992H63.5664V74.9251H71.5132V66.5992Z" fill="#B68EEF"/>
<path d="M71.5132 58.2732H63.5664V66.5991H71.5132V58.2732Z" fill="#964CC1"/>
<path d="M71.5132 49.9515H63.5664V58.2732H71.5132V49.9515Z" fill="#964CC1"/>
<path d="M71.5132 41.6255H63.5664V49.9515H71.5132V41.6255Z" fill="#964CC1"/>
<path d="M71.5132 33.2996H63.5664V41.6255H71.5132V33.2996Z" fill="#964CC1"/>
<path d="M63.5663 283.053H55.6235V291.374H63.5663V283.053Z" fill="#964CC1"/>
<path d="M63.5663 274.727H55.6235V283.053H63.5663V274.727Z" fill="#964CC1"/>
<path d="M63.5663 266.401H55.6235V274.727H63.5663V266.401Z" fill="#964CC1"/>
<path d="M63.5663 258.075H55.6235V266.401H63.5663V258.075Z" fill="#964CC1"/>
<path d="M63.5663 249.749H55.6235V258.075H63.5663V249.749Z" fill="#7942A0"/>
<path d="M63.5663 191.476H55.6235V199.802H63.5663V191.476Z" fill="#B68EEF"/>
<path d="M63.5663 183.15H55.6235V191.476H63.5663V183.15Z" fill="#B68EEF"/>
<path d="M63.5663 174.824H55.6235V183.15H63.5663V174.824Z" fill="#B68EEF"/>
<path d="M63.5663 166.502H55.6235V174.824H63.5663V166.502Z" fill="#B68EEF"/>
<path d="M63.5663 158.176H55.6235V166.502H63.5663V158.176Z" fill="#B68EEF"/>
<path d="M63.5663 149.85H55.6235V158.176H63.5663V149.85Z" fill="#18314C"/>
<path d="M63.5663 141.524H55.6235V149.85H63.5663V141.524Z" fill="#CB9FFF"/>
<path d="M63.5663 133.198H55.6235V141.524H63.5663V133.198Z" fill="#CB9FFF"/>
<path d="M63.5663 124.877H55.6235V133.198H63.5663V124.877Z" fill="#CB9FFF"/>
<path d="M63.5663 116.551H55.6235V124.877H63.5663V116.551Z" fill="#CB9FFF"/>
<path d="M63.5663 108.225H55.6235V116.551H63.5663V108.225Z" fill="#CB9FFF"/>
<path d="M63.5663 99.8987H55.6235V108.225H63.5663V99.8987Z" fill="#CB9FFF"/>
<path d="M63.5663 91.577H55.6235V99.8987H63.5663V91.577Z" fill="#B68EEF"/>
<path d="M63.5663 83.251H55.6235V91.577H63.5663V83.251Z" fill="#B68EEF"/>
<path d="M63.5663 74.9251H55.6235V83.2511H63.5663V74.9251Z" fill="#B68EEF"/>
<path d="M63.5663 66.5992H55.6235V74.9251H63.5663V66.5992Z" fill="#B68EEF"/>
<path d="M63.5663 58.2732H55.6235V66.5991H63.5663V58.2732Z" fill="#73F4DB"/>
<path d="M63.5663 49.9515H55.6235V58.2732H63.5663V49.9515Z" fill="#964CC1"/>
<path d="M63.5663 41.6255H55.6235V49.9515H63.5663V41.6255Z" fill="#964CC1"/>
<path d="M63.5663 33.2996H55.6235V41.6255H63.5663V33.2996Z" fill="#964CC1"/>
<path d="M63.5663 24.9736H55.6235V33.2996H63.5663V24.9736Z" fill="#964CC1"/>
<path d="M55.6236 283.053H47.6768V291.374H55.6236V283.053Z" fill="#964CC1"/>
<path d="M55.6236 274.727H47.6768V283.053H55.6236V274.727Z" fill="#964CC1"/>
<path d="M55.6236 266.401H47.6768V274.727H55.6236V266.401Z" fill="#964CC1"/>
<path d="M55.6236 191.476H47.6768V199.802H55.6236V191.476Z" fill="#F5D141"/>
<path d="M55.6236 183.15H47.6768V191.476H55.6236V183.15Z" fill="#B68EEF"/>
<path d="M55.6236 174.824H47.6768V183.15H55.6236V174.824Z" fill="#B68EEF"/>
<path d="M55.6236 166.502H47.6768V174.824H55.6236V166.502Z" fill="#B68EEF"/>
<path d="M55.6236 158.176H47.6768V166.502H55.6236V158.176Z" fill="#B68EEF"/>
<path d="M55.6236 149.85H47.6768V158.176H55.6236V149.85Z" fill="#B68EEF"/>
<path d="M55.6236 141.524H47.6768V149.85H55.6236V141.524Z" fill="#B68EEF"/>
<path d="M55.6236 133.198H47.6768V141.524H55.6236V133.198Z" fill="#B68EEF"/>
<path d="M55.6236 124.877H47.6768V133.198H55.6236V124.877Z" fill="#B68EEF"/>
<path d="M55.6236 116.551H47.6768V124.877H55.6236V116.551Z" fill="#B68EEF"/>
<path d="M55.6236 108.225H47.6768V116.551H55.6236V108.225Z" fill="#B68EEF"/>
<path d="M55.6236 99.8987H47.6768V108.225H55.6236V99.8987Z" fill="#B68EEF"/>
<path d="M55.6236 91.577H47.6768V99.8987H55.6236V91.577Z" fill="#B68EEF"/>
<path d="M55.6236 83.251H47.6768V91.577H55.6236V83.251Z" fill="#B68EEF"/>
<path d="M55.6236 74.9251H47.6768V83.2511H55.6236V74.9251Z" fill="#B68EEF"/>
<path d="M55.6236 66.5992H47.6768V74.9251H55.6236V66.5992Z" fill="#73F4DB"/>
<path d="M55.6236 58.2732H47.6768V66.5991H55.6236V58.2732Z" fill="#73F4DB"/>
<path d="M55.6236 49.9515H47.6768V58.2732H55.6236V49.9515Z" fill="#964CC1"/>
<path d="M55.6236 41.6255H47.6768V49.9515H55.6236V41.6255Z" fill="#964CC1"/>
<path d="M55.6236 33.2996H47.6768V41.6255H55.6236V33.2996Z" fill="#964CC1"/>
<path d="M55.6236 24.9736H47.6768V33.2996H55.6236V24.9736Z" fill="#964CC1"/>
<path d="M47.6768 199.802H39.73V208.128H47.6768V199.802Z" fill="#F5D141"/>
<path d="M47.6768 183.15H39.73V191.476H47.6768V183.15Z" fill="#F5D141"/>
<path d="M47.6768 174.824H39.73V183.15H47.6768V174.824Z" fill="#B68EEF"/>
<path d="M47.6768 166.502H39.73V174.824H47.6768V166.502Z" fill="#B68EEF"/>
<path d="M47.6768 158.176H39.73V166.502H47.6768V158.176Z" fill="#B68EEF"/>
<path d="M47.6768 149.85H39.73V158.176H47.6768V149.85Z" fill="#B68EEF"/>
<path d="M47.6768 141.524H39.73V149.85H47.6768V141.524Z" fill="#B68EEF"/>
<path d="M47.6768 133.198H39.73V141.524H47.6768V133.198Z" fill="#B68EEF"/>
<path d="M47.6768 124.877H39.73V133.198H47.6768V124.877Z" fill="#B68EEF"/>
<path d="M47.6768 116.551H39.73V124.877H47.6768V116.551Z" fill="#B68EEF"/>
<path d="M47.6768 108.225H39.73V116.551H47.6768V108.225Z" fill="#B68EEF"/>
<path d="M47.6768 99.8987H39.73V108.225H47.6768V99.8987Z" fill="#B68EEF"/>
<path d="M47.6768 91.577H39.73V99.8987H47.6768V91.577Z" fill="#B68EEF"/>
<path d="M47.6768 83.251H39.73V91.577H47.6768V83.251Z" fill="#B68EEF"/>
<path d="M47.6768 74.9251H39.73V83.2511H47.6768V74.9251Z" fill="#73F4DB"/>
<path d="M47.6768 66.5992H39.73V74.9251H47.6768V66.5992Z" fill="#73F4DB"/>
<path d="M47.6768 58.2732H39.73V66.5991H47.6768V58.2732Z" fill="#73F4DB"/>
<path d="M47.6768 49.9515H39.73V58.2732H47.6768V49.9515Z" fill="#73F4DB"/>
<path d="M47.6768 41.6255H39.73V49.9515H47.6768V41.6255Z" fill="#964CC1"/>
<path d="M47.6768 33.2996H39.73V41.6255H47.6768V33.2996Z" fill="#964CC1"/>
<path d="M47.6768 24.9736H39.73V33.2996H47.6768V24.9736Z" fill="#964CC1"/>
<path d="M39.73 233.101H31.7832V241.427H39.73V233.101Z" fill="#F5D141"/>
<path d="M39.73 191.476H31.7832V199.802H39.73V191.476Z" fill="#F5D141"/>
<path d="M39.73 166.502H31.7832V174.824H39.73V166.502Z" fill="#B68EEF"/>
<path d="M39.73 158.176H31.7832V166.502H39.73V158.176Z" fill="#B68EEF"/>
<path d="M39.73 149.85H31.7832V158.176H39.73V149.85Z" fill="#B68EEF"/>
<path d="M39.73 141.524H31.7832V149.85H39.73V141.524Z" fill="#B68EEF"/>
<path d="M39.73 133.198H31.7832V141.524H39.73V133.198Z" fill="#B68EEF"/>
<path d="M39.73 124.877H31.7832V133.198H39.73V124.877Z" fill="#B68EEF"/>
<path d="M39.73 116.551H31.7832V124.877H39.73V116.551Z" fill="#B68EEF"/>
<path d="M39.73 108.225H31.7832V116.551H39.73V108.225Z" fill="#B68EEF"/>
<path d="M39.73 99.8987H31.7832V108.225H39.73V99.8987Z" fill="#B68EEF"/>
<path d="M39.73 91.577H31.7832V99.8987H39.73V91.577Z" fill="#B68EEF"/>
<path d="M39.73 83.251H31.7832V91.577H39.73V83.251Z" fill="#73F4DB"/>
<path d="M39.73 74.9251H31.7832V83.2511H39.73V74.9251Z" fill="#73F4DB"/>
<path d="M39.73 66.5992H31.7832V74.9251H39.73V66.5992Z" fill="#73F4DB"/>
<path d="M39.73 58.2732H31.7832V66.5991H39.73V58.2732Z" fill="#73F4DB"/>
<path d="M39.73 49.9515H31.7832V58.2732H39.73V49.9515Z" fill="#73F4DB"/>
<path d="M39.73 41.6255H31.7832V49.9515H39.73V41.6255Z" fill="#964CC1"/>
<path d="M39.73 33.2996H31.7832V41.6255H39.73V33.2996Z" fill="#964CC1"/>
<path d="M39.73 24.9736H31.7832V33.2996H39.73V24.9736Z" fill="#964CC1"/>
<path d="M31.7833 149.85H23.8364V158.176H31.7833V149.85Z" fill="#B68EEF"/>
<path d="M31.7833 141.524H23.8364V149.85H31.7833V141.524Z" fill="#B68EEF"/>
<path d="M31.7833 133.198H23.8364V141.524H31.7833V133.198Z" fill="#B68EEF"/>
<path d="M31.7833 124.877H23.8364V133.198H31.7833V124.877Z" fill="#B68EEF"/>
<path d="M31.7833 116.551H23.8364V124.877H31.7833V116.551Z" fill="#B68EEF"/>
<path d="M31.7833 83.251H23.8364V91.577H31.7833V83.251Z" fill="#73F4DB"/>
<path d="M31.7833 74.9251H23.8364V83.2511H31.7833V74.9251Z" fill="#73F4DB"/>
<path d="M31.7833 66.5992H23.8364V74.9251H31.7833V66.5992Z" fill="#73F4DB"/>
<path d="M31.7833 58.2732H23.8364V66.5991H31.7833V58.2732Z" fill="#73F4DB"/>
<path d="M31.7833 49.9515H23.8364V58.2732H31.7833V49.9515Z" fill="#73F4DB"/>
<path d="M31.7833 41.6255H23.8364V49.9515H31.7833V41.6255Z" fill="#73F4DB"/>
<path d="M31.7833 33.2996H23.8364V41.6255H31.7833V33.2996Z" fill="#964CC1"/>
<path d="M31.7833 24.9736H23.8364V33.2996H31.7833V24.9736Z" fill="#964CC1"/>
<path d="M23.8363 166.502H15.8936V174.824H23.8363V166.502Z" fill="#F5D141"/>
<path d="M23.8363 149.85H15.8936V158.176H23.8363V149.85Z" fill="#F5D141"/>
<path d="M23.8363 141.524H15.8936V149.85H23.8363V141.524Z" fill="#F5D141"/>
<path d="M23.8363 133.198H15.8936V141.524H23.8363V133.198Z" fill="#F5D141"/>
<path d="M23.8363 116.551H15.8936V124.877H23.8363V116.551Z" fill="#F5D141"/>
<path d="M23.8363 74.9251H15.8936V83.2511H23.8363V74.9251Z" fill="#73F4DB"/>
<path d="M23.8363 66.5992H15.8936V74.9251H23.8363V66.5992Z" fill="#73F4DB"/>
<path d="M23.8363 58.2732H15.8936V66.5991H23.8363V58.2732Z" fill="#73F4DB"/>
<path d="M23.8363 49.9515H15.8936V58.2732H23.8363V49.9515Z" fill="#73F4DB"/>
<path d="M15.8936 141.524H7.94678V149.85H15.8936V141.524Z" fill="#F5D141"/>
<path d="M7.94682 149.85H0V158.176H7.94682V149.85Z" fill="#F5D141"/>
<path d="M7.94682 133.198H0V141.524H7.94682V133.198Z" fill="#F5D141"/>
</svg>
