<svg width="490" height="508" viewBox="0 0 490 508" fill="none" xmlns="http://www.w3.org/2000/svg">
<path d="M490 177.799H477.749V190.5H490V177.799Z" fill="#23282D"/>
<path d="M490 165.104H477.749V177.799H490V165.104Z" fill="#23282D"/>
<path d="M490 152.403H477.749V165.104H490V152.403Z" fill="#23282D"/>
<path d="M477.749 190.5H465.497V203.201H477.749V190.5Z" fill="#23282D"/>
<path d="M477.749 177.799H465.497V190.5H477.749V177.799Z" fill="white"/>
<path d="M477.749 165.104H465.497V177.799H477.749V165.104Z" fill="#23282D"/>
<path d="M465.497 279.403H453.252V292.097H465.497V279.403Z" fill="#F26E14"/>
<path d="M465.497 266.701H453.252V279.403H465.497V266.701Z" fill="#F48F42"/>
<path d="M465.497 190.5H453.252V203.201H465.497V190.5Z" fill="#23282D"/>
<path d="M465.497 177.799H453.252V190.5H465.497V177.799Z" fill="#23282D"/>
<path d="M453.252 266.701H441.001V279.403H453.252V266.701Z" fill="#F48F42"/>
<path d="M453.252 190.5H441.001V203.201H453.252V190.5Z" fill="#23282D"/>
<path d="M453.252 139.701H441.001V152.403H453.252V139.701Z" fill="#F26E14"/>
<path d="M453.252 127H441.001V139.701H453.252V127Z" fill="#F26E14"/>
<path d="M453.252 88.9026H441.001V101.604H453.252V88.9026Z" fill="#FF6700"/>
<path d="M441.001 254H428.749V266.701H441.001V254Z" fill="#F26E14"/>
<path d="M441.001 203.201H428.749V215.903H441.001V203.201Z" fill="#23282D"/>
<path d="M441.001 152.403H428.749V165.104H441.001V152.403Z" fill="#F48F42"/>
<path d="M441.001 139.701H428.749V152.403H441.001V139.701Z" fill="#F48F42"/>
<path d="M428.749 330.201H416.498V342.903H428.749V330.201Z" fill="#FF6700"/>
<path d="M428.749 241.299H416.498V254H428.749V241.299Z" fill="#23282D"/>
<path d="M428.749 228.597H416.498V241.299H428.749V228.597Z" fill="#23282D"/>
<path d="M428.749 215.903H416.498V228.597H428.749V215.903Z" fill="#23282D"/>
<path d="M428.749 152.403H416.498V165.104H428.749V152.403Z" fill="#F26E14"/>
<path d="M428.749 0H416.498V12.7013H428.749V0Z" fill="#FF6700"/>
<path d="M416.498 279.403H404.253V292.097H416.498V279.403Z" fill="#AA2639"/>
<path d="M416.498 266.701H404.253V279.403H416.498V266.701Z" fill="#AA2639"/>
<path d="M416.498 254H404.253V266.701H416.498V254Z" fill="#23282D"/>
<path d="M416.498 241.299H404.253V254H416.498V241.299Z" fill="white"/>
<path d="M416.498 228.597H404.253V241.299H416.498V228.597Z" fill="#23282D"/>
<path d="M416.498 127H404.253V139.701H416.498V127Z" fill="#F4E1E1"/>
<path d="M416.498 114.299H404.253V127H416.498V114.299Z" fill="#F4E1E1"/>
<path d="M416.498 101.604H404.253V114.299H416.498V101.604Z" fill="#F4E1E1"/>
<path d="M416.498 88.9026H404.253V101.604H416.498V88.9026Z" fill="#F4E1E1"/>
<path d="M416.498 76.2013H404.253V88.9026H416.498V76.2013Z" fill="#AA2639"/>
<path d="M404.253 292.097H392.001V304.799H404.253V292.097Z" fill="#AA2639"/>
<path d="M404.253 279.403H392.001V292.097H404.253V279.403Z" fill="#AA2639"/>
<path d="M404.253 266.701H392.001V279.403H404.253V266.701Z" fill="#AA2639"/>
<path d="M404.253 254H392.001V266.701H404.253V254Z" fill="#23282D"/>
<path d="M404.253 241.299H392.001V254H404.253V241.299Z" fill="#23282D"/>
<path d="M404.253 228.597H392.001V241.299H404.253V228.597Z" fill="#E2505E"/>
<path d="M404.253 203.201H392.001V215.903H404.253V203.201Z" fill="#E2505E"/>
<path d="M404.253 127H392.001V139.701H404.253V127Z" fill="#F4E1E1"/>
<path d="M404.253 114.299H392.001V127H404.253V114.299Z" fill="#F4E1E1"/>
<path d="M404.253 101.604H392.001V114.299H404.253V101.604Z" fill="#F4E1E1"/>
<path d="M404.253 88.9026H392.001V101.604H404.253V88.9026Z" fill="#F4E1E1"/>
<path d="M404.253 76.2013H392.001V88.9026H404.253V76.2013Z" fill="#AA2639"/>
<path d="M404.253 63.5H392.001V76.2013H404.253V63.5Z" fill="#AA2639"/>
<path d="M404.253 25.4026H392.001V38.1039H404.253V25.4026Z" fill="#FF6700"/>
<path d="M392.001 342.903H379.75V355.597H392.001V342.903Z" fill="#FF6700"/>
<path d="M392.001 304.799H379.75V317.5H392.001V304.799Z" fill="#AA2639"/>
<path d="M392.001 292.097H379.75V304.799H392.001V292.097Z" fill="#AA2639"/>
<path d="M392.001 279.403H379.75V292.097H392.001V279.403Z" fill="#AA2639"/>
<path d="M392.001 266.701H379.75V279.403H392.001V266.701Z" fill="#AA2639"/>
<path d="M392.001 254H379.75V266.701H392.001V254Z" fill="#23282D"/>
<path d="M392.001 241.299H379.75V254H392.001V241.299Z" fill="#AA2639"/>
<path d="M392.001 228.597H379.75V241.299H392.001V228.597Z" fill="#E2505E"/>
<path d="M392.001 215.903H379.75V228.597H392.001V215.903Z" fill="#E2505E"/>
<path d="M392.001 203.201H379.75V215.903H392.001V203.201Z" fill="#E2505E"/>
<path d="M392.001 190.5H379.75V203.201H392.001V190.5Z" fill="#E2505E"/>
<path d="M392.001 165.104H379.75V177.799H392.001V165.104Z" fill="#E2505E"/>
<path d="M392.001 152.403H379.75V165.104H392.001V152.403Z" fill="#E2505E"/>
<path d="M392.001 139.701H379.75V152.403H392.001V139.701Z" fill="#F4E1E1"/>
<path d="M392.001 127H379.75V139.701H392.001V127Z" fill="#F4E1E1"/>
<path d="M392.001 114.299H379.75V127H392.001V114.299Z" fill="#F4E1E1"/>
<path d="M392.001 101.604H379.75V114.299H392.001V101.604Z" fill="#F4E1E1"/>
<path d="M392.001 88.9026H379.75V101.604H392.001V88.9026Z" fill="#F4E1E1"/>
<path d="M392.001 76.2013H379.75V88.9026H392.001V76.2013Z" fill="#AA2639"/>
<path d="M392.001 63.5H379.75V76.2013H392.001V63.5Z" fill="#AA2639"/>
<path d="M379.75 317.5H367.498V330.201H379.75V317.5Z" fill="#AA2639"/>
<path d="M379.75 304.799H367.498V317.5H379.75V304.799Z" fill="#AA2639"/>
<path d="M379.75 292.097H367.498V304.799H379.75V292.097Z" fill="#AA2639"/>
<path d="M379.75 279.403H367.498V292.097H379.75V279.403Z" fill="#AA2639"/>
<path d="M379.75 266.701H367.498V279.403H379.75V266.701Z" fill="#AA2639"/>
<path d="M379.75 254H367.498V266.701H379.75V254Z" fill="#AA2639"/>
<path d="M379.75 241.299H367.498V254H379.75V241.299Z" fill="#E2505E"/>
<path d="M379.75 228.597H367.498V241.299H379.75V228.597Z" fill="#E2505E"/>
<path d="M379.75 215.903H367.498V228.597H379.75V215.903Z" fill="#E2505E"/>
<path d="M379.75 203.201H367.498V215.903H379.75V203.201Z" fill="#E2505E"/>
<path d="M379.75 177.799H367.498V190.5H379.75V177.799Z" fill="#E2505E"/>
<path d="M379.75 152.403H367.498V165.104H379.75V152.403Z" fill="#E2505E"/>
<path d="M379.75 139.701H367.498V152.403H379.75V139.701Z" fill="#E2505E"/>
<path d="M379.75 127H367.498V139.701H379.75V127Z" fill="#F4E1E1"/>
<path d="M379.75 114.299H367.498V127H379.75V114.299Z" fill="#F4E1E1"/>
<path d="M379.75 101.604H367.498V114.299H379.75V101.604Z" fill="#F4E1E1"/>
<path d="M379.75 88.9026H367.498V101.604H379.75V88.9026Z" fill="#AA2639"/>
<path d="M379.75 76.2013H367.498V88.9026H379.75V76.2013Z" fill="#AA2639"/>
<path d="M379.75 63.5H367.498V76.2013H379.75V63.5Z" fill="#AA2639"/>
<path d="M367.498 330.201H355.247V342.903H367.498V330.201Z" fill="#AA2639"/>
<path d="M367.498 317.5H355.247V330.201H367.498V317.5Z" fill="#AA2639"/>
<path d="M367.498 304.799H355.247V317.5H367.498V304.799Z" fill="#AA2639"/>
<path d="M367.498 292.097H355.247V304.799H367.498V292.097Z" fill="#AA2639"/>
<path d="M367.498 279.403H355.247V292.097H367.498V279.403Z" fill="#E2505E"/>
<path d="M367.498 266.701H355.247V279.403H367.498V266.701Z" fill="#E2505E"/>
<path d="M367.498 254H355.247V266.701H367.498V254Z" fill="#E2505E"/>
<path d="M367.498 241.299H355.247V254H367.498V241.299Z" fill="#E2505E"/>
<path d="M367.498 228.597H355.247V241.299H367.498V228.597Z" fill="#23282D"/>
<path d="M367.498 215.903H355.247V228.597H367.498V215.903Z" fill="#E2505E"/>
<path d="M367.498 203.201H355.247V215.903H367.498V203.201Z" fill="#E2505E"/>
<path d="M367.498 190.5H355.247V203.201H367.498V190.5Z" fill="#E2505E"/>
<path d="M367.498 177.799H355.247V190.5H367.498V177.799Z" fill="#E2505E"/>
<path d="M367.498 165.104H355.247V177.799H367.498V165.104Z" fill="#E2505E"/>
<path d="M367.498 152.403H355.247V165.104H367.498V152.403Z" fill="#E2505E"/>
<path d="M367.498 139.701H355.247V152.403H367.498V139.701Z" fill="#E2505E"/>
<path d="M367.498 127H355.247V139.701H367.498V127Z" fill="#E2505E"/>
<path d="M367.498 114.299H355.247V127H367.498V114.299Z" fill="#F4E1E1"/>
<path d="M367.498 101.604H355.247V114.299H367.498V101.604Z" fill="#AA2639"/>
<path d="M367.498 88.9026H355.247V101.604H367.498V88.9026Z" fill="#AA2639"/>
<path d="M367.498 76.2013H355.247V88.9026H367.498V76.2013Z" fill="#AA2639"/>
<path d="M367.498 63.5H355.247V76.2013H367.498V63.5Z" fill="#AA2639"/>
<path d="M367.498 25.4026H355.247V38.1039H367.498V25.4026Z" fill="#F26E14"/>
<path d="M355.247 469.896H343.002V482.597H355.247V469.896Z" fill="#AA2639"/>
<path d="M355.247 457.201H343.002V469.896H355.247V457.201Z" fill="#AA2639"/>
<path d="M355.247 444.5H343.002V457.201H355.247V444.5Z" fill="#AA2639"/>
<path d="M355.247 431.799H343.002V444.5H355.247V431.799Z" fill="#AA2639"/>
<path d="M355.247 342.903H343.002V355.597H355.247V342.903Z" fill="#AA2639"/>
<path d="M355.247 330.201H343.002V342.903H355.247V330.201Z" fill="#AA2639"/>
<path d="M355.247 317.5H343.002V330.201H355.247V317.5Z" fill="#AA2639"/>
<path d="M355.247 304.799H343.002V317.5H355.247V304.799Z" fill="#AA2639"/>
<path d="M355.247 292.097H343.002V304.799H355.247V292.097Z" fill="#E2505E"/>
<path d="M355.247 279.403H343.002V292.097H355.247V279.403Z" fill="#E2505E"/>
<path d="M355.247 266.701H343.002V279.403H355.247V266.701Z" fill="#23282D"/>
<path d="M355.247 254H343.002V266.701H355.247V254Z" fill="#E2505E"/>
<path d="M355.247 241.299H343.002V254H355.247V241.299Z" fill="#E2505E"/>
<path d="M355.247 228.597H343.002V241.299H355.247V228.597Z" fill="#23282D"/>
<path d="M355.247 215.903H343.002V228.597H355.247V215.903Z" fill="#E2505E"/>
<path d="M355.247 203.201H343.002V215.903H355.247V203.201Z" fill="#E2505E"/>
<path d="M355.247 190.5H343.002V203.201H355.247V190.5Z" fill="#23282D"/>
<path d="M355.247 177.799H343.002V190.5H355.247V177.799Z" fill="#E2505E"/>
<path d="M355.247 165.104H343.002V177.799H355.247V165.104Z" fill="#E2505E"/>
<path d="M355.247 152.403H343.002V165.104H355.247V152.403Z" fill="#E2505E"/>
<path d="M355.247 139.701H343.002V152.403H355.247V139.701Z" fill="#E2505E"/>
<path d="M355.247 127H343.002V139.701H355.247V127Z" fill="#E2505E"/>
<path d="M355.247 114.299H343.002V127H355.247V114.299Z" fill="#E2505E"/>
<path d="M355.247 101.604H343.002V114.299H355.247V101.604Z" fill="#AA2639"/>
<path d="M355.247 88.9026H343.002V101.604H355.247V88.9026Z" fill="#AA2639"/>
<path d="M355.247 76.2013H343.002V88.9026H355.247V76.2013Z" fill="#AA2639"/>
<path d="M355.247 38.1039H343.002V50.7987H355.247V38.1039Z" fill="#F48F42"/>
<path d="M343.002 482.597H330.75V495.299H343.002V482.597Z" fill="#AA2639"/>
<path d="M343.002 469.896H330.75V482.597H343.002V469.896Z" fill="#AA2639"/>
<path d="M343.002 457.201H330.75V469.896H343.002V457.201Z" fill="#AA2639"/>
<path d="M343.002 444.5H330.75V457.201H343.002V444.5Z" fill="#AA2639"/>
<path d="M343.002 431.799H330.75V444.5H343.002V431.799Z" fill="#AA2639"/>
<path d="M343.002 419.097H330.75V431.799H343.002V419.097Z" fill="#AA2639"/>
<path d="M343.002 406.396H330.75V419.097H343.002V406.396Z" fill="#7F1D30"/>
<path d="M343.002 368.299H330.75V381H343.002V368.299Z" fill="#E2505E"/>
<path d="M343.002 355.597H330.75V368.299H343.002V355.597Z" fill="#E2505E"/>
<path d="M343.002 342.903H330.75V355.597H343.002V342.903Z" fill="#AA2639"/>
<path d="M343.002 330.201H330.75V342.903H343.002V330.201Z" fill="#AA2639"/>
<path d="M343.002 317.5H330.75V330.201H343.002V317.5Z" fill="#AA2639"/>
<path d="M343.002 304.799H330.75V317.5H343.002V304.799Z" fill="#E2505E"/>
<path d="M343.002 292.097H330.75V304.799H343.002V292.097Z" fill="#E2505E"/>
<path d="M343.002 279.403H330.75V292.097H343.002V279.403Z" fill="#E2505E"/>
<path d="M343.002 266.701H330.75V279.403H343.002V266.701Z" fill="#E2505E"/>
<path d="M343.002 254H330.75V266.701H343.002V254Z" fill="#23282D"/>
<path d="M343.002 241.299H330.75V254H343.002V241.299Z" fill="#E2505E"/>
<path d="M343.002 228.597H330.75V241.299H343.002V228.597Z" fill="#F4E1E1"/>
<path d="M343.002 215.903H330.75V228.597H343.002V215.903Z" fill="#F4E1E1"/>
<path d="M343.002 203.201H330.75V215.903H343.002V203.201Z" fill="#23282D"/>
<path d="M343.002 190.5H330.75V203.201H343.002V190.5Z" fill="#E2505E"/>
<path d="M343.002 177.799H330.75V190.5H343.002V177.799Z" fill="#E2505E"/>
<path d="M343.002 165.104H330.75V177.799H343.002V165.104Z" fill="#E2505E"/>
<path d="M343.002 152.403H330.75V165.104H343.002V152.403Z" fill="#E2505E"/>
<path d="M343.002 139.701H330.75V152.403H343.002V139.701Z" fill="#E2505E"/>
<path d="M343.002 127H330.75V139.701H343.002V127Z" fill="#E2505E"/>
<path d="M343.002 114.299H330.75V127H343.002V114.299Z" fill="#E2505E"/>
<path d="M343.002 101.604H330.75V114.299H343.002V101.604Z" fill="#AA2639"/>
<path d="M343.002 88.9026H330.75V101.604H343.002V88.9026Z" fill="#AA2639"/>
<path d="M343.002 76.2013H330.75V88.9026H343.002V76.2013Z" fill="#AA2639"/>
<path d="M343.002 50.7987H330.75V63.5H343.002V50.7987Z" fill="#F26E14"/>
<path d="M343.002 38.1039H330.75V50.7987H343.002V38.1039Z" fill="#F26E14"/>
<path d="M330.75 482.597H318.499V495.299H330.75V482.597Z" fill="#AA2639"/>
<path d="M330.75 469.896H318.499V482.597H330.75V469.896Z" fill="#AA2639"/>
<path d="M330.75 457.201H318.499V469.896H330.75V457.201Z" fill="#AA2639"/>
<path d="M330.75 444.5H318.499V457.201H330.75V444.5Z" fill="#AA2639"/>
<path d="M330.75 431.799H318.499V444.5H330.75V431.799Z" fill="#AA2639"/>
<path d="M330.75 419.097H318.499V431.799H330.75V419.097Z" fill="#7F1D30"/>
<path d="M330.75 406.396H318.499V419.097H330.75V406.396Z" fill="#7F1D30"/>
<path d="M330.75 393.701H318.499V406.396H330.75V393.701Z" fill="#E2505E"/>
<path d="M330.75 381H318.499V393.701H330.75V381Z" fill="#E2505E"/>
<path d="M330.75 368.299H318.499V381H330.75V368.299Z" fill="#E2505E"/>
<path d="M330.75 355.597H318.499V368.299H330.75V355.597Z" fill="#E2505E"/>
<path d="M330.75 342.903H318.499V355.597H330.75V342.903Z" fill="#E2505E"/>
<path d="M330.75 330.201H318.499V342.903H330.75V330.201Z" fill="#E2505E"/>
<path d="M330.75 317.5H318.499V330.201H330.75V317.5Z" fill="#E2505E"/>
<path d="M330.75 304.799H318.499V317.5H330.75V304.799Z" fill="#E2505E"/>
<path d="M330.75 292.097H318.499V304.799H330.75V292.097Z" fill="#E2505E"/>
<path d="M330.75 279.403H318.499V292.097H330.75V279.403Z" fill="#E2505E"/>
<path d="M330.75 266.701H318.499V279.403H330.75V266.701Z" fill="#E2505E"/>
<path d="M330.75 254H318.499V266.701H330.75V254Z" fill="#E2505E"/>
<path d="M330.75 241.299H318.499V254H330.75V241.299Z" fill="#23282D"/>
<path d="M330.75 228.597H318.499V241.299H330.75V228.597Z" fill="#F4E1E1"/>
<path d="M330.75 215.903H318.499V228.597H330.75V215.903Z" fill="#23282D"/>
<path d="M330.75 203.201H318.499V215.903H330.75V203.201Z" fill="#F4E1E1"/>
<path d="M330.75 190.5H318.499V203.201H330.75V190.5Z" fill="#E2505E"/>
<path d="M330.75 177.799H318.499V190.5H330.75V177.799Z" fill="#E2505E"/>
<path d="M330.75 165.104H318.499V177.799H330.75V165.104Z" fill="#E2505E"/>
<path d="M330.75 152.403H318.499V165.104H330.75V152.403Z" fill="#E2505E"/>
<path d="M330.75 139.701H318.499V152.403H330.75V139.701Z" fill="#E2505E"/>
<path d="M330.75 127H318.499V139.701H330.75V127Z" fill="#E2505E"/>
<path d="M330.75 114.299H318.499V127H330.75V114.299Z" fill="#E2505E"/>
<path d="M330.75 101.604H318.499V114.299H330.75V101.604Z" fill="#E2505E"/>
<path d="M330.75 88.9026H318.499V101.604H330.75V88.9026Z" fill="#AA2639"/>
<path d="M318.499 482.597H306.248V495.299H318.499V482.597Z" fill="#AA2639"/>
<path d="M318.499 469.896H306.248V482.597H318.499V469.896Z" fill="#AA2639"/>
<path d="M318.499 457.201H306.248V469.896H318.499V457.201Z" fill="#AA2639"/>
<path d="M318.499 431.799H306.248V444.5H318.499V431.799Z" fill="#7F1D30"/>
<path d="M318.499 419.097H306.248V431.799H318.499V419.097Z" fill="#7F1D30"/>
<path d="M318.499 406.396H306.248V419.097H318.499V406.396Z" fill="#E2505E"/>
<path d="M318.499 393.701H306.248V406.396H318.499V393.701Z" fill="#E2505E"/>
<path d="M318.499 381H306.248V393.701H318.499V381Z" fill="#E2505E"/>
<path d="M318.499 368.299H306.248V381H318.499V368.299Z" fill="#E2505E"/>
<path d="M318.499 355.597H306.248V368.299H318.499V355.597Z" fill="#E2505E"/>
<path d="M318.499 342.903H306.248V355.597H318.499V342.903Z" fill="#E2505E"/>
<path d="M318.499 330.201H306.248V342.903H318.499V330.201Z" fill="#E2505E"/>
<path d="M318.499 317.5H306.248V330.201H318.499V317.5Z" fill="#E2505E"/>
<path d="M318.499 304.799H306.248V317.5H318.499V304.799Z" fill="#E2505E"/>
<path d="M318.499 292.097H306.248V304.799H318.499V292.097Z" fill="#E2505E"/>
<path d="M318.499 279.403H306.248V292.097H318.499V279.403Z" fill="#E2505E"/>
<path d="M318.499 266.701H306.248V279.403H318.499V266.701Z" fill="#E2505E"/>
<path d="M318.499 254H306.248V266.701H318.499V254Z" fill="#E2505E"/>
<path d="M318.499 241.299H306.248V254H318.499V241.299Z" fill="#F4E1E1"/>
<path d="M318.499 228.597H306.248V241.299H318.499V228.597Z" fill="#F4E1E1"/>
<path d="M318.499 215.903H306.248V228.597H318.499V215.903Z" fill="#F4E1E1"/>
<path d="M318.499 203.201H306.248V215.903H318.499V203.201Z" fill="#F4E1E1"/>
<path d="M318.499 190.5H306.248V203.201H318.499V190.5Z" fill="#23282D"/>
<path d="M318.499 177.799H306.248V190.5H318.499V177.799Z" fill="#23282D"/>
<path d="M318.499 165.104H306.248V177.799H318.499V165.104Z" fill="#E2505E"/>
<path d="M318.499 152.403H306.248V165.104H318.499V152.403Z" fill="#E2505E"/>
<path d="M318.499 139.701H306.248V152.403H318.499V139.701Z" fill="#23282D"/>
<path d="M318.499 127H306.248V139.701H318.499V127Z" fill="#E2505E"/>
<path d="M318.499 114.299H306.248V127H318.499V114.299Z" fill="#E2505E"/>
<path d="M318.499 101.604H306.248V114.299H318.499V101.604Z" fill="#E2505E"/>
<path d="M318.499 88.9026H306.248V101.604H318.499V88.9026Z" fill="#E2505E"/>
<path d="M306.248 431.799H294.003V444.5H306.248V431.799Z" fill="#BC4052"/>
<path d="M306.248 419.097H294.003V431.799H306.248V419.097Z" fill="#E2505E"/>
<path d="M306.248 406.396H294.003V419.097H306.248V406.396Z" fill="#E2505E"/>
<path d="M306.248 393.701H294.003V406.396H306.248V393.701Z" fill="#E2505E"/>
<path d="M306.248 381H294.003V393.701H306.248V381Z" fill="#E2505E"/>
<path d="M306.248 368.299H294.003V381H306.248V368.299Z" fill="#E2505E"/>
<path d="M306.248 355.597H294.003V368.299H306.248V355.597Z" fill="#E2505E"/>
<path d="M306.248 342.903H294.003V355.597H306.248V342.903Z" fill="#E2505E"/>
<path d="M306.248 330.201H294.003V342.903H306.248V330.201Z" fill="#E2505E"/>
<path d="M306.248 317.5H294.003V330.201H306.248V317.5Z" fill="#E2505E"/>
<path d="M306.248 304.799H294.003V317.5H306.248V304.799Z" fill="#E2505E"/>
<path d="M306.248 292.097H294.003V304.799H306.248V292.097Z" fill="#E2505E"/>
<path d="M306.248 279.403H294.003V292.097H306.248V279.403Z" fill="#E2505E"/>
<path d="M306.248 266.701H294.003V279.403H306.248V266.701Z" fill="#E2505E"/>
<path d="M306.248 254H294.003V266.701H306.248V254Z" fill="#E2505E"/>
<path d="M306.248 241.299H294.003V254H306.248V241.299Z" fill="#F4E1E1"/>
<path d="M306.248 228.597H294.003V241.299H306.248V228.597Z" fill="#F4E1E1"/>
<path d="M306.248 215.903H294.003V228.597H306.248V215.903Z" fill="#F4E1E1"/>
<path d="M306.248 203.201H294.003V215.903H306.248V203.201Z" fill="#F4E1E1"/>
<path d="M306.248 190.5H294.003V203.201H306.248V190.5Z" fill="#E2505E"/>
<path d="M306.248 177.799H294.003V190.5H306.248V177.799Z" fill="#23282D"/>
<path d="M306.248 165.104H294.003V177.799H306.248V165.104Z" fill="#E2505E"/>
<path d="M306.248 152.403H294.003V165.104H306.248V152.403Z" fill="#E2505E"/>
<path d="M306.248 139.701H294.003V152.403H306.248V139.701Z" fill="#E2505E"/>
<path d="M306.248 127H294.003V139.701H306.248V127Z" fill="#23282D"/>
<path d="M306.248 114.299H294.003V127H306.248V114.299Z" fill="#E2505E"/>
<path d="M306.248 101.604H294.003V114.299H306.248V101.604Z" fill="#E2505E"/>
<path d="M306.248 88.9026H294.003V101.604H306.248V88.9026Z" fill="#E2505E"/>
<path d="M294.003 431.799H281.751V444.5H294.003V431.799Z" fill="#E2505E"/>
<path d="M294.003 419.097H281.751V431.799H294.003V419.097Z" fill="#E2505E"/>
<path d="M294.003 406.396H281.751V419.097H294.003V406.396Z" fill="#E2505E"/>
<path d="M294.003 393.701H281.751V406.396H294.003V393.701Z" fill="#E2505E"/>
<path d="M294.003 381H281.751V393.701H294.003V381Z" fill="#E2505E"/>
<path d="M294.003 368.299H281.751V381H294.003V368.299Z" fill="#E2505E"/>
<path d="M294.003 355.597H281.751V368.299H294.003V355.597Z" fill="#E2505E"/>
<path d="M294.003 342.903H281.751V355.597H294.003V342.903Z" fill="#E2505E"/>
<path d="M294.003 330.201H281.751V342.903H294.003V330.201Z" fill="#E2505E"/>
<path d="M294.003 317.5H281.751V330.201H294.003V317.5Z" fill="#E2505E"/>
<path d="M294.003 304.799H281.751V317.5H294.003V304.799Z" fill="#E2505E"/>
<path d="M294.003 292.097H281.751V304.799H294.003V292.097Z" fill="#E2505E"/>
<path d="M294.003 279.403H281.751V292.097H294.003V279.403Z" fill="#E2505E"/>
<path d="M294.003 266.701H281.751V279.403H294.003V266.701Z" fill="#E2505E"/>
<path d="M294.003 254H281.751V266.701H294.003V254Z" fill="#E2505E"/>
<path d="M294.003 241.299H281.751V254H294.003V241.299Z" fill="#E2505E"/>
<path d="M294.003 228.597H281.751V241.299H294.003V228.597Z" fill="#F4E1E1"/>
<path d="M294.003 215.903H281.751V228.597H294.003V215.903Z" fill="#F4E1E1"/>
<path d="M294.003 203.201H281.751V215.903H294.003V203.201Z" fill="#E2505E"/>
<path d="M294.003 190.5H281.751V203.201H294.003V190.5Z" fill="#23282D"/>
<path d="M294.003 177.799H281.751V190.5H294.003V177.799Z" fill="#23282D"/>
<path d="M294.003 165.104H281.751V177.799H294.003V165.104Z" fill="#E2505E"/>
<path d="M294.003 152.403H281.751V165.104H294.003V152.403Z" fill="#E2505E"/>
<path d="M294.003 139.701H281.751V152.403H294.003V139.701Z" fill="#E2505E"/>
<path d="M294.003 127H281.751V139.701H294.003V127Z" fill="#23282D"/>
<path d="M294.003 114.299H281.751V127H294.003V114.299Z" fill="#E2505E"/>
<path d="M294.003 101.604H281.751V114.299H294.003V101.604Z" fill="#E2505E"/>
<path d="M294.003 88.9026H281.751V101.604H294.003V88.9026Z" fill="#E2505E"/>
<path d="M281.751 431.799H269.5V444.5H281.751V431.799Z" fill="#E2505E"/>
<path d="M281.751 419.097H269.5V431.799H281.751V419.097Z" fill="#E2505E"/>
<path d="M281.751 406.396H269.5V419.097H281.751V406.396Z" fill="#E2505E"/>
<path d="M281.751 393.701H269.5V406.396H281.751V393.701Z" fill="#E2505E"/>
<path d="M281.751 381H269.5V393.701H281.751V381Z" fill="#E2505E"/>
<path d="M281.751 368.299H269.5V381H281.751V368.299Z" fill="#E2505E"/>
<path d="M281.751 355.597H269.5V368.299H281.751V355.597Z" fill="#E2505E"/>
<path d="M281.751 342.903H269.5V355.597H281.751V342.903Z" fill="#E2505E"/>
<path d="M281.751 330.201H269.5V342.903H281.751V330.201Z" fill="#E2505E"/>
<path d="M281.751 317.5H269.5V330.201H281.751V317.5Z" fill="#E2505E"/>
<path d="M281.751 304.799H269.5V317.5H281.751V304.799Z" fill="#E2505E"/>
<path d="M281.751 292.097H269.5V304.799H281.751V292.097Z" fill="#E2505E"/>
<path d="M281.751 279.403H269.5V292.097H281.751V279.403Z" fill="#E2505E"/>
<path d="M281.751 266.701H269.5V279.403H281.751V266.701Z" fill="#E2505E"/>
<path d="M281.751 254H269.5V266.701H281.751V254Z" fill="#E2505E"/>
<path d="M281.751 241.299H269.5V254H281.751V241.299Z" fill="#E2505E"/>
<path d="M281.751 228.597H269.5V241.299H281.751V228.597Z" fill="#E2505E"/>
<path d="M281.751 215.903H269.5V228.597H281.751V215.903Z" fill="#E2505E"/>
<path d="M281.751 203.201H269.5V215.903H281.751V203.201Z" fill="#E2505E"/>
<path d="M281.751 190.5H269.5V203.201H281.751V190.5Z" fill="#E2505E"/>
<path d="M281.751 177.799H269.5V190.5H281.751V177.799Z" fill="#E2505E"/>
<path d="M281.751 165.104H269.5V177.799H281.751V165.104Z" fill="#E2505E"/>
<path d="M281.751 152.403H269.5V165.104H281.751V152.403Z" fill="#E2505E"/>
<path d="M281.751 139.701H269.5V152.403H281.751V139.701Z" fill="#E2505E"/>
<path d="M281.751 127H269.5V139.701H281.751V127Z" fill="#E2505E"/>
<path d="M281.751 114.299H269.5V127H281.751V114.299Z" fill="#E2505E"/>
<path d="M281.751 101.604H269.5V114.299H281.751V101.604Z" fill="#E2505E"/>
<path d="M281.751 88.9026H269.5V101.604H281.751V88.9026Z" fill="#E2505E"/>
<path d="M281.751 38.1039H269.5V50.7987H281.751V38.1039Z" fill="#F26E14"/>
<path d="M281.751 25.4026H269.5V38.1039H281.751V25.4026Z" fill="#F26E14"/>
<path d="M269.5 431.799H257.248V444.5H269.5V431.799Z" fill="#E2505E"/>
<path d="M269.5 419.097H257.248V431.799H269.5V419.097Z" fill="#E2505E"/>
<path d="M269.5 406.396H257.248V419.097H269.5V406.396Z" fill="#E2505E"/>
<path d="M269.5 393.701H257.248V406.396H269.5V393.701Z" fill="#E2505E"/>
<path d="M269.5 381H257.248V393.701H269.5V381Z" fill="#E2505E"/>
<path d="M269.5 368.299H257.248V381H269.5V368.299Z" fill="#E2505E"/>
<path d="M269.5 355.597H257.248V368.299H269.5V355.597Z" fill="#E2505E"/>
<path d="M269.5 342.903H257.248V355.597H269.5V342.903Z" fill="#E2505E"/>
<path d="M269.5 330.201H257.248V342.903H269.5V330.201Z" fill="#E2505E"/>
<path d="M269.5 317.5H257.248V330.201H269.5V317.5Z" fill="#E2505E"/>
<path d="M269.5 304.799H257.248V317.5H269.5V304.799Z" fill="#E2505E"/>
<path d="M269.5 292.097H257.248V304.799H269.5V292.097Z" fill="#E2505E"/>
<path d="M269.5 279.403H257.248V292.097H269.5V279.403Z" fill="#E2505E"/>
<path d="M269.5 266.701H257.248V279.403H269.5V266.701Z" fill="#E2505E"/>
<path d="M269.5 254H257.248V266.701H269.5V254Z" fill="#23282D"/>
<path d="M269.5 241.299H257.248V254H269.5V241.299Z" fill="#23282D"/>
<path d="M269.5 228.597H257.248V241.299H269.5V228.597Z" fill="#E2505E"/>
<path d="M269.5 215.903H257.248V228.597H269.5V215.903Z" fill="#E2505E"/>
<path d="M269.5 203.201H257.248V215.903H269.5V203.201Z" fill="#E2505E"/>
<path d="M269.5 190.5H257.248V203.201H269.5V190.5Z" fill="#E2505E"/>
<path d="M269.5 177.799H257.248V190.5H269.5V177.799Z" fill="#E2505E"/>
<path d="M269.5 165.104H257.248V177.799H269.5V165.104Z" fill="#E2505E"/>
<path d="M269.5 152.403H257.248V165.104H269.5V152.403Z" fill="#E2505E"/>
<path d="M269.5 139.701H257.248V152.403H269.5V139.701Z" fill="#E2505E"/>
<path d="M269.5 127H257.248V139.701H269.5V127Z" fill="#E2505E"/>
<path d="M269.5 114.299H257.248V127H269.5V114.299Z" fill="#E2505E"/>
<path d="M269.5 101.604H257.248V114.299H269.5V101.604Z" fill="#E2505E"/>
<path d="M269.5 88.9026H257.248V101.604H269.5V88.9026Z" fill="#E2505E"/>
<path d="M269.5 38.1039H257.248V50.7987H269.5V38.1039Z" fill="#F48F42"/>
<path d="M257.248 431.799H244.997V444.5H257.248V431.799Z" fill="#E2505E"/>
<path d="M257.248 419.097H244.997V431.799H257.248V419.097Z" fill="#E2505E"/>
<path d="M257.248 406.396H244.997V419.097H257.248V406.396Z" fill="#E2505E"/>
<path d="M257.248 393.701H244.997V406.396H257.248V393.701Z" fill="#E2505E"/>
<path d="M257.248 381H244.997V393.701H257.248V381Z" fill="#E2505E"/>
<path d="M257.248 368.299H244.997V381H257.248V368.299Z" fill="#E2505E"/>
<path d="M257.248 355.597H244.997V368.299H257.248V355.597Z" fill="#E2505E"/>
<path d="M257.248 342.903H244.997V355.597H257.248V342.903Z" fill="#E2505E"/>
<path d="M257.248 330.201H244.997V342.903H257.248V330.201Z" fill="#E2505E"/>
<path d="M257.248 317.5H244.997V330.201H257.248V317.5Z" fill="#E2505E"/>
<path d="M257.248 304.799H244.997V317.5H257.248V304.799Z" fill="#E2505E"/>
<path d="M257.248 292.097H244.997V304.799H257.248V292.097Z" fill="#E2505E"/>
<path d="M257.248 279.403H244.997V292.097H257.248V279.403Z" fill="#E2505E"/>
<path d="M257.248 266.701H244.997V279.403H257.248V266.701Z" fill="#23282D"/>
<path d="M257.248 254H244.997V266.701H257.248V254Z" fill="#F4E1E1"/>
<path d="M257.248 241.299H244.997V254H257.248V241.299Z" fill="#23282D"/>
<path d="M257.248 228.597H244.997V241.299H257.248V228.597Z" fill="#E2505E"/>
<path d="M257.248 215.903H244.997V228.597H257.248V215.903Z" fill="#F4E1E1"/>
<path d="M257.248 203.201H244.997V215.903H257.248V203.201Z" fill="#F4E1E1"/>
<path d="M257.248 190.5H244.997V203.201H257.248V190.5Z" fill="#E2505E"/>
<path d="M257.248 177.799H244.997V190.5H257.248V177.799Z" fill="#E2505E"/>
<path d="M257.248 165.104H244.997V177.799H257.248V165.104Z" fill="#E2505E"/>
<path d="M257.248 152.403H244.997V165.104H257.248V152.403Z" fill="#E2505E"/>
<path d="M257.248 139.701H244.997V152.403H257.248V139.701Z" fill="#E2505E"/>
<path d="M257.248 127H244.997V139.701H257.248V127Z" fill="#E2505E"/>
<path d="M257.248 114.299H244.997V127H257.248V114.299Z" fill="#E2505E"/>
<path d="M257.248 101.604H244.997V114.299H257.248V101.604Z" fill="#E2505E"/>
<path d="M257.248 88.9026H244.997V101.604H257.248V88.9026Z" fill="#E2505E"/>
<path d="M257.248 50.7987H244.997V63.5H257.248V50.7987Z" fill="#F26E14"/>
<path d="M257.248 38.1039H244.997V50.7987H257.248V38.1039Z" fill="#F48F42"/>
<path d="M244.997 431.799H232.752V444.5H244.997V431.799Z" fill="#E2505E"/>
<path d="M244.997 419.097H232.752V431.799H244.997V419.097Z" fill="#E2505E"/>
<path d="M244.997 406.396H232.752V419.097H244.997V406.396Z" fill="#E2505E"/>
<path d="M244.997 393.701H232.752V406.396H244.997V393.701Z" fill="#E2505E"/>
<path d="M244.997 381H232.752V393.701H244.997V381Z" fill="#E2505E"/>
<path d="M244.997 368.299H232.752V381H244.997V368.299Z" fill="#E2505E"/>
<path d="M244.997 355.597H232.752V368.299H244.997V355.597Z" fill="#E2505E"/>
<path d="M244.997 342.903H232.752V355.597H244.997V342.903Z" fill="#E2505E"/>
<path d="M244.997 330.201H232.752V342.903H244.997V330.201Z" fill="#E2505E"/>
<path d="M244.997 317.5H232.752V330.201H244.997V317.5Z" fill="#E2505E"/>
<path d="M244.997 304.799H232.752V317.5H244.997V304.799Z" fill="#E2505E"/>
<path d="M244.997 292.097H232.752V304.799H244.997V292.097Z" fill="#E2505E"/>
<path d="M244.997 279.403H232.752V292.097H244.997V279.403Z" fill="#E2505E"/>
<path d="M244.997 266.701H232.752V279.403H244.997V266.701Z" fill="#23282D"/>
<path d="M244.997 254H232.752V266.701H244.997V254Z" fill="#F4E1E1"/>
<path d="M244.997 241.299H232.752V254H244.997V241.299Z" fill="#23282D"/>
<path d="M244.997 228.597H232.752V241.299H244.997V228.597Z" fill="#E2505E"/>
<path d="M244.997 215.903H232.752V228.597H244.997V215.903Z" fill="#F4E1E1"/>
<path d="M244.997 203.201H232.752V215.903H244.997V203.201Z" fill="#F4E1E1"/>
<path d="M244.997 190.5H232.752V203.201H244.997V190.5Z" fill="#E2505E"/>
<path d="M244.997 177.799H232.752V190.5H244.997V177.799Z" fill="#E2505E"/>
<path d="M244.997 165.104H232.752V177.799H244.997V165.104Z" fill="#E2505E"/>
<path d="M244.997 152.403H232.752V165.104H244.997V152.403Z" fill="#E2505E"/>
<path d="M244.997 139.701H232.752V152.403H244.997V139.701Z" fill="#E2505E"/>
<path d="M244.997 127H232.752V139.701H244.997V127Z" fill="#E2505E"/>
<path d="M244.997 114.299H232.752V127H244.997V114.299Z" fill="#E2505E"/>
<path d="M244.997 101.604H232.752V114.299H244.997V101.604Z" fill="#E2505E"/>
<path d="M244.997 88.9026H232.752V101.604H244.997V88.9026Z" fill="#E2505E"/>
<path d="M232.752 431.799H220.5V444.5H232.752V431.799Z" fill="#BC4052"/>
<path d="M232.752 419.097H220.5V431.799H232.752V419.097Z" fill="#E2505E"/>
<path d="M232.752 406.396H220.5V419.097H232.752V406.396Z" fill="#E2505E"/>
<path d="M232.752 393.701H220.5V406.396H232.752V393.701Z" fill="#E2505E"/>
<path d="M232.752 381H220.5V393.701H232.752V381Z" fill="#E2505E"/>
<path d="M232.752 368.299H220.5V381H232.752V368.299Z" fill="#E2505E"/>
<path d="M232.752 355.597H220.5V368.299H232.752V355.597Z" fill="#E2505E"/>
<path d="M232.752 342.903H220.5V355.597H232.752V342.903Z" fill="#E2505E"/>
<path d="M232.752 330.201H220.5V342.903H232.752V330.201Z" fill="#E2505E"/>
<path d="M232.752 317.5H220.5V330.201H232.752V317.5Z" fill="#E2505E"/>
<path d="M232.752 304.799H220.5V317.5H232.752V304.799Z" fill="#E2505E"/>
<path d="M232.752 292.097H220.5V304.799H232.752V292.097Z" fill="#E2505E"/>
<path d="M232.752 279.403H220.5V292.097H232.752V279.403Z" fill="#E2505E"/>
<path d="M232.752 266.701H220.5V279.403H232.752V266.701Z" fill="#23282D"/>
<path d="M232.752 254H220.5V266.701H232.752V254Z" fill="#F4E1E1"/>
<path d="M232.752 241.299H220.5V254H232.752V241.299Z" fill="#23282D"/>
<path d="M232.752 228.597H220.5V241.299H232.752V228.597Z" fill="#E2505E"/>
<path d="M232.752 215.903H220.5V228.597H232.752V215.903Z" fill="#F4E1E1"/>
<path d="M232.752 203.201H220.5V215.903H232.752V203.201Z" fill="#F4E1E1"/>
<path d="M232.752 190.5H220.5V203.201H232.752V190.5Z" fill="#E2505E"/>
<path d="M232.752 177.799H220.5V190.5H232.752V177.799Z" fill="#E2505E"/>
<path d="M232.752 165.104H220.5V177.799H232.752V165.104Z" fill="#E2505E"/>
<path d="M232.752 152.403H220.5V165.104H232.752V152.403Z" fill="#E2505E"/>
<path d="M232.752 139.701H220.5V152.403H232.752V139.701Z" fill="#E2505E"/>
<path d="M232.752 127H220.5V139.701H232.752V127Z" fill="#E2505E"/>
<path d="M232.752 114.299H220.5V127H232.752V114.299Z" fill="#E2505E"/>
<path d="M232.752 101.604H220.5V114.299H232.752V101.604Z" fill="#E2505E"/>
<path d="M232.752 88.9026H220.5V101.604H232.752V88.9026Z" fill="#E2505E"/>
<path d="M232.752 12.7013H220.5V25.4026H232.752V12.7013Z" fill="#FF6700"/>
<path d="M220.5 495.299H208.249V508H220.5V495.299Z" fill="#AA2639"/>
<path d="M220.5 482.597H208.249V495.299H220.5V482.597Z" fill="#AA2639"/>
<path d="M220.5 469.896H208.249V482.597H220.5V469.896Z" fill="#AA2639"/>
<path d="M220.5 431.799H208.249V444.5H220.5V431.799Z" fill="#BC4052"/>
<path d="M220.5 419.097H208.249V431.799H220.5V419.097Z" fill="#BC4052"/>
<path d="M220.5 406.396H208.249V419.097H220.5V406.396Z" fill="#E2505E"/>
<path d="M220.5 393.701H208.249V406.396H220.5V393.701Z" fill="#E2505E"/>
<path d="M220.5 381H208.249V393.701H220.5V381Z" fill="#E2505E"/>
<path d="M220.5 368.299H208.249V381H220.5V368.299Z" fill="#E2505E"/>
<path d="M220.5 355.597H208.249V368.299H220.5V355.597Z" fill="#E2505E"/>
<path d="M220.5 342.903H208.249V355.597H220.5V342.903Z" fill="#E2505E"/>
<path d="M220.5 330.201H208.249V342.903H220.5V330.201Z" fill="#E2505E"/>
<path d="M220.5 317.5H208.249V330.201H220.5V317.5Z" fill="#E2505E"/>
<path d="M220.5 304.799H208.249V317.5H220.5V304.799Z" fill="#E2505E"/>
<path d="M220.5 292.097H208.249V304.799H220.5V292.097Z" fill="#E2505E"/>
<path d="M220.5 279.403H208.249V292.097H220.5V279.403Z" fill="#E2505E"/>
<path d="M220.5 266.701H208.249V279.403H220.5V266.701Z" fill="#E2505E"/>
<path d="M220.5 254H208.249V266.701H220.5V254Z" fill="#23282D"/>
<path d="M220.5 241.299H208.249V254H220.5V241.299Z" fill="#23282D"/>
<path d="M220.5 228.597H208.249V241.299H220.5V228.597Z" fill="#E2505E"/>
<path d="M220.5 215.903H208.249V228.597H220.5V215.903Z" fill="#E2505E"/>
<path d="M220.5 203.201H208.249V215.903H220.5V203.201Z" fill="#E2505E"/>
<path d="M220.5 190.5H208.249V203.201H220.5V190.5Z" fill="#E2505E"/>
<path d="M220.5 177.799H208.249V190.5H220.5V177.799Z" fill="#E2505E"/>
<path d="M220.5 165.104H208.249V177.799H220.5V165.104Z" fill="#E2505E"/>
<path d="M220.5 152.403H208.249V165.104H220.5V152.403Z" fill="#E2505E"/>
<path d="M220.5 139.701H208.249V152.403H220.5V139.701Z" fill="#E2505E"/>
<path d="M220.5 127H208.249V139.701H220.5V127Z" fill="#E2505E"/>
<path d="M220.5 114.299H208.249V127H220.5V114.299Z" fill="#E2505E"/>
<path d="M220.5 101.604H208.249V114.299H220.5V101.604Z" fill="#E2505E"/>
<path d="M220.5 88.9026H208.249V101.604H220.5V88.9026Z" fill="#E2505E"/>
<path d="M208.249 495.299H195.997V508H208.249V495.299Z" fill="#AA2639"/>
<path d="M208.249 482.597H195.997V495.299H208.249V482.597Z" fill="#AA2639"/>
<path d="M208.249 469.896H195.997V482.597H208.249V469.896Z" fill="#AA2639"/>
<path d="M208.249 457.201H195.997V469.896H208.249V457.201Z" fill="#AA2639"/>
<path d="M208.249 444.5H195.997V457.201H208.249V444.5Z" fill="#7F1D30"/>
<path d="M208.249 431.799H195.997V444.5H208.249V431.799Z" fill="#BC4052"/>
<path d="M208.249 419.097H195.997V431.799H208.249V419.097Z" fill="#BC4052"/>
<path d="M208.249 406.396H195.997V419.097H208.249V406.396Z" fill="#BC4052"/>
<path d="M208.249 393.701H195.997V406.396H208.249V393.701Z" fill="#E2505E"/>
<path d="M208.249 381H195.997V393.701H208.249V381Z" fill="#E2505E"/>
<path d="M208.249 368.299H195.997V381H208.249V368.299Z" fill="#E2505E"/>
<path d="M208.249 355.597H195.997V368.299H208.249V355.597Z" fill="#E2505E"/>
<path d="M208.249 342.903H195.997V355.597H208.249V342.903Z" fill="#E2505E"/>
<path d="M208.249 330.201H195.997V342.903H208.249V330.201Z" fill="#E2505E"/>
<path d="M208.249 317.5H195.997V330.201H208.249V317.5Z" fill="#E2505E"/>
<path d="M208.249 304.799H195.997V317.5H208.249V304.799Z" fill="#E2505E"/>
<path d="M208.249 292.097H195.997V304.799H208.249V292.097Z" fill="#E2505E"/>
<path d="M208.249 279.403H195.997V292.097H208.249V279.403Z" fill="#E2505E"/>
<path d="M208.249 266.701H195.997V279.403H208.249V266.701Z" fill="#E2505E"/>
<path d="M208.249 254H195.997V266.701H208.249V254Z" fill="#E2505E"/>
<path d="M208.249 241.299H195.997V254H208.249V241.299Z" fill="#E2505E"/>
<path d="M208.249 228.597H195.997V241.299H208.249V228.597Z" fill="#E2505E"/>
<path d="M208.249 215.903H195.997V228.597H208.249V215.903Z" fill="#E2505E"/>
<path d="M208.249 203.201H195.997V215.903H208.249V203.201Z" fill="#E2505E"/>
<path d="M208.249 190.5H195.997V203.201H208.249V190.5Z" fill="#E2505E"/>
<path d="M208.249 177.799H195.997V190.5H208.249V177.799Z" fill="#E2505E"/>
<path d="M208.249 165.104H195.997V177.799H208.249V165.104Z" fill="#E2505E"/>
<path d="M208.249 152.403H195.997V165.104H208.249V152.403Z" fill="#E2505E"/>
<path d="M208.249 139.701H195.997V152.403H208.249V139.701Z" fill="#E2505E"/>
<path d="M208.249 127H195.997V139.701H208.249V127Z" fill="#E2505E"/>
<path d="M208.249 114.299H195.997V127H208.249V114.299Z" fill="#E2505E"/>
<path d="M208.249 101.604H195.997V114.299H208.249V101.604Z" fill="#E2505E"/>
<path d="M208.249 88.9026H195.997V101.604H208.249V88.9026Z" fill="#E2505E"/>
<path d="M195.998 495.299H183.746V508H195.998V495.299Z" fill="#AA2639"/>
<path d="M195.998 482.597H183.746V495.299H195.998V482.597Z" fill="#AA2639"/>
<path d="M195.998 469.896H183.746V482.597H195.998V469.896Z" fill="#AA2639"/>
<path d="M195.998 457.201H183.746V469.896H195.998V457.201Z" fill="#AA2639"/>
<path d="M195.998 444.5H183.746V457.201H195.998V444.5Z" fill="#AA2639"/>
<path d="M195.998 431.799H183.746V444.5H195.998V431.799Z" fill="#7F1D30"/>
<path d="M195.998 419.097H183.746V431.799H195.998V419.097Z" fill="#BC4052"/>
<path d="M195.998 406.396H183.746V419.097H195.998V406.396Z" fill="#BC4052"/>
<path d="M195.998 393.701H183.746V406.396H195.998V393.701Z" fill="#BC4052"/>
<path d="M195.998 381H183.746V393.701H195.998V381Z" fill="#BC4052"/>
<path d="M195.998 368.299H183.746V381H195.998V368.299Z" fill="#E2505E"/>
<path d="M195.998 355.597H183.746V368.299H195.998V355.597Z" fill="#E2505E"/>
<path d="M195.998 342.903H183.746V355.597H195.998V342.903Z" fill="#E2505E"/>
<path d="M195.998 330.201H183.746V342.903H195.998V330.201Z" fill="#BC4052"/>
<path d="M195.998 317.5H183.746V330.201H195.998V317.5Z" fill="#BC4052"/>
<path d="M195.998 304.799H183.746V317.5H195.998V304.799Z" fill="#E2505E"/>
<path d="M195.998 292.097H183.746V304.799H195.998V292.097Z" fill="#E2505E"/>
<path d="M195.998 279.403H183.746V292.097H195.998V279.403Z" fill="#E2505E"/>
<path d="M195.998 266.701H183.746V279.403H195.998V266.701Z" fill="#E2505E"/>
<path d="M195.998 254H183.746V266.701H195.998V254Z" fill="#E2505E"/>
<path d="M195.998 241.299H183.746V254H195.998V241.299Z" fill="#E2505E"/>
<path d="M195.998 228.597H183.746V241.299H195.998V228.597Z" fill="#F4E1E1"/>
<path d="M195.998 215.903H183.746V228.597H195.998V215.903Z" fill="#F4E1E1"/>
<path d="M195.998 203.201H183.746V215.903H195.998V203.201Z" fill="#E2505E"/>
<path d="M195.998 190.5H183.746V203.201H195.998V190.5Z" fill="#23282D"/>
<path d="M195.998 177.799H183.746V190.5H195.998V177.799Z" fill="#23282D"/>
<path d="M195.998 165.104H183.746V177.799H195.998V165.104Z" fill="#E2505E"/>
<path d="M195.998 152.403H183.746V165.104H195.998V152.403Z" fill="#E2505E"/>
<path d="M195.998 139.701H183.746V152.403H195.998V139.701Z" fill="#E2505E"/>
<path d="M195.998 127H183.746V139.701H195.998V127Z" fill="#E2505E"/>
<path d="M195.998 114.299H183.746V127H195.998V114.299Z" fill="#E2505E"/>
<path d="M195.998 101.604H183.746V114.299H195.998V101.604Z" fill="#E2505E"/>
<path d="M195.998 88.9026H183.746V101.604H195.998V88.9026Z" fill="#E2505E"/>
<path d="M183.746 482.597H171.501V495.299H183.746V482.597Z" fill="#AA2639"/>
<path d="M183.746 469.896H171.501V482.597H183.746V469.896Z" fill="#AA2639"/>
<path d="M183.746 457.201H171.501V469.896H183.746V457.201Z" fill="#AA2639"/>
<path d="M183.746 444.5H171.501V457.201H183.746V444.5Z" fill="#AA2639"/>
<path d="M183.746 431.799H171.501V444.5H183.746V431.799Z" fill="#7F1D30"/>
<path d="M183.746 419.097H171.501V431.799H183.746V419.097Z" fill="#7F1D30"/>
<path d="M183.746 406.396H171.501V419.097H183.746V406.396Z" fill="#BC4052"/>
<path d="M183.746 393.701H171.501V406.396H183.746V393.701Z" fill="#BC4052"/>
<path d="M183.746 381H171.501V393.701H183.746V381Z" fill="#BC4052"/>
<path d="M183.746 368.299H171.501V381H183.746V368.299Z" fill="#BC4052"/>
<path d="M183.746 355.597H171.501V368.299H183.746V355.597Z" fill="#BC4052"/>
<path d="M183.746 342.903H171.501V355.597H183.746V342.903Z" fill="#BC4052"/>
<path d="M183.746 330.201H171.501V342.903H183.746V330.201Z" fill="#BC4052"/>
<path d="M183.746 317.5H171.501V330.201H183.746V317.5Z" fill="#BC4052"/>
<path d="M183.746 304.799H171.501V317.5H183.746V304.799Z" fill="#BC4052"/>
<path d="M183.746 292.097H171.501V304.799H183.746V292.097Z" fill="#E2505E"/>
<path d="M183.746 279.403H171.501V292.097H183.746V279.403Z" fill="#E2505E"/>
<path d="M183.746 266.701H171.501V279.403H183.746V266.701Z" fill="#E2505E"/>
<path d="M183.746 254H171.501V266.701H183.746V254Z" fill="#E2505E"/>
<path d="M183.746 241.299H171.501V254H183.746V241.299Z" fill="#F4E1E1"/>
<path d="M183.746 228.597H171.501V241.299H183.746V228.597Z" fill="#F4E1E1"/>
<path d="M183.746 215.903H171.501V228.597H183.746V215.903Z" fill="#F4E1E1"/>
<path d="M183.746 203.201H171.501V215.903H183.746V203.201Z" fill="#F4E1E1"/>
<path d="M183.746 190.5H171.501V203.201H183.746V190.5Z" fill="#E2505E"/>
<path d="M183.746 177.799H171.501V190.5H183.746V177.799Z" fill="#23282D"/>
<path d="M183.746 165.104H171.501V177.799H183.746V165.104Z" fill="#E2505E"/>
<path d="M183.746 152.403H171.501V165.104H183.746V152.403Z" fill="#E2505E"/>
<path d="M183.746 139.701H171.501V152.403H183.746V139.701Z" fill="#E2505E"/>
<path d="M183.746 127H171.501V139.701H183.746V127Z" fill="#23282D"/>
<path d="M183.746 114.299H171.501V127H183.746V114.299Z" fill="#E2505E"/>
<path d="M183.746 101.604H171.501V114.299H183.746V101.604Z" fill="#E2505E"/>
<path d="M183.746 88.9026H171.501V101.604H183.746V88.9026Z" fill="#E2505E"/>
<path d="M183.746 50.7987H171.501V63.5H183.746V50.7987Z" fill="#F26E14"/>
<path d="M183.746 38.1039H171.501V50.7987H183.746V38.1039Z" fill="#F26E14"/>
<path d="M171.501 419.097H159.25V431.799H171.501V419.097Z" fill="#7F1D30"/>
<path d="M171.501 406.396H159.25V419.097H171.501V406.396Z" fill="#7F1D30"/>
<path d="M171.501 393.701H159.25V406.396H171.501V393.701Z" fill="#BC4052"/>
<path d="M171.501 381H159.25V393.701H171.501V381Z" fill="#BC4052"/>
<path d="M171.501 368.299H159.25V381H171.501V368.299Z" fill="#BC4052"/>
<path d="M171.501 355.597H159.25V368.299H171.501V355.597Z" fill="#BC4052"/>
<path d="M171.501 342.903H159.25V355.597H171.501V342.903Z" fill="#BC4052"/>
<path d="M171.501 330.201H159.25V342.903H171.501V330.201Z" fill="#BC4052"/>
<path d="M171.501 317.5H159.25V330.201H171.501V317.5Z" fill="#BC4052"/>
<path d="M171.501 304.799H159.25V317.5H171.501V304.799Z" fill="#BC4052"/>
<path d="M171.501 292.097H159.25V304.799H171.501V292.097Z" fill="#E2505E"/>
<path d="M171.501 279.403H159.25V292.097H171.501V279.403Z" fill="#E2505E"/>
<path d="M171.501 266.701H159.25V279.403H171.501V266.701Z" fill="#E2505E"/>
<path d="M171.501 254H159.25V266.701H171.501V254Z" fill="#E2505E"/>
<path d="M171.501 241.299H159.25V254H171.501V241.299Z" fill="#F4E1E1"/>
<path d="M171.501 228.597H159.25V241.299H171.501V228.597Z" fill="#F4E1E1"/>
<path d="M171.501 215.903H159.25V228.597H171.501V215.903Z" fill="#F4E1E1"/>
<path d="M171.501 203.201H159.25V215.903H171.501V203.201Z" fill="#F4E1E1"/>
<path d="M171.501 190.5H159.25V203.201H171.501V190.5Z" fill="#23282D"/>
<path d="M171.501 177.799H159.25V190.5H171.501V177.799Z" fill="#23282D"/>
<path d="M171.501 165.104H159.25V177.799H171.501V165.104Z" fill="#E2505E"/>
<path d="M171.501 152.403H159.25V165.104H171.501V152.403Z" fill="#E2505E"/>
<path d="M171.501 139.701H159.25V152.403H171.501V139.701Z" fill="#E2505E"/>
<path d="M171.501 127H159.25V139.701H171.501V127Z" fill="#23282D"/>
<path d="M171.501 114.299H159.25V127H171.501V114.299Z" fill="#E2505E"/>
<path d="M171.501 101.604H159.25V114.299H171.501V101.604Z" fill="#E2505E"/>
<path d="M171.501 88.9026H159.25V101.604H171.501V88.9026Z" fill="#AA2639"/>
<path d="M171.501 38.1039H159.25V50.7987H171.501V38.1039Z" fill="#F48F42"/>
<path d="M159.25 419.097H146.998V431.799H159.25V419.097Z" fill="#AA2639"/>
<path d="M159.25 406.396H146.998V419.097H159.25V406.396Z" fill="#AA2639"/>
<path d="M159.25 368.299H146.998V381H159.25V368.299Z" fill="#BC4052"/>
<path d="M159.25 355.597H146.998V368.299H159.25V355.597Z" fill="#BC4052"/>
<path d="M159.25 342.903H146.998V355.597H159.25V342.903Z" fill="#BC4052"/>
<path d="M159.25 330.201H146.998V342.903H159.25V330.201Z" fill="#BC4052"/>
<path d="M159.25 304.799H146.998V317.5H159.25V304.799Z" fill="#BC4052"/>
<path d="M159.25 292.097H146.998V304.799H159.25V292.097Z" fill="#BC4052"/>
<path d="M159.25 279.403H146.998V292.097H159.25V279.403Z" fill="#BC4052"/>
<path d="M159.25 266.701H146.998V279.403H159.25V266.701Z" fill="#E2505E"/>
<path d="M159.25 254H146.998V266.701H159.25V254Z" fill="#E2505E"/>
<path d="M159.25 241.299H146.998V254H159.25V241.299Z" fill="#23282D"/>
<path d="M159.25 228.597H146.998V241.299H159.25V228.597Z" fill="#F4E1E1"/>
<path d="M159.25 215.903H146.998V228.597H159.25V215.903Z" fill="#23282D"/>
<path d="M159.25 203.201H146.998V215.903H159.25V203.201Z" fill="#F4E1E1"/>
<path d="M159.25 190.5H146.998V203.201H159.25V190.5Z" fill="#E2505E"/>
<path d="M159.25 177.799H146.998V190.5H159.25V177.799Z" fill="#E2505E"/>
<path d="M159.25 165.104H146.998V177.799H159.25V165.104Z" fill="#E2505E"/>
<path d="M159.25 152.403H146.998V165.104H159.25V152.403Z" fill="#E2505E"/>
<path d="M159.25 139.701H146.998V152.403H159.25V139.701Z" fill="#23282D"/>
<path d="M159.25 127H146.998V139.701H159.25V127Z" fill="#E2505E"/>
<path d="M159.25 114.299H146.998V127H159.25V114.299Z" fill="#E2505E"/>
<path d="M159.25 101.604H146.998V114.299H159.25V101.604Z" fill="#BC4052"/>
<path d="M159.25 88.9026H146.998V101.604H159.25V88.9026Z" fill="#AA2639"/>
<path d="M159.25 76.2013H146.998V88.9026H159.25V76.2013Z" fill="#AA2639"/>
<path d="M159.25 38.1039H146.998V50.7987H159.25V38.1039Z" fill="#F48F42"/>
<path d="M159.25 25.4026H146.998V38.1039H159.25V25.4026Z" fill="#F26E14"/>
<path d="M146.998 419.097H134.747V431.799H146.998V419.097Z" fill="#AA2639"/>
<path d="M146.998 406.396H134.747V419.097H146.998V406.396Z" fill="#AA2639"/>
<path d="M146.998 355.597H134.747V368.299H146.998V355.597Z" fill="#AA2639"/>
<path d="M146.998 342.903H134.747V355.597H146.998V342.903Z" fill="#AA2639"/>
<path d="M146.998 330.201H134.747V342.903H146.998V330.201Z" fill="#AA2639"/>
<path d="M146.998 304.799H134.747V317.5H146.998V304.799Z" fill="#BC4052"/>
<path d="M146.998 292.097H134.747V304.799H146.998V292.097Z" fill="#BC4052"/>
<path d="M146.998 279.403H134.747V292.097H146.998V279.403Z" fill="#BC4052"/>
<path d="M146.998 266.701H134.747V279.403H146.998V266.701Z" fill="#BC4052"/>
<path d="M146.998 254H134.747V266.701H146.998V254Z" fill="#23282D"/>
<path d="M146.998 241.299H134.747V254H146.998V241.299Z" fill="#E2505E"/>
<path d="M146.998 228.597H134.747V241.299H146.998V228.597Z" fill="#F4E1E1"/>
<path d="M146.998 215.903H134.747V228.597H146.998V215.903Z" fill="#F4E1E1"/>
<path d="M146.998 203.201H134.747V215.903H146.998V203.201Z" fill="#23282D"/>
<path d="M146.998 190.5H134.747V203.201H146.998V190.5Z" fill="#E2505E"/>
<path d="M146.998 177.799H134.747V190.5H146.998V177.799Z" fill="#E2505E"/>
<path d="M146.998 165.104H134.747V177.799H146.998V165.104Z" fill="#E2505E"/>
<path d="M146.998 152.403H134.747V165.104H146.998V152.403Z" fill="#E2505E"/>
<path d="M146.998 139.701H134.747V152.403H146.998V139.701Z" fill="#E2505E"/>
<path d="M146.998 127H134.747V139.701H146.998V127Z" fill="#BC4052"/>
<path d="M146.998 114.299H134.747V127H146.998V114.299Z" fill="#BC4052"/>
<path d="M146.998 101.604H134.747V114.299H146.998V101.604Z" fill="#AA2639"/>
<path d="M146.998 88.9026H134.747V101.604H146.998V88.9026Z" fill="#AA2639"/>
<path d="M146.998 76.2013H134.747V88.9026H146.998V76.2013Z" fill="#AA2639"/>
<path d="M134.747 419.097H122.502V431.799H134.747V419.097Z" fill="#AA2639"/>
<path d="M134.747 406.396H122.502V419.097H134.747V406.396Z" fill="#AA2639"/>
<path d="M134.747 355.597H122.502V368.299H134.747V355.597Z" fill="#AA2639"/>
<path d="M134.747 342.903H122.502V355.597H134.747V342.903Z" fill="#AA2639"/>
<path d="M134.747 330.201H122.502V342.903H134.747V330.201Z" fill="#AA2639"/>
<path d="M134.747 292.097H122.502V304.799H134.747V292.097Z" fill="#BC4052"/>
<path d="M134.747 279.403H122.502V292.097H134.747V279.403Z" fill="#BC4052"/>
<path d="M134.747 266.701H122.502V279.403H134.747V266.701Z" fill="#23282D"/>
<path d="M134.747 254H122.502V266.701H134.747V254Z" fill="#BC4052"/>
<path d="M134.747 241.299H122.502V254H134.747V241.299Z" fill="#BC4052"/>
<path d="M134.747 228.597H122.502V241.299H134.747V228.597Z" fill="#23282D"/>
<path d="M134.747 215.903H122.502V228.597H134.747V215.903Z" fill="#BC4052"/>
<path d="M134.747 203.201H122.502V215.903H134.747V203.201Z" fill="#BC4052"/>
<path d="M134.747 190.5H122.502V203.201H134.747V190.5Z" fill="#23282D"/>
<path d="M134.747 177.799H122.502V190.5H134.747V177.799Z" fill="#BC4052"/>
<path d="M134.747 165.104H122.502V177.799H134.747V165.104Z" fill="#BC4052"/>
<path d="M134.747 152.403H122.502V165.104H134.747V152.403Z" fill="#BC4052"/>
<path d="M134.747 139.701H122.502V152.403H134.747V139.701Z" fill="#BC4052"/>
<path d="M134.747 127H122.502V139.701H134.747V127Z" fill="#BC4052"/>
<path d="M134.747 114.299H122.502V127H134.747V114.299Z" fill="#F4E1E1"/>
<path d="M134.747 101.604H122.502V114.299H134.747V101.604Z" fill="#AA2639"/>
<path d="M134.747 88.9026H122.502V101.604H134.747V88.9026Z" fill="#AA2639"/>
<path d="M134.747 76.2013H122.502V88.9026H134.747V76.2013Z" fill="#AA2639"/>
<path d="M134.747 63.5H122.502V76.2013H134.747V63.5Z" fill="#AA2639"/>
<path d="M122.502 406.396H110.25V419.097H122.502V406.396Z" fill="#AA2639"/>
<path d="M122.502 393.701H110.25V406.396H122.502V393.701Z" fill="#AA2639"/>
<path d="M122.502 355.597H110.25V368.299H122.502V355.597Z" fill="#AA2639"/>
<path d="M122.502 342.903H110.25V355.597H122.502V342.903Z" fill="#AA2639"/>
<path d="M122.502 330.201H110.25V342.903H122.502V330.201Z" fill="#AA2639"/>
<path d="M122.502 279.403H110.25V292.097H122.502V279.403Z" fill="#BC4052"/>
<path d="M122.502 266.701H110.25V279.403H122.502V266.701Z" fill="#BC4052"/>
<path d="M122.502 254H110.25V266.701H122.502V254Z" fill="#BC4052"/>
<path d="M122.502 241.299H110.25V254H122.502V241.299Z" fill="#BC4052"/>
<path d="M122.502 228.597H110.25V241.299H122.502V228.597Z" fill="#23282D"/>
<path d="M122.502 215.903H110.25V228.597H122.502V215.903Z" fill="#BC4052"/>
<path d="M122.502 203.201H110.25V215.903H122.502V203.201Z" fill="#BC4052"/>
<path d="M122.502 190.5H110.25V203.201H122.502V190.5Z" fill="#BC4052"/>
<path d="M122.502 177.799H110.25V190.5H122.502V177.799Z" fill="#BC4052"/>
<path d="M122.502 165.104H110.25V177.799H122.502V165.104Z" fill="#BC4052"/>
<path d="M122.502 152.403H110.25V165.104H122.502V152.403Z" fill="#BC4052"/>
<path d="M122.502 139.701H110.25V152.403H122.502V139.701Z" fill="#BC4052"/>
<path d="M122.502 127H110.25V139.701H122.502V127Z" fill="#F4E1E1"/>
<path d="M122.502 114.299H110.25V127H122.502V114.299Z" fill="#F4E1E1"/>
<path d="M122.502 101.604H110.25V114.299H122.502V101.604Z" fill="#F4E1E1"/>
<path d="M122.502 88.9026H110.25V101.604H122.502V88.9026Z" fill="#AA2639"/>
<path d="M122.502 76.2013H110.25V88.9026H122.502V76.2013Z" fill="#AA2639"/>
<path d="M122.502 63.5H110.25V76.2013H122.502V63.5Z" fill="#AA2639"/>
<path d="M110.25 406.396H97.9988V419.097H110.25V406.396Z" fill="#AA2639"/>
<path d="M110.25 393.701H97.9988V406.396H110.25V393.701Z" fill="#AA2639"/>
<path d="M110.25 355.597H97.9988V368.299H110.25V355.597Z" fill="#AA2639"/>
<path d="M110.25 342.903H97.9988V355.597H110.25V342.903Z" fill="#AA2639"/>
<path d="M110.25 330.201H97.9988V342.903H110.25V330.201Z" fill="#AA2639"/>
<path d="M110.25 317.5H97.9988V330.201H110.25V317.5Z" fill="#AA2639"/>
<path d="M110.25 266.701H97.9988V279.403H110.25V266.701Z" fill="#BC4052"/>
<path d="M110.25 254H97.9988V266.701H110.25V254Z" fill="#BC4052"/>
<path d="M110.25 241.299H97.9988V254H110.25V241.299Z" fill="#BC4052"/>
<path d="M110.25 228.597H97.9988V241.299H110.25V228.597Z" fill="#BC4052"/>
<path d="M110.25 215.903H97.9988V228.597H110.25V215.903Z" fill="#BC4052"/>
<path d="M110.25 203.201H97.9988V215.903H110.25V203.201Z" fill="#BC4052"/>
<path d="M110.25 190.5H97.9988V203.201H110.25V190.5Z" fill="#BC4052"/>
<path d="M110.25 177.799H97.9988V190.5H110.25V177.799Z" fill="#BC4052"/>
<path d="M110.25 165.104H97.9988V177.799H110.25V165.104Z" fill="#BC4052"/>
<path d="M110.25 152.403H97.9988V165.104H110.25V152.403Z" fill="#BC4052"/>
<path d="M110.25 139.701H97.9988V152.403H110.25V139.701Z" fill="#F4E1E1"/>
<path d="M110.25 127H97.9988V139.701H110.25V127Z" fill="#F4E1E1"/>
<path d="M110.25 114.299H97.9988V127H110.25V114.299Z" fill="#F4E1E1"/>
<path d="M110.25 101.604H97.9988V114.299H110.25V101.604Z" fill="#F4E1E1"/>
<path d="M110.25 88.9026H97.9988V101.604H110.25V88.9026Z" fill="#F4E1E1"/>
<path d="M110.25 76.2013H97.9988V88.9026H110.25V76.2013Z" fill="#AA2639"/>
<path d="M110.25 63.5H97.9988V76.2013H110.25V63.5Z" fill="#AA2639"/>
<path d="M110.25 38.1039H97.9988V50.7987H110.25V38.1039Z" fill="#FF6700"/>
<path d="M97.9987 406.396H85.7473V419.097H97.9987V406.396Z" fill="#AA2639"/>
<path d="M97.9987 393.701H85.7473V406.396H97.9987V393.701Z" fill="#AA2639"/>
<path d="M97.9987 342.903H85.7473V355.597H97.9987V342.903Z" fill="#AA2639"/>
<path d="M97.9987 330.201H85.7473V342.903H97.9987V330.201Z" fill="#AA2639"/>
<path d="M97.9987 317.5H85.7473V330.201H97.9987V317.5Z" fill="#AA2639"/>
<path d="M97.9987 254H85.7473V266.701H97.9987V254Z" fill="#BC4052"/>
<path d="M97.9987 241.299H85.7473V254H97.9987V241.299Z" fill="#BC4052"/>
<path d="M97.9987 228.597H85.7473V241.299H97.9987V228.597Z" fill="#BC4052"/>
<path d="M97.9987 215.903H85.7473V228.597H97.9987V215.903Z" fill="#BC4052"/>
<path d="M97.9987 203.201H85.7473V215.903H97.9987V203.201Z" fill="#BC4052"/>
<path d="M97.9987 190.5H85.7473V203.201H97.9987V190.5Z" fill="#BC4052"/>
<path d="M97.9987 177.799H85.7473V190.5H97.9987V177.799Z" fill="#BC4052"/>
<path d="M97.9987 152.403H85.7473V165.104H97.9987V152.403Z" fill="#F4E1E1"/>
<path d="M97.9987 139.701H85.7473V152.403H97.9987V139.701Z" fill="#F4E1E1"/>
<path d="M97.9987 127H85.7473V139.701H97.9987V127Z" fill="#F4E1E1"/>
<path d="M97.9987 114.299H85.7473V127H97.9987V114.299Z" fill="#F4E1E1"/>
<path d="M97.9987 101.604H85.7473V114.299H97.9987V101.604Z" fill="#F4E1E1"/>
<path d="M97.9987 88.9026H85.7473V101.604H97.9987V88.9026Z" fill="#F4E1E1"/>
<path d="M97.9987 76.2013H85.7473V88.9026H97.9987V76.2013Z" fill="#AA2639"/>
<path d="M85.7474 406.396H73.496V419.097H85.7474V406.396Z" fill="#AA2639"/>
<path d="M85.7474 393.701H73.496V406.396H85.7474V393.701Z" fill="#AA2639"/>
<path d="M85.7474 342.903H73.496V355.597H85.7474V342.903Z" fill="#AA2639"/>
<path d="M85.7474 330.201H73.496V342.903H85.7474V330.201Z" fill="#AA2639"/>
<path d="M85.7474 317.5H73.496V330.201H85.7474V317.5Z" fill="#AA2639"/>
<path d="M85.7474 304.799H73.496V317.5H85.7474V304.799Z" fill="#AA2639"/>
<path d="M85.7474 292.097H73.496V304.799H85.7474V292.097Z" fill="#AA2639"/>
<path d="M85.7474 279.403H73.496V292.097H85.7474V279.403Z" fill="#F48F42"/>
<path d="M85.7474 228.597H73.496V241.299H85.7474V228.597Z" fill="#BC4052"/>
<path d="M85.7474 215.903H73.496V228.597H85.7474V215.903Z" fill="#BC4052"/>
<path d="M85.7474 203.201H73.496V215.903H85.7474V203.201Z" fill="#BC4052"/>
<path d="M85.7474 165.104H73.496V177.799H85.7474V165.104Z" fill="#F26E14"/>
<path d="M85.7474 127H73.496V139.701H85.7474V127Z" fill="#F4E1E1"/>
<path d="M85.7474 114.299H73.496V127H85.7474V114.299Z" fill="#F4E1E1"/>
<path d="M85.7474 101.604H73.496V114.299H85.7474V101.604Z" fill="#F4E1E1"/>
<path d="M85.7474 88.9026H73.496V101.604H85.7474V88.9026Z" fill="#F4E1E1"/>
<path d="M85.7474 76.2013H73.496V88.9026H85.7474V76.2013Z" fill="#AA2639"/>
<path d="M73.496 406.396H61.2508V419.097H73.496V406.396Z" fill="#AA2639"/>
<path d="M73.496 393.701H61.2508V406.396H73.496V393.701Z" fill="#AA2639"/>
<path d="M73.496 330.201H61.2508V342.903H73.496V330.201Z" fill="#AA2639"/>
<path d="M73.496 317.5H61.2508V330.201H73.496V317.5Z" fill="#AA2639"/>
<path d="M73.496 304.799H61.2508V317.5H73.496V304.799Z" fill="#AA2639"/>
<path d="M73.496 292.097H61.2508V304.799H73.496V292.097Z" fill="#AA2639"/>
<path d="M73.496 279.403H61.2508V292.097H73.496V279.403Z" fill="#F26E14"/>
<path d="M73.496 165.104H61.2508V177.799H73.496V165.104Z" fill="#F48F42"/>
<path d="M73.496 12.7013H61.2508V25.4026H73.496V12.7013Z" fill="#FF6700"/>
<path d="M61.2508 406.396H48.9994V419.097H61.2508V406.396Z" fill="#E2505E"/>
<path d="M61.2508 393.701H48.9994V406.396H61.2508V393.701Z" fill="#AA2639"/>
<path d="M61.2508 317.5H48.9994V330.201H61.2508V317.5Z" fill="#AA2639"/>
<path d="M61.2508 304.799H48.9994V317.5H61.2508V304.799Z" fill="#AA2639"/>
<path d="M61.2508 292.097H48.9994V304.799H61.2508V292.097Z" fill="#AA2639"/>
<path d="M61.2508 228.597H48.9994V241.299H61.2508V228.597Z" fill="#F48F42"/>
<path d="M61.2508 165.104H48.9994V177.799H61.2508V165.104Z" fill="#F48F42"/>
<path d="M61.2508 152.403H48.9994V165.104H61.2508V152.403Z" fill="#F26E14"/>
<path d="M48.9994 419.097H36.748V431.799H48.9994V419.097Z" fill="#E2505E"/>
<path d="M48.9994 406.396H36.748V419.097H48.9994V406.396Z" fill="#E2505E"/>
<path d="M48.9994 393.701H36.748V406.396H48.9994V393.701Z" fill="#E2505E"/>
<path d="M48.9994 228.597H36.748V241.299H48.9994V228.597Z" fill="#F26E14"/>
<path d="M48.9994 215.903H36.748V228.597H48.9994V215.903Z" fill="#F26E14"/>
<path d="M48.9994 152.403H36.748V165.104H48.9994V152.403Z" fill="#F26E14"/>
<path d="M48.9994 101.604H36.748V114.299H48.9994V101.604Z" fill="#FF6700"/>
<path d="M36.748 419.097H24.4966V431.799H36.748V419.097Z" fill="#E2505E"/>
<path d="M36.748 406.396H24.4966V419.097H36.748V406.396Z" fill="#E2505E"/>
<path d="M36.748 215.903H24.4966V228.597H36.748V215.903Z" fill="#F26E14"/>
<path d="M36.748 63.5H24.4966V76.2013H36.748V63.5Z" fill="#FF6700"/>
<path d="M12.2452 254H0V266.701H12.2452V254Z" fill="#FF6700"/>
<path d="M12.2452 165.104H0V177.799H12.2452V165.104Z" fill="#FF6700"/>
</svg>
