<svg width="392" height="479" viewBox="0 0 392 479" fill="none" xmlns="http://www.w3.org/2000/svg">
<path d="M392 128.509H380.799V140.193H392V128.509Z" fill="#EBC434"/>
<path d="M369.598 186.924H358.397V198.608H369.598V186.924Z" fill="#F5D141"/>
<path d="M369.598 163.562H358.397V175.24H369.598V163.562Z" fill="#F5D141"/>
<path d="M358.397 268.708H347.201V280.386H358.397V268.708Z" fill="#964CC1"/>
<path d="M358.397 257.023H347.201V268.708H358.397V257.023Z" fill="#964CC1"/>
<path d="M358.397 245.339H347.201V257.023H358.397V245.339Z" fill="#964CC1"/>
<path d="M358.397 175.24H347.201V186.924H358.397V175.24Z" fill="#F5D141"/>
<path d="M358.397 128.509H347.201V140.193H358.397V128.509Z" fill="#73F4DB"/>
<path d="M358.397 116.824H347.201V128.509H358.397V116.824Z" fill="#73F4DB"/>
<path d="M358.397 105.146H347.201V116.825H358.397V105.146Z" fill="#73F4DB"/>
<path d="M358.397 93.4619H347.201V105.146H358.397V93.4619Z" fill="#73F4DB"/>
<path d="M358.397 81.7778H347.201V93.4621H358.397V81.7778Z" fill="#964CC1"/>
<path d="M347.201 280.386H336V292.07H347.201V280.386Z" fill="#964CC1"/>
<path d="M347.201 268.708H336V280.386H347.201V268.708Z" fill="#964CC1"/>
<path d="M347.201 257.023H336V268.708H347.201V257.023Z" fill="#964CC1"/>
<path d="M347.201 245.339H336V257.023H347.201V245.339Z" fill="#964CC1"/>
<path d="M347.201 233.655H336V245.339H347.201V233.655Z" fill="#964CC1"/>
<path d="M347.201 221.971H336V233.655H347.201V221.971Z" fill="#CB9FFF"/>
<path d="M347.201 210.292H336V221.971H347.201V210.292Z" fill="#F5D141"/>
<path d="M347.201 198.608H336V210.292H347.201V198.608Z" fill="#CB9FFF"/>
<path d="M347.201 186.924H336V198.608H347.201V186.924Z" fill="#F5D141"/>
<path d="M347.201 175.24H336V186.924H347.201V175.24Z" fill="#F5D141"/>
<path d="M347.201 163.562H336V175.24H347.201V163.562Z" fill="#F5D141"/>
<path d="M347.201 140.193H336V151.877H347.201V140.193Z" fill="#F5D141"/>
<path d="M347.201 128.509H336V140.193H347.201V128.509Z" fill="#73F4DB"/>
<path d="M347.201 116.824H336V128.509H347.201V116.824Z" fill="#73F4DB"/>
<path d="M347.201 105.146H336V116.825H347.201V105.146Z" fill="#73F4DB"/>
<path d="M347.201 93.4619H336V105.146H347.201V93.4619Z" fill="#73F4DB"/>
<path d="M347.201 81.7778H336V93.4621H347.201V81.7778Z" fill="#964CC1"/>
<path d="M347.201 70.0935H336V81.7777H347.201V70.0935Z" fill="#964CC1"/>
<path d="M336 292.07H324.799V303.754H336V292.07Z" fill="#964CC1"/>
<path d="M336 280.386H324.799V292.07H336V280.386Z" fill="#964CC1"/>
<path d="M336 268.708H324.799V280.386H336V268.708Z" fill="#964CC1"/>
<path d="M336 257.023H324.799V268.708H336V257.023Z" fill="#964CC1"/>
<path d="M336 245.339H324.799V257.023H336V245.339Z" fill="#964CC1"/>
<path d="M336 233.655H324.799V245.339H336V233.655Z" fill="#964CC1"/>
<path d="M336 221.971H324.799V233.655H336V221.971Z" fill="#CB9FFF"/>
<path d="M336 210.292H324.799V221.971H336V210.292Z" fill="#CB9FFF"/>
<path d="M336 198.608H324.799V210.292H336V198.608Z" fill="#CB9FFF"/>
<path d="M336 186.924H324.799V198.608H336V186.924Z" fill="#CB9FFF"/>
<path d="M336 175.24H324.799V186.924H336V175.24Z" fill="#F5D141"/>
<path d="M336 163.562H324.799V175.24H336V163.562Z" fill="#CB9FFF"/>
<path d="M336 151.877H324.799V163.561H336V151.877Z" fill="#CB9FFF"/>
<path d="M336 140.193H324.799V151.877H336V140.193Z" fill="#73F4DB"/>
<path d="M336 128.509H324.799V140.193H336V128.509Z" fill="#73F4DB"/>
<path d="M336 116.824H324.799V128.509H336V116.824Z" fill="#73F4DB"/>
<path d="M336 105.146H324.799V116.825H336V105.146Z" fill="#73F4DB"/>
<path d="M336 93.4619H324.799V105.146H336V93.4619Z" fill="#73F4DB"/>
<path d="M336 81.7778H324.799V93.4621H336V81.7778Z" fill="#964CC1"/>
<path d="M336 70.0935H324.799V81.7777H336V70.0935Z" fill="#964CC1"/>
<path d="M324.799 303.754H313.598V315.439H324.799V303.754Z" fill="#964CC1"/>
<path d="M324.799 292.07H313.598V303.754H324.799V292.07Z" fill="#964CC1"/>
<path d="M324.799 280.386H313.598V292.07H324.799V280.386Z" fill="#964CC1"/>
<path d="M324.799 268.708H313.598V280.386H324.799V268.708Z" fill="#964CC1"/>
<path d="M324.799 257.023H313.598V268.708H324.799V257.023Z" fill="#964CC1"/>
<path d="M324.799 245.339H313.598V257.023H324.799V245.339Z" fill="#964CC1"/>
<path d="M324.799 233.655H313.598V245.339H324.799V233.655Z" fill="#CB9FFF"/>
<path d="M324.799 221.971H313.598V233.655H324.799V221.971Z" fill="#CB9FFF"/>
<path d="M324.799 210.292H313.598V221.971H324.799V210.292Z" fill="#CB9FFF"/>
<path d="M324.799 198.608H313.598V210.292H324.799V198.608Z" fill="#CB9FFF"/>
<path d="M324.799 186.924H313.598V198.608H324.799V186.924Z" fill="#F5D141"/>
<path d="M324.799 175.24H313.598V186.924H324.799V175.24Z" fill="#CB9FFF"/>
<path d="M324.799 163.562H313.598V175.24H324.799V163.562Z" fill="#F5D141"/>
<path d="M324.799 151.877H313.598V163.561H324.799V151.877Z" fill="#CB9FFF"/>
<path d="M324.799 140.193H313.598V151.877H324.799V140.193Z" fill="#CB9FFF"/>
<path d="M324.799 128.509H313.598V140.193H324.799V128.509Z" fill="#73F4DB"/>
<path d="M324.799 116.824H313.598V128.509H324.799V116.824Z" fill="#73F4DB"/>
<path d="M324.799 105.146H313.598V116.825H324.799V105.146Z" fill="#73F4DB"/>
<path d="M324.799 93.4619H313.598V105.146H324.799V93.4619Z" fill="#964CC1"/>
<path d="M324.799 81.7778H313.598V93.4621H324.799V81.7778Z" fill="#964CC1"/>
<path d="M324.799 70.0935H313.598V81.7777H324.799V70.0935Z" fill="#964CC1"/>
<path d="M313.598 315.438H302.397V327.123H313.598V315.438Z" fill="#964CC1"/>
<path d="M313.598 303.754H302.397V315.439H313.598V303.754Z" fill="#964CC1"/>
<path d="M313.598 292.07H302.397V303.754H313.598V292.07Z" fill="#964CC1"/>
<path d="M313.598 280.386H302.397V292.07H313.598V280.386Z" fill="#964CC1"/>
<path d="M313.598 268.708H302.397V280.386H313.598V268.708Z" fill="#CB9FFF"/>
<path d="M313.598 257.023H302.397V268.708H313.598V257.023Z" fill="#CB9FFF"/>
<path d="M313.598 245.339H302.397V257.023H313.598V245.339Z" fill="#CB9FFF"/>
<path d="M313.598 233.655H302.397V245.339H313.598V233.655Z" fill="#CB9FFF"/>
<path d="M313.598 221.971H302.397V233.655H313.598V221.971Z" fill="#18314C"/>
<path d="M313.598 210.292H302.397V221.971H313.598V210.292Z" fill="#CB9FFF"/>
<path d="M313.598 198.608H302.397V210.292H313.598V198.608Z" fill="#CB9FFF"/>
<path d="M313.598 186.924H302.397V198.608H313.598V186.924Z" fill="#CB9FFF"/>
<path d="M313.598 175.24H302.397V186.924H313.598V175.24Z" fill="#CB9FFF"/>
<path d="M313.598 163.562H302.397V175.24H313.598V163.562Z" fill="#CB9FFF"/>
<path d="M313.598 151.877H302.397V163.561H313.598V151.877Z" fill="#CB9FFF"/>
<path d="M313.598 140.193H302.397V151.877H313.598V140.193Z" fill="#CB9FFF"/>
<path d="M313.598 128.509H302.397V140.193H313.598V128.509Z" fill="#CB9FFF"/>
<path d="M313.598 116.824H302.397V128.509H313.598V116.824Z" fill="#73F4DB"/>
<path d="M313.598 105.146H302.397V116.825H313.598V105.146Z" fill="#964CC1"/>
<path d="M313.598 93.4619H302.397V105.146H313.598V93.4619Z" fill="#964CC1"/>
<path d="M313.598 81.7778H302.397V93.4621H313.598V81.7778Z" fill="#964CC1"/>
<path d="M313.598 70.0935H302.397V81.7777H313.598V70.0935Z" fill="#964CC1"/>
<path d="M302.397 443.947H291.201V455.631H302.397V443.947Z" fill="#964CC1"/>
<path d="M302.397 432.269H291.201V443.947H302.397V432.269Z" fill="#964CC1"/>
<path d="M302.397 420.585H291.201V432.269H302.397V420.585Z" fill="#964CC1"/>
<path d="M302.397 408.901H291.201V420.585H302.397V408.901Z" fill="#964CC1"/>
<path d="M302.397 327.123H291.201V338.801H302.397V327.123Z" fill="#964CC1"/>
<path d="M302.397 315.438H291.201V327.123H302.397V315.438Z" fill="#964CC1"/>
<path d="M302.397 303.754H291.201V315.439H302.397V303.754Z" fill="#964CC1"/>
<path d="M302.397 292.07H291.201V303.754H302.397V292.07Z" fill="#964CC1"/>
<path d="M302.397 280.386H291.201V292.07H302.397V280.386Z" fill="#CB9FFF"/>
<path d="M302.397 268.708H291.201V280.386H302.397V268.708Z" fill="#CB9FFF"/>
<path d="M302.397 257.023H291.201V268.708H302.397V257.023Z" fill="#18314C"/>
<path d="M302.397 245.339H291.201V257.023H302.397V245.339Z" fill="#CB9FFF"/>
<path d="M302.397 233.655H291.201V245.339H302.397V233.655Z" fill="#CB9FFF"/>
<path d="M302.397 221.971H291.201V233.655H302.397V221.971Z" fill="#18314C"/>
<path d="M302.397 210.292H291.201V221.971H302.397V210.292Z" fill="#CB9FFF"/>
<path d="M302.397 198.608H291.201V210.292H302.397V198.608Z" fill="#CB9FFF"/>
<path d="M302.397 186.924H291.201V198.608H302.397V186.924Z" fill="#18314C"/>
<path d="M302.397 175.24H291.201V186.924H302.397V175.24Z" fill="#CB9FFF"/>
<path d="M302.397 163.562H291.201V175.24H302.397V163.562Z" fill="#CB9FFF"/>
<path d="M302.397 151.877H291.201V163.561H302.397V151.877Z" fill="#CB9FFF"/>
<path d="M302.397 140.193H291.201V151.877H302.397V140.193Z" fill="#CB9FFF"/>
<path d="M302.397 128.509H291.201V140.193H302.397V128.509Z" fill="#CB9FFF"/>
<path d="M302.397 116.824H291.201V128.509H302.397V116.824Z" fill="#CB9FFF"/>
<path d="M302.397 105.146H291.201V116.825H302.397V105.146Z" fill="#964CC1"/>
<path d="M302.397 93.4619H291.201V105.146H302.397V93.4619Z" fill="#964CC1"/>
<path d="M302.397 81.7778H291.201V93.4621H302.397V81.7778Z" fill="#964CC1"/>
<path d="M291.201 455.632H280V467.316H291.201V455.632Z" fill="#964CC1"/>
<path d="M291.201 443.947H280V455.631H291.201V443.947Z" fill="#964CC1"/>
<path d="M291.201 432.269H280V443.947H291.201V432.269Z" fill="#964CC1"/>
<path d="M291.201 420.585H280V432.269H291.201V420.585Z" fill="#F5D141"/>
<path d="M291.201 408.901H280V420.585H291.201V408.901Z" fill="#964CC1"/>
<path d="M291.201 397.216H280V408.901H291.201V397.216Z" fill="#964CC1"/>
<path d="M291.201 385.532H280V397.216H291.201V385.532Z" fill="#6E3399"/>
<path d="M291.201 350.485H280V362.17H291.201V350.485Z" fill="#CB9FFF"/>
<path d="M291.201 338.801H280V350.485H291.201V338.801Z" fill="#CB9FFF"/>
<path d="M291.201 327.123H280V338.801H291.201V327.123Z" fill="#964CC1"/>
<path d="M291.201 315.438H280V327.123H291.201V315.438Z" fill="#964CC1"/>
<path d="M291.201 303.754H280V315.439H291.201V303.754Z" fill="#964CC1"/>
<path d="M291.201 292.07H280V303.754H291.201V292.07Z" fill="#CB9FFF"/>
<path d="M291.201 280.386H280V292.07H291.201V280.386Z" fill="#CB9FFF"/>
<path d="M291.201 268.708H280V280.386H291.201V268.708Z" fill="#CB9FFF"/>
<path d="M291.201 257.023H280V268.708H291.201V257.023Z" fill="#CB9FFF"/>
<path d="M291.201 245.339H280V257.023H291.201V245.339Z" fill="#18314C"/>
<path d="M291.201 233.655H280V245.339H291.201V233.655Z" fill="#CB9FFF"/>
<path d="M291.201 221.971H280V233.655H291.201V221.971Z" fill="#73F4DB"/>
<path d="M291.201 210.292H280V221.971H291.201V210.292Z" fill="#73F4DB"/>
<path d="M291.201 198.608H280V210.292H291.201V198.608Z" fill="#18314C"/>
<path d="M291.201 186.924H280V198.608H291.201V186.924Z" fill="#CB9FFF"/>
<path d="M291.201 175.24H280V186.924H291.201V175.24Z" fill="#CB9FFF"/>
<path d="M291.201 163.562H280V175.24H291.201V163.562Z" fill="#CB9FFF"/>
<path d="M291.201 151.877H280V163.561H291.201V151.877Z" fill="#CB9FFF"/>
<path d="M291.201 140.193H280V151.877H291.201V140.193Z" fill="#CB9FFF"/>
<path d="M291.201 128.509H280V140.193H291.201V128.509Z" fill="#CB9FFF"/>
<path d="M291.201 116.824H280V128.509H291.201V116.824Z" fill="#CB9FFF"/>
<path d="M291.201 105.146H280V116.825H291.201V105.146Z" fill="#964CC1"/>
<path d="M291.201 93.4619H280V105.146H291.201V93.4619Z" fill="#964CC1"/>
<path d="M291.201 81.7778H280V93.4621H291.201V81.7778Z" fill="#964CC1"/>
<path d="M280 455.632H268.799V467.316H280V455.632Z" fill="#964CC1"/>
<path d="M280 443.947H268.799V455.631H280V443.947Z" fill="#964CC1"/>
<path d="M280 432.269H268.799V443.947H280V432.269Z" fill="#F5D141"/>
<path d="M280 420.585H268.799V432.269H280V420.585Z" fill="#F5D141"/>
<path d="M280 408.901H268.799V420.585H280V408.901Z" fill="#F5D141"/>
<path d="M280 397.216H268.799V408.901H280V397.216Z" fill="#6E3399"/>
<path d="M280 385.532H268.799V397.216H280V385.532Z" fill="#6E3399"/>
<path d="M280 373.854H268.799V385.532H280V373.854Z" fill="#CB9FFF"/>
<path d="M280 362.17H268.799V373.854H280V362.17Z" fill="#CB9FFF"/>
<path d="M280 350.485H268.799V362.17H280V350.485Z" fill="#CB9FFF"/>
<path d="M280 338.801H268.799V350.485H280V338.801Z" fill="#CB9FFF"/>
<path d="M280 327.123H268.799V338.801H280V327.123Z" fill="#CB9FFF"/>
<path d="M280 315.438H268.799V327.123H280V315.438Z" fill="#CB9FFF"/>
<path d="M280 303.754H268.799V315.439H280V303.754Z" fill="#CB9FFF"/>
<path d="M280 292.07H268.799V303.754H280V292.07Z" fill="#CB9FFF"/>
<path d="M280 280.386H268.799V292.07H280V280.386Z" fill="#CB9FFF"/>
<path d="M280 268.708H268.799V280.386H280V268.708Z" fill="#CB9FFF"/>
<path d="M280 257.023H268.799V268.708H280V257.023Z" fill="#CB9FFF"/>
<path d="M280 245.339H268.799V257.023H280V245.339Z" fill="#CB9FFF"/>
<path d="M280 233.655H268.799V245.339H280V233.655Z" fill="#18314C"/>
<path d="M280 221.971H268.799V233.655H280V221.971Z" fill="#73F4DB"/>
<path d="M280 210.292H268.799V221.971H280V210.292Z" fill="#18314C"/>
<path d="M280 198.608H268.799V210.292H280V198.608Z" fill="#73F4DB"/>
<path d="M280 186.924H268.799V198.608H280V186.924Z" fill="#CB9FFF"/>
<path d="M280 175.24H268.799V186.924H280V175.24Z" fill="#CB9FFF"/>
<path d="M280 163.562H268.799V175.24H280V163.562Z" fill="#CB9FFF"/>
<path d="M280 151.877H268.799V163.561H280V151.877Z" fill="#CB9FFF"/>
<path d="M280 140.193H268.799V151.877H280V140.193Z" fill="#CB9FFF"/>
<path d="M280 128.509H268.799V140.193H280V128.509Z" fill="#CB9FFF"/>
<path d="M280 116.824H268.799V128.509H280V116.824Z" fill="#CB9FFF"/>
<path d="M280 105.146H268.799V116.825H280V105.146Z" fill="#CB9FFF"/>
<path d="M280 93.4619H268.799V105.146H280V93.4619Z" fill="#964CC1"/>
<path d="M268.799 455.632H257.598V467.316H268.799V455.632Z" fill="#964CC1"/>
<path d="M268.799 443.947H257.598V455.631H268.799V443.947Z" fill="#964CC1"/>
<path d="M268.799 420.585H257.598V432.269H268.799V420.585Z" fill="#F5D141"/>
<path d="M268.799 408.901H257.598V420.585H268.799V408.901Z" fill="#6E3399"/>
<path d="M268.799 397.216H257.598V408.901H268.799V397.216Z" fill="#6E3399"/>
<path d="M268.799 385.532H257.598V397.216H268.799V385.532Z" fill="#CB9FFF"/>
<path d="M268.799 373.854H257.598V385.532H268.799V373.854Z" fill="#CB9FFF"/>
<path d="M268.799 362.17H257.598V373.854H268.799V362.17Z" fill="#CB9FFF"/>
<path d="M268.799 350.485H257.598V362.17H268.799V350.485Z" fill="#CB9FFF"/>
<path d="M268.799 338.801H257.598V350.485H268.799V338.801Z" fill="#CB9FFF"/>
<path d="M268.799 327.123H257.598V338.801H268.799V327.123Z" fill="#CB9FFF"/>
<path d="M268.799 315.438H257.598V327.123H268.799V315.438Z" fill="#CB9FFF"/>
<path d="M268.799 303.754H257.598V315.439H268.799V303.754Z" fill="#CB9FFF"/>
<path d="M268.799 292.07H257.598V303.754H268.799V292.07Z" fill="#CB9FFF"/>
<path d="M268.799 280.386H257.598V292.07H268.799V280.386Z" fill="#CB9FFF"/>
<path d="M268.799 268.708H257.598V280.386H268.799V268.708Z" fill="#CB9FFF"/>
<path d="M268.799 257.023H257.598V268.708H268.799V257.023Z" fill="#CB9FFF"/>
<path d="M268.799 245.339H257.598V257.023H268.799V245.339Z" fill="#CB9FFF"/>
<path d="M268.799 233.655H257.598V245.339H268.799V233.655Z" fill="#73F4DB"/>
<path d="M268.799 221.971H257.598V233.655H268.799V221.971Z" fill="#73F4DB"/>
<path d="M268.799 210.292H257.598V221.971H268.799V210.292Z" fill="#73F4DB"/>
<path d="M268.799 198.608H257.598V210.292H268.799V198.608Z" fill="#73F4DB"/>
<path d="M268.799 186.924H257.598V198.608H268.799V186.924Z" fill="#18314C"/>
<path d="M268.799 175.24H257.598V186.924H268.799V175.24Z" fill="#18314C"/>
<path d="M268.799 163.562H257.598V175.24H268.799V163.562Z" fill="#CB9FFF"/>
<path d="M268.799 151.877H257.598V163.561H268.799V151.877Z" fill="#CB9FFF"/>
<path d="M268.799 140.193H257.598V151.877H268.799V140.193Z" fill="#18314C"/>
<path d="M268.799 128.509H257.598V140.193H268.799V128.509Z" fill="#CB9FFF"/>
<path d="M268.799 116.824H257.598V128.509H268.799V116.824Z" fill="#CB9FFF"/>
<path d="M268.799 105.146H257.598V116.825H268.799V105.146Z" fill="#CB9FFF"/>
<path d="M268.799 93.4619H257.598V105.146H268.799V93.4619Z" fill="#CB9FFF"/>
<path d="M268.799 81.7778H257.598V93.4621H268.799V81.7778Z" fill="#F5D141"/>
<path d="M257.598 408.901H246.402V420.585H257.598V408.901Z" fill="#B68EEF"/>
<path d="M257.598 397.216H246.402V408.901H257.598V397.216Z" fill="#CB9FFF"/>
<path d="M257.598 385.532H246.402V397.216H257.598V385.532Z" fill="#CB9FFF"/>
<path d="M257.598 373.854H246.402V385.532H257.598V373.854Z" fill="#CB9FFF"/>
<path d="M257.598 362.17H246.402V373.854H257.598V362.17Z" fill="#CB9FFF"/>
<path d="M257.598 350.485H246.402V362.17H257.598V350.485Z" fill="#CB9FFF"/>
<path d="M257.598 338.801H246.402V350.485H257.598V338.801Z" fill="#CB9FFF"/>
<path d="M257.598 327.123H246.402V338.801H257.598V327.123Z" fill="#CB9FFF"/>
<path d="M257.598 315.438H246.402V327.123H257.598V315.438Z" fill="#CB9FFF"/>
<path d="M257.598 303.754H246.402V315.439H257.598V303.754Z" fill="#CB9FFF"/>
<path d="M257.598 292.07H246.402V303.754H257.598V292.07Z" fill="#CB9FFF"/>
<path d="M257.598 280.386H246.402V292.07H257.598V280.386Z" fill="#CB9FFF"/>
<path d="M257.598 268.708H246.402V280.386H257.598V268.708Z" fill="#CB9FFF"/>
<path d="M257.598 257.023H246.402V268.708H257.598V257.023Z" fill="#CB9FFF"/>
<path d="M257.598 245.339H246.402V257.023H257.598V245.339Z" fill="#CB9FFF"/>
<path d="M257.598 233.655H246.402V245.339H257.598V233.655Z" fill="#73F4DB"/>
<path d="M257.598 221.971H246.402V233.655H257.598V221.971Z" fill="#73F4DB"/>
<path d="M257.598 210.292H246.402V221.971H257.598V210.292Z" fill="#73F4DB"/>
<path d="M257.598 198.608H246.402V210.292H257.598V198.608Z" fill="#73F4DB"/>
<path d="M257.598 186.924H246.402V198.608H257.598V186.924Z" fill="#CB9FFF"/>
<path d="M257.598 175.24H246.402V186.924H257.598V175.24Z" fill="#18314C"/>
<path d="M257.598 163.562H246.402V175.24H257.598V163.562Z" fill="#CB9FFF"/>
<path d="M257.598 151.877H246.402V163.561H257.598V151.877Z" fill="#CB9FFF"/>
<path d="M257.598 140.193H246.402V151.877H257.598V140.193Z" fill="#CB9FFF"/>
<path d="M257.598 128.509H246.402V140.193H257.598V128.509Z" fill="#18314C"/>
<path d="M257.598 116.824H246.402V128.509H257.598V116.824Z" fill="#CB9FFF"/>
<path d="M257.598 105.146H246.402V116.825H257.598V105.146Z" fill="#CB9FFF"/>
<path d="M257.598 93.4619H246.402V105.146H257.598V93.4619Z" fill="#CB9FFF"/>
<path d="M257.598 81.7778H246.402V93.4621H257.598V81.7778Z" fill="#F5D141"/>
<path d="M257.598 70.0935H246.402V81.7777H257.598V70.0935Z" fill="#F5D141"/>
<path d="M246.402 408.901H235.201V420.585H246.402V408.901Z" fill="#CB9FFF"/>
<path d="M246.402 397.216H235.201V408.901H246.402V397.216Z" fill="#CB9FFF"/>
<path d="M246.402 385.532H235.201V397.216H246.402V385.532Z" fill="#CB9FFF"/>
<path d="M246.402 373.854H235.201V385.532H246.402V373.854Z" fill="#CB9FFF"/>
<path d="M246.402 362.17H235.201V373.854H246.402V362.17Z" fill="#CB9FFF"/>
<path d="M246.402 350.485H235.201V362.17H246.402V350.485Z" fill="#CB9FFF"/>
<path d="M246.402 338.801H235.201V350.485H246.402V338.801Z" fill="#CB9FFF"/>
<path d="M246.402 327.123H235.201V338.801H246.402V327.123Z" fill="#CB9FFF"/>
<path d="M246.402 315.438H235.201V327.123H246.402V315.438Z" fill="#CB9FFF"/>
<path d="M246.402 303.754H235.201V315.439H246.402V303.754Z" fill="#CB9FFF"/>
<path d="M246.402 292.07H235.201V303.754H246.402V292.07Z" fill="#CB9FFF"/>
<path d="M246.402 280.386H235.201V292.07H246.402V280.386Z" fill="#CB9FFF"/>
<path d="M246.402 268.708H235.201V280.386H246.402V268.708Z" fill="#CB9FFF"/>
<path d="M246.402 257.023H235.201V268.708H246.402V257.023Z" fill="#CB9FFF"/>
<path d="M246.402 245.339H235.201V257.023H246.402V245.339Z" fill="#CB9FFF"/>
<path d="M246.402 233.655H235.201V245.339H246.402V233.655Z" fill="#CB9FFF"/>
<path d="M246.402 221.971H235.201V233.655H246.402V221.971Z" fill="#73F4DB"/>
<path d="M246.402 210.292H235.201V221.971H246.402V210.292Z" fill="#73F4DB"/>
<path d="M246.402 198.608H235.201V210.292H246.402V198.608Z" fill="#CB9FFF"/>
<path d="M246.402 186.924H235.201V198.608H246.402V186.924Z" fill="#18314C"/>
<path d="M246.402 175.24H235.201V186.924H246.402V175.24Z" fill="#18314C"/>
<path d="M246.402 163.562H235.201V175.24H246.402V163.562Z" fill="#CB9FFF"/>
<path d="M246.402 151.877H235.201V163.561H246.402V151.877Z" fill="#CB9FFF"/>
<path d="M246.402 140.193H235.201V151.877H246.402V140.193Z" fill="#CB9FFF"/>
<path d="M246.402 128.509H235.201V140.193H246.402V128.509Z" fill="#18314C"/>
<path d="M246.402 116.824H235.201V128.509H246.402V116.824Z" fill="#CB9FFF"/>
<path d="M246.402 105.146H235.201V116.825H246.402V105.146Z" fill="#CB9FFF"/>
<path d="M246.402 93.4619H235.201V105.146H246.402V93.4619Z" fill="#CB9FFF"/>
<path d="M246.402 81.7778H235.201V93.4621H246.402V81.7778Z" fill="#F5D141"/>
<path d="M235.201 408.901H224V420.585H235.201V408.901Z" fill="#CB9FFF"/>
<path d="M235.201 397.216H224V408.901H235.201V397.216Z" fill="#CB9FFF"/>
<path d="M235.201 385.532H224V397.216H235.201V385.532Z" fill="#CB9FFF"/>
<path d="M235.201 373.854H224V385.532H235.201V373.854Z" fill="#CB9FFF"/>
<path d="M235.201 362.17H224V373.854H235.201V362.17Z" fill="#CB9FFF"/>
<path d="M235.201 350.485H224V362.17H235.201V350.485Z" fill="#CB9FFF"/>
<path d="M235.201 338.801H224V350.485H235.201V338.801Z" fill="#CB9FFF"/>
<path d="M235.201 327.123H224V338.801H235.201V327.123Z" fill="#CB9FFF"/>
<path d="M235.201 315.438H224V327.123H235.201V315.438Z" fill="#CB9FFF"/>
<path d="M235.201 303.754H224V315.439H235.201V303.754Z" fill="#CB9FFF"/>
<path d="M235.201 292.07H224V303.754H235.201V292.07Z" fill="#CB9FFF"/>
<path d="M235.201 280.386H224V292.07H235.201V280.386Z" fill="#CB9FFF"/>
<path d="M235.201 268.708H224V280.386H235.201V268.708Z" fill="#CB9FFF"/>
<path d="M235.201 257.023H224V268.708H235.201V257.023Z" fill="#CB9FFF"/>
<path d="M235.201 245.339H224V257.023H235.201V245.339Z" fill="#CB9FFF"/>
<path d="M235.201 233.655H224V245.339H235.201V233.655Z" fill="#CB9FFF"/>
<path d="M235.201 221.971H224V233.655H235.201V221.971Z" fill="#CB9FFF"/>
<path d="M235.201 210.292H224V221.971H235.201V210.292Z" fill="#CB9FFF"/>
<path d="M235.201 198.608H224V210.292H235.201V198.608Z" fill="#CB9FFF"/>
<path d="M235.201 186.924H224V198.608H235.201V186.924Z" fill="#CB9FFF"/>
<path d="M235.201 175.24H224V186.924H235.201V175.24Z" fill="#CB9FFF"/>
<path d="M235.201 163.562H224V175.24H235.201V163.562Z" fill="#CB9FFF"/>
<path d="M235.201 151.877H224V163.561H235.201V151.877Z" fill="#CB9FFF"/>
<path d="M235.201 140.193H224V151.877H235.201V140.193Z" fill="#CB9FFF"/>
<path d="M235.201 128.509H224V140.193H235.201V128.509Z" fill="#CB9FFF"/>
<path d="M235.201 116.824H224V128.509H235.201V116.824Z" fill="#CB9FFF"/>
<path d="M235.201 105.146H224V116.825H235.201V105.146Z" fill="#CB9FFF"/>
<path d="M235.201 93.4619H224V105.146H235.201V93.4619Z" fill="#CB9FFF"/>
<path d="M224 408.901H212.799V420.585H224V408.901Z" fill="#CB9FFF"/>
<path d="M224 397.216H212.799V408.901H224V397.216Z" fill="#CB9FFF"/>
<path d="M224 385.532H212.799V397.216H224V385.532Z" fill="#CB9FFF"/>
<path d="M224 373.854H212.799V385.532H224V373.854Z" fill="#CB9FFF"/>
<path d="M224 362.17H212.799V373.854H224V362.17Z" fill="#CB9FFF"/>
<path d="M224 350.485H212.799V362.17H224V350.485Z" fill="#CB9FFF"/>
<path d="M224 338.801H212.799V350.485H224V338.801Z" fill="#CB9FFF"/>
<path d="M224 327.123H212.799V338.801H224V327.123Z" fill="#CB9FFF"/>
<path d="M224 315.438H212.799V327.123H224V315.438Z" fill="#CB9FFF"/>
<path d="M224 303.754H212.799V315.439H224V303.754Z" fill="#CB9FFF"/>
<path d="M224 292.07H212.799V303.754H224V292.07Z" fill="#CB9FFF"/>
<path d="M224 280.386H212.799V292.07H224V280.386Z" fill="#CB9FFF"/>
<path d="M224 268.708H212.799V280.386H224V268.708Z" fill="#CB9FFF"/>
<path d="M224 257.023H212.799V268.708H224V257.023Z" fill="#CB9FFF"/>
<path d="M224 245.339H212.799V257.023H224V245.339Z" fill="#18314C"/>
<path d="M224 233.655H212.799V245.339H224V233.655Z" fill="#18314C"/>
<path d="M224 221.971H212.799V233.655H224V221.971Z" fill="#CB9FFF"/>
<path d="M224 210.292H212.799V221.971H224V210.292Z" fill="#CB9FFF"/>
<path d="M224 198.608H212.799V210.292H224V198.608Z" fill="#CB9FFF"/>
<path d="M224 186.924H212.799V198.608H224V186.924Z" fill="#CB9FFF"/>
<path d="M224 175.24H212.799V186.924H224V175.24Z" fill="#CB9FFF"/>
<path d="M224 163.562H212.799V175.24H224V163.562Z" fill="#CB9FFF"/>
<path d="M224 151.877H212.799V163.561H224V151.877Z" fill="#CB9FFF"/>
<path d="M224 140.193H212.799V151.877H224V140.193Z" fill="#CB9FFF"/>
<path d="M224 128.509H212.799V140.193H224V128.509Z" fill="#CB9FFF"/>
<path d="M224 116.824H212.799V128.509H224V116.824Z" fill="#CB9FFF"/>
<path d="M224 105.146H212.799V116.825H224V105.146Z" fill="#CB9FFF"/>
<path d="M224 93.4619H212.799V105.146H224V93.4619Z" fill="#CB9FFF"/>
<path d="M212.799 408.901H201.598V420.585H212.799V408.901Z" fill="#CB9FFF"/>
<path d="M212.799 397.216H201.598V408.901H212.799V397.216Z" fill="#CB9FFF"/>
<path d="M212.799 385.532H201.598V397.216H212.799V385.532Z" fill="#CB9FFF"/>
<path d="M212.799 373.854H201.598V385.532H212.799V373.854Z" fill="#CB9FFF"/>
<path d="M212.799 362.17H201.598V373.854H212.799V362.17Z" fill="#CB9FFF"/>
<path d="M212.799 350.485H201.598V362.17H212.799V350.485Z" fill="#CB9FFF"/>
<path d="M212.799 338.801H201.598V350.485H212.799V338.801Z" fill="#CB9FFF"/>
<path d="M212.799 327.123H201.598V338.801H212.799V327.123Z" fill="#CB9FFF"/>
<path d="M212.799 315.438H201.598V327.123H212.799V315.438Z" fill="#CB9FFF"/>
<path d="M212.799 303.754H201.598V315.439H212.799V303.754Z" fill="#CB9FFF"/>
<path d="M212.799 292.07H201.598V303.754H212.799V292.07Z" fill="#CB9FFF"/>
<path d="M212.799 280.386H201.598V292.07H212.799V280.386Z" fill="#CB9FFF"/>
<path d="M212.799 268.708H201.598V280.386H212.799V268.708Z" fill="#CB9FFF"/>
<path d="M212.799 257.023H201.598V268.708H212.799V257.023Z" fill="#18314C"/>
<path d="M212.799 245.339H201.598V257.023H212.799V245.339Z" fill="#73F4DB"/>
<path d="M212.799 233.655H201.598V245.339H212.799V233.655Z" fill="#18314C"/>
<path d="M212.799 221.971H201.598V233.655H212.799V221.971Z" fill="#CB9FFF"/>
<path d="M212.799 210.292H201.598V221.971H212.799V210.292Z" fill="#73F4DB"/>
<path d="M212.799 198.608H201.598V210.292H212.799V198.608Z" fill="#73F4DB"/>
<path d="M212.799 186.924H201.598V198.608H212.799V186.924Z" fill="#CB9FFF"/>
<path d="M212.799 175.24H201.598V186.924H212.799V175.24Z" fill="#CB9FFF"/>
<path d="M212.799 163.562H201.598V175.24H212.799V163.562Z" fill="#CB9FFF"/>
<path d="M212.799 151.877H201.598V163.561H212.799V151.877Z" fill="#CB9FFF"/>
<path d="M212.799 140.193H201.598V151.877H212.799V140.193Z" fill="#CB9FFF"/>
<path d="M212.799 128.509H201.598V140.193H212.799V128.509Z" fill="#CB9FFF"/>
<path d="M212.799 116.824H201.598V128.509H212.799V116.824Z" fill="#CB9FFF"/>
<path d="M212.799 105.146H201.598V116.825H212.799V105.146Z" fill="#CB9FFF"/>
<path d="M212.799 93.4619H201.598V105.146H212.799V93.4619Z" fill="#CB9FFF"/>
<path d="M201.598 408.901H190.402V420.585H201.598V408.901Z" fill="#CB9FFF"/>
<path d="M201.598 397.216H190.402V408.901H201.598V397.216Z" fill="#CB9FFF"/>
<path d="M201.598 385.532H190.402V397.216H201.598V385.532Z" fill="#CB9FFF"/>
<path d="M201.598 373.854H190.402V385.532H201.598V373.854Z" fill="#CB9FFF"/>
<path d="M201.598 362.17H190.402V373.854H201.598V362.17Z" fill="#CB9FFF"/>
<path d="M201.598 350.485H190.402V362.17H201.598V350.485Z" fill="#CB9FFF"/>
<path d="M201.598 338.801H190.402V350.485H201.598V338.801Z" fill="#CB9FFF"/>
<path d="M201.598 327.123H190.402V338.801H201.598V327.123Z" fill="#CB9FFF"/>
<path d="M201.598 315.438H190.402V327.123H201.598V315.438Z" fill="#CB9FFF"/>
<path d="M201.598 303.754H190.402V315.439H201.598V303.754Z" fill="#CB9FFF"/>
<path d="M201.598 292.07H190.402V303.754H201.598V292.07Z" fill="#CB9FFF"/>
<path d="M201.598 280.386H190.402V292.07H201.598V280.386Z" fill="#CB9FFF"/>
<path d="M201.598 268.708H190.402V280.386H201.598V268.708Z" fill="#CB9FFF"/>
<path d="M201.598 257.023H190.402V268.708H201.598V257.023Z" fill="#18314C"/>
<path d="M201.598 245.339H190.402V257.023H201.598V245.339Z" fill="#73F4DB"/>
<path d="M201.598 233.655H190.402V245.339H201.598V233.655Z" fill="#18314C"/>
<path d="M201.598 221.971H190.402V233.655H201.598V221.971Z" fill="#CB9FFF"/>
<path d="M201.598 210.292H190.402V221.971H201.598V210.292Z" fill="#73F4DB"/>
<path d="M201.598 198.608H190.402V210.292H201.598V198.608Z" fill="#73F4DB"/>
<path d="M201.598 186.924H190.402V198.608H201.598V186.924Z" fill="#CB9FFF"/>
<path d="M201.598 175.24H190.402V186.924H201.598V175.24Z" fill="#CB9FFF"/>
<path d="M201.598 163.562H190.402V175.24H201.598V163.562Z" fill="#CB9FFF"/>
<path d="M201.598 151.877H190.402V163.561H201.598V151.877Z" fill="#CB9FFF"/>
<path d="M201.598 140.193H190.402V151.877H201.598V140.193Z" fill="#CB9FFF"/>
<path d="M201.598 128.509H190.402V140.193H201.598V128.509Z" fill="#CB9FFF"/>
<path d="M201.598 116.824H190.402V128.509H201.598V116.824Z" fill="#CB9FFF"/>
<path d="M201.598 105.146H190.402V116.825H201.598V105.146Z" fill="#CB9FFF"/>
<path d="M201.598 93.4619H190.402V105.146H201.598V93.4619Z" fill="#CB9FFF"/>
<path d="M190.402 408.901H179.201V420.585H190.402V408.901Z" fill="#B68EEF"/>
<path d="M190.402 397.216H179.201V408.901H190.402V397.216Z" fill="#CB9FFF"/>
<path d="M190.402 385.532H179.201V397.216H190.402V385.532Z" fill="#CB9FFF"/>
<path d="M190.402 373.854H179.201V385.532H190.402V373.854Z" fill="#CB9FFF"/>
<path d="M190.402 362.17H179.201V373.854H190.402V362.17Z" fill="#CB9FFF"/>
<path d="M190.402 350.485H179.201V362.17H190.402V350.485Z" fill="#CB9FFF"/>
<path d="M190.402 338.801H179.201V350.485H190.402V338.801Z" fill="#CB9FFF"/>
<path d="M190.402 327.123H179.201V338.801H190.402V327.123Z" fill="#CB9FFF"/>
<path d="M190.402 315.438H179.201V327.123H190.402V315.438Z" fill="#CB9FFF"/>
<path d="M190.402 303.754H179.201V315.439H190.402V303.754Z" fill="#CB9FFF"/>
<path d="M190.402 292.07H179.201V303.754H190.402V292.07Z" fill="#CB9FFF"/>
<path d="M190.402 280.386H179.201V292.07H190.402V280.386Z" fill="#CB9FFF"/>
<path d="M190.402 268.708H179.201V280.386H190.402V268.708Z" fill="#CB9FFF"/>
<path d="M190.402 257.023H179.201V268.708H190.402V257.023Z" fill="#18314C"/>
<path d="M190.402 245.339H179.201V257.023H190.402V245.339Z" fill="#73F4DB"/>
<path d="M190.402 233.655H179.201V245.339H190.402V233.655Z" fill="#18314C"/>
<path d="M190.402 221.971H179.201V233.655H190.402V221.971Z" fill="#CB9FFF"/>
<path d="M190.402 210.292H179.201V221.971H190.402V210.292Z" fill="#73F4DB"/>
<path d="M190.402 198.608H179.201V210.292H190.402V198.608Z" fill="#73F4DB"/>
<path d="M190.402 186.924H179.201V198.608H190.402V186.924Z" fill="#CB9FFF"/>
<path d="M190.402 175.24H179.201V186.924H190.402V175.24Z" fill="#CB9FFF"/>
<path d="M190.402 163.562H179.201V175.24H190.402V163.562Z" fill="#CB9FFF"/>
<path d="M190.402 151.877H179.201V163.561H190.402V151.877Z" fill="#CB9FFF"/>
<path d="M190.402 140.193H179.201V151.877H190.402V140.193Z" fill="#CB9FFF"/>
<path d="M190.402 128.509H179.201V140.193H190.402V128.509Z" fill="#CB9FFF"/>
<path d="M190.402 116.824H179.201V128.509H190.402V116.824Z" fill="#CB9FFF"/>
<path d="M190.402 105.146H179.201V116.825H190.402V105.146Z" fill="#CB9FFF"/>
<path d="M190.402 93.4619H179.201V105.146H190.402V93.4619Z" fill="#CB9FFF"/>
<path d="M179.201 467.316H168V479H179.201V467.316Z" fill="#964CC1"/>
<path d="M179.201 455.632H168V467.316H179.201V455.632Z" fill="#964CC1"/>
<path d="M179.201 443.947H168V455.631H179.201V443.947Z" fill="#964CC1"/>
<path d="M179.201 408.901H168V420.585H179.201V408.901Z" fill="#B68EEF"/>
<path d="M179.201 397.216H168V408.901H179.201V397.216Z" fill="#B68EEF"/>
<path d="M179.201 385.532H168V397.216H179.201V385.532Z" fill="#CB9FFF"/>
<path d="M179.201 373.854H168V385.532H179.201V373.854Z" fill="#CB9FFF"/>
<path d="M179.201 362.17H168V373.854H179.201V362.17Z" fill="#CB9FFF"/>
<path d="M179.201 350.485H168V362.17H179.201V350.485Z" fill="#CB9FFF"/>
<path d="M179.201 338.801H168V350.485H179.201V338.801Z" fill="#CB9FFF"/>
<path d="M179.201 327.123H168V338.801H179.201V327.123Z" fill="#CB9FFF"/>
<path d="M179.201 315.438H168V327.123H179.201V315.438Z" fill="#CB9FFF"/>
<path d="M179.201 303.754H168V315.439H179.201V303.754Z" fill="#CB9FFF"/>
<path d="M179.201 292.07H168V303.754H179.201V292.07Z" fill="#CB9FFF"/>
<path d="M179.201 280.386H168V292.07H179.201V280.386Z" fill="#CB9FFF"/>
<path d="M179.201 268.708H168V280.386H179.201V268.708Z" fill="#CB9FFF"/>
<path d="M179.201 257.023H168V268.708H179.201V257.023Z" fill="#CB9FFF"/>
<path d="M179.201 245.339H168V257.023H179.201V245.339Z" fill="#18314C"/>
<path d="M179.201 233.655H168V245.339H179.201V233.655Z" fill="#18314C"/>
<path d="M179.201 221.971H168V233.655H179.201V221.971Z" fill="#CB9FFF"/>
<path d="M179.201 210.292H168V221.971H179.201V210.292Z" fill="#CB9FFF"/>
<path d="M179.201 198.608H168V210.292H179.201V198.608Z" fill="#CB9FFF"/>
<path d="M179.201 186.924H168V198.608H179.201V186.924Z" fill="#CB9FFF"/>
<path d="M179.201 175.24H168V186.924H179.201V175.24Z" fill="#CB9FFF"/>
<path d="M179.201 163.562H168V175.24H179.201V163.562Z" fill="#CB9FFF"/>
<path d="M179.201 151.877H168V163.561H179.201V151.877Z" fill="#CB9FFF"/>
<path d="M179.201 140.193H168V151.877H179.201V140.193Z" fill="#CB9FFF"/>
<path d="M179.201 128.509H168V140.193H179.201V128.509Z" fill="#CB9FFF"/>
<path d="M179.201 116.824H168V128.509H179.201V116.824Z" fill="#CB9FFF"/>
<path d="M179.201 105.146H168V116.825H179.201V105.146Z" fill="#CB9FFF"/>
<path d="M179.201 93.4619H168V105.146H179.201V93.4619Z" fill="#CB9FFF"/>
<path d="M168 467.316H156.799V479H168V467.316Z" fill="#964CC1"/>
<path d="M168 455.632H156.799V467.316H168V455.632Z" fill="#964CC1"/>
<path d="M168 443.947H156.799V455.631H168V443.947Z" fill="#964CC1"/>
<path d="M168 432.269H156.799V443.947H168V432.269Z" fill="#964CC1"/>
<path d="M168 420.585H156.799V432.269H168V420.585Z" fill="#6E3399"/>
<path d="M168 408.901H156.799V420.585H168V408.901Z" fill="#B68EEF"/>
<path d="M168 397.216H156.799V408.901H168V397.216Z" fill="#B68EEF"/>
<path d="M168 385.532H156.799V397.216H168V385.532Z" fill="#B68EEF"/>
<path d="M168 373.854H156.799V385.532H168V373.854Z" fill="#CB9FFF"/>
<path d="M168 362.17H156.799V373.854H168V362.17Z" fill="#CB9FFF"/>
<path d="M168 350.485H156.799V362.17H168V350.485Z" fill="#CB9FFF"/>
<path d="M168 338.801H156.799V350.485H168V338.801Z" fill="#CB9FFF"/>
<path d="M168 327.123H156.799V338.801H168V327.123Z" fill="#CB9FFF"/>
<path d="M168 315.438H156.799V327.123H168V315.438Z" fill="#CB9FFF"/>
<path d="M168 303.754H156.799V315.439H168V303.754Z" fill="#CB9FFF"/>
<path d="M168 292.07H156.799V303.754H168V292.07Z" fill="#CB9FFF"/>
<path d="M168 280.386H156.799V292.07H168V280.386Z" fill="#CB9FFF"/>
<path d="M168 268.708H156.799V280.386H168V268.708Z" fill="#CB9FFF"/>
<path d="M168 257.023H156.799V268.708H168V257.023Z" fill="#CB9FFF"/>
<path d="M168 245.339H156.799V257.023H168V245.339Z" fill="#CB9FFF"/>
<path d="M168 233.655H156.799V245.339H168V233.655Z" fill="#CB9FFF"/>
<path d="M168 221.971H156.799V233.655H168V221.971Z" fill="#CB9FFF"/>
<path d="M168 210.292H156.799V221.971H168V210.292Z" fill="#CB9FFF"/>
<path d="M168 198.608H156.799V210.292H168V198.608Z" fill="#CB9FFF"/>
<path d="M168 186.924H156.799V198.608H168V186.924Z" fill="#CB9FFF"/>
<path d="M168 175.24H156.799V186.924H168V175.24Z" fill="#CB9FFF"/>
<path d="M168 163.562H156.799V175.24H168V163.562Z" fill="#CB9FFF"/>
<path d="M168 151.877H156.799V163.561H168V151.877Z" fill="#CB9FFF"/>
<path d="M168 140.193H156.799V151.877H168V140.193Z" fill="#CB9FFF"/>
<path d="M168 128.509H156.799V140.193H168V128.509Z" fill="#CB9FFF"/>
<path d="M168 116.824H156.799V128.509H168V116.824Z" fill="#CB9FFF"/>
<path d="M168 105.146H156.799V116.825H168V105.146Z" fill="#CB9FFF"/>
<path d="M168 93.4619H156.799V105.146H168V93.4619Z" fill="#CB9FFF"/>
<path d="M156.799 467.316H145.598V479H156.799V467.316Z" fill="#964CC1"/>
<path d="M156.799 455.632H145.598V467.316H156.799V455.632Z" fill="#964CC1"/>
<path d="M156.799 443.947H145.598V455.631H156.799V443.947Z" fill="#964CC1"/>
<path d="M156.799 432.269H145.598V443.947H156.799V432.269Z" fill="#964CC1"/>
<path d="M156.799 420.585H145.598V432.269H156.799V420.585Z" fill="#964CC1"/>
<path d="M156.799 408.901H145.598V420.585H156.799V408.901Z" fill="#6E3399"/>
<path d="M156.799 397.216H145.598V408.901H156.799V397.216Z" fill="#B68EEF"/>
<path d="M156.799 385.532H145.598V397.216H156.799V385.532Z" fill="#B68EEF"/>
<path d="M156.799 373.854H145.598V385.532H156.799V373.854Z" fill="#B68EEF"/>
<path d="M156.799 362.17H145.598V373.854H156.799V362.17Z" fill="#B68EEF"/>
<path d="M156.799 350.485H145.598V362.17H156.799V350.485Z" fill="#CB9FFF"/>
<path d="M156.799 338.801H145.598V350.485H156.799V338.801Z" fill="#CB9FFF"/>
<path d="M156.799 327.123H145.598V338.801H156.799V327.123Z" fill="#CB9FFF"/>
<path d="M156.799 315.438H145.598V327.123H156.799V315.438Z" fill="#B68EEF"/>
<path d="M156.799 303.754H145.598V315.439H156.799V303.754Z" fill="#B68EEF"/>
<path d="M156.799 292.07H145.598V303.754H156.799V292.07Z" fill="#CB9FFF"/>
<path d="M156.799 280.386H145.598V292.07H156.799V280.386Z" fill="#CB9FFF"/>
<path d="M156.799 268.708H145.598V280.386H156.799V268.708Z" fill="#CB9FFF"/>
<path d="M156.799 257.023H145.598V268.708H156.799V257.023Z" fill="#CB9FFF"/>
<path d="M156.799 245.339H145.598V257.023H156.799V245.339Z" fill="#CB9FFF"/>
<path d="M156.799 233.655H145.598V245.339H156.799V233.655Z" fill="#CB9FFF"/>
<path d="M156.799 221.971H145.598V233.655H156.799V221.971Z" fill="#73F4DB"/>
<path d="M156.799 210.292H145.598V221.971H156.799V210.292Z" fill="#73F4DB"/>
<path d="M156.799 198.608H145.598V210.292H156.799V198.608Z" fill="#CB9FFF"/>
<path d="M156.799 186.924H145.598V198.608H156.799V186.924Z" fill="#18314C"/>
<path d="M156.799 175.24H145.598V186.924H156.799V175.24Z" fill="#18314C"/>
<path d="M156.799 163.562H145.598V175.24H156.799V163.562Z" fill="#CB9FFF"/>
<path d="M156.799 151.877H145.598V163.561H156.799V151.877Z" fill="#CB9FFF"/>
<path d="M156.799 140.193H145.598V151.877H156.799V140.193Z" fill="#CB9FFF"/>
<path d="M156.799 128.509H145.598V140.193H156.799V128.509Z" fill="#CB9FFF"/>
<path d="M156.799 116.824H145.598V128.509H156.799V116.824Z" fill="#CB9FFF"/>
<path d="M156.799 105.146H145.598V116.825H156.799V105.146Z" fill="#CB9FFF"/>
<path d="M156.799 93.4619H145.598V105.146H156.799V93.4619Z" fill="#CB9FFF"/>
<path d="M145.598 455.632H134.402V467.316H145.598V455.632Z" fill="#964CC1"/>
<path d="M145.598 443.947H134.402V455.631H145.598V443.947Z" fill="#964CC1"/>
<path d="M145.598 432.269H134.402V443.947H145.598V432.269Z" fill="#964CC1"/>
<path d="M145.598 420.585H134.402V432.269H145.598V420.585Z" fill="#964CC1"/>
<path d="M145.598 408.901H134.402V420.585H145.598V408.901Z" fill="#6E3399"/>
<path d="M145.598 397.216H134.402V408.901H145.598V397.216Z" fill="#6E3399"/>
<path d="M145.598 385.532H134.402V397.216H145.598V385.532Z" fill="#B68EEF"/>
<path d="M145.598 373.854H134.402V385.532H145.598V373.854Z" fill="#B68EEF"/>
<path d="M145.598 362.17H134.402V373.854H145.598V362.17Z" fill="#B68EEF"/>
<path d="M145.598 350.485H134.402V362.17H145.598V350.485Z" fill="#B68EEF"/>
<path d="M145.598 338.801H134.402V350.485H145.598V338.801Z" fill="#B68EEF"/>
<path d="M145.598 327.123H134.402V338.801H145.598V327.123Z" fill="#B68EEF"/>
<path d="M145.598 315.438H134.402V327.123H145.598V315.438Z" fill="#B68EEF"/>
<path d="M145.598 303.754H134.402V315.439H145.598V303.754Z" fill="#B68EEF"/>
<path d="M145.598 292.07H134.402V303.754H145.598V292.07Z" fill="#B68EEF"/>
<path d="M145.598 280.386H134.402V292.07H145.598V280.386Z" fill="#CB9FFF"/>
<path d="M145.598 268.708H134.402V280.386H145.598V268.708Z" fill="#CB9FFF"/>
<path d="M145.598 257.023H134.402V268.708H145.598V257.023Z" fill="#CB9FFF"/>
<path d="M145.598 245.339H134.402V257.023H145.598V245.339Z" fill="#CB9FFF"/>
<path d="M145.598 233.655H134.402V245.339H145.598V233.655Z" fill="#73F4DB"/>
<path d="M145.598 221.971H134.402V233.655H145.598V221.971Z" fill="#73F4DB"/>
<path d="M145.598 210.292H134.402V221.971H145.598V210.292Z" fill="#73F4DB"/>
<path d="M145.598 198.608H134.402V210.292H145.598V198.608Z" fill="#73F4DB"/>
<path d="M145.598 186.924H134.402V198.608H145.598V186.924Z" fill="#CB9FFF"/>
<path d="M145.598 175.24H134.402V186.924H145.598V175.24Z" fill="#18314C"/>
<path d="M145.598 163.562H134.402V175.24H145.598V163.562Z" fill="#CB9FFF"/>
<path d="M145.598 151.877H134.402V163.561H145.598V151.877Z" fill="#CB9FFF"/>
<path d="M145.598 140.193H134.402V151.877H145.598V140.193Z" fill="#CB9FFF"/>
<path d="M145.598 128.509H134.402V140.193H145.598V128.509Z" fill="#18314C"/>
<path d="M145.598 116.824H134.402V128.509H145.598V116.824Z" fill="#CB9FFF"/>
<path d="M145.598 105.146H134.402V116.825H145.598V105.146Z" fill="#CB9FFF"/>
<path d="M145.598 93.4619H134.402V105.146H145.598V93.4619Z" fill="#CB9FFF"/>
<path d="M134.402 397.216H123.201V408.901H134.402V397.216Z" fill="#6E3399"/>
<path d="M134.402 385.532H123.201V397.216H134.402V385.532Z" fill="#6E3399"/>
<path d="M134.402 373.854H123.201V385.532H134.402V373.854Z" fill="#B68EEF"/>
<path d="M134.402 362.17H123.201V373.854H134.402V362.17Z" fill="#B68EEF"/>
<path d="M134.402 350.485H123.201V362.17H134.402V350.485Z" fill="#B68EEF"/>
<path d="M134.402 338.801H123.201V350.485H134.402V338.801Z" fill="#B68EEF"/>
<path d="M134.402 327.123H123.201V338.801H134.402V327.123Z" fill="#B68EEF"/>
<path d="M134.402 315.438H123.201V327.123H134.402V315.438Z" fill="#B68EEF"/>
<path d="M134.402 303.754H123.201V315.439H134.402V303.754Z" fill="#B68EEF"/>
<path d="M134.402 292.07H123.201V303.754H134.402V292.07Z" fill="#B68EEF"/>
<path d="M134.402 280.386H123.201V292.07H134.402V280.386Z" fill="#CB9FFF"/>
<path d="M134.402 268.708H123.201V280.386H134.402V268.708Z" fill="#CB9FFF"/>
<path d="M134.402 257.023H123.201V268.708H134.402V257.023Z" fill="#CB9FFF"/>
<path d="M134.402 245.339H123.201V257.023H134.402V245.339Z" fill="#CB9FFF"/>
<path d="M134.402 233.655H123.201V245.339H134.402V233.655Z" fill="#73F4DB"/>
<path d="M134.402 221.971H123.201V233.655H134.402V221.971Z" fill="#73F4DB"/>
<path d="M134.402 210.292H123.201V221.971H134.402V210.292Z" fill="#73F4DB"/>
<path d="M134.402 198.608H123.201V210.292H134.402V198.608Z" fill="#73F4DB"/>
<path d="M134.402 186.924H123.201V198.608H134.402V186.924Z" fill="#18314C"/>
<path d="M134.402 175.24H123.201V186.924H134.402V175.24Z" fill="#18314C"/>
<path d="M134.402 163.562H123.201V175.24H134.402V163.562Z" fill="#CB9FFF"/>
<path d="M134.402 151.877H123.201V163.561H134.402V151.877Z" fill="#CB9FFF"/>
<path d="M134.402 140.193H123.201V151.877H134.402V140.193Z" fill="#CB9FFF"/>
<path d="M134.402 128.509H123.201V140.193H134.402V128.509Z" fill="#18314C"/>
<path d="M134.402 116.824H123.201V128.509H134.402V116.824Z" fill="#CB9FFF"/>
<path d="M134.402 105.146H123.201V116.825H134.402V105.146Z" fill="#CB9FFF"/>
<path d="M134.402 93.4619H123.201V105.146H134.402V93.4619Z" fill="#964CC1"/>
<path d="M123.201 397.216H112V408.901H123.201V397.216Z" fill="#964CC1"/>
<path d="M123.201 385.532H112V397.216H123.201V385.532Z" fill="#964CC1"/>
<path d="M123.201 350.485H112V362.17H123.201V350.485Z" fill="#B68EEF"/>
<path d="M123.201 338.801H112V350.485H123.201V338.801Z" fill="#B68EEF"/>
<path d="M123.201 327.123H112V338.801H123.201V327.123Z" fill="#B68EEF"/>
<path d="M123.201 315.438H112V327.123H123.201V315.438Z" fill="#B68EEF"/>
<path d="M123.201 292.07H112V303.754H123.201V292.07Z" fill="#B68EEF"/>
<path d="M123.201 280.386H112V292.07H123.201V280.386Z" fill="#B68EEF"/>
<path d="M123.201 268.708H112V280.386H123.201V268.708Z" fill="#B68EEF"/>
<path d="M123.201 257.023H112V268.708H123.201V257.023Z" fill="#CB9FFF"/>
<path d="M123.201 245.339H112V257.023H123.201V245.339Z" fill="#CB9FFF"/>
<path d="M123.201 233.655H112V245.339H123.201V233.655Z" fill="#18314C"/>
<path d="M123.201 221.971H112V233.655H123.201V221.971Z" fill="#73F4DB"/>
<path d="M123.201 210.292H112V221.971H123.201V210.292Z" fill="#18314C"/>
<path d="M123.201 198.608H112V210.292H123.201V198.608Z" fill="#73F4DB"/>
<path d="M123.201 186.924H112V198.608H123.201V186.924Z" fill="#CB9FFF"/>
<path d="M123.201 175.24H112V186.924H123.201V175.24Z" fill="#CB9FFF"/>
<path d="M123.201 163.562H112V175.24H123.201V163.562Z" fill="#CB9FFF"/>
<path d="M123.201 151.877H112V163.561H123.201V151.877Z" fill="#CB9FFF"/>
<path d="M123.201 140.193H112V151.877H123.201V140.193Z" fill="#18314C"/>
<path d="M123.201 128.509H112V140.193H123.201V128.509Z" fill="#CB9FFF"/>
<path d="M123.201 116.824H112V128.509H123.201V116.824Z" fill="#CB9FFF"/>
<path d="M123.201 105.146H112V116.825H123.201V105.146Z" fill="#B68EEF"/>
<path d="M123.201 93.4619H112V105.146H123.201V93.4619Z" fill="#964CC1"/>
<path d="M123.201 81.7778H112V93.4621H123.201V81.7778Z" fill="#964CC1"/>
<path d="M112 397.216H100.799V408.901H112V397.216Z" fill="#964CC1"/>
<path d="M112 385.532H100.799V397.216H112V385.532Z" fill="#964CC1"/>
<path d="M112 338.801H100.799V350.485H112V338.801Z" fill="#964CC1"/>
<path d="M112 327.123H100.799V338.801H112V327.123Z" fill="#964CC1"/>
<path d="M112 315.438H100.799V327.123H112V315.438Z" fill="#964CC1"/>
<path d="M112 292.07H100.799V303.754H112V292.07Z" fill="#B68EEF"/>
<path d="M112 280.386H100.799V292.07H112V280.386Z" fill="#B68EEF"/>
<path d="M112 268.708H100.799V280.386H112V268.708Z" fill="#B68EEF"/>
<path d="M112 257.023H100.799V268.708H112V257.023Z" fill="#B68EEF"/>
<path d="M112 245.339H100.799V257.023H112V245.339Z" fill="#18314C"/>
<path d="M112 233.655H100.799V245.339H112V233.655Z" fill="#CB9FFF"/>
<path d="M112 221.971H100.799V233.655H112V221.971Z" fill="#73F4DB"/>
<path d="M112 210.292H100.799V221.971H112V210.292Z" fill="#73F4DB"/>
<path d="M112 198.608H100.799V210.292H112V198.608Z" fill="#18314C"/>
<path d="M112 186.924H100.799V198.608H112V186.924Z" fill="#CB9FFF"/>
<path d="M112 175.24H100.799V186.924H112V175.24Z" fill="#CB9FFF"/>
<path d="M112 163.562H100.799V175.24H112V163.562Z" fill="#CB9FFF"/>
<path d="M112 151.877H100.799V163.561H112V151.877Z" fill="#CB9FFF"/>
<path d="M112 140.193H100.799V151.877H112V140.193Z" fill="#CB9FFF"/>
<path d="M112 128.509H100.799V140.193H112V128.509Z" fill="#B68EEF"/>
<path d="M112 116.824H100.799V128.509H112V116.824Z" fill="#B68EEF"/>
<path d="M112 105.146H100.799V116.825H112V105.146Z" fill="#964CC1"/>
<path d="M112 93.4619H100.799V105.146H112V93.4619Z" fill="#964CC1"/>
<path d="M112 81.7778H100.799V93.4621H112V81.7778Z" fill="#964CC1"/>
<path d="M100.799 397.216H89.6034V408.901H100.799V397.216Z" fill="#964CC1"/>
<path d="M100.799 385.532H89.6034V397.216H100.799V385.532Z" fill="#964CC1"/>
<path d="M100.799 338.801H89.6034V350.485H100.799V338.801Z" fill="#964CC1"/>
<path d="M100.799 327.123H89.6034V338.801H100.799V327.123Z" fill="#964CC1"/>
<path d="M100.799 315.438H89.6034V327.123H100.799V315.438Z" fill="#964CC1"/>
<path d="M100.799 280.386H89.6034V292.07H100.799V280.386Z" fill="#B68EEF"/>
<path d="M100.799 268.708H89.6034V280.386H100.799V268.708Z" fill="#B68EEF"/>
<path d="M100.799 257.023H89.6034V268.708H100.799V257.023Z" fill="#18314C"/>
<path d="M100.799 245.339H89.6034V257.023H100.799V245.339Z" fill="#B68EEF"/>
<path d="M100.799 233.655H89.6034V245.339H100.799V233.655Z" fill="#B68EEF"/>
<path d="M100.799 221.971H89.6034V233.655H100.799V221.971Z" fill="#18314C"/>
<path d="M100.799 210.292H89.6034V221.971H100.799V210.292Z" fill="#B68EEF"/>
<path d="M100.799 198.608H89.6034V210.292H100.799V198.608Z" fill="#B68EEF"/>
<path d="M100.799 186.924H89.6034V198.608H100.799V186.924Z" fill="#18314C"/>
<path d="M100.799 175.24H89.6034V186.924H100.799V175.24Z" fill="#B68EEF"/>
<path d="M100.799 163.562H89.6034V175.24H100.799V163.562Z" fill="#B68EEF"/>
<path d="M100.799 151.877H89.6034V163.561H100.799V151.877Z" fill="#B68EEF"/>
<path d="M100.799 140.193H89.6034V151.877H100.799V140.193Z" fill="#B68EEF"/>
<path d="M100.799 128.509H89.6034V140.193H100.799V128.509Z" fill="#B68EEF"/>
<path d="M100.799 116.824H89.6034V128.509H100.799V116.824Z" fill="#73F4DB"/>
<path d="M100.799 105.146H89.6034V116.825H100.799V105.146Z" fill="#964CC1"/>
<path d="M100.799 93.4619H89.6034V105.146H100.799V93.4619Z" fill="#964CC1"/>
<path d="M100.799 81.7778H89.6034V93.4621H100.799V81.7778Z" fill="#964CC1"/>
<path d="M100.799 70.0935H89.6034V81.7777H100.799V70.0935Z" fill="#964CC1"/>
<path d="M89.6034 385.532H78.4023V397.216H89.6034V385.532Z" fill="#964CC1"/>
<path d="M89.6034 373.854H78.4023V385.532H89.6034V373.854Z" fill="#964CC1"/>
<path d="M89.6034 338.801H78.4023V350.485H89.6034V338.801Z" fill="#964CC1"/>
<path d="M89.6034 327.123H78.4023V338.801H89.6034V327.123Z" fill="#964CC1"/>
<path d="M89.6034 315.438H78.4023V327.123H89.6034V315.438Z" fill="#964CC1"/>
<path d="M89.6034 268.708H78.4023V280.386H89.6034V268.708Z" fill="#B68EEF"/>
<path d="M89.6034 257.023H78.4023V268.708H89.6034V257.023Z" fill="#B68EEF"/>
<path d="M89.6034 245.339H78.4023V257.023H89.6034V245.339Z" fill="#B68EEF"/>
<path d="M89.6034 233.655H78.4023V245.339H89.6034V233.655Z" fill="#B68EEF"/>
<path d="M89.6034 221.971H78.4023V233.655H89.6034V221.971Z" fill="#18314C"/>
<path d="M89.6034 210.292H78.4023V221.971H89.6034V210.292Z" fill="#B68EEF"/>
<path d="M89.6034 198.608H78.4023V210.292H89.6034V198.608Z" fill="#B68EEF"/>
<path d="M89.6034 186.924H78.4023V198.608H89.6034V186.924Z" fill="#B68EEF"/>
<path d="M89.6034 175.24H78.4023V186.924H89.6034V175.24Z" fill="#B68EEF"/>
<path d="M89.6034 163.562H78.4023V175.24H89.6034V163.562Z" fill="#B68EEF"/>
<path d="M89.6034 151.877H78.4023V163.561H89.6034V151.877Z" fill="#B68EEF"/>
<path d="M89.6034 140.193H78.4023V151.877H89.6034V140.193Z" fill="#B68EEF"/>
<path d="M89.6034 128.509H78.4023V140.193H89.6034V128.509Z" fill="#73F4DB"/>
<path d="M89.6034 116.824H78.4023V128.509H89.6034V116.824Z" fill="#73F4DB"/>
<path d="M89.6034 105.146H78.4023V116.825H89.6034V105.146Z" fill="#73F4DB"/>
<path d="M89.6034 93.4619H78.4023V105.146H89.6034V93.4619Z" fill="#964CC1"/>
<path d="M89.6034 81.7778H78.4023V93.4621H89.6034V81.7778Z" fill="#964CC1"/>
<path d="M89.6034 70.0935H78.4023V81.7777H89.6034V70.0935Z" fill="#964CC1"/>
<path d="M89.6034 46.731H78.4023V58.4092H89.6034V46.731Z" fill="#F5D141"/>
<path d="M89.6034 23.3625H78.4023V35.0468H89.6034V23.3625Z" fill="#F5D141"/>
<path d="M78.4023 385.532H67.2011V397.216H78.4023V385.532Z" fill="#964CC1"/>
<path d="M78.4023 373.854H67.2011V385.532H78.4023V373.854Z" fill="#964CC1"/>
<path d="M78.4023 338.801H67.2011V350.485H78.4023V338.801Z" fill="#964CC1"/>
<path d="M78.4023 327.123H67.2011V338.801H78.4023V327.123Z" fill="#964CC1"/>
<path d="M78.4023 315.438H67.2011V327.123H78.4023V315.438Z" fill="#964CC1"/>
<path d="M78.4023 303.754H67.2011V315.439H78.4023V303.754Z" fill="#964CC1"/>
<path d="M78.4023 257.023H67.2011V268.708H78.4023V257.023Z" fill="#B68EEF"/>
<path d="M78.4023 245.339H67.2011V257.023H78.4023V245.339Z" fill="#B68EEF"/>
<path d="M78.4023 233.655H67.2011V245.339H78.4023V233.655Z" fill="#B68EEF"/>
<path d="M78.4023 221.971H67.2011V233.655H78.4023V221.971Z" fill="#B68EEF"/>
<path d="M78.4023 210.292H67.2011V221.971H78.4023V210.292Z" fill="#B68EEF"/>
<path d="M78.4023 198.608H67.2011V210.292H78.4023V198.608Z" fill="#B68EEF"/>
<path d="M78.4023 186.924H67.2011V198.608H78.4023V186.924Z" fill="#B68EEF"/>
<path d="M78.4023 175.24H67.2011V186.924H78.4023V175.24Z" fill="#B68EEF"/>
<path d="M78.4023 163.562H67.2011V175.24H78.4023V163.562Z" fill="#B68EEF"/>
<path d="M78.4023 151.877H67.2011V163.561H78.4023V151.877Z" fill="#B68EEF"/>
<path d="M78.4023 140.193H67.2011V151.877H78.4023V140.193Z" fill="#73F4DB"/>
<path d="M78.4023 128.509H67.2011V140.193H78.4023V128.509Z" fill="#73F4DB"/>
<path d="M78.4023 116.824H67.2011V128.509H78.4023V116.824Z" fill="#73F4DB"/>
<path d="M78.4023 105.146H67.2011V116.825H78.4023V105.146Z" fill="#73F4DB"/>
<path d="M78.4023 93.4619H67.2011V105.146H78.4023V93.4619Z" fill="#73F4DB"/>
<path d="M78.4023 81.7778H67.2011V93.4621H78.4023V81.7778Z" fill="#964CC1"/>
<path d="M78.4023 70.0935H67.2011V81.7777H78.4023V70.0935Z" fill="#964CC1"/>
<path d="M78.4023 35.0466H67.2011V46.7309H78.4023V35.0466Z" fill="#F5D141"/>
<path d="M67.2011 385.532H56V397.216H67.2011V385.532Z" fill="#964CC1"/>
<path d="M67.2011 373.854H56V385.532H67.2011V373.854Z" fill="#964CC1"/>
<path d="M67.2011 327.123H56V338.801H67.2011V327.123Z" fill="#964CC1"/>
<path d="M67.2011 315.438H56V327.123H67.2011V315.438Z" fill="#964CC1"/>
<path d="M67.2011 303.754H56V315.439H67.2011V303.754Z" fill="#964CC1"/>
<path d="M67.2011 245.339H56V257.023H67.2011V245.339Z" fill="#B68EEF"/>
<path d="M67.2011 233.655H56V245.339H67.2011V233.655Z" fill="#B68EEF"/>
<path d="M67.2011 221.971H56V233.655H67.2011V221.971Z" fill="#B68EEF"/>
<path d="M67.2011 210.292H56V221.971H67.2011V210.292Z" fill="#B68EEF"/>
<path d="M67.2011 198.608H56V210.292H67.2011V198.608Z" fill="#B68EEF"/>
<path d="M67.2011 186.924H56V198.608H67.2011V186.924Z" fill="#B68EEF"/>
<path d="M67.2011 175.24H56V186.924H67.2011V175.24Z" fill="#B68EEF"/>
<path d="M67.2011 151.877H56V163.561H67.2011V151.877Z" fill="#73F4DB"/>
<path d="M67.2011 140.193H56V151.877H67.2011V140.193Z" fill="#73F4DB"/>
<path d="M67.2011 128.509H56V140.193H67.2011V128.509Z" fill="#73F4DB"/>
<path d="M67.2011 116.824H56V128.509H67.2011V116.824Z" fill="#73F4DB"/>
<path d="M67.2011 105.146H56V116.825H67.2011V105.146Z" fill="#73F4DB"/>
<path d="M67.2011 93.4619H56V105.146H67.2011V93.4619Z" fill="#73F4DB"/>
<path d="M67.2011 81.7778H56V93.4621H67.2011V81.7778Z" fill="#964CC1"/>
<path d="M67.2011 70.0935H56V81.7777H67.2011V70.0935Z" fill="#F5D141"/>
<path d="M67.2011 46.731H56V58.4092H67.2011V46.731Z" fill="#F5D141"/>
<path d="M67.2011 35.0466H56V46.7309H67.2011V35.0466Z" fill="#F5D141"/>
<path d="M67.2011 23.3625H56V35.0468H67.2011V23.3625Z" fill="#F5D141"/>
<path d="M67.2011 0H56V11.6783H67.2011V0Z" fill="#F5D141"/>
<path d="M56 385.532H44.7989V397.216H56V385.532Z" fill="#964CC1"/>
<path d="M56 373.854H44.7989V385.532H56V373.854Z" fill="#964CC1"/>
<path d="M56 327.123H44.7989V338.801H56V327.123Z" fill="#964CC1"/>
<path d="M56 315.438H44.7989V327.123H56V315.438Z" fill="#964CC1"/>
<path d="M56 303.754H44.7989V315.439H56V303.754Z" fill="#964CC1"/>
<path d="M56 292.07H44.7989V303.754H56V292.07Z" fill="#964CC1"/>
<path d="M56 280.386H44.7989V292.07H56V280.386Z" fill="#964CC1"/>
<path d="M56 233.655H44.7989V245.339H56V233.655Z" fill="#F5D141"/>
<path d="M56 221.971H44.7989V233.655H56V221.971Z" fill="#B68EEF"/>
<path d="M56 210.292H44.7989V221.971H56V210.292Z" fill="#B68EEF"/>
<path d="M56 198.608H44.7989V210.292H56V198.608Z" fill="#B68EEF"/>
<path d="M56 163.562H44.7989V175.24H56V163.562Z" fill="#EBC434"/>
<path d="M56 128.509H44.7989V140.193H56V128.509Z" fill="#73F4DB"/>
<path d="M56 116.824H44.7989V128.509H56V116.824Z" fill="#73F4DB"/>
<path d="M56 105.146H44.7989V116.825H56V105.146Z" fill="#73F4DB"/>
<path d="M56 93.4619H44.7989V105.146H56V93.4619Z" fill="#73F4DB"/>
<path d="M56 81.7778H44.7989V93.4621H56V81.7778Z" fill="#964CC1"/>
<path d="M56 35.0466H44.7989V46.7309H56V35.0466Z" fill="#F5D141"/>
<path d="M44.7989 385.532H33.6034V397.216H44.7989V385.532Z" fill="#964CC1"/>
<path d="M44.7989 373.854H33.6034V385.532H44.7989V373.854Z" fill="#964CC1"/>
<path d="M44.7989 315.438H33.6034V327.123H44.7989V315.438Z" fill="#964CC1"/>
<path d="M44.7989 303.754H33.6034V315.439H44.7989V303.754Z" fill="#964CC1"/>
<path d="M44.7989 292.07H33.6034V303.754H44.7989V292.07Z" fill="#964CC1"/>
<path d="M44.7989 280.386H33.6034V292.07H44.7989V280.386Z" fill="#964CC1"/>
<path d="M44.7989 245.339H33.6034V257.023H44.7989V245.339Z" fill="#F5D141"/>
<path d="M44.7989 233.655H33.6034V245.339H44.7989V233.655Z" fill="#F5D141"/>
<path d="M44.7989 221.971H33.6034V233.655H44.7989V221.971Z" fill="#F5D141"/>
<path d="M44.7989 175.24H33.6034V186.924H44.7989V175.24Z" fill="#EBC434"/>
<path d="M44.7989 151.877H33.6034V163.561H44.7989V151.877Z" fill="#EBC434"/>
<path d="M44.7989 46.731H33.6034V58.4092H44.7989V46.731Z" fill="#F5D141"/>
<path d="M44.7989 23.3625H33.6034V35.0468H44.7989V23.3625Z" fill="#F5D141"/>
<path d="M33.6034 385.532H22.4023V397.216H33.6034V385.532Z" fill="#CB9FFF"/>
<path d="M33.6034 373.854H22.4023V385.532H33.6034V373.854Z" fill="#964CC1"/>
<path d="M33.6034 303.754H22.4023V315.439H33.6034V303.754Z" fill="#964CC1"/>
<path d="M33.6034 292.07H22.4023V303.754H33.6034V292.07Z" fill="#964CC1"/>
<path d="M33.6034 280.386H22.4023V292.07H33.6034V280.386Z" fill="#964CC1"/>
<path d="M33.6034 233.655H22.4023V245.339H33.6034V233.655Z" fill="#F5D141"/>
<path d="M33.6034 163.562H22.4023V175.24H33.6034V163.562Z" fill="#EBC434"/>
<path d="M22.4023 397.216H11.2011V408.901H22.4023V397.216Z" fill="#CB9FFF"/>
<path d="M22.4023 385.532H11.2011V397.216H22.4023V385.532Z" fill="#CB9FFF"/>
<path d="M22.4023 373.854H11.2011V385.532H22.4023V373.854Z" fill="#CB9FFF"/>
<path d="M11.2011 397.216H0V408.901H11.2011V397.216Z" fill="#CB9FFF"/>
<path d="M11.2011 385.532H0V397.216H11.2011V385.532Z" fill="#CB9FFF"/>
<path d="M11.2011 198.608H0V210.292H11.2011V198.608Z" fill="#EBC434"/>
</svg>
