<svg width="394" height="495" viewBox="0 0 394 495" fill="none" xmlns="http://www.w3.org/2000/svg">
<path d="M394 164.998H383.054V177.691H394V164.998Z" fill="#1AF4FF"/>
<path d="M394 38.0744H383.054V50.7681H394V38.0744Z" fill="#F44282"/>
<path d="M394 25.3873H383.054V38.0744H394V25.3873Z" fill="#F44282"/>
<path d="M383.054 317.309H372.109V330.002H383.054V317.309Z" fill="#1AF4FF"/>
<path d="M383.054 228.46H372.109V241.153H383.054V228.46Z" fill="#F5D141"/>
<path d="M383.054 190.385H372.109V203.079H383.054V190.385Z" fill="#F5D141"/>
<path d="M383.054 164.998H372.109V177.691H383.054V164.998Z" fill="#1AF4FF"/>
<path d="M383.054 50.7681H372.109V63.4617H383.054V50.7681Z" fill="#F44282"/>
<path d="M372.109 304.615H361.163V317.309H372.109V304.615Z" fill="#1AF4FF"/>
<path d="M372.109 291.921H361.163V304.615H372.109V291.921Z" fill="#1AF4FF"/>
<path d="M372.109 215.766H361.163V228.46H372.109V215.766Z" fill="#F5D141"/>
<path d="M372.109 203.079H361.163V215.766H372.109V203.079Z" fill="#F5D141"/>
<path d="M372.109 152.311H361.163V164.998H372.109V152.311Z" fill="#1AF4FF"/>
<path d="M361.163 266.54H350.223V279.228H361.163V266.54Z" fill="#EDA751"/>
<path d="M361.163 253.847H350.223V266.54H361.163V253.847Z" fill="#EDA751"/>
<path d="M361.163 241.153H350.223V253.847H361.163V241.153Z" fill="#EDA751"/>
<path d="M361.163 114.23H350.223V126.923H361.163V114.23Z" fill="#FF91AB"/>
<path d="M361.163 101.536H350.223V114.23H361.163V101.536Z" fill="#FF91AB"/>
<path d="M361.163 88.849H350.223V101.536H361.163V88.849Z" fill="#FF91AB"/>
<path d="M361.163 76.1553H350.223V88.849H361.163V76.1553Z" fill="#FF91AB"/>
<path d="M361.163 63.4617H350.223V76.1553H361.163V63.4617Z" fill="#EDA751"/>
<path d="M350.223 279.228H339.278V291.921H350.223V279.228Z" fill="#EDA751"/>
<path d="M350.223 266.54H339.278V279.228H350.223V266.54Z" fill="#EDA751"/>
<path d="M350.223 253.847H339.278V266.54H350.223V253.847Z" fill="#EDA751"/>
<path d="M350.223 241.153H339.278V253.847H350.223V241.153Z" fill="#EDA751"/>
<path d="M350.223 228.46H339.278V241.153H350.223V228.46Z" fill="#EDA751"/>
<path d="M350.223 215.766H339.278V228.46H350.223V215.766Z" fill="#FFDC9C"/>
<path d="M350.223 203.079H339.278V215.766H350.223V203.079Z" fill="#FFDC9C"/>
<path d="M350.223 190.385H339.278V203.079H350.223V190.385Z" fill="#FFDC9C"/>
<path d="M350.223 177.691H339.278V190.385H350.223V177.691Z" fill="#FFDC9C"/>
<path d="M350.223 164.998H339.278V177.691H350.223V164.998Z" fill="#FFDC9C"/>
<path d="M350.223 126.923H339.278V139.617H350.223V126.923Z" fill="#FF91AB"/>
<path d="M350.223 114.23H339.278V126.923H350.223V114.23Z" fill="#FF91AB"/>
<path d="M350.223 101.536H339.278V114.23H350.223V101.536Z" fill="#FF91AB"/>
<path d="M350.223 88.849H339.278V101.536H350.223V88.849Z" fill="#FF91AB"/>
<path d="M350.223 76.1553H339.278V88.849H350.223V76.1553Z" fill="#FF91AB"/>
<path d="M350.223 63.4617H339.278V76.1553H350.223V63.4617Z" fill="#EDA751"/>
<path d="M350.223 50.7681H339.278V63.4617H350.223V50.7681Z" fill="#EDA751"/>
<path d="M339.278 406.151H328.332V418.845H339.278V406.151Z" fill="#F44282"/>
<path d="M339.278 393.457H328.332V406.151H339.278V393.457Z" fill="#F44282"/>
<path d="M339.278 342.689H328.332V355.383H339.278V342.689Z" fill="#F5D141"/>
<path d="M339.278 330.002H328.332V342.689H339.278V330.002Z" fill="#F5D141"/>
<path d="M339.278 317.309H328.332V330.002H339.278V317.309Z" fill="#F5D141"/>
<path d="M339.278 291.921H328.332V304.615H339.278V291.921Z" fill="#EDA751"/>
<path d="M339.278 279.228H328.332V291.921H339.278V279.228Z" fill="#EDA751"/>
<path d="M339.278 266.54H328.332V279.228H339.278V266.54Z" fill="#EDA751"/>
<path d="M339.278 253.847H328.332V266.54H339.278V253.847Z" fill="#EDA751"/>
<path d="M339.278 241.153H328.332V253.847H339.278V241.153Z" fill="#EDA751"/>
<path d="M339.278 228.46H328.332V241.153H339.278V228.46Z" fill="#EDA751"/>
<path d="M339.278 215.766H328.332V228.46H339.278V215.766Z" fill="#FFDC9C"/>
<path d="M339.278 203.079H328.332V215.766H339.278V203.079Z" fill="#FFDC9C"/>
<path d="M339.278 190.385H328.332V203.079H339.278V190.385Z" fill="#FFDC9C"/>
<path d="M339.278 177.691H328.332V190.385H339.278V177.691Z" fill="#F44282"/>
<path d="M339.278 164.998H328.332V177.691H339.278V164.998Z" fill="#FFDC9C"/>
<path d="M339.278 152.311H328.332V164.998H339.278V152.311Z" fill="#FFDC9C"/>
<path d="M339.278 139.617H328.332V152.311H339.278V139.617Z" fill="#FFDC9C"/>
<path d="M339.278 126.923H328.332V139.617H339.278V126.923Z" fill="#FF91AB"/>
<path d="M339.278 114.23H328.332V126.923H339.278V114.23Z" fill="#FF91AB"/>
<path d="M339.278 101.536H328.332V114.23H339.278V101.536Z" fill="#FF91AB"/>
<path d="M339.278 88.849H328.332V101.536H339.278V88.849Z" fill="#FF91AB"/>
<path d="M339.278 76.1553H328.332V88.849H339.278V76.1553Z" fill="#FF91AB"/>
<path d="M339.278 63.4617H328.332V76.1553H339.278V63.4617Z" fill="#EDA751"/>
<path d="M339.278 50.7681H328.332V63.4617H339.278V50.7681Z" fill="#EDA751"/>
<path d="M328.332 418.845H317.387V431.538H328.332V418.845Z" fill="#F44282"/>
<path d="M328.332 380.77H317.387V393.457H328.332V380.77Z" fill="#F44282"/>
<path d="M328.332 355.383H317.387V368.077H328.332V355.383Z" fill="#F5D141"/>
<path d="M328.332 304.615H317.387V317.309H328.332V304.615Z" fill="#EDA751"/>
<path d="M328.332 291.921H317.387V304.615H328.332V291.921Z" fill="#EDA751"/>
<path d="M328.332 279.228H317.387V291.921H328.332V279.228Z" fill="#EDA751"/>
<path d="M328.332 266.54H317.387V279.228H328.332V266.54Z" fill="#EDA751"/>
<path d="M328.332 253.847H317.387V266.54H328.332V253.847Z" fill="#EDA751"/>
<path d="M328.332 241.153H317.387V253.847H328.332V241.153Z" fill="#EDA751"/>
<path d="M328.332 228.46H317.387V241.153H328.332V228.46Z" fill="#FFDC9C"/>
<path d="M328.332 215.766H317.387V228.46H328.332V215.766Z" fill="#FFDC9C"/>
<path d="M328.332 203.079H317.387V215.766H328.332V203.079Z" fill="#FFDC9C"/>
<path d="M328.332 190.385H317.387V203.079H328.332V190.385Z" fill="#FFDC9C"/>
<path d="M328.332 177.691H317.387V190.385H328.332V177.691Z" fill="#FFDC9C"/>
<path d="M328.332 164.998H317.387V177.691H328.332V164.998Z" fill="#F44282"/>
<path d="M328.332 152.311H317.387V164.998H328.332V152.311Z" fill="#F44282"/>
<path d="M328.332 139.617H317.387V152.311H328.332V139.617Z" fill="#FFDC9C"/>
<path d="M328.332 126.923H317.387V139.617H328.332V126.923Z" fill="#FFDC9C"/>
<path d="M328.332 114.23H317.387V126.923H328.332V114.23Z" fill="#FF91AB"/>
<path d="M328.332 101.536H317.387V114.23H328.332V101.536Z" fill="#FF91AB"/>
<path d="M328.332 88.849H317.387V101.536H328.332V88.849Z" fill="#FF91AB"/>
<path d="M328.332 76.1553H317.387V88.849H328.332V76.1553Z" fill="#EDA751"/>
<path d="M328.332 63.4617H317.387V76.1553H328.332V63.4617Z" fill="#EDA751"/>
<path d="M328.332 50.7681H317.387V63.4617H328.332V50.7681Z" fill="#EDA751"/>
<path d="M328.332 0H317.387V12.6936H328.332V0Z" fill="#F5D141"/>
<path d="M317.387 317.309H306.441V330.002H317.387V317.309Z" fill="#EDA751"/>
<path d="M317.387 304.615H306.441V317.309H317.387V304.615Z" fill="#EDA751"/>
<path d="M317.387 291.921H306.441V304.615H317.387V291.921Z" fill="#EDA751"/>
<path d="M317.387 279.228H306.441V291.921H317.387V279.228Z" fill="#EDA751"/>
<path d="M317.387 266.54H306.441V279.228H317.387V266.54Z" fill="#FFDC9C"/>
<path d="M317.387 253.847H306.441V266.54H317.387V253.847Z" fill="#FFDC9C"/>
<path d="M317.387 241.153H306.441V253.847H317.387V241.153Z" fill="#FFDC9C"/>
<path d="M317.387 228.46H306.441V241.153H317.387V228.46Z" fill="#FFDC9C"/>
<path d="M317.387 215.766H306.441V228.46H317.387V215.766Z" fill="#495059"/>
<path d="M317.387 203.079H306.441V215.766H317.387V203.079Z" fill="#FFDC9C"/>
<path d="M317.387 190.385H306.441V203.079H317.387V190.385Z" fill="#FFDC9C"/>
<path d="M317.387 177.691H306.441V190.385H317.387V177.691Z" fill="#FFDC9C"/>
<path d="M317.387 164.998H306.441V177.691H317.387V164.998Z" fill="#FFDC9C"/>
<path d="M317.387 152.311H306.441V164.998H317.387V152.311Z" fill="#FFDC9C"/>
<path d="M317.387 139.617H306.441V152.311H317.387V139.617Z" fill="#FFDC9C"/>
<path d="M317.387 126.923H306.441V139.617H317.387V126.923Z" fill="#FFDC9C"/>
<path d="M317.387 114.23H306.441V126.923H317.387V114.23Z" fill="#FFDC9C"/>
<path d="M317.387 101.536H306.441V114.23H317.387V101.536Z" fill="#FF91AB"/>
<path d="M317.387 88.849H306.441V101.536H317.387V88.849Z" fill="#EDA751"/>
<path d="M317.387 76.1553H306.441V88.849H317.387V76.1553Z" fill="#EDA751"/>
<path d="M317.387 63.4617H306.441V76.1553H317.387V63.4617Z" fill="#EDA751"/>
<path d="M317.387 50.7681H306.441V63.4617H317.387V50.7681Z" fill="#EDA751"/>
<path d="M317.387 12.6936H306.441V25.3873H317.387V12.6936Z" fill="#F5D141"/>
<path d="M317.387 0H306.441V12.6936H317.387V0Z" fill="#F5D141"/>
<path d="M306.441 456.919H295.501V469.613H306.441V456.919Z" fill="#EDA751"/>
<path d="M306.441 444.232H295.501V456.919H306.441V444.232Z" fill="#EDA751"/>
<path d="M306.441 431.538H295.501V444.232H306.441V431.538Z" fill="#EDA751"/>
<path d="M306.441 418.845H295.501V431.538H306.441V418.845Z" fill="#EDA751"/>
<path d="M306.441 330.002H295.501V342.689H306.441V330.002Z" fill="#EDA751"/>
<path d="M306.441 317.309H295.501V330.002H306.441V317.309Z" fill="#EDA751"/>
<path d="M306.441 304.615H295.501V317.309H306.441V304.615Z" fill="#EDA751"/>
<path d="M306.441 291.921H295.501V304.615H306.441V291.921Z" fill="#EDA751"/>
<path d="M306.441 279.228H295.501V291.921H306.441V279.228Z" fill="#FFDC9C"/>
<path d="M306.441 266.54H295.501V279.228H306.441V266.54Z" fill="#FFDC9C"/>
<path d="M306.441 253.847H295.501V266.54H306.441V253.847Z" fill="#495059"/>
<path d="M306.441 241.153H295.501V253.847H306.441V241.153Z" fill="#FFDC9C"/>
<path d="M306.441 228.46H295.501V241.153H306.441V228.46Z" fill="#FFDC9C"/>
<path d="M306.441 215.766H295.501V228.46H306.441V215.766Z" fill="#495059"/>
<path d="M306.441 203.079H295.501V215.766H306.441V203.079Z" fill="#FFDC9C"/>
<path d="M306.441 190.385H295.501V203.079H306.441V190.385Z" fill="#FFDC9C"/>
<path d="M306.441 177.691H295.501V190.385H306.441V177.691Z" fill="#495059"/>
<path d="M306.441 164.998H295.501V177.691H306.441V164.998Z" fill="#FFDC9C"/>
<path d="M306.441 152.311H295.501V164.998H306.441V152.311Z" fill="#FFDC9C"/>
<path d="M306.441 139.617H295.501V152.311H306.441V139.617Z" fill="#FFDC9C"/>
<path d="M306.441 126.923H295.501V139.617H306.441V126.923Z" fill="#FFDC9C"/>
<path d="M306.441 114.23H295.501V126.923H306.441V114.23Z" fill="#FFDC9C"/>
<path d="M306.441 101.536H295.501V114.23H306.441V101.536Z" fill="#FFDC9C"/>
<path d="M306.441 88.849H295.501V101.536H306.441V88.849Z" fill="#EDA751"/>
<path d="M306.441 76.1553H295.501V88.849H306.441V76.1553Z" fill="#EDA751"/>
<path d="M306.441 63.4617H295.501V76.1553H306.441V63.4617Z" fill="#EDA751"/>
<path d="M306.441 25.3873H295.501V38.0744H306.441V25.3873Z" fill="#F5D141"/>
<path d="M295.501 469.613H284.556V482.306H295.501V469.613Z" fill="#EDA751"/>
<path d="M295.501 456.919H284.556V469.613H295.501V456.919Z" fill="#EDA751"/>
<path d="M295.501 444.232H284.556V456.919H295.501V444.232Z" fill="#EDA751"/>
<path d="M295.501 431.538H284.556V444.232H295.501V431.538Z" fill="#EDA751"/>
<path d="M295.501 418.845H284.556V431.538H295.501V418.845Z" fill="#EDA751"/>
<path d="M295.501 406.151H284.556V418.845H295.501V406.151Z" fill="#EDA751"/>
<path d="M295.501 393.457H284.556V406.151H295.501V393.457Z" fill="#BA772D"/>
<path d="M295.501 355.383H284.556V368.077H295.501V355.383Z" fill="#FFDC9C"/>
<path d="M295.501 342.689H284.556V355.383H295.501V342.689Z" fill="#FFDC9C"/>
<path d="M295.501 330.002H284.556V342.689H295.501V330.002Z" fill="#EDA751"/>
<path d="M295.501 317.309H284.556V330.002H295.501V317.309Z" fill="#EDA751"/>
<path d="M295.501 304.615H284.556V317.309H295.501V304.615Z" fill="#EDA751"/>
<path d="M295.501 291.921H284.556V304.615H295.501V291.921Z" fill="#FFDC9C"/>
<path d="M295.501 279.228H284.556V291.921H295.501V279.228Z" fill="#FFDC9C"/>
<path d="M295.501 266.54H284.556V279.228H295.501V266.54Z" fill="#FFDC9C"/>
<path d="M295.501 253.847H284.556V266.54H295.501V253.847Z" fill="#FFDC9C"/>
<path d="M295.501 241.153H284.556V253.847H295.501V241.153Z" fill="#495059"/>
<path d="M295.501 228.46H284.556V241.153H295.501V228.46Z" fill="#FFDC9C"/>
<path d="M295.501 215.766H284.556V228.46H295.501V215.766Z" fill="#FF91AB"/>
<path d="M295.501 203.079H284.556V215.766H295.501V203.079Z" fill="#FF91AB"/>
<path d="M295.501 190.385H284.556V203.079H295.501V190.385Z" fill="#495059"/>
<path d="M295.501 177.691H284.556V190.385H295.501V177.691Z" fill="#FFDC9C"/>
<path d="M295.501 164.998H284.556V177.691H295.501V164.998Z" fill="#FFDC9C"/>
<path d="M295.501 152.311H284.556V164.998H295.501V152.311Z" fill="#FFDC9C"/>
<path d="M295.501 139.617H284.556V152.311H295.501V139.617Z" fill="#FFDC9C"/>
<path d="M295.501 126.923H284.556V139.617H295.501V126.923Z" fill="#FFDC9C"/>
<path d="M295.501 114.23H284.556V126.923H295.501V114.23Z" fill="#FFDC9C"/>
<path d="M295.501 101.536H284.556V114.23H295.501V101.536Z" fill="#FFDC9C"/>
<path d="M295.501 88.849H284.556V101.536H295.501V88.849Z" fill="#EDA751"/>
<path d="M295.501 76.1553H284.556V88.849H295.501V76.1553Z" fill="#EDA751"/>
<path d="M295.501 63.4617H284.556V76.1553H295.501V63.4617Z" fill="#EDA751"/>
<path d="M284.556 469.613H273.61V482.306H284.556V469.613Z" fill="#EDA751"/>
<path d="M284.556 456.919H273.61V469.613H284.556V456.919Z" fill="#EDA751"/>
<path d="M284.556 444.232H273.61V456.919H284.556V444.232Z" fill="#EDA751"/>
<path d="M284.556 431.538H273.61V444.232H284.556V431.538Z" fill="#EDA751"/>
<path d="M284.556 418.845H273.61V431.538H284.556V418.845Z" fill="#EDA751"/>
<path d="M284.556 406.151H273.61V418.845H284.556V406.151Z" fill="#BA772D"/>
<path d="M284.556 393.457H273.61V406.151H284.556V393.457Z" fill="#BA772D"/>
<path d="M284.556 380.77H273.61V393.457H284.556V380.77Z" fill="#FFDC9C"/>
<path d="M284.556 368.077H273.61V380.77H284.556V368.077Z" fill="#FFDC9C"/>
<path d="M284.556 355.383H273.61V368.077H284.556V355.383Z" fill="#FFDC9C"/>
<path d="M284.556 342.689H273.61V355.383H284.556V342.689Z" fill="#FFDC9C"/>
<path d="M284.556 330.002H273.61V342.689H284.556V330.002Z" fill="#FFDC9C"/>
<path d="M284.556 317.309H273.61V330.002H284.556V317.309Z" fill="#FFDC9C"/>
<path d="M284.556 304.615H273.61V317.309H284.556V304.615Z" fill="#FFDC9C"/>
<path d="M284.556 291.921H273.61V304.615H284.556V291.921Z" fill="#FFDC9C"/>
<path d="M284.556 279.228H273.61V291.921H284.556V279.228Z" fill="#FFDC9C"/>
<path d="M284.556 266.54H273.61V279.228H284.556V266.54Z" fill="#FFDC9C"/>
<path d="M284.556 253.847H273.61V266.54H284.556V253.847Z" fill="#FFDC9C"/>
<path d="M284.556 241.153H273.61V253.847H284.556V241.153Z" fill="#FFDC9C"/>
<path d="M284.556 228.46H273.61V241.153H284.556V228.46Z" fill="#495059"/>
<path d="M284.556 215.766H273.61V228.46H284.556V215.766Z" fill="#FF91AB"/>
<path d="M284.556 203.079H273.61V215.766H284.556V203.079Z" fill="#495059"/>
<path d="M284.556 190.385H273.61V203.079H284.556V190.385Z" fill="#FF91AB"/>
<path d="M284.556 177.691H273.61V190.385H284.556V177.691Z" fill="#FFDC9C"/>
<path d="M284.556 164.998H273.61V177.691H284.556V164.998Z" fill="#FFDC9C"/>
<path d="M284.556 152.311H273.61V164.998H284.556V152.311Z" fill="#FFDC9C"/>
<path d="M284.556 139.617H273.61V152.311H284.556V139.617Z" fill="#FFDC9C"/>
<path d="M284.556 126.923H273.61V139.617H284.556V126.923Z" fill="#FFDC9C"/>
<path d="M284.556 114.23H273.61V126.923H284.556V114.23Z" fill="#FFDC9C"/>
<path d="M284.556 101.536H273.61V114.23H284.556V101.536Z" fill="#FFDC9C"/>
<path d="M284.556 88.849H273.61V101.536H284.556V88.849Z" fill="#FFDC9C"/>
<path d="M284.556 76.1553H273.61V88.849H284.556V76.1553Z" fill="#EDA751"/>
<path d="M273.61 469.613H262.665V482.306H273.61V469.613Z" fill="#EDA751"/>
<path d="M273.61 456.919H262.665V469.613H273.61V456.919Z" fill="#EDA751"/>
<path d="M273.61 418.845H262.665V431.538H273.61V418.845Z" fill="#BA772D"/>
<path d="M273.61 406.151H262.665V418.845H273.61V406.151Z" fill="#BA772D"/>
<path d="M273.61 393.457H262.665V406.151H273.61V393.457Z" fill="#FFDC9C"/>
<path d="M273.61 380.77H262.665V393.457H273.61V380.77Z" fill="#FFDC9C"/>
<path d="M273.61 368.077H262.665V380.77H273.61V368.077Z" fill="#FFDC9C"/>
<path d="M273.61 355.383H262.665V368.077H273.61V355.383Z" fill="#FFDC9C"/>
<path d="M273.61 342.689H262.665V355.383H273.61V342.689Z" fill="#FFDC9C"/>
<path d="M273.61 330.002H262.665V342.689H273.61V330.002Z" fill="#FFDC9C"/>
<path d="M273.61 317.309H262.665V330.002H273.61V317.309Z" fill="#FFDC9C"/>
<path d="M273.61 304.615H262.665V317.309H273.61V304.615Z" fill="#FFDC9C"/>
<path d="M273.61 291.921H262.665V304.615H273.61V291.921Z" fill="#FFDC9C"/>
<path d="M273.61 279.228H262.665V291.921H273.61V279.228Z" fill="#FFDC9C"/>
<path d="M273.61 266.54H262.665V279.228H273.61V266.54Z" fill="#FFDC9C"/>
<path d="M273.61 253.847H262.665V266.54H273.61V253.847Z" fill="#FFDC9C"/>
<path d="M273.61 241.153H262.665V253.847H273.61V241.153Z" fill="#FFDC9C"/>
<path d="M273.61 228.46H262.665V241.153H273.61V228.46Z" fill="#FF91AB"/>
<path d="M273.61 215.766H262.665V228.46H273.61V215.766Z" fill="#FF91AB"/>
<path d="M273.61 203.079H262.665V215.766H273.61V203.079Z" fill="#FF91AB"/>
<path d="M273.61 190.385H262.665V203.079H273.61V190.385Z" fill="#FF91AB"/>
<path d="M273.61 177.691H262.665V190.385H273.61V177.691Z" fill="#495059"/>
<path d="M273.61 164.998H262.665V177.691H273.61V164.998Z" fill="#495059"/>
<path d="M273.61 152.311H262.665V164.998H273.61V152.311Z" fill="#FFDC9C"/>
<path d="M273.61 139.617H262.665V152.311H273.61V139.617Z" fill="#FFDC9C"/>
<path d="M273.61 126.923H262.665V139.617H273.61V126.923Z" fill="#495059"/>
<path d="M273.61 114.23H262.665V126.923H273.61V114.23Z" fill="#FFDC9C"/>
<path d="M273.61 101.536H262.665V114.23H273.61V101.536Z" fill="#FFDC9C"/>
<path d="M273.61 88.849H262.665V101.536H273.61V88.849Z" fill="#FFDC9C"/>
<path d="M273.61 76.1553H262.665V88.849H273.61V76.1553Z" fill="#FFDC9C"/>
<path d="M262.665 418.845H251.725V431.538H262.665V418.845Z" fill="#F6CF81"/>
<path d="M262.665 406.151H251.725V418.845H262.665V406.151Z" fill="#FFDC9C"/>
<path d="M262.665 393.457H251.725V406.151H262.665V393.457Z" fill="#FFDC9C"/>
<path d="M262.665 380.77H251.725V393.457H262.665V380.77Z" fill="#FFDC9C"/>
<path d="M262.665 368.077H251.725V380.77H262.665V368.077Z" fill="#FFDC9C"/>
<path d="M262.665 355.383H251.725V368.077H262.665V355.383Z" fill="#FFDC9C"/>
<path d="M262.665 342.689H251.725V355.383H262.665V342.689Z" fill="#FFDC9C"/>
<path d="M262.665 330.002H251.725V342.689H262.665V330.002Z" fill="#FFDC9C"/>
<path d="M262.665 317.309H251.725V330.002H262.665V317.309Z" fill="#FFDC9C"/>
<path d="M262.665 304.615H251.725V317.309H262.665V304.615Z" fill="#FFDC9C"/>
<path d="M262.665 291.921H251.725V304.615H262.665V291.921Z" fill="#FFDC9C"/>
<path d="M262.665 279.228H251.725V291.921H262.665V279.228Z" fill="#FFDC9C"/>
<path d="M262.665 266.54H251.725V279.228H262.665V266.54Z" fill="#FFDC9C"/>
<path d="M262.665 253.847H251.725V266.54H262.665V253.847Z" fill="#FFDC9C"/>
<path d="M262.665 241.153H251.725V253.847H262.665V241.153Z" fill="#FFDC9C"/>
<path d="M262.665 228.46H251.725V241.153H262.665V228.46Z" fill="#FF91AB"/>
<path d="M262.665 215.766H251.725V228.46H262.665V215.766Z" fill="#FF91AB"/>
<path d="M262.665 203.079H251.725V215.766H262.665V203.079Z" fill="#FF91AB"/>
<path d="M262.665 190.385H251.725V203.079H262.665V190.385Z" fill="#FF91AB"/>
<path d="M262.665 177.691H251.725V190.385H262.665V177.691Z" fill="#FFDC9C"/>
<path d="M262.665 164.998H251.725V177.691H262.665V164.998Z" fill="#495059"/>
<path d="M262.665 152.311H251.725V164.998H262.665V152.311Z" fill="#FFDC9C"/>
<path d="M262.665 139.617H251.725V152.311H262.665V139.617Z" fill="#FFDC9C"/>
<path d="M262.665 126.923H251.725V139.617H262.665V126.923Z" fill="#FFDC9C"/>
<path d="M262.665 114.23H251.725V126.923H262.665V114.23Z" fill="#495059"/>
<path d="M262.665 101.536H251.725V114.23H262.665V101.536Z" fill="#FFDC9C"/>
<path d="M262.665 88.849H251.725V101.536H262.665V88.849Z" fill="#FFDC9C"/>
<path d="M262.665 76.1553H251.725V88.849H262.665V76.1553Z" fill="#FFDC9C"/>
<path d="M262.665 63.4617H251.725V76.1553H262.665V63.4617Z" fill="#F5D141"/>
<path d="M251.725 418.845H240.779V431.538H251.725V418.845Z" fill="#FFDC9C"/>
<path d="M251.725 406.151H240.779V418.845H251.725V406.151Z" fill="#FFDC9C"/>
<path d="M251.725 393.457H240.779V406.151H251.725V393.457Z" fill="#FFDC9C"/>
<path d="M251.725 380.77H240.779V393.457H251.725V380.77Z" fill="#FFDC9C"/>
<path d="M251.725 368.077H240.779V380.77H251.725V368.077Z" fill="#FFDC9C"/>
<path d="M251.725 355.383H240.779V368.077H251.725V355.383Z" fill="#FFDC9C"/>
<path d="M251.725 342.689H240.779V355.383H251.725V342.689Z" fill="#FFDC9C"/>
<path d="M251.725 330.002H240.779V342.689H251.725V330.002Z" fill="#FFDC9C"/>
<path d="M251.725 317.309H240.779V330.002H251.725V317.309Z" fill="#FFDC9C"/>
<path d="M251.725 304.615H240.779V317.309H251.725V304.615Z" fill="#FFDC9C"/>
<path d="M251.725 291.921H240.779V304.615H251.725V291.921Z" fill="#FFDC9C"/>
<path d="M251.725 279.228H240.779V291.921H251.725V279.228Z" fill="#FFDC9C"/>
<path d="M251.725 266.54H240.779V279.228H251.725V266.54Z" fill="#FFDC9C"/>
<path d="M251.725 253.847H240.779V266.54H251.725V253.847Z" fill="#FFDC9C"/>
<path d="M251.725 241.153H240.779V253.847H251.725V241.153Z" fill="#FFDC9C"/>
<path d="M251.725 228.46H240.779V241.153H251.725V228.46Z" fill="#FFDC9C"/>
<path d="M251.725 215.766H240.779V228.46H251.725V215.766Z" fill="#FF91AB"/>
<path d="M251.725 203.079H240.779V215.766H251.725V203.079Z" fill="#FF91AB"/>
<path d="M251.725 190.385H240.779V203.079H251.725V190.385Z" fill="#FFDC9C"/>
<path d="M251.725 177.691H240.779V190.385H251.725V177.691Z" fill="#495059"/>
<path d="M251.725 164.998H240.779V177.691H251.725V164.998Z" fill="#495059"/>
<path d="M251.725 152.311H240.779V164.998H251.725V152.311Z" fill="#FFDC9C"/>
<path d="M251.725 139.617H240.779V152.311H251.725V139.617Z" fill="#FFDC9C"/>
<path d="M251.725 126.923H240.779V139.617H251.725V126.923Z" fill="#FFDC9C"/>
<path d="M251.725 114.23H240.779V126.923H251.725V114.23Z" fill="#495059"/>
<path d="M251.725 101.536H240.779V114.23H251.725V101.536Z" fill="#FFDC9C"/>
<path d="M251.725 88.849H240.779V101.536H251.725V88.849Z" fill="#FFDC9C"/>
<path d="M251.725 76.1553H240.779V88.849H251.725V76.1553Z" fill="#FFDC9C"/>
<path d="M251.725 50.7681H240.779V63.4617H251.725V50.7681Z" fill="#F5D141"/>
<path d="M251.725 38.0744H240.779V50.7681H251.725V38.0744Z" fill="#F5D141"/>
<path d="M240.779 418.845H229.834V431.538H240.779V418.845Z" fill="#FFDC9C"/>
<path d="M240.779 406.151H229.834V418.845H240.779V406.151Z" fill="#FFDC9C"/>
<path d="M240.779 393.457H229.834V406.151H240.779V393.457Z" fill="#FFDC9C"/>
<path d="M240.779 380.77H229.834V393.457H240.779V380.77Z" fill="#FFDC9C"/>
<path d="M240.779 368.077H229.834V380.77H240.779V368.077Z" fill="#FFDC9C"/>
<path d="M240.779 355.383H229.834V368.077H240.779V355.383Z" fill="#FFDC9C"/>
<path d="M240.779 342.689H229.834V355.383H240.779V342.689Z" fill="#FFDC9C"/>
<path d="M240.779 330.002H229.834V342.689H240.779V330.002Z" fill="#FFDC9C"/>
<path d="M240.779 317.309H229.834V330.002H240.779V317.309Z" fill="#FFDC9C"/>
<path d="M240.779 304.615H229.834V317.309H240.779V304.615Z" fill="#FFDC9C"/>
<path d="M240.779 291.921H229.834V304.615H240.779V291.921Z" fill="#FFDC9C"/>
<path d="M240.779 279.228H229.834V291.921H240.779V279.228Z" fill="#FFDC9C"/>
<path d="M240.779 266.54H229.834V279.228H240.779V266.54Z" fill="#FFDC9C"/>
<path d="M240.779 253.847H229.834V266.54H240.779V253.847Z" fill="#FFDC9C"/>
<path d="M240.779 241.153H229.834V253.847H240.779V241.153Z" fill="#FFDC9C"/>
<path d="M240.779 228.46H229.834V241.153H240.779V228.46Z" fill="#FFDC9C"/>
<path d="M240.779 215.766H229.834V228.46H240.779V215.766Z" fill="#FFDC9C"/>
<path d="M240.779 203.079H229.834V215.766H240.779V203.079Z" fill="#FFDC9C"/>
<path d="M240.779 190.385H229.834V203.079H240.779V190.385Z" fill="#FFDC9C"/>
<path d="M240.779 177.691H229.834V190.385H240.779V177.691Z" fill="#FFDC9C"/>
<path d="M240.779 164.998H229.834V177.691H240.779V164.998Z" fill="#FFDC9C"/>
<path d="M240.779 152.311H229.834V164.998H240.779V152.311Z" fill="#FFDC9C"/>
<path d="M240.779 139.617H229.834V152.311H240.779V139.617Z" fill="#FFDC9C"/>
<path d="M240.779 126.923H229.834V139.617H240.779V126.923Z" fill="#FFDC9C"/>
<path d="M240.779 114.23H229.834V126.923H240.779V114.23Z" fill="#FFDC9C"/>
<path d="M240.779 101.536H229.834V114.23H240.779V101.536Z" fill="#FFDC9C"/>
<path d="M240.779 88.849H229.834V101.536H240.779V88.849Z" fill="#FFDC9C"/>
<path d="M240.779 76.1553H229.834V88.849H240.779V76.1553Z" fill="#FFDC9C"/>
<path d="M240.779 25.3873H229.834V38.0744H240.779V25.3873Z" fill="#1AF4FF"/>
<path d="M229.834 418.845H218.888V431.538H229.834V418.845Z" fill="#FFDC9C"/>
<path d="M229.834 406.151H218.888V418.845H229.834V406.151Z" fill="#FFDC9C"/>
<path d="M229.834 393.457H218.888V406.151H229.834V393.457Z" fill="#FFDC9C"/>
<path d="M229.834 380.77H218.888V393.457H229.834V380.77Z" fill="#FFDC9C"/>
<path d="M229.834 368.077H218.888V380.77H229.834V368.077Z" fill="#FFDC9C"/>
<path d="M229.834 355.383H218.888V368.077H229.834V355.383Z" fill="#FFDC9C"/>
<path d="M229.834 342.689H218.888V355.383H229.834V342.689Z" fill="#FFDC9C"/>
<path d="M229.834 330.002H218.888V342.689H229.834V330.002Z" fill="#FFDC9C"/>
<path d="M229.834 317.309H218.888V330.002H229.834V317.309Z" fill="#FFDC9C"/>
<path d="M229.834 304.615H218.888V317.309H229.834V304.615Z" fill="#FFDC9C"/>
<path d="M229.834 291.921H218.888V304.615H229.834V291.921Z" fill="#FFDC9C"/>
<path d="M229.834 279.228H218.888V291.921H229.834V279.228Z" fill="#FFDC9C"/>
<path d="M229.834 266.54H218.888V279.228H229.834V266.54Z" fill="#FFDC9C"/>
<path d="M229.834 253.847H218.888V266.54H229.834V253.847Z" fill="#FFDC9C"/>
<path d="M229.834 241.153H218.888V253.847H229.834V241.153Z" fill="#495059"/>
<path d="M229.834 228.46H218.888V241.153H229.834V228.46Z" fill="#495059"/>
<path d="M229.834 215.766H218.888V228.46H229.834V215.766Z" fill="#FFDC9C"/>
<path d="M229.834 203.079H218.888V215.766H229.834V203.079Z" fill="#FFDC9C"/>
<path d="M229.834 190.385H218.888V203.079H229.834V190.385Z" fill="#FFDC9C"/>
<path d="M229.834 177.691H218.888V190.385H229.834V177.691Z" fill="#FFDC9C"/>
<path d="M229.834 164.998H218.888V177.691H229.834V164.998Z" fill="#FFDC9C"/>
<path d="M229.834 152.311H218.888V164.998H229.834V152.311Z" fill="#FFDC9C"/>
<path d="M229.834 139.617H218.888V152.311H229.834V139.617Z" fill="#FFDC9C"/>
<path d="M229.834 126.923H218.888V139.617H229.834V126.923Z" fill="#FFDC9C"/>
<path d="M229.834 114.23H218.888V126.923H229.834V114.23Z" fill="#FFDC9C"/>
<path d="M229.834 101.536H218.888V114.23H229.834V101.536Z" fill="#FFDC9C"/>
<path d="M229.834 88.849H218.888V101.536H229.834V88.849Z" fill="#FFDC9C"/>
<path d="M229.834 76.1553H218.888V88.849H229.834V76.1553Z" fill="#FFDC9C"/>
<path d="M229.834 12.6936H218.888V25.3873H229.834V12.6936Z" fill="#1AF4FF"/>
<path d="M229.834 0H218.888V12.6936H229.834V0Z" fill="#1AF4FF"/>
<path d="M218.888 418.845H207.943V431.538H218.888V418.845Z" fill="#FFDC9C"/>
<path d="M218.888 406.151H207.943V418.845H218.888V406.151Z" fill="#FFDC9C"/>
<path d="M218.888 393.457H207.943V406.151H218.888V393.457Z" fill="#FFDC9C"/>
<path d="M218.888 380.77H207.943V393.457H218.888V380.77Z" fill="#FFDC9C"/>
<path d="M218.888 368.077H207.943V380.77H218.888V368.077Z" fill="#FFDC9C"/>
<path d="M218.888 355.383H207.943V368.077H218.888V355.383Z" fill="#FFDC9C"/>
<path d="M218.888 342.689H207.943V355.383H218.888V342.689Z" fill="#FFDC9C"/>
<path d="M218.888 330.002H207.943V342.689H218.888V330.002Z" fill="#FFDC9C"/>
<path d="M218.888 317.309H207.943V330.002H218.888V317.309Z" fill="#FFDC9C"/>
<path d="M218.888 304.615H207.943V317.309H218.888V304.615Z" fill="#FFDC9C"/>
<path d="M218.888 291.921H207.943V304.615H218.888V291.921Z" fill="#FFDC9C"/>
<path d="M218.888 279.228H207.943V291.921H218.888V279.228Z" fill="#FFDC9C"/>
<path d="M218.888 266.54H207.943V279.228H218.888V266.54Z" fill="#FFDC9C"/>
<path d="M218.888 253.847H207.943V266.54H218.888V253.847Z" fill="#495059"/>
<path d="M218.888 241.153H207.943V253.847H218.888V241.153Z" fill="#FF91AB"/>
<path d="M218.888 228.46H207.943V241.153H218.888V228.46Z" fill="#495059"/>
<path d="M218.888 215.766H207.943V228.46H218.888V215.766Z" fill="#FFDC9C"/>
<path d="M218.888 203.079H207.943V215.766H218.888V203.079Z" fill="#FF91AB"/>
<path d="M218.888 190.385H207.943V203.079H218.888V190.385Z" fill="#FF91AB"/>
<path d="M218.888 177.691H207.943V190.385H218.888V177.691Z" fill="#FFDC9C"/>
<path d="M218.888 164.998H207.943V177.691H218.888V164.998Z" fill="#FFDC9C"/>
<path d="M218.888 152.311H207.943V164.998H218.888V152.311Z" fill="#FFDC9C"/>
<path d="M218.888 139.617H207.943V152.311H218.888V139.617Z" fill="#FFDC9C"/>
<path d="M218.888 126.923H207.943V139.617H218.888V126.923Z" fill="#FFDC9C"/>
<path d="M218.888 114.23H207.943V126.923H218.888V114.23Z" fill="#FFDC9C"/>
<path d="M218.888 101.536H207.943V114.23H218.888V101.536Z" fill="#FFDC9C"/>
<path d="M218.888 88.849H207.943V101.536H218.888V88.849Z" fill="#FFDC9C"/>
<path d="M218.888 76.1553H207.943V88.849H218.888V76.1553Z" fill="#FFDC9C"/>
<path d="M207.943 418.845H197.003V431.538H207.943V418.845Z" fill="#FFDC9C"/>
<path d="M207.943 406.151H197.003V418.845H207.943V406.151Z" fill="#FFDC9C"/>
<path d="M207.943 393.457H197.003V406.151H207.943V393.457Z" fill="#FFDC9C"/>
<path d="M207.943 380.77H197.003V393.457H207.943V380.77Z" fill="#FFDC9C"/>
<path d="M207.943 368.077H197.003V380.77H207.943V368.077Z" fill="#FFDC9C"/>
<path d="M207.943 355.383H197.003V368.077H207.943V355.383Z" fill="#FFDC9C"/>
<path d="M207.943 342.689H197.003V355.383H207.943V342.689Z" fill="#FFDC9C"/>
<path d="M207.943 330.002H197.003V342.689H207.943V330.002Z" fill="#FFDC9C"/>
<path d="M207.943 317.309H197.003V330.002H207.943V317.309Z" fill="#FFDC9C"/>
<path d="M207.943 304.615H197.003V317.309H207.943V304.615Z" fill="#FFDC9C"/>
<path d="M207.943 291.921H197.003V304.615H207.943V291.921Z" fill="#FFDC9C"/>
<path d="M207.943 279.228H197.003V291.921H207.943V279.228Z" fill="#FFDC9C"/>
<path d="M207.943 266.54H197.003V279.228H207.943V266.54Z" fill="#FFDC9C"/>
<path d="M207.943 253.847H197.003V266.54H207.943V253.847Z" fill="#495059"/>
<path d="M207.943 241.153H197.003V253.847H207.943V241.153Z" fill="#FF91AB"/>
<path d="M207.943 228.46H197.003V241.153H207.943V228.46Z" fill="#495059"/>
<path d="M207.943 215.766H197.003V228.46H207.943V215.766Z" fill="#FFDC9C"/>
<path d="M207.943 203.079H197.003V215.766H207.943V203.079Z" fill="#FF91AB"/>
<path d="M207.943 190.385H197.003V203.079H207.943V190.385Z" fill="#FF91AB"/>
<path d="M207.943 177.691H197.003V190.385H207.943V177.691Z" fill="#FFDC9C"/>
<path d="M207.943 164.998H197.003V177.691H207.943V164.998Z" fill="#FFDC9C"/>
<path d="M207.943 152.311H197.003V164.998H207.943V152.311Z" fill="#FFDC9C"/>
<path d="M207.943 139.617H197.003V152.311H207.943V139.617Z" fill="#FFDC9C"/>
<path d="M207.943 126.923H197.003V139.617H207.943V126.923Z" fill="#FFDC9C"/>
<path d="M207.943 114.23H197.003V126.923H207.943V114.23Z" fill="#FFDC9C"/>
<path d="M207.943 101.536H197.003V114.23H207.943V101.536Z" fill="#FFDC9C"/>
<path d="M207.943 88.849H197.003V101.536H207.943V88.849Z" fill="#FFDC9C"/>
<path d="M207.943 76.1553H197.003V88.849H207.943V76.1553Z" fill="#FFDC9C"/>
<path d="M207.943 50.7681H197.003V63.4617H207.943V50.7681Z" fill="#F44282"/>
<path d="M207.943 38.0744H197.003V50.7681H207.943V38.0744Z" fill="#F44282"/>
<path d="M197.003 418.845H186.057V431.538H197.003V418.845Z" fill="#F6CF81"/>
<path d="M197.003 406.151H186.057V418.845H197.003V406.151Z" fill="#FFDC9C"/>
<path d="M197.003 393.457H186.057V406.151H197.003V393.457Z" fill="#FFDC9C"/>
<path d="M197.003 380.77H186.057V393.457H197.003V380.77Z" fill="#FFDC9C"/>
<path d="M197.003 368.077H186.057V380.77H197.003V368.077Z" fill="#FFDC9C"/>
<path d="M197.003 355.383H186.057V368.077H197.003V355.383Z" fill="#FFDC9C"/>
<path d="M197.003 342.689H186.057V355.383H197.003V342.689Z" fill="#FFDC9C"/>
<path d="M197.003 330.002H186.057V342.689H197.003V330.002Z" fill="#FFDC9C"/>
<path d="M197.003 317.309H186.057V330.002H197.003V317.309Z" fill="#FFDC9C"/>
<path d="M197.003 304.615H186.057V317.309H197.003V304.615Z" fill="#FFDC9C"/>
<path d="M197.003 291.921H186.057V304.615H197.003V291.921Z" fill="#FFDC9C"/>
<path d="M197.003 279.228H186.057V291.921H197.003V279.228Z" fill="#FFDC9C"/>
<path d="M197.003 266.54H186.057V279.228H197.003V266.54Z" fill="#FFDC9C"/>
<path d="M197.003 253.847H186.057V266.54H197.003V253.847Z" fill="#495059"/>
<path d="M197.003 241.153H186.057V253.847H197.003V241.153Z" fill="#FF91AB"/>
<path d="M197.003 228.46H186.057V241.153H197.003V228.46Z" fill="#495059"/>
<path d="M197.003 215.766H186.057V228.46H197.003V215.766Z" fill="#FFDC9C"/>
<path d="M197.003 203.079H186.057V215.766H197.003V203.079Z" fill="#FF91AB"/>
<path d="M197.003 190.385H186.057V203.079H197.003V190.385Z" fill="#FF91AB"/>
<path d="M197.003 177.691H186.057V190.385H197.003V177.691Z" fill="#FFDC9C"/>
<path d="M197.003 164.998H186.057V177.691H197.003V164.998Z" fill="#FFDC9C"/>
<path d="M197.003 152.311H186.057V164.998H197.003V152.311Z" fill="#FFDC9C"/>
<path d="M197.003 139.617H186.057V152.311H197.003V139.617Z" fill="#FFDC9C"/>
<path d="M197.003 126.923H186.057V139.617H197.003V126.923Z" fill="#FFDC9C"/>
<path d="M197.003 114.23H186.057V126.923H197.003V114.23Z" fill="#FFDC9C"/>
<path d="M197.003 101.536H186.057V114.23H197.003V101.536Z" fill="#FFDC9C"/>
<path d="M197.003 88.849H186.057V101.536H197.003V88.849Z" fill="#FFDC9C"/>
<path d="M197.003 76.1553H186.057V88.849H197.003V76.1553Z" fill="#FFDC9C"/>
<path d="M197.003 63.4617H186.057V76.1553H197.003V63.4617Z" fill="#F44282"/>
<path d="M186.057 482.306H175.112V495H186.057V482.306Z" fill="#EDA751"/>
<path d="M186.057 469.613H175.112V482.306H186.057V469.613Z" fill="#EDA751"/>
<path d="M186.057 456.919H175.112V469.613H186.057V456.919Z" fill="#EDA751"/>
<path d="M186.057 418.845H175.112V431.538H186.057V418.845Z" fill="#F6CF81"/>
<path d="M186.057 406.151H175.112V418.845H186.057V406.151Z" fill="#F6CF81"/>
<path d="M186.057 393.457H175.112V406.151H186.057V393.457Z" fill="#FFDC9C"/>
<path d="M186.057 380.77H175.112V393.457H186.057V380.77Z" fill="#FFDC9C"/>
<path d="M186.057 368.077H175.112V380.77H186.057V368.077Z" fill="#FFDC9C"/>
<path d="M186.057 355.383H175.112V368.077H186.057V355.383Z" fill="#FFDC9C"/>
<path d="M186.057 342.689H175.112V355.383H186.057V342.689Z" fill="#FFDC9C"/>
<path d="M186.057 330.002H175.112V342.689H186.057V330.002Z" fill="#FFDC9C"/>
<path d="M186.057 317.309H175.112V330.002H186.057V317.309Z" fill="#FFDC9C"/>
<path d="M186.057 304.615H175.112V317.309H186.057V304.615Z" fill="#FFDC9C"/>
<path d="M186.057 291.921H175.112V304.615H186.057V291.921Z" fill="#FFDC9C"/>
<path d="M186.057 279.228H175.112V291.921H186.057V279.228Z" fill="#FFDC9C"/>
<path d="M186.057 266.54H175.112V279.228H186.057V266.54Z" fill="#FFDC9C"/>
<path d="M186.057 253.847H175.112V266.54H186.057V253.847Z" fill="#FFDC9C"/>
<path d="M186.057 241.153H175.112V253.847H186.057V241.153Z" fill="#495059"/>
<path d="M186.057 228.46H175.112V241.153H186.057V228.46Z" fill="#495059"/>
<path d="M186.057 215.766H175.112V228.46H186.057V215.766Z" fill="#FFDC9C"/>
<path d="M186.057 203.079H175.112V215.766H186.057V203.079Z" fill="#FFDC9C"/>
<path d="M186.057 190.385H175.112V203.079H186.057V190.385Z" fill="#FFDC9C"/>
<path d="M186.057 177.691H175.112V190.385H186.057V177.691Z" fill="#FFDC9C"/>
<path d="M186.057 164.998H175.112V177.691H186.057V164.998Z" fill="#FFDC9C"/>
<path d="M186.057 152.311H175.112V164.998H186.057V152.311Z" fill="#FFDC9C"/>
<path d="M186.057 139.617H175.112V152.311H186.057V139.617Z" fill="#FFDC9C"/>
<path d="M186.057 126.923H175.112V139.617H186.057V126.923Z" fill="#FFDC9C"/>
<path d="M186.057 114.23H175.112V126.923H186.057V114.23Z" fill="#FFDC9C"/>
<path d="M186.057 101.536H175.112V114.23H186.057V101.536Z" fill="#FFDC9C"/>
<path d="M186.057 88.849H175.112V101.536H186.057V88.849Z" fill="#FFDC9C"/>
<path d="M186.057 76.1553H175.112V88.849H186.057V76.1553Z" fill="#FFDC9C"/>
<path d="M175.112 482.306H164.166V495H175.112V482.306Z" fill="#EDA751"/>
<path d="M175.112 469.613H164.166V482.306H175.112V469.613Z" fill="#EDA751"/>
<path d="M175.112 456.919H164.166V469.613H175.112V456.919Z" fill="#EDA751"/>
<path d="M175.112 444.232H164.166V456.919H175.112V444.232Z" fill="#EDA751"/>
<path d="M175.112 431.538H164.166V444.232H175.112V431.538Z" fill="#BA772D"/>
<path d="M175.112 418.845H164.166V431.538H175.112V418.845Z" fill="#F6CF81"/>
<path d="M175.112 406.151H164.166V418.845H175.112V406.151Z" fill="#F6CF81"/>
<path d="M175.112 393.457H164.166V406.151H175.112V393.457Z" fill="#F6CF81"/>
<path d="M175.112 380.77H164.166V393.457H175.112V380.77Z" fill="#FFDC9C"/>
<path d="M175.112 368.077H164.166V380.77H175.112V368.077Z" fill="#FFDC9C"/>
<path d="M175.112 355.383H164.166V368.077H175.112V355.383Z" fill="#FFDC9C"/>
<path d="M175.112 342.689H164.166V355.383H175.112V342.689Z" fill="#FFDC9C"/>
<path d="M175.112 330.002H164.166V342.689H175.112V330.002Z" fill="#FFDC9C"/>
<path d="M175.112 317.309H164.166V330.002H175.112V317.309Z" fill="#FFDC9C"/>
<path d="M175.112 304.615H164.166V317.309H175.112V304.615Z" fill="#FFDC9C"/>
<path d="M175.112 291.921H164.166V304.615H175.112V291.921Z" fill="#FFDC9C"/>
<path d="M175.112 279.228H164.166V291.921H175.112V279.228Z" fill="#FFDC9C"/>
<path d="M175.112 266.54H164.166V279.228H175.112V266.54Z" fill="#FFDC9C"/>
<path d="M175.112 253.847H164.166V266.54H175.112V253.847Z" fill="#FFDC9C"/>
<path d="M175.112 241.153H164.166V253.847H175.112V241.153Z" fill="#FFDC9C"/>
<path d="M175.112 228.46H164.166V241.153H175.112V228.46Z" fill="#FFDC9C"/>
<path d="M175.112 215.766H164.166V228.46H175.112V215.766Z" fill="#FFDC9C"/>
<path d="M175.112 203.079H164.166V215.766H175.112V203.079Z" fill="#FFDC9C"/>
<path d="M175.112 190.385H164.166V203.079H175.112V190.385Z" fill="#FFDC9C"/>
<path d="M175.112 177.691H164.166V190.385H175.112V177.691Z" fill="#FFDC9C"/>
<path d="M175.112 164.998H164.166V177.691H175.112V164.998Z" fill="#FFDC9C"/>
<path d="M175.112 152.311H164.166V164.998H175.112V152.311Z" fill="#FFDC9C"/>
<path d="M175.112 139.617H164.166V152.311H175.112V139.617Z" fill="#FFDC9C"/>
<path d="M175.112 126.923H164.166V139.617H175.112V126.923Z" fill="#FFDC9C"/>
<path d="M175.112 114.23H164.166V126.923H175.112V114.23Z" fill="#FFDC9C"/>
<path d="M175.112 101.536H164.166V114.23H175.112V101.536Z" fill="#FFDC9C"/>
<path d="M175.112 88.849H164.166V101.536H175.112V88.849Z" fill="#FFDC9C"/>
<path d="M175.112 76.1553H164.166V88.849H175.112V76.1553Z" fill="#FFDC9C"/>
<path d="M175.112 12.6936H164.166V25.3873H175.112V12.6936Z" fill="#F5D141"/>
<path d="M175.112 0H164.166V12.6936H175.112V0Z" fill="#F5D141"/>
<path d="M164.166 482.306H153.221V495H164.166V482.306Z" fill="#EDA751"/>
<path d="M164.166 469.613H153.221V482.306H164.166V469.613Z" fill="#EDA751"/>
<path d="M164.166 456.919H153.221V469.613H164.166V456.919Z" fill="#EDA751"/>
<path d="M164.166 444.232H153.221V456.919H164.166V444.232Z" fill="#EDA751"/>
<path d="M164.166 431.538H153.221V444.232H164.166V431.538Z" fill="#EDA751"/>
<path d="M164.166 418.845H153.221V431.538H164.166V418.845Z" fill="#BA772D"/>
<path d="M164.166 406.151H153.221V418.845H164.166V406.151Z" fill="#F6CF81"/>
<path d="M164.166 393.457H153.221V406.151H164.166V393.457Z" fill="#F6CF81"/>
<path d="M164.166 380.77H153.221V393.457H164.166V380.77Z" fill="#F6CF81"/>
<path d="M164.166 368.077H153.221V380.77H164.166V368.077Z" fill="#F6CF81"/>
<path d="M164.166 355.383H153.221V368.077H164.166V355.383Z" fill="#FFDC9C"/>
<path d="M164.166 342.689H153.221V355.383H164.166V342.689Z" fill="#FFDC9C"/>
<path d="M164.166 330.002H153.221V342.689H164.166V330.002Z" fill="#FFDC9C"/>
<path d="M164.166 317.309H153.221V330.002H164.166V317.309Z" fill="#F6CF81"/>
<path d="M164.166 304.615H153.221V317.309H164.166V304.615Z" fill="#F6CF81"/>
<path d="M164.166 291.921H153.221V304.615H164.166V291.921Z" fill="#FFDC9C"/>
<path d="M164.166 279.228H153.221V291.921H164.166V279.228Z" fill="#FFDC9C"/>
<path d="M164.166 266.54H153.221V279.228H164.166V266.54Z" fill="#FFDC9C"/>
<path d="M164.166 253.847H153.221V266.54H164.166V253.847Z" fill="#FFDC9C"/>
<path d="M164.166 241.153H153.221V253.847H164.166V241.153Z" fill="#FFDC9C"/>
<path d="M164.166 228.46H153.221V241.153H164.166V228.46Z" fill="#FFDC9C"/>
<path d="M164.166 215.766H153.221V228.46H164.166V215.766Z" fill="#FF91AB"/>
<path d="M164.166 203.079H153.221V215.766H164.166V203.079Z" fill="#FF91AB"/>
<path d="M164.166 190.385H153.221V203.079H164.166V190.385Z" fill="#FFDC9C"/>
<path d="M164.166 177.691H153.221V190.385H164.166V177.691Z" fill="#495059"/>
<path d="M164.166 164.998H153.221V177.691H164.166V164.998Z" fill="#495059"/>
<path d="M164.166 152.311H153.221V164.998H164.166V152.311Z" fill="#FFDC9C"/>
<path d="M164.166 139.617H153.221V152.311H164.166V139.617Z" fill="#FFDC9C"/>
<path d="M164.166 126.923H153.221V139.617H164.166V126.923Z" fill="#FFDC9C"/>
<path d="M164.166 114.23H153.221V126.923H164.166V114.23Z" fill="#FFDC9C"/>
<path d="M164.166 101.536H153.221V114.23H164.166V101.536Z" fill="#FFDC9C"/>
<path d="M164.166 88.849H153.221V101.536H164.166V88.849Z" fill="#FFDC9C"/>
<path d="M164.166 76.1553H153.221V88.849H164.166V76.1553Z" fill="#FFDC9C"/>
<path d="M164.166 25.3873H153.221V38.0744H164.166V25.3873Z" fill="#F5D141"/>
<path d="M164.166 12.6936H153.221V25.3873H164.166V12.6936Z" fill="#F5D141"/>
<path d="M153.221 469.613H142.281V482.306H153.221V469.613Z" fill="#EDA751"/>
<path d="M153.221 456.919H142.281V469.613H153.221V456.919Z" fill="#EDA751"/>
<path d="M153.221 444.232H142.281V456.919H153.221V444.232Z" fill="#EDA751"/>
<path d="M153.221 431.538H142.281V444.232H153.221V431.538Z" fill="#EDA751"/>
<path d="M153.221 418.845H142.281V431.538H153.221V418.845Z" fill="#BA772D"/>
<path d="M153.221 406.151H142.281V418.845H153.221V406.151Z" fill="#BA772D"/>
<path d="M153.221 393.457H142.281V406.151H153.221V393.457Z" fill="#F6CF81"/>
<path d="M153.221 380.77H142.281V393.457H153.221V380.77Z" fill="#F6CF81"/>
<path d="M153.221 368.077H142.281V380.77H153.221V368.077Z" fill="#F6CF81"/>
<path d="M153.221 355.383H142.281V368.077H153.221V355.383Z" fill="#F6CF81"/>
<path d="M153.221 342.689H142.281V355.383H153.221V342.689Z" fill="#F6CF81"/>
<path d="M153.221 330.002H142.281V342.689H153.221V330.002Z" fill="#F6CF81"/>
<path d="M153.221 317.309H142.281V330.002H153.221V317.309Z" fill="#F6CF81"/>
<path d="M153.221 304.615H142.281V317.309H153.221V304.615Z" fill="#F6CF81"/>
<path d="M153.221 291.921H142.281V304.615H153.221V291.921Z" fill="#F6CF81"/>
<path d="M153.221 279.228H142.281V291.921H153.221V279.228Z" fill="#FFDC9C"/>
<path d="M153.221 266.54H142.281V279.228H153.221V266.54Z" fill="#FFDC9C"/>
<path d="M153.221 253.847H142.281V266.54H153.221V253.847Z" fill="#FFDC9C"/>
<path d="M153.221 241.153H142.281V253.847H153.221V241.153Z" fill="#FFDC9C"/>
<path d="M153.221 228.46H142.281V241.153H153.221V228.46Z" fill="#FF91AB"/>
<path d="M153.221 215.766H142.281V228.46H153.221V215.766Z" fill="#FF91AB"/>
<path d="M153.221 203.079H142.281V215.766H153.221V203.079Z" fill="#FF91AB"/>
<path d="M153.221 190.385H142.281V203.079H153.221V190.385Z" fill="#FF91AB"/>
<path d="M153.221 177.691H142.281V190.385H153.221V177.691Z" fill="#FFDC9C"/>
<path d="M153.221 164.998H142.281V177.691H153.221V164.998Z" fill="#495059"/>
<path d="M153.221 152.311H142.281V164.998H153.221V152.311Z" fill="#FFDC9C"/>
<path d="M153.221 139.617H142.281V152.311H153.221V139.617Z" fill="#FFDC9C"/>
<path d="M153.221 126.923H142.281V139.617H153.221V126.923Z" fill="#FFDC9C"/>
<path d="M153.221 114.23H142.281V126.923H153.221V114.23Z" fill="#495059"/>
<path d="M153.221 101.536H142.281V114.23H153.221V101.536Z" fill="#FFDC9C"/>
<path d="M153.221 88.849H142.281V101.536H153.221V88.849Z" fill="#FFDC9C"/>
<path d="M142.281 406.151H131.335V418.845H142.281V406.151Z" fill="#EDA751"/>
<path d="M142.281 393.457H131.335V406.151H142.281V393.457Z" fill="#EDA751"/>
<path d="M142.281 380.77H131.335V393.457H142.281V380.77Z" fill="#F6CF81"/>
<path d="M142.281 368.077H131.335V380.77H142.281V368.077Z" fill="#F6CF81"/>
<path d="M142.281 355.383H131.335V368.077H142.281V355.383Z" fill="#F6CF81"/>
<path d="M142.281 342.689H131.335V355.383H142.281V342.689Z" fill="#F6CF81"/>
<path d="M142.281 330.002H131.335V342.689H142.281V330.002Z" fill="#F6CF81"/>
<path d="M142.281 317.309H131.335V330.002H142.281V317.309Z" fill="#F6CF81"/>
<path d="M142.281 304.615H131.335V317.309H142.281V304.615Z" fill="#F6CF81"/>
<path d="M142.281 291.921H131.335V304.615H142.281V291.921Z" fill="#F6CF81"/>
<path d="M142.281 279.228H131.335V291.921H142.281V279.228Z" fill="#FFDC9C"/>
<path d="M142.281 266.54H131.335V279.228H142.281V266.54Z" fill="#FFDC9C"/>
<path d="M142.281 253.847H131.335V266.54H142.281V253.847Z" fill="#FFDC9C"/>
<path d="M142.281 241.153H131.335V253.847H142.281V241.153Z" fill="#FFDC9C"/>
<path d="M142.281 228.46H131.335V241.153H142.281V228.46Z" fill="#FF91AB"/>
<path d="M142.281 215.766H131.335V228.46H142.281V215.766Z" fill="#FF91AB"/>
<path d="M142.281 203.079H131.335V215.766H142.281V203.079Z" fill="#FF91AB"/>
<path d="M142.281 190.385H131.335V203.079H142.281V190.385Z" fill="#FF91AB"/>
<path d="M142.281 177.691H131.335V190.385H142.281V177.691Z" fill="#495059"/>
<path d="M142.281 164.998H131.335V177.691H142.281V164.998Z" fill="#495059"/>
<path d="M142.281 152.311H131.335V164.998H142.281V152.311Z" fill="#FFDC9C"/>
<path d="M142.281 139.617H131.335V152.311H142.281V139.617Z" fill="#FFDC9C"/>
<path d="M142.281 126.923H131.335V139.617H142.281V126.923Z" fill="#FFDC9C"/>
<path d="M142.281 114.23H131.335V126.923H142.281V114.23Z" fill="#495059"/>
<path d="M142.281 101.536H131.335V114.23H142.281V101.536Z" fill="#FFDC9C"/>
<path d="M142.281 88.849H131.335V101.536H142.281V88.849Z" fill="#FFDC9C"/>
<path d="M142.281 76.1553H131.335V88.849H142.281V76.1553Z" fill="#EDA751"/>
<path d="M131.335 406.151H120.39V418.845H131.335V406.151Z" fill="#EDA751"/>
<path d="M131.335 393.457H120.39V406.151H131.335V393.457Z" fill="#EDA751"/>
<path d="M131.335 355.383H120.39V368.077H131.335V355.383Z" fill="#F6CF81"/>
<path d="M131.335 342.689H120.39V355.383H131.335V342.689Z" fill="#F6CF81"/>
<path d="M131.335 330.002H120.39V342.689H131.335V330.002Z" fill="#F6CF81"/>
<path d="M131.335 317.309H120.39V330.002H131.335V317.309Z" fill="#F6CF81"/>
<path d="M131.335 291.921H120.39V304.615H131.335V291.921Z" fill="#F6CF81"/>
<path d="M131.335 279.228H120.39V291.921H131.335V279.228Z" fill="#F6CF81"/>
<path d="M131.335 266.54H120.39V279.228H131.335V266.54Z" fill="#F6CF81"/>
<path d="M131.335 253.847H120.39V266.54H131.335V253.847Z" fill="#FFDC9C"/>
<path d="M131.335 241.153H120.39V253.847H131.335V241.153Z" fill="#FFDC9C"/>
<path d="M131.335 228.46H120.39V241.153H131.335V228.46Z" fill="#495059"/>
<path d="M131.335 215.766H120.39V228.46H131.335V215.766Z" fill="#FF91AB"/>
<path d="M131.335 203.079H120.39V215.766H131.335V203.079Z" fill="#495059"/>
<path d="M131.335 190.385H120.39V203.079H131.335V190.385Z" fill="#FF91AB"/>
<path d="M131.335 177.691H120.39V190.385H131.335V177.691Z" fill="#FFDC9C"/>
<path d="M131.335 164.998H120.39V177.691H131.335V164.998Z" fill="#FFDC9C"/>
<path d="M131.335 152.311H120.39V164.998H131.335V152.311Z" fill="#FFDC9C"/>
<path d="M131.335 139.617H120.39V152.311H131.335V139.617Z" fill="#FFDC9C"/>
<path d="M131.335 126.923H120.39V139.617H131.335V126.923Z" fill="#495059"/>
<path d="M131.335 114.23H120.39V126.923H131.335V114.23Z" fill="#FFDC9C"/>
<path d="M131.335 101.536H120.39V114.23H131.335V101.536Z" fill="#FFDC9C"/>
<path d="M131.335 88.849H120.39V101.536H131.335V88.849Z" fill="#FFDC9C"/>
<path d="M131.335 76.1553H120.39V88.849H131.335V76.1553Z" fill="#EDA751"/>
<path d="M131.335 63.4617H120.39V76.1553H131.335V63.4617Z" fill="#EDA751"/>
<path d="M131.335 12.6936H120.39V25.3873H131.335V12.6936Z" fill="#1AF4FF"/>
<path d="M120.39 406.151H109.444V418.845H120.39V406.151Z" fill="#EDA751"/>
<path d="M120.39 393.457H109.444V406.151H120.39V393.457Z" fill="#EDA751"/>
<path d="M120.39 342.689H109.444V355.383H120.39V342.689Z" fill="#EDA751"/>
<path d="M120.39 330.002H109.444V342.689H120.39V330.002Z" fill="#EDA751"/>
<path d="M120.39 317.309H109.444V330.002H120.39V317.309Z" fill="#EDA751"/>
<path d="M120.39 291.921H109.444V304.615H120.39V291.921Z" fill="#F6CF81"/>
<path d="M120.39 279.228H109.444V291.921H120.39V279.228Z" fill="#F6CF81"/>
<path d="M120.39 266.54H109.444V279.228H120.39V266.54Z" fill="#F6CF81"/>
<path d="M120.39 253.847H109.444V266.54H120.39V253.847Z" fill="#F6CF81"/>
<path d="M120.39 241.153H109.444V253.847H120.39V241.153Z" fill="#495059"/>
<path d="M120.39 228.46H109.444V241.153H120.39V228.46Z" fill="#FFDC9C"/>
<path d="M120.39 215.766H109.444V228.46H120.39V215.766Z" fill="#FF91AB"/>
<path d="M120.39 203.079H109.444V215.766H120.39V203.079Z" fill="#FF91AB"/>
<path d="M120.39 190.385H109.444V203.079H120.39V190.385Z" fill="#495059"/>
<path d="M120.39 177.691H109.444V190.385H120.39V177.691Z" fill="#FFDC9C"/>
<path d="M120.39 164.998H109.444V177.691H120.39V164.998Z" fill="#FFDC9C"/>
<path d="M120.39 152.311H109.444V164.998H120.39V152.311Z" fill="#FFDC9C"/>
<path d="M120.39 139.617H109.444V152.311H120.39V139.617Z" fill="#FFDC9C"/>
<path d="M120.39 126.923H109.444V139.617H120.39V126.923Z" fill="#FFDC9C"/>
<path d="M120.39 114.23H109.444V126.923H120.39V114.23Z" fill="#F6CF81"/>
<path d="M120.39 101.536H109.444V114.23H120.39V101.536Z" fill="#F6CF81"/>
<path d="M120.39 88.849H109.444V101.536H120.39V88.849Z" fill="#EDA751"/>
<path d="M120.39 76.1553H109.444V88.849H120.39V76.1553Z" fill="#EDA751"/>
<path d="M120.39 63.4617H109.444V76.1553H120.39V63.4617Z" fill="#EDA751"/>
<path d="M120.39 38.0744H109.444V50.7681H120.39V38.0744Z" fill="#1AF4FF"/>
<path d="M120.39 25.3873H109.444V38.0744H120.39V25.3873Z" fill="#1AF4FF"/>
<path d="M109.444 406.151H98.5042V418.845H109.444V406.151Z" fill="#EDA751"/>
<path d="M109.444 393.457H98.5042V406.151H109.444V393.457Z" fill="#EDA751"/>
<path d="M109.444 342.689H98.5042V355.383H109.444V342.689Z" fill="#EDA751"/>
<path d="M109.444 330.002H98.5042V342.689H109.444V330.002Z" fill="#EDA751"/>
<path d="M109.444 317.309H98.5042V330.002H109.444V317.309Z" fill="#EDA751"/>
<path d="M109.444 279.228H98.5042V291.921H109.444V279.228Z" fill="#F6CF81"/>
<path d="M109.444 266.54H98.5042V279.228H109.444V266.54Z" fill="#F6CF81"/>
<path d="M109.444 253.847H98.5042V266.54H109.444V253.847Z" fill="#495059"/>
<path d="M109.444 241.153H98.5042V253.847H109.444V241.153Z" fill="#F6CF81"/>
<path d="M109.444 228.46H98.5042V241.153H109.444V228.46Z" fill="#F6CF81"/>
<path d="M109.444 215.766H98.5042V228.46H109.444V215.766Z" fill="#495059"/>
<path d="M109.444 203.079H98.5042V215.766H109.444V203.079Z" fill="#F6CF81"/>
<path d="M109.444 190.385H98.5042V203.079H109.444V190.385Z" fill="#F6CF81"/>
<path d="M109.444 177.691H98.5042V190.385H109.444V177.691Z" fill="#495059"/>
<path d="M109.444 164.998H98.5042V177.691H109.444V164.998Z" fill="#F6CF81"/>
<path d="M109.444 152.311H98.5042V164.998H109.444V152.311Z" fill="#F6CF81"/>
<path d="M109.444 139.617H98.5042V152.311H109.444V139.617Z" fill="#F6CF81"/>
<path d="M109.444 126.923H98.5042V139.617H109.444V126.923Z" fill="#F6CF81"/>
<path d="M109.444 114.23H98.5042V126.923H109.444V114.23Z" fill="#F6CF81"/>
<path d="M109.444 101.536H98.5042V114.23H109.444V101.536Z" fill="#FF91AB"/>
<path d="M109.444 88.849H98.5042V101.536H109.444V88.849Z" fill="#EDA751"/>
<path d="M109.444 76.1553H98.5042V88.849H109.444V76.1553Z" fill="#EDA751"/>
<path d="M109.444 63.4617H98.5042V76.1553H109.444V63.4617Z" fill="#EDA751"/>
<path d="M109.444 50.7681H98.5042V63.4617H109.444V50.7681Z" fill="#EDA751"/>
<path d="M98.5042 393.457H87.5587V406.151H98.5042V393.457Z" fill="#EDA751"/>
<path d="M98.5042 380.77H87.5587V393.457H98.5042V380.77Z" fill="#EDA751"/>
<path d="M98.5042 342.689H87.5587V355.383H98.5042V342.689Z" fill="#EDA751"/>
<path d="M98.5042 330.002H87.5587V342.689H98.5042V330.002Z" fill="#EDA751"/>
<path d="M98.5042 317.309H87.5587V330.002H98.5042V317.309Z" fill="#EDA751"/>
<path d="M98.5042 266.54H87.5587V279.228H98.5042V266.54Z" fill="#F6CF81"/>
<path d="M98.5042 253.847H87.5587V266.54H98.5042V253.847Z" fill="#F6CF81"/>
<path d="M98.5042 241.153H87.5587V253.847H98.5042V241.153Z" fill="#F6CF81"/>
<path d="M98.5042 228.46H87.5587V241.153H98.5042V228.46Z" fill="#F6CF81"/>
<path d="M98.5042 215.766H87.5587V228.46H98.5042V215.766Z" fill="#495059"/>
<path d="M98.5042 203.079H87.5587V215.766H98.5042V203.079Z" fill="#F6CF81"/>
<path d="M98.5042 190.385H87.5587V203.079H98.5042V190.385Z" fill="#F6CF81"/>
<path d="M98.5042 177.691H87.5587V190.385H98.5042V177.691Z" fill="#F6CF81"/>
<path d="M98.5042 164.998H87.5587V177.691H98.5042V164.998Z" fill="#F6CF81"/>
<path d="M98.5042 152.311H87.5587V164.998H98.5042V152.311Z" fill="#F6CF81"/>
<path d="M98.5042 139.617H87.5587V152.311H98.5042V139.617Z" fill="#F6CF81"/>
<path d="M98.5042 126.923H87.5587V139.617H98.5042V126.923Z" fill="#F6CF81"/>
<path d="M98.5042 114.23H87.5587V126.923H98.5042V114.23Z" fill="#FF91AB"/>
<path d="M98.5042 101.536H87.5587V114.23H98.5042V101.536Z" fill="#FF91AB"/>
<path d="M98.5042 88.849H87.5587V101.536H98.5042V88.849Z" fill="#FF91AB"/>
<path d="M98.5042 76.1553H87.5587V88.849H98.5042V76.1553Z" fill="#EDA751"/>
<path d="M98.5042 63.4617H87.5587V76.1553H98.5042V63.4617Z" fill="#EDA751"/>
<path d="M98.5042 50.7681H87.5587V63.4617H98.5042V50.7681Z" fill="#EDA751"/>
<path d="M87.5586 393.457H76.6131V406.151H87.5586V393.457Z" fill="#EDA751"/>
<path d="M87.5586 380.77H76.6131V393.457H87.5586V380.77Z" fill="#EDA751"/>
<path d="M87.5586 342.689H76.6131V355.383H87.5586V342.689Z" fill="#EDA751"/>
<path d="M87.5586 330.002H76.6131V342.689H87.5586V330.002Z" fill="#EDA751"/>
<path d="M87.5586 317.309H76.6131V330.002H87.5586V317.309Z" fill="#EDA751"/>
<path d="M87.5586 304.615H76.6131V317.309H87.5586V304.615Z" fill="#EDA751"/>
<path d="M87.5586 291.921H76.6131V304.615H87.5586V291.921Z" fill="#F5D141"/>
<path d="M87.5586 266.54H76.6131V279.228H87.5586V266.54Z" fill="#F5D141"/>
<path d="M87.5586 253.847H76.6131V266.54H87.5586V253.847Z" fill="#F6CF81"/>
<path d="M87.5586 241.153H76.6131V253.847H87.5586V241.153Z" fill="#F6CF81"/>
<path d="M87.5586 228.46H76.6131V241.153H87.5586V228.46Z" fill="#F6CF81"/>
<path d="M87.5586 215.766H76.6131V228.46H87.5586V215.766Z" fill="#F6CF81"/>
<path d="M87.5586 203.079H76.6131V215.766H87.5586V203.079Z" fill="#F6CF81"/>
<path d="M87.5586 190.385H76.6131V203.079H87.5586V190.385Z" fill="#F6CF81"/>
<path d="M87.5586 177.691H76.6131V190.385H87.5586V177.691Z" fill="#F6CF81"/>
<path d="M87.5586 164.998H76.6131V177.691H87.5586V164.998Z" fill="#F6CF81"/>
<path d="M87.5586 152.311H76.6131V164.998H87.5586V152.311Z" fill="#F6CF81"/>
<path d="M87.5586 139.617H76.6131V152.311H87.5586V139.617Z" fill="#F6CF81"/>
<path d="M87.5586 126.923H76.6131V139.617H87.5586V126.923Z" fill="#FF91AB"/>
<path d="M87.5586 114.23H76.6131V126.923H87.5586V114.23Z" fill="#FF91AB"/>
<path d="M87.5586 101.536H76.6131V114.23H87.5586V101.536Z" fill="#FF91AB"/>
<path d="M87.5586 88.849H76.6131V101.536H87.5586V88.849Z" fill="#FF91AB"/>
<path d="M87.5586 76.1553H76.6131V88.849H87.5586V76.1553Z" fill="#FF91AB"/>
<path d="M87.5586 63.4617H76.6131V76.1553H87.5586V63.4617Z" fill="#EDA751"/>
<path d="M87.5586 50.7681H76.6131V63.4617H87.5586V50.7681Z" fill="#EDA751"/>
<path d="M87.5586 38.0744H76.6131V50.7681H87.5586V38.0744Z" fill="#F5D141"/>
<path d="M87.5586 0H76.6131V12.6936H87.5586V0Z" fill="#F5D141"/>
<path d="M76.6131 393.457H65.6676V406.151H76.6131V393.457Z" fill="#EDA751"/>
<path d="M76.6131 380.77H65.6676V393.457H76.6131V380.77Z" fill="#EDA751"/>
<path d="M76.6131 330.002H65.6676V342.689H76.6131V330.002Z" fill="#EDA751"/>
<path d="M76.6131 317.309H65.6676V330.002H76.6131V317.309Z" fill="#EDA751"/>
<path d="M76.6131 304.615H65.6676V317.309H76.6131V304.615Z" fill="#EDA751"/>
<path d="M76.6131 279.228H65.6676V291.921H76.6131V279.228Z" fill="#F5D141"/>
<path d="M76.6131 241.153H65.6676V253.847H76.6131V241.153Z" fill="#F6CF81"/>
<path d="M76.6131 228.46H65.6676V241.153H76.6131V228.46Z" fill="#F6CF81"/>
<path d="M76.6131 215.766H65.6676V228.46H76.6131V215.766Z" fill="#F6CF81"/>
<path d="M76.6131 203.079H65.6676V215.766H76.6131V203.079Z" fill="#F6CF81"/>
<path d="M76.6131 190.385H65.6676V203.079H76.6131V190.385Z" fill="#F5D141"/>
<path d="M76.6131 177.691H65.6676V190.385H76.6131V177.691Z" fill="#F6CF81"/>
<path d="M76.6131 164.998H65.6676V177.691H76.6131V164.998Z" fill="#F6CF81"/>
<path d="M76.6131 139.617H65.6676V152.311H76.6131V139.617Z" fill="#FF91AB"/>
<path d="M76.6131 126.923H65.6676V139.617H76.6131V126.923Z" fill="#FF91AB"/>
<path d="M76.6131 114.23H65.6676V126.923H76.6131V114.23Z" fill="#FF91AB"/>
<path d="M76.6131 101.536H65.6676V114.23H76.6131V101.536Z" fill="#FF91AB"/>
<path d="M76.6131 88.849H65.6676V101.536H76.6131V88.849Z" fill="#FF91AB"/>
<path d="M76.6131 76.1553H65.6676V88.849H76.6131V76.1553Z" fill="#FF91AB"/>
<path d="M76.6131 63.4617H65.6676V76.1553H76.6131V63.4617Z" fill="#EDA751"/>
<path d="M76.6131 50.7681H65.6676V63.4617H76.6131V50.7681Z" fill="#EDA751"/>
<path d="M76.6131 25.3873H65.6676V38.0744H76.6131V25.3873Z" fill="#F5D141"/>
<path d="M76.6131 12.6936H65.6676V25.3873H76.6131V12.6936Z" fill="#F5D141"/>
<path d="M65.6676 393.457H54.722V406.151H65.6676V393.457Z" fill="#EDA751"/>
<path d="M65.6676 380.77H54.722V393.457H65.6676V380.77Z" fill="#EDA751"/>
<path d="M65.6676 355.383H54.722V368.077H65.6676V355.383Z" fill="#1AF4FF"/>
<path d="M65.6676 342.689H54.722V355.383H65.6676V342.689Z" fill="#1AF4FF"/>
<path d="M65.6676 330.002H54.722V342.689H65.6676V330.002Z" fill="#EDA751"/>
<path d="M65.6676 317.309H54.722V330.002H65.6676V317.309Z" fill="#EDA751"/>
<path d="M65.6676 304.615H54.722V317.309H65.6676V304.615Z" fill="#EDA751"/>
<path d="M65.6676 291.921H54.722V304.615H65.6676V291.921Z" fill="#EDA751"/>
<path d="M65.6676 279.228H54.722V291.921H65.6676V279.228Z" fill="#EDA751"/>
<path d="M65.6676 215.766H54.722V228.46H65.6676V215.766Z" fill="#F6CF81"/>
<path d="M65.6676 203.079H54.722V215.766H65.6676V203.079Z" fill="#F6CF81"/>
<path d="M65.6676 190.385H54.722V203.079H65.6676V190.385Z" fill="#F6CF81"/>
<path d="M65.6676 177.691H54.722V190.385H65.6676V177.691Z" fill="#F5D141"/>
<path d="M65.6676 114.23H54.722V126.923H65.6676V114.23Z" fill="#FF91AB"/>
<path d="M65.6676 101.536H54.722V114.23H65.6676V101.536Z" fill="#FF91AB"/>
<path d="M65.6676 88.849H54.722V101.536H65.6676V88.849Z" fill="#FF91AB"/>
<path d="M65.6676 76.1553H54.722V88.849H65.6676V76.1553Z" fill="#FF91AB"/>
<path d="M65.6676 63.4617H54.722V76.1553H65.6676V63.4617Z" fill="#EDA751"/>
<path d="M54.7221 393.457H43.7821V406.151H54.7221V393.457Z" fill="#EDA751"/>
<path d="M54.7221 380.77H43.7821V393.457H54.7221V380.77Z" fill="#EDA751"/>
<path d="M54.7221 368.077H43.7821V380.77H54.7221V368.077Z" fill="#1AF4FF"/>
<path d="M54.7221 317.309H43.7821V330.002H54.7221V317.309Z" fill="#EDA751"/>
<path d="M54.7221 304.615H43.7821V317.309H54.7221V304.615Z" fill="#EDA751"/>
<path d="M54.7221 291.921H43.7821V304.615H54.7221V291.921Z" fill="#EDA751"/>
<path d="M54.7221 279.228H43.7821V291.921H54.7221V279.228Z" fill="#EDA751"/>
<path d="M54.7221 215.766H43.7821V228.46H54.7221V215.766Z" fill="#F44282"/>
<path d="M54.7221 203.079H43.7821V215.766H54.7221V203.079Z" fill="#F44282"/>
<path d="M54.7221 190.385H43.7821V203.079H54.7221V190.385Z" fill="#F44282"/>
<path d="M54.7221 164.998H43.7821V177.691H54.7221V164.998Z" fill="#F5D141"/>
<path d="M54.7221 152.311H43.7821V164.998H54.7221V152.311Z" fill="#F5D141"/>
<path d="M54.7221 101.536H43.7821V114.23H54.7221V101.536Z" fill="#F44282"/>
<path d="M43.7821 393.457H32.8366V406.151H43.7821V393.457Z" fill="#FFDC9C"/>
<path d="M43.7821 380.77H32.8366V393.457H43.7821V380.77Z" fill="#EDA751"/>
<path d="M43.7821 304.615H32.8366V317.309H43.7821V304.615Z" fill="#EDA751"/>
<path d="M43.7821 291.921H32.8366V304.615H43.7821V291.921Z" fill="#EDA751"/>
<path d="M43.7821 279.228H32.8366V291.921H43.7821V279.228Z" fill="#EDA751"/>
<path d="M43.7821 228.46H32.8366V241.153H43.7821V228.46Z" fill="#F44282"/>
<path d="M43.7821 88.849H32.8366V101.536H43.7821V88.849Z" fill="#F44282"/>
<path d="M43.7821 76.1553H32.8366V88.849H43.7821V76.1553Z" fill="#F44282"/>
<path d="M32.8366 406.151H21.8911V418.845H32.8366V406.151Z" fill="#FFDC9C"/>
<path d="M32.8366 393.457H21.8911V406.151H32.8366V393.457Z" fill="#FFDC9C"/>
<path d="M32.8366 380.77H21.8911V393.457H32.8366V380.77Z" fill="#FFDC9C"/>
<path d="M32.8366 190.385H21.8911V203.079H32.8366V190.385Z" fill="#1AF4FF"/>
<path d="M21.8911 406.151H10.9456V418.845H21.8911V406.151Z" fill="#FFDC9C"/>
<path d="M21.8911 393.457H10.9456V406.151H21.8911V393.457Z" fill="#FFDC9C"/>
<path d="M21.8911 266.54H10.9456V279.228H21.8911V266.54Z" fill="#F5D141"/>
<path d="M21.8911 253.847H10.9456V266.54H21.8911V253.847Z" fill="#F5D141"/>
<path d="M21.8911 177.691H10.9456V190.385H21.8911V177.691Z" fill="#1AF4FF"/>
<path d="M21.8911 164.998H10.9456V177.691H21.8911V164.998Z" fill="#1AF4FF"/>
<path d="M10.9455 279.228H0V291.921H10.9455V279.228Z" fill="#F5D141"/>
<path d="M10.9455 241.153H0V253.847H10.9455V241.153Z" fill="#F5D141"/>
</svg>
