<svg width="480" height="480" viewBox="0 0 480 480" fill="none" xmlns="http://www.w3.org/2000/svg">
<circle cx="240" cy="240" r="240" fill="#4C3375"/>
<circle cx="240" cy="240" r="240" fill="#4C3375"/>
<circle cx="240" cy="240" r="240" fill="white"/>
<path d="M383 305.349H370.271V318.158H383V305.349Z" fill="#CB9FFF"/>
<path d="M383 292.54H370.271V305.349H383V292.54Z" fill="#CB9FFF"/>
<path d="M383 228.5H370.271V241.309H383V228.5Z" fill="#73F4DB"/>
<path d="M383 215.691H370.271V228.5H383V215.691Z" fill="#73F4DB"/>
<path d="M383 202.888H370.271V215.691H383V202.888Z" fill="#964CC1"/>
<path d="M383 190.079H370.271V202.888H383V190.079Z" fill="#964CC1"/>
<path d="M370.271 318.158H357.542V330.967H370.271V318.158Z" fill="#CB9FFF"/>
<path d="M370.271 305.349H357.542V318.158H370.271V305.349Z" fill="#CB9FFF"/>
<path d="M370.271 292.54H357.542V305.349H370.271V292.54Z" fill="#CB9FFF"/>
<path d="M370.271 279.73H357.542V292.539H370.271V279.73Z" fill="#CB9FFF"/>
<path d="M370.271 266.928H357.542V279.73H370.271V266.928Z" fill="#CB9FFF"/>
<path d="M370.271 254.118H357.542V266.928H370.271V254.118Z" fill="#73F4DB"/>
<path d="M370.271 241.309H357.542V254.118H370.271V241.309Z" fill="#73F4DB"/>
<path d="M370.271 228.5H357.542V241.309H370.271V228.5Z" fill="#73F4DB"/>
<path d="M370.271 215.691H357.542V228.5H370.271V215.691Z" fill="#73F4DB"/>
<path d="M370.271 202.888H357.542V215.691H370.271V202.888Z" fill="#73F4DB"/>
<path d="M370.271 190.079H357.542V202.888H370.271V190.079Z" fill="#964CC1"/>
<path d="M370.271 177.27H357.542V190.079H370.271V177.27Z" fill="#964CC1"/>
<path d="M357.543 343.77H344.82V356.579H357.543V343.77Z" fill="#CB9FFF"/>
<path d="M357.543 330.967H344.82V343.77H357.543V330.967Z" fill="#CB9FFF"/>
<path d="M357.543 318.158H344.82V330.967H357.543V318.158Z" fill="#CB9FFF"/>
<path d="M357.543 305.349H344.82V318.158H357.543V305.349Z" fill="#CB9FFF"/>
<path d="M357.543 292.54H344.82V305.349H357.543V292.54Z" fill="#CB9FFF"/>
<path d="M357.543 279.73H344.82V292.539H357.543V279.73Z" fill="#CB9FFF"/>
<path d="M357.543 266.928H344.82V279.73H357.543V266.928Z" fill="#CB9FFF"/>
<path d="M357.543 254.118H344.82V266.928H357.543V254.118Z" fill="#CB9FFF"/>
<path d="M357.543 241.309H344.82V254.118H357.543V241.309Z" fill="#73F4DB"/>
<path d="M357.543 228.5H344.82V241.309H357.543V228.5Z" fill="#73F4DB"/>
<path d="M357.543 215.691H344.82V228.5H357.543V215.691Z" fill="#73F4DB"/>
<path d="M357.543 202.888H344.82V215.691H357.543V202.888Z" fill="#964CC1"/>
<path d="M357.543 190.079H344.82V202.888H357.543V190.079Z" fill="#964CC1"/>
<path d="M357.543 177.27H344.82V190.079H357.543V177.27Z" fill="#964CC1"/>
<path d="M344.82 356.579H332.092V369.388H344.82V356.579Z" fill="#CB9FFF"/>
<path d="M344.82 343.77H332.092V356.579H344.82V343.77Z" fill="#CB9FFF"/>
<path d="M344.82 330.967H332.092V343.77H344.82V330.967Z" fill="#CB9FFF"/>
<path d="M344.82 318.158H332.092V330.967H344.82V318.158Z" fill="#CB9FFF"/>
<path d="M344.82 305.349H332.092V318.158H344.82V305.349Z" fill="#18314C"/>
<path d="M344.82 292.54H332.092V305.349H344.82V292.54Z" fill="#CB9FFF"/>
<path d="M344.82 279.73H332.092V292.539H344.82V279.73Z" fill="#CB9FFF"/>
<path d="M344.82 266.928H332.092V279.73H344.82V266.928Z" fill="#CB9FFF"/>
<path d="M344.82 254.118H332.092V266.928H344.82V254.118Z" fill="#CB9FFF"/>
<path d="M344.82 241.309H332.092V254.118H344.82V241.309Z" fill="#CB9FFF"/>
<path d="M344.82 228.5H332.092V241.309H344.82V228.5Z" fill="#73F4DB"/>
<path d="M344.82 215.691H332.092V228.5H344.82V215.691Z" fill="#964CC1"/>
<path d="M344.82 202.888H332.092V215.691H344.82V202.888Z" fill="#964CC1"/>
<path d="M344.82 190.079H332.092V202.888H344.82V190.079Z" fill="#964CC1"/>
<path d="M332.091 356.579H319.363V369.388H332.091V356.579Z" fill="#CB9FFF"/>
<path d="M332.091 343.77H319.363V356.579H332.091V343.77Z" fill="#CB9FFF"/>
<path d="M332.091 330.967H319.363V343.77H332.091V330.967Z" fill="#18314C"/>
<path d="M332.091 318.158H319.363V330.967H332.091V318.158Z" fill="#CB9FFF"/>
<path d="M332.091 305.349H319.363V318.158H332.091V305.349Z" fill="#18314C"/>
<path d="M332.091 292.54H319.363V305.349H332.091V292.54Z" fill="#CB9FFF"/>
<path d="M332.091 279.73H319.363V292.539H332.091V279.73Z" fill="#18314C"/>
<path d="M332.091 266.928H319.363V279.73H332.091V266.928Z" fill="#CB9FFF"/>
<path d="M332.091 254.118H319.363V266.928H332.091V254.118Z" fill="#CB9FFF"/>
<path d="M332.091 241.309H319.363V254.118H332.091V241.309Z" fill="#CB9FFF"/>
<path d="M332.091 228.5H319.363V241.309H332.091V228.5Z" fill="#CB9FFF"/>
<path d="M332.091 215.691H319.363V228.5H332.091V215.691Z" fill="#964CC1"/>
<path d="M332.091 202.888H319.363V215.691H332.091V202.888Z" fill="#964CC1"/>
<path d="M332.091 190.079H319.363V202.888H332.091V190.079Z" fill="#964CC1"/>
<path d="M319.363 369.388H306.634V382.197H319.363V369.388Z" fill="#CB9FFF"/>
<path d="M319.363 356.579H306.634V369.388H319.363V356.579Z" fill="#CB9FFF"/>
<path d="M319.363 343.77H306.634V356.579H319.363V343.77Z" fill="#CB9FFF"/>
<path d="M319.363 330.967H306.634V343.77H319.363V330.967Z" fill="#CB9FFF"/>
<path d="M319.363 318.158H306.634V330.967H319.363V318.158Z" fill="#18314C"/>
<path d="M319.363 305.349H306.634V318.158H319.363V305.349Z" fill="#73F4DB"/>
<path d="M319.363 292.54H306.634V305.349H319.363V292.54Z" fill="#18314C"/>
<path d="M319.363 279.73H306.634V292.539H319.363V279.73Z" fill="#CB9FFF"/>
<path d="M319.363 266.928H306.634V279.73H319.363V266.928Z" fill="#CB9FFF"/>
<path d="M319.363 254.118H306.634V266.928H319.363V254.118Z" fill="#CB9FFF"/>
<path d="M319.363 241.309H306.634V254.118H319.363V241.309Z" fill="#CB9FFF"/>
<path d="M319.363 228.5H306.634V241.309H319.363V228.5Z" fill="#CB9FFF"/>
<path d="M319.363 215.691H306.634V228.5H319.363V215.691Z" fill="#CB9FFF"/>
<path d="M319.363 202.888H306.634V215.691H319.363V202.888Z" fill="#964CC1"/>
<path d="M306.634 369.388H293.905V382.197H306.634V369.388Z" fill="#CB9FFF"/>
<path d="M306.634 356.579H293.905V369.388H306.634V356.579Z" fill="#CB9FFF"/>
<path d="M306.634 343.77H293.905V356.579H306.634V343.77Z" fill="#CB9FFF"/>
<path d="M306.634 330.967H293.905V343.77H306.634V330.967Z" fill="#CB9FFF"/>
<path d="M306.634 318.158H293.905V330.967H306.634V318.158Z" fill="#73F4DB"/>
<path d="M306.634 305.349H293.905V318.158H306.634V305.349Z" fill="#73F4DB"/>
<path d="M306.634 292.54H293.905V305.349H306.634V292.54Z" fill="#73F4DB"/>
<path d="M306.634 279.73H293.905V292.539H306.634V279.73Z" fill="#CB9FFF"/>
<path d="M306.634 266.928H293.905V279.73H306.634V266.928Z" fill="#CB9FFF"/>
<path d="M306.634 254.118H293.905V266.928H306.634V254.118Z" fill="#CB9FFF"/>
<path d="M306.634 241.309H293.905V254.118H306.634V241.309Z" fill="#CB9FFF"/>
<path d="M306.634 228.5H293.905V241.309H306.634V228.5Z" fill="#CB9FFF"/>
<path d="M306.634 215.691H293.905V228.5H306.634V215.691Z" fill="#CB9FFF"/>
<path d="M306.634 202.888H293.905V215.691H306.634V202.888Z" fill="#964CC1"/>
<path d="M306.634 126.04H293.905V138.849H306.634V126.04Z" fill="#42F49B"/>
<path d="M306.634 62H293.905V74.8092H306.634V62Z" fill="#42F49B"/>
<path d="M293.905 369.388H281.183V382.197H293.905V369.388Z" fill="#CB9FFF"/>
<path d="M293.905 356.579H281.183V369.388H293.905V356.579Z" fill="#CB9FFF"/>
<path d="M293.905 343.77H281.183V356.579H293.905V343.77Z" fill="#CB9FFF"/>
<path d="M293.905 330.967H281.183V343.77H293.905V330.967Z" fill="#CB9FFF"/>
<path d="M293.905 318.158H281.183V330.967H293.905V318.158Z" fill="#CB9FFF"/>
<path d="M293.905 305.349H281.183V318.158H293.905V305.349Z" fill="#73F4DB"/>
<path d="M293.905 292.54H281.183V305.349H293.905V292.54Z" fill="#18314C"/>
<path d="M293.905 279.73H281.183V292.539H293.905V279.73Z" fill="#18314C"/>
<path d="M293.905 266.928H281.183V279.73H293.905V266.928Z" fill="#CB9FFF"/>
<path d="M293.905 254.118H281.183V266.928H293.905V254.118Z" fill="#CB9FFF"/>
<path d="M293.905 241.309H281.183V254.118H293.905V241.309Z" fill="#18314C"/>
<path d="M293.905 228.5H281.183V241.309H293.905V228.5Z" fill="#18314C"/>
<path d="M293.905 215.691H281.183V228.5H293.905V215.691Z" fill="#CB9FFF"/>
<path d="M293.905 202.888H281.183V215.691H293.905V202.888Z" fill="#CB9FFF"/>
<path d="M293.905 113.23H281.183V126.039H293.905V113.23Z" fill="#42F49B"/>
<path d="M293.905 74.8091H281.183V87.6183H293.905V74.8091Z" fill="#42F49B"/>
<path d="M281.183 382.197H268.454V395H281.183V382.197Z" fill="#CB9FFF"/>
<path d="M281.183 369.388H268.454V382.197H281.183V369.388Z" fill="#CB9FFF"/>
<path d="M281.183 356.579H268.454V369.388H281.183V356.579Z" fill="#CB9FFF"/>
<path d="M281.183 343.77H268.454V356.579H281.183V343.77Z" fill="#CB9FFF"/>
<path d="M281.183 330.967H268.454V343.77H281.183V330.967Z" fill="#CB9FFF"/>
<path d="M281.183 318.158H268.454V330.967H281.183V318.158Z" fill="#CB9FFF"/>
<path d="M281.183 305.349H268.454V318.158H281.183V305.349Z" fill="#CB9FFF"/>
<path d="M281.183 292.54H268.454V305.349H281.183V292.54Z" fill="#18314C"/>
<path d="M281.183 279.73H268.454V292.539H281.183V279.73Z" fill="#DEE2E5"/>
<path d="M281.183 266.928H268.454V279.73H281.183V266.928Z" fill="#CB9FFF"/>
<path d="M281.183 254.118H268.454V266.928H281.183V254.118Z" fill="#CB9FFF"/>
<path d="M281.183 241.309H268.454V254.118H281.183V241.309Z" fill="#CB9FFF"/>
<path d="M281.183 228.5H268.454V241.309H281.183V228.5Z" fill="#18314C"/>
<path d="M281.183 215.691H268.454V228.5H281.183V215.691Z" fill="#CB9FFF"/>
<path d="M281.183 202.888H268.454V215.691H281.183V202.888Z" fill="#CB9FFF"/>
<path d="M268.454 382.197H255.726V395H268.454V382.197Z" fill="#CB9FFF"/>
<path d="M268.454 369.388H255.726V382.197H268.454V369.388Z" fill="#CB9FFF"/>
<path d="M268.454 356.579H255.726V369.388H268.454V356.579Z" fill="#CB9FFF"/>
<path d="M268.454 343.77H255.726V356.579H268.454V343.77Z" fill="#CB9FFF"/>
<path d="M268.454 330.967H255.726V343.77H268.454V330.967Z" fill="#18314C"/>
<path d="M268.454 318.158H255.726V330.967H268.454V318.158Z" fill="#CB9FFF"/>
<path d="M268.454 305.349H255.726V318.158H268.454V305.349Z" fill="#CB9FFF"/>
<path d="M268.454 292.54H255.726V305.349H268.454V292.54Z" fill="#CB9FFF"/>
<path d="M268.454 279.73H255.726V292.539H268.454V279.73Z" fill="#CB9FFF"/>
<path d="M268.454 266.928H255.726V279.73H268.454V266.928Z" fill="#CB9FFF"/>
<path d="M268.454 254.118H255.726V266.928H268.454V254.118Z" fill="#CB9FFF"/>
<path d="M268.454 241.309H255.726V254.118H268.454V241.309Z" fill="#CB9FFF"/>
<path d="M268.454 228.5H255.726V241.309H268.454V228.5Z" fill="#CB9FFF"/>
<path d="M268.454 215.691H255.726V228.5H268.454V215.691Z" fill="#CB9FFF"/>
<path d="M268.454 202.888H255.726V215.691H268.454V202.888Z" fill="#CB9FFF"/>
<path d="M268.454 164.46H255.726V177.27H268.454V164.46Z" fill="#18314C"/>
<path d="M268.454 151.658H255.726V164.461H268.454V151.658Z" fill="#91BFDB"/>
<path d="M268.454 113.23H255.726V126.039H268.454V113.23Z" fill="#42F49B"/>
<path d="M268.454 100.421H255.726V113.23H268.454V100.421Z" fill="#42F49B"/>
<path d="M268.454 87.6184H255.726V100.421H268.454V87.6184Z" fill="#42F49B"/>
<path d="M255.726 382.197H242.997V395H255.726V382.197Z" fill="#CB9FFF"/>
<path d="M255.726 369.388H242.997V382.197H255.726V369.388Z" fill="#CB9FFF"/>
<path d="M255.726 356.579H242.997V369.388H255.726V356.579Z" fill="#CB9FFF"/>
<path d="M255.726 343.77H242.997V356.579H255.726V343.77Z" fill="#18314C"/>
<path d="M255.726 330.967H242.997V343.77H255.726V330.967Z" fill="#18314C"/>
<path d="M255.726 318.158H242.997V330.967H255.726V318.158Z" fill="#CB9FFF"/>
<path d="M255.726 305.349H242.997V318.158H255.726V305.349Z" fill="#73F4DB"/>
<path d="M255.726 292.54H242.997V305.349H255.726V292.54Z" fill="#73F4DB"/>
<path d="M255.726 279.73H242.997V292.539H255.726V279.73Z" fill="#CB9FFF"/>
<path d="M255.726 266.928H242.997V279.73H255.726V266.928Z" fill="#CB9FFF"/>
<path d="M255.726 254.118H242.997V266.928H255.726V254.118Z" fill="#CB9FFF"/>
<path d="M255.726 241.309H242.997V254.118H255.726V241.309Z" fill="#CB9FFF"/>
<path d="M255.726 228.5H242.997V241.309H255.726V228.5Z" fill="#CB9FFF"/>
<path d="M255.726 215.691H242.997V228.5H255.726V215.691Z" fill="#CB9FFF"/>
<path d="M255.726 202.888H242.997V215.691H255.726V202.888Z" fill="#CB9FFF"/>
<path d="M255.726 177.27H242.997V190.079H255.726V177.27Z" fill="#18314C"/>
<path d="M255.726 164.46H242.997V177.27H255.726V164.46Z" fill="#18314C"/>
<path d="M255.726 151.658H242.997V164.461H255.726V151.658Z" fill="#91BFDB"/>
<path d="M255.726 138.849H242.997V151.658H255.726V138.849Z" fill="#42F49B"/>
<path d="M255.726 126.04H242.997V138.849H255.726V126.04Z" fill="#42F49B"/>
<path d="M255.726 113.23H242.997V126.039H255.726V113.23Z" fill="#42F49B"/>
<path d="M255.726 100.421H242.997V113.23H255.726V100.421Z" fill="#42F49B"/>
<path d="M255.726 87.6184H242.997V100.421H255.726V87.6184Z" fill="#42F49B"/>
<path d="M255.726 74.8091H242.997V87.6183H255.726V74.8091Z" fill="#42F49B"/>
<path d="M242.997 382.197H230.268V395H242.997V382.197Z" fill="#CB9FFF"/>
<path d="M242.997 369.388H230.268V382.197H242.997V369.388Z" fill="#CB9FFF"/>
<path d="M242.997 356.579H230.268V369.388H242.997V356.579Z" fill="#CB9FFF"/>
<path d="M242.997 343.77H230.268V356.579H242.997V343.77Z" fill="#18314C"/>
<path d="M242.997 330.967H230.268V343.77H242.997V330.967Z" fill="#18314C"/>
<path d="M242.997 318.158H230.268V330.967H242.997V318.158Z" fill="#CB9FFF"/>
<path d="M242.997 305.349H230.268V318.158H242.997V305.349Z" fill="#73F4DB"/>
<path d="M242.997 292.54H230.268V305.349H242.997V292.54Z" fill="#73F4DB"/>
<path d="M242.997 279.73H230.268V292.539H242.997V279.73Z" fill="#CB9FFF"/>
<path d="M242.997 266.928H230.268V279.73H242.997V266.928Z" fill="#CB9FFF"/>
<path d="M242.997 254.118H230.268V266.928H242.997V254.118Z" fill="#CB9FFF"/>
<path d="M242.997 241.309H230.268V254.118H242.997V241.309Z" fill="#CB9FFF"/>
<path d="M242.997 228.5H230.268V241.309H242.997V228.5Z" fill="#CB9FFF"/>
<path d="M242.997 215.691H230.268V228.5H242.997V215.691Z" fill="#CB9FFF"/>
<path d="M242.997 202.888H230.268V215.691H242.997V202.888Z" fill="#CB9FFF"/>
<path d="M242.997 177.27H230.268V190.079H242.997V177.27Z" fill="#18314C"/>
<path d="M242.997 164.46H230.268V177.27H242.997V164.46Z" fill="#18314C"/>
<path d="M242.997 151.658H230.268V164.461H242.997V151.658Z" fill="#5E8A9E"/>
<path d="M242.997 138.849H230.268V151.658H242.997V138.849Z" fill="#3CBC79"/>
<path d="M242.997 126.04H230.268V138.849H242.997V126.04Z" fill="#3CBC79"/>
<path d="M242.997 113.23H230.268V126.039H242.997V113.23Z" fill="#3CBC79"/>
<path d="M242.997 100.421H230.268V113.23H242.997V100.421Z" fill="#3CBC79"/>
<path d="M242.997 87.6184H230.268V100.421H242.997V87.6184Z" fill="#3CBC79"/>
<path d="M242.997 74.8091H230.268V87.6183H242.997V74.8091Z" fill="#3CBC79"/>
<path d="M230.268 382.197H217.546V395H230.268V382.197Z" fill="#964CC1"/>
<path d="M230.268 369.388H217.546V382.197H230.268V369.388Z" fill="#CB9FFF"/>
<path d="M230.268 356.579H217.546V369.388H230.268V356.579Z" fill="#CB9FFF"/>
<path d="M230.268 343.77H217.546V356.579H230.268V343.77Z" fill="#CB9FFF"/>
<path d="M230.268 330.967H217.546V343.77H230.268V330.967Z" fill="#18314C"/>
<path d="M230.268 318.158H217.546V330.967H230.268V318.158Z" fill="#CB9FFF"/>
<path d="M230.268 305.349H217.546V318.158H230.268V305.349Z" fill="#CB9FFF"/>
<path d="M230.268 292.54H217.546V305.349H230.268V292.54Z" fill="#CB9FFF"/>
<path d="M230.268 279.73H217.546V292.539H230.268V279.73Z" fill="#CB9FFF"/>
<path d="M230.268 266.928H217.546V279.73H230.268V266.928Z" fill="#CB9FFF"/>
<path d="M230.268 254.118H217.546V266.928H230.268V254.118Z" fill="#CB9FFF"/>
<path d="M230.268 241.309H217.546V254.118H230.268V241.309Z" fill="#CB9FFF"/>
<path d="M230.268 228.5H217.546V241.309H230.268V228.5Z" fill="#CB9FFF"/>
<path d="M230.268 215.691H217.546V228.5H230.268V215.691Z" fill="#CB9FFF"/>
<path d="M230.268 202.888H217.546V215.691H230.268V202.888Z" fill="#CB9FFF"/>
<path d="M230.268 164.46H217.546V177.27H230.268V164.46Z" fill="#18314C"/>
<path d="M230.268 151.658H217.546V164.461H230.268V151.658Z" fill="#5E8A9E"/>
<path d="M230.268 113.23H217.546V126.039H230.268V113.23Z" fill="#3CBC79"/>
<path d="M230.268 100.421H217.546V113.23H230.268V100.421Z" fill="#3CBC79"/>
<path d="M230.268 87.6184H217.546V100.421H230.268V87.6184Z" fill="#3CBC79"/>
<path d="M217.546 382.197H204.817V395H217.546V382.197Z" fill="#964CC1"/>
<path d="M217.546 369.388H204.817V382.197H217.546V369.388Z" fill="#964CC1"/>
<path d="M217.546 356.579H204.817V369.388H217.546V356.579Z" fill="#CB9FFF"/>
<path d="M217.546 343.77H204.817V356.579H217.546V343.77Z" fill="#CB9FFF"/>
<path d="M217.546 330.967H204.817V343.77H217.546V330.967Z" fill="#CB9FFF"/>
<path d="M217.546 318.158H204.817V330.967H217.546V318.158Z" fill="#CB9FFF"/>
<path d="M217.546 305.349H204.817V318.158H217.546V305.349Z" fill="#CB9FFF"/>
<path d="M217.546 292.54H204.817V305.349H217.546V292.54Z" fill="#18314C"/>
<path d="M217.546 279.73H204.817V292.539H217.546V279.73Z" fill="#18314C"/>
<path d="M217.546 266.928H204.817V279.73H217.546V266.928Z" fill="#CB9FFF"/>
<path d="M217.546 254.118H204.817V266.928H217.546V254.118Z" fill="#CB9FFF"/>
<path d="M217.546 241.309H204.817V254.118H217.546V241.309Z" fill="#CB9FFF"/>
<path d="M217.546 228.5H204.817V241.309H217.546V228.5Z" fill="#18314C"/>
<path d="M217.546 215.691H204.817V228.5H217.546V215.691Z" fill="#CB9FFF"/>
<path d="M217.546 202.888H204.817V215.691H217.546V202.888Z" fill="#964CC1"/>
<path d="M204.817 369.388H192.088V382.197H204.817V369.388Z" fill="#964CC1"/>
<path d="M204.817 356.579H192.088V369.388H204.817V356.579Z" fill="#CB9FFF"/>
<path d="M204.817 343.77H192.088V356.579H204.817V343.77Z" fill="#CB9FFF"/>
<path d="M204.817 330.967H192.088V343.77H204.817V330.967Z" fill="#CB9FFF"/>
<path d="M204.817 318.158H192.088V330.967H204.817V318.158Z" fill="#CB9FFF"/>
<path d="M204.817 305.349H192.088V318.158H204.817V305.349Z" fill="#73F4DB"/>
<path d="M204.817 292.54H192.088V305.349H204.817V292.54Z" fill="#18314C"/>
<path d="M204.817 279.73H192.088V292.539H204.817V279.73Z" fill="#DEE2E5"/>
<path d="M204.817 266.928H192.088V279.73H204.817V266.928Z" fill="#CB9FFF"/>
<path d="M204.817 254.118H192.088V266.928H204.817V254.118Z" fill="#CB9FFF"/>
<path d="M204.817 241.309H192.088V254.118H204.817V241.309Z" fill="#18314C"/>
<path d="M204.817 228.5H192.088V241.309H204.817V228.5Z" fill="#18314C"/>
<path d="M204.817 215.691H192.088V228.5H204.817V215.691Z" fill="#CB9FFF"/>
<path d="M204.817 113.23H192.088V126.039H204.817V113.23Z" fill="#42F49B"/>
<path d="M204.817 74.8091H192.088V87.6183H204.817V74.8091Z" fill="#42F49B"/>
<path d="M192.088 369.388H179.359V382.197H192.088V369.388Z" fill="#964CC1"/>
<path d="M192.088 356.579H179.359V369.388H192.088V356.579Z" fill="#CB9FFF"/>
<path d="M192.088 343.77H179.359V356.579H192.088V343.77Z" fill="#CB9FFF"/>
<path d="M192.088 330.967H179.359V343.77H192.088V330.967Z" fill="#CB9FFF"/>
<path d="M192.088 318.158H179.359V330.967H192.088V318.158Z" fill="#73F4DB"/>
<path d="M192.088 305.349H179.359V318.158H192.088V305.349Z" fill="#73F4DB"/>
<path d="M192.088 292.54H179.359V305.349H192.088V292.54Z" fill="#73F4DB"/>
<path d="M192.088 279.73H179.359V292.539H192.088V279.73Z" fill="#CB9FFF"/>
<path d="M192.088 266.928H179.359V279.73H192.088V266.928Z" fill="#CB9FFF"/>
<path d="M192.088 254.118H179.359V266.928H192.088V254.118Z" fill="#CB9FFF"/>
<path d="M192.088 241.309H179.359V254.118H192.088V241.309Z" fill="#CB9FFF"/>
<path d="M192.088 228.5H179.359V241.309H192.088V228.5Z" fill="#964CC1"/>
<path d="M192.088 215.691H179.359V228.5H192.088V215.691Z" fill="#964CC1"/>
<path d="M192.088 202.888H179.359V215.691H192.088V202.888Z" fill="#964CC1"/>
<path d="M192.088 126.04H179.359V138.849H192.088V126.04Z" fill="#42F49B"/>
<path d="M192.088 62H179.359V74.8092H192.088V62Z" fill="#42F49B"/>
<path d="M179.359 369.388H166.637V382.197H179.359V369.388Z" fill="#964CC1"/>
<path d="M179.359 356.579H166.637V369.388H179.359V356.579Z" fill="#CB9FFF"/>
<path d="M179.359 343.77H166.637V356.579H179.359V343.77Z" fill="#CB9FFF"/>
<path d="M179.359 330.967H166.637V343.77H179.359V330.967Z" fill="#CB9FFF"/>
<path d="M179.359 318.158H166.637V330.967H179.359V318.158Z" fill="#18314C"/>
<path d="M179.359 305.349H166.637V318.158H179.359V305.349Z" fill="#73F4DB"/>
<path d="M179.359 292.54H166.637V305.349H179.359V292.54Z" fill="#18314C"/>
<path d="M179.359 279.73H166.637V292.539H179.359V279.73Z" fill="#CB9FFF"/>
<path d="M179.359 266.928H166.637V279.73H179.359V266.928Z" fill="#CB9FFF"/>
<path d="M179.359 254.118H166.637V266.928H179.359V254.118Z" fill="#964CC1"/>
<path d="M179.359 241.309H166.637V254.118H179.359V241.309Z" fill="#964CC1"/>
<path d="M179.359 228.5H166.637V241.309H179.359V228.5Z" fill="#964CC1"/>
<path d="M179.359 215.691H166.637V228.5H179.359V215.691Z" fill="#964CC1"/>
<path d="M179.359 202.888H166.637V215.691H179.359V202.888Z" fill="#964CC1"/>
<path d="M166.637 356.579H153.909V369.388H166.637V356.579Z" fill="#964CC1"/>
<path d="M166.637 343.77H153.909V356.579H166.637V343.77Z" fill="#CB9FFF"/>
<path d="M166.637 330.967H153.909V343.77H166.637V330.967Z" fill="#18314C"/>
<path d="M166.637 318.158H153.909V330.967H166.637V318.158Z" fill="#CB9FFF"/>
<path d="M166.637 305.349H153.909V318.158H166.637V305.349Z" fill="#18314C"/>
<path d="M166.637 292.54H153.909V305.349H166.637V292.54Z" fill="#CB9FFF"/>
<path d="M166.637 279.73H153.909V292.539H166.637V279.73Z" fill="#18314C"/>
<path d="M166.637 266.928H153.909V279.73H166.637V266.928Z" fill="#964CC1"/>
<path d="M166.637 254.118H153.909V266.928H166.637V254.118Z" fill="#964CC1"/>
<path d="M166.637 241.309H153.909V254.118H166.637V241.309Z" fill="#964CC1"/>
<path d="M166.637 228.5H153.909V241.309H166.637V228.5Z" fill="#964CC1"/>
<path d="M166.637 215.691H153.909V228.5H166.637V215.691Z" fill="#964CC1"/>
<path d="M166.637 202.888H153.909V215.691H166.637V202.888Z" fill="#964CC1"/>
<path d="M166.637 190.079H153.909V202.888H166.637V190.079Z" fill="#964CC1"/>
<path d="M153.908 356.579H141.18V369.388H153.908V356.579Z" fill="#964CC1"/>
<path d="M153.908 343.77H141.18V356.579H153.908V343.77Z" fill="#964CC1"/>
<path d="M153.908 330.967H141.18V343.77H153.908V330.967Z" fill="#964CC1"/>
<path d="M153.908 318.158H141.18V330.967H153.908V318.158Z" fill="#964CC1"/>
<path d="M153.908 305.349H141.18V318.158H153.908V305.349Z" fill="#18314C"/>
<path d="M153.908 292.54H141.18V305.349H153.908V292.54Z" fill="#964CC1"/>
<path d="M153.908 279.73H141.18V292.539H153.908V279.73Z" fill="#964CC1"/>
<path d="M153.908 266.928H141.18V279.73H153.908V266.928Z" fill="#964CC1"/>
<path d="M153.908 254.118H141.18V266.928H153.908V254.118Z" fill="#964CC1"/>
<path d="M153.908 241.309H141.18V254.118H153.908V241.309Z" fill="#964CC1"/>
<path d="M153.908 228.5H141.18V241.309H153.908V228.5Z" fill="#73F4DB"/>
<path d="M153.908 215.691H141.18V228.5H153.908V215.691Z" fill="#964CC1"/>
<path d="M153.908 202.888H141.18V215.691H153.908V202.888Z" fill="#964CC1"/>
<path d="M153.908 190.079H141.18V202.888H153.908V190.079Z" fill="#964CC1"/>
<path d="M141.18 343.77H128.451V356.579H141.18V343.77Z" fill="#964CC1"/>
<path d="M141.18 330.967H128.451V343.77H141.18V330.967Z" fill="#964CC1"/>
<path d="M141.18 318.158H128.451V330.967H141.18V318.158Z" fill="#964CC1"/>
<path d="M141.18 305.349H128.451V318.158H141.18V305.349Z" fill="#964CC1"/>
<path d="M141.18 292.54H128.451V305.349H141.18V292.54Z" fill="#964CC1"/>
<path d="M141.18 279.73H128.451V292.539H141.18V279.73Z" fill="#964CC1"/>
<path d="M141.18 266.928H128.451V279.73H141.18V266.928Z" fill="#964CC1"/>
<path d="M141.18 254.118H128.451V266.928H141.18V254.118Z" fill="#964CC1"/>
<path d="M141.18 241.309H128.451V254.118H141.18V241.309Z" fill="#73F4DB"/>
<path d="M141.18 228.5H128.451V241.309H141.18V228.5Z" fill="#73F4DB"/>
<path d="M141.18 215.691H128.451V228.5H141.18V215.691Z" fill="#73F4DB"/>
<path d="M141.18 202.888H128.451V215.691H141.18V202.888Z" fill="#964CC1"/>
<path d="M141.18 190.079H128.451V202.888H141.18V190.079Z" fill="#964CC1"/>
<path d="M141.18 177.27H128.451V190.079H141.18V177.27Z" fill="#964CC1"/>
<path d="M128.451 330.967H115.722V343.77H128.451V330.967Z" fill="#964CC1"/>
<path d="M128.451 318.158H115.722V330.967H128.451V318.158Z" fill="#964CC1"/>
<path d="M128.451 305.349H115.722V318.158H128.451V305.349Z" fill="#964CC1"/>
<path d="M128.451 292.54H115.722V305.349H128.451V292.54Z" fill="#964CC1"/>
<path d="M128.451 279.73H115.722V292.539H128.451V279.73Z" fill="#964CC1"/>
<path d="M128.451 266.928H115.722V279.73H128.451V266.928Z" fill="#964CC1"/>
<path d="M128.451 254.118H115.722V266.928H128.451V254.118Z" fill="#73F4DB"/>
<path d="M128.451 241.309H115.722V254.118H128.451V241.309Z" fill="#73F4DB"/>
<path d="M128.451 228.5H115.722V241.309H128.451V228.5Z" fill="#73F4DB"/>
<path d="M128.451 215.691H115.722V228.5H128.451V215.691Z" fill="#73F4DB"/>
<path d="M128.451 202.888H115.722V215.691H128.451V202.888Z" fill="#73F4DB"/>
<path d="M128.451 190.079H115.722V202.888H128.451V190.079Z" fill="#964CC1"/>
<path d="M128.451 177.27H115.722V190.079H128.451V177.27Z" fill="#964CC1"/>
<path d="M115.722 305.349H103V318.158H115.722V305.349Z" fill="#964CC1"/>
<path d="M115.722 292.54H103V305.349H115.722V292.54Z" fill="#964CC1"/>
<path d="M115.722 228.5H103V241.309H115.722V228.5Z" fill="#73F4DB"/>
<path d="M115.722 215.691H103V228.5H115.722V215.691Z" fill="#73F4DB"/>
<path d="M115.722 202.888H103V215.691H115.722V202.888Z" fill="#964CC1"/>
<path d="M115.722 190.079H103V202.888H115.722V190.079Z" fill="#964CC1"/>
<path d="M319.363 170.888H306.641V183.691H319.363V170.888Z" fill="#F4F41C"/>
<path d="M306.641 183.723H293.918V196.526H306.641V183.723Z" fill="#F4F41C"/>
<path d="M319.363 183.723H306.641V196.526H319.363V183.723Z" fill="#F4F41C"/>
<path d="M332.085 183.723H319.363V196.526H332.085V183.723Z" fill="#F4F41C"/>
<path d="M319.363 196.467H306.641V209.27H319.363V196.467Z" fill="#F4F41C"/>
<path d="M168.318 148.137H155.596V160.94H168.318V148.137Z" fill="#F4F06C"/>
<path d="M155.596 160.972H142.874V173.775H155.596V160.972Z" fill="#F4F06C"/>
<path d="M168.318 160.972H155.596V173.775H168.318V160.972Z" fill="#F4F06C"/>
<path d="M181.041 160.972H168.318V173.775H181.041V160.972Z" fill="#F4F06C"/>
<path d="M168.318 173.716H155.596V186.519H168.318V173.716Z" fill="#F4F06C"/>
<path d="M348.416 96.012H335.694V108.815H348.416V96.012Z" fill="#FFD008"/>
<path d="M335.694 108.847H322.972V121.65H335.694V108.847Z" fill="#FFD008"/>
<path d="M348.416 108.847H335.694V121.65H348.416V108.847Z" fill="#FFD008"/>
<path d="M361.139 108.847H348.416V121.65H361.139V108.847Z" fill="#FFD008"/>
<path d="M348.416 121.591H335.694V134.394H348.416V121.591Z" fill="#FFD008"/>
<path d="M158.348 350.197H145.626V363H158.348V350.197Z" fill="#F4F41C"/>
<path d="M145.626 363.032H132.904V375.835H145.626V363.032Z" fill="#F4F41C"/>
<path d="M158.348 363.032H145.626V375.835H158.348V363.032Z" fill="#F4F41C"/>
<path d="M171.071 363.032H158.348V375.835H171.071V363.032Z" fill="#F4F41C"/>
<path d="M158.348 375.776H145.626V388.579H158.348V375.776Z" fill="#F4F41C"/>
</svg>
