<svg width="688" height="662" viewBox="0 0 688 662" fill="none" xmlns="http://www.w3.org/2000/svg">
<g filter="url(#filter0_i_40_2)">
<path d="M688 567.432H665.805V591.077H688V567.432Z" fill="#C7CBCE"/>
<path d="M688 543.787H665.805V567.432H688V543.787Z" fill="#C7CBCE"/>
<path d="M688 520.142H665.805V543.787H688V520.142Z" fill="#C7CBCE"/>
<path d="M688 496.509H665.805V520.142H688V496.509Z" fill="#DEE2E5"/>
<path d="M688 472.864H665.805V496.509H688V472.864Z" fill="#DEE2E5"/>
<path d="M688 449.219H665.805V472.864H688V449.219Z" fill="#DEE2E5"/>
<path d="M688 425.574H665.805V449.219H688V425.574Z" fill="#DEE2E5"/>
<path d="M688 401.929H665.805V425.574H688V401.929Z" fill="#DEE2E5"/>
<path d="M688 378.284H665.805V401.929H688V378.284Z" fill="#DEE2E5"/>
<path d="M688 354.651H665.805V378.284H688V354.651Z" fill="#DEE2E5"/>
<path d="M688 331.006H665.805V354.651H688V331.006Z" fill="#DEE2E5"/>
<path d="M688 307.361H665.805V331.006H688V307.361Z" fill="#DEE2E5"/>
<path d="M688 283.716H665.805V307.361H688V283.716Z" fill="#DEE2E5"/>
<path d="M665.805 567.432H643.609V591.077H665.805V567.432Z" fill="#C7CBCE"/>
<path d="M665.805 543.787H643.609V567.432H665.805V543.787Z" fill="#C7CBCE"/>
<path d="M665.805 520.142H643.609V543.787H665.805V520.142Z" fill="#C7CBCE"/>
<path d="M665.805 496.509H643.609V520.142H665.805V496.509Z" fill="#DEE2E5"/>
<path d="M665.805 472.864H643.609V496.509H665.805V472.864Z" fill="#DEE2E5"/>
<path d="M665.805 449.219H643.609V472.864H665.805V449.219Z" fill="#DEE2E5"/>
<path d="M665.805 425.574H643.609V449.219H665.805V425.574Z" fill="#DEE2E5"/>
<path d="M665.805 401.929H643.609V425.574H665.805V401.929Z" fill="#DEE2E5"/>
<path d="M665.805 378.284H643.609V401.929H665.805V378.284Z" fill="#DEE2E5"/>
<path d="M665.805 354.651H643.609V378.284H665.805V354.651Z" fill="#DEE2E5"/>
<path d="M665.805 331.006H643.609V354.651H665.805V331.006Z" fill="#DEE2E5"/>
<path d="M665.805 307.361H643.609V331.006H665.805V307.361Z" fill="#DEE2E5"/>
<path d="M665.805 283.716H643.609V307.361H665.805V283.716Z" fill="#DEE2E5"/>
<path d="M643.609 567.432H621.414V591.077H643.609V567.432Z" fill="#C7CBCE"/>
<path d="M643.609 543.787H621.414V567.432H643.609V543.787Z" fill="#C7CBCE"/>
<path d="M643.609 520.142H621.414V543.787H643.609V520.142Z" fill="#C7CBCE"/>
<path d="M643.609 496.509H621.414V520.142H643.609V496.509Z" fill="#DEE2E5"/>
<path d="M643.609 472.864H621.414V496.509H643.609V472.864Z" fill="#DEE2E5"/>
<path d="M643.609 449.219H621.414V472.864H643.609V449.219Z" fill="#DEE2E5"/>
<path d="M643.609 425.574H621.414V449.219H643.609V425.574Z" fill="#DEE2E5"/>
<path d="M643.609 401.929H621.414V425.574H643.609V401.929Z" fill="#DEE2E5"/>
<path d="M643.609 378.284H621.414V401.929H643.609V378.284Z" fill="#DEE2E5"/>
<path d="M643.609 354.651H621.414V378.284H643.609V354.651Z" fill="#DEE2E5"/>
<path d="M643.609 331.006H621.414V354.651H643.609V331.006Z" fill="#DEE2E5"/>
<path d="M643.609 307.361H621.414V331.006H643.609V307.361Z" fill="#DEE2E5"/>
<path d="M643.609 283.716H621.414V307.361H643.609V283.716Z" fill="#DEE2E5"/>
<path d="M621.414 567.432H599.23V591.077H621.414V567.432Z" fill="#C7CBCE"/>
<path d="M621.414 543.787H599.23V567.432H621.414V543.787Z" fill="#C7CBCE"/>
<path d="M621.414 520.142H599.23V543.787H621.414V520.142Z" fill="#C7CBCE"/>
<path d="M621.414 496.509H599.23V520.142H621.414V496.509Z" fill="#DEE2E5"/>
<path d="M621.414 472.864H599.23V496.509H621.414V472.864Z" fill="#DEE2E5"/>
<path d="M621.414 449.219H599.23V472.864H621.414V449.219Z" fill="#DEE2E5"/>
<path d="M621.414 425.574H599.23V449.219H621.414V425.574Z" fill="#DEE2E5"/>
<path d="M621.414 401.929H599.23V425.574H621.414V401.929Z" fill="#DEE2E5"/>
<path d="M621.414 378.284H599.23V401.929H621.414V378.284Z" fill="#DEE2E5"/>
<path d="M621.414 354.651H599.23V378.284H621.414V354.651Z" fill="#DEE2E5"/>
<path d="M621.414 331.006H599.23V354.651H621.414V331.006Z" fill="#DEE2E5"/>
<path d="M621.414 307.361H599.23V331.006H621.414V307.361Z" fill="#DEE2E5"/>
<path d="M621.414 283.716H599.23V307.361H621.414V283.716Z" fill="#DEE2E5"/>
<path d="M599.23 567.432H577.034V591.077H599.23V567.432Z" fill="#C7CBCE"/>
<path d="M599.23 543.787H577.034V567.432H599.23V543.787Z" fill="#C7CBCE"/>
<path d="M599.23 520.142H577.034V543.787H599.23V520.142Z" fill="#C7CBCE"/>
<path d="M599.23 496.509H577.034V520.142H599.23V496.509Z" fill="#DEE2E5"/>
<path d="M599.23 472.864H577.034V496.509H599.23V472.864Z" fill="#DEE2E5"/>
<path d="M599.23 449.219H577.034V472.864H599.23V449.219Z" fill="#DEE2E5"/>
<path d="M599.23 425.574H577.034V449.219H599.23V425.574Z" fill="#DEE2E5"/>
<path d="M599.23 401.929H577.034V425.574H599.23V401.929Z" fill="#DEE2E5"/>
<path d="M599.23 378.284H577.034V401.929H599.23V378.284Z" fill="#DEE2E5"/>
<path d="M599.23 354.651H577.034V378.284H599.23V354.651Z" fill="#DEE2E5"/>
<path d="M599.23 331.006H577.034V354.651H599.23V331.006Z" fill="#DEE2E5"/>
<path d="M599.23 307.361H577.034V331.006H599.23V307.361Z" fill="#DEE2E5"/>
<path d="M599.23 283.716H577.034V307.361H599.23V283.716Z" fill="#DEE2E5"/>
<path d="M577.034 567.432H554.839V591.077H577.034V567.432Z" fill="#C7CBCE"/>
<path d="M577.034 543.787H554.839V567.432H577.034V543.787Z" fill="#C7CBCE"/>
<path d="M577.034 520.142H554.839V543.787H577.034V520.142Z" fill="#C7CBCE"/>
<path d="M577.034 496.509H554.839V520.142H577.034V496.509Z" fill="#DEE2E5"/>
<path d="M577.034 472.864H554.839V496.509H577.034V472.864Z" fill="#DEE2E5"/>
<path d="M577.034 449.219H554.839V472.864H577.034V449.219Z" fill="#DEE2E5"/>
<path d="M577.034 425.574H554.839V449.219H577.034V425.574Z" fill="#DEE2E5"/>
<path d="M577.034 401.929H554.839V425.574H577.034V401.929Z" fill="#DEE2E5"/>
<path d="M577.034 378.284H554.839V401.929H577.034V378.284Z" fill="#DEE2E5"/>
<path d="M577.034 354.651H554.839V378.284H577.034V354.651Z" fill="#DEE2E5"/>
<path d="M577.034 331.006H554.839V354.651H577.034V331.006Z" fill="#DEE2E5"/>
<path d="M577.034 307.361H554.839V331.006H577.034V307.361Z" fill="#DEE2E5"/>
<path d="M577.034 283.716H554.839V307.361H577.034V283.716Z" fill="#DEE2E5"/>
<path d="M577.034 118.213H554.839V141.858H577.034V118.213Z" fill="#FF91AB"/>
<path d="M577.034 94.58H554.839V118.213H577.034V94.58Z" fill="#FF91AB"/>
<path d="M577.034 70.935H554.839V94.5801H577.034V70.935Z" fill="#FF91AB"/>
<path d="M577.034 47.29H554.839V70.935H577.034V47.29Z" fill="#FF91AB"/>
<path d="M577.034 23.645H554.839V47.29H577.034V23.645Z" fill="#EDA751"/>
<path d="M554.839 614.722H532.644V638.367H554.839V614.722Z" fill="#CC8436"/>
<path d="M554.839 591.077H532.644V614.722H554.839V591.077Z" fill="#CC8436"/>
<path d="M554.839 567.432H532.644V591.077H554.839V567.432Z" fill="#C7CBCE"/>
<path d="M554.839 543.787H532.644V567.432H554.839V543.787Z" fill="#C7CBCE"/>
<path d="M554.839 520.142H532.644V543.787H554.839V520.142Z" fill="#C7CBCE"/>
<path d="M554.839 496.509H532.644V520.142H554.839V496.509Z" fill="#DEE2E5"/>
<path d="M554.839 472.864H532.644V496.509H554.839V472.864Z" fill="#DEE2E5"/>
<path d="M554.839 449.219H532.644V472.864H554.839V449.219Z" fill="#DEE2E5"/>
<path d="M554.839 425.574H532.644V449.219H554.839V425.574Z" fill="#DEE2E5"/>
<path d="M554.839 401.929H532.644V425.574H554.839V401.929Z" fill="#DEE2E5"/>
<path d="M554.839 378.284H532.644V401.929H554.839V378.284Z" fill="#EBC434"/>
<path d="M554.839 354.651H532.644V378.284H554.839V354.651Z" fill="#EBC434"/>
<path d="M554.839 331.006H532.644V354.651H554.839V331.006Z" fill="#DEE2E5"/>
<path d="M554.839 307.361H532.644V331.006H554.839V307.361Z" fill="#DEE2E5"/>
<path d="M554.839 283.716H532.644V307.361H554.839V283.716Z" fill="#DEE2E5"/>
<path d="M554.839 260.071H532.644V283.716H554.839V260.071Z" fill="#FFDC9C"/>
<path d="M554.839 236.438H532.644V260.071H554.839V236.438Z" fill="#FFDC9C"/>
<path d="M554.839 212.793H532.644V236.438H554.839V212.793Z" fill="#FFDC9C"/>
<path d="M554.839 189.148H532.644V212.793H554.839V189.148Z" fill="#FFDC9C"/>
<path d="M554.839 165.503H532.644V189.148H554.839V165.503Z" fill="#FF91AB"/>
<path d="M554.839 141.858H532.644V165.503H554.839V141.858Z" fill="#FF91AB"/>
<path d="M554.839 118.213H532.644V141.858H554.839V118.213Z" fill="#FF91AB"/>
<path d="M554.839 94.58H532.644V118.213H554.839V94.58Z" fill="#FF91AB"/>
<path d="M554.839 70.935H532.644V94.5801H554.839V70.935Z" fill="#FF91AB"/>
<path d="M554.839 47.29H532.644V70.935H554.839V47.29Z" fill="#FF91AB"/>
<path d="M554.839 23.645H532.644V47.29H554.839V23.645Z" fill="#EDA751"/>
<path d="M554.839 0H532.644V23.645H554.839V0Z" fill="#EDA751"/>
<path d="M532.644 638.367H510.448V662H532.644V638.367Z" fill="#CC8436"/>
<path d="M532.644 614.722H510.448V638.367H532.644V614.722Z" fill="#CC8436"/>
<path d="M532.644 591.077H510.448V614.722H532.644V591.077Z" fill="#CC8436"/>
<path d="M532.644 567.432H510.448V591.077H532.644V567.432Z" fill="#C7CBCE"/>
<path d="M532.644 543.787H510.448V567.432H532.644V543.787Z" fill="#C7CBCE"/>
<path d="M532.644 520.142H510.448V543.787H532.644V520.142Z" fill="#C7CBCE"/>
<path d="M532.644 496.509H510.448V520.142H532.644V496.509Z" fill="#DEE2E5"/>
<path d="M532.644 472.864H510.448V496.509H532.644V472.864Z" fill="#DEE2E5"/>
<path d="M532.644 449.219H510.448V472.864H532.644V449.219Z" fill="#DEE2E5"/>
<path d="M532.644 425.574H510.448V449.219H532.644V425.574Z" fill="#DEE2E5"/>
<path d="M532.644 401.929H510.448V425.574H532.644V401.929Z" fill="#EBC434"/>
<path d="M532.644 378.284H510.448V401.929H532.644V378.284Z" fill="#EBC434"/>
<path d="M532.644 354.651H510.448V378.284H532.644V354.651Z" fill="#EBC434"/>
<path d="M532.644 331.006H510.448V354.651H532.644V331.006Z" fill="#F5D141"/>
<path d="M532.644 307.361H510.448V331.006H532.644V307.361Z" fill="#DEE2E5"/>
<path d="M532.644 283.716H510.448V307.361H532.644V283.716Z" fill="#DEE2E5"/>
<path d="M532.644 260.071H510.448V283.716H532.644V260.071Z" fill="#495059"/>
<path d="M532.644 236.438H510.448V260.071H532.644V236.438Z" fill="#FFDC9C"/>
<path d="M532.644 212.793H510.448V236.438H532.644V212.793Z" fill="#FFDC9C"/>
<path d="M532.644 189.148H510.448V212.793H532.644V189.148Z" fill="#FFDC9C"/>
<path d="M532.644 165.503H510.448V189.148H532.644V165.503Z" fill="#FFDC9C"/>
<path d="M532.644 141.858H510.448V165.503H532.644V141.858Z" fill="#EDA751"/>
<path d="M532.644 118.213H510.448V141.858H532.644V118.213Z" fill="#EDA751"/>
<path d="M532.644 94.58H510.448V118.213H532.644V94.58Z" fill="#EDA751"/>
<path d="M532.644 70.935H510.448V94.5801H532.644V70.935Z" fill="#EDA751"/>
<path d="M532.644 47.29H510.448V70.935H532.644V47.29Z" fill="#EDA751"/>
<path d="M532.644 23.645H510.448V47.29H532.644V23.645Z" fill="#EDA751"/>
<path d="M510.448 638.367H488.253V662H510.448V638.367Z" fill="#CC8436"/>
<path d="M510.448 614.722H488.253V638.367H510.448V614.722Z" fill="#CC8436"/>
<path d="M510.448 591.077H488.253V614.722H510.448V591.077Z" fill="#CC8436"/>
<path d="M510.448 567.432H488.253V591.077H510.448V567.432Z" fill="#C7CBCE"/>
<path d="M510.448 543.787H488.253V567.432H510.448V543.787Z" fill="#C7CBCE"/>
<path d="M510.448 520.142H488.253V543.787H510.448V520.142Z" fill="#C7CBCE"/>
<path d="M510.448 496.509H488.253V520.142H510.448V496.509Z" fill="#DEE2E5"/>
<path d="M510.448 472.864H488.253V496.509H510.448V472.864Z" fill="#DEE2E5"/>
<path d="M510.448 449.219H488.253V472.864H510.448V449.219Z" fill="#DEE2E5"/>
<path d="M510.448 425.574H488.253V449.219H510.448V425.574Z" fill="#DEE2E5"/>
<path d="M510.448 401.929H488.253V425.574H510.448V401.929Z" fill="#EBC434"/>
<path d="M510.448 378.284H488.253V401.929H510.448V378.284Z" fill="#EBC434"/>
<path d="M510.448 354.651H488.253V378.284H510.448V354.651Z" fill="#E1F4FF"/>
<path d="M510.448 331.006H488.253V354.651H510.448V331.006Z" fill="#F5D141"/>
<path d="M510.448 307.361H488.253V331.006H510.448V307.361Z" fill="#DEE2E5"/>
<path d="M510.448 283.716H488.253V307.361H510.448V283.716Z" fill="#DEE2E5"/>
<path d="M510.448 260.071H488.253V283.716H510.448V260.071Z" fill="#495059"/>
<path d="M510.448 236.438H488.253V260.071H510.448V236.438Z" fill="#FFDC9C"/>
<path d="M510.448 212.793H488.253V236.438H510.448V212.793Z" fill="#495059"/>
<path d="M510.448 189.148H488.253V212.793H510.448V189.148Z" fill="#FFDC9C"/>
<path d="M510.448 165.503H488.253V189.148H510.448V165.503Z" fill="#FFDC9C"/>
<path d="M510.448 141.858H488.253V165.503H510.448V141.858Z" fill="#FFDC9C"/>
<path d="M510.448 118.213H488.253V141.858H510.448V118.213Z" fill="#FFDC9C"/>
<path d="M510.448 94.58H488.253V118.213H510.448V94.58Z" fill="#EDA751"/>
<path d="M510.448 70.935H488.253V94.5801H510.448V70.935Z" fill="#EDA751"/>
<path d="M510.448 47.29H488.253V70.935H510.448V47.29Z" fill="#EDA751"/>
<path d="M510.448 23.645H488.253V47.29H510.448V23.645Z" fill="#EDA751"/>
<path d="M488.253 638.367H466.069V662H488.253V638.367Z" fill="#CC8436"/>
<path d="M488.253 614.722H466.069V638.367H488.253V614.722Z" fill="#CC8436"/>
<path d="M488.253 591.077H466.069V614.722H488.253V591.077Z" fill="#CC8436"/>
<path d="M488.253 567.432H466.069V591.077H488.253V567.432Z" fill="#C7CBCE"/>
<path d="M488.253 543.787H466.069V567.432H488.253V543.787Z" fill="#C7CBCE"/>
<path d="M488.253 520.142H466.069V543.787H488.253V520.142Z" fill="#C7CBCE"/>
<path d="M488.253 496.509H466.069V520.142H488.253V496.509Z" fill="#DEE2E5"/>
<path d="M488.253 472.864H466.069V496.509H488.253V472.864Z" fill="#DEE2E5"/>
<path d="M488.253 449.219H466.069V472.864H488.253V449.219Z" fill="#DEE2E5"/>
<path d="M488.253 425.574H466.069V449.219H488.253V425.574Z" fill="#DEE2E5"/>
<path d="M488.253 401.929H466.069V425.574H488.253V401.929Z" fill="#DEE2E5"/>
<path d="M488.253 378.284H466.069V401.929H488.253V378.284Z" fill="#F5D141"/>
<path d="M488.253 354.651H466.069V378.284H488.253V354.651Z" fill="#F5D141"/>
<path d="M488.253 331.006H466.069V354.651H488.253V331.006Z" fill="#DEE2E5"/>
<path d="M488.253 307.361H466.069V331.006H488.253V307.361Z" fill="#DEE2E5"/>
<path d="M488.253 283.716H466.069V307.361H488.253V283.716Z" fill="#DEE2E5"/>
<path d="M488.253 260.071H466.069V283.716H488.253V260.071Z" fill="#495059"/>
<path d="M488.253 236.438H466.069V260.071H488.253V236.438Z" fill="#495059"/>
<path d="M488.253 212.793H466.069V236.438H488.253V212.793Z" fill="#FFDC9C"/>
<path d="M488.253 189.148H466.069V212.793H488.253V189.148Z" fill="#FFDC9C"/>
<path d="M488.253 165.503H466.069V189.148H488.253V165.503Z" fill="#FFDC9C"/>
<path d="M488.253 141.858H466.069V165.503H488.253V141.858Z" fill="#FFDC9C"/>
<path d="M488.253 118.213H466.069V141.858H488.253V118.213Z" fill="#FFDC9C"/>
<path d="M488.253 94.58H466.069V118.213H488.253V94.58Z" fill="#FFDC9C"/>
<path d="M488.253 70.935H466.069V94.5801H488.253V70.935Z" fill="#EDA751"/>
<path d="M488.253 47.29H466.069V70.935H488.253V47.29Z" fill="#EDA751"/>
<path d="M488.253 23.645H466.069V47.29H488.253V23.645Z" fill="#EDA751"/>
<path d="M466.069 638.367H443.874V662H466.069V638.367Z" fill="#CC8436"/>
<path d="M466.069 614.722H443.874V638.367H466.069V614.722Z" fill="#CC8436"/>
<path d="M466.069 591.077H443.874V614.722H466.069V591.077Z" fill="#CC8436"/>
<path d="M466.069 567.432H443.874V591.077H466.069V567.432Z" fill="#C7CBCE"/>
<path d="M466.069 543.787H443.874V567.432H466.069V543.787Z" fill="#C7CBCE"/>
<path d="M466.069 520.142H443.874V543.787H466.069V520.142Z" fill="#C7CBCE"/>
<path d="M466.069 496.509H443.874V520.142H466.069V496.509Z" fill="#DEE2E5"/>
<path d="M466.069 472.864H443.874V496.509H466.069V472.864Z" fill="#DEE2E5"/>
<path d="M466.069 449.219H443.874V472.864H466.069V449.219Z" fill="#DEE2E5"/>
<path d="M466.069 425.574H443.874V449.219H466.069V425.574Z" fill="#DEE2E5"/>
<path d="M466.069 401.929H443.874V425.574H466.069V401.929Z" fill="#DEE2E5"/>
<path d="M466.069 378.284H443.874V401.929H466.069V378.284Z" fill="#DEE2E5"/>
<path d="M466.069 354.651H443.874V378.284H466.069V354.651Z" fill="#DEE2E5"/>
<path d="M466.069 331.006H443.874V354.651H466.069V331.006Z" fill="#DEE2E5"/>
<path d="M466.069 307.361H443.874V331.006H466.069V307.361Z" fill="#DEE2E5"/>
<path d="M466.069 283.716H443.874V307.361H466.069V283.716Z" fill="#DEE2E5"/>
<path d="M466.069 260.071H443.874V283.716H466.069V260.071Z" fill="#FF91AB"/>
<path d="M466.069 236.438H443.874V260.071H466.069V236.438Z" fill="#FF91AB"/>
<path d="M466.069 212.793H443.874V236.438H466.069V212.793Z" fill="#FFDC9C"/>
<path d="M466.069 189.148H443.874V212.793H466.069V189.148Z" fill="#FFDC9C"/>
<path d="M466.069 165.503H443.874V189.148H466.069V165.503Z" fill="#FFDC9C"/>
<path d="M466.069 141.858H443.874V165.503H466.069V141.858Z" fill="#495059"/>
<path d="M466.069 118.213H443.874V141.858H466.069V118.213Z" fill="#FFDC9C"/>
<path d="M466.069 94.58H443.874V118.213H466.069V94.58Z" fill="#FFDC9C"/>
<path d="M466.069 70.935H443.874V94.5801H466.069V70.935Z" fill="#EDA751"/>
<path d="M466.069 47.29H443.874V70.935H466.069V47.29Z" fill="#EDA751"/>
<path d="M443.874 638.367H421.678V662H443.874V638.367Z" fill="#CC8436"/>
<path d="M443.874 614.722H421.678V638.367H443.874V614.722Z" fill="#EDA751"/>
<path d="M443.874 591.077H421.678V614.722H443.874V591.077Z" fill="#EDA751"/>
<path d="M443.874 567.432H421.678V591.077H443.874V567.432Z" fill="#C7CBCE"/>
<path d="M443.874 543.787H421.678V567.432H443.874V543.787Z" fill="#C7CBCE"/>
<path d="M443.874 520.142H421.678V543.787H443.874V520.142Z" fill="#C7CBCE"/>
<path d="M443.874 496.509H421.678V520.142H443.874V496.509Z" fill="#DEE2E5"/>
<path d="M443.874 472.864H421.678V496.509H443.874V472.864Z" fill="#DEE2E5"/>
<path d="M443.874 449.219H421.678V472.864H443.874V449.219Z" fill="#DEE2E5"/>
<path d="M443.874 425.574H421.678V449.219H443.874V425.574Z" fill="#DEE2E5"/>
<path d="M443.874 401.929H421.678V425.574H443.874V401.929Z" fill="#DEE2E5"/>
<path d="M443.874 378.284H421.678V401.929H443.874V378.284Z" fill="#DEE2E5"/>
<path d="M443.874 354.651H421.678V378.284H443.874V354.651Z" fill="#DEE2E5"/>
<path d="M443.874 331.006H421.678V354.651H443.874V331.006Z" fill="#DEE2E5"/>
<path d="M443.874 307.361H421.678V331.006H443.874V307.361Z" fill="#DEE2E5"/>
<path d="M443.874 283.716H421.678V307.361H443.874V283.716Z" fill="#DEE2E5"/>
<path d="M443.874 260.071H421.678V283.716H443.874V260.071Z" fill="#FF91AB"/>
<path d="M443.874 236.438H421.678V260.071H443.874V236.438Z" fill="#DEE2E5"/>
<path d="M443.874 212.793H421.678V236.438H443.874V212.793Z" fill="#495059"/>
<path d="M443.874 189.148H421.678V212.793H443.874V189.148Z" fill="#495059"/>
<path d="M443.874 165.503H421.678V189.148H443.874V165.503Z" fill="#FFDC9C"/>
<path d="M443.874 141.858H421.678V165.503H443.874V141.858Z" fill="#FFDC9C"/>
<path d="M443.874 118.213H421.678V141.858H443.874V118.213Z" fill="#495059"/>
<path d="M443.874 94.58H421.678V118.213H443.874V94.58Z" fill="#FFDC9C"/>
<path d="M443.874 70.935H421.678V94.5801H443.874V70.935Z" fill="#FFDC9C"/>
<path d="M443.874 47.29H421.678V70.935H443.874V47.29Z" fill="#EDA751"/>
<path d="M421.678 638.367H399.483V662H421.678V638.367Z" fill="#EDA751"/>
<path d="M421.678 614.722H399.483V638.367H421.678V614.722Z" fill="#EDA751"/>
<path d="M421.678 591.077H399.483V614.722H421.678V591.077Z" fill="#EDA751"/>
<path d="M421.678 567.432H399.483V591.077H421.678V567.432Z" fill="#C7CBCE"/>
<path d="M421.678 543.787H399.483V567.432H421.678V543.787Z" fill="#C7CBCE"/>
<path d="M421.678 520.142H399.483V543.787H421.678V520.142Z" fill="#C7CBCE"/>
<path d="M421.678 496.509H399.483V520.142H421.678V496.509Z" fill="#DEE2E5"/>
<path d="M421.678 472.864H399.483V496.509H421.678V472.864Z" fill="#DEE2E5"/>
<path d="M421.678 449.219H399.483V472.864H421.678V449.219Z" fill="#DEE2E5"/>
<path d="M421.678 425.574H399.483V449.219H421.678V425.574Z" fill="#DEE2E5"/>
<path d="M421.678 401.929H399.483V425.574H421.678V401.929Z" fill="#DEE2E5"/>
<path d="M421.678 378.284H399.483V401.929H421.678V378.284Z" fill="#DEE2E5"/>
<path d="M421.678 354.651H399.483V378.284H421.678V354.651Z" fill="#DEE2E5"/>
<path d="M421.678 331.006H399.483V354.651H421.678V331.006Z" fill="#DEE2E5"/>
<path d="M421.678 307.361H399.483V331.006H421.678V307.361Z" fill="#DEE2E5"/>
<path d="M421.678 283.716H399.483V307.361H421.678V283.716Z" fill="#DEE2E5"/>
<path d="M421.678 260.071H399.483V283.716H421.678V260.071Z" fill="#FFDC9C"/>
<path d="M421.678 236.438H399.483V260.071H421.678V236.438Z" fill="#495059"/>
<path d="M421.678 212.793H399.483V236.438H421.678V212.793Z" fill="#495059"/>
<path d="M421.678 189.148H399.483V212.793H421.678V189.148Z" fill="#495059"/>
<path d="M421.678 165.503H399.483V189.148H421.678V165.503Z" fill="#FFDC9C"/>
<path d="M421.678 141.858H399.483V165.503H421.678V141.858Z" fill="#FFDC9C"/>
<path d="M421.678 118.213H399.483V141.858H421.678V118.213Z" fill="#495059"/>
<path d="M421.678 94.58H399.483V118.213H421.678V94.58Z" fill="#FFDC9C"/>
<path d="M421.678 70.935H399.483V94.5801H421.678V70.935Z" fill="#FFDC9C"/>
<path d="M399.483 638.367H377.287V662H399.483V638.367Z" fill="#EDA751"/>
<path d="M399.483 614.722H377.287V638.367H399.483V614.722Z" fill="#EDA751"/>
<path d="M399.483 591.077H377.287V614.722H399.483V591.077Z" fill="#EDA751"/>
<path d="M399.483 567.432H377.287V591.077H399.483V567.432Z" fill="#C7CBCE"/>
<path d="M399.483 543.787H377.287V567.432H399.483V543.787Z" fill="#C7CBCE"/>
<path d="M399.483 520.142H377.287V543.787H399.483V520.142Z" fill="#C7CBCE"/>
<path d="M399.483 496.509H377.287V520.142H399.483V496.509Z" fill="#DEE2E5"/>
<path d="M399.483 472.864H377.287V496.509H399.483V472.864Z" fill="#DEE2E5"/>
<path d="M399.483 449.219H377.287V472.864H399.483V449.219Z" fill="#DEE2E5"/>
<path d="M399.483 425.574H377.287V449.219H399.483V425.574Z" fill="#DEE2E5"/>
<path d="M399.483 401.929H377.287V425.574H399.483V401.929Z" fill="#DEE2E5"/>
<path d="M399.483 378.284H377.287V401.929H399.483V378.284Z" fill="#DEE2E5"/>
<path d="M399.483 354.651H377.287V378.284H399.483V354.651Z" fill="#DEE2E5"/>
<path d="M399.483 331.006H377.287V354.651H399.483V331.006Z" fill="#DEE2E5"/>
<path d="M399.483 307.361H377.287V331.006H399.483V307.361Z" fill="#DEE2E5"/>
<path d="M399.483 283.716H377.287V307.361H399.483V283.716Z" fill="#DEE2E5"/>
<path d="M399.483 260.071H377.287V283.716H399.483V260.071Z" fill="#FFDC9C"/>
<path d="M399.483 236.438H377.287V260.071H399.483V236.438Z" fill="#FFDC9C"/>
<path d="M399.483 212.793H377.287V236.438H399.483V212.793Z" fill="#FFDC9C"/>
<path d="M399.483 189.148H377.287V212.793H399.483V189.148Z" fill="#FFDC9C"/>
<path d="M399.483 165.503H377.287V189.148H399.483V165.503Z" fill="#FFDC9C"/>
<path d="M399.483 141.858H377.287V165.503H399.483V141.858Z" fill="#FFDC9C"/>
<path d="M399.483 118.213H377.287V141.858H399.483V118.213Z" fill="#FFDC9C"/>
<path d="M399.483 94.58H377.287V118.213H399.483V94.58Z" fill="#FFDC9C"/>
<path d="M399.483 70.935H377.287V94.5801H399.483V70.935Z" fill="#FFDC9C"/>
<path d="M399.483 47.29H377.287V70.935H399.483V47.29Z" fill="#FFDC9C"/>
<path d="M377.287 638.367H355.103V662H377.287V638.367Z" fill="#EDA751"/>
<path d="M377.287 614.722H355.103V638.367H377.287V614.722Z" fill="#EDA751"/>
<path d="M377.287 591.077H355.103V614.722H377.287V591.077Z" fill="#EDA751"/>
<path d="M377.287 567.432H355.103V591.077H377.287V567.432Z" fill="#C7CBCE"/>
<path d="M377.287 543.787H355.103V567.432H377.287V543.787Z" fill="#C7CBCE"/>
<path d="M377.287 520.142H355.103V543.787H377.287V520.142Z" fill="#C7CBCE"/>
<path d="M377.287 496.509H355.103V520.142H377.287V496.509Z" fill="#DEE2E5"/>
<path d="M377.287 472.864H355.103V496.509H377.287V472.864Z" fill="#DEE2E5"/>
<path d="M377.287 449.219H355.103V472.864H377.287V449.219Z" fill="#DEE2E5"/>
<path d="M377.287 425.574H355.103V449.219H377.287V425.574Z" fill="#DEE2E5"/>
<path d="M377.287 401.929H355.103V425.574H377.287V401.929Z" fill="#DEE2E5"/>
<path d="M377.287 378.284H355.103V401.929H377.287V378.284Z" fill="#DEE2E5"/>
<path d="M377.287 354.651H355.103V378.284H377.287V354.651Z" fill="#DEE2E5"/>
<path d="M377.287 331.006H355.103V354.651H377.287V331.006Z" fill="#DEE2E5"/>
<path d="M377.287 307.361H355.103V331.006H377.287V307.361Z" fill="#DEE2E5"/>
<path d="M377.287 283.716H355.103V307.361H377.287V283.716Z" fill="#DEE2E5"/>
<path d="M377.287 260.071H355.103V283.716H377.287V260.071Z" fill="#FFDC9C"/>
<path d="M377.287 236.438H355.103V260.071H377.287V236.438Z" fill="#FFDC9C"/>
<path d="M377.287 212.793H355.103V236.438H377.287V212.793Z" fill="#FFDC9C"/>
<path d="M377.287 189.148H355.103V212.793H377.287V189.148Z" fill="#FFDC9C"/>
<path d="M377.287 165.503H355.103V189.148H377.287V165.503Z" fill="#FFDC9C"/>
<path d="M377.287 141.858H355.103V165.503H377.287V141.858Z" fill="#FFDC9C"/>
<path d="M377.287 118.213H355.103V141.858H377.287V118.213Z" fill="#FFDC9C"/>
<path d="M377.287 94.58H355.103V118.213H377.287V94.58Z" fill="#FFDC9C"/>
<path d="M377.287 70.935H355.103V94.5801H377.287V70.935Z" fill="#FFDC9C"/>
<path d="M377.287 47.29H355.103V70.935H377.287V47.29Z" fill="#FFDC9C"/>
<path d="M355.103 638.367H332.908V662H355.103V638.367Z" fill="#EDA751"/>
<path d="M355.103 614.722H332.908V638.367H355.103V614.722Z" fill="#EDA751"/>
<path d="M355.103 591.077H332.908V614.722H355.103V591.077Z" fill="#EDA751"/>
<path d="M355.103 567.432H332.908V591.077H355.103V567.432Z" fill="#C7CBCE"/>
<path d="M355.103 543.787H332.908V567.432H355.103V543.787Z" fill="#C7CBCE"/>
<path d="M355.103 520.142H332.908V543.787H355.103V520.142Z" fill="#C7CBCE"/>
<path d="M355.103 496.509H332.908V520.142H355.103V496.509Z" fill="#DEE2E5"/>
<path d="M355.103 472.864H332.908V496.509H355.103V472.864Z" fill="#DEE2E5"/>
<path d="M355.103 449.219H332.908V472.864H355.103V449.219Z" fill="#DEE2E5"/>
<path d="M355.103 425.574H332.908V449.219H355.103V425.574Z" fill="#DEE2E5"/>
<path d="M355.103 401.929H332.908V425.574H355.103V401.929Z" fill="#DEE2E5"/>
<path d="M355.103 378.284H332.908V401.929H355.103V378.284Z" fill="#DEE2E5"/>
<path d="M355.103 354.651H332.908V378.284H355.103V354.651Z" fill="#DEE2E5"/>
<path d="M355.103 331.006H332.908V354.651H355.103V331.006Z" fill="#DEE2E5"/>
<path d="M355.103 307.361H332.908V331.006H355.103V307.361Z" fill="#DEE2E5"/>
<path d="M355.103 283.716H332.908V307.361H355.103V283.716Z" fill="#DEE2E5"/>
<path d="M355.103 260.071H332.908V283.716H355.103V260.071Z" fill="#FF91AB"/>
<path d="M355.103 236.438H332.908V260.071H355.103V236.438Z" fill="#FFDC9C"/>
<path d="M355.103 212.793H332.908V236.438H355.103V212.793Z" fill="#FFDC9C"/>
<path d="M355.103 189.148H332.908V212.793H355.103V189.148Z" fill="#FFDC9C"/>
<path d="M355.103 165.503H332.908V189.148H355.103V165.503Z" fill="#FFDC9C"/>
<path d="M355.103 141.858H332.908V165.503H355.103V141.858Z" fill="#FFDC9C"/>
<path d="M355.103 118.213H332.908V141.858H355.103V118.213Z" fill="#FFDC9C"/>
<path d="M355.103 94.58H332.908V118.213H355.103V94.58Z" fill="#FFDC9C"/>
<path d="M355.103 70.935H332.908V94.5801H355.103V70.935Z" fill="#FFDC9C"/>
<path d="M355.103 47.29H332.908V70.935H355.103V47.29Z" fill="#FFDC9C"/>
<path d="M332.908 638.367H310.713V662H332.908V638.367Z" fill="#EDA751"/>
<path d="M332.908 614.722H310.713V638.367H332.908V614.722Z" fill="#EDA751"/>
<path d="M332.908 591.077H310.713V614.722H332.908V591.077Z" fill="#EDA751"/>
<path d="M332.908 567.432H310.713V591.077H332.908V567.432Z" fill="#C7CBCE"/>
<path d="M332.908 543.787H310.713V567.432H332.908V543.787Z" fill="#C7CBCE"/>
<path d="M332.908 520.142H310.713V543.787H332.908V520.142Z" fill="#C7CBCE"/>
<path d="M332.908 496.509H310.713V520.142H332.908V496.509Z" fill="#DEE2E5"/>
<path d="M332.908 472.864H310.713V496.509H332.908V472.864Z" fill="#DEE2E5"/>
<path d="M332.908 449.219H310.713V472.864H332.908V449.219Z" fill="#DEE2E5"/>
<path d="M332.908 425.574H310.713V449.219H332.908V425.574Z" fill="#DEE2E5"/>
<path d="M332.908 401.929H310.713V425.574H332.908V401.929Z" fill="#DEE2E5"/>
<path d="M332.908 378.284H310.713V401.929H332.908V378.284Z" fill="#DEE2E5"/>
<path d="M332.908 354.651H310.713V378.284H332.908V354.651Z" fill="#DEE2E5"/>
<path d="M332.908 331.006H310.713V354.651H332.908V331.006Z" fill="#DEE2E5"/>
<path d="M332.908 307.361H310.713V331.006H332.908V307.361Z" fill="#DEE2E5"/>
<path d="M332.908 283.716H310.713V307.361H332.908V283.716Z" fill="#DEE2E5"/>
<path d="M332.908 260.071H310.713V283.716H332.908V260.071Z" fill="#FF91AB"/>
<path d="M332.908 236.438H310.713V260.071H332.908V236.438Z" fill="#FFDC9C"/>
<path d="M332.908 212.793H310.713V236.438H332.908V212.793Z" fill="#FFDC9C"/>
<path d="M332.908 189.148H310.713V212.793H332.908V189.148Z" fill="#FFDC9C"/>
<path d="M332.908 165.503H310.713V189.148H332.908V165.503Z" fill="#FFDC9C"/>
<path d="M332.908 141.858H310.713V165.503H332.908V141.858Z" fill="#FFDC9C"/>
<path d="M332.908 118.213H310.713V141.858H332.908V118.213Z" fill="#FFDC9C"/>
<path d="M332.908 94.58H310.713V118.213H332.908V94.58Z" fill="#FFDC9C"/>
<path d="M332.908 70.935H310.713V94.5801H332.908V70.935Z" fill="#FFDC9C"/>
<path d="M332.908 47.29H310.713V70.935H332.908V47.29Z" fill="#FFDC9C"/>
<path d="M310.713 638.367H288.517V662H310.713V638.367Z" fill="#EDA751"/>
<path d="M310.713 614.722H288.517V638.367H310.713V614.722Z" fill="#EDA751"/>
<path d="M310.713 591.077H288.517V614.722H310.713V591.077Z" fill="#EDA751"/>
<path d="M310.713 567.432H288.517V591.077H310.713V567.432Z" fill="#AAAFB2"/>
<path d="M310.713 543.787H288.517V567.432H310.713V543.787Z" fill="#AAAFB2"/>
<path d="M310.713 520.142H288.517V543.787H310.713V520.142Z" fill="#AAAFB2"/>
<path d="M310.713 496.509H288.517V520.142H310.713V496.509Z" fill="#EDA751"/>
<path d="M310.713 472.864H288.517V496.509H310.713V472.864Z" fill="#EDA751"/>
<path d="M310.713 449.219H288.517V472.864H310.713V449.219Z" fill="#EDA751"/>
<path d="M310.713 425.574H288.517V449.219H310.713V425.574Z" fill="#F6CF81"/>
<path d="M310.713 401.929H288.517V425.574H310.713V401.929Z" fill="#FFDC9C"/>
<path d="M310.713 378.284H288.517V401.929H310.713V378.284Z" fill="#FFDC9C"/>
<path d="M310.713 354.651H288.517V378.284H310.713V354.651Z" fill="#FFDC9C"/>
<path d="M310.713 331.006H288.517V354.651H310.713V331.006Z" fill="#FFDC9C"/>
<path d="M310.713 307.361H288.517V331.006H310.713V307.361Z" fill="#FFDC9C"/>
<path d="M310.713 283.716H288.517V307.361H310.713V283.716Z" fill="#FFDC9C"/>
<path d="M310.713 260.071H288.517V283.716H310.713V260.071Z" fill="#FFDC9C"/>
<path d="M310.713 236.438H288.517V260.071H310.713V236.438Z" fill="#FFDC9C"/>
<path d="M310.713 212.793H288.517V236.438H310.713V212.793Z" fill="#FFDC9C"/>
<path d="M310.713 189.148H288.517V212.793H310.713V189.148Z" fill="#FFDC9C"/>
<path d="M310.713 165.503H288.517V189.148H310.713V165.503Z" fill="#FFDC9C"/>
<path d="M310.713 141.858H288.517V165.503H310.713V141.858Z" fill="#FFDC9C"/>
<path d="M310.713 118.213H288.517V141.858H310.713V118.213Z" fill="#FFDC9C"/>
<path d="M310.713 94.58H288.517V118.213H310.713V94.58Z" fill="#FFDC9C"/>
<path d="M310.713 70.935H288.517V94.5801H310.713V70.935Z" fill="#FFDC9C"/>
<path d="M310.713 47.29H288.517V70.935H310.713V47.29Z" fill="#FFDC9C"/>
<path d="M288.517 638.367H266.322V662H288.517V638.367Z" fill="#F6CF81"/>
<path d="M288.517 614.722H266.322V638.367H288.517V614.722Z" fill="#EDA751"/>
<path d="M288.517 591.077H266.322V614.722H288.517V591.077Z" fill="#EDA751"/>
<path d="M288.517 567.432H266.322V591.077H288.517V567.432Z" fill="#AAAFB2"/>
<path d="M288.517 543.787H266.322V567.432H288.517V543.787Z" fill="#AAAFB2"/>
<path d="M288.517 520.142H266.322V543.787H288.517V520.142Z" fill="#AAAFB2"/>
<path d="M288.517 496.509H266.322V520.142H288.517V496.509Z" fill="#EDA751"/>
<path d="M288.517 472.864H266.322V496.509H288.517V472.864Z" fill="#EDA751"/>
<path d="M288.517 449.219H266.322V472.864H288.517V449.219Z" fill="#EDA751"/>
<path d="M288.517 425.574H266.322V449.219H288.517V425.574Z" fill="#EDA751"/>
<path d="M288.517 401.929H266.322V425.574H288.517V401.929Z" fill="#FFDC9C"/>
<path d="M288.517 378.284H266.322V401.929H288.517V378.284Z" fill="#FFDC9C"/>
<path d="M288.517 354.651H266.322V378.284H288.517V354.651Z" fill="#FFDC9C"/>
<path d="M288.517 331.006H266.322V354.651H288.517V331.006Z" fill="#FFDC9C"/>
<path d="M288.517 307.361H266.322V331.006H288.517V307.361Z" fill="#FFDC9C"/>
<path d="M288.517 283.716H266.322V307.361H288.517V283.716Z" fill="#FFDC9C"/>
<path d="M288.517 260.071H266.322V283.716H288.517V260.071Z" fill="#FFDC9C"/>
<path d="M288.517 236.438H266.322V260.071H288.517V236.438Z" fill="#FFDC9C"/>
<path d="M288.517 212.793H266.322V236.438H288.517V212.793Z" fill="#FFDC9C"/>
<path d="M288.517 189.148H266.322V212.793H288.517V189.148Z" fill="#FFDC9C"/>
<path d="M288.517 165.503H266.322V189.148H288.517V165.503Z" fill="#FFDC9C"/>
<path d="M288.517 141.858H266.322V165.503H288.517V141.858Z" fill="#FFDC9C"/>
<path d="M288.517 118.213H266.322V141.858H288.517V118.213Z" fill="#FFDC9C"/>
<path d="M288.517 94.58H266.322V118.213H288.517V94.58Z" fill="#FFDC9C"/>
<path d="M288.517 70.935H266.322V94.5801H288.517V70.935Z" fill="#FFDC9C"/>
<path d="M288.517 47.29H266.322V70.935H288.517V47.29Z" fill="#FFDC9C"/>
<path d="M266.322 638.367H244.126V662H266.322V638.367Z" fill="#F6CF81"/>
<path d="M266.322 614.722H244.126V638.367H266.322V614.722Z" fill="#F6CF81"/>
<path d="M266.322 591.077H244.126V614.722H266.322V591.077Z" fill="#FFDC9C"/>
<path d="M266.322 567.432H244.126V591.077H266.322V567.432Z" fill="#AAAFB2"/>
<path d="M266.322 543.787H244.126V567.432H266.322V543.787Z" fill="#AAAFB2"/>
<path d="M266.322 520.142H244.126V543.787H266.322V520.142Z" fill="#AAAFB2"/>
<path d="M266.322 496.509H244.126V520.142H266.322V496.509Z" fill="#FFDC9C"/>
<path d="M266.322 472.864H244.126V496.509H266.322V472.864Z" fill="#EDA751"/>
<path d="M266.322 449.219H244.126V472.864H266.322V449.219Z" fill="#EDA751"/>
<path d="M266.322 425.574H244.126V449.219H266.322V425.574Z" fill="#EDA751"/>
<path d="M266.322 401.929H244.126V425.574H266.322V401.929Z" fill="#FFDC9C"/>
<path d="M266.322 378.284H244.126V401.929H266.322V378.284Z" fill="#FFDC9C"/>
<path d="M266.322 354.651H244.126V378.284H266.322V354.651Z" fill="#FFDC9C"/>
<path d="M266.322 331.006H244.126V354.651H266.322V331.006Z" fill="#FFDC9C"/>
<path d="M266.322 307.361H244.126V331.006H266.322V307.361Z" fill="#FFDC9C"/>
<path d="M266.322 283.716H244.126V307.361H266.322V283.716Z" fill="#FFDC9C"/>
<path d="M266.322 260.071H244.126V283.716H266.322V260.071Z" fill="#FFDC9C"/>
<path d="M266.322 236.438H244.126V260.071H266.322V236.438Z" fill="#DEE2E5"/>
<path d="M266.322 212.793H244.126V236.438H266.322V212.793Z" fill="#495059"/>
<path d="M266.322 189.148H244.126V212.793H266.322V189.148Z" fill="#495059"/>
<path d="M266.322 165.503H244.126V189.148H266.322V165.503Z" fill="#FFDC9C"/>
<path d="M266.322 141.858H244.126V165.503H266.322V141.858Z" fill="#FFDC9C"/>
<path d="M266.322 118.213H244.126V141.858H266.322V118.213Z" fill="#495059"/>
<path d="M266.322 94.58H244.126V118.213H266.322V94.58Z" fill="#FFDC9C"/>
<path d="M266.322 70.935H244.126V94.5801H266.322V70.935Z" fill="#FFDC9C"/>
<path d="M266.322 47.29H244.126V70.935H266.322V47.29Z" fill="#FFDC9C"/>
<path d="M244.126 638.367H221.942V662H244.126V638.367Z" fill="#F6CF81"/>
<path d="M244.126 614.722H221.942V638.367H244.126V614.722Z" fill="#F6CF81"/>
<path d="M244.126 591.077H221.942V614.722H244.126V591.077Z" fill="#F6CF81"/>
<path d="M244.126 567.432H221.942V591.077H244.126V567.432Z" fill="#AAAFB2"/>
<path d="M244.126 543.787H221.942V567.432H244.126V543.787Z" fill="#AAAFB2"/>
<path d="M244.126 520.142H221.942V543.787H244.126V520.142Z" fill="#AAAFB2"/>
<path d="M244.126 496.509H221.942V520.142H244.126V496.509Z" fill="#FFDC9C"/>
<path d="M244.126 472.864H221.942V496.509H244.126V472.864Z" fill="#EDA751"/>
<path d="M244.126 449.219H221.942V472.864H244.126V449.219Z" fill="#EDA751"/>
<path d="M244.126 425.574H221.942V449.219H244.126V425.574Z" fill="#EDA751"/>
<path d="M244.126 401.929H221.942V425.574H244.126V401.929Z" fill="#FFDC9C"/>
<path d="M244.126 378.284H221.942V401.929H244.126V378.284Z" fill="#FFDC9C"/>
<path d="M244.126 354.651H221.942V378.284H244.126V354.651Z" fill="#FFDC9C"/>
<path d="M244.126 331.006H221.942V354.651H244.126V331.006Z" fill="#FFDC9C"/>
<path d="M244.126 307.361H221.942V331.006H244.126V307.361Z" fill="#FFDC9C"/>
<path d="M244.126 283.716H221.942V307.361H244.126V283.716Z" fill="#FF91AB"/>
<path d="M244.126 260.071H221.942V283.716H244.126V260.071Z" fill="#FF91AB"/>
<path d="M244.126 236.438H221.942V260.071H244.126V236.438Z" fill="#495059"/>
<path d="M244.126 212.793H221.942V236.438H244.126V212.793Z" fill="#495059"/>
<path d="M244.126 189.148H221.942V212.793H244.126V189.148Z" fill="#495059"/>
<path d="M244.126 165.503H221.942V189.148H244.126V165.503Z" fill="#FFDC9C"/>
<path d="M244.126 141.858H221.942V165.503H244.126V141.858Z" fill="#FFDC9C"/>
<path d="M244.126 118.213H221.942V141.858H244.126V118.213Z" fill="#495059"/>
<path d="M244.126 94.58H221.942V118.213H244.126V94.58Z" fill="#FFDC9C"/>
<path d="M244.126 70.935H221.942V94.5801H244.126V70.935Z" fill="#FFDC9C"/>
<path d="M244.126 47.29H221.942V70.935H244.126V47.29Z" fill="#FFDC9C"/>
<path d="M221.942 614.722H199.747V638.367H221.942V614.722Z" fill="#F6CF81"/>
<path d="M221.942 591.077H199.747V614.722H221.942V591.077Z" fill="#F6CF81"/>
<path d="M221.942 567.432H199.747V591.077H221.942V567.432Z" fill="#AAAFB2"/>
<path d="M221.942 543.787H199.747V567.432H221.942V543.787Z" fill="#AAAFB2"/>
<path d="M221.942 520.142H199.747V543.787H221.942V520.142Z" fill="#AAAFB2"/>
<path d="M221.942 496.509H199.747V520.142H221.942V496.509Z" fill="#F6CF81"/>
<path d="M221.942 472.864H199.747V496.509H221.942V472.864Z" fill="#EDA751"/>
<path d="M221.942 449.219H199.747V472.864H221.942V449.219Z" fill="#EDA751"/>
<path d="M221.942 425.574H199.747V449.219H221.942V425.574Z" fill="#EDA751"/>
<path d="M221.942 401.929H199.747V425.574H221.942V401.929Z" fill="#FFDC9C"/>
<path d="M221.942 378.284H199.747V401.929H221.942V378.284Z" fill="#FFDC9C"/>
<path d="M221.942 354.651H199.747V378.284H221.942V354.651Z" fill="#FFDC9C"/>
<path d="M221.942 331.006H199.747V354.651H221.942V331.006Z" fill="#FFDC9C"/>
<path d="M221.942 307.361H199.747V331.006H221.942V307.361Z" fill="#FF91AB"/>
<path d="M221.942 283.716H199.747V307.361H221.942V283.716Z" fill="#FF91AB"/>
<path d="M221.942 260.071H199.747V283.716H221.942V260.071Z" fill="#FF91AB"/>
<path d="M221.942 236.438H199.747V260.071H221.942V236.438Z" fill="#FF91AB"/>
<path d="M221.942 212.793H199.747V236.438H221.942V212.793Z" fill="#FFDC9C"/>
<path d="M221.942 189.148H199.747V212.793H221.942V189.148Z" fill="#FFDC9C"/>
<path d="M221.942 165.503H199.747V189.148H221.942V165.503Z" fill="#FFDC9C"/>
<path d="M221.942 141.858H199.747V165.503H221.942V141.858Z" fill="#495059"/>
<path d="M221.942 118.213H199.747V141.858H221.942V118.213Z" fill="#FFDC9C"/>
<path d="M221.942 94.58H199.747V118.213H221.942V94.58Z" fill="#FFDC9C"/>
<path d="M221.942 70.935H199.747V94.5801H221.942V70.935Z" fill="#FFDC9C"/>
<path d="M199.747 614.722H177.552V638.367H199.747V614.722Z" fill="#EDA751"/>
<path d="M199.747 591.077H177.552V614.722H199.747V591.077Z" fill="#EDA751"/>
<path d="M199.747 567.432H177.552V591.077H199.747V567.432Z" fill="#AAAFB2"/>
<path d="M199.747 543.787H177.552V567.432H199.747V543.787Z" fill="#AAAFB2"/>
<path d="M199.747 520.142H177.552V543.787H199.747V520.142Z" fill="#AAAFB2"/>
<path d="M199.747 496.509H177.552V520.142H199.747V496.509Z" fill="#EDA751"/>
<path d="M199.747 472.864H177.552V496.509H199.747V472.864Z" fill="#EDA751"/>
<path d="M199.747 449.219H177.552V472.864H199.747V449.219Z" fill="#EDA751"/>
<path d="M199.747 425.574H177.552V449.219H199.747V425.574Z" fill="#F6CF81"/>
<path d="M199.747 401.929H177.552V425.574H199.747V401.929Z" fill="#FFDC9C"/>
<path d="M199.747 378.284H177.552V401.929H199.747V378.284Z" fill="#FFDC9C"/>
<path d="M199.747 354.651H177.552V378.284H199.747V354.651Z" fill="#FFDC9C"/>
<path d="M199.747 331.006H177.552V354.651H199.747V331.006Z" fill="#FFDC9C"/>
<path d="M199.747 307.361H177.552V331.006H199.747V307.361Z" fill="#FF91AB"/>
<path d="M199.747 283.716H177.552V307.361H199.747V283.716Z" fill="#FF91AB"/>
<path d="M199.747 260.071H177.552V283.716H199.747V260.071Z" fill="#FF91AB"/>
<path d="M199.747 236.438H177.552V260.071H199.747V236.438Z" fill="#FF91AB"/>
<path d="M199.747 212.793H177.552V236.438H199.747V212.793Z" fill="#FFDC9C"/>
<path d="M199.747 189.148H177.552V212.793H199.747V189.148Z" fill="#FFDC9C"/>
<path d="M199.747 165.503H177.552V189.148H199.747V165.503Z" fill="#FFDC9C"/>
<path d="M199.747 141.858H177.552V165.503H199.747V141.858Z" fill="#FFDC9C"/>
<path d="M199.747 118.213H177.552V141.858H199.747V118.213Z" fill="#FFDC9C"/>
<path d="M199.747 94.58H177.552V118.213H199.747V94.58Z" fill="#FFDC9C"/>
<path d="M199.747 70.935H177.552V94.5801H199.747V70.935Z" fill="#FFDC9C"/>
<path d="M177.552 614.722H155.356V638.367H177.552V614.722Z" fill="#EDA751"/>
<path d="M177.552 591.077H155.356V614.722H177.552V591.077Z" fill="#EDA751"/>
<path d="M177.552 567.432H155.356V591.077H177.552V567.432Z" fill="#AAAFB2"/>
<path d="M177.552 543.787H155.356V567.432H177.552V543.787Z" fill="#AAAFB2"/>
<path d="M177.552 520.142H155.356V543.787H177.552V520.142Z" fill="#AAAFB2"/>
<path d="M177.552 496.509H155.356V520.142H177.552V496.509Z" fill="#EDA751"/>
<path d="M177.552 472.864H155.356V496.509H177.552V472.864Z" fill="#EDA751"/>
<path d="M177.552 449.219H155.356V472.864H177.552V449.219Z" fill="#EDA751"/>
<path d="M177.552 425.574H155.356V449.219H177.552V425.574Z" fill="#F6CF81"/>
<path d="M177.552 401.929H155.356V425.574H177.552V401.929Z" fill="#F6CF81"/>
<path d="M177.552 378.284H155.356V401.929H177.552V378.284Z" fill="#FFDC9C"/>
<path d="M177.552 354.651H155.356V378.284H177.552V354.651Z" fill="#FFDC9C"/>
<path d="M177.552 331.006H155.356V354.651H177.552V331.006Z" fill="#FFDC9C"/>
<path d="M177.552 307.361H155.356V331.006H177.552V307.361Z" fill="#495059"/>
<path d="M177.552 283.716H155.356V307.361H177.552V283.716Z" fill="#FF91AB"/>
<path d="M177.552 260.071H155.356V283.716H177.552V260.071Z" fill="#495059"/>
<path d="M177.552 236.438H155.356V260.071H177.552V236.438Z" fill="#495059"/>
<path d="M177.552 212.793H155.356V236.438H177.552V212.793Z" fill="#FFDC9C"/>
<path d="M177.552 189.148H155.356V212.793H177.552V189.148Z" fill="#FFDC9C"/>
<path d="M177.552 165.503H155.356V189.148H177.552V165.503Z" fill="#FFDC9C"/>
<path d="M177.552 141.858H155.356V165.503H177.552V141.858Z" fill="#FFDC9C"/>
<path d="M177.552 118.213H155.356V141.858H177.552V118.213Z" fill="#FFDC9C"/>
<path d="M177.552 94.58H155.356V118.213H177.552V94.58Z" fill="#FFDC9C"/>
<path d="M177.552 70.935H155.356V94.5801H177.552V70.935Z" fill="#EDA751"/>
<path d="M177.552 47.29H155.356V70.935H177.552V47.29Z" fill="#EDA751"/>
<path d="M155.356 614.722H133.161V638.367H155.356V614.722Z" fill="#EDA751"/>
<path d="M155.356 591.077H133.161V614.722H155.356V591.077Z" fill="#EDA751"/>
<path d="M155.356 425.574H133.161V449.219H155.356V425.574Z" fill="#F6CF81"/>
<path d="M155.356 401.929H133.161V425.574H155.356V401.929Z" fill="#F6CF81"/>
<path d="M155.356 378.284H133.161V401.929H155.356V378.284Z" fill="#F6CF81"/>
<path d="M155.356 354.651H133.161V378.284H155.356V354.651Z" fill="#F6CF81"/>
<path d="M155.356 331.006H133.161V354.651H155.356V331.006Z" fill="#495059"/>
<path d="M155.356 307.361H133.161V331.006H155.356V307.361Z" fill="#FFDC9C"/>
<path d="M155.356 283.716H133.161V307.361H155.356V283.716Z" fill="#FFDC9C"/>
<path d="M155.356 260.071H133.161V283.716H155.356V260.071Z" fill="#495059"/>
<path d="M155.356 236.438H133.161V260.071H155.356V236.438Z" fill="#FFDC9C"/>
<path d="M155.356 212.793H133.161V236.438H155.356V212.793Z" fill="#495059"/>
<path d="M155.356 189.148H133.161V212.793H155.356V189.148Z" fill="#FFDC9C"/>
<path d="M155.356 165.503H133.161V189.148H155.356V165.503Z" fill="#FFDC9C"/>
<path d="M155.356 141.858H133.161V165.503H155.356V141.858Z" fill="#FFDC9C"/>
<path d="M155.356 118.213H133.161V141.858H155.356V118.213Z" fill="#F6CF81"/>
<path d="M155.356 94.58H133.161V118.213H155.356V94.58Z" fill="#F6CF81"/>
<path d="M155.356 70.935H133.161V94.5801H155.356V70.935Z" fill="#EDA751"/>
<path d="M155.356 47.29H133.161V70.935H155.356V47.29Z" fill="#EDA751"/>
<path d="M155.356 23.645H133.161V47.29H155.356V23.645Z" fill="#EDA751"/>
<path d="M133.161 614.722H110.966V638.367H133.161V614.722Z" fill="#EDA751"/>
<path d="M133.161 591.077H110.966V614.722H133.161V591.077Z" fill="#EDA751"/>
<path d="M133.161 401.929H110.966V425.574H133.161V401.929Z" fill="#F6CF81"/>
<path d="M133.161 378.284H110.966V401.929H133.161V378.284Z" fill="#F6CF81"/>
<path d="M133.161 354.651H110.966V378.284H133.161V354.651Z" fill="#F6CF81"/>
<path d="M133.161 331.006H110.966V354.651H133.161V331.006Z" fill="#F6CF81"/>
<path d="M133.161 307.361H110.966V331.006H133.161V307.361Z" fill="#F6CF81"/>
<path d="M133.161 283.716H110.966V307.361H133.161V283.716Z" fill="#FFDC9C"/>
<path d="M133.161 260.071H110.966V283.716H133.161V260.071Z" fill="#495059"/>
<path d="M133.161 236.438H110.966V260.071H133.161V236.438Z" fill="#FFDC9C"/>
<path d="M133.161 212.793H110.966V236.438H133.161V212.793Z" fill="#FFDC9C"/>
<path d="M133.161 189.148H110.966V212.793H133.161V189.148Z" fill="#F6CF81"/>
<path d="M133.161 165.503H110.966V189.148H133.161V165.503Z" fill="#F6CF81"/>
<path d="M133.161 141.858H110.966V165.503H133.161V141.858Z" fill="#F6CF81"/>
<path d="M133.161 118.213H110.966V141.858H133.161V118.213Z" fill="#F6CF81"/>
<path d="M133.161 94.58H110.966V118.213H133.161V94.58Z" fill="#FF91AB"/>
<path d="M133.161 70.935H110.966V94.5801H133.161V70.935Z" fill="#EDA751"/>
<path d="M133.161 47.29H110.966V70.935H133.161V47.29Z" fill="#EDA751"/>
<path d="M133.161 23.645H110.966V47.29H133.161V23.645Z" fill="#EDA751"/>
<path d="M110.966 614.722H88.7815V638.367H110.966V614.722Z" fill="#EDA751"/>
<path d="M110.966 591.077H88.7815V614.722H110.966V591.077Z" fill="#EDA751"/>
<path d="M110.966 567.432H88.7815V591.077H110.966V567.432Z" fill="#EDA751"/>
<path d="M110.966 378.284H88.7815V401.929H110.966V378.284Z" fill="#F6CF81"/>
<path d="M110.966 354.651H88.7815V378.284H110.966V354.651Z" fill="#F6CF81"/>
<path d="M110.966 331.006H88.7815V354.651H110.966V331.006Z" fill="#F6CF81"/>
<path d="M110.966 307.361H88.7815V331.006H110.966V307.361Z" fill="#F6CF81"/>
<path d="M110.966 283.716H88.7815V307.361H110.966V283.716Z" fill="#F6CF81"/>
<path d="M110.966 260.071H88.7815V283.716H110.966V260.071Z" fill="#F6CF81"/>
<path d="M110.966 236.438H88.7815V260.071H110.966V236.438Z" fill="#F6CF81"/>
<path d="M110.966 212.793H88.7815V236.438H110.966V212.793Z" fill="#F6CF81"/>
<path d="M110.966 189.148H88.7815V212.793H110.966V189.148Z" fill="#F6CF81"/>
<path d="M110.966 165.503H88.7815V189.148H110.966V165.503Z" fill="#F6CF81"/>
<path d="M110.966 141.858H88.7815V165.503H110.966V141.858Z" fill="#F6CF81"/>
<path d="M110.966 118.213H88.7815V141.858H110.966V118.213Z" fill="#FF91AB"/>
<path d="M110.966 94.58H88.7815V118.213H110.966V94.58Z" fill="#FF91AB"/>
<path d="M110.966 70.935H88.7815V94.5801H110.966V70.935Z" fill="#EDA751"/>
<path d="M110.966 47.29H88.7815V70.935H110.966V47.29Z" fill="#EDA751"/>
<path d="M110.966 23.645H88.7815V47.29H110.966V23.645Z" fill="#EDA751"/>
<path d="M88.7815 591.077H66.5861V614.722H88.7815V591.077Z" fill="#EDA751"/>
<path d="M88.7815 567.432H66.5861V591.077H88.7815V567.432Z" fill="#EDA751"/>
<path d="M88.7815 543.787H66.5861V567.432H88.7815V543.787Z" fill="#EDA751"/>
<path d="M88.7815 520.142H66.5861V543.787H88.7815V520.142Z" fill="#EDA751"/>
<path d="M88.7815 496.509H66.5861V520.142H88.7815V496.509Z" fill="#EDA751"/>
<path d="M88.7815 472.864H66.5861V496.509H88.7815V472.864Z" fill="#EDA751"/>
<path d="M88.7815 354.651H66.5861V378.284H88.7815V354.651Z" fill="#F6CF81"/>
<path d="M88.7815 331.006H66.5861V354.651H88.7815V331.006Z" fill="#F6CF81"/>
<path d="M88.7815 307.361H66.5861V331.006H88.7815V307.361Z" fill="#F6CF81"/>
<path d="M88.7815 283.716H66.5861V307.361H88.7815V283.716Z" fill="#F6CF81"/>
<path d="M88.7815 260.071H66.5861V283.716H88.7815V260.071Z" fill="#F6CF81"/>
<path d="M88.7815 236.438H66.5861V260.071H88.7815V236.438Z" fill="#F6CF81"/>
<path d="M88.7815 212.793H66.5861V236.438H88.7815V212.793Z" fill="#F6CF81"/>
<path d="M88.7815 189.148H66.5861V212.793H88.7815V189.148Z" fill="#F6CF81"/>
<path d="M88.7815 165.503H66.5861V189.148H88.7815V165.503Z" fill="#F6CF81"/>
<path d="M88.7815 141.858H66.5861V165.503H88.7815V141.858Z" fill="#FF91AB"/>
<path d="M88.7815 118.213H66.5861V141.858H88.7815V118.213Z" fill="#FF91AB"/>
<path d="M88.7815 94.58H66.5861V118.213H88.7815V94.58Z" fill="#FF91AB"/>
<path d="M88.7815 70.935H66.5861V94.5801H88.7815V70.935Z" fill="#FF91AB"/>
<path d="M88.7815 47.29H66.5861V70.935H88.7815V47.29Z" fill="#EDA751"/>
<path d="M88.7815 23.645H66.5861V47.29H88.7815V23.645Z" fill="#EDA751"/>
<path d="M88.7815 0H66.5861V23.645H88.7815V0Z" fill="#EDA751"/>
<path d="M66.5861 567.432H44.3907V591.077H66.5861V567.432Z" fill="#EDA751"/>
<path d="M66.5861 543.787H44.3907V567.432H66.5861V543.787Z" fill="#EDA751"/>
<path d="M66.5861 520.142H44.3907V543.787H66.5861V520.142Z" fill="#EDA751"/>
<path d="M66.5861 496.509H44.3907V520.142H66.5861V496.509Z" fill="#EDA751"/>
<path d="M66.5861 472.864H44.3907V496.509H66.5861V472.864Z" fill="#FFDC9C"/>
<path d="M66.5861 449.219H44.3907V472.864H66.5861V449.219Z" fill="#FFDC9C"/>
<path d="M66.5861 307.361H44.3907V331.006H66.5861V307.361Z" fill="#F6CF81"/>
<path d="M66.5861 283.716H44.3907V307.361H66.5861V283.716Z" fill="#F6CF81"/>
<path d="M66.5861 260.071H44.3907V283.716H66.5861V260.071Z" fill="#F6CF81"/>
<path d="M66.5861 236.438H44.3907V260.071H66.5861V236.438Z" fill="#F6CF81"/>
<path d="M66.5861 212.793H44.3907V236.438H66.5861V212.793Z" fill="#F6CF81"/>
<path d="M66.5861 165.503H44.3907V189.148H66.5861V165.503Z" fill="#FF91AB"/>
<path d="M66.5861 141.858H44.3907V165.503H66.5861V141.858Z" fill="#FF91AB"/>
<path d="M66.5861 118.213H44.3907V141.858H66.5861V118.213Z" fill="#FF91AB"/>
<path d="M66.5861 94.58H44.3907V118.213H66.5861V94.58Z" fill="#FF91AB"/>
<path d="M66.5861 70.935H44.3907V94.5801H66.5861V70.935Z" fill="#FF91AB"/>
<path d="M66.5861 47.29H44.3907V70.935H66.5861V47.29Z" fill="#FF91AB"/>
<path d="M66.5861 23.645H44.3907V47.29H66.5861V23.645Z" fill="#EDA751"/>
<path d="M44.3908 472.864H22.1954V496.509H44.3908V472.864Z" fill="#FFDC9C"/>
<path d="M44.3908 449.219H22.1954V472.864H44.3908V449.219Z" fill="#FFDC9C"/>
<path d="M44.3908 425.574H22.1954V449.219H44.3908V425.574Z" fill="#FFDC9C"/>
<path d="M44.3908 118.213H22.1954V141.858H44.3908V118.213Z" fill="#FF91AB"/>
<path d="M44.3908 94.58H22.1954V118.213H44.3908V94.58Z" fill="#FF91AB"/>
<path d="M22.1954 449.219H0V472.864H22.1954V449.219Z" fill="#FFDC9C"/>
</g>
<defs>
<filter id="filter0_i_40_2" x="0" y="-4" width="688" height="666" filterUnits="userSpaceOnUse" color-interpolation-filters="sRGB">
<feFlood flood-opacity="0" result="BackgroundImageFix"/>
<feBlend mode="normal" in="SourceGraphic" in2="BackgroundImageFix" result="shape"/>
<feColorMatrix in="SourceAlpha" type="matrix" values="0 0 0 0 0 0 0 0 0 0 0 0 0 0 0 0 0 0 127 0" result="hardAlpha"/>
<feOffset dy="-9"/>
<feGaussianBlur stdDeviation="2"/>
<feComposite in2="hardAlpha" operator="arithmetic" k2="-1" k3="1"/>
<feColorMatrix type="matrix" values="0 0 0 0 0 0 0 0 0 0 0 0 0 0 0 0 0 0 0.25 0"/>
<feBlend mode="normal" in2="shape" result="effect1_innerShadow_40_2"/>
</filter>
</defs>
</svg>
