<svg width="480" height="480" viewBox="0 0 480 480" fill="none" xmlns="http://www.w3.org/2000/svg">
<circle cx="240" cy="240" r="240" fill="#4C3375"/>
<circle cx="240" cy="240" r="240" fill="#4C3375"/>
<circle cx="240" cy="240" r="240" fill="white"/>
<path d="M378 300.349H365.271V313.158H378V300.349Z" fill="#FFDC9C"/>
<path d="M378 287.54H365.271V300.349H378V287.54Z" fill="#FFDC9C"/>
<path d="M378 223.5H365.271V236.309H378V223.5Z" fill="#FF91AB"/>
<path d="M378 210.691H365.271V223.5H378V210.691Z" fill="#FF91AB"/>
<path d="M378 197.888H365.271V210.691H378V197.888Z" fill="#EDA751"/>
<path d="M378 185.079H365.271V197.888H378V185.079Z" fill="#EDA751"/>
<path d="M365.271 313.158H352.543V325.967H365.271V313.158Z" fill="#FFDC9C"/>
<path d="M365.271 300.349H352.543V313.158H365.271V300.349Z" fill="#FFDC9C"/>
<path d="M365.271 287.54H352.543V300.349H365.271V287.54Z" fill="#FFDC9C"/>
<path d="M365.271 274.73H352.543V287.539H365.271V274.73Z" fill="#FFDC9C"/>
<path d="M365.271 261.928H352.543V274.73H365.271V261.928Z" fill="#FFDC9C"/>
<path d="M365.271 249.118H352.543V261.928H365.271V249.118Z" fill="#FF91AB"/>
<path d="M365.271 236.309H352.543V249.118H365.271V236.309Z" fill="#FF91AB"/>
<path d="M365.271 223.5H352.543V236.309H365.271V223.5Z" fill="#FF91AB"/>
<path d="M365.271 210.691H352.543V223.5H365.271V210.691Z" fill="#FF91AB"/>
<path d="M365.271 197.888H352.543V210.691H365.271V197.888Z" fill="#FF91AB"/>
<path d="M365.271 185.079H352.543V197.888H365.271V185.079Z" fill="#EDA751"/>
<path d="M365.271 172.27H352.543V185.079H365.271V172.27Z" fill="#EDA751"/>
<path d="M352.543 338.77H339.82V351.579H352.543V338.77Z" fill="#FFDC9C"/>
<path d="M352.543 325.967H339.82V338.77H352.543V325.967Z" fill="#FFDC9C"/>
<path d="M352.543 313.158H339.82V325.967H352.543V313.158Z" fill="#FFDC9C"/>
<path d="M352.543 300.349H339.82V313.158H352.543V300.349Z" fill="#FFDC9C"/>
<path d="M352.543 287.54H339.82V300.349H352.543V287.54Z" fill="#FFDC9C"/>
<path d="M352.543 274.73H339.82V287.539H352.543V274.73Z" fill="#FFDC9C"/>
<path d="M352.543 261.928H339.82V274.73H352.543V261.928Z" fill="#FFDC9C"/>
<path d="M352.543 249.118H339.82V261.928H352.543V249.118Z" fill="#FFDC9C"/>
<path d="M352.543 236.309H339.82V249.118H352.543V236.309Z" fill="#FF91AB"/>
<path d="M352.543 223.5H339.82V236.309H352.543V223.5Z" fill="#FF91AB"/>
<path d="M352.543 210.691H339.82V223.5H352.543V210.691Z" fill="#FF91AB"/>
<path d="M352.543 197.888H339.82V210.691H352.543V197.888Z" fill="#EDA751"/>
<path d="M352.543 185.079H339.82V197.888H352.543V185.079Z" fill="#EDA751"/>
<path d="M352.543 172.27H339.82V185.079H352.543V172.27Z" fill="#EDA751"/>
<path d="M339.82 351.579H327.092V364.388H339.82V351.579Z" fill="#FFDC9C"/>
<path d="M339.82 338.77H327.092V351.579H339.82V338.77Z" fill="#FFDC9C"/>
<path d="M339.82 325.967H327.092V338.77H339.82V325.967Z" fill="#FFDC9C"/>
<path d="M339.82 313.158H327.092V325.967H339.82V313.158Z" fill="#FFDC9C"/>
<path d="M339.82 300.349H327.092V313.158H339.82V300.349Z" fill="#495059"/>
<path d="M339.82 287.54H327.092V300.349H339.82V287.54Z" fill="#FFDC9C"/>
<path d="M339.82 274.73H327.092V287.539H339.82V274.73Z" fill="#FFDC9C"/>
<path d="M339.82 261.928H327.092V274.73H339.82V261.928Z" fill="#FFDC9C"/>
<path d="M339.82 249.118H327.092V261.928H339.82V249.118Z" fill="#FFDC9C"/>
<path d="M339.82 236.309H327.092V249.118H339.82V236.309Z" fill="#FFDC9C"/>
<path d="M339.82 223.5H327.092V236.309H339.82V223.5Z" fill="#FF91AB"/>
<path d="M339.82 210.691H327.092V223.5H339.82V210.691Z" fill="#EDA751"/>
<path d="M339.82 197.888H327.092V210.691H339.82V197.888Z" fill="#EDA751"/>
<path d="M339.82 185.079H327.092V197.888H339.82V185.079Z" fill="#EDA751"/>
<path d="M327.092 351.579H314.363V364.388H327.092V351.579Z" fill="#FFDC9C"/>
<path d="M327.092 338.77H314.363V351.579H327.092V338.77Z" fill="#FFDC9C"/>
<path d="M327.092 325.967H314.363V338.77H327.092V325.967Z" fill="#495059"/>
<path d="M327.092 313.158H314.363V325.967H327.092V313.158Z" fill="#FFDC9C"/>
<path d="M327.092 300.349H314.363V313.158H327.092V300.349Z" fill="#495059"/>
<path d="M327.092 287.54H314.363V300.349H327.092V287.54Z" fill="#FFDC9C"/>
<path d="M327.092 274.73H314.363V287.539H327.092V274.73Z" fill="#495059"/>
<path d="M327.092 261.928H314.363V274.73H327.092V261.928Z" fill="#FFDC9C"/>
<path d="M327.092 249.118H314.363V261.928H327.092V249.118Z" fill="#FFDC9C"/>
<path d="M327.092 236.309H314.363V249.118H327.092V236.309Z" fill="#FFDC9C"/>
<path d="M327.092 223.5H314.363V236.309H327.092V223.5Z" fill="#FFDC9C"/>
<path d="M327.092 210.691H314.363V223.5H327.092V210.691Z" fill="#EDA751"/>
<path d="M327.092 197.888H314.363V210.691H327.092V197.888Z" fill="#EDA751"/>
<path d="M327.092 185.079H314.363V197.888H327.092V185.079Z" fill="#EDA751"/>
<path d="M314.363 364.388H301.634V377.197H314.363V364.388Z" fill="#FFDC9C"/>
<path d="M314.363 351.579H301.634V364.388H314.363V351.579Z" fill="#FFDC9C"/>
<path d="M314.363 338.77H301.634V351.579H314.363V338.77Z" fill="#FFDC9C"/>
<path d="M314.363 325.967H301.634V338.77H314.363V325.967Z" fill="#FFDC9C"/>
<path d="M314.363 313.158H301.634V325.967H314.363V313.158Z" fill="#495059"/>
<path d="M314.363 300.349H301.634V313.158H314.363V300.349Z" fill="#FF91AB"/>
<path d="M314.363 287.54H301.634V300.349H314.363V287.54Z" fill="#495059"/>
<path d="M314.363 274.73H301.634V287.539H314.363V274.73Z" fill="#FFDC9C"/>
<path d="M314.363 261.928H301.634V274.73H314.363V261.928Z" fill="#FFDC9C"/>
<path d="M314.363 249.118H301.634V261.928H314.363V249.118Z" fill="#FFDC9C"/>
<path d="M314.363 236.309H301.634V249.118H314.363V236.309Z" fill="#FFDC9C"/>
<path d="M314.363 223.5H301.634V236.309H314.363V223.5Z" fill="#FFDC9C"/>
<path d="M314.363 210.691H301.634V223.5H314.363V210.691Z" fill="#FFDC9C"/>
<path d="M314.363 197.888H301.634V210.691H314.363V197.888Z" fill="#EDA751"/>
<path d="M301.634 364.388H288.905V377.197H301.634V364.388Z" fill="#FFDC9C"/>
<path d="M301.634 351.579H288.905V364.388H301.634V351.579Z" fill="#FFDC9C"/>
<path d="M301.634 338.77H288.905V351.579H301.634V338.77Z" fill="#FFDC9C"/>
<path d="M301.634 325.967H288.905V338.77H301.634V325.967Z" fill="#FFDC9C"/>
<path d="M301.634 313.158H288.905V325.967H301.634V313.158Z" fill="#FF91AB"/>
<path d="M301.634 300.349H288.905V313.158H301.634V300.349Z" fill="#FF91AB"/>
<path d="M301.634 287.54H288.905V300.349H301.634V287.54Z" fill="#FF91AB"/>
<path d="M301.634 274.73H288.905V287.539H301.634V274.73Z" fill="#FFDC9C"/>
<path d="M301.634 261.928H288.905V274.73H301.634V261.928Z" fill="#FFDC9C"/>
<path d="M301.634 249.118H288.905V261.928H301.634V249.118Z" fill="#FFDC9C"/>
<path d="M301.634 236.309H288.905V249.118H301.634V236.309Z" fill="#FFDC9C"/>
<path d="M301.634 223.5H288.905V236.309H301.634V223.5Z" fill="#FFDC9C"/>
<path d="M301.634 210.691H288.905V223.5H301.634V210.691Z" fill="#FFDC9C"/>
<path d="M301.634 197.888H288.905V210.691H301.634V197.888Z" fill="#EDA751"/>
<path d="M301.634 121.04H288.905V133.849H301.634V121.04Z" fill="#F5D141"/>
<path d="M301.634 57H288.905V69.8092H301.634V57Z" fill="#F5D141"/>
<path d="M288.905 364.388H276.183V377.197H288.905V364.388Z" fill="#FFDC9C"/>
<path d="M288.905 351.579H276.183V364.388H288.905V351.579Z" fill="#FFDC9C"/>
<path d="M288.905 338.77H276.183V351.579H288.905V338.77Z" fill="#FFDC9C"/>
<path d="M288.905 325.967H276.183V338.77H288.905V325.967Z" fill="#FFDC9C"/>
<path d="M288.905 313.158H276.183V325.967H288.905V313.158Z" fill="#FFDC9C"/>
<path d="M288.905 300.349H276.183V313.158H288.905V300.349Z" fill="#FF91AB"/>
<path d="M288.905 287.54H276.183V300.349H288.905V287.54Z" fill="#495059"/>
<path d="M288.905 274.73H276.183V287.539H288.905V274.73Z" fill="#495059"/>
<path d="M288.905 261.928H276.183V274.73H288.905V261.928Z" fill="#FFDC9C"/>
<path d="M288.905 249.118H276.183V261.928H288.905V249.118Z" fill="#FFDC9C"/>
<path d="M288.905 236.309H276.183V249.118H288.905V236.309Z" fill="#495059"/>
<path d="M288.905 223.5H276.183V236.309H288.905V223.5Z" fill="#495059"/>
<path d="M288.905 210.691H276.183V223.5H288.905V210.691Z" fill="#FFDC9C"/>
<path d="M288.905 197.888H276.183V210.691H288.905V197.888Z" fill="#FFDC9C"/>
<path d="M288.905 108.23H276.183V121.039H288.905V108.23Z" fill="#F5D141"/>
<path d="M288.905 69.8091H276.183V82.6183H288.905V69.8091Z" fill="#F5D141"/>
<path d="M276.183 377.197H263.454V390H276.183V377.197Z" fill="#FFDC9C"/>
<path d="M276.183 364.388H263.454V377.197H276.183V364.388Z" fill="#FFDC9C"/>
<path d="M276.183 351.579H263.454V364.388H276.183V351.579Z" fill="#FFDC9C"/>
<path d="M276.183 338.77H263.454V351.579H276.183V338.77Z" fill="#FFDC9C"/>
<path d="M276.183 325.967H263.454V338.77H276.183V325.967Z" fill="#FFDC9C"/>
<path d="M276.183 313.158H263.454V325.967H276.183V313.158Z" fill="#FFDC9C"/>
<path d="M276.183 300.349H263.454V313.158H276.183V300.349Z" fill="#FFDC9C"/>
<path d="M276.183 287.54H263.454V300.349H276.183V287.54Z" fill="#495059"/>
<path d="M276.183 274.73H263.454V287.539H276.183V274.73Z" fill="#DEE2E5"/>
<path d="M276.183 261.928H263.454V274.73H276.183V261.928Z" fill="#FFDC9C"/>
<path d="M276.183 249.118H263.454V261.928H276.183V249.118Z" fill="#FFDC9C"/>
<path d="M276.183 236.309H263.454V249.118H276.183V236.309Z" fill="#FFDC9C"/>
<path d="M276.183 223.5H263.454V236.309H276.183V223.5Z" fill="#495059"/>
<path d="M276.183 210.691H263.454V223.5H276.183V210.691Z" fill="#FFDC9C"/>
<path d="M276.183 197.888H263.454V210.691H276.183V197.888Z" fill="#FFDC9C"/>
<path d="M263.454 377.197H250.726V390H263.454V377.197Z" fill="#FFDC9C"/>
<path d="M263.454 364.388H250.726V377.197H263.454V364.388Z" fill="#FFDC9C"/>
<path d="M263.454 351.579H250.726V364.388H263.454V351.579Z" fill="#FFDC9C"/>
<path d="M263.454 338.77H250.726V351.579H263.454V338.77Z" fill="#FFDC9C"/>
<path d="M263.454 325.967H250.726V338.77H263.454V325.967Z" fill="#495059"/>
<path d="M263.454 313.158H250.726V325.967H263.454V313.158Z" fill="#FFDC9C"/>
<path d="M263.454 300.349H250.726V313.158H263.454V300.349Z" fill="#FFDC9C"/>
<path d="M263.454 287.54H250.726V300.349H263.454V287.54Z" fill="#FFDC9C"/>
<path d="M263.454 274.73H250.726V287.539H263.454V274.73Z" fill="#FFDC9C"/>
<path d="M263.454 261.928H250.726V274.73H263.454V261.928Z" fill="#FFDC9C"/>
<path d="M263.454 249.118H250.726V261.928H263.454V249.118Z" fill="#FFDC9C"/>
<path d="M263.454 236.309H250.726V249.118H263.454V236.309Z" fill="#FFDC9C"/>
<path d="M263.454 223.5H250.726V236.309H263.454V223.5Z" fill="#FFDC9C"/>
<path d="M263.454 210.691H250.726V223.5H263.454V210.691Z" fill="#FFDC9C"/>
<path d="M263.454 197.888H250.726V210.691H263.454V197.888Z" fill="#FFDC9C"/>
<path d="M263.454 159.46H250.726V172.27H263.454V159.46Z" fill="#495059"/>
<path d="M263.454 146.658H250.726V159.461H263.454V146.658Z" fill="#DEE2E5"/>
<path d="M263.454 108.23H250.726V121.039H263.454V108.23Z" fill="#F5D141"/>
<path d="M263.454 95.4211H250.726V108.23H263.454V95.4211Z" fill="#F5D141"/>
<path d="M263.454 82.6184H250.726V95.4211H263.454V82.6184Z" fill="#F5D141"/>
<path d="M250.726 377.197H237.997V390H250.726V377.197Z" fill="#FFDC9C"/>
<path d="M250.726 364.388H237.997V377.197H250.726V364.388Z" fill="#FFDC9C"/>
<path d="M250.726 351.579H237.997V364.388H250.726V351.579Z" fill="#FFDC9C"/>
<path d="M250.726 338.77H237.997V351.579H250.726V338.77Z" fill="#495059"/>
<path d="M250.726 325.967H237.997V338.77H250.726V325.967Z" fill="#495059"/>
<path d="M250.726 313.158H237.997V325.967H250.726V313.158Z" fill="#FFDC9C"/>
<path d="M250.726 300.349H237.997V313.158H250.726V300.349Z" fill="#FF91AB"/>
<path d="M250.726 287.54H237.997V300.349H250.726V287.54Z" fill="#FF91AB"/>
<path d="M250.726 274.73H237.997V287.539H250.726V274.73Z" fill="#FFDC9C"/>
<path d="M250.726 261.928H237.997V274.73H250.726V261.928Z" fill="#FFDC9C"/>
<path d="M250.726 249.118H237.997V261.928H250.726V249.118Z" fill="#FFDC9C"/>
<path d="M250.726 236.309H237.997V249.118H250.726V236.309Z" fill="#FFDC9C"/>
<path d="M250.726 223.5H237.997V236.309H250.726V223.5Z" fill="#FFDC9C"/>
<path d="M250.726 210.691H237.997V223.5H250.726V210.691Z" fill="#FFDC9C"/>
<path d="M250.726 197.888H237.997V210.691H250.726V197.888Z" fill="#FFDC9C"/>
<path d="M250.726 172.27H237.997V185.079H250.726V172.27Z" fill="#495059"/>
<path d="M250.726 159.46H237.997V172.27H250.726V159.46Z" fill="#495059"/>
<path d="M250.726 146.658H237.997V159.461H250.726V146.658Z" fill="#DEE2E5"/>
<path d="M250.726 133.849H237.997V146.658H250.726V133.849Z" fill="#F5D141"/>
<path d="M250.726 121.04H237.997V133.849H250.726V121.04Z" fill="#F5D141"/>
<path d="M250.726 108.23H237.997V121.039H250.726V108.23Z" fill="#F5D141"/>
<path d="M250.726 95.4211H237.997V108.23H250.726V95.4211Z" fill="#F5D141"/>
<path d="M250.726 82.6184H237.997V95.4211H250.726V82.6184Z" fill="#F5D141"/>
<path d="M250.726 69.8091H237.997V82.6183H250.726V69.8091Z" fill="#F5D141"/>
<path d="M237.997 377.197H225.268V390H237.997V377.197Z" fill="#FFDC9C"/>
<path d="M237.997 364.388H225.268V377.197H237.997V364.388Z" fill="#FFDC9C"/>
<path d="M237.997 351.579H225.268V364.388H237.997V351.579Z" fill="#FFDC9C"/>
<path d="M237.997 338.77H225.268V351.579H237.997V338.77Z" fill="#495059"/>
<path d="M237.997 325.967H225.268V338.77H237.997V325.967Z" fill="#495059"/>
<path d="M237.997 313.158H225.268V325.967H237.997V313.158Z" fill="#FFDC9C"/>
<path d="M237.997 300.349H225.268V313.158H237.997V300.349Z" fill="#FF91AB"/>
<path d="M237.997 287.54H225.268V300.349H237.997V287.54Z" fill="#FF91AB"/>
<path d="M237.997 274.73H225.268V287.539H237.997V274.73Z" fill="#FFDC9C"/>
<path d="M237.997 261.928H225.268V274.73H237.997V261.928Z" fill="#FFDC9C"/>
<path d="M237.997 249.118H225.268V261.928H237.997V249.118Z" fill="#FFDC9C"/>
<path d="M237.997 236.309H225.268V249.118H237.997V236.309Z" fill="#FFDC9C"/>
<path d="M237.997 223.5H225.268V236.309H237.997V223.5Z" fill="#FFDC9C"/>
<path d="M237.997 210.691H225.268V223.5H237.997V210.691Z" fill="#FFDC9C"/>
<path d="M237.997 197.888H225.268V210.691H237.997V197.888Z" fill="#FFDC9C"/>
<path d="M237.997 172.27H225.268V185.079H237.997V172.27Z" fill="#495059"/>
<path d="M237.997 159.46H225.268V172.27H237.997V159.46Z" fill="#495059"/>
<path d="M237.997 146.658H225.268V159.461H237.997V146.658Z" fill="#DEE2E5"/>
<path d="M237.997 133.849H225.268V146.658H237.997V133.849Z" fill="#EBC434"/>
<path d="M237.997 121.04H225.268V133.849H237.997V121.04Z" fill="#EBC434"/>
<path d="M237.997 108.23H225.268V121.039H237.997V108.23Z" fill="#EBC434"/>
<path d="M237.997 95.4211H225.268V108.23H237.997V95.4211Z" fill="#EBC434"/>
<path d="M237.997 82.6184H225.268V95.4211H237.997V82.6184Z" fill="#EBC434"/>
<path d="M237.997 69.8091H225.268V82.6183H237.997V69.8091Z" fill="#EBC434"/>
<path d="M225.268 377.197H212.546V390H225.268V377.197Z" fill="#EDA751"/>
<path d="M225.268 364.388H212.546V377.197H225.268V364.388Z" fill="#FFDC9C"/>
<path d="M225.268 351.579H212.546V364.388H225.268V351.579Z" fill="#FFDC9C"/>
<path d="M225.268 338.77H212.546V351.579H225.268V338.77Z" fill="#FFDC9C"/>
<path d="M225.268 325.967H212.546V338.77H225.268V325.967Z" fill="#495059"/>
<path d="M225.268 313.158H212.546V325.967H225.268V313.158Z" fill="#FFDC9C"/>
<path d="M225.268 300.349H212.546V313.158H225.268V300.349Z" fill="#FFDC9C"/>
<path d="M225.268 287.54H212.546V300.349H225.268V287.54Z" fill="#FFDC9C"/>
<path d="M225.268 274.73H212.546V287.539H225.268V274.73Z" fill="#FFDC9C"/>
<path d="M225.268 261.928H212.546V274.73H225.268V261.928Z" fill="#FFDC9C"/>
<path d="M225.268 249.118H212.546V261.928H225.268V249.118Z" fill="#FFDC9C"/>
<path d="M225.268 236.309H212.546V249.118H225.268V236.309Z" fill="#FFDC9C"/>
<path d="M225.268 223.5H212.546V236.309H225.268V223.5Z" fill="#FFDC9C"/>
<path d="M225.268 210.691H212.546V223.5H225.268V210.691Z" fill="#FFDC9C"/>
<path d="M225.268 197.888H212.546V210.691H225.268V197.888Z" fill="#FFDC9C"/>
<path d="M225.268 159.46H212.546V172.27H225.268V159.46Z" fill="#495059"/>
<path d="M225.268 146.658H212.546V159.461H225.268V146.658Z" fill="#C7CBCE"/>
<path d="M225.268 108.23H212.546V121.039H225.268V108.23Z" fill="#EBC434"/>
<path d="M225.268 95.4211H212.546V108.23H225.268V95.4211Z" fill="#EBC434"/>
<path d="M225.268 82.6184H212.546V95.4211H225.268V82.6184Z" fill="#EBC434"/>
<path d="M212.546 377.197H199.817V390H212.546V377.197Z" fill="#EDA751"/>
<path d="M212.546 364.388H199.817V377.197H212.546V364.388Z" fill="#EDA751"/>
<path d="M212.546 351.579H199.817V364.388H212.546V351.579Z" fill="#FFDC9C"/>
<path d="M212.546 338.77H199.817V351.579H212.546V338.77Z" fill="#FFDC9C"/>
<path d="M212.546 325.967H199.817V338.77H212.546V325.967Z" fill="#FFDC9C"/>
<path d="M212.546 313.158H199.817V325.967H212.546V313.158Z" fill="#FFDC9C"/>
<path d="M212.546 300.349H199.817V313.158H212.546V300.349Z" fill="#FFDC9C"/>
<path d="M212.546 287.54H199.817V300.349H212.546V287.54Z" fill="#495059"/>
<path d="M212.546 274.73H199.817V287.539H212.546V274.73Z" fill="#495059"/>
<path d="M212.546 261.928H199.817V274.73H212.546V261.928Z" fill="#FFDC9C"/>
<path d="M212.546 249.118H199.817V261.928H212.546V249.118Z" fill="#FFDC9C"/>
<path d="M212.546 236.309H199.817V249.118H212.546V236.309Z" fill="#FFDC9C"/>
<path d="M212.546 223.5H199.817V236.309H212.546V223.5Z" fill="#495059"/>
<path d="M212.546 210.691H199.817V223.5H212.546V210.691Z" fill="#FFDC9C"/>
<path d="M212.546 197.888H199.817V210.691H212.546V197.888Z" fill="#EDA751"/>
<path d="M199.817 364.388H187.088V377.197H199.817V364.388Z" fill="#EDA751"/>
<path d="M199.817 351.579H187.088V364.388H199.817V351.579Z" fill="#FFDC9C"/>
<path d="M199.817 338.77H187.088V351.579H199.817V338.77Z" fill="#FFDC9C"/>
<path d="M199.817 325.967H187.088V338.77H199.817V325.967Z" fill="#FFDC9C"/>
<path d="M199.817 313.158H187.088V325.967H199.817V313.158Z" fill="#FFDC9C"/>
<path d="M199.817 300.349H187.088V313.158H199.817V300.349Z" fill="#FF91AB"/>
<path d="M199.817 287.54H187.088V300.349H199.817V287.54Z" fill="#495059"/>
<path d="M199.817 274.73H187.088V287.539H199.817V274.73Z" fill="#DEE2E5"/>
<path d="M199.817 261.928H187.088V274.73H199.817V261.928Z" fill="#FFDC9C"/>
<path d="M199.817 249.118H187.088V261.928H199.817V249.118Z" fill="#FFDC9C"/>
<path d="M199.817 236.309H187.088V249.118H199.817V236.309Z" fill="#495059"/>
<path d="M199.817 223.5H187.088V236.309H199.817V223.5Z" fill="#495059"/>
<path d="M199.817 210.691H187.088V223.5H199.817V210.691Z" fill="#FFDC9C"/>
<path d="M199.817 197.888H187.088V210.691H199.817V197.888Z" fill="#EDA751"/>
<path d="M199.817 108.23H187.088V121.039H199.817V108.23Z" fill="#F5D141"/>
<path d="M199.817 69.8091H187.088V82.6183H199.817V69.8091Z" fill="#F5D141"/>
<path d="M187.088 364.388H174.359V377.197H187.088V364.388Z" fill="#EDA751"/>
<path d="M187.088 351.579H174.359V364.388H187.088V351.579Z" fill="#FFDC9C"/>
<path d="M187.088 338.77H174.359V351.579H187.088V338.77Z" fill="#FFDC9C"/>
<path d="M187.088 325.967H174.359V338.77H187.088V325.967Z" fill="#FFDC9C"/>
<path d="M187.088 313.158H174.359V325.967H187.088V313.158Z" fill="#FF91AB"/>
<path d="M187.088 300.349H174.359V313.158H187.088V300.349Z" fill="#FF91AB"/>
<path d="M187.088 287.54H174.359V300.349H187.088V287.54Z" fill="#FF91AB"/>
<path d="M187.088 274.73H174.359V287.539H187.088V274.73Z" fill="#FFDC9C"/>
<path d="M187.088 261.928H174.359V274.73H187.088V261.928Z" fill="#FFDC9C"/>
<path d="M187.088 249.118H174.359V261.928H187.088V249.118Z" fill="#FFDC9C"/>
<path d="M187.088 236.309H174.359V249.118H187.088V236.309Z" fill="#FFDC9C"/>
<path d="M187.088 223.5H174.359V236.309H187.088V223.5Z" fill="#EDA751"/>
<path d="M187.088 210.691H174.359V223.5H187.088V210.691Z" fill="#EDA751"/>
<path d="M187.088 197.888H174.359V210.691H187.088V197.888Z" fill="#EDA751"/>
<path d="M187.088 121.04H174.359V133.849H187.088V121.04Z" fill="#F5D141"/>
<path d="M187.088 57H174.359V69.8092H187.088V57Z" fill="#F5D141"/>
<path d="M174.36 364.388H161.637V377.197H174.36V364.388Z" fill="#EDA751"/>
<path d="M174.36 351.579H161.637V364.388H174.36V351.579Z" fill="#FFDC9C"/>
<path d="M174.36 338.77H161.637V351.579H174.36V338.77Z" fill="#FFDC9C"/>
<path d="M174.36 325.967H161.637V338.77H174.36V325.967Z" fill="#FFDC9C"/>
<path d="M174.36 313.158H161.637V325.967H174.36V313.158Z" fill="#495059"/>
<path d="M174.36 300.349H161.637V313.158H174.36V300.349Z" fill="#FF91AB"/>
<path d="M174.36 287.54H161.637V300.349H174.36V287.54Z" fill="#495059"/>
<path d="M174.36 274.73H161.637V287.539H174.36V274.73Z" fill="#FFDC9C"/>
<path d="M174.36 261.928H161.637V274.73H174.36V261.928Z" fill="#FFDC9C"/>
<path d="M174.36 249.118H161.637V261.928H174.36V249.118Z" fill="#EDA751"/>
<path d="M174.36 236.309H161.637V249.118H174.36V236.309Z" fill="#EDA751"/>
<path d="M174.36 223.5H161.637V236.309H174.36V223.5Z" fill="#EDA751"/>
<path d="M174.36 210.691H161.637V223.5H174.36V210.691Z" fill="#EDA751"/>
<path d="M174.36 197.888H161.637V210.691H174.36V197.888Z" fill="#EDA751"/>
<path d="M161.637 351.579H148.909V364.388H161.637V351.579Z" fill="#EDA751"/>
<path d="M161.637 338.77H148.909V351.579H161.637V338.77Z" fill="#FFDC9C"/>
<path d="M161.637 325.967H148.909V338.77H161.637V325.967Z" fill="#495059"/>
<path d="M161.637 313.158H148.909V325.967H161.637V313.158Z" fill="#FFDC9C"/>
<path d="M161.637 300.349H148.909V313.158H161.637V300.349Z" fill="#495059"/>
<path d="M161.637 287.54H148.909V300.349H161.637V287.54Z" fill="#FFDC9C"/>
<path d="M161.637 274.73H148.909V287.539H161.637V274.73Z" fill="#495059"/>
<path d="M161.637 261.928H148.909V274.73H161.637V261.928Z" fill="#EDA751"/>
<path d="M161.637 249.118H148.909V261.928H161.637V249.118Z" fill="#EDA751"/>
<path d="M161.637 236.309H148.909V249.118H161.637V236.309Z" fill="#EDA751"/>
<path d="M161.637 223.5H148.909V236.309H161.637V223.5Z" fill="#EDA751"/>
<path d="M161.637 210.691H148.909V223.5H161.637V210.691Z" fill="#EDA751"/>
<path d="M161.637 197.888H148.909V210.691H161.637V197.888Z" fill="#EDA751"/>
<path d="M161.637 185.079H148.909V197.888H161.637V185.079Z" fill="#EDA751"/>
<path d="M148.908 351.579H136.18V364.388H148.908V351.579Z" fill="#EDA751"/>
<path d="M148.908 338.77H136.18V351.579H148.908V338.77Z" fill="#EDA751"/>
<path d="M148.908 325.967H136.18V338.77H148.908V325.967Z" fill="#EDA751"/>
<path d="M148.908 313.158H136.18V325.967H148.908V313.158Z" fill="#EDA751"/>
<path d="M148.908 300.349H136.18V313.158H148.908V300.349Z" fill="#495059"/>
<path d="M148.908 287.54H136.18V300.349H148.908V287.54Z" fill="#EDA751"/>
<path d="M148.908 274.73H136.18V287.539H148.908V274.73Z" fill="#EDA751"/>
<path d="M148.908 261.928H136.18V274.73H148.908V261.928Z" fill="#EDA751"/>
<path d="M148.908 249.118H136.18V261.928H148.908V249.118Z" fill="#EDA751"/>
<path d="M148.908 236.309H136.18V249.118H148.908V236.309Z" fill="#EDA751"/>
<path d="M148.908 223.5H136.18V236.309H148.908V223.5Z" fill="#FF91AB"/>
<path d="M148.908 210.691H136.18V223.5H148.908V210.691Z" fill="#EDA751"/>
<path d="M148.908 197.888H136.18V210.691H148.908V197.888Z" fill="#EDA751"/>
<path d="M148.908 185.079H136.18V197.888H148.908V185.079Z" fill="#EDA751"/>
<path d="M136.18 338.77H123.451V351.579H136.18V338.77Z" fill="#EDA751"/>
<path d="M136.18 325.967H123.451V338.77H136.18V325.967Z" fill="#EDA751"/>
<path d="M136.18 313.158H123.451V325.967H136.18V313.158Z" fill="#EDA751"/>
<path d="M136.18 300.349H123.451V313.158H136.18V300.349Z" fill="#EDA751"/>
<path d="M136.18 287.54H123.451V300.349H136.18V287.54Z" fill="#EDA751"/>
<path d="M136.18 274.73H123.451V287.539H136.18V274.73Z" fill="#EDA751"/>
<path d="M136.18 261.928H123.451V274.73H136.18V261.928Z" fill="#EDA751"/>
<path d="M136.18 249.118H123.451V261.928H136.18V249.118Z" fill="#EDA751"/>
<path d="M136.18 236.309H123.451V249.118H136.18V236.309Z" fill="#FF91AB"/>
<path d="M136.18 223.5H123.451V236.309H136.18V223.5Z" fill="#FF91AB"/>
<path d="M136.18 210.691H123.451V223.5H136.18V210.691Z" fill="#FF91AB"/>
<path d="M136.18 197.888H123.451V210.691H136.18V197.888Z" fill="#EDA751"/>
<path d="M136.18 185.079H123.451V197.888H136.18V185.079Z" fill="#EDA751"/>
<path d="M136.18 172.27H123.451V185.079H136.18V172.27Z" fill="#EDA751"/>
<path d="M123.451 325.967H110.722V338.77H123.451V325.967Z" fill="#EDA751"/>
<path d="M123.451 313.158H110.722V325.967H123.451V313.158Z" fill="#EDA751"/>
<path d="M123.451 300.349H110.722V313.158H123.451V300.349Z" fill="#EDA751"/>
<path d="M123.451 287.54H110.722V300.349H123.451V287.54Z" fill="#EDA751"/>
<path d="M123.451 274.73H110.722V287.539H123.451V274.73Z" fill="#EDA751"/>
<path d="M123.451 261.928H110.722V274.73H123.451V261.928Z" fill="#EDA751"/>
<path d="M123.451 249.118H110.722V261.928H123.451V249.118Z" fill="#FF91AB"/>
<path d="M123.451 236.309H110.722V249.118H123.451V236.309Z" fill="#FF91AB"/>
<path d="M123.451 223.5H110.722V236.309H123.451V223.5Z" fill="#FF91AB"/>
<path d="M123.451 210.691H110.722V223.5H123.451V210.691Z" fill="#FF91AB"/>
<path d="M123.451 197.888H110.722V210.691H123.451V197.888Z" fill="#FF91AB"/>
<path d="M123.451 185.079H110.722V197.888H123.451V185.079Z" fill="#EDA751"/>
<path d="M123.451 172.27H110.722V185.079H123.451V172.27Z" fill="#EDA751"/>
<path d="M110.722 300.349H98V313.158H110.722V300.349Z" fill="#EDA751"/>
<path d="M110.722 287.54H98V300.349H110.722V287.54Z" fill="#EDA751"/>
<path d="M110.722 223.5H98V236.309H110.722V223.5Z" fill="#FF91AB"/>
<path d="M110.722 210.691H98V223.5H110.722V210.691Z" fill="#FF91AB"/>
<path d="M110.722 197.888H98V210.691H110.722V197.888Z" fill="#EDA751"/>
<path d="M110.722 185.079H98V197.888H110.722V185.079Z" fill="#EDA751"/>
</svg>
