<svg width="480" height="480" viewBox="0 0 480 480" fill="none" xmlns="http://www.w3.org/2000/svg">
<circle cx="240" cy="240" r="240" fill="#4C3375"/>
<circle cx="240" cy="240" r="240" fill="#4C3375"/>
<circle cx="240" cy="240" r="240" fill="white"/>
<path d="M380 303.349H367.278V316.158H380V303.349Z" fill="#E2505E"/>
<path d="M380 290.54H367.278V303.349H380V290.54Z" fill="#E2505E"/>
<path d="M380 226.5H367.278V239.309H380V226.5Z" fill="#F4E1E1"/>
<path d="M380 213.691H367.278V226.5H380V213.691Z" fill="#F4E1E1"/>
<path d="M380 200.888H367.278V213.691H380V200.888Z" fill="#AA2639"/>
<path d="M380 188.079H367.278V200.888H380V188.079Z" fill="#AA2639"/>
<path d="M367.278 316.158H354.549V328.967H367.278V316.158Z" fill="#E2505E"/>
<path d="M367.278 303.349H354.549V316.158H367.278V303.349Z" fill="#E2505E"/>
<path d="M367.278 290.54H354.549V303.349H367.278V290.54Z" fill="#E2505E"/>
<path d="M367.278 277.73H354.549V290.539H367.278V277.73Z" fill="#E2505E"/>
<path d="M367.278 264.928H354.549V277.73H367.278V264.928Z" fill="#E2505E"/>
<path d="M367.278 252.118H354.549V264.928H367.278V252.118Z" fill="#F4E1E1"/>
<path d="M367.278 239.309H354.549V252.118H367.278V239.309Z" fill="#F4E1E1"/>
<path d="M367.278 226.5H354.549V239.309H367.278V226.5Z" fill="#F4E1E1"/>
<path d="M367.278 213.691H354.549V226.5H367.278V213.691Z" fill="#F4E1E1"/>
<path d="M367.278 200.888H354.549V213.691H367.278V200.888Z" fill="#F4E1E1"/>
<path d="M367.278 188.079H354.549V200.888H367.278V188.079Z" fill="#AA2639"/>
<path d="M367.278 175.27H354.549V188.079H367.278V175.27Z" fill="#AA2639"/>
<path d="M354.549 341.77H341.82V354.579H354.549V341.77Z" fill="#E2505E"/>
<path d="M354.549 328.967H341.82V341.77H354.549V328.967Z" fill="#E2505E"/>
<path d="M354.549 316.158H341.82V328.967H354.549V316.158Z" fill="#E2505E"/>
<path d="M354.549 303.349H341.82V316.158H354.549V303.349Z" fill="#E2505E"/>
<path d="M354.549 290.54H341.82V303.349H354.549V290.54Z" fill="#E2505E"/>
<path d="M354.549 277.73H341.82V290.539H354.549V277.73Z" fill="#E2505E"/>
<path d="M354.549 264.928H341.82V277.73H354.549V264.928Z" fill="#E2505E"/>
<path d="M354.549 252.118H341.82V264.928H354.549V252.118Z" fill="#E2505E"/>
<path d="M354.549 239.309H341.82V252.118H354.549V239.309Z" fill="#F4E1E1"/>
<path d="M354.549 226.5H341.82V239.309H354.549V226.5Z" fill="#F4E1E1"/>
<path d="M354.549 213.691H341.82V226.5H354.549V213.691Z" fill="#F4E1E1"/>
<path d="M354.549 200.888H341.82V213.691H354.549V200.888Z" fill="#AA2639"/>
<path d="M354.549 188.079H341.82V200.888H354.549V188.079Z" fill="#AA2639"/>
<path d="M354.549 175.27H341.82V188.079H354.549V175.27Z" fill="#AA2639"/>
<path d="M341.82 354.579H329.091V367.388H341.82V354.579Z" fill="#E2505E"/>
<path d="M341.82 341.77H329.091V354.579H341.82V341.77Z" fill="#E2505E"/>
<path d="M341.82 328.967H329.091V341.77H341.82V328.967Z" fill="#E2505E"/>
<path d="M341.82 316.158H329.091V328.967H341.82V316.158Z" fill="#E2505E"/>
<path d="M341.82 303.349H329.091V316.158H341.82V303.349Z" fill="#23282D"/>
<path d="M341.82 290.54H329.091V303.349H341.82V290.54Z" fill="#E2505E"/>
<path d="M341.82 277.73H329.091V290.539H341.82V277.73Z" fill="#E2505E"/>
<path d="M341.82 264.928H329.091V277.73H341.82V264.928Z" fill="#E2505E"/>
<path d="M341.82 252.118H329.091V264.928H341.82V252.118Z" fill="#E2505E"/>
<path d="M341.82 239.309H329.091V252.118H341.82V239.309Z" fill="#E2505E"/>
<path d="M341.82 226.5H329.091V239.309H341.82V226.5Z" fill="#F4E1E1"/>
<path d="M341.82 213.691H329.091V226.5H341.82V213.691Z" fill="#AA2639"/>
<path d="M341.82 200.888H329.091V213.691H341.82V200.888Z" fill="#AA2639"/>
<path d="M341.82 188.079H329.091V200.888H341.82V188.079Z" fill="#AA2639"/>
<path d="M329.091 354.579H316.363V367.388H329.091V354.579Z" fill="#E2505E"/>
<path d="M329.091 341.77H316.363V354.579H329.091V341.77Z" fill="#E2505E"/>
<path d="M329.091 328.967H316.363V341.77H329.091V328.967Z" fill="#23282D"/>
<path d="M329.091 316.158H316.363V328.967H329.091V316.158Z" fill="#E2505E"/>
<path d="M329.091 303.349H316.363V316.158H329.091V303.349Z" fill="#23282D"/>
<path d="M329.091 290.54H316.363V303.349H329.091V290.54Z" fill="#E2505E"/>
<path d="M329.091 277.73H316.363V290.539H329.091V277.73Z" fill="#23282D"/>
<path d="M329.091 264.928H316.363V277.73H329.091V264.928Z" fill="#E2505E"/>
<path d="M329.091 252.118H316.363V264.928H329.091V252.118Z" fill="#E2505E"/>
<path d="M329.091 239.309H316.363V252.118H329.091V239.309Z" fill="#E2505E"/>
<path d="M329.091 226.5H316.363V239.309H329.091V226.5Z" fill="#E2505E"/>
<path d="M329.091 213.691H316.363V226.5H329.091V213.691Z" fill="#AA2639"/>
<path d="M329.091 200.888H316.363V213.691H329.091V200.888Z" fill="#AA2639"/>
<path d="M329.091 188.079H316.363V200.888H329.091V188.079Z" fill="#AA2639"/>
<path d="M316.363 367.388H303.641V380.197H316.363V367.388Z" fill="#E2505E"/>
<path d="M316.363 354.579H303.641V367.388H316.363V354.579Z" fill="#E2505E"/>
<path d="M316.363 341.77H303.641V354.579H316.363V341.77Z" fill="#E2505E"/>
<path d="M316.363 328.967H303.641V341.77H316.363V328.967Z" fill="#E2505E"/>
<path d="M316.363 316.158H303.641V328.967H316.363V316.158Z" fill="#23282D"/>
<path d="M316.363 303.349H303.641V316.158H316.363V303.349Z" fill="#F4E1E1"/>
<path d="M316.363 290.54H303.641V303.349H316.363V290.54Z" fill="#23282D"/>
<path d="M316.363 277.73H303.641V290.539H316.363V277.73Z" fill="#E2505E"/>
<path d="M316.363 264.928H303.641V277.73H316.363V264.928Z" fill="#E2505E"/>
<path d="M316.363 252.118H303.641V264.928H316.363V252.118Z" fill="#E2505E"/>
<path d="M316.363 239.309H303.641V252.118H316.363V239.309Z" fill="#E2505E"/>
<path d="M316.363 226.5H303.641V239.309H316.363V226.5Z" fill="#E2505E"/>
<path d="M316.363 213.691H303.641V226.5H316.363V213.691Z" fill="#E2505E"/>
<path d="M316.363 200.888H303.641V213.691H316.363V200.888Z" fill="#AA2639"/>
<path d="M303.641 367.388H290.912V380.197H303.641V367.388Z" fill="#E2505E"/>
<path d="M303.641 354.579H290.912V367.388H303.641V354.579Z" fill="#E2505E"/>
<path d="M303.641 341.77H290.912V354.579H303.641V341.77Z" fill="#E2505E"/>
<path d="M303.641 328.967H290.912V341.77H303.641V328.967Z" fill="#E2505E"/>
<path d="M303.641 316.158H290.912V328.967H303.641V316.158Z" fill="#F4E1E1"/>
<path d="M303.641 303.349H290.912V316.158H303.641V303.349Z" fill="#F4E1E1"/>
<path d="M303.641 290.54H290.912V303.349H303.641V290.54Z" fill="#F4E1E1"/>
<path d="M303.641 277.73H290.912V290.539H303.641V277.73Z" fill="#23282D"/>
<path d="M303.641 264.928H290.912V277.73H303.641V264.928Z" fill="#E2505E"/>
<path d="M303.641 252.118H290.912V264.928H303.641V252.118Z" fill="#E2505E"/>
<path d="M303.641 239.309H290.912V252.118H303.641V239.309Z" fill="#E2505E"/>
<path d="M303.641 226.5H290.912V239.309H303.641V226.5Z" fill="#E2505E"/>
<path d="M303.641 213.691H290.912V226.5H303.641V213.691Z" fill="#E2505E"/>
<path d="M303.641 200.888H290.912V213.691H303.641V200.888Z" fill="#AA2639"/>
<path d="M303.641 124.04H290.912V136.849H303.641V124.04Z" fill="#F48F42"/>
<path d="M303.641 60H290.912V72.8092H303.641V60Z" fill="#F48F42"/>
<path d="M290.912 367.388H278.183V380.197H290.912V367.388Z" fill="#E2505E"/>
<path d="M290.912 354.579H278.183V367.388H290.912V354.579Z" fill="#E2505E"/>
<path d="M290.912 341.77H278.183V354.579H290.912V341.77Z" fill="#E2505E"/>
<path d="M290.912 328.967H278.183V341.77H290.912V328.967Z" fill="#E2505E"/>
<path d="M290.912 316.158H278.183V328.967H290.912V316.158Z" fill="#E2505E"/>
<path d="M290.912 303.349H278.183V316.158H290.912V303.349Z" fill="#F4E1E1"/>
<path d="M290.912 290.54H278.183V303.349H290.912V290.54Z" fill="#23282D"/>
<path d="M290.912 277.73H278.183V290.539H290.912V277.73Z" fill="#23282D"/>
<path d="M290.912 264.928H278.183V277.73H290.912V264.928Z" fill="#DEE2E5"/>
<path d="M290.912 252.118H278.183V264.928H290.912V252.118Z" fill="#E2505E"/>
<path d="M290.912 239.309H278.183V252.118H290.912V239.309Z" fill="#23282D"/>
<path d="M290.912 226.5H278.183V239.309H290.912V226.5Z" fill="#23282D"/>
<path d="M290.912 213.691H278.183V226.5H290.912V213.691Z" fill="#E2505E"/>
<path d="M290.912 200.888H278.183V213.691H290.912V200.888Z" fill="#E2505E"/>
<path d="M290.912 111.23H278.183V124.039H290.912V111.23Z" fill="#F48F42"/>
<path d="M290.912 72.8091H278.183V85.6183H290.912V72.8091Z" fill="#F48F42"/>
<path d="M278.183 380.197H265.454V393H278.183V380.197Z" fill="#E2505E"/>
<path d="M278.183 367.388H265.454V380.197H278.183V367.388Z" fill="#E2505E"/>
<path d="M278.183 354.579H265.454V367.388H278.183V354.579Z" fill="#E2505E"/>
<path d="M278.183 341.77H265.454V354.579H278.183V341.77Z" fill="#E2505E"/>
<path d="M278.183 328.967H265.454V341.77H278.183V328.967Z" fill="#E2505E"/>
<path d="M278.183 316.158H265.454V328.967H278.183V316.158Z" fill="#E2505E"/>
<path d="M278.183 303.349H265.454V316.158H278.183V303.349Z" fill="#E2505E"/>
<path d="M278.183 290.54H265.454V303.349H278.183V290.54Z" fill="#23282D"/>
<path d="M278.183 277.73H265.454V290.539H278.183V277.73Z" fill="#23282D"/>
<path d="M278.183 264.928H265.454V277.73H278.183V264.928Z" fill="#DEE2E5"/>
<path d="M278.183 252.118H265.454V264.928H278.183V252.118Z" fill="#E2505E"/>
<path d="M278.183 239.309H265.454V252.118H278.183V239.309Z" fill="#E2505E"/>
<path d="M278.183 226.5H265.454V239.309H278.183V226.5Z" fill="#23282D"/>
<path d="M278.183 213.691H265.454V226.5H278.183V213.691Z" fill="#E2505E"/>
<path d="M278.183 200.888H265.454V213.691H278.183V200.888Z" fill="#E2505E"/>
<path d="M265.454 380.197H252.732V393H265.454V380.197Z" fill="#E2505E"/>
<path d="M265.454 367.388H252.732V380.197H265.454V367.388Z" fill="#E2505E"/>
<path d="M265.454 354.579H252.732V367.388H265.454V354.579Z" fill="#E2505E"/>
<path d="M265.454 341.77H252.732V354.579H265.454V341.77Z" fill="#E2505E"/>
<path d="M265.454 328.967H252.732V341.77H265.454V328.967Z" fill="#23282D"/>
<path d="M265.454 316.158H252.732V328.967H265.454V316.158Z" fill="#E2505E"/>
<path d="M265.454 303.349H252.732V316.158H265.454V303.349Z" fill="#E2505E"/>
<path d="M265.454 290.54H252.732V303.349H265.454V290.54Z" fill="#E2505E"/>
<path d="M265.454 277.73H252.732V290.539H265.454V277.73Z" fill="#23282D"/>
<path d="M265.454 264.928H252.732V277.73H265.454V264.928Z" fill="#E2505E"/>
<path d="M265.454 252.118H252.732V264.928H265.454V252.118Z" fill="#E2505E"/>
<path d="M265.454 239.309H252.732V252.118H265.454V239.309Z" fill="#E2505E"/>
<path d="M265.454 226.5H252.732V239.309H265.454V226.5Z" fill="#E2505E"/>
<path d="M265.454 213.691H252.732V226.5H265.454V213.691Z" fill="#E2505E"/>
<path d="M265.454 200.888H252.732V213.691H265.454V200.888Z" fill="#E2505E"/>
<path d="M265.454 162.46H252.732V175.27H265.454V162.46Z" fill="#23282D"/>
<path d="M265.454 149.658H252.732V162.461H265.454V149.658Z" fill="#7E7E8C"/>
<path d="M265.454 111.23H252.732V124.039H265.454V111.23Z" fill="#F48F42"/>
<path d="M265.454 98.4211H252.732V111.23H265.454V98.4211Z" fill="#F48F42"/>
<path d="M265.454 85.6184H252.732V98.4211H265.454V85.6184Z" fill="#F48F42"/>
<path d="M252.732 380.197H240.003V393H252.732V380.197Z" fill="#E2505E"/>
<path d="M252.732 367.388H240.003V380.197H252.732V367.388Z" fill="#E2505E"/>
<path d="M252.732 354.579H240.003V367.388H252.732V354.579Z" fill="#E2505E"/>
<path d="M252.732 341.77H240.003V354.579H252.732V341.77Z" fill="#23282D"/>
<path d="M252.732 328.967H240.003V341.77H252.732V328.967Z" fill="#23282D"/>
<path d="M252.732 316.158H240.003V328.967H252.732V316.158Z" fill="#E2505E"/>
<path d="M252.732 303.349H240.003V316.158H252.732V303.349Z" fill="#F4E1E1"/>
<path d="M252.732 290.54H240.003V303.349H252.732V290.54Z" fill="#F4E1E1"/>
<path d="M252.732 277.73H240.003V290.539H252.732V277.73Z" fill="#E2505E"/>
<path d="M252.732 264.928H240.003V277.73H252.732V264.928Z" fill="#E2505E"/>
<path d="M252.732 252.118H240.003V264.928H252.732V252.118Z" fill="#E2505E"/>
<path d="M252.732 239.309H240.003V252.118H252.732V239.309Z" fill="#E2505E"/>
<path d="M252.732 226.5H240.003V239.309H252.732V226.5Z" fill="#E2505E"/>
<path d="M252.732 213.691H240.003V226.5H252.732V213.691Z" fill="#E2505E"/>
<path d="M252.732 200.888H240.003V213.691H252.732V200.888Z" fill="#E2505E"/>
<path d="M252.732 175.27H240.003V188.079H252.732V175.27Z" fill="#23282D"/>
<path d="M252.732 162.46H240.003V175.27H252.732V162.46Z" fill="#23282D"/>
<path d="M252.732 149.658H240.003V162.461H252.732V149.658Z" fill="#7E7E8C"/>
<path d="M252.732 136.849H240.003V149.658H252.732V136.849Z" fill="#F48F42"/>
<path d="M252.732 124.04H240.003V136.849H252.732V124.04Z" fill="#F48F42"/>
<path d="M252.732 111.23H240.003V124.039H252.732V111.23Z" fill="#F48F42"/>
<path d="M252.732 98.4211H240.003V111.23H252.732V98.4211Z" fill="#F48F42"/>
<path d="M252.732 85.6184H240.003V98.4211H252.732V85.6184Z" fill="#F48F42"/>
<path d="M252.732 72.8091H240.003V85.6183H252.732V72.8091Z" fill="#F48F42"/>
<path d="M240.003 380.197H227.275V393H240.003V380.197Z" fill="#E2505E"/>
<path d="M240.003 367.388H227.275V380.197H240.003V367.388Z" fill="#E2505E"/>
<path d="M240.003 354.579H227.275V367.388H240.003V354.579Z" fill="#E2505E"/>
<path d="M240.003 341.77H227.275V354.579H240.003V341.77Z" fill="#23282D"/>
<path d="M240.003 328.967H227.275V341.77H240.003V328.967Z" fill="#23282D"/>
<path d="M240.003 316.158H227.275V328.967H240.003V316.158Z" fill="#E2505E"/>
<path d="M240.003 303.349H227.275V316.158H240.003V303.349Z" fill="#F4E1E1"/>
<path d="M240.003 290.54H227.275V303.349H240.003V290.54Z" fill="#F4E1E1"/>
<path d="M240.003 277.73H227.275V290.539H240.003V277.73Z" fill="#E2505E"/>
<path d="M240.003 264.928H227.275V277.73H240.003V264.928Z" fill="#E2505E"/>
<path d="M240.003 252.118H227.275V264.928H240.003V252.118Z" fill="#E2505E"/>
<path d="M240.003 239.309H227.275V252.118H240.003V239.309Z" fill="#E2505E"/>
<path d="M240.003 226.5H227.275V239.309H240.003V226.5Z" fill="#E2505E"/>
<path d="M240.003 213.691H227.275V226.5H240.003V213.691Z" fill="#E2505E"/>
<path d="M240.003 200.888H227.275V213.691H240.003V200.888Z" fill="#E2505E"/>
<path d="M240.003 175.27H227.275V188.079H240.003V175.27Z" fill="#23282D"/>
<path d="M240.003 162.46H227.275V175.27H240.003V162.46Z" fill="#23282D"/>
<path d="M240.003 149.658H227.275V162.461H240.003V149.658Z" fill="#656D72"/>
<path d="M240.003 136.849H227.275V149.658H240.003V136.849Z" fill="#F26E14"/>
<path d="M240.003 124.04H227.275V136.849H240.003V124.04Z" fill="#F26E14"/>
<path d="M240.003 111.23H227.275V124.039H240.003V111.23Z" fill="#F26E14"/>
<path d="M240.003 98.4211H227.275V111.23H240.003V98.4211Z" fill="#F26E14"/>
<path d="M240.003 85.6184H227.275V98.4211H240.003V85.6184Z" fill="#F26E14"/>
<path d="M240.003 72.8091H227.275V85.6183H240.003V72.8091Z" fill="#F26E14"/>
<path d="M227.274 380.197H214.546V393H227.274V380.197Z" fill="#AA2639"/>
<path d="M227.274 367.388H214.546V380.197H227.274V367.388Z" fill="#E2505E"/>
<path d="M227.274 354.579H214.546V367.388H227.274V354.579Z" fill="#E2505E"/>
<path d="M227.274 341.77H214.546V354.579H227.274V341.77Z" fill="#E2505E"/>
<path d="M227.274 328.967H214.546V341.77H227.274V328.967Z" fill="#23282D"/>
<path d="M227.274 316.158H214.546V328.967H227.274V316.158Z" fill="#E2505E"/>
<path d="M227.274 303.349H214.546V316.158H227.274V303.349Z" fill="#E2505E"/>
<path d="M227.274 290.54H214.546V303.349H227.274V290.54Z" fill="#E2505E"/>
<path d="M227.274 277.73H214.546V290.539H227.274V277.73Z" fill="#23282D"/>
<path d="M227.274 264.928H214.546V277.73H227.274V264.928Z" fill="#E2505E"/>
<path d="M227.274 252.118H214.546V264.928H227.274V252.118Z" fill="#E2505E"/>
<path d="M227.274 239.309H214.546V252.118H227.274V239.309Z" fill="#E2505E"/>
<path d="M227.274 226.5H214.546V239.309H227.274V226.5Z" fill="#E2505E"/>
<path d="M227.274 213.691H214.546V226.5H227.274V213.691Z" fill="#E2505E"/>
<path d="M227.274 200.888H214.546V213.691H227.274V200.888Z" fill="#E2505E"/>
<path d="M227.274 162.46H214.546V175.27H227.274V162.46Z" fill="#23282D"/>
<path d="M227.274 149.658H214.546V162.461H227.274V149.658Z" fill="#656D72"/>
<path d="M227.274 111.23H214.546V124.039H227.274V111.23Z" fill="#F26E14"/>
<path d="M227.274 98.4211H214.546V111.23H227.274V98.4211Z" fill="#F26E14"/>
<path d="M227.274 85.6184H214.546V98.4211H227.274V85.6184Z" fill="#F26E14"/>
<path d="M214.546 380.197H201.817V393H214.546V380.197Z" fill="#AA2639"/>
<path d="M214.546 367.388H201.817V380.197H214.546V367.388Z" fill="#AA2639"/>
<path d="M214.546 354.579H201.817V367.388H214.546V354.579Z" fill="#E2505E"/>
<path d="M214.546 341.77H201.817V354.579H214.546V341.77Z" fill="#E2505E"/>
<path d="M214.546 328.967H201.817V341.77H214.546V328.967Z" fill="#E2505E"/>
<path d="M214.546 316.158H201.817V328.967H214.546V316.158Z" fill="#E2505E"/>
<path d="M214.546 303.349H201.817V316.158H214.546V303.349Z" fill="#E2505E"/>
<path d="M214.546 290.54H201.817V303.349H214.546V290.54Z" fill="#23282D"/>
<path d="M214.546 277.73H201.817V290.539H214.546V277.73Z" fill="#23282D"/>
<path d="M214.546 264.928H201.817V277.73H214.546V264.928Z" fill="#DEE2E5"/>
<path d="M214.546 252.118H201.817V264.928H214.546V252.118Z" fill="#E2505E"/>
<path d="M214.546 239.309H201.817V252.118H214.546V239.309Z" fill="#E2505E"/>
<path d="M214.546 226.5H201.817V239.309H214.546V226.5Z" fill="#23282D"/>
<path d="M214.546 213.691H201.817V226.5H214.546V213.691Z" fill="#E2505E"/>
<path d="M214.546 200.888H201.817V213.691H214.546V200.888Z" fill="#AA2639"/>
<path d="M201.817 367.388H189.095V380.197H201.817V367.388Z" fill="#AA2639"/>
<path d="M201.817 354.579H189.095V367.388H201.817V354.579Z" fill="#E2505E"/>
<path d="M201.817 341.77H189.095V354.579H201.817V341.77Z" fill="#E2505E"/>
<path d="M201.817 328.967H189.095V341.77H201.817V328.967Z" fill="#E2505E"/>
<path d="M201.817 316.158H189.095V328.967H201.817V316.158Z" fill="#E2505E"/>
<path d="M201.817 303.349H189.095V316.158H201.817V303.349Z" fill="#F4E1E1"/>
<path d="M201.817 290.54H189.095V303.349H201.817V290.54Z" fill="#23282D"/>
<path d="M201.817 277.73H189.095V290.539H201.817V277.73Z" fill="#23282D"/>
<path d="M201.817 264.928H189.095V277.73H201.817V264.928Z" fill="#DEE2E5"/>
<path d="M201.817 252.118H189.095V264.928H201.817V252.118Z" fill="#E2505E"/>
<path d="M201.817 239.309H189.095V252.118H201.817V239.309Z" fill="#23282D"/>
<path d="M201.817 226.5H189.095V239.309H201.817V226.5Z" fill="#23282D"/>
<path d="M201.817 213.691H189.095V226.5H201.817V213.691Z" fill="#E2505E"/>
<path d="M201.817 200.888H189.095V213.691H201.817V200.888Z" fill="#AA2639"/>
<path d="M201.817 111.23H189.095V124.039H201.817V111.23Z" fill="#F48F42"/>
<path d="M201.817 72.8091H189.095V85.6183H201.817V72.8091Z" fill="#F48F42"/>
<path d="M189.095 367.388H176.366V380.197H189.095V367.388Z" fill="#AA2639"/>
<path d="M189.095 354.579H176.366V367.388H189.095V354.579Z" fill="#E2505E"/>
<path d="M189.095 341.77H176.366V354.579H189.095V341.77Z" fill="#E2505E"/>
<path d="M189.095 328.967H176.366V341.77H189.095V328.967Z" fill="#E2505E"/>
<path d="M189.095 316.158H176.366V328.967H189.095V316.158Z" fill="#F4E1E1"/>
<path d="M189.095 303.349H176.366V316.158H189.095V303.349Z" fill="#F4E1E1"/>
<path d="M189.095 290.54H176.366V303.349H189.095V290.54Z" fill="#F4E1E1"/>
<path d="M189.095 277.73H176.366V290.539H189.095V277.73Z" fill="#23282D"/>
<path d="M189.095 264.928H176.366V277.73H189.095V264.928Z" fill="#E2505E"/>
<path d="M189.095 252.118H176.366V264.928H189.095V252.118Z" fill="#E2505E"/>
<path d="M189.095 239.309H176.366V252.118H189.095V239.309Z" fill="#E2505E"/>
<path d="M189.095 226.5H176.366V239.309H189.095V226.5Z" fill="#AA2639"/>
<path d="M189.095 213.691H176.366V226.5H189.095V213.691Z" fill="#AA2639"/>
<path d="M189.095 200.888H176.366V213.691H189.095V200.888Z" fill="#AA2639"/>
<path d="M189.095 124.04H176.366V136.849H189.095V124.04Z" fill="#F48F42"/>
<path d="M189.095 60H176.366V72.8092H189.095V60Z" fill="#F48F42"/>
<path d="M176.366 367.388H163.637V380.197H176.366V367.388Z" fill="#AA2639"/>
<path d="M176.366 354.579H163.637V367.388H176.366V354.579Z" fill="#E2505E"/>
<path d="M176.366 341.77H163.637V354.579H176.366V341.77Z" fill="#E2505E"/>
<path d="M176.366 328.967H163.637V341.77H176.366V328.967Z" fill="#E2505E"/>
<path d="M176.366 316.158H163.637V328.967H176.366V316.158Z" fill="#23282D"/>
<path d="M176.366 303.349H163.637V316.158H176.366V303.349Z" fill="#F4E1E1"/>
<path d="M176.366 290.54H163.637V303.349H176.366V290.54Z" fill="#23282D"/>
<path d="M176.366 277.73H163.637V290.539H176.366V277.73Z" fill="#E2505E"/>
<path d="M176.366 264.928H163.637V277.73H176.366V264.928Z" fill="#E2505E"/>
<path d="M176.366 252.118H163.637V264.928H176.366V252.118Z" fill="#AA2639"/>
<path d="M176.366 239.309H163.637V252.118H176.366V239.309Z" fill="#AA2639"/>
<path d="M176.366 226.5H163.637V239.309H176.366V226.5Z" fill="#AA2639"/>
<path d="M176.366 213.691H163.637V226.5H176.366V213.691Z" fill="#AA2639"/>
<path d="M176.366 200.888H163.637V213.691H176.366V200.888Z" fill="#AA2639"/>
<path d="M163.637 354.579H150.909V367.388H163.637V354.579Z" fill="#AA2639"/>
<path d="M163.637 341.77H150.909V354.579H163.637V341.77Z" fill="#E2505E"/>
<path d="M163.637 328.967H150.909V341.77H163.637V328.967Z" fill="#23282D"/>
<path d="M163.637 316.158H150.909V328.967H163.637V316.158Z" fill="#E2505E"/>
<path d="M163.637 303.349H150.909V316.158H163.637V303.349Z" fill="#23282D"/>
<path d="M163.637 290.54H150.909V303.349H163.637V290.54Z" fill="#E2505E"/>
<path d="M163.637 277.73H150.909V290.539H163.637V277.73Z" fill="#23282D"/>
<path d="M163.637 264.928H150.909V277.73H163.637V264.928Z" fill="#AA2639"/>
<path d="M163.637 252.118H150.909V264.928H163.637V252.118Z" fill="#AA2639"/>
<path d="M163.637 239.309H150.909V252.118H163.637V239.309Z" fill="#AA2639"/>
<path d="M163.637 226.5H150.909V239.309H163.637V226.5Z" fill="#AA2639"/>
<path d="M163.637 213.691H150.909V226.5H163.637V213.691Z" fill="#AA2639"/>
<path d="M163.637 200.888H150.909V213.691H163.637V200.888Z" fill="#AA2639"/>
<path d="M163.637 188.079H150.909V200.888H163.637V188.079Z" fill="#AA2639"/>
<path d="M150.908 354.579H138.18V367.388H150.908V354.579Z" fill="#AA2639"/>
<path d="M150.908 341.77H138.18V354.579H150.908V341.77Z" fill="#AA2639"/>
<path d="M150.908 328.967H138.18V341.77H150.908V328.967Z" fill="#AA2639"/>
<path d="M150.908 316.158H138.18V328.967H150.908V316.158Z" fill="#AA2639"/>
<path d="M150.908 303.349H138.18V316.158H150.908V303.349Z" fill="#23282D"/>
<path d="M150.908 290.54H138.18V303.349H150.908V290.54Z" fill="#AA2639"/>
<path d="M150.908 277.73H138.18V290.539H150.908V277.73Z" fill="#AA2639"/>
<path d="M150.908 264.928H138.18V277.73H150.908V264.928Z" fill="#AA2639"/>
<path d="M150.908 252.118H138.18V264.928H150.908V252.118Z" fill="#AA2639"/>
<path d="M150.908 239.309H138.18V252.118H150.908V239.309Z" fill="#AA2639"/>
<path d="M150.908 226.5H138.18V239.309H150.908V226.5Z" fill="#F4E1E1"/>
<path d="M150.908 213.691H138.18V226.5H150.908V213.691Z" fill="#AA2639"/>
<path d="M150.908 200.888H138.18V213.691H150.908V200.888Z" fill="#AA2639"/>
<path d="M150.908 188.079H138.18V200.888H150.908V188.079Z" fill="#AA2639"/>
<path d="M138.18 341.77H125.457V354.579H138.18V341.77Z" fill="#AA2639"/>
<path d="M138.18 328.967H125.457V341.77H138.18V328.967Z" fill="#AA2639"/>
<path d="M138.18 316.158H125.457V328.967H138.18V316.158Z" fill="#AA2639"/>
<path d="M138.18 303.349H125.457V316.158H138.18V303.349Z" fill="#AA2639"/>
<path d="M138.18 290.54H125.457V303.349H138.18V290.54Z" fill="#AA2639"/>
<path d="M138.18 277.73H125.457V290.539H138.18V277.73Z" fill="#AA2639"/>
<path d="M138.18 264.928H125.457V277.73H138.18V264.928Z" fill="#AA2639"/>
<path d="M138.18 252.118H125.457V264.928H138.18V252.118Z" fill="#AA2639"/>
<path d="M138.18 239.309H125.457V252.118H138.18V239.309Z" fill="#F4E1E1"/>
<path d="M138.18 226.5H125.457V239.309H138.18V226.5Z" fill="#F4E1E1"/>
<path d="M138.18 213.691H125.457V226.5H138.18V213.691Z" fill="#F4E1E1"/>
<path d="M138.18 200.888H125.457V213.691H138.18V200.888Z" fill="#AA2639"/>
<path d="M138.18 188.079H125.457V200.888H138.18V188.079Z" fill="#AA2639"/>
<path d="M138.18 175.27H125.457V188.079H138.18V175.27Z" fill="#AA2639"/>
<path d="M125.458 328.967H112.729V341.77H125.458V328.967Z" fill="#AA2639"/>
<path d="M125.458 316.158H112.729V328.967H125.458V316.158Z" fill="#AA2639"/>
<path d="M125.458 303.349H112.729V316.158H125.458V303.349Z" fill="#AA2639"/>
<path d="M125.458 290.54H112.729V303.349H125.458V290.54Z" fill="#AA2639"/>
<path d="M125.458 277.73H112.729V290.539H125.458V277.73Z" fill="#AA2639"/>
<path d="M125.458 264.928H112.729V277.73H125.458V264.928Z" fill="#AA2639"/>
<path d="M125.458 252.118H112.729V264.928H125.458V252.118Z" fill="#F4E1E1"/>
<path d="M125.458 239.309H112.729V252.118H125.458V239.309Z" fill="#F4E1E1"/>
<path d="M125.458 226.5H112.729V239.309H125.458V226.5Z" fill="#F4E1E1"/>
<path d="M125.458 213.691H112.729V226.5H125.458V213.691Z" fill="#F4E1E1"/>
<path d="M125.458 200.888H112.729V213.691H125.458V200.888Z" fill="#F4E1E1"/>
<path d="M125.458 188.079H112.729V200.888H125.458V188.079Z" fill="#AA2639"/>
<path d="M125.458 175.27H112.729V188.079H125.458V175.27Z" fill="#AA2639"/>
<path d="M112.729 303.349H100V316.158H112.729V303.349Z" fill="#AA2639"/>
<path d="M112.729 290.54H100V303.349H112.729V290.54Z" fill="#AA2639"/>
<path d="M112.729 226.5H100V239.309H112.729V226.5Z" fill="#F4E1E1"/>
<path d="M112.729 213.691H100V226.5H112.729V213.691Z" fill="#F4E1E1"/>
<path d="M112.729 200.888H100V213.691H112.729V200.888Z" fill="#AA2639"/>
<path d="M112.729 188.079H100V200.888H112.729V188.079Z" fill="#AA2639"/>
</svg>
