<svg width="190" height="190" viewBox="0 0 190 190" fill="none" xmlns="http://www.w3.org/2000/svg">
<path d="M190 118.745H166.249V142.497H190V118.745Z" fill="#23282D"/>
<path d="M190 95.0061H166.249V118.745H190V95.0061Z" fill="#23282D"/>
<path d="M190 71.2545H166.249V95.006H190V71.2545Z" fill="#23282D"/>
<path d="M190 47.5031H166.249V71.2546H190V47.5031Z" fill="#23282D"/>
<path d="M166.248 142.497H142.497V166.248H166.248V142.497Z" fill="#23282D"/>
<path d="M166.248 118.745H142.497V142.497H166.248V118.745Z" fill="white"/>
<path d="M166.248 95.0061H142.497V118.745H166.248V95.0061Z" fill="white"/>
<path d="M166.248 71.2545H142.497V95.006H166.248V71.2545Z" fill="white"/>
<path d="M166.248 47.5031H142.497V71.2546H166.248V47.5031Z" fill="white"/>
<path d="M166.248 23.7515H142.497V47.503H166.248V23.7515Z" fill="#23282D"/>
<path d="M142.497 166.249H118.758V190H142.497V166.249Z" fill="#23282D"/>
<path d="M142.497 142.497H118.758V166.248H142.497V142.497Z" fill="white"/>
<path d="M142.497 118.745H118.758V142.497H142.497V118.745Z" fill="white"/>
<path d="M142.497 95.0061H118.758V118.745H142.497V95.0061Z" fill="white"/>
<path d="M142.497 71.2545H118.758V95.006H142.497V71.2545Z" fill="white"/>
<path d="M142.497 47.5031H118.758V71.2546H142.497V47.5031Z" fill="white"/>
<path d="M142.497 23.7515H118.758V47.503H142.497V23.7515Z" fill="white"/>
<path d="M142.497 0H118.758V23.7515H142.497V0Z" fill="#23282D"/>
<path d="M118.758 166.249H95.0061V190H118.758V166.249Z" fill="#23282D"/>
<path d="M118.758 142.497H95.0061V166.248H118.758V142.497Z" fill="white"/>
<path d="M118.758 118.745H95.0061V142.497H118.758V118.745Z" fill="white"/>
<path d="M118.758 95.0061H95.0061V118.745H118.758V95.0061Z" fill="white"/>
<path d="M118.758 71.2545H95.0061V95.006H118.758V71.2545Z" fill="white"/>
<path d="M118.758 47.5031H95.0061V71.2546H118.758V47.5031Z" fill="white"/>
<path d="M118.758 23.7515H95.0061V47.503H118.758V23.7515Z" fill="white"/>
<path d="M118.758 0H95.0061V23.7515H118.758V0Z" fill="#23282D"/>
<path d="M95.006 166.249H71.2545V190H95.006V166.249Z" fill="#23282D"/>
<path d="M95.006 142.497H71.2545V166.248H95.006V142.497Z" fill="white"/>
<path d="M95.006 118.745H71.2545V142.497H95.006V118.745Z" fill="white"/>
<path d="M95.006 95.0061H71.2545V118.745H95.006V95.0061Z" fill="white"/>
<path d="M95.006 71.2545H71.2545V95.006H95.006V71.2545Z" fill="white"/>
<path d="M95.006 47.5031H71.2545V71.2546H95.006V47.5031Z" fill="white"/>
<path d="M95.006 23.7515H71.2545V47.503H95.006V23.7515Z" fill="white"/>
<path d="M95.006 0H71.2545V23.7515H95.006V0Z" fill="#23282D"/>
<path d="M71.2546 166.249H47.5031V190H71.2546V166.249Z" fill="#23282D"/>
<path d="M71.2546 142.497H47.5031V166.248H71.2546V142.497Z" fill="white"/>
<path d="M71.2546 118.745H47.5031V142.497H71.2546V118.745Z" fill="white"/>
<path d="M71.2546 95.0061H47.5031V118.745H71.2546V95.0061Z" fill="white"/>
<path d="M71.2546 71.2545H47.5031V95.006H71.2546V71.2545Z" fill="white"/>
<path d="M71.2546 47.5031H47.5031V71.2546H71.2546V47.5031Z" fill="white"/>
<path d="M71.2546 23.7515H47.5031V47.503H71.2546V23.7515Z" fill="white"/>
<path d="M71.2546 0H47.5031V23.7515H71.2546V0Z" fill="#23282D"/>
<path d="M47.503 142.497H23.7515V166.248H47.503V142.497Z" fill="#23282D"/>
<path d="M47.503 118.745H23.7515V142.497H47.503V118.745Z" fill="white"/>
<path d="M47.503 95.0061H23.7515V118.745H47.503V95.0061Z" fill="white"/>
<path d="M47.503 71.2545H23.7515V95.006H47.503V71.2545Z" fill="white"/>
<path d="M47.503 47.5031H23.7515V71.2546H47.503V47.5031Z" fill="white"/>
<path d="M47.503 23.7515H23.7515V47.503H47.503V23.7515Z" fill="#23282D"/>
<path d="M23.7515 118.745H0V142.497H23.7515V118.745Z" fill="#23282D"/>
<path d="M23.7515 95.0061H0V118.745H23.7515V95.0061Z" fill="#23282D"/>
<path d="M23.7515 71.2545H0V95.006H23.7515V71.2545Z" fill="#23282D"/>
<path d="M23.7515 47.5031H0V71.2546H23.7515V47.5031Z" fill="#23282D"/>
</svg>
