<svg width="69" height="69" viewBox="0 0 69 69" fill="none" xmlns="http://www.w3.org/2000/svg">
<g clip-path="url(#clip0_91_31907)">
<path d="M69 26.5405H64.3997V31.8459H69V26.5405Z" fill="#23282D"/>
<path d="M69 21.2324H64.3997V26.5405H69V21.2324Z" fill="#23282D"/>
<path d="M69 15.9243H64.3997V21.2324H69V15.9243Z" fill="#23282D"/>
<path d="M69 10.6162H64.3997V15.9243H69V10.6162Z" fill="#23282D"/>
<path d="M64.3997 31.8459H59.7994V37.1541H64.3997V31.8459Z" fill="#23282D"/>
<path d="M64.3997 26.5405H59.7994V31.8459H64.3997V26.5405Z" fill="#EA687B"/>
<path d="M64.3997 21.2324H59.7994V26.5405H64.3997V21.2324Z" fill="#23282D"/>
<path d="M64.3997 15.9243H59.7994V21.2324H64.3997V15.9243Z" fill="#EA687B"/>
<path d="M64.3997 10.6162H59.7994V15.9243H64.3997V10.6162Z" fill="#EA687B"/>
<path d="M64.3997 5.30811H59.7994V10.6162H64.3997V5.30811Z" fill="#23282D"/>
<path d="M59.7994 37.1541H55.1991V42.4622H59.7994V37.1541Z" fill="#23282D"/>
<path d="M59.7994 31.8459H55.1991V37.1541H59.7994V31.8459Z" fill="#E2505E"/>
<path d="M59.7994 26.5405H55.1991V31.8459H59.7994V26.5405Z" fill="#23282D"/>
<path d="M59.7994 21.2324H55.1991V26.5405H59.7994V21.2324Z" fill="#23282D"/>
<path d="M59.7994 15.9243H55.1991V21.2324H59.7994V15.9243Z" fill="#EA687B"/>
<path d="M59.7994 10.6162H55.1991V15.9243H59.7994V10.6162Z" fill="#EA687B"/>
<path d="M59.7994 5.30811H55.1991V10.6162H59.7994V5.30811Z" fill="#EA687B"/>
<path d="M59.7994 0H55.1991V5.30811H59.7994V0Z" fill="#23282D"/>
<path d="M55.1989 42.4622H50.5986V47.7703H55.1989V42.4622Z" fill="#23282D"/>
<path d="M55.1989 37.1541H50.5986V42.4622H55.1989V37.1541Z" fill="#E2505E"/>
<path d="M55.1989 31.8459H50.5986V37.1541H55.1989V31.8459Z" fill="#23282D"/>
<path d="M55.1989 26.5405H50.5986V31.8459H55.1989V26.5405Z" fill="#23282D"/>
<path d="M55.1989 21.2324H50.5986V26.5405H55.1989V21.2324Z" fill="#23282D"/>
<path d="M55.1989 15.9243H50.5986V21.2324H55.1989V15.9243Z" fill="#E2505E"/>
<path d="M55.1989 10.6162H50.5986V15.9243H55.1989V10.6162Z" fill="#E2505E"/>
<path d="M55.1989 5.30811H50.5986V10.6162H55.1989V5.30811Z" fill="#EA687B"/>
<path d="M55.1989 0H50.5986V5.30811H55.1989V0Z" fill="#23282D"/>
<path d="M50.5987 47.7703H45.9984V53.0784H50.5987V47.7703Z" fill="#23282D"/>
<path d="M50.5987 42.4622H45.9984V47.7703H50.5987V42.4622Z" fill="#E2505E"/>
<path d="M50.5987 37.1541H45.9984V42.4622H50.5987V37.1541Z" fill="#E2505E"/>
<path d="M50.5987 31.8459H45.9984V37.1541H50.5987V31.8459Z" fill="#23282D"/>
<path d="M50.5987 26.5405H45.9984V31.8459H50.5987V26.5405Z" fill="#23282D"/>
<path d="M50.5987 21.2324H45.9984V26.5405H50.5987V21.2324Z" fill="#DEE2E5"/>
<path d="M50.5987 15.9243H45.9984V21.2324H50.5987V15.9243Z" fill="#E2505E"/>
<path d="M50.5987 10.6162H45.9984V15.9243H50.5987V10.6162Z" fill="#E2505E"/>
<path d="M50.5987 5.30811H45.9984V10.6162H50.5987V5.30811Z" fill="#EA687B"/>
<path d="M50.5987 0H45.9984V5.30811H50.5987V0Z" fill="#23282D"/>
<path d="M45.9985 53.0784H41.4005V58.3838H45.9985V53.0784Z" fill="#23282D"/>
<path d="M45.9985 47.7703H41.4005V53.0784H45.9985V47.7703Z" fill="#E2505E"/>
<path d="M45.9985 42.4622H41.4005V47.7703H45.9985V42.4622Z" fill="#E2505E"/>
<path d="M45.9985 37.1541H41.4005V42.4622H45.9985V37.1541Z" fill="#E2505E"/>
<path d="M45.9985 31.8459H41.4005V37.1541H45.9985V31.8459Z" fill="#E2505E"/>
<path d="M45.9985 26.5405H41.4005V31.8459H45.9985V26.5405Z" fill="#23282D"/>
<path d="M45.9985 21.2324H41.4005V26.5405H45.9985V21.2324Z" fill="#23282D"/>
<path d="M45.9985 15.9243H41.4005V21.2324H45.9985V15.9243Z" fill="#E2505E"/>
<path d="M45.9985 10.6162H41.4005V15.9243H45.9985V10.6162Z" fill="#E2505E"/>
<path d="M45.9985 5.30811H41.4005V10.6162H45.9985V5.30811Z" fill="#23282D"/>
<path d="M41.4004 58.3838H36.8V63.6919H41.4004V58.3838Z" fill="#23282D"/>
<path d="M41.4004 53.0784H36.8V58.3838H41.4004V53.0784Z" fill="#E2505E"/>
<path d="M41.4004 47.7703H36.8V53.0784H41.4004V47.7703Z" fill="#E2505E"/>
<path d="M41.4004 42.4622H36.8V47.7703H41.4004V42.4622Z" fill="#E2505E"/>
<path d="M41.4004 37.1541H36.8V42.4622H41.4004V37.1541Z" fill="#E2505E"/>
<path d="M41.4004 31.8459H36.8V37.1541H41.4004V31.8459Z" fill="#E2505E"/>
<path d="M41.4004 26.5405H36.8V31.8459H41.4004V26.5405Z" fill="#E2505E"/>
<path d="M41.4004 21.2324H36.8V26.5405H41.4004V21.2324Z" fill="#23282D"/>
<path d="M41.4004 15.9243H36.8V21.2324H41.4004V15.9243Z" fill="#E2505E"/>
<path d="M41.4004 10.6162H36.8V15.9243H41.4004V10.6162Z" fill="#23282D"/>
<path d="M36.8003 63.6919H32.2V69H36.8003V63.6919Z" fill="#23282D"/>
<path d="M36.8003 58.3838H32.2V63.6919H36.8003V58.3838Z" fill="#E2505E"/>
<path d="M36.8003 53.0784H32.2V58.3838H36.8003V53.0784Z" fill="#E2505E"/>
<path d="M36.8003 47.7703H32.2V53.0784H36.8003V47.7703Z" fill="#E2505E"/>
<path d="M36.8003 42.4622H32.2V47.7703H36.8003V42.4622Z" fill="#E2505E"/>
<path d="M36.8003 37.1541H32.2V42.4622H36.8003V37.1541Z" fill="#E2505E"/>
<path d="M36.8003 31.8459H32.2V37.1541H36.8003V31.8459Z" fill="#E2505E"/>
<path d="M36.8003 26.5405H32.2V31.8459H36.8003V26.5405Z" fill="#E2505E"/>
<path d="M36.8003 21.2324H32.2V26.5405H36.8003V21.2324Z" fill="#E2505E"/>
<path d="M36.8003 15.9243H32.2V21.2324H36.8003V15.9243Z" fill="#23282D"/>
<path d="M32.1998 58.3838H27.5995V63.6919H32.1998V58.3838Z" fill="#23282D"/>
<path d="M32.1998 53.0784H27.5995V58.3838H32.1998V53.0784Z" fill="#E2505E"/>
<path d="M32.1998 47.7703H27.5995V53.0784H32.1998V47.7703Z" fill="#E2505E"/>
<path d="M32.1998 42.4622H27.5995V47.7703H32.1998V42.4622Z" fill="#E2505E"/>
<path d="M32.1998 37.1541H27.5995V42.4622H32.1998V37.1541Z" fill="#E2505E"/>
<path d="M32.1998 31.8459H27.5995V37.1541H32.1998V31.8459Z" fill="#E2505E"/>
<path d="M32.1998 26.5405H27.5995V31.8459H32.1998V26.5405Z" fill="#E2505E"/>
<path d="M32.1998 21.2324H27.5995V26.5405H32.1998V21.2324Z" fill="#23282D"/>
<path d="M32.1998 15.9243H27.5995V21.2324H32.1998V15.9243Z" fill="#E2505E"/>
<path d="M32.1998 10.6162H27.5995V15.9243H32.1998V10.6162Z" fill="#23282D"/>
<path d="M27.5996 53.0784H22.9993V58.3838H27.5996V53.0784Z" fill="#23282D"/>
<path d="M27.5996 47.7703H22.9993V53.0784H27.5996V47.7703Z" fill="#E2505E"/>
<path d="M27.5996 42.4622H22.9993V47.7703H27.5996V42.4622Z" fill="#E2505E"/>
<path d="M27.5996 37.1541H22.9993V42.4622H27.5996V37.1541Z" fill="#E2505E"/>
<path d="M27.5996 31.8459H22.9993V37.1541H27.5996V31.8459Z" fill="#E2505E"/>
<path d="M27.5996 26.5405H22.9993V31.8459H27.5996V26.5405Z" fill="#23282D"/>
<path d="M27.5996 21.2324H22.9993V26.5405H27.5996V21.2324Z" fill="#23282D"/>
<path d="M27.5996 15.9243H22.9993V21.2324H27.5996V15.9243Z" fill="#E2505E"/>
<path d="M27.5996 10.6162H22.9993V15.9243H27.5996V10.6162Z" fill="#B24B5F"/>
<path d="M27.5996 5.30811H22.9993V10.6162H27.5996V5.30811Z" fill="#23282D"/>
<path d="M22.9993 47.7703H18.4014V53.0784H22.9993V47.7703Z" fill="#23282D"/>
<path d="M22.9993 42.4622H18.4014V47.7703H22.9993V42.4622Z" fill="#B24B5F"/>
<path d="M22.9993 37.1541H18.4014V42.4622H22.9993V37.1541Z" fill="#E2505E"/>
<path d="M22.9993 31.8459H18.4014V37.1541H22.9993V31.8459Z" fill="#23282D"/>
<path d="M22.9993 26.5405H18.4014V31.8459H22.9993V26.5405Z" fill="#23282D"/>
<path d="M22.9993 21.2324H18.4014V26.5405H22.9993V21.2324Z" fill="#23282D"/>
<path d="M22.9993 15.9243H18.4014V21.2324H22.9993V15.9243Z" fill="#E2505E"/>
<path d="M22.9993 10.6162H18.4014V15.9243H22.9993V10.6162Z" fill="#B24B5F"/>
<path d="M22.9993 5.30811H18.4014V10.6162H22.9993V5.30811Z" fill="#AA2639"/>
<path d="M22.9993 0H18.4014V5.30811H22.9993V0Z" fill="#23282D"/>
<path d="M18.4012 42.4622H13.8009V47.7703H18.4012V42.4622Z" fill="#23282D"/>
<path d="M18.4012 37.1541H13.8009V42.4622H18.4012V37.1541Z" fill="#B24B5F"/>
<path d="M18.4012 31.8459H13.8009V37.1541H18.4012V31.8459Z" fill="#23282D"/>
<path d="M18.4012 26.5405H13.8009V31.8459H18.4012V26.5405Z" fill="#23282D"/>
<path d="M18.4012 21.2324H13.8009V26.5405H18.4012V21.2324Z" fill="#DEE2E5"/>
<path d="M18.4012 15.9243H13.8009V21.2324H18.4012V15.9243Z" fill="#B24B5F"/>
<path d="M18.4012 10.6162H13.8009V15.9243H18.4012V10.6162Z" fill="#AA2639"/>
<path d="M18.4012 5.30811H13.8009V10.6162H18.4012V5.30811Z" fill="white"/>
<path d="M18.4012 0H13.8009V5.30811H18.4012V0Z" fill="#23282D"/>
<path d="M13.801 37.1541H9.20068V42.4622H13.801V37.1541Z" fill="#23282D"/>
<path d="M13.801 31.8459H9.20068V37.1541H13.801V31.8459Z" fill="#AA2639"/>
<path d="M13.801 26.5405H9.20068V31.8459H13.801V26.5405Z" fill="#23282D"/>
<path d="M13.801 21.2324H9.20068V26.5405H13.801V21.2324Z" fill="#23282D"/>
<path d="M13.801 15.9243H9.20068V21.2324H13.801V15.9243Z" fill="white"/>
<path d="M13.801 10.6162H9.20068V15.9243H13.801V10.6162Z" fill="white"/>
<path d="M13.801 5.30811H9.20068V10.6162H13.801V5.30811Z" fill="white"/>
<path d="M13.801 0H9.20068V5.30811H13.801V0Z" fill="#23282D"/>
<path d="M9.20065 31.8459H4.60034V37.1541H9.20065V31.8459Z" fill="#23282D"/>
<path d="M9.20065 26.5405H4.60034V31.8459H9.20065V26.5405Z" fill="#AA2639"/>
<path d="M9.20065 21.2324H4.60034V26.5405H9.20065V21.2324Z" fill="#23282D"/>
<path d="M9.20065 15.9243H4.60034V21.2324H9.20065V15.9243Z" fill="#AA2639"/>
<path d="M9.20065 10.6162H4.60034V15.9243H9.20065V10.6162Z" fill="white"/>
<path d="M9.20065 5.30811H4.60034V10.6162H9.20065V5.30811Z" fill="#23282D"/>
<path d="M4.60031 26.5405H0V31.8459H4.60031V26.5405Z" fill="#23282D"/>
<path d="M4.60031 21.2324H0V26.5405H4.60031V21.2324Z" fill="#23282D"/>
<path d="M4.60031 15.9243H0V21.2324H4.60031V15.9243Z" fill="#23282D"/>
<path d="M4.60031 10.6162H0V15.9243H4.60031V10.6162Z" fill="#23282D"/>
</g>
<defs>
<clipPath id="clip0_91_31907">
<rect width="69" height="69" fill="white"/>
</clipPath>
</defs>
</svg>
