<svg width="69" height="69" viewBox="0 0 69 69" fill="none" xmlns="http://www.w3.org/2000/svg">
<path d="M69 26.5406H64.3997V31.846H69V26.5406Z" fill="#495059"/>
<path d="M69 21.2324H64.3997V26.5405H69V21.2324Z" fill="#495059"/>
<path d="M69 15.9243H64.3997V21.2324H69V15.9243Z" fill="#495059"/>
<path d="M69 10.6162H64.3997V15.9243H69V10.6162Z" fill="#495059"/>
<path d="M64.3997 31.8459H59.7994V37.1541H64.3997V31.8459Z" fill="#495059"/>
<path d="M64.3997 26.5406H59.7994V31.846H64.3997V26.5406Z" fill="#F7A6C1"/>
<path d="M64.3997 21.2324H59.7994V26.5405H64.3997V21.2324Z" fill="#F7A6C1"/>
<path d="M64.3997 15.9243H59.7994V21.2324H64.3997V15.9243Z" fill="#F7A6C1"/>
<path d="M64.3997 10.6162H59.7994V15.9243H64.3997V10.6162Z" fill="#F7A6C1"/>
<path d="M64.3997 5.30811H59.7994V10.6162H64.3997V5.30811Z" fill="#495059"/>
<path d="M59.7994 37.1541H55.1991V42.4622H59.7994V37.1541Z" fill="#495059"/>
<path d="M59.7994 31.8459H55.1991V37.1541H59.7994V31.8459Z" fill="#FF91AB"/>
<path d="M59.7994 26.5406H55.1991V31.846H59.7994V26.5406Z" fill="#FF91AB"/>
<path d="M59.7994 21.2324H55.1991V26.5405H59.7994V21.2324Z" fill="#FF91AB"/>
<path d="M59.7994 15.9243H55.1991V21.2324H59.7994V15.9243Z" fill="#F7A6C1"/>
<path d="M59.7994 10.6162H55.1991V15.9243H59.7994V10.6162Z" fill="#F7A6C1"/>
<path d="M59.7994 5.30811H55.1991V10.6162H59.7994V5.30811Z" fill="#F7A6C1"/>
<path d="M59.7994 0H55.1991V5.30811H59.7994V0Z" fill="#495059"/>
<path d="M55.1991 42.4622H50.5988V47.7703H55.1991V42.4622Z" fill="#495059"/>
<path d="M55.1991 37.1541H50.5988V42.4622H55.1991V37.1541Z" fill="#FF91AB"/>
<path d="M55.1991 31.8459H50.5988V37.1541H55.1991V31.8459Z" fill="#FF91AB"/>
<path d="M55.1991 26.5406H50.5988V31.846H55.1991V26.5406Z" fill="#FF91AB"/>
<path d="M55.1991 21.2324H50.5988V26.5405H55.1991V21.2324Z" fill="#FF91AB"/>
<path d="M55.1991 15.9243H50.5988V21.2324H55.1991V15.9243Z" fill="#FF91AB"/>
<path d="M55.1991 10.6162H50.5988V15.9243H55.1991V10.6162Z" fill="#FF91AB"/>
<path d="M55.1991 5.30811H50.5988V10.6162H55.1991V5.30811Z" fill="#F7A6C1"/>
<path d="M55.1991 0H50.5988V5.30811H55.1991V0Z" fill="#495059"/>
<path d="M50.5988 47.7703H45.9984V53.0784H50.5988V47.7703Z" fill="#495059"/>
<path d="M50.5988 42.4622H45.9984V47.7703H50.5988V42.4622Z" fill="#FF91AB"/>
<path d="M50.5988 37.1541H45.9984V42.4622H50.5988V37.1541Z" fill="#FF91AB"/>
<path d="M50.5988 31.8459H45.9984V37.1541H50.5988V31.8459Z" fill="#FF91AB"/>
<path d="M50.5988 26.5406H45.9984V31.846H50.5988V26.5406Z" fill="#FF91AB"/>
<path d="M50.5988 21.2324H45.9984V26.5405H50.5988V21.2324Z" fill="#FF91AB"/>
<path d="M50.5988 15.9243H45.9984V21.2324H50.5988V15.9243Z" fill="#FF91AB"/>
<path d="M50.5988 10.6162H45.9984V15.9243H50.5988V10.6162Z" fill="#FF91AB"/>
<path d="M50.5988 5.30811H45.9984V10.6162H50.5988V5.30811Z" fill="#F7A6C1"/>
<path d="M50.5988 0H45.9984V5.30811H50.5988V0Z" fill="#495059"/>
<path d="M45.9985 53.0784H41.4005V58.3838H45.9985V53.0784Z" fill="#495059"/>
<path d="M45.9985 47.7703H41.4005V53.0784H45.9985V47.7703Z" fill="#FF91AB"/>
<path d="M45.9985 42.4622H41.4005V47.7703H45.9985V42.4622Z" fill="#FF91AB"/>
<path d="M45.9985 37.1541H41.4005V42.4622H45.9985V37.1541Z" fill="#FF91AB"/>
<path d="M45.9985 31.8459H41.4005V37.1541H45.9985V31.8459Z" fill="#FF91AB"/>
<path d="M45.9985 26.5406H41.4005V31.846H45.9985V26.5406Z" fill="#FF91AB"/>
<path d="M45.9985 21.2324H41.4005V26.5405H45.9985V21.2324Z" fill="#FF91AB"/>
<path d="M45.9985 15.9243H41.4005V21.2324H45.9985V15.9243Z" fill="#FF91AB"/>
<path d="M45.9985 10.6162H41.4005V15.9243H45.9985V10.6162Z" fill="#FF91AB"/>
<path d="M45.9985 5.30811H41.4005V10.6162H45.9985V5.30811Z" fill="#495059"/>
<path d="M41.4005 58.3838H36.8002V63.6919H41.4005V58.3838Z" fill="#495059"/>
<path d="M41.4005 53.0784H36.8002V58.3838H41.4005V53.0784Z" fill="#FF91AB"/>
<path d="M41.4005 47.7703H36.8002V53.0784H41.4005V47.7703Z" fill="#FF91AB"/>
<path d="M41.4005 42.4622H36.8002V47.7703H41.4005V42.4622Z" fill="#FF91AB"/>
<path d="M41.4005 37.1541H36.8002V42.4622H41.4005V37.1541Z" fill="#FF91AB"/>
<path d="M41.4005 31.8459H36.8002V37.1541H41.4005V31.8459Z" fill="#FF91AB"/>
<path d="M41.4005 26.5406H36.8002V31.846H41.4005V26.5406Z" fill="#FF91AB"/>
<path d="M41.4005 21.2324H36.8002V26.5405H41.4005V21.2324Z" fill="#FF91AB"/>
<path d="M41.4005 15.9243H36.8002V21.2324H41.4005V15.9243Z" fill="#FF91AB"/>
<path d="M41.4005 10.6162H36.8002V15.9243H41.4005V10.6162Z" fill="#495059"/>
<path d="M36.8001 63.6919H32.1998V69H36.8001V63.6919Z" fill="#495059"/>
<path d="M36.8001 58.3838H32.1998V63.6919H36.8001V58.3838Z" fill="#FF91AB"/>
<path d="M36.8001 53.0784H32.1998V58.3838H36.8001V53.0784Z" fill="#FF91AB"/>
<path d="M36.8001 47.7703H32.1998V53.0784H36.8001V47.7703Z" fill="#FF91AB"/>
<path d="M36.8001 42.4622H32.1998V47.7703H36.8001V42.4622Z" fill="#FF91AB"/>
<path d="M36.8001 37.1541H32.1998V42.4622H36.8001V37.1541Z" fill="#FF91AB"/>
<path d="M36.8001 31.8459H32.1998V37.1541H36.8001V31.8459Z" fill="#FF91AB"/>
<path d="M36.8001 26.5406H32.1998V31.846H36.8001V26.5406Z" fill="#FF91AB"/>
<path d="M36.8001 21.2324H32.1998V26.5405H36.8001V21.2324Z" fill="#FF91AB"/>
<path d="M36.8001 15.9243H32.1998V21.2324H36.8001V15.9243Z" fill="#495059"/>
<path d="M32.1998 58.3838H27.5995V63.6919H32.1998V58.3838Z" fill="#495059"/>
<path d="M32.1998 53.0784H27.5995V58.3838H32.1998V53.0784Z" fill="#FF91AB"/>
<path d="M32.1998 47.7703H27.5995V53.0784H32.1998V47.7703Z" fill="#FF91AB"/>
<path d="M32.1998 42.4622H27.5995V47.7703H32.1998V42.4622Z" fill="#FF91AB"/>
<path d="M32.1998 37.1541H27.5995V42.4622H32.1998V37.1541Z" fill="#FF91AB"/>
<path d="M32.1998 31.8459H27.5995V37.1541H32.1998V31.8459Z" fill="#FF91AB"/>
<path d="M32.1998 26.5406H27.5995V31.846H32.1998V26.5406Z" fill="#FF91AB"/>
<path d="M32.1998 21.2324H27.5995V26.5405H32.1998V21.2324Z" fill="#FF91AB"/>
<path d="M32.1998 15.9243H27.5995V21.2324H32.1998V15.9243Z" fill="#FF91AB"/>
<path d="M32.1998 10.6162H27.5995V15.9243H32.1998V10.6162Z" fill="#495059"/>
<path d="M27.5995 53.0784H22.9992V58.3838H27.5995V53.0784Z" fill="#495059"/>
<path d="M27.5995 47.7703H22.9992V53.0784H27.5995V47.7703Z" fill="#FF91AB"/>
<path d="M27.5995 42.4622H22.9992V47.7703H27.5995V42.4622Z" fill="#FF91AB"/>
<path d="M27.5995 37.1541H22.9992V42.4622H27.5995V37.1541Z" fill="#FF91AB"/>
<path d="M27.5995 31.8459H22.9992V37.1541H27.5995V31.8459Z" fill="#FF91AB"/>
<path d="M27.5995 26.5406H22.9992V31.846H27.5995V26.5406Z" fill="#FF91AB"/>
<path d="M27.5995 21.2324H22.9992V26.5405H27.5995V21.2324Z" fill="#FF91AB"/>
<path d="M27.5995 15.9243H22.9992V21.2324H27.5995V15.9243Z" fill="#FF91AB"/>
<path d="M27.5995 10.6162H22.9992V15.9243H27.5995V10.6162Z" fill="#F74F88"/>
<path d="M27.5995 5.30811H22.9992V10.6162H27.5995V5.30811Z" fill="#495059"/>
<path d="M22.9992 47.7703H18.4012V53.0784H22.9992V47.7703Z" fill="#495059"/>
<path d="M22.9992 42.4622H18.4012V47.7703H22.9992V42.4622Z" fill="#F74F88"/>
<path d="M22.9992 37.1541H18.4012V42.4622H22.9992V37.1541Z" fill="#FF91AB"/>
<path d="M22.9992 31.8459H18.4012V37.1541H22.9992V31.8459Z" fill="#FF91AB"/>
<path d="M22.9992 26.5406H18.4012V31.846H22.9992V26.5406Z" fill="#FF91AB"/>
<path d="M22.9992 21.2324H18.4012V26.5405H22.9992V21.2324Z" fill="#FF91AB"/>
<path d="M22.9992 15.9243H18.4012V21.2324H22.9992V15.9243Z" fill="#FF91AB"/>
<path d="M22.9992 10.6162H18.4012V15.9243H22.9992V10.6162Z" fill="#F74F88"/>
<path d="M22.9992 5.30811H18.4012V10.6162H22.9992V5.30811Z" fill="#F74F88"/>
<path d="M22.9992 0H18.4012V5.30811H22.9992V0Z" fill="#495059"/>
<path d="M18.4012 42.4622H13.8009V47.7703H18.4012V42.4622Z" fill="#495059"/>
<path d="M18.4012 37.1541H13.8009V42.4622H18.4012V37.1541Z" fill="#FF336D"/>
<path d="M18.4012 31.8459H13.8009V37.1541H18.4012V31.8459Z" fill="#F74F88"/>
<path d="M18.4012 26.5406H13.8009V31.846H18.4012V26.5406Z" fill="#F74F88"/>
<path d="M18.4012 21.2324H13.8009V26.5405H18.4012V21.2324Z" fill="#FF91AB"/>
<path d="M18.4012 15.9243H13.8009V21.2324H18.4012V15.9243Z" fill="#F74F88"/>
<path d="M18.4012 10.6162H13.8009V15.9243H18.4012V10.6162Z" fill="#F74F88"/>
<path d="M18.4012 5.30811H13.8009V10.6162H18.4012V5.30811Z" fill="white"/>
<path d="M18.4012 0H13.8009V5.30811H18.4012V0Z" fill="#495059"/>
<path d="M13.8009 37.1541H9.20062V42.4622H13.8009V37.1541Z" fill="#495059"/>
<path d="M13.8009 31.8459H9.20062V37.1541H13.8009V31.8459Z" fill="#FF336D"/>
<path d="M13.8009 26.5406H9.20062V31.846H13.8009V26.5406Z" fill="#FF336D"/>
<path d="M13.8009 21.2324H9.20062V26.5405H13.8009V21.2324Z" fill="#F74F88"/>
<path d="M13.8009 15.9243H9.20062V21.2324H13.8009V15.9243Z" fill="white"/>
<path d="M13.8009 10.6162H9.20062V15.9243H13.8009V10.6162Z" fill="white"/>
<path d="M13.8009 5.30811H9.20062V10.6162H13.8009V5.30811Z" fill="white"/>
<path d="M13.8009 0H9.20062V5.30811H13.8009V0Z" fill="#495059"/>
<path d="M9.20062 31.8459H4.60031V37.1541H9.20062V31.8459Z" fill="#495059"/>
<path d="M9.20062 26.5406H4.60031V31.846H9.20062V26.5406Z" fill="#FF336D"/>
<path d="M9.20062 21.2324H4.60031V26.5405H9.20062V21.2324Z" fill="#FF336D"/>
<path d="M9.20062 15.9243H4.60031V21.2324H9.20062V15.9243Z" fill="#FF336D"/>
<path d="M9.20062 10.6162H4.60031V15.9243H9.20062V10.6162Z" fill="white"/>
<path d="M9.20062 5.30811H4.60031V10.6162H9.20062V5.30811Z" fill="#495059"/>
<path d="M4.60031 26.5406H0V31.846H4.60031V26.5406Z" fill="#495059"/>
<path d="M4.60031 21.2324H0V26.5405H4.60031V21.2324Z" fill="#495059"/>
<path d="M4.60031 15.9243H0V21.2324H4.60031V15.9243Z" fill="#495059"/>
<path d="M4.60031 10.6162H0V15.9243H4.60031V10.6162Z" fill="#495059"/>
</svg>
