<svg width="266" height="323" viewBox="0 0 266 323" fill="none" xmlns="http://www.w3.org/2000/svg">
<path d="M266 78.5696H257.939V87.3H266V78.5696Z" fill="#F5D141"/>
<path d="M266 69.8391H257.939V78.5696H266V69.8391Z" fill="#F5D141"/>
<path d="M266 61.1088H257.939V69.8392H266V61.1088Z" fill="#F5D141"/>
<path d="M266 52.3783H257.939V61.1087H266V52.3783Z" fill="#F5D141"/>
<path d="M257.939 165.865H249.877V174.596H257.939V165.865Z" fill="#EBC434"/>
<path d="M257.939 130.948H249.877V139.678H257.939V130.948Z" fill="#F5D141"/>
<path d="M257.939 122.217H249.877V130.948H257.939V122.217Z" fill="#F5D141"/>
<path d="M257.939 87.3H249.877V96.026H257.939V87.3Z" fill="#F5D141"/>
<path d="M257.939 78.5696H249.877V87.3H257.939V78.5696Z" fill="#F5D141"/>
<path d="M257.939 69.8391H249.877V78.5696H257.939V69.8391Z" fill="#F5D141"/>
<path d="M257.939 61.1088H249.877V69.8392H257.939V61.1088Z" fill="#F5D141"/>
<path d="M257.939 52.3783H249.877V61.1087H257.939V52.3783Z" fill="#F5D141"/>
<path d="M257.939 43.6478H249.877V52.3783H257.939V43.6478Z" fill="#F5D141"/>
<path d="M249.878 130.948H241.816V139.678H249.878V130.948Z" fill="#42F49B"/>
<path d="M249.878 122.217H241.816V130.948H249.878V122.217Z" fill="#DEE2E5"/>
<path d="M249.878 104.756H241.816V113.487H249.878V104.756Z" fill="#F5D141"/>
<path d="M249.878 96.026H241.816V104.756H249.878V96.026Z" fill="#F5D141"/>
<path d="M249.878 87.3H241.816V96.026H249.878V87.3Z" fill="#F5D141"/>
<path d="M249.878 78.5696H241.816V87.3H249.878V78.5696Z" fill="#F5D141"/>
<path d="M249.878 52.3783H241.816V61.1087H249.878V52.3783Z" fill="#F5D141"/>
<path d="M249.878 43.6478H241.816V52.3783H249.878V43.6478Z" fill="#42F49B"/>
<path d="M241.816 104.756H233.755V113.487H241.816V104.756Z" fill="#F5D141"/>
<path d="M241.816 96.026H233.755V104.756H241.816V96.026Z" fill="#F5D141"/>
<path d="M241.816 87.3H233.755V96.026H241.816V87.3Z" fill="#F5D141"/>
<path d="M241.816 52.3783H233.755V61.1087H241.816V52.3783Z" fill="#42F49B"/>
<path d="M241.816 43.6478H233.755V52.3783H241.816V43.6478Z" fill="#42F49B"/>
<path d="M233.755 261.891H225.698V270.622H233.755V261.891Z" fill="#F5D141"/>
<path d="M233.755 244.43H225.698V253.161H233.755V244.43Z" fill="#F5D141"/>
<path d="M233.755 87.3H225.698V96.026H233.755V87.3Z" fill="#73F4DB"/>
<path d="M233.755 78.5696H225.698V87.3H233.755V78.5696Z" fill="#73F4DB"/>
<path d="M233.755 69.8391H225.698V78.5696H233.755V69.8391Z" fill="#73F4DB"/>
<path d="M233.755 61.1088H225.698V69.8392H233.755V61.1088Z" fill="#73F4DB"/>
<path d="M233.755 52.3783H225.698V61.1087H233.755V52.3783Z" fill="#964CC1"/>
<path d="M233.755 43.6478H225.698V52.3783H233.755V43.6478Z" fill="#F5D141"/>
<path d="M225.698 253.161H217.637V261.891H225.698V253.161Z" fill="#F5D141"/>
<path d="M225.698 200.783H217.637V209.513H225.698V200.783Z" fill="#964CC1"/>
<path d="M225.698 192.052H217.637V200.783H225.698V192.052Z" fill="#964CC1"/>
<path d="M225.698 183.326H217.637V192.052H225.698V183.326Z" fill="#964CC1"/>
<path d="M225.698 174.596H217.637V183.326H225.698V174.596Z" fill="#964CC1"/>
<path d="M225.698 165.865H217.637V174.596H225.698V165.865Z" fill="#B68EEF"/>
<path d="M225.698 157.135H217.637V165.865H225.698V157.135Z" fill="#CB9FFF"/>
<path d="M225.698 148.404H217.637V157.135H225.698V148.404Z" fill="#CB9FFF"/>
<path d="M225.698 139.678H217.637V148.404H225.698V139.678Z" fill="#CB9FFF"/>
<path d="M225.698 130.948H217.637V139.678H225.698V130.948Z" fill="#CB9FFF"/>
<path d="M225.698 122.217H217.637V130.948H225.698V122.217Z" fill="#CB9FFF"/>
<path d="M225.698 104.756H217.637V113.487H225.698V104.756Z" fill="#73F4DB"/>
<path d="M225.698 96.026H217.637V104.756H225.698V96.026Z" fill="#73F4DB"/>
<path d="M225.698 87.3H217.637V96.026H225.698V87.3Z" fill="#73F4DB"/>
<path d="M225.698 78.5696H217.637V87.3H225.698V78.5696Z" fill="#73F4DB"/>
<path d="M225.698 69.8391H217.637V78.5696H225.698V69.8391Z" fill="#73F4DB"/>
<path d="M225.698 61.1088H217.637V69.8392H225.698V61.1088Z" fill="#73F4DB"/>
<path d="M225.698 52.3783H217.637V61.1087H225.698V52.3783Z" fill="#964CC1"/>
<path d="M225.698 43.6478H217.637V52.3783H225.698V43.6478Z" fill="#964CC1"/>
<path d="M217.637 279.352H209.575V288.083H217.637V279.352Z" fill="#F5D141"/>
<path d="M217.637 261.891H209.575V270.622H217.637V261.891Z" fill="#F5D141"/>
<path d="M217.637 253.161H209.575V261.891H217.637V253.161Z" fill="#F5D141"/>
<path d="M217.637 244.43H209.575V253.161H217.637V244.43Z" fill="#EBC434"/>
<path d="M217.637 226.974H209.575V235.704H217.637V226.974Z" fill="#EBC434"/>
<path d="M217.637 209.513H209.575V218.244H217.637V209.513Z" fill="#964CC1"/>
<path d="M217.637 200.783H209.575V209.513H217.637V200.783Z" fill="#964CC1"/>
<path d="M217.637 192.052H209.575V200.783H217.637V192.052Z" fill="#964CC1"/>
<path d="M217.637 183.326H209.575V192.052H217.637V183.326Z" fill="#B68EEF"/>
<path d="M217.637 174.596H209.575V183.326H217.637V174.596Z" fill="#CB9FFF"/>
<path d="M217.637 165.865H209.575V174.596H217.637V165.865Z" fill="#CB9FFF"/>
<path d="M217.637 157.135H209.575V165.865H217.637V157.135Z" fill="#CB9FFF"/>
<path d="M217.637 148.404H209.575V157.135H217.637V148.404Z" fill="#CB9FFF"/>
<path d="M217.637 139.678H209.575V148.404H217.637V139.678Z" fill="#495059"/>
<path d="M217.637 130.948H209.575V139.678H217.637V130.948Z" fill="#CB9FFF"/>
<path d="M217.637 122.217H209.575V130.948H217.637V122.217Z" fill="#CB9FFF"/>
<path d="M217.637 113.487H209.575V122.217H217.637V113.487Z" fill="#CB9FFF"/>
<path d="M217.637 104.756H209.575V113.487H217.637V104.756Z" fill="#CB9FFF"/>
<path d="M217.637 96.026H209.575V104.756H217.637V96.026Z" fill="#73F4DB"/>
<path d="M217.637 87.3H209.575V96.026H217.637V87.3Z" fill="#73F4DB"/>
<path d="M217.637 78.5696H209.575V87.3H217.637V78.5696Z" fill="#73F4DB"/>
<path d="M217.637 69.8391H209.575V78.5696H217.637V69.8391Z" fill="#73F4DB"/>
<path d="M217.637 61.1088H209.575V69.8392H217.637V61.1088Z" fill="#964CC1"/>
<path d="M217.637 52.3783H209.575V61.1087H217.637V52.3783Z" fill="#964CC1"/>
<path d="M217.637 43.6478H209.575V52.3783H217.637V43.6478Z" fill="#964CC1"/>
<path d="M209.575 253.161H201.514V261.891H209.575V253.161Z" fill="#EBC434"/>
<path d="M209.575 218.244H201.514V226.974H209.575V218.244Z" fill="#964CC1"/>
<path d="M209.575 209.513H201.514V218.244H209.575V209.513Z" fill="#964CC1"/>
<path d="M209.575 200.783H201.514V209.513H209.575V200.783Z" fill="#964CC1"/>
<path d="M209.575 192.052H201.514V200.783H209.575V192.052Z" fill="#964CC1"/>
<path d="M209.575 183.326H201.514V192.052H209.575V183.326Z" fill="#CB9FFF"/>
<path d="M209.575 174.596H201.514V183.326H209.575V174.596Z" fill="#CB9FFF"/>
<path d="M209.575 165.865H201.514V174.596H209.575V165.865Z" fill="#CB9FFF"/>
<path d="M209.575 157.135H201.514V165.865H209.575V157.135Z" fill="#495059"/>
<path d="M209.575 148.404H201.514V157.135H209.575V148.404Z" fill="#CB9FFF"/>
<path d="M209.575 139.678H201.514V148.404H209.575V139.678Z" fill="#495059"/>
<path d="M209.575 130.948H201.514V139.678H209.575V130.948Z" fill="#CB9FFF"/>
<path d="M209.575 122.217H201.514V130.948H209.575V122.217Z" fill="#495059"/>
<path d="M209.575 113.487H201.514V122.217H209.575V113.487Z" fill="#CB9FFF"/>
<path d="M209.575 104.756H201.514V113.487H209.575V104.756Z" fill="#CB9FFF"/>
<path d="M209.575 96.026H201.514V104.756H209.575V96.026Z" fill="#CB9FFF"/>
<path d="M209.575 87.3H201.514V96.026H209.575V87.3Z" fill="#CB9FFF"/>
<path d="M209.575 78.5696H201.514V87.3H209.575V78.5696Z" fill="#73F4DB"/>
<path d="M209.575 69.8391H201.514V78.5696H209.575V69.8391Z" fill="#73F4DB"/>
<path d="M209.575 61.1088H201.514V69.8392H209.575V61.1088Z" fill="#964CC1"/>
<path d="M209.575 52.3783H201.514V61.1087H209.575V52.3783Z" fill="#964CC1"/>
<path d="M209.575 43.6478H201.514V52.3783H209.575V43.6478Z" fill="#964CC1"/>
<path d="M201.514 261.891H193.453V270.622H201.514V261.891Z" fill="#EBC434"/>
<path d="M201.514 244.43H193.453V253.161H201.514V244.43Z" fill="#EBC434"/>
<path d="M201.514 226.974H193.453V235.704H201.514V226.974Z" fill="#964CC1"/>
<path d="M201.514 218.244H193.453V226.974H201.514V218.244Z" fill="#964CC1"/>
<path d="M201.514 209.513H193.453V218.244H201.514V209.513Z" fill="#964CC1"/>
<path d="M201.514 200.783H193.453V209.513H201.514V200.783Z" fill="#722CA3"/>
<path d="M201.514 192.052H193.453V200.783H201.514V192.052Z" fill="#CB9FFF"/>
<path d="M201.514 183.326H193.453V192.052H201.514V183.326Z" fill="#CB9FFF"/>
<path d="M201.514 174.596H193.453V183.326H201.514V174.596Z" fill="#CB9FFF"/>
<path d="M201.514 165.865H193.453V174.596H201.514V165.865Z" fill="#CB9FFF"/>
<path d="M201.514 157.135H193.453V165.865H201.514V157.135Z" fill="#CB9FFF"/>
<path d="M201.514 148.404H193.453V157.135H201.514V148.404Z" fill="#495059"/>
<path d="M201.514 139.678H193.453V148.404H201.514V139.678Z" fill="#73F4DB"/>
<path d="M201.514 130.948H193.453V139.678H201.514V130.948Z" fill="#495059"/>
<path d="M201.514 122.217H193.453V130.948H201.514V122.217Z" fill="#CB9FFF"/>
<path d="M201.514 113.487H193.453V122.217H201.514V113.487Z" fill="#CB9FFF"/>
<path d="M201.514 104.756H193.453V113.487H201.514V104.756Z" fill="#CB9FFF"/>
<path d="M201.514 96.026H193.453V104.756H201.514V96.026Z" fill="#CB9FFF"/>
<path d="M201.514 87.3H193.453V96.026H201.514V87.3Z" fill="#CB9FFF"/>
<path d="M201.514 78.5696H193.453V87.3H201.514V78.5696Z" fill="#CB9FFF"/>
<path d="M201.514 69.8391H193.453V78.5696H201.514V69.8391Z" fill="#964CC1"/>
<path d="M201.514 61.1088H193.453V69.8392H201.514V61.1088Z" fill="#964CC1"/>
<path d="M201.514 52.3783H193.453V61.1087H201.514V52.3783Z" fill="#964CC1"/>
<path d="M193.453 226.974H185.392V235.704H193.453V226.974Z" fill="#722CA3"/>
<path d="M193.453 218.244H185.392V226.974H193.453V218.244Z" fill="#722CA3"/>
<path d="M193.453 209.513H185.392V218.244H193.453V209.513Z" fill="#722CA3"/>
<path d="M193.453 200.783H185.392V209.513H193.453V200.783Z" fill="#B68EEF"/>
<path d="M193.453 192.052H185.392V200.783H193.453V192.052Z" fill="#CB9FFF"/>
<path d="M193.453 183.326H185.392V192.052H193.453V183.326Z" fill="#CB9FFF"/>
<path d="M193.453 174.596H185.392V183.326H193.453V174.596Z" fill="#CB9FFF"/>
<path d="M193.453 165.865H185.392V174.596H193.453V165.865Z" fill="#CB9FFF"/>
<path d="M193.453 157.135H185.392V165.865H193.453V157.135Z" fill="#73F4DB"/>
<path d="M193.453 148.404H185.392V157.135H193.453V148.404Z" fill="#73F4DB"/>
<path d="M193.453 139.678H185.392V148.404H193.453V139.678Z" fill="#73F4DB"/>
<path d="M193.453 130.948H185.392V139.678H193.453V130.948Z" fill="#73F4DB"/>
<path d="M193.453 122.217H185.392V130.948H193.453V122.217Z" fill="#CB9FFF"/>
<path d="M193.453 113.487H185.392V122.217H193.453V113.487Z" fill="#CB9FFF"/>
<path d="M193.453 104.756H185.392V113.487H193.453V104.756Z" fill="#CB9FFF"/>
<path d="M193.453 96.026H185.392V104.756H193.453V96.026Z" fill="#CB9FFF"/>
<path d="M193.453 87.3H185.392V96.026H193.453V87.3Z" fill="#CB9FFF"/>
<path d="M193.453 78.5696H185.392V87.3H193.453V78.5696Z" fill="#CB9FFF"/>
<path d="M193.453 69.8391H185.392V78.5696H193.453V69.8391Z" fill="#964CC1"/>
<path d="M193.453 61.1088H185.392V69.8392H193.453V61.1088Z" fill="#964CC1"/>
<path d="M193.453 52.3783H185.392V61.1087H193.453V52.3783Z" fill="#964CC1"/>
<path d="M185.392 244.43H177.335V253.161H185.392V244.43Z" fill="#CB9FFF"/>
<path d="M185.392 235.704H177.335V244.43H185.392V235.704Z" fill="#CB9FFF"/>
<path d="M185.392 226.974H177.335V235.704H185.392V226.974Z" fill="#CB9FFF"/>
<path d="M185.392 218.244H177.335V226.974H185.392V218.244Z" fill="#CB9FFF"/>
<path d="M185.392 209.513H177.335V218.244H185.392V209.513Z" fill="#CB9FFF"/>
<path d="M185.392 200.783H177.335V209.513H185.392V200.783Z" fill="#CB9FFF"/>
<path d="M185.392 192.052H177.335V200.783H185.392V192.052Z" fill="#CB9FFF"/>
<path d="M185.392 183.326H177.335V192.052H185.392V183.326Z" fill="#CB9FFF"/>
<path d="M185.392 174.596H177.335V183.326H185.392V174.596Z" fill="#CB9FFF"/>
<path d="M185.392 165.865H177.335V174.596H185.392V165.865Z" fill="#CB9FFF"/>
<path d="M185.392 157.135H177.335V165.865H185.392V157.135Z" fill="#73F4DB"/>
<path d="M185.392 148.404H177.335V157.135H185.392V148.404Z" fill="#73F4DB"/>
<path d="M185.392 139.678H177.335V148.404H185.392V139.678Z" fill="#73F4DB"/>
<path d="M185.392 130.948H177.335V139.678H185.392V130.948Z" fill="#73F4DB"/>
<path d="M185.392 122.217H177.335V130.948H185.392V122.217Z" fill="#CB9FFF"/>
<path d="M185.392 113.487H177.335V122.217H185.392V113.487Z" fill="#CB9FFF"/>
<path d="M185.392 104.756H177.335V113.487H185.392V104.756Z" fill="#CB9FFF"/>
<path d="M185.392 96.026H177.335V104.756H185.392V96.026Z" fill="#CB9FFF"/>
<path d="M185.392 87.3H177.335V96.026H185.392V87.3Z" fill="#495059"/>
<path d="M185.392 78.5696H177.335V87.3H185.392V78.5696Z" fill="#CB9FFF"/>
<path d="M185.392 69.8391H177.335V78.5696H185.392V69.8391Z" fill="#CB9FFF"/>
<path d="M185.392 61.1088H177.335V69.8392H185.392V61.1088Z" fill="#964CC1"/>
<path d="M177.335 261.891H169.273V270.622H177.335V261.891Z" fill="#CB9FFF"/>
<path d="M177.335 253.161H169.273V261.891H177.335V253.161Z" fill="#CB9FFF"/>
<path d="M177.335 244.43H169.273V253.161H177.335V244.43Z" fill="#CB9FFF"/>
<path d="M177.335 235.704H169.273V244.43H177.335V235.704Z" fill="#CB9FFF"/>
<path d="M177.335 226.974H169.273V235.704H177.335V226.974Z" fill="#CB9FFF"/>
<path d="M177.335 218.244H169.273V226.974H177.335V218.244Z" fill="#CB9FFF"/>
<path d="M177.335 209.513H169.273V218.244H177.335V209.513Z" fill="#CB9FFF"/>
<path d="M177.335 200.783H169.273V209.513H177.335V200.783Z" fill="#CB9FFF"/>
<path d="M177.335 192.052H169.273V200.783H177.335V192.052Z" fill="#CB9FFF"/>
<path d="M177.335 183.326H169.273V192.052H177.335V183.326Z" fill="#CB9FFF"/>
<path d="M177.335 174.596H169.273V183.326H177.335V174.596Z" fill="#CB9FFF"/>
<path d="M177.335 165.865H169.273V174.596H177.335V165.865Z" fill="#CB9FFF"/>
<path d="M177.335 157.135H169.273V165.865H177.335V157.135Z" fill="#CB9FFF"/>
<path d="M177.335 148.404H169.273V157.135H177.335V148.404Z" fill="#73F4DB"/>
<path d="M177.335 139.678H169.273V148.404H177.335V139.678Z" fill="#73F4DB"/>
<path d="M177.335 130.948H169.273V139.678H177.335V130.948Z" fill="#495059"/>
<path d="M177.335 122.217H169.273V130.948H177.335V122.217Z" fill="#495059"/>
<path d="M177.335 113.487H169.273V122.217H177.335V113.487Z" fill="#495059"/>
<path d="M177.335 104.756H169.273V113.487H177.335V104.756Z" fill="#CB9FFF"/>
<path d="M177.335 96.026H169.273V104.756H177.335V96.026Z" fill="#CB9FFF"/>
<path d="M177.335 87.3H169.273V96.026H177.335V87.3Z" fill="#CB9FFF"/>
<path d="M177.335 78.5696H169.273V87.3H177.335V78.5696Z" fill="#495059"/>
<path d="M177.335 69.8391H169.273V78.5696H177.335V69.8391Z" fill="#CB9FFF"/>
<path d="M169.273 305.539H161.212V314.27H169.273V305.539Z" fill="#964CC1"/>
<path d="M169.273 296.809H161.212V305.539H169.273V296.809Z" fill="#964CC1"/>
<path d="M169.273 288.083H161.212V296.809H169.273V288.083Z" fill="#964CC1"/>
<path d="M169.273 279.352H161.212V288.083H169.273V279.352Z" fill="#722CA3"/>
<path d="M169.273 270.622H161.212V279.352H169.273V270.622Z" fill="#B68EEF"/>
<path d="M169.273 261.891H161.212V270.622H169.273V261.891Z" fill="#CB9FFF"/>
<path d="M169.273 253.161H161.212V261.891H169.273V253.161Z" fill="#CB9FFF"/>
<path d="M169.273 244.43H161.212V253.161H169.273V244.43Z" fill="#CB9FFF"/>
<path d="M169.273 235.704H161.212V244.43H169.273V235.704Z" fill="#CB9FFF"/>
<path d="M169.273 226.974H161.212V235.704H169.273V226.974Z" fill="#CB9FFF"/>
<path d="M169.273 218.244H161.212V226.974H169.273V218.244Z" fill="#CB9FFF"/>
<path d="M169.273 209.513H161.212V218.244H169.273V209.513Z" fill="#CB9FFF"/>
<path d="M169.273 200.783H161.212V209.513H169.273V200.783Z" fill="#CB9FFF"/>
<path d="M169.273 192.052H161.212V200.783H169.273V192.052Z" fill="#CB9FFF"/>
<path d="M169.273 183.326H161.212V192.052H169.273V183.326Z" fill="#CB9FFF"/>
<path d="M169.273 174.596H161.212V183.326H169.273V174.596Z" fill="#CB9FFF"/>
<path d="M169.273 165.865H161.212V174.596H169.273V165.865Z" fill="#CB9FFF"/>
<path d="M169.273 157.135H161.212V165.865H169.273V157.135Z" fill="#CB9FFF"/>
<path d="M169.273 148.404H161.212V157.135H169.273V148.404Z" fill="#CB9FFF"/>
<path d="M169.273 139.678H161.212V148.404H169.273V139.678Z" fill="#CB9FFF"/>
<path d="M169.273 130.948H161.212V139.678H169.273V130.948Z" fill="#495059"/>
<path d="M169.273 122.217H161.212V130.948H169.273V122.217Z" fill="#495059"/>
<path d="M169.273 113.487H161.212V122.217H169.273V113.487Z" fill="#DEE2E5"/>
<path d="M169.273 104.756H161.212V113.487H169.273V104.756Z" fill="#CB9FFF"/>
<path d="M169.273 96.026H161.212V104.756H169.273V96.026Z" fill="#CB9FFF"/>
<path d="M169.273 87.3H161.212V96.026H169.273V87.3Z" fill="#CB9FFF"/>
<path d="M169.273 78.5696H161.212V87.3H169.273V78.5696Z" fill="#495059"/>
<path d="M169.273 69.8391H161.212V78.5696H169.273V69.8391Z" fill="#CB9FFF"/>
<path d="M161.212 314.27H153.151V323H161.212V314.27Z" fill="#964CC1"/>
<path d="M161.212 305.539H153.151V314.27H161.212V305.539Z" fill="#964CC1"/>
<path d="M161.212 296.809H153.151V305.539H161.212V296.809Z" fill="#964CC1"/>
<path d="M161.212 288.083H153.151V296.809H161.212V288.083Z" fill="#722CA3"/>
<path d="M161.212 279.352H153.151V288.083H161.212V279.352Z" fill="#722CA3"/>
<path d="M161.212 270.622H153.151V279.352H161.212V270.622Z" fill="#B68EEF"/>
<path d="M161.212 261.891H153.151V270.622H161.212V261.891Z" fill="#CB9FFF"/>
<path d="M161.212 253.161H153.151V261.891H161.212V253.161Z" fill="#CB9FFF"/>
<path d="M161.212 244.43H153.151V253.161H161.212V244.43Z" fill="#CB9FFF"/>
<path d="M161.212 235.704H153.151V244.43H161.212V235.704Z" fill="#CB9FFF"/>
<path d="M161.212 226.974H153.151V235.704H161.212V226.974Z" fill="#CB9FFF"/>
<path d="M161.212 218.244H153.151V226.974H161.212V218.244Z" fill="#CB9FFF"/>
<path d="M161.212 209.513H153.151V218.244H161.212V209.513Z" fill="#CB9FFF"/>
<path d="M161.212 200.783H153.151V209.513H161.212V200.783Z" fill="#CB9FFF"/>
<path d="M161.212 192.052H153.151V200.783H161.212V192.052Z" fill="#CB9FFF"/>
<path d="M161.212 183.326H153.151V192.052H161.212V183.326Z" fill="#CB9FFF"/>
<path d="M161.212 174.596H153.151V183.326H161.212V174.596Z" fill="#CB9FFF"/>
<path d="M161.212 165.865H153.151V174.596H161.212V165.865Z" fill="#CB9FFF"/>
<path d="M161.212 157.135H153.151V165.865H161.212V157.135Z" fill="#CB9FFF"/>
<path d="M161.212 148.404H153.151V157.135H161.212V148.404Z" fill="#CB9FFF"/>
<path d="M161.212 139.678H153.151V148.404H161.212V139.678Z" fill="#CB9FFF"/>
<path d="M161.212 130.948H153.151V139.678H161.212V130.948Z" fill="#CB9FFF"/>
<path d="M161.212 122.217H153.151V130.948H161.212V122.217Z" fill="#CB9FFF"/>
<path d="M161.212 113.487H153.151V122.217H161.212V113.487Z" fill="#CB9FFF"/>
<path d="M161.212 104.756H153.151V113.487H161.212V104.756Z" fill="#CB9FFF"/>
<path d="M161.212 96.026H153.151V104.756H161.212V96.026Z" fill="#CB9FFF"/>
<path d="M161.212 87.3H153.151V96.026H161.212V87.3Z" fill="#495059"/>
<path d="M161.212 78.5696H153.151V87.3H161.212V78.5696Z" fill="#CB9FFF"/>
<path d="M161.212 69.8391H153.151V78.5696H161.212V69.8391Z" fill="#CB9FFF"/>
<path d="M161.212 61.1088H153.151V69.8392H161.212V61.1088Z" fill="#CB9FFF"/>
<path d="M161.212 52.3783H153.151V61.1087H161.212V52.3783Z" fill="#F5D141"/>
<path d="M153.151 314.27H145.09V323H153.151V314.27Z" fill="#964CC1"/>
<path d="M153.151 305.539H145.09V314.27H153.151V305.539Z" fill="#964CC1"/>
<path d="M153.151 296.809H145.09V305.539H153.151V296.809Z" fill="#964CC1"/>
<path d="M153.151 288.083H145.09V296.809H153.151V288.083Z" fill="#722CA3"/>
<path d="M153.151 279.352H145.09V288.083H153.151V279.352Z" fill="#B68EEF"/>
<path d="M153.151 270.622H145.09V279.352H153.151V270.622Z" fill="#CB9FFF"/>
<path d="M153.151 261.891H145.09V270.622H153.151V261.891Z" fill="#CB9FFF"/>
<path d="M153.151 253.161H145.09V261.891H153.151V253.161Z" fill="#CB9FFF"/>
<path d="M153.151 244.43H145.09V253.161H153.151V244.43Z" fill="#CB9FFF"/>
<path d="M153.151 235.704H145.09V244.43H153.151V235.704Z" fill="#CB9FFF"/>
<path d="M153.151 226.974H145.09V235.704H153.151V226.974Z" fill="#CB9FFF"/>
<path d="M153.151 218.244H145.09V226.974H153.151V218.244Z" fill="#CB9FFF"/>
<path d="M153.151 209.513H145.09V218.244H153.151V209.513Z" fill="#CB9FFF"/>
<path d="M153.151 200.783H145.09V209.513H153.151V200.783Z" fill="#CB9FFF"/>
<path d="M153.151 192.052H145.09V200.783H153.151V192.052Z" fill="#CB9FFF"/>
<path d="M153.151 183.326H145.09V192.052H153.151V183.326Z" fill="#CB9FFF"/>
<path d="M153.151 174.596H145.09V183.326H153.151V174.596Z" fill="#495059"/>
<path d="M153.151 165.865H145.09V174.596H153.151V165.865Z" fill="#CB9FFF"/>
<path d="M153.151 157.135H145.09V165.865H153.151V157.135Z" fill="#CB9FFF"/>
<path d="M153.151 148.404H145.09V157.135H153.151V148.404Z" fill="#CB9FFF"/>
<path d="M153.151 139.678H145.09V148.404H153.151V139.678Z" fill="#CB9FFF"/>
<path d="M153.151 130.948H145.09V139.678H153.151V130.948Z" fill="#CB9FFF"/>
<path d="M153.151 122.217H145.09V130.948H153.151V122.217Z" fill="#CB9FFF"/>
<path d="M153.151 113.487H145.09V122.217H153.151V113.487Z" fill="#CB9FFF"/>
<path d="M153.151 104.756H145.09V113.487H153.151V104.756Z" fill="#CB9FFF"/>
<path d="M153.151 96.026H145.09V104.756H153.151V96.026Z" fill="#CB9FFF"/>
<path d="M153.151 87.3H145.09V96.026H153.151V87.3Z" fill="#CB9FFF"/>
<path d="M153.151 78.5696H145.09V87.3H153.151V78.5696Z" fill="#CB9FFF"/>
<path d="M153.151 69.8391H145.09V78.5696H153.151V69.8391Z" fill="#CB9FFF"/>
<path d="M153.151 61.1088H145.09V69.8392H153.151V61.1088Z" fill="#F5D141"/>
<path d="M153.151 43.6478H145.09V52.3783H153.151V43.6478Z" fill="#EBC434"/>
<path d="M145.09 279.352H137.029V288.083H145.09V279.352Z" fill="#B68EEF"/>
<path d="M145.09 270.622H137.029V279.352H145.09V270.622Z" fill="#CB9FFF"/>
<path d="M145.09 261.891H137.029V270.622H145.09V261.891Z" fill="#CB9FFF"/>
<path d="M145.09 253.161H137.029V261.891H145.09V253.161Z" fill="#CB9FFF"/>
<path d="M145.09 244.43H137.029V253.161H145.09V244.43Z" fill="#CB9FFF"/>
<path d="M145.09 235.704H137.029V244.43H145.09V235.704Z" fill="#CB9FFF"/>
<path d="M145.09 226.974H137.029V235.704H145.09V226.974Z" fill="#CB9FFF"/>
<path d="M145.09 218.244H137.029V226.974H145.09V218.244Z" fill="#CB9FFF"/>
<path d="M145.09 209.513H137.029V218.244H145.09V209.513Z" fill="#CB9FFF"/>
<path d="M145.09 200.783H137.029V209.513H145.09V200.783Z" fill="#CB9FFF"/>
<path d="M145.09 192.052H137.029V200.783H145.09V192.052Z" fill="#CB9FFF"/>
<path d="M145.09 183.326H137.029V192.052H145.09V183.326Z" fill="#495059"/>
<path d="M145.09 174.596H137.029V183.326H145.09V174.596Z" fill="#F4E1E1"/>
<path d="M145.09 165.865H137.029V174.596H145.09V165.865Z" fill="#495059"/>
<path d="M145.09 157.135H137.029V165.865H145.09V157.135Z" fill="#CB9FFF"/>
<path d="M145.09 148.404H137.029V157.135H145.09V148.404Z" fill="#CB9FFF"/>
<path d="M145.09 139.678H137.029V148.404H145.09V139.678Z" fill="#73F4DB"/>
<path d="M145.09 130.948H137.029V139.678H145.09V130.948Z" fill="#CB9FFF"/>
<path d="M145.09 122.217H137.029V130.948H145.09V122.217Z" fill="#CB9FFF"/>
<path d="M145.09 113.487H137.029V122.217H145.09V113.487Z" fill="#CB9FFF"/>
<path d="M145.09 104.756H137.029V113.487H145.09V104.756Z" fill="#CB9FFF"/>
<path d="M145.09 96.026H137.029V104.756H145.09V96.026Z" fill="#CB9FFF"/>
<path d="M145.09 87.3H137.029V96.026H145.09V87.3Z" fill="#CB9FFF"/>
<path d="M145.09 78.5696H137.029V87.3H145.09V78.5696Z" fill="#CB9FFF"/>
<path d="M145.09 69.8391H137.029V78.5696H145.09V69.8391Z" fill="#CB9FFF"/>
<path d="M145.09 61.1088H137.029V69.8392H145.09V61.1088Z" fill="#CB9FFF"/>
<path d="M145.09 52.3783H137.029V61.1087H145.09V52.3783Z" fill="#EBC434"/>
<path d="M137.029 279.352H128.971V288.083H137.029V279.352Z" fill="#CB9FFF"/>
<path d="M137.029 270.622H128.971V279.352H137.029V270.622Z" fill="#CB9FFF"/>
<path d="M137.029 261.891H128.971V270.622H137.029V261.891Z" fill="#CB9FFF"/>
<path d="M137.029 253.161H128.971V261.891H137.029V253.161Z" fill="#CB9FFF"/>
<path d="M137.029 244.43H128.971V253.161H137.029V244.43Z" fill="#CB9FFF"/>
<path d="M137.029 235.704H128.971V244.43H137.029V235.704Z" fill="#CB9FFF"/>
<path d="M137.029 226.974H128.971V235.704H137.029V226.974Z" fill="#CB9FFF"/>
<path d="M137.029 218.244H128.971V226.974H137.029V218.244Z" fill="#CB9FFF"/>
<path d="M137.029 209.513H128.971V218.244H137.029V209.513Z" fill="#CB9FFF"/>
<path d="M137.029 200.783H128.971V209.513H137.029V200.783Z" fill="#CB9FFF"/>
<path d="M137.029 192.052H128.971V200.783H137.029V192.052Z" fill="#CB9FFF"/>
<path d="M137.029 183.326H128.971V192.052H137.029V183.326Z" fill="#495059"/>
<path d="M137.029 174.596H128.971V183.326H137.029V174.596Z" fill="#F4E1E1"/>
<path d="M137.029 165.865H128.971V174.596H137.029V165.865Z" fill="#495059"/>
<path d="M137.029 157.135H128.971V165.865H137.029V157.135Z" fill="#CB9FFF"/>
<path d="M137.029 148.404H128.971V157.135H137.029V148.404Z" fill="#73F4DB"/>
<path d="M137.029 139.678H128.971V148.404H137.029V139.678Z" fill="#73F4DB"/>
<path d="M137.029 130.948H128.971V139.678H137.029V130.948Z" fill="#CB9FFF"/>
<path d="M137.029 122.217H128.971V130.948H137.029V122.217Z" fill="#CB9FFF"/>
<path d="M137.029 113.487H128.971V122.217H137.029V113.487Z" fill="#CB9FFF"/>
<path d="M137.029 104.756H128.971V113.487H137.029V104.756Z" fill="#CB9FFF"/>
<path d="M137.029 96.026H128.971V104.756H137.029V96.026Z" fill="#CB9FFF"/>
<path d="M137.029 87.3H128.971V96.026H137.029V87.3Z" fill="#CB9FFF"/>
<path d="M137.029 78.5696H128.971V87.3H137.029V78.5696Z" fill="#CB9FFF"/>
<path d="M137.029 69.8391H128.971V78.5696H137.029V69.8391Z" fill="#CB9FFF"/>
<path d="M137.029 61.1088H128.971V69.8392H137.029V61.1088Z" fill="#CB9FFF"/>
<path d="M128.971 314.27H120.91V323H128.971V314.27Z" fill="#964CC1"/>
<path d="M128.971 305.539H120.91V314.27H128.971V305.539Z" fill="#964CC1"/>
<path d="M128.971 296.809H120.91V305.539H128.971V296.809Z" fill="#964CC1"/>
<path d="M128.971 288.083H120.91V296.809H128.971V288.083Z" fill="#722CA3"/>
<path d="M128.971 279.352H120.91V288.083H128.971V279.352Z" fill="#CB9FFF"/>
<path d="M128.971 270.622H120.91V279.352H128.971V270.622Z" fill="#CB9FFF"/>
<path d="M128.971 261.891H120.91V270.622H128.971V261.891Z" fill="#CB9FFF"/>
<path d="M128.971 253.161H120.91V261.891H128.971V253.161Z" fill="#CB9FFF"/>
<path d="M128.971 244.43H120.91V253.161H128.971V244.43Z" fill="#CB9FFF"/>
<path d="M128.971 235.704H120.91V244.43H128.971V235.704Z" fill="#CB9FFF"/>
<path d="M128.971 226.974H120.91V235.704H128.971V226.974Z" fill="#CB9FFF"/>
<path d="M128.971 218.244H120.91V226.974H128.971V218.244Z" fill="#CB9FFF"/>
<path d="M128.971 209.513H120.91V218.244H128.971V209.513Z" fill="#CB9FFF"/>
<path d="M128.971 200.783H120.91V209.513H128.971V200.783Z" fill="#CB9FFF"/>
<path d="M128.971 192.052H120.91V200.783H128.971V192.052Z" fill="#CB9FFF"/>
<path d="M128.971 183.326H120.91V192.052H128.971V183.326Z" fill="#495059"/>
<path d="M128.971 174.596H120.91V183.326H128.971V174.596Z" fill="#F4E1E1"/>
<path d="M128.971 165.865H120.91V174.596H128.971V165.865Z" fill="#495059"/>
<path d="M128.971 157.135H120.91V165.865H128.971V157.135Z" fill="#CB9FFF"/>
<path d="M128.971 148.404H120.91V157.135H128.971V148.404Z" fill="#CB9FFF"/>
<path d="M128.971 139.678H120.91V148.404H128.971V139.678Z" fill="#73F4DB"/>
<path d="M128.971 130.948H120.91V139.678H128.971V130.948Z" fill="#CB9FFF"/>
<path d="M128.971 122.217H120.91V130.948H128.971V122.217Z" fill="#CB9FFF"/>
<path d="M128.971 113.487H120.91V122.217H128.971V113.487Z" fill="#CB9FFF"/>
<path d="M128.971 104.756H120.91V113.487H128.971V104.756Z" fill="#CB9FFF"/>
<path d="M128.971 96.026H120.91V104.756H128.971V96.026Z" fill="#CB9FFF"/>
<path d="M128.971 87.3H120.91V96.026H128.971V87.3Z" fill="#CB9FFF"/>
<path d="M128.971 78.5696H120.91V87.3H128.971V78.5696Z" fill="#CB9FFF"/>
<path d="M128.971 69.8391H120.91V78.5696H128.971V69.8391Z" fill="#CB9FFF"/>
<path d="M128.971 61.1088H120.91V69.8392H128.971V61.1088Z" fill="#CB9FFF"/>
<path d="M120.91 314.27H112.849V323H120.91V314.27Z" fill="#964CC1"/>
<path d="M120.91 305.539H112.849V314.27H120.91V305.539Z" fill="#964CC1"/>
<path d="M120.91 296.809H112.849V305.539H120.91V296.809Z" fill="#964CC1"/>
<path d="M120.91 288.083H112.849V296.809H120.91V288.083Z" fill="#722CA3"/>
<path d="M120.91 279.352H112.849V288.083H120.91V279.352Z" fill="#722CA3"/>
<path d="M120.91 270.622H112.849V279.352H120.91V270.622Z" fill="#CB9FFF"/>
<path d="M120.91 261.891H112.849V270.622H120.91V261.891Z" fill="#CB9FFF"/>
<path d="M120.91 253.161H112.849V261.891H120.91V253.161Z" fill="#CB9FFF"/>
<path d="M120.91 244.43H112.849V253.161H120.91V244.43Z" fill="#CB9FFF"/>
<path d="M120.91 235.704H112.849V244.43H120.91V235.704Z" fill="#CB9FFF"/>
<path d="M120.91 226.974H112.849V235.704H120.91V226.974Z" fill="#CB9FFF"/>
<path d="M120.91 218.244H112.849V226.974H120.91V218.244Z" fill="#CB9FFF"/>
<path d="M120.91 209.513H112.849V218.244H120.91V209.513Z" fill="#CB9FFF"/>
<path d="M120.91 200.783H112.849V209.513H120.91V200.783Z" fill="#CB9FFF"/>
<path d="M120.91 192.052H112.849V200.783H120.91V192.052Z" fill="#CB9FFF"/>
<path d="M120.91 183.326H112.849V192.052H120.91V183.326Z" fill="#CB9FFF"/>
<path d="M120.91 174.596H112.849V183.326H120.91V174.596Z" fill="#495059"/>
<path d="M120.91 165.865H112.849V174.596H120.91V165.865Z" fill="#CB9FFF"/>
<path d="M120.91 157.135H112.849V165.865H120.91V157.135Z" fill="#CB9FFF"/>
<path d="M120.91 148.404H112.849V157.135H120.91V148.404Z" fill="#CB9FFF"/>
<path d="M120.91 139.678H112.849V148.404H120.91V139.678Z" fill="#CB9FFF"/>
<path d="M120.91 130.948H112.849V139.678H120.91V130.948Z" fill="#CB9FFF"/>
<path d="M120.91 122.217H112.849V130.948H120.91V122.217Z" fill="#CB9FFF"/>
<path d="M120.91 113.487H112.849V122.217H120.91V113.487Z" fill="#CB9FFF"/>
<path d="M120.91 104.756H112.849V113.487H120.91V104.756Z" fill="#CB9FFF"/>
<path d="M120.91 96.026H112.849V104.756H120.91V96.026Z" fill="#CB9FFF"/>
<path d="M120.91 87.3H112.849V96.026H120.91V87.3Z" fill="#CB9FFF"/>
<path d="M120.91 78.5696H112.849V87.3H120.91V78.5696Z" fill="#CB9FFF"/>
<path d="M120.91 69.8391H112.849V78.5696H120.91V69.8391Z" fill="#CB9FFF"/>
<path d="M120.91 61.1088H112.849V69.8392H120.91V61.1088Z" fill="#CB9FFF"/>
<path d="M112.849 305.539H104.788V314.27H112.849V305.539Z" fill="#964CC1"/>
<path d="M112.849 296.809H104.788V305.539H112.849V296.809Z" fill="#964CC1"/>
<path d="M112.849 288.083H104.788V296.809H112.849V288.083Z" fill="#964CC1"/>
<path d="M112.849 279.352H104.788V288.083H112.849V279.352Z" fill="#722CA3"/>
<path d="M112.849 270.622H104.788V279.352H112.849V270.622Z" fill="#B68EEF"/>
<path d="M112.849 261.891H104.788V270.622H112.849V261.891Z" fill="#B68EEF"/>
<path d="M112.849 253.161H104.788V261.891H112.849V253.161Z" fill="#CB9FFF"/>
<path d="M112.849 244.43H104.788V253.161H112.849V244.43Z" fill="#CB9FFF"/>
<path d="M112.849 235.704H104.788V244.43H112.849V235.704Z" fill="#CB9FFF"/>
<path d="M112.849 226.974H104.788V235.704H112.849V226.974Z" fill="#CB9FFF"/>
<path d="M112.849 218.244H104.788V226.974H112.849V218.244Z" fill="#B68EEF"/>
<path d="M112.849 209.513H104.788V218.244H112.849V209.513Z" fill="#B68EEF"/>
<path d="M112.849 200.783H104.788V209.513H112.849V200.783Z" fill="#CB9FFF"/>
<path d="M112.849 192.052H104.788V200.783H112.849V192.052Z" fill="#CB9FFF"/>
<path d="M112.849 183.326H104.788V192.052H112.849V183.326Z" fill="#CB9FFF"/>
<path d="M112.849 174.596H104.788V183.326H112.849V174.596Z" fill="#CB9FFF"/>
<path d="M112.849 165.865H104.788V174.596H112.849V165.865Z" fill="#CB9FFF"/>
<path d="M112.849 157.135H104.788V165.865H112.849V157.135Z" fill="#CB9FFF"/>
<path d="M112.849 148.404H104.788V157.135H112.849V148.404Z" fill="#CB9FFF"/>
<path d="M112.849 139.678H104.788V148.404H112.849V139.678Z" fill="#CB9FFF"/>
<path d="M112.849 130.948H104.788V139.678H112.849V130.948Z" fill="#CB9FFF"/>
<path d="M112.849 122.217H104.788V130.948H112.849V122.217Z" fill="#CB9FFF"/>
<path d="M112.849 113.487H104.788V122.217H112.849V113.487Z" fill="#CB9FFF"/>
<path d="M112.849 104.756H104.788V113.487H112.849V104.756Z" fill="#CB9FFF"/>
<path d="M112.849 96.026H104.788V104.756H112.849V96.026Z" fill="#CB9FFF"/>
<path d="M112.849 87.3H104.788V96.026H112.849V87.3Z" fill="#CB9FFF"/>
<path d="M112.849 78.5696H104.788V87.3H112.849V78.5696Z" fill="#CB9FFF"/>
<path d="M112.849 69.8391H104.788V78.5696H112.849V69.8391Z" fill="#CB9FFF"/>
<path d="M112.849 61.1088H104.788V69.8392H112.849V61.1088Z" fill="#CB9FFF"/>
<path d="M112.849 34.9218H104.788V43.6477H112.849V34.9218Z" fill="#F5D141"/>
<path d="M112.849 17.4609H104.788V26.1914H112.849V17.4609Z" fill="#F5D141"/>
<path d="M104.788 261.891H96.7266V270.622H104.788V261.891Z" fill="#B68EEF"/>
<path d="M104.788 253.161H96.7266V261.891H104.788V253.161Z" fill="#B68EEF"/>
<path d="M104.788 244.43H96.7266V253.161H104.788V244.43Z" fill="#B68EEF"/>
<path d="M104.788 235.704H96.7266V244.43H104.788V235.704Z" fill="#B68EEF"/>
<path d="M104.788 226.974H96.7266V235.704H104.788V226.974Z" fill="#B68EEF"/>
<path d="M104.788 218.244H96.7266V226.974H104.788V218.244Z" fill="#B68EEF"/>
<path d="M104.788 209.513H96.7266V218.244H104.788V209.513Z" fill="#B68EEF"/>
<path d="M104.788 200.783H96.7266V209.513H104.788V200.783Z" fill="#CB9FFF"/>
<path d="M104.788 192.052H96.7266V200.783H104.788V192.052Z" fill="#CB9FFF"/>
<path d="M104.788 183.326H96.7266V192.052H104.788V183.326Z" fill="#CB9FFF"/>
<path d="M104.788 174.596H96.7266V183.326H104.788V174.596Z" fill="#CB9FFF"/>
<path d="M104.788 165.865H96.7266V174.596H104.788V165.865Z" fill="#CB9FFF"/>
<path d="M104.788 157.135H96.7266V165.865H104.788V157.135Z" fill="#CB9FFF"/>
<path d="M104.788 148.404H96.7266V157.135H104.788V148.404Z" fill="#CB9FFF"/>
<path d="M104.788 139.678H96.7266V148.404H104.788V139.678Z" fill="#CB9FFF"/>
<path d="M104.788 130.948H96.7266V139.678H104.788V130.948Z" fill="#495059"/>
<path d="M104.788 122.217H96.7266V130.948H104.788V122.217Z" fill="#495059"/>
<path d="M104.788 113.487H96.7266V122.217H104.788V113.487Z" fill="#495059"/>
<path d="M104.788 104.756H96.7266V113.487H104.788V104.756Z" fill="#CB9FFF"/>
<path d="M104.788 96.026H96.7266V104.756H104.788V96.026Z" fill="#495059"/>
<path d="M104.788 87.3H96.7266V96.026H104.788V87.3Z" fill="#CB9FFF"/>
<path d="M104.788 78.5696H96.7266V87.3H104.788V78.5696Z" fill="#CB9FFF"/>
<path d="M104.788 69.8391H96.7266V78.5696H104.788V69.8391Z" fill="#CB9FFF"/>
<path d="M104.788 26.1914H96.7266V34.9219H104.788V26.1914Z" fill="#EBC434"/>
<path d="M96.7266 279.352H88.6694V288.083H96.7266V279.352Z" fill="#964CC1"/>
<path d="M96.7266 270.622H88.6694V279.352H96.7266V270.622Z" fill="#722CA3"/>
<path d="M96.7266 261.891H88.6694V270.622H96.7266V261.891Z" fill="#B68EEF"/>
<path d="M96.7266 253.161H88.6694V261.891H96.7266V253.161Z" fill="#B68EEF"/>
<path d="M96.7266 244.43H88.6694V253.161H96.7266V244.43Z" fill="#B68EEF"/>
<path d="M96.7266 235.704H88.6694V244.43H96.7266V235.704Z" fill="#B68EEF"/>
<path d="M96.7266 226.974H88.6694V235.704H96.7266V226.974Z" fill="#B68EEF"/>
<path d="M96.7266 218.244H88.6694V226.974H96.7266V218.244Z" fill="#B68EEF"/>
<path d="M96.7266 209.513H88.6694V218.244H96.7266V209.513Z" fill="#B68EEF"/>
<path d="M96.7266 200.783H88.6694V209.513H96.7266V200.783Z" fill="#B68EEF"/>
<path d="M96.7266 192.052H88.6694V200.783H96.7266V192.052Z" fill="#CB9FFF"/>
<path d="M96.7266 183.326H88.6694V192.052H96.7266V183.326Z" fill="#CB9FFF"/>
<path d="M96.7266 174.596H88.6694V183.326H96.7266V174.596Z" fill="#CB9FFF"/>
<path d="M96.7266 165.865H88.6694V174.596H96.7266V165.865Z" fill="#CB9FFF"/>
<path d="M96.7266 157.135H88.6694V165.865H96.7266V157.135Z" fill="#CB9FFF"/>
<path d="M96.7266 148.404H88.6694V157.135H96.7266V148.404Z" fill="#73F4DB"/>
<path d="M96.7266 139.678H88.6694V148.404H96.7266V139.678Z" fill="#73F4DB"/>
<path d="M96.7266 130.948H88.6694V139.678H96.7266V130.948Z" fill="#495059"/>
<path d="M96.7266 122.217H88.6694V130.948H96.7266V122.217Z" fill="#495059"/>
<path d="M96.7266 113.487H88.6694V122.217H96.7266V113.487Z" fill="#DEE2E5"/>
<path d="M96.7266 104.756H88.6694V113.487H96.7266V104.756Z" fill="#CB9FFF"/>
<path d="M96.7266 96.026H88.6694V104.756H96.7266V96.026Z" fill="#495059"/>
<path d="M96.7266 87.3H88.6694V96.026H96.7266V87.3Z" fill="#CB9FFF"/>
<path d="M96.7266 78.5696H88.6694V87.3H96.7266V78.5696Z" fill="#CB9FFF"/>
<path d="M96.7266 69.8391H88.6694V78.5696H96.7266V69.8391Z" fill="#CB9FFF"/>
<path d="M96.7266 52.3783H88.6694V61.1087H96.7266V52.3783Z" fill="#F5D141"/>
<path d="M96.7266 34.9218H88.6694V43.6477H96.7266V34.9218Z" fill="#F5D141"/>
<path d="M96.7266 26.1914H88.6694V34.9219H96.7266V26.1914Z" fill="#EBC434"/>
<path d="M96.7266 17.4609H88.6694V26.1914H96.7266V17.4609Z" fill="#EBC434"/>
<path d="M96.7266 0H88.6694V8.73045H96.7266V0Z" fill="#F5D141"/>
<path d="M88.6694 279.352H80.6082V288.083H88.6694V279.352Z" fill="#964CC1"/>
<path d="M88.6694 270.622H80.6082V279.352H88.6694V270.622Z" fill="#722CA3"/>
<path d="M88.6694 261.891H80.6082V270.622H88.6694V261.891Z" fill="#722CA3"/>
<path d="M88.6694 244.43H80.6082V253.161H88.6694V244.43Z" fill="#B68EEF"/>
<path d="M88.6694 235.704H80.6082V244.43H88.6694V235.704Z" fill="#B68EEF"/>
<path d="M88.6694 226.974H80.6082V235.704H88.6694V226.974Z" fill="#B68EEF"/>
<path d="M88.6694 218.244H80.6082V226.974H88.6694V218.244Z" fill="#B68EEF"/>
<path d="M88.6694 209.513H80.6082V218.244H88.6694V209.513Z" fill="#B68EEF"/>
<path d="M88.6694 200.783H80.6082V209.513H88.6694V200.783Z" fill="#B68EEF"/>
<path d="M88.6694 192.052H80.6082V200.783H88.6694V192.052Z" fill="#B68EEF"/>
<path d="M88.6694 183.326H80.6082V192.052H88.6694V183.326Z" fill="#CB9FFF"/>
<path d="M88.6694 174.596H80.6082V183.326H88.6694V174.596Z" fill="#CB9FFF"/>
<path d="M88.6694 165.865H80.6082V174.596H88.6694V165.865Z" fill="#CB9FFF"/>
<path d="M88.6694 157.135H80.6082V165.865H88.6694V157.135Z" fill="#73F4DB"/>
<path d="M88.6694 148.404H80.6082V157.135H88.6694V148.404Z" fill="#73F4DB"/>
<path d="M88.6694 139.678H80.6082V148.404H88.6694V139.678Z" fill="#73F4DB"/>
<path d="M88.6694 130.948H80.6082V139.678H88.6694V130.948Z" fill="#73F4DB"/>
<path d="M88.6694 122.217H80.6082V130.948H88.6694V122.217Z" fill="#CB9FFF"/>
<path d="M88.6694 113.487H80.6082V122.217H88.6694V113.487Z" fill="#CB9FFF"/>
<path d="M88.6694 104.756H80.6082V113.487H88.6694V104.756Z" fill="#495059"/>
<path d="M88.6694 96.026H80.6082V104.756H88.6694V96.026Z" fill="#495059"/>
<path d="M88.6694 87.3H80.6082V96.026H88.6694V87.3Z" fill="#CB9FFF"/>
<path d="M88.6694 78.5696H80.6082V87.3H88.6694V78.5696Z" fill="#CB9FFF"/>
<path d="M88.6694 69.8391H80.6082V78.5696H88.6694V69.8391Z" fill="#B68EEF"/>
<path d="M88.6694 61.1088H80.6082V69.8392H88.6694V61.1088Z" fill="#964CC1"/>
<path d="M88.6694 26.1914H80.6082V34.9219H88.6694V26.1914Z" fill="#F5D141"/>
<path d="M80.6081 288.083H72.5469V296.809H80.6081V288.083Z" fill="#964CC1"/>
<path d="M80.6081 279.352H72.5469V288.083H80.6081V279.352Z" fill="#964CC1"/>
<path d="M80.6081 270.622H72.5469V279.352H80.6081V270.622Z" fill="#964CC1"/>
<path d="M80.6081 235.704H72.5469V244.43H80.6081V235.704Z" fill="#964CC1"/>
<path d="M80.6081 226.974H72.5469V235.704H80.6081V226.974Z" fill="#722CA3"/>
<path d="M80.6081 218.244H72.5469V226.974H80.6081V218.244Z" fill="#722CA3"/>
<path d="M80.6081 209.513H72.5469V218.244H80.6081V209.513Z" fill="#722CA3"/>
<path d="M80.6081 192.052H72.5469V200.783H80.6081V192.052Z" fill="#B68EEF"/>
<path d="M80.6081 183.326H72.5469V192.052H80.6081V183.326Z" fill="#B68EEF"/>
<path d="M80.6081 174.596H72.5469V183.326H80.6081V174.596Z" fill="#CB9FFF"/>
<path d="M80.6081 165.865H72.5469V174.596H80.6081V165.865Z" fill="#CB9FFF"/>
<path d="M80.6081 157.135H72.5469V165.865H80.6081V157.135Z" fill="#73F4DB"/>
<path d="M80.6081 148.404H72.5469V157.135H80.6081V148.404Z" fill="#73F4DB"/>
<path d="M80.6081 139.678H72.5469V148.404H80.6081V139.678Z" fill="#73F4DB"/>
<path d="M80.6081 130.948H72.5469V139.678H80.6081V130.948Z" fill="#73F4DB"/>
<path d="M80.6081 122.217H72.5469V130.948H80.6081V122.217Z" fill="#CB9FFF"/>
<path d="M80.6081 113.487H72.5469V122.217H80.6081V113.487Z" fill="#CB9FFF"/>
<path d="M80.6081 104.756H72.5469V113.487H80.6081V104.756Z" fill="#CB9FFF"/>
<path d="M80.6081 96.026H72.5469V104.756H80.6081V96.026Z" fill="#CB9FFF"/>
<path d="M80.6081 87.3H72.5469V96.026H80.6081V87.3Z" fill="#CB9FFF"/>
<path d="M80.6081 78.5696H72.5469V87.3H80.6081V78.5696Z" fill="#B68EEF"/>
<path d="M80.6081 69.8391H72.5469V78.5696H80.6081V69.8391Z" fill="#964CC1"/>
<path d="M80.6081 61.1088H72.5469V69.8392H80.6081V61.1088Z" fill="#964CC1"/>
<path d="M80.6081 34.9218H72.5469V43.6477H80.6081V34.9218Z" fill="#F5D141"/>
<path d="M80.6081 17.4609H72.5469V26.1914H80.6081V17.4609Z" fill="#F5D141"/>
<path d="M72.5471 288.083H64.4858V296.809H72.5471V288.083Z" fill="#964CC1"/>
<path d="M72.5471 279.352H64.4858V288.083H72.5471V279.352Z" fill="#964CC1"/>
<path d="M72.5471 270.622H64.4858V279.352H72.5471V270.622Z" fill="#964CC1"/>
<path d="M72.5471 235.704H64.4858V244.43H72.5471V235.704Z" fill="#964CC1"/>
<path d="M72.5471 226.974H64.4858V235.704H72.5471V226.974Z" fill="#964CC1"/>
<path d="M72.5471 218.244H64.4858V226.974H72.5471V218.244Z" fill="#722CA3"/>
<path d="M72.5471 192.052H64.4858V200.783H72.5471V192.052Z" fill="#B68EEF"/>
<path d="M72.5471 183.326H64.4858V192.052H72.5471V183.326Z" fill="#B68EEF"/>
<path d="M72.5471 174.596H64.4858V183.326H72.5471V174.596Z" fill="#B68EEF"/>
<path d="M72.5471 165.865H64.4858V174.596H72.5471V165.865Z" fill="#B68EEF"/>
<path d="M72.5471 157.135H64.4858V165.865H72.5471V157.135Z" fill="#B68EEF"/>
<path d="M72.5471 148.404H64.4858V157.135H72.5471V148.404Z" fill="#495059"/>
<path d="M72.5471 139.678H64.4858V148.404H72.5471V139.678Z" fill="#73F4DB"/>
<path d="M72.5471 130.948H64.4858V139.678H72.5471V130.948Z" fill="#495059"/>
<path d="M72.5471 122.217H64.4858V130.948H72.5471V122.217Z" fill="#CB9FFF"/>
<path d="M72.5471 113.487H64.4858V122.217H72.5471V113.487Z" fill="#CB9FFF"/>
<path d="M72.5471 104.756H64.4858V113.487H72.5471V104.756Z" fill="#CB9FFF"/>
<path d="M72.5471 96.026H64.4858V104.756H72.5471V96.026Z" fill="#B68EEF"/>
<path d="M72.5471 87.3H64.4858V96.026H72.5471V87.3Z" fill="#B68EEF"/>
<path d="M72.5471 78.5696H64.4858V87.3H72.5471V78.5696Z" fill="#964CC1"/>
<path d="M72.5471 69.8391H64.4858V78.5696H72.5471V69.8391Z" fill="#964CC1"/>
<path d="M72.5471 61.1088H64.4858V69.8392H72.5471V61.1088Z" fill="#964CC1"/>
<path d="M72.5471 52.3783H64.4858V61.1087H72.5471V52.3783Z" fill="#964CC1"/>
<path d="M64.4858 288.083H56.4246V296.809H64.4858V288.083Z" fill="#964CC1"/>
<path d="M64.4858 279.352H56.4246V288.083H64.4858V279.352Z" fill="#964CC1"/>
<path d="M64.4858 270.622H56.4246V279.352H64.4858V270.622Z" fill="#964CC1"/>
<path d="M64.4858 235.704H56.4246V244.43H64.4858V235.704Z" fill="#964CC1"/>
<path d="M64.4858 226.974H56.4246V235.704H64.4858V226.974Z" fill="#964CC1"/>
<path d="M64.4858 218.244H56.4246V226.974H64.4858V218.244Z" fill="#964CC1"/>
<path d="M64.4858 183.326H56.4246V192.052H64.4858V183.326Z" fill="#B68EEF"/>
<path d="M64.4858 174.596H56.4246V183.326H64.4858V174.596Z" fill="#B68EEF"/>
<path d="M64.4858 165.865H56.4246V174.596H64.4858V165.865Z" fill="#B68EEF"/>
<path d="M64.4858 157.135H56.4246V165.865H64.4858V157.135Z" fill="#495059"/>
<path d="M64.4858 148.404H56.4246V157.135H64.4858V148.404Z" fill="#B68EEF"/>
<path d="M64.4858 139.678H56.4246V148.404H64.4858V139.678Z" fill="#495059"/>
<path d="M64.4858 130.948H56.4246V139.678H64.4858V130.948Z" fill="#B68EEF"/>
<path d="M64.4858 122.217H56.4246V130.948H64.4858V122.217Z" fill="#495059"/>
<path d="M64.4858 113.487H56.4246V122.217H64.4858V113.487Z" fill="#B68EEF"/>
<path d="M64.4858 104.756H56.4246V113.487H64.4858V104.756Z" fill="#B68EEF"/>
<path d="M64.4858 96.026H56.4246V104.756H64.4858V96.026Z" fill="#F5D141"/>
<path d="M64.4858 87.3H56.4246V96.026H64.4858V87.3Z" fill="#F5D141"/>
<path d="M64.4858 78.5696H56.4246V87.3H64.4858V78.5696Z" fill="#F5D141"/>
<path d="M64.4858 69.8391H56.4246V78.5696H64.4858V69.8391Z" fill="#F5D141"/>
<path d="M64.4858 61.1088H56.4246V69.8392H64.4858V61.1088Z" fill="#964CC1"/>
<path d="M64.4858 52.3783H56.4246V61.1087H64.4858V52.3783Z" fill="#964CC1"/>
<path d="M64.4858 43.6478H56.4246V52.3783H64.4858V43.6478Z" fill="#964CC1"/>
<path d="M56.4245 279.352H48.3633V288.083H56.4245V279.352Z" fill="#964CC1"/>
<path d="M56.4245 270.622H48.3633V279.352H56.4245V270.622Z" fill="#964CC1"/>
<path d="M56.4245 261.891H48.3633V270.622H56.4245V261.891Z" fill="#964CC1"/>
<path d="M56.4245 253.161H48.3633V261.891H56.4245V253.161Z" fill="#CB9FFF"/>
<path d="M56.4245 235.704H48.3633V244.43H56.4245V235.704Z" fill="#964CC1"/>
<path d="M56.4245 226.974H48.3633V235.704H56.4245V226.974Z" fill="#964CC1"/>
<path d="M56.4245 218.244H48.3633V226.974H56.4245V218.244Z" fill="#964CC1"/>
<path d="M56.4245 174.596H48.3633V183.326H56.4245V174.596Z" fill="#B68EEF"/>
<path d="M56.4245 165.865H48.3633V174.596H56.4245V165.865Z" fill="#B68EEF"/>
<path d="M56.4245 157.135H48.3633V165.865H56.4245V157.135Z" fill="#B68EEF"/>
<path d="M56.4245 148.404H48.3633V157.135H56.4245V148.404Z" fill="#B68EEF"/>
<path d="M56.4245 139.678H48.3633V148.404H56.4245V139.678Z" fill="#495059"/>
<path d="M56.4245 130.948H48.3633V139.678H56.4245V130.948Z" fill="#B68EEF"/>
<path d="M56.4245 122.217H48.3633V130.948H56.4245V122.217Z" fill="#B68EEF"/>
<path d="M56.4245 113.487H48.3633V122.217H56.4245V113.487Z" fill="#B68EEF"/>
<path d="M56.4245 104.756H48.3633V113.487H56.4245V104.756Z" fill="#F5D141"/>
<path d="M56.4245 96.026H48.3633V104.756H56.4245V96.026Z" fill="#F5D141"/>
<path d="M56.4245 87.3H48.3633V96.026H56.4245V87.3Z" fill="#F5D141"/>
<path d="M56.4245 78.5696H48.3633V87.3H56.4245V78.5696Z" fill="#F5D141"/>
<path d="M56.4245 69.8391H48.3633V78.5696H56.4245V69.8391Z" fill="#F5D141"/>
<path d="M56.4245 61.1088H48.3633V69.8392H56.4245V61.1088Z" fill="#F5D141"/>
<path d="M56.4245 52.3783H48.3633V61.1087H56.4245V52.3783Z" fill="#964CC1"/>
<path d="M56.4245 43.6478H48.3633V52.3783H56.4245V43.6478Z" fill="#964CC1"/>
<path d="M48.3633 270.622H40.3062V279.352H48.3633V270.622Z" fill="#964CC1"/>
<path d="M48.3633 261.891H40.3062V270.622H48.3633V261.891Z" fill="#964CC1"/>
<path d="M48.3633 253.161H40.3062V261.891H48.3633V253.161Z" fill="#CB9FFF"/>
<path d="M48.3633 226.974H40.3062V235.704H48.3633V226.974Z" fill="#964CC1"/>
<path d="M48.3633 218.244H40.3062V226.974H48.3633V218.244Z" fill="#964CC1"/>
<path d="M48.3633 209.513H40.3062V218.244H48.3633V209.513Z" fill="#964CC1"/>
<path d="M48.3633 165.865H40.3062V174.596H48.3633V165.865Z" fill="#B68EEF"/>
<path d="M48.3633 157.135H40.3062V165.865H48.3633V157.135Z" fill="#B68EEF"/>
<path d="M48.3633 148.404H40.3062V157.135H48.3633V148.404Z" fill="#B68EEF"/>
<path d="M48.3633 139.678H40.3062V148.404H48.3633V139.678Z" fill="#B68EEF"/>
<path d="M48.3633 130.948H40.3062V139.678H48.3633V130.948Z" fill="#B68EEF"/>
<path d="M48.3633 122.217H40.3062V130.948H48.3633V122.217Z" fill="#B68EEF"/>
<path d="M48.3633 113.487H40.3062V122.217H48.3633V113.487Z" fill="#B68EEF"/>
<path d="M48.3633 104.756H40.3062V113.487H48.3633V104.756Z" fill="#F5D141"/>
<path d="M48.3633 96.026H40.3062V104.756H48.3633V96.026Z" fill="#F5D141"/>
<path d="M48.3633 87.3H40.3062V96.026H48.3633V87.3Z" fill="#73F4DB"/>
<path d="M48.3633 78.5696H40.3062V87.3H48.3633V78.5696Z" fill="#73F4DB"/>
<path d="M48.3633 69.8391H40.3062V78.5696H48.3633V69.8391Z" fill="#F5D141"/>
<path d="M48.3633 61.1088H40.3062V69.8392H48.3633V61.1088Z" fill="#F5D141"/>
<path d="M48.3633 52.3783H40.3062V61.1087H48.3633V52.3783Z" fill="#964CC1"/>
<path d="M48.3633 43.6478H40.3062V52.3783H48.3633V43.6478Z" fill="#964CC1"/>
<path d="M40.3061 261.891H32.2449V270.622H40.3061V261.891Z" fill="#CB9FFF"/>
<path d="M40.3061 253.161H32.2449V261.891H40.3061V253.161Z" fill="#CB9FFF"/>
<path d="M40.3061 226.974H32.2449V235.704H40.3061V226.974Z" fill="#964CC1"/>
<path d="M40.3061 218.244H32.2449V226.974H40.3061V218.244Z" fill="#964CC1"/>
<path d="M40.3061 209.513H32.2449V218.244H40.3061V209.513Z" fill="#964CC1"/>
<path d="M40.3061 200.783H32.2449V209.513H40.3061V200.783Z" fill="#964CC1"/>
<path d="M40.3061 113.487H32.2449V122.217H40.3061V113.487Z" fill="#F5D141"/>
<path d="M40.3061 104.756H32.2449V113.487H40.3061V104.756Z" fill="#F5D141"/>
<path d="M40.3061 87.3H32.2449V96.026H40.3061V87.3Z" fill="#73F4DB"/>
<path d="M40.3061 78.5696H32.2449V87.3H40.3061V78.5696Z" fill="#73F4DB"/>
<path d="M40.3061 69.8391H32.2449V78.5696H40.3061V69.8391Z" fill="#F5D141"/>
<path d="M40.3061 61.1088H32.2449V69.8392H40.3061V61.1088Z" fill="#42F49B"/>
<path d="M40.3061 52.3783H32.2449V61.1087H40.3061V52.3783Z" fill="#964CC1"/>
<path d="M40.3061 43.6478H32.2449V52.3783H40.3061V43.6478Z" fill="#964CC1"/>
<path d="M32.2448 218.244H24.1836V226.974H32.2448V218.244Z" fill="#964CC1"/>
<path d="M32.2448 209.513H24.1836V218.244H32.2448V209.513Z" fill="#964CC1"/>
<path d="M32.2448 183.326H24.1836V192.052H32.2448V183.326Z" fill="#EBC434"/>
<path d="M32.2448 122.217H24.1836V130.948H32.2448V122.217Z" fill="#F5D141"/>
<path d="M32.2448 113.487H24.1836V122.217H32.2448V113.487Z" fill="#F5D141"/>
<path d="M32.2448 104.756H24.1836V113.487H32.2448V104.756Z" fill="#F5D141"/>
<path d="M32.2448 78.5696H24.1836V87.3H32.2448V78.5696Z" fill="#F5D141"/>
<path d="M32.2448 69.8391H24.1836V78.5696H32.2448V69.8391Z" fill="#42F49B"/>
<path d="M32.2448 61.1088H24.1836V69.8392H32.2448V61.1088Z" fill="#42F49B"/>
<path d="M24.1838 157.135H16.1226V165.865H24.1838V157.135Z" fill="#F5D141"/>
<path d="M24.1838 148.404H16.1226V157.135H24.1838V148.404Z" fill="#F5D141"/>
<path d="M24.1838 130.948H16.1226V139.678H24.1838V130.948Z" fill="#F5D141"/>
<path d="M24.1838 122.217H16.1226V130.948H24.1838V122.217Z" fill="#F5D141"/>
<path d="M24.1838 113.487H16.1226V122.217H24.1838V113.487Z" fill="#F5D141"/>
<path d="M24.1838 78.5696H16.1226V87.3H24.1838V78.5696Z" fill="#DEE2E5"/>
<path d="M24.1838 69.8391H16.1226V78.5696H24.1838V69.8391Z" fill="#DEE2E5"/>
<path d="M16.1225 157.135H8.06128V165.865H16.1225V157.135Z" fill="#42F49B"/>
<path d="M16.1225 148.404H8.06128V157.135H16.1225V148.404Z" fill="#DEE2E5"/>
<path d="M8.06123 244.43H0V253.161H8.06123V244.43Z" fill="#EBC434"/>
</svg>
