<svg width="251" height="247" viewBox="0 0 251 247" fill="none" xmlns="http://www.w3.org/2000/svg">
<path d="M251 30.8774H243.156V38.5968H251V30.8774Z" fill="#F48F42"/>
<path d="M251 23.1581H243.156V30.8774H251V23.1581Z" fill="#F48F42"/>
<path d="M251 15.4387H243.156V23.1581H251V15.4387Z" fill="#F48F42"/>
<path d="M251 7.71936H243.156V15.4387H251V7.71936Z" fill="#F48F42"/>
<path d="M243.156 77.1897H235.311V84.9091H243.156V77.1897Z" fill="#F48F42"/>
<path d="M243.156 69.4703H235.311V77.1897H243.156V69.4703Z" fill="#F48F42"/>
<path d="M243.156 38.5968H235.311V46.3122H243.156V38.5968Z" fill="#F48F42"/>
<path d="M243.156 30.8774H235.311V38.5968H243.156V30.8774Z" fill="#F48F42"/>
<path d="M243.156 23.1581H235.311V30.8774H243.156V23.1581Z" fill="#F48F42"/>
<path d="M243.156 15.4387H235.311V23.1581H243.156V15.4387Z" fill="#F48F42"/>
<path d="M243.156 7.71936H235.311V15.4387H243.156V7.71936Z" fill="#F48F42"/>
<path d="M243.156 0H235.311V7.71937H243.156V0Z" fill="#F48F42"/>
<path d="M235.311 77.1897H227.467V84.9091H235.311V77.1897Z" fill="#F26E14"/>
<path d="M235.311 69.4703H227.467V77.1897H235.311V69.4703Z" fill="#FF91AB"/>
<path d="M235.311 54.0316H227.467V61.751H235.311V54.0316Z" fill="#F48F42"/>
<path d="M235.311 46.3123H227.467V54.0316H235.311V46.3123Z" fill="#F48F42"/>
<path d="M235.311 38.5968H227.467V46.3122H235.311V38.5968Z" fill="#F48F42"/>
<path d="M235.311 30.8774H227.467V38.5968H235.311V30.8774Z" fill="#F48F42"/>
<path d="M235.311 7.71936H227.467V15.4387H235.311V7.71936Z" fill="#F48F42"/>
<path d="M235.311 0H227.467V7.71937H235.311V0Z" fill="#F26E14"/>
<path d="M227.467 54.0316H219.622V61.751H227.467V54.0316Z" fill="#F48F42"/>
<path d="M227.467 46.3123H219.622V54.0316H227.467V46.3123Z" fill="#F48F42"/>
<path d="M227.467 38.5968H219.622V46.3122H227.467V38.5968Z" fill="#F48F42"/>
<path d="M227.467 7.71936H219.622V15.4387H227.467V7.71936Z" fill="#F26E14"/>
<path d="M227.467 0H219.622V7.71937H227.467V0Z" fill="#F26E14"/>
<path d="M219.622 38.5968H211.782V46.3122H219.622V38.5968Z" fill="#F4E1E1"/>
<path d="M219.622 30.8774H211.782V38.5968H219.622V30.8774Z" fill="#F4E1E1"/>
<path d="M219.622 23.1581H211.782V30.8774H219.622V23.1581Z" fill="#F4E1E1"/>
<path d="M219.622 15.4387H211.782V23.1581H219.622V15.4387Z" fill="#F4E1E1"/>
<path d="M219.622 7.71936H211.782V15.4387H219.622V7.71936Z" fill="#AA2639"/>
<path d="M219.622 0H211.782V7.71937H219.622V0Z" fill="#F48F42"/>
<path d="M211.782 138.937H203.938V146.656H211.782V138.937Z" fill="#AA2639"/>
<path d="M211.782 131.217H203.938V138.937H211.782V131.217Z" fill="#AA2639"/>
<path d="M211.782 123.502H203.938V131.217H211.782V123.502Z" fill="#AA2639"/>
<path d="M211.782 115.783H203.938V123.502H211.782V115.783Z" fill="#AA2639"/>
<path d="M211.782 108.063H203.938V115.783H211.782V108.063Z" fill="#BC4052"/>
<path d="M211.782 100.344H203.938V108.063H211.782V100.344Z" fill="#E2505E"/>
<path d="M211.782 92.6245H203.938V100.344H211.782V92.6245Z" fill="#E2505E"/>
<path d="M211.782 84.9091H203.938V92.6245H211.782V84.9091Z" fill="#E2505E"/>
<path d="M211.782 77.1897H203.938V84.9091H211.782V77.1897Z" fill="#E2505E"/>
<path d="M211.782 69.4703H203.938V77.1897H211.782V69.4703Z" fill="#E2505E"/>
<path d="M211.782 54.0316H203.938V61.751H211.782V54.0316Z" fill="#F4E1E1"/>
<path d="M211.782 46.3123H203.938V54.0316H211.782V46.3123Z" fill="#F4E1E1"/>
<path d="M211.782 38.5968H203.938V46.3122H211.782V38.5968Z" fill="#F4E1E1"/>
<path d="M211.782 30.8774H203.938V38.5968H211.782V30.8774Z" fill="#F4E1E1"/>
<path d="M211.782 23.1581H203.938V30.8774H211.782V23.1581Z" fill="#F4E1E1"/>
<path d="M211.782 15.4387H203.938V23.1581H211.782V15.4387Z" fill="#F4E1E1"/>
<path d="M211.782 7.71936H203.938V15.4387H211.782V7.71936Z" fill="#AA2639"/>
<path d="M211.782 0H203.938V7.71937H211.782V0Z" fill="#AA2639"/>
<path d="M203.938 146.656H196.093V154.376H203.938V146.656Z" fill="#AA2639"/>
<path d="M203.938 138.937H196.093V146.656H203.938V138.937Z" fill="#AA2639"/>
<path d="M203.938 131.217H196.093V138.937H203.938V131.217Z" fill="#AA2639"/>
<path d="M203.938 123.502H196.093V131.217H203.938V123.502Z" fill="#BC4052"/>
<path d="M203.938 115.783H196.093V123.502H203.938V115.783Z" fill="#E2505E"/>
<path d="M203.938 108.063H196.093V115.783H203.938V108.063Z" fill="#E2505E"/>
<path d="M203.938 100.344H196.093V108.063H203.938V100.344Z" fill="#E2505E"/>
<path d="M203.938 92.6245H196.093V100.344H203.938V92.6245Z" fill="#E2505E"/>
<path d="M203.938 84.9091H196.093V92.6245H203.938V84.9091Z" fill="#23282D"/>
<path d="M203.938 77.1897H196.093V84.9091H203.938V77.1897Z" fill="#E2505E"/>
<path d="M203.938 69.4703H196.093V77.1897H203.938V69.4703Z" fill="#E2505E"/>
<path d="M203.938 61.751H196.093V69.4703H203.938V61.751Z" fill="#E2505E"/>
<path d="M203.938 54.0316H196.093V61.751H203.938V54.0316Z" fill="#E2505E"/>
<path d="M203.938 46.3123H196.093V54.0316H203.938V46.3123Z" fill="#F4E1E1"/>
<path d="M203.938 38.5968H196.093V46.3122H203.938V38.5968Z" fill="#F4E1E1"/>
<path d="M203.938 30.8774H196.093V38.5968H203.938V30.8774Z" fill="#F4E1E1"/>
<path d="M203.938 23.1581H196.093V30.8774H203.938V23.1581Z" fill="#F4E1E1"/>
<path d="M203.938 15.4387H196.093V23.1581H203.938V15.4387Z" fill="#AA2639"/>
<path d="M203.938 7.71936H196.093V15.4387H203.938V7.71936Z" fill="#AA2639"/>
<path d="M203.938 0H196.093V7.71937H203.938V0Z" fill="#AA2639"/>
<path d="M196.093 154.375H188.249V162.095H196.093V154.375Z" fill="#AA2639"/>
<path d="M196.093 146.656H188.249V154.376H196.093V146.656Z" fill="#AA2639"/>
<path d="M196.093 138.937H188.249V146.656H196.093V138.937Z" fill="#AA2639"/>
<path d="M196.093 131.217H188.249V138.937H196.093V131.217Z" fill="#AA2639"/>
<path d="M196.093 123.502H188.249V131.217H196.093V123.502Z" fill="#E2505E"/>
<path d="M196.093 115.783H188.249V123.502H196.093V115.783Z" fill="#E2505E"/>
<path d="M196.093 108.063H188.249V115.783H196.093V108.063Z" fill="#E2505E"/>
<path d="M196.093 100.344H188.249V108.063H196.093V100.344Z" fill="#23282D"/>
<path d="M196.093 92.6245H188.249V100.344H196.093V92.6245Z" fill="#E2505E"/>
<path d="M196.093 84.9091H188.249V92.6245H196.093V84.9091Z" fill="#23282D"/>
<path d="M196.093 77.1897H188.249V84.9091H196.093V77.1897Z" fill="#E2505E"/>
<path d="M196.093 69.4703H188.249V77.1897H196.093V69.4703Z" fill="#23282D"/>
<path d="M196.093 61.751H188.249V69.4703H196.093V61.751Z" fill="#E2505E"/>
<path d="M196.093 54.0316H188.249V61.751H196.093V54.0316Z" fill="#E2505E"/>
<path d="M196.093 46.3123H188.249V54.0316H196.093V46.3123Z" fill="#E2505E"/>
<path d="M196.093 38.5968H188.249V46.3122H196.093V38.5968Z" fill="#E2505E"/>
<path d="M196.093 30.8774H188.249V38.5968H196.093V30.8774Z" fill="#F4E1E1"/>
<path d="M196.093 23.1581H188.249V30.8774H196.093V23.1581Z" fill="#F4E1E1"/>
<path d="M196.093 15.4387H188.249V23.1581H196.093V15.4387Z" fill="#AA2639"/>
<path d="M196.093 7.71936H188.249V15.4387H196.093V7.71936Z" fill="#AA2639"/>
<path d="M196.093 0H188.249V7.71937H196.093V0Z" fill="#AA2639"/>
<path d="M188.249 162.095H180.405V169.814H188.249V162.095Z" fill="#AA2639"/>
<path d="M188.249 154.375H180.405V162.095H188.249V154.375Z" fill="#AA2639"/>
<path d="M188.249 146.656H180.405V154.376H188.249V146.656Z" fill="#AA2639"/>
<path d="M188.249 138.937H180.405V146.656H188.249V138.937Z" fill="#911D33"/>
<path d="M188.249 131.217H180.405V138.937H188.249V131.217Z" fill="#E2505E"/>
<path d="M188.249 123.502H180.405V131.217H188.249V123.502Z" fill="#E2505E"/>
<path d="M188.249 115.783H180.405V123.502H188.249V115.783Z" fill="#E2505E"/>
<path d="M188.249 108.063H180.405V115.783H188.249V108.063Z" fill="#E2505E"/>
<path d="M188.249 100.344H180.405V108.063H188.249V100.344Z" fill="#E2505E"/>
<path d="M188.249 92.6245H180.405V100.344H188.249V92.6245Z" fill="#23282D"/>
<path d="M188.249 84.9091H180.405V92.6245H188.249V84.9091Z" fill="#F4E1E1"/>
<path d="M188.249 77.1897H180.405V84.9091H188.249V77.1897Z" fill="#23282D"/>
<path d="M188.249 69.4703H180.405V77.1897H188.249V69.4703Z" fill="#E2505E"/>
<path d="M188.249 61.751H180.405V69.4703H188.249V61.751Z" fill="#E2505E"/>
<path d="M188.249 54.0316H180.405V61.751H188.249V54.0316Z" fill="#E2505E"/>
<path d="M188.249 46.3123H180.405V54.0316H188.249V46.3123Z" fill="#E2505E"/>
<path d="M188.249 38.5968H180.405V46.3122H188.249V38.5968Z" fill="#E2505E"/>
<path d="M188.249 30.8774H180.405V38.5968H188.249V30.8774Z" fill="#E2505E"/>
<path d="M188.249 23.1581H180.405V30.8774H188.249V23.1581Z" fill="#AA2639"/>
<path d="M188.249 15.4387H180.405V23.1581H188.249V15.4387Z" fill="#AA2639"/>
<path d="M188.249 7.71936H180.405V15.4387H188.249V7.71936Z" fill="#AA2639"/>
<path d="M180.405 162.095H172.56V169.814H180.405V162.095Z" fill="#911D33"/>
<path d="M180.405 154.375H172.56V162.095H180.405V154.375Z" fill="#911D33"/>
<path d="M180.405 146.656H172.56V154.376H180.405V146.656Z" fill="#911D33"/>
<path d="M180.405 138.937H172.56V146.656H180.405V138.937Z" fill="#BC4052"/>
<path d="M180.405 131.217H172.56V138.937H180.405V131.217Z" fill="#E2505E"/>
<path d="M180.405 123.502H172.56V131.217H180.405V123.502Z" fill="#E2505E"/>
<path d="M180.405 115.783H172.56V123.502H180.405V115.783Z" fill="#E2505E"/>
<path d="M180.405 108.063H172.56V115.783H180.405V108.063Z" fill="#E2505E"/>
<path d="M180.405 100.344H172.56V108.063H180.405V100.344Z" fill="#F4E1E1"/>
<path d="M180.405 92.6245H172.56V100.344H180.405V92.6245Z" fill="#F4E1E1"/>
<path d="M180.405 84.9091H172.56V92.6245H180.405V84.9091Z" fill="#F4E1E1"/>
<path d="M180.405 77.1897H172.56V84.9091H180.405V77.1897Z" fill="#F4E1E1"/>
<path d="M180.405 69.4703H172.56V77.1897H180.405V69.4703Z" fill="#23282D"/>
<path d="M180.405 61.751H172.56V69.4703H180.405V61.751Z" fill="#E2505E"/>
<path d="M180.405 54.0316H172.56V61.751H180.405V54.0316Z" fill="#E2505E"/>
<path d="M180.405 46.3123H172.56V54.0316H180.405V46.3123Z" fill="#E2505E"/>
<path d="M180.405 38.5968H172.56V46.3122H180.405V38.5968Z" fill="#E2505E"/>
<path d="M180.405 30.8774H172.56V38.5968H180.405V30.8774Z" fill="#E2505E"/>
<path d="M180.405 23.1581H172.56V30.8774H180.405V23.1581Z" fill="#AA2639"/>
<path d="M180.405 15.4387H172.56V23.1581H180.405V15.4387Z" fill="#AA2639"/>
<path d="M180.405 7.71936H172.56V15.4387H180.405V7.71936Z" fill="#AA2639"/>
<path d="M172.56 177.53H164.72V185.249H172.56V177.53Z" fill="#E2505E"/>
<path d="M172.56 169.814H164.72V177.53H172.56V169.814Z" fill="#E2505E"/>
<path d="M172.56 162.095H164.72V169.814H172.56V162.095Z" fill="#E2505E"/>
<path d="M172.56 154.375H164.72V162.095H172.56V154.375Z" fill="#E2505E"/>
<path d="M172.56 146.656H164.72V154.376H172.56V146.656Z" fill="#E2505E"/>
<path d="M172.56 138.937H164.72V146.656H172.56V138.937Z" fill="#E2505E"/>
<path d="M172.56 131.217H164.72V138.937H172.56V131.217Z" fill="#E2505E"/>
<path d="M172.56 123.502H164.72V131.217H172.56V123.502Z" fill="#E2505E"/>
<path d="M172.56 115.783H164.72V123.502H172.56V115.783Z" fill="#E2505E"/>
<path d="M172.56 108.063H164.72V115.783H172.56V108.063Z" fill="#E2505E"/>
<path d="M172.56 100.344H164.72V108.063H172.56V100.344Z" fill="#F4E1E1"/>
<path d="M172.56 92.6245H164.72V100.344H172.56V92.6245Z" fill="#F4E1E1"/>
<path d="M172.56 84.9091H164.72V92.6245H172.56V84.9091Z" fill="#F4E1E1"/>
<path d="M172.56 77.1897H164.72V84.9091H172.56V77.1897Z" fill="white"/>
<path d="M172.56 69.4703H164.72V77.1897H172.56V69.4703Z" fill="#23282D"/>
<path d="M172.56 61.751H164.72V69.4703H172.56V61.751Z" fill="#E2505E"/>
<path d="M172.56 54.0316H164.72V61.751H172.56V54.0316Z" fill="#E2505E"/>
<path d="M172.56 46.3123H164.72V54.0316H172.56V46.3123Z" fill="#E2505E"/>
<path d="M172.56 38.5968H164.72V46.3122H172.56V38.5968Z" fill="#23282D"/>
<path d="M172.56 30.8774H164.72V38.5968H172.56V30.8774Z" fill="#E2505E"/>
<path d="M172.56 23.1581H164.72V30.8774H172.56V23.1581Z" fill="#E2505E"/>
<path d="M172.56 15.4387H164.72V23.1581H172.56V15.4387Z" fill="#AA2639"/>
<path d="M164.72 192.968H156.875V200.688H164.72V192.968Z" fill="#E2505E"/>
<path d="M164.72 185.249H156.875V192.968H164.72V185.249Z" fill="#E2505E"/>
<path d="M164.72 177.53H156.875V185.249H164.72V177.53Z" fill="#E2505E"/>
<path d="M164.72 169.814H156.875V177.53H164.72V169.814Z" fill="#E2505E"/>
<path d="M164.72 162.095H156.875V169.814H164.72V162.095Z" fill="#E2505E"/>
<path d="M164.72 154.375H156.875V162.095H164.72V154.375Z" fill="#E2505E"/>
<path d="M164.72 146.656H156.875V154.376H164.72V146.656Z" fill="#E2505E"/>
<path d="M164.72 138.937H156.875V146.656H164.72V138.937Z" fill="#E2505E"/>
<path d="M164.72 131.217H156.875V138.937H164.72V131.217Z" fill="#E2505E"/>
<path d="M164.72 123.502H156.875V131.217H164.72V123.502Z" fill="#E2505E"/>
<path d="M164.72 115.783H156.875V123.502H164.72V115.783Z" fill="#E2505E"/>
<path d="M164.72 108.063H156.875V115.783H164.72V108.063Z" fill="#E2505E"/>
<path d="M164.72 100.344H156.875V108.063H164.72V100.344Z" fill="#E2505E"/>
<path d="M164.72 92.6245H156.875V100.344H164.72V92.6245Z" fill="#F4E1E1"/>
<path d="M164.72 84.9091H156.875V92.6245H164.72V84.9091Z" fill="#23282D"/>
<path d="M164.72 77.1897H156.875V84.9091H164.72V77.1897Z" fill="#23282D"/>
<path d="M164.72 69.4703H156.875V77.1897H164.72V69.4703Z" fill="white"/>
<path d="M164.72 61.751H156.875V69.4703H164.72V61.751Z" fill="#E2505E"/>
<path d="M164.72 54.0316H156.875V61.751H164.72V54.0316Z" fill="#E2505E"/>
<path d="M164.72 46.3123H156.875V54.0316H164.72V46.3123Z" fill="#E2505E"/>
<path d="M164.72 38.5968H156.875V46.3122H164.72V38.5968Z" fill="#E2505E"/>
<path d="M164.72 30.8774H156.875V38.5968H164.72V30.8774Z" fill="#23282D"/>
<path d="M164.72 23.1581H156.875V30.8774H164.72V23.1581Z" fill="#E2505E"/>
<path d="M156.876 231.561H149.031V239.281H156.876V231.561Z" fill="#AA2639"/>
<path d="M156.876 223.842H149.031V231.561H156.876V223.842Z" fill="#AA2639"/>
<path d="M156.876 216.126H149.031V223.842H156.876V216.126Z" fill="#AA2639"/>
<path d="M156.876 208.407H149.031V216.126H156.876V208.407Z" fill="#911D33"/>
<path d="M156.876 200.688H149.031V208.407H156.876V200.688Z" fill="#BC4052"/>
<path d="M156.876 192.968H149.031V200.688H156.876V192.968Z" fill="#E2505E"/>
<path d="M156.876 185.249H149.031V192.968H156.876V185.249Z" fill="#E2505E"/>
<path d="M156.876 177.53H149.031V185.249H156.876V177.53Z" fill="#E2505E"/>
<path d="M156.876 169.814H149.031V177.53H156.876V169.814Z" fill="#E2505E"/>
<path d="M156.876 162.095H149.031V169.814H156.876V162.095Z" fill="#E2505E"/>
<path d="M156.876 154.375H149.031V162.095H156.876V154.375Z" fill="#E2505E"/>
<path d="M156.876 146.656H149.031V154.376H156.876V146.656Z" fill="#E2505E"/>
<path d="M156.876 138.937H149.031V146.656H156.876V138.937Z" fill="#E2505E"/>
<path d="M156.876 131.217H149.031V138.937H156.876V131.217Z" fill="#E2505E"/>
<path d="M156.876 123.502H149.031V131.217H156.876V123.502Z" fill="#E2505E"/>
<path d="M156.876 115.783H149.031V123.502H156.876V115.783Z" fill="#E2505E"/>
<path d="M156.876 108.063H149.031V115.783H156.876V108.063Z" fill="#E2505E"/>
<path d="M156.876 100.344H149.031V108.063H156.876V100.344Z" fill="#E2505E"/>
<path d="M156.876 92.6245H149.031V100.344H156.876V92.6245Z" fill="#E2505E"/>
<path d="M156.876 84.9091H149.031V92.6245H156.876V84.9091Z" fill="#23282D"/>
<path d="M156.876 77.1897H149.031V84.9091H156.876V77.1897Z" fill="#23282D"/>
<path d="M156.876 69.4703H149.031V77.1897H156.876V69.4703Z" fill="#23282D"/>
<path d="M156.876 61.751H149.031V69.4703H156.876V61.751Z" fill="#E2505E"/>
<path d="M156.876 54.0316H149.031V61.751H156.876V54.0316Z" fill="#E2505E"/>
<path d="M156.876 46.3123H149.031V54.0316H156.876V46.3123Z" fill="#E2505E"/>
<path d="M156.876 38.5968H149.031V46.3122H156.876V38.5968Z" fill="#E2505E"/>
<path d="M156.876 30.8774H149.031V38.5968H156.876V30.8774Z" fill="#23282D"/>
<path d="M156.876 23.1581H149.031V30.8774H156.876V23.1581Z" fill="#E2505E"/>
<path d="M149.031 239.281H141.187V247H149.031V239.281Z" fill="#AA2639"/>
<path d="M149.031 231.561H141.187V239.281H149.031V231.561Z" fill="#AA2639"/>
<path d="M149.031 223.842H141.187V231.561H149.031V223.842Z" fill="#AA2639"/>
<path d="M149.031 216.126H141.187V223.842H149.031V216.126Z" fill="#911D33"/>
<path d="M149.031 208.407H141.187V216.126H149.031V208.407Z" fill="#911D33"/>
<path d="M149.031 200.688H141.187V208.407H149.031V200.688Z" fill="#BC4052"/>
<path d="M149.031 192.968H141.187V200.688H149.031V192.968Z" fill="#E2505E"/>
<path d="M149.031 185.249H141.187V192.968H149.031V185.249Z" fill="#E2505E"/>
<path d="M149.031 177.53H141.187V185.249H149.031V177.53Z" fill="#E2505E"/>
<path d="M149.031 169.814H141.187V177.53H149.031V169.814Z" fill="#E2505E"/>
<path d="M149.031 162.095H141.187V169.814H149.031V162.095Z" fill="#E2505E"/>
<path d="M149.031 154.375H141.187V162.095H149.031V154.375Z" fill="#E2505E"/>
<path d="M149.031 146.656H141.187V154.376H149.031V146.656Z" fill="#E2505E"/>
<path d="M149.031 138.937H141.187V146.656H149.031V138.937Z" fill="#E2505E"/>
<path d="M149.031 131.217H141.187V138.937H149.031V131.217Z" fill="#E2505E"/>
<path d="M149.031 123.502H141.187V131.217H149.031V123.502Z" fill="#E2505E"/>
<path d="M149.031 115.783H141.187V123.502H149.031V115.783Z" fill="#E2505E"/>
<path d="M149.031 108.063H141.187V115.783H149.031V108.063Z" fill="#E2505E"/>
<path d="M149.031 100.344H141.187V108.063H149.031V100.344Z" fill="#E2505E"/>
<path d="M149.031 92.6245H141.187V100.344H149.031V92.6245Z" fill="#E2505E"/>
<path d="M149.031 84.9091H141.187V92.6245H149.031V84.9091Z" fill="#E2505E"/>
<path d="M149.031 77.1897H141.187V84.9091H149.031V77.1897Z" fill="#23282D"/>
<path d="M149.031 69.4703H141.187V77.1897H149.031V69.4703Z" fill="#23282D"/>
<path d="M149.031 61.751H141.187V69.4703H149.031V61.751Z" fill="#E2505E"/>
<path d="M149.031 54.0316H141.187V61.751H149.031V54.0316Z" fill="#E2505E"/>
<path d="M149.031 46.3123H141.187V54.0316H149.031V46.3123Z" fill="#E2505E"/>
<path d="M149.031 38.5968H141.187V46.3122H149.031V38.5968Z" fill="#23282D"/>
<path d="M149.031 30.8774H141.187V38.5968H149.031V30.8774Z" fill="#E2505E"/>
<path d="M149.031 23.1581H141.187V30.8774H149.031V23.1581Z" fill="#E2505E"/>
<path d="M149.031 15.4387H141.187V23.1581H149.031V15.4387Z" fill="#E2505E"/>
<path d="M141.187 239.281H133.342V247H141.187V239.281Z" fill="#AA2639"/>
<path d="M141.187 231.561H133.342V239.281H141.187V231.561Z" fill="#AA2639"/>
<path d="M141.187 223.842H133.342V231.561H141.187V223.842Z" fill="#AA2639"/>
<path d="M141.187 216.126H133.342V223.842H141.187V216.126Z" fill="#911D33"/>
<path d="M141.187 208.407H133.342V216.126H141.187V208.407Z" fill="#BC4052"/>
<path d="M141.187 200.688H133.342V208.407H141.187V200.688Z" fill="#E2505E"/>
<path d="M141.187 192.968H133.342V200.688H141.187V192.968Z" fill="#E2505E"/>
<path d="M141.187 185.249H133.342V192.968H141.187V185.249Z" fill="#E2505E"/>
<path d="M141.187 177.53H133.342V185.249H141.187V177.53Z" fill="#E2505E"/>
<path d="M141.187 169.814H133.342V177.53H141.187V169.814Z" fill="#E2505E"/>
<path d="M141.187 162.095H133.342V169.814H141.187V162.095Z" fill="#E2505E"/>
<path d="M141.187 154.375H133.342V162.095H141.187V154.375Z" fill="#E2505E"/>
<path d="M141.187 146.656H133.342V154.376H141.187V146.656Z" fill="#E2505E"/>
<path d="M141.187 138.937H133.342V146.656H141.187V138.937Z" fill="#E2505E"/>
<path d="M141.187 131.217H133.342V138.937H141.187V131.217Z" fill="#E2505E"/>
<path d="M141.187 123.502H133.342V131.217H141.187V123.502Z" fill="#E2505E"/>
<path d="M141.187 115.783H133.342V123.502H141.187V115.783Z" fill="#23282D"/>
<path d="M141.187 108.063H133.342V115.783H141.187V108.063Z" fill="#E2505E"/>
<path d="M141.187 100.344H133.342V108.063H141.187V100.344Z" fill="#E2505E"/>
<path d="M141.187 92.6245H133.342V100.344H141.187V92.6245Z" fill="#E2505E"/>
<path d="M141.187 84.9091H133.342V92.6245H141.187V84.9091Z" fill="#E2505E"/>
<path d="M141.187 77.1897H133.342V84.9091H141.187V77.1897Z" fill="#E2505E"/>
<path d="M141.187 69.4703H133.342V77.1897H141.187V69.4703Z" fill="#23282D"/>
<path d="M141.187 61.751H133.342V69.4703H141.187V61.751Z" fill="#E2505E"/>
<path d="M141.187 54.0316H133.342V61.751H141.187V54.0316Z" fill="#E2505E"/>
<path d="M141.187 46.3123H133.342V54.0316H141.187V46.3123Z" fill="#E2505E"/>
<path d="M141.187 38.5968H133.342V46.3122H141.187V38.5968Z" fill="#E2505E"/>
<path d="M141.187 30.8774H133.342V38.5968H141.187V30.8774Z" fill="#E2505E"/>
<path d="M141.187 23.1581H133.342V30.8774H141.187V23.1581Z" fill="#E2505E"/>
<path d="M141.187 15.4387H133.342V23.1581H141.187V15.4387Z" fill="#E2505E"/>
<path d="M133.342 208.407H125.498V216.126H133.342V208.407Z" fill="#BC4052"/>
<path d="M133.342 200.688H125.498V208.407H133.342V200.688Z" fill="#E2505E"/>
<path d="M133.342 192.968H125.498V200.688H133.342V192.968Z" fill="#E2505E"/>
<path d="M133.342 185.249H125.498V192.968H133.342V185.249Z" fill="#E2505E"/>
<path d="M133.342 177.53H125.498V185.249H133.342V177.53Z" fill="#E2505E"/>
<path d="M133.342 169.814H125.498V177.53H133.342V169.814Z" fill="#E2505E"/>
<path d="M133.342 162.095H125.498V169.814H133.342V162.095Z" fill="#E2505E"/>
<path d="M133.342 154.375H125.498V162.095H133.342V154.375Z" fill="#E2505E"/>
<path d="M133.342 146.656H125.498V154.376H133.342V146.656Z" fill="#E2505E"/>
<path d="M133.342 138.937H125.498V146.656H133.342V138.937Z" fill="#E2505E"/>
<path d="M133.342 131.217H125.498V138.937H133.342V131.217Z" fill="#E2505E"/>
<path d="M133.342 123.502H125.498V131.217H133.342V123.502Z" fill="#23282D"/>
<path d="M133.342 115.783H125.498V123.502H133.342V115.783Z" fill="#F4E1E1"/>
<path d="M133.342 108.063H125.498V115.783H133.342V108.063Z" fill="#23282D"/>
<path d="M133.342 100.344H125.498V108.063H133.342V100.344Z" fill="#E2505E"/>
<path d="M133.342 92.6245H125.498V100.344H133.342V92.6245Z" fill="#E2505E"/>
<path d="M133.342 84.9091H125.498V92.6245H133.342V84.9091Z" fill="#F4E1E1"/>
<path d="M133.342 77.1897H125.498V84.9091H133.342V77.1897Z" fill="#E2505E"/>
<path d="M133.342 69.4703H125.498V77.1897H133.342V69.4703Z" fill="#E2505E"/>
<path d="M133.342 61.751H125.498V69.4703H133.342V61.751Z" fill="#E2505E"/>
<path d="M133.342 54.0316H125.498V61.751H133.342V54.0316Z" fill="#E2505E"/>
<path d="M133.342 46.3123H125.498V54.0316H133.342V46.3123Z" fill="#E2505E"/>
<path d="M133.342 38.5968H125.498V46.3122H133.342V38.5968Z" fill="#E2505E"/>
<path d="M133.342 30.8774H125.498V38.5968H133.342V30.8774Z" fill="#E2505E"/>
<path d="M133.342 23.1581H125.498V30.8774H133.342V23.1581Z" fill="#E2505E"/>
<path d="M133.342 15.4387H125.498V23.1581H133.342V15.4387Z" fill="#E2505E"/>
<path d="M125.498 208.407H117.658V216.126H125.498V208.407Z" fill="#E2505E"/>
<path d="M125.498 200.688H117.658V208.407H125.498V200.688Z" fill="#E2505E"/>
<path d="M125.498 192.968H117.658V200.688H125.498V192.968Z" fill="#E2505E"/>
<path d="M125.498 185.249H117.658V192.968H125.498V185.249Z" fill="#E2505E"/>
<path d="M125.498 177.53H117.658V185.249H125.498V177.53Z" fill="#E2505E"/>
<path d="M125.498 169.814H117.658V177.53H125.498V169.814Z" fill="#E2505E"/>
<path d="M125.498 162.095H117.658V169.814H125.498V162.095Z" fill="#E2505E"/>
<path d="M125.498 154.375H117.658V162.095H125.498V154.375Z" fill="#E2505E"/>
<path d="M125.498 146.656H117.658V154.376H125.498V146.656Z" fill="#E2505E"/>
<path d="M125.498 138.937H117.658V146.656H125.498V138.937Z" fill="#E2505E"/>
<path d="M125.498 131.217H117.658V138.937H125.498V131.217Z" fill="#E2505E"/>
<path d="M125.498 123.502H117.658V131.217H125.498V123.502Z" fill="#23282D"/>
<path d="M125.498 115.783H117.658V123.502H125.498V115.783Z" fill="#F4E1E1"/>
<path d="M125.498 108.063H117.658V115.783H125.498V108.063Z" fill="#23282D"/>
<path d="M125.498 100.344H117.658V108.063H125.498V100.344Z" fill="#E2505E"/>
<path d="M125.498 92.6245H117.658V100.344H125.498V92.6245Z" fill="#F4E1E1"/>
<path d="M125.498 84.9091H117.658V92.6245H125.498V84.9091Z" fill="#F4E1E1"/>
<path d="M125.498 77.1897H117.658V84.9091H125.498V77.1897Z" fill="#E2505E"/>
<path d="M125.498 69.4703H117.658V77.1897H125.498V69.4703Z" fill="#E2505E"/>
<path d="M125.498 61.751H117.658V69.4703H125.498V61.751Z" fill="#E2505E"/>
<path d="M125.498 54.0316H117.658V61.751H125.498V54.0316Z" fill="#E2505E"/>
<path d="M125.498 46.3123H117.658V54.0316H125.498V46.3123Z" fill="#E2505E"/>
<path d="M125.498 38.5968H117.658V46.3122H125.498V38.5968Z" fill="#E2505E"/>
<path d="M125.498 30.8774H117.658V38.5968H125.498V30.8774Z" fill="#E2505E"/>
<path d="M125.498 23.1581H117.658V30.8774H125.498V23.1581Z" fill="#E2505E"/>
<path d="M125.498 15.4387H117.658V23.1581H125.498V15.4387Z" fill="#E2505E"/>
<path d="M117.658 239.281H109.813V247H117.658V239.281Z" fill="#AA2639"/>
<path d="M117.658 231.561H109.813V239.281H117.658V231.561Z" fill="#AA2639"/>
<path d="M117.658 223.842H109.813V231.561H117.658V223.842Z" fill="#AA2639"/>
<path d="M117.658 216.126H109.813V223.842H117.658V216.126Z" fill="#911D33"/>
<path d="M117.658 208.407H109.813V216.126H117.658V208.407Z" fill="#E2505E"/>
<path d="M117.658 200.688H109.813V208.407H117.658V200.688Z" fill="#E2505E"/>
<path d="M117.658 192.968H109.813V200.688H117.658V192.968Z" fill="#E2505E"/>
<path d="M117.658 185.249H109.813V192.968H117.658V185.249Z" fill="#E2505E"/>
<path d="M117.658 177.53H109.813V185.249H117.658V177.53Z" fill="#E2505E"/>
<path d="M117.658 169.814H109.813V177.53H117.658V169.814Z" fill="#E2505E"/>
<path d="M117.658 162.095H109.813V169.814H117.658V162.095Z" fill="#E2505E"/>
<path d="M117.658 154.375H109.813V162.095H117.658V154.375Z" fill="#E2505E"/>
<path d="M117.658 146.656H109.813V154.376H117.658V146.656Z" fill="#E2505E"/>
<path d="M117.658 138.937H109.813V146.656H117.658V138.937Z" fill="#E2505E"/>
<path d="M117.658 131.217H109.813V138.937H117.658V131.217Z" fill="#E2505E"/>
<path d="M117.658 123.502H109.813V131.217H117.658V123.502Z" fill="#23282D"/>
<path d="M117.658 115.783H109.813V123.502H117.658V115.783Z" fill="#F4E1E1"/>
<path d="M117.658 108.063H109.813V115.783H117.658V108.063Z" fill="#23282D"/>
<path d="M117.658 100.344H109.813V108.063H117.658V100.344Z" fill="#E2505E"/>
<path d="M117.658 92.6245H109.813V100.344H117.658V92.6245Z" fill="#E2505E"/>
<path d="M117.658 84.9091H109.813V92.6245H117.658V84.9091Z" fill="#F4E1E1"/>
<path d="M117.658 77.1897H109.813V84.9091H117.658V77.1897Z" fill="#E2505E"/>
<path d="M117.658 69.4703H109.813V77.1897H117.658V69.4703Z" fill="#E2505E"/>
<path d="M117.658 61.751H109.813V69.4703H117.658V61.751Z" fill="#E2505E"/>
<path d="M117.658 54.0316H109.813V61.751H117.658V54.0316Z" fill="#E2505E"/>
<path d="M117.658 46.3123H109.813V54.0316H117.658V46.3123Z" fill="#E2505E"/>
<path d="M117.658 38.5968H109.813V46.3122H117.658V38.5968Z" fill="#E2505E"/>
<path d="M117.658 30.8774H109.813V38.5968H117.658V30.8774Z" fill="#E2505E"/>
<path d="M117.658 23.1581H109.813V30.8774H117.658V23.1581Z" fill="#E2505E"/>
<path d="M117.658 15.4387H109.813V23.1581H117.658V15.4387Z" fill="#E2505E"/>
<path d="M109.813 239.281H101.969V247H109.813V239.281Z" fill="#AA2639"/>
<path d="M109.813 231.561H101.969V239.281H109.813V231.561Z" fill="#AA2639"/>
<path d="M109.813 223.842H101.969V231.561H109.813V223.842Z" fill="#AA2639"/>
<path d="M109.813 216.126H101.969V223.842H109.813V216.126Z" fill="#911D33"/>
<path d="M109.813 208.407H101.969V216.126H109.813V208.407Z" fill="#911D33"/>
<path d="M109.813 200.688H101.969V208.407H109.813V200.688Z" fill="#E2505E"/>
<path d="M109.813 192.968H101.969V200.688H109.813V192.968Z" fill="#E2505E"/>
<path d="M109.813 185.249H101.969V192.968H109.813V185.249Z" fill="#E2505E"/>
<path d="M109.813 177.53H101.969V185.249H109.813V177.53Z" fill="#E2505E"/>
<path d="M109.813 169.814H101.969V177.53H109.813V169.814Z" fill="#E2505E"/>
<path d="M109.813 162.095H101.969V169.814H109.813V162.095Z" fill="#E2505E"/>
<path d="M109.813 154.375H101.969V162.095H109.813V154.375Z" fill="#E2505E"/>
<path d="M109.813 146.656H101.969V154.376H109.813V146.656Z" fill="#E2505E"/>
<path d="M109.813 138.937H101.969V146.656H109.813V138.937Z" fill="#E2505E"/>
<path d="M109.813 131.217H101.969V138.937H109.813V131.217Z" fill="#E2505E"/>
<path d="M109.813 123.502H101.969V131.217H109.813V123.502Z" fill="#E2505E"/>
<path d="M109.813 115.783H101.969V123.502H109.813V115.783Z" fill="#23282D"/>
<path d="M109.813 108.063H101.969V115.783H109.813V108.063Z" fill="#E2505E"/>
<path d="M109.813 100.344H101.969V108.063H109.813V100.344Z" fill="#E2505E"/>
<path d="M109.813 92.6245H101.969V100.344H109.813V92.6245Z" fill="#E2505E"/>
<path d="M109.813 84.9091H101.969V92.6245H109.813V84.9091Z" fill="#E2505E"/>
<path d="M109.813 77.1897H101.969V84.9091H109.813V77.1897Z" fill="#E2505E"/>
<path d="M109.813 69.4703H101.969V77.1897H109.813V69.4703Z" fill="#23282D"/>
<path d="M109.813 61.751H101.969V69.4703H109.813V61.751Z" fill="#E2505E"/>
<path d="M109.813 54.0316H101.969V61.751H109.813V54.0316Z" fill="#E2505E"/>
<path d="M109.813 46.3123H101.969V54.0316H109.813V46.3123Z" fill="#E2505E"/>
<path d="M109.813 38.5968H101.969V46.3122H109.813V38.5968Z" fill="#E2505E"/>
<path d="M109.813 30.8774H101.969V38.5968H109.813V30.8774Z" fill="#E2505E"/>
<path d="M109.813 23.1581H101.969V30.8774H109.813V23.1581Z" fill="#E2505E"/>
<path d="M109.813 15.4387H101.969V23.1581H109.813V15.4387Z" fill="#E2505E"/>
<path d="M101.969 231.561H94.1245V239.281H101.969V231.561Z" fill="#AA2639"/>
<path d="M101.969 223.842H94.1245V231.561H101.969V223.842Z" fill="#AA2639"/>
<path d="M101.969 216.126H94.1245V223.842H101.969V216.126Z" fill="#AA2639"/>
<path d="M101.969 208.407H94.1245V216.126H101.969V208.407Z" fill="#911D33"/>
<path d="M101.969 200.688H94.1245V208.407H101.969V200.688Z" fill="#BC4052"/>
<path d="M101.969 192.968H94.1245V200.688H101.969V192.968Z" fill="#BC4052"/>
<path d="M101.969 185.249H94.1245V192.968H101.969V185.249Z" fill="#E2505E"/>
<path d="M101.969 177.53H94.1245V185.249H101.969V177.53Z" fill="#E2505E"/>
<path d="M101.969 169.814H94.1245V177.53H101.969V169.814Z" fill="#E2505E"/>
<path d="M101.969 162.095H94.1245V169.814H101.969V162.095Z" fill="#E2505E"/>
<path d="M101.969 154.375H94.1245V162.095H101.969V154.375Z" fill="#BC4052"/>
<path d="M101.969 146.656H94.1245V154.376H101.969V146.656Z" fill="#BC4052"/>
<path d="M101.969 138.937H94.1245V146.656H101.969V138.937Z" fill="#E2505E"/>
<path d="M101.969 131.217H94.1245V138.937H101.969V131.217Z" fill="#E2505E"/>
<path d="M101.969 123.502H94.1245V131.217H101.969V123.502Z" fill="#E2505E"/>
<path d="M101.969 115.783H94.1245V123.502H101.969V115.783Z" fill="#E2505E"/>
<path d="M101.969 108.063H94.1245V115.783H101.969V108.063Z" fill="#E2505E"/>
<path d="M101.969 100.344H94.1245V108.063H101.969V100.344Z" fill="#E2505E"/>
<path d="M101.969 92.6245H94.1245V100.344H101.969V92.6245Z" fill="#E2505E"/>
<path d="M101.969 84.9091H94.1245V92.6245H101.969V84.9091Z" fill="#E2505E"/>
<path d="M101.969 77.1897H94.1245V84.9091H101.969V77.1897Z" fill="#23282D"/>
<path d="M101.969 69.4703H94.1245V77.1897H101.969V69.4703Z" fill="#23282D"/>
<path d="M101.969 61.751H94.1245V69.4703H101.969V61.751Z" fill="#E2505E"/>
<path d="M101.969 54.0316H94.1245V61.751H101.969V54.0316Z" fill="#E2505E"/>
<path d="M101.969 46.3123H94.1245V54.0316H101.969V46.3123Z" fill="#E2505E"/>
<path d="M101.969 38.5968H94.1245V46.3122H101.969V38.5968Z" fill="#E2505E"/>
<path d="M101.969 30.8774H94.1245V38.5968H101.969V30.8774Z" fill="#E2505E"/>
<path d="M101.969 23.1581H94.1245V30.8774H101.969V23.1581Z" fill="#E2505E"/>
<path d="M101.969 15.4387H94.1245V23.1581H101.969V15.4387Z" fill="#E2505E"/>
<path d="M94.1245 192.968H86.2802V200.688H94.1245V192.968Z" fill="#BC4052"/>
<path d="M94.1245 185.249H86.2802V192.968H94.1245V185.249Z" fill="#BC4052"/>
<path d="M94.1245 177.53H86.2802V185.249H94.1245V177.53Z" fill="#BC4052"/>
<path d="M94.1245 169.814H86.2802V177.53H94.1245V169.814Z" fill="#BC4052"/>
<path d="M94.1245 162.095H86.2802V169.814H94.1245V162.095Z" fill="#BC4052"/>
<path d="M94.1245 154.375H86.2802V162.095H94.1245V154.375Z" fill="#BC4052"/>
<path d="M94.1245 146.656H86.2802V154.376H94.1245V146.656Z" fill="#BC4052"/>
<path d="M94.1245 138.937H86.2802V146.656H94.1245V138.937Z" fill="#E2505E"/>
<path d="M94.1245 131.217H86.2802V138.937H94.1245V131.217Z" fill="#E2505E"/>
<path d="M94.1245 123.502H86.2802V131.217H94.1245V123.502Z" fill="#E2505E"/>
<path d="M94.1245 115.783H86.2802V123.502H94.1245V115.783Z" fill="#E2505E"/>
<path d="M94.1245 108.063H86.2802V115.783H94.1245V108.063Z" fill="#E2505E"/>
<path d="M94.1245 100.344H86.2802V108.063H94.1245V100.344Z" fill="#E2505E"/>
<path d="M94.1245 92.6245H86.2802V100.344H94.1245V92.6245Z" fill="#E2505E"/>
<path d="M94.1245 84.9091H86.2802V92.6245H94.1245V84.9091Z" fill="#23282D"/>
<path d="M94.1245 77.1897H86.2802V84.9091H94.1245V77.1897Z" fill="white"/>
<path d="M94.1245 69.4703H86.2802V77.1897H94.1245V69.4703Z" fill="#23282D"/>
<path d="M94.1245 61.751H86.2802V69.4703H94.1245V61.751Z" fill="#E2505E"/>
<path d="M94.1245 54.0316H86.2802V61.751H94.1245V54.0316Z" fill="#E2505E"/>
<path d="M94.1245 46.3123H86.2802V54.0316H94.1245V46.3123Z" fill="#23282D"/>
<path d="M94.1245 38.5968H86.2802V46.3122H94.1245V38.5968Z" fill="#E2505E"/>
<path d="M94.1245 30.8774H86.2802V38.5968H94.1245V30.8774Z" fill="#E2505E"/>
<path d="M94.1245 23.1581H86.2802V30.8774H94.1245V23.1581Z" fill="#E2505E"/>
<path d="M86.2801 208.407H78.4397V216.126H86.2801V208.407Z" fill="#AA2639"/>
<path d="M86.2801 200.688H78.4397V208.407H86.2801V200.688Z" fill="#911D33"/>
<path d="M86.2801 192.968H78.4397V200.688H86.2801V192.968Z" fill="#BC4052"/>
<path d="M86.2801 185.249H78.4397V192.968H86.2801V185.249Z" fill="#BC4052"/>
<path d="M86.2801 177.53H78.4397V185.249H86.2801V177.53Z" fill="#BC4052"/>
<path d="M86.2801 169.814H78.4397V177.53H86.2801V169.814Z" fill="#BC4052"/>
<path d="M86.2801 162.095H78.4397V169.814H86.2801V162.095Z" fill="#BC4052"/>
<path d="M86.2801 154.375H78.4397V162.095H86.2801V154.375Z" fill="#BC4052"/>
<path d="M86.2801 146.656H78.4397V154.376H86.2801V146.656Z" fill="#BC4052"/>
<path d="M86.2801 138.937H78.4397V146.656H86.2801V138.937Z" fill="#BC4052"/>
<path d="M86.2801 131.217H78.4397V138.937H86.2801V131.217Z" fill="#E2505E"/>
<path d="M86.2801 123.502H78.4397V131.217H86.2801V123.502Z" fill="#E2505E"/>
<path d="M86.2801 115.783H78.4397V123.502H86.2801V115.783Z" fill="#E2505E"/>
<path d="M86.2801 108.063H78.4397V115.783H86.2801V108.063Z" fill="#E2505E"/>
<path d="M86.2801 100.344H78.4397V108.063H86.2801V100.344Z" fill="#E2505E"/>
<path d="M86.2801 92.6245H78.4397V100.344H86.2801V92.6245Z" fill="#F4E1E1"/>
<path d="M86.2801 84.9091H78.4397V92.6245H86.2801V84.9091Z" fill="#23282D"/>
<path d="M86.2801 77.1897H78.4397V84.9091H86.2801V77.1897Z" fill="#23282D"/>
<path d="M86.2801 69.4703H78.4397V77.1897H86.2801V69.4703Z" fill="white"/>
<path d="M86.2801 61.751H78.4397V69.4703H86.2801V61.751Z" fill="#E2505E"/>
<path d="M86.2801 54.0316H78.4397V61.751H86.2801V54.0316Z" fill="#E2505E"/>
<path d="M86.2801 46.3123H78.4397V54.0316H86.2801V46.3123Z" fill="#23282D"/>
<path d="M86.2801 38.5968H78.4397V46.3122H86.2801V38.5968Z" fill="#E2505E"/>
<path d="M86.2801 30.8774H78.4397V38.5968H86.2801V30.8774Z" fill="#E2505E"/>
<path d="M86.2801 23.1581H78.4397V30.8774H86.2801V23.1581Z" fill="#E2505E"/>
<path d="M78.4397 208.407H70.5953V216.126H78.4397V208.407Z" fill="#AA2639"/>
<path d="M78.4397 200.688H70.5953V208.407H78.4397V200.688Z" fill="#911D33"/>
<path d="M78.4397 192.968H70.5953V200.688H78.4397V192.968Z" fill="#911D33"/>
<path d="M78.4397 177.53H70.5953V185.249H78.4397V177.53Z" fill="#BC4052"/>
<path d="M78.4397 169.814H70.5953V177.53H78.4397V169.814Z" fill="#BC4052"/>
<path d="M78.4397 162.095H70.5953V169.814H78.4397V162.095Z" fill="#BC4052"/>
<path d="M78.4397 154.375H70.5953V162.095H78.4397V154.375Z" fill="#BC4052"/>
<path d="M78.4397 146.656H70.5953V154.376H78.4397V146.656Z" fill="#BC4052"/>
<path d="M78.4397 138.937H70.5953V146.656H78.4397V138.937Z" fill="#BC4052"/>
<path d="M78.4397 131.217H70.5953V138.937H78.4397V131.217Z" fill="#BC4052"/>
<path d="M78.4397 123.502H70.5953V131.217H78.4397V123.502Z" fill="#E2505E"/>
<path d="M78.4397 115.783H70.5953V123.502H78.4397V115.783Z" fill="#E2505E"/>
<path d="M78.4397 108.063H70.5953V115.783H78.4397V108.063Z" fill="#E2505E"/>
<path d="M78.4397 100.344H70.5953V108.063H78.4397V100.344Z" fill="#F4E1E1"/>
<path d="M78.4397 92.6245H70.5953V100.344H78.4397V92.6245Z" fill="#F4E1E1"/>
<path d="M78.4397 84.9091H70.5953V92.6245H78.4397V84.9091Z" fill="#F4E1E1"/>
<path d="M78.4397 77.1897H70.5953V84.9091H78.4397V77.1897Z" fill="#23282D"/>
<path d="M78.4397 69.4703H70.5953V77.1897H78.4397V69.4703Z" fill="#23282D"/>
<path d="M78.4397 61.751H70.5953V69.4703H78.4397V61.751Z" fill="#E2505E"/>
<path d="M78.4397 54.0316H70.5953V61.751H78.4397V54.0316Z" fill="#23282D"/>
<path d="M78.4397 46.3123H70.5953V54.0316H78.4397V46.3123Z" fill="#23282D"/>
<path d="M78.4397 38.5968H70.5953V46.3122H78.4397V38.5968Z" fill="#E2505E"/>
<path d="M78.4397 30.8774H70.5953V38.5968H78.4397V30.8774Z" fill="#E2505E"/>
<path d="M78.4397 23.1581H70.5953V30.8774H78.4397V23.1581Z" fill="#BC4052"/>
<path d="M78.4397 15.4387H70.5953V23.1581H78.4397V15.4387Z" fill="#AA2639"/>
<path d="M70.5953 216.126H62.751V223.842H70.5953V216.126Z" fill="#AA2639"/>
<path d="M70.5953 208.407H62.751V216.126H70.5953V208.407Z" fill="#AA2639"/>
<path d="M70.5953 200.688H62.751V208.407H70.5953V200.688Z" fill="#AA2639"/>
<path d="M70.5953 169.814H62.751V177.53H70.5953V169.814Z" fill="#AA2639"/>
<path d="M70.5953 162.095H62.751V169.814H70.5953V162.095Z" fill="#911D33"/>
<path d="M70.5953 154.375H62.751V162.095H70.5953V154.375Z" fill="#911D33"/>
<path d="M70.5953 146.656H62.751V154.376H70.5953V146.656Z" fill="#911D33"/>
<path d="M70.5953 131.217H62.751V138.937H70.5953V131.217Z" fill="#BC4052"/>
<path d="M70.5953 123.502H62.751V131.217H70.5953V123.502Z" fill="#BC4052"/>
<path d="M70.5953 115.783H62.751V123.502H70.5953V115.783Z" fill="#E2505E"/>
<path d="M70.5953 108.063H62.751V115.783H70.5953V108.063Z" fill="#E2505E"/>
<path d="M70.5953 100.344H62.751V108.063H70.5953V100.344Z" fill="#F4E1E1"/>
<path d="M70.5953 92.6245H62.751V100.344H70.5953V92.6245Z" fill="#F4E1E1"/>
<path d="M70.5953 84.9091H62.751V92.6245H70.5953V84.9091Z" fill="#F4E1E1"/>
<path d="M70.5953 77.1897H62.751V84.9091H70.5953V77.1897Z" fill="#F4E1E1"/>
<path d="M70.5953 69.4703H62.751V77.1897H70.5953V69.4703Z" fill="#23282D"/>
<path d="M70.5953 61.751H62.751V69.4703H70.5953V61.751Z" fill="#E2505E"/>
<path d="M70.5953 54.0316H62.751V61.751H70.5953V54.0316Z" fill="#E2505E"/>
<path d="M70.5953 46.3123H62.751V54.0316H70.5953V46.3123Z" fill="#E2505E"/>
<path d="M70.5953 38.5968H62.751V46.3122H70.5953V38.5968Z" fill="#E2505E"/>
<path d="M70.5953 30.8774H62.751V38.5968H70.5953V30.8774Z" fill="#BC4052"/>
<path d="M70.5953 23.1581H62.751V30.8774H70.5953V23.1581Z" fill="#AA2639"/>
<path d="M70.5953 15.4387H62.751V23.1581H70.5953V15.4387Z" fill="#AA2639"/>
<path d="M62.751 216.126H54.9066V223.842H62.751V216.126Z" fill="#AA2639"/>
<path d="M62.751 208.407H54.9066V216.126H62.751V208.407Z" fill="#AA2639"/>
<path d="M62.751 200.688H54.9066V208.407H62.751V200.688Z" fill="#AA2639"/>
<path d="M62.751 169.814H54.9066V177.53H62.751V169.814Z" fill="#AA2639"/>
<path d="M62.751 162.095H54.9066V169.814H62.751V162.095Z" fill="#AA2639"/>
<path d="M62.751 154.375H54.9066V162.095H62.751V154.375Z" fill="#911D33"/>
<path d="M62.751 131.217H54.9066V138.937H62.751V131.217Z" fill="#BC4052"/>
<path d="M62.751 123.502H54.9066V131.217H62.751V123.502Z" fill="#BC4052"/>
<path d="M62.751 115.783H54.9066V123.502H62.751V115.783Z" fill="#BC4052"/>
<path d="M62.751 108.063H54.9066V115.783H62.751V108.063Z" fill="#BC4052"/>
<path d="M62.751 100.344H54.9066V108.063H62.751V100.344Z" fill="#BC4052"/>
<path d="M62.751 92.6245H54.9066V100.344H62.751V92.6245Z" fill="#23282D"/>
<path d="M62.751 84.9091H54.9066V92.6245H62.751V84.9091Z" fill="#F4E1E1"/>
<path d="M62.751 77.1897H54.9066V84.9091H62.751V77.1897Z" fill="#23282D"/>
<path d="M62.751 69.4703H54.9066V77.1897H62.751V69.4703Z" fill="#E2505E"/>
<path d="M62.751 61.751H54.9066V69.4703H62.751V61.751Z" fill="#E2505E"/>
<path d="M62.751 54.0316H54.9066V61.751H62.751V54.0316Z" fill="#E2505E"/>
<path d="M62.751 46.3123H54.9066V54.0316H62.751V46.3123Z" fill="#BC4052"/>
<path d="M62.751 38.5968H54.9066V46.3122H62.751V38.5968Z" fill="#BC4052"/>
<path d="M62.751 30.8774H54.9066V38.5968H62.751V30.8774Z" fill="#AA2639"/>
<path d="M62.751 23.1581H54.9066V30.8774H62.751V23.1581Z" fill="#AA2639"/>
<path d="M62.751 15.4387H54.9066V23.1581H62.751V15.4387Z" fill="#AA2639"/>
<path d="M62.751 7.71936H54.9066V15.4387H62.751V7.71936Z" fill="#AA2639"/>
<path d="M54.9066 216.126H47.0623V223.842H54.9066V216.126Z" fill="#AA2639"/>
<path d="M54.9066 208.407H47.0623V216.126H54.9066V208.407Z" fill="#AA2639"/>
<path d="M54.9066 200.688H47.0623V208.407H54.9066V200.688Z" fill="#AA2639"/>
<path d="M54.9066 169.814H47.0623V177.53H54.9066V169.814Z" fill="#AA2639"/>
<path d="M54.9066 162.095H47.0623V169.814H54.9066V162.095Z" fill="#AA2639"/>
<path d="M54.9066 154.375H47.0623V162.095H54.9066V154.375Z" fill="#AA2639"/>
<path d="M54.9066 123.502H47.0623V131.217H54.9066V123.502Z" fill="#BC4052"/>
<path d="M54.9066 115.783H47.0623V123.502H54.9066V115.783Z" fill="#BC4052"/>
<path d="M54.9066 108.063H47.0623V115.783H54.9066V108.063Z" fill="#BC4052"/>
<path d="M54.9066 100.344H47.0623V108.063H54.9066V100.344Z" fill="#23282D"/>
<path d="M54.9066 92.6245H47.0623V100.344H54.9066V92.6245Z" fill="#BC4052"/>
<path d="M54.9066 84.9091H47.0623V92.6245H54.9066V84.9091Z" fill="#23282D"/>
<path d="M54.9066 77.1897H47.0623V84.9091H54.9066V77.1897Z" fill="#BC4052"/>
<path d="M54.9066 69.4703H47.0623V77.1897H54.9066V69.4703Z" fill="#23282D"/>
<path d="M54.9066 61.751H47.0623V69.4703H54.9066V61.751Z" fill="#BC4052"/>
<path d="M54.9066 54.0316H47.0623V61.751H54.9066V54.0316Z" fill="#BC4052"/>
<path d="M54.9066 46.3123H47.0623V54.0316H54.9066V46.3123Z" fill="#F48F42"/>
<path d="M54.9066 38.5968H47.0623V46.3122H54.9066V38.5968Z" fill="#F48F42"/>
<path d="M54.9066 30.8774H47.0623V38.5968H54.9066V30.8774Z" fill="#F48F42"/>
<path d="M54.9066 23.1581H47.0623V30.8774H54.9066V23.1581Z" fill="#F48F42"/>
<path d="M54.9066 15.4387H47.0623V23.1581H54.9066V15.4387Z" fill="#AA2639"/>
<path d="M54.9066 7.71936H47.0623V15.4387H54.9066V7.71936Z" fill="#AA2639"/>
<path d="M54.9066 0H47.0623V7.71937H54.9066V0Z" fill="#AA2639"/>
<path d="M47.0623 208.407H39.2179V216.126H47.0623V208.407Z" fill="#AA2639"/>
<path d="M47.0623 200.688H39.2179V208.407H47.0623V200.688Z" fill="#AA2639"/>
<path d="M47.0623 192.968H39.2179V200.688H47.0623V192.968Z" fill="#AA2639"/>
<path d="M47.0623 185.249H39.2179V192.968H47.0623V185.249Z" fill="#F4E1E1"/>
<path d="M47.0623 169.814H39.2179V177.53H47.0623V169.814Z" fill="#AA2639"/>
<path d="M47.0623 162.095H39.2179V169.814H47.0623V162.095Z" fill="#AA2639"/>
<path d="M47.0623 154.375H39.2179V162.095H47.0623V154.375Z" fill="#AA2639"/>
<path d="M47.0623 115.783H39.2179V123.502H47.0623V115.783Z" fill="#BC4052"/>
<path d="M47.0623 108.063H39.2179V115.783H47.0623V108.063Z" fill="#BC4052"/>
<path d="M47.0623 100.344H39.2179V108.063H47.0623V100.344Z" fill="#BC4052"/>
<path d="M47.0623 92.6245H39.2179V100.344H47.0623V92.6245Z" fill="#BC4052"/>
<path d="M47.0623 84.9091H39.2179V92.6245H47.0623V84.9091Z" fill="#23282D"/>
<path d="M47.0623 77.1897H39.2179V84.9091H47.0623V77.1897Z" fill="#BC4052"/>
<path d="M47.0623 69.4703H39.2179V77.1897H47.0623V69.4703Z" fill="#BC4052"/>
<path d="M47.0623 61.751H39.2179V69.4703H47.0623V61.751Z" fill="#BC4052"/>
<path d="M47.0623 54.0316H39.2179V61.751H47.0623V54.0316Z" fill="#F48F42"/>
<path d="M47.0623 46.3123H39.2179V54.0316H47.0623V46.3123Z" fill="#F48F42"/>
<path d="M47.0623 38.5968H39.2179V46.3122H47.0623V38.5968Z" fill="#F48F42"/>
<path d="M47.0623 30.8774H39.2179V38.5968H47.0623V30.8774Z" fill="#F48F42"/>
<path d="M47.0623 23.1581H39.2179V30.8774H47.0623V23.1581Z" fill="#F48F42"/>
<path d="M47.0623 15.4387H39.2179V23.1581H47.0623V15.4387Z" fill="#F48F42"/>
<path d="M47.0623 7.71936H39.2179V15.4387H47.0623V7.71936Z" fill="#AA2639"/>
<path d="M47.0623 0H39.2179V7.71937H47.0623V0Z" fill="#AA2639"/>
<path d="M39.2178 200.688H31.3774V208.407H39.2178V200.688Z" fill="#AA2639"/>
<path d="M39.2178 192.968H31.3774V200.688H39.2178V192.968Z" fill="#F4E1E1"/>
<path d="M39.2178 185.249H31.3774V192.968H39.2178V185.249Z" fill="#F4E1E1"/>
<path d="M39.2178 162.095H31.3774V169.814H39.2178V162.095Z" fill="#AA2639"/>
<path d="M39.2178 154.375H31.3774V162.095H39.2178V154.375Z" fill="#AA2639"/>
<path d="M39.2178 146.656H31.3774V154.376H39.2178V146.656Z" fill="#AA2639"/>
<path d="M39.2178 108.063H31.3774V115.783H39.2178V108.063Z" fill="#BC4052"/>
<path d="M39.2178 100.344H31.3774V108.063H39.2178V100.344Z" fill="#BC4052"/>
<path d="M39.2178 92.6245H31.3774V100.344H39.2178V92.6245Z" fill="#BC4052"/>
<path d="M39.2178 84.9091H31.3774V92.6245H39.2178V84.9091Z" fill="#BC4052"/>
<path d="M39.2178 77.1897H31.3774V84.9091H39.2178V77.1897Z" fill="#BC4052"/>
<path d="M39.2178 69.4703H31.3774V77.1897H39.2178V69.4703Z" fill="#BC4052"/>
<path d="M39.2178 61.751H31.3774V69.4703H39.2178V61.751Z" fill="#BC4052"/>
<path d="M39.2178 54.0316H31.3774V61.751H39.2178V54.0316Z" fill="#F48F42"/>
<path d="M39.2178 46.3123H31.3774V54.0316H39.2178V46.3123Z" fill="#F48F42"/>
<path d="M39.2178 38.5968H31.3774V46.3122H39.2178V38.5968Z" fill="#F4E1E1"/>
<path d="M39.2178 30.8774H31.3774V38.5968H39.2178V30.8774Z" fill="#F4E1E1"/>
<path d="M39.2178 23.1581H31.3774V30.8774H39.2178V23.1581Z" fill="#F48F42"/>
<path d="M39.2178 15.4387H31.3774V23.1581H39.2178V15.4387Z" fill="#F48F42"/>
<path d="M39.2178 7.71936H31.3774V15.4387H39.2178V7.71936Z" fill="#AA2639"/>
<path d="M39.2178 0H31.3774V7.71937H39.2178V0Z" fill="#AA2639"/>
<path d="M31.3775 192.968H23.5331V200.688H31.3775V192.968Z" fill="#F4E1E1"/>
<path d="M31.3775 185.249H23.5331V192.968H31.3775V185.249Z" fill="#F4E1E1"/>
<path d="M31.3775 162.095H23.5331V169.814H31.3775V162.095Z" fill="#AA2639"/>
<path d="M31.3775 154.375H23.5331V162.095H31.3775V154.375Z" fill="#AA2639"/>
<path d="M31.3775 146.656H23.5331V154.376H31.3775V146.656Z" fill="#AA2639"/>
<path d="M31.3775 138.937H23.5331V146.656H31.3775V138.937Z" fill="#AA2639"/>
<path d="M31.3775 61.751H23.5331V69.4703H31.3775V61.751Z" fill="#F48F42"/>
<path d="M31.3775 54.0316H23.5331V61.751H31.3775V54.0316Z" fill="#F48F42"/>
<path d="M31.3775 38.5968H23.5331V46.3122H31.3775V38.5968Z" fill="#F4E1E1"/>
<path d="M31.3775 30.8774H23.5331V38.5968H31.3775V30.8774Z" fill="#F4E1E1"/>
<path d="M31.3775 23.1581H23.5331V30.8774H31.3775V23.1581Z" fill="#F48F42"/>
<path d="M31.3775 15.4387H23.5331V23.1581H31.3775V15.4387Z" fill="#F26E14"/>
<path d="M31.3775 7.71936H23.5331V15.4387H31.3775V7.71936Z" fill="#AA2639"/>
<path d="M31.3775 0H23.5331V7.71937H31.3775V0Z" fill="#AA2639"/>
<path d="M23.5331 154.375H15.6887V162.095H23.5331V154.375Z" fill="#AA2639"/>
<path d="M23.5331 146.656H15.6887V154.376H23.5331V146.656Z" fill="#AA2639"/>
<path d="M23.5331 69.4703H15.6887V77.1897H23.5331V69.4703Z" fill="#F48F42"/>
<path d="M23.5331 61.751H15.6887V69.4703H23.5331V61.751Z" fill="#F48F42"/>
<path d="M23.5331 54.0316H15.6887V61.751H23.5331V54.0316Z" fill="#F48F42"/>
<path d="M23.5331 30.8774H15.6887V38.5968H23.5331V30.8774Z" fill="#F48F42"/>
<path d="M23.5331 23.1581H15.6887V30.8774H23.5331V23.1581Z" fill="#F26E14"/>
<path d="M23.5331 15.4387H15.6887V23.1581H23.5331V15.4387Z" fill="#F26E14"/>
<path d="M15.6887 100.344H7.84436V108.063H15.6887V100.344Z" fill="#F48F42"/>
<path d="M15.6887 92.6245H7.84436V100.344H15.6887V92.6245Z" fill="#F48F42"/>
<path d="M15.6887 77.1897H7.84436V84.9091H15.6887V77.1897Z" fill="#F48F42"/>
<path d="M15.6887 69.4703H7.84436V77.1897H15.6887V69.4703Z" fill="#F48F42"/>
<path d="M15.6887 61.751H7.84436V69.4703H15.6887V61.751Z" fill="#F48F42"/>
<path d="M15.6887 30.8774H7.84436V38.5968H15.6887V30.8774Z" fill="#FF91AB"/>
<path d="M15.6887 23.1581H7.84436V30.8774H15.6887V23.1581Z" fill="#FF91AB"/>
<path d="M7.84438 100.344H0V108.063H7.84438V100.344Z" fill="#F26E14"/>
<path d="M7.84438 92.6245H0V100.344H7.84438V92.6245Z" fill="#FF91AB"/>
</svg>
