<svg width="358" height="451" viewBox="0 0 358 451" fill="none" xmlns="http://www.w3.org/2000/svg">
<path d="M358 268.167H346.45V280.351H358V268.167Z" fill="#E2505E"/>
<path d="M358 255.976H346.45V268.167H358V255.976Z" fill="#E2505E"/>
<path d="M358 73.137H346.45V85.3275H358V73.137Z" fill="#F4E1E1"/>
<path d="M358 60.9464H346.45V73.137H358V60.9464Z" fill="#F4E1E1"/>
<path d="M358 48.7559H346.45V60.9464H358V48.7559Z" fill="#F4E1E1"/>
<path d="M358 36.5717H346.45V48.756H358V36.5717Z" fill="#F4E1E1"/>
<path d="M346.45 280.351H334.901V292.542H346.45V280.351Z" fill="#AA2639"/>
<path d="M346.45 268.167H334.901V280.351H346.45V268.167Z" fill="#E2505E"/>
<path d="M346.45 255.976H334.901V268.167H346.45V255.976Z" fill="#E2505E"/>
<path d="M346.45 182.839H334.901V195.03H346.45V182.839Z" fill="#E2505E"/>
<path d="M346.45 170.649H334.901V182.839H346.45V170.649Z" fill="#E2505E"/>
<path d="M346.45 158.458H334.901V170.649H346.45V158.458Z" fill="#E2505E"/>
<path d="M346.45 146.274H334.901V158.458H346.45V146.274Z" fill="#E2505E"/>
<path d="M346.45 134.083H334.901V146.274H346.45V134.083Z" fill="#E2505E"/>
<path d="M346.45 85.3275H334.901V97.518H346.45V85.3275Z" fill="#F4E1E1"/>
<path d="M346.45 73.137H334.901V85.3275H346.45V73.137Z" fill="#F4E1E1"/>
<path d="M346.45 60.9464H334.901V73.137H346.45V60.9464Z" fill="#F4E1E1"/>
<path d="M346.45 48.7559H334.901V60.9464H346.45V48.7559Z" fill="#F4E1E1"/>
<path d="M346.45 36.5717H334.901V48.756H346.45V36.5717Z" fill="#F4E1E1"/>
<path d="M346.45 24.3811H334.901V36.5716H346.45V24.3811Z" fill="#F4E1E1"/>
<path d="M346.45 12.1906H334.901V24.3811H346.45V12.1906Z" fill="#AA2639"/>
<path d="M346.45 0H334.901V12.1905H346.45V0Z" fill="#AA2639"/>
<path d="M334.901 304.732H323.357V316.923H334.901V304.732Z" fill="#AA2639"/>
<path d="M334.901 292.542H323.357V304.732H334.901V292.542Z" fill="#AA2639"/>
<path d="M334.901 280.351H323.357V292.542H334.901V280.351Z" fill="#AA2639"/>
<path d="M334.901 268.167H323.357V280.351H334.901V268.167Z" fill="#AA2639"/>
<path d="M334.901 255.976H323.357V268.167H334.901V255.976Z" fill="#AA2639"/>
<path d="M334.901 207.22H323.357V219.405H334.901V207.22Z" fill="#E2505E"/>
<path d="M334.901 195.03H323.357V207.22H334.901V195.03Z" fill="#E2505E"/>
<path d="M334.901 182.839H323.357V195.03H334.901V182.839Z" fill="#E2505E"/>
<path d="M334.901 170.649H323.357V182.839H334.901V170.649Z" fill="#E2505E"/>
<path d="M334.901 158.458H323.357V170.649H334.901V158.458Z" fill="#E2505E"/>
<path d="M334.901 146.274H323.357V158.458H334.901V146.274Z" fill="#E2505E"/>
<path d="M334.901 134.083H323.357V146.274H334.901V134.083Z" fill="#E2505E"/>
<path d="M334.901 121.893H323.357V134.083H334.901V121.893Z" fill="#E2505E"/>
<path d="M334.901 109.702H323.357V121.893H334.901V109.702Z" fill="#E2505E"/>
<path d="M334.901 97.5181H323.357V109.702H334.901V97.5181Z" fill="#F4E1E1"/>
<path d="M334.901 85.3275H323.357V97.518H334.901V85.3275Z" fill="#F4E1E1"/>
<path d="M334.901 73.137H323.357V85.3275H334.901V73.137Z" fill="#F4E1E1"/>
<path d="M334.901 60.9464H323.357V73.137H334.901V60.9464Z" fill="#F4E1E1"/>
<path d="M334.901 48.7559H323.357V60.9464H334.901V48.7559Z" fill="#F4E1E1"/>
<path d="M334.901 36.5717H323.357V48.756H334.901V36.5717Z" fill="#F4E1E1"/>
<path d="M334.901 24.3811H323.357V36.5716H334.901V24.3811Z" fill="#AA2639"/>
<path d="M334.901 12.1906H323.357V24.3811H334.901V12.1906Z" fill="#AA2639"/>
<path d="M334.901 0H323.357V12.1905H334.901V0Z" fill="#AA2639"/>
<path d="M323.357 329.107H311.807V341.298H323.357V329.107Z" fill="#AA2639"/>
<path d="M323.357 316.923H311.807V329.107H323.357V316.923Z" fill="#AA2639"/>
<path d="M323.357 304.732H311.807V316.923H323.357V304.732Z" fill="#AA2639"/>
<path d="M323.357 292.542H311.807V304.732H323.357V292.542Z" fill="#AA2639"/>
<path d="M323.357 280.351H311.807V292.542H323.357V280.351Z" fill="#AA2639"/>
<path d="M323.357 268.167H311.807V280.351H323.357V268.167Z" fill="#AA2639"/>
<path d="M323.357 219.405H311.807V231.595H323.357V219.405Z" fill="#E2505E"/>
<path d="M323.357 207.22H311.807V219.405H323.357V207.22Z" fill="#E2505E"/>
<path d="M323.357 195.03H311.807V207.22H323.357V195.03Z" fill="#E2505E"/>
<path d="M323.357 182.839H311.807V195.03H323.357V182.839Z" fill="#E2505E"/>
<path d="M323.357 170.649H311.807V182.839H323.357V170.649Z" fill="#E2505E"/>
<path d="M323.357 158.458H311.807V170.649H323.357V158.458Z" fill="#E2505E"/>
<path d="M323.357 146.274H311.807V158.458H323.357V146.274Z" fill="#E2505E"/>
<path d="M323.357 134.083H311.807V146.274H323.357V134.083Z" fill="#E2505E"/>
<path d="M323.357 121.893H311.807V134.083H323.357V121.893Z" fill="#E2505E"/>
<path d="M323.357 109.702H311.807V121.893H323.357V109.702Z" fill="#E2505E"/>
<path d="M323.357 97.5181H311.807V109.702H323.357V97.5181Z" fill="#E2505E"/>
<path d="M323.357 85.3275H311.807V97.518H323.357V85.3275Z" fill="#E2505E"/>
<path d="M323.357 73.137H311.807V85.3275H323.357V73.137Z" fill="#F4E1E1"/>
<path d="M323.357 60.9464H311.807V73.137H323.357V60.9464Z" fill="#F4E1E1"/>
<path d="M323.357 48.7559H311.807V60.9464H323.357V48.7559Z" fill="#F4E1E1"/>
<path d="M323.357 36.5717H311.807V48.756H323.357V36.5717Z" fill="#F4E1E1"/>
<path d="M323.357 24.3811H311.807V36.5716H323.357V24.3811Z" fill="#AA2639"/>
<path d="M323.357 12.1906H311.807V24.3811H323.357V12.1906Z" fill="#AA2639"/>
<path d="M323.357 0H311.807V12.1905H323.357V0Z" fill="#AA2639"/>
<path d="M311.807 377.869H300.257V390.053H311.807V377.869Z" fill="#AA2639"/>
<path d="M311.807 365.679H300.257V377.869H311.807V365.679Z" fill="#AA2639"/>
<path d="M311.807 353.488H300.257V365.679H311.807V353.488Z" fill="#AA2639"/>
<path d="M311.807 329.107H300.257V341.298H311.807V329.107Z" fill="#AA2639"/>
<path d="M311.807 316.923H300.257V329.107H311.807V316.923Z" fill="#AA2639"/>
<path d="M311.807 304.732H300.257V316.923H311.807V304.732Z" fill="#AA2639"/>
<path d="M311.807 292.542H300.257V304.732H311.807V292.542Z" fill="#AA2639"/>
<path d="M311.807 231.595H300.257V243.786H311.807V231.595Z" fill="#E2505E"/>
<path d="M311.807 219.405H300.257V231.595H311.807V219.405Z" fill="#E2505E"/>
<path d="M311.807 207.22H300.257V219.405H311.807V207.22Z" fill="#E2505E"/>
<path d="M311.807 195.03H300.257V207.22H311.807V195.03Z" fill="#E2505E"/>
<path d="M311.807 182.839H300.257V195.03H311.807V182.839Z" fill="#E2505E"/>
<path d="M311.807 170.649H300.257V182.839H311.807V170.649Z" fill="#E2505E"/>
<path d="M311.807 158.458H300.257V170.649H311.807V158.458Z" fill="#E2505E"/>
<path d="M311.807 146.274H300.257V158.458H311.807V146.274Z" fill="#E2505E"/>
<path d="M311.807 134.083H300.257V146.274H311.807V134.083Z" fill="#E2505E"/>
<path d="M311.807 121.893H300.257V134.083H311.807V121.893Z" fill="#E2505E"/>
<path d="M311.807 109.702H300.257V121.893H311.807V109.702Z" fill="#E2505E"/>
<path d="M311.807 97.5181H300.257V109.702H311.807V97.5181Z" fill="#E2505E"/>
<path d="M311.807 85.3275H300.257V97.518H311.807V85.3275Z" fill="#E2505E"/>
<path d="M311.807 73.137H300.257V85.3275H311.807V73.137Z" fill="#E2505E"/>
<path d="M311.807 60.9464H300.257V73.137H311.807V60.9464Z" fill="#F4E1E1"/>
<path d="M311.807 48.7559H300.257V60.9464H311.807V48.7559Z" fill="#F4E1E1"/>
<path d="M311.807 36.5717H300.257V48.756H311.807V36.5717Z" fill="#F4E1E1"/>
<path d="M311.807 24.3811H300.257V36.5716H311.807V24.3811Z" fill="#AA2639"/>
<path d="M311.807 12.1906H300.257V24.3811H311.807V12.1906Z" fill="#AA2639"/>
<path d="M311.807 0H300.257V12.1905H311.807V0Z" fill="#AA2639"/>
<path d="M300.257 377.869H288.708V390.053H300.257V377.869Z" fill="#AA2639"/>
<path d="M300.257 365.679H288.708V377.869H300.257V365.679Z" fill="#AA2639"/>
<path d="M300.257 353.488H288.708V365.679H300.257V353.488Z" fill="#AA2639"/>
<path d="M300.257 341.298H288.708V353.488H300.257V341.298Z" fill="#AA2639"/>
<path d="M300.257 329.107H288.708V341.298H300.257V329.107Z" fill="#7C192C"/>
<path d="M300.257 316.923H288.708V329.107H300.257V316.923Z" fill="#AA2639"/>
<path d="M300.257 304.732H288.708V316.923H300.257V304.732Z" fill="#AA2639"/>
<path d="M300.257 243.786H288.708V255.976H300.257V243.786Z" fill="#E2505E"/>
<path d="M300.257 231.595H288.708V243.786H300.257V231.595Z" fill="#E2505E"/>
<path d="M300.257 219.405H288.708V231.595H300.257V219.405Z" fill="#E2505E"/>
<path d="M300.257 207.22H288.708V219.405H300.257V207.22Z" fill="#E2505E"/>
<path d="M300.257 195.03H288.708V207.22H300.257V195.03Z" fill="#E2505E"/>
<path d="M300.257 182.839H288.708V195.03H300.257V182.839Z" fill="#23282D"/>
<path d="M300.257 170.649H288.708V182.839H300.257V170.649Z" fill="#E2505E"/>
<path d="M300.257 158.458H288.708V170.649H300.257V158.458Z" fill="#E2505E"/>
<path d="M300.257 146.274H288.708V158.458H300.257V146.274Z" fill="#E2505E"/>
<path d="M300.257 134.083H288.708V146.274H300.257V134.083Z" fill="#E2505E"/>
<path d="M300.257 121.893H288.708V134.083H300.257V121.893Z" fill="#E2505E"/>
<path d="M300.257 109.702H288.708V121.893H300.257V109.702Z" fill="#E2505E"/>
<path d="M300.257 97.5181H288.708V109.702H300.257V97.5181Z" fill="#E2505E"/>
<path d="M300.257 85.3275H288.708V97.518H300.257V85.3275Z" fill="#E2505E"/>
<path d="M300.257 73.137H288.708V85.3275H300.257V73.137Z" fill="#E2505E"/>
<path d="M300.257 60.9464H288.708V73.137H300.257V60.9464Z" fill="#E2505E"/>
<path d="M300.257 48.7559H288.708V60.9464H300.257V48.7559Z" fill="#F4E1E1"/>
<path d="M300.257 36.5717H288.708V48.756H300.257V36.5717Z" fill="#AA2639"/>
<path d="M300.257 24.3811H288.708V36.5716H300.257V24.3811Z" fill="#AA2639"/>
<path d="M300.257 12.1906H288.708V24.3811H300.257V12.1906Z" fill="#AA2639"/>
<path d="M288.708 377.869H277.164V390.053H288.708V377.869Z" fill="#AA2639"/>
<path d="M288.708 365.679H277.164V377.869H288.708V365.679Z" fill="#AA2639"/>
<path d="M288.708 353.488H277.164V365.679H288.708V353.488Z" fill="#AA2639"/>
<path d="M288.708 341.298H277.164V353.488H288.708V341.298Z" fill="#AA2639"/>
<path d="M288.708 329.107H277.164V341.298H288.708V329.107Z" fill="#7C192C"/>
<path d="M288.708 316.923H277.164V329.107H288.708V316.923Z" fill="#7C192C"/>
<path d="M288.708 304.732H277.164V316.923H288.708V304.732Z" fill="#E2505E"/>
<path d="M288.708 292.542H277.164V304.732H288.708V292.542Z" fill="#E2505E"/>
<path d="M288.708 280.351H277.164V292.542H288.708V280.351Z" fill="#E2505E"/>
<path d="M288.708 243.786H277.164V255.976H288.708V243.786Z" fill="#E2505E"/>
<path d="M288.708 231.595H277.164V243.786H288.708V231.595Z" fill="#E2505E"/>
<path d="M288.708 219.405H277.164V231.595H288.708V219.405Z" fill="#E2505E"/>
<path d="M288.708 207.22H277.164V219.405H288.708V207.22Z" fill="#23282D"/>
<path d="M288.708 195.03H277.164V207.22H288.708V195.03Z" fill="#E2505E"/>
<path d="M288.708 182.839H277.164V195.03H288.708V182.839Z" fill="#23282D"/>
<path d="M288.708 170.649H277.164V182.839H288.708V170.649Z" fill="#E2505E"/>
<path d="M288.708 158.458H277.164V170.649H288.708V158.458Z" fill="#23282D"/>
<path d="M288.708 146.274H277.164V158.458H288.708V146.274Z" fill="#E2505E"/>
<path d="M288.708 134.083H277.164V146.274H288.708V134.083Z" fill="#23282D"/>
<path d="M288.708 121.893H277.164V134.083H288.708V121.893Z" fill="#E2505E"/>
<path d="M288.708 109.702H277.164V121.893H288.708V109.702Z" fill="#E2505E"/>
<path d="M288.708 97.5181H277.164V109.702H288.708V97.5181Z" fill="#E2505E"/>
<path d="M288.708 85.3275H277.164V97.518H288.708V85.3275Z" fill="#E2505E"/>
<path d="M288.708 73.137H277.164V85.3275H288.708V73.137Z" fill="#E2505E"/>
<path d="M288.708 60.9464H277.164V73.137H288.708V60.9464Z" fill="#E2505E"/>
<path d="M288.708 48.7559H277.164V60.9464H288.708V48.7559Z" fill="#AA2639"/>
<path d="M288.708 36.5717H277.164V48.756H288.708V36.5717Z" fill="#AA2639"/>
<path d="M288.708 24.3811H277.164V36.5716H288.708V24.3811Z" fill="#AA2639"/>
<path d="M288.708 12.1906H277.164V24.3811H288.708V12.1906Z" fill="#AA2639"/>
<path d="M277.164 365.679H265.614V377.869H277.164V365.679Z" fill="#AA2639"/>
<path d="M277.164 353.488H265.614V365.679H277.164V353.488Z" fill="#AA2639"/>
<path d="M277.164 341.298H265.614V353.488H277.164V341.298Z" fill="#7C192C"/>
<path d="M277.164 329.107H265.614V341.298H277.164V329.107Z" fill="#7C192C"/>
<path d="M277.164 316.923H265.614V329.107H277.164V316.923Z" fill="#E2505E"/>
<path d="M277.164 304.732H265.614V316.923H277.164V304.732Z" fill="#E2505E"/>
<path d="M277.164 292.542H265.614V304.732H277.164V292.542Z" fill="#E2505E"/>
<path d="M277.164 280.351H265.614V292.542H277.164V280.351Z" fill="#E2505E"/>
<path d="M277.164 268.167H265.614V280.351H277.164V268.167Z" fill="#E2505E"/>
<path d="M277.164 255.976H265.614V268.167H277.164V255.976Z" fill="#E2505E"/>
<path d="M277.164 243.786H265.614V255.976H277.164V243.786Z" fill="#E2505E"/>
<path d="M277.164 231.595H265.614V243.786H277.164V231.595Z" fill="#E2505E"/>
<path d="M277.164 219.405H265.614V231.595H277.164V219.405Z" fill="#E2505E"/>
<path d="M277.164 207.22H265.614V219.405H277.164V207.22Z" fill="#E2505E"/>
<path d="M277.164 195.03H265.614V207.22H277.164V195.03Z" fill="#23282D"/>
<path d="M277.164 182.839H265.614V195.03H277.164V182.839Z" fill="#F4E1E1"/>
<path d="M277.164 170.649H265.614V182.839H277.164V170.649Z" fill="#23282D"/>
<path d="M277.164 158.458H265.614V170.649H277.164V158.458Z" fill="#E2505E"/>
<path d="M277.164 146.274H265.614V158.458H277.164V146.274Z" fill="#23282D"/>
<path d="M277.164 134.083H265.614V146.274H277.164V134.083Z" fill="#23282D"/>
<path d="M277.164 121.893H265.614V134.083H277.164V121.893Z" fill="#E2505E"/>
<path d="M277.164 109.702H265.614V121.893H277.164V109.702Z" fill="#E2505E"/>
<path d="M277.164 97.5181H265.614V109.702H277.164V97.5181Z" fill="#E2505E"/>
<path d="M277.164 85.3275H265.614V97.518H277.164V85.3275Z" fill="#E2505E"/>
<path d="M277.164 73.137H265.614V85.3275H277.164V73.137Z" fill="#E2505E"/>
<path d="M277.164 60.9464H265.614V73.137H277.164V60.9464Z" fill="#E2505E"/>
<path d="M277.164 48.7559H265.614V60.9464H277.164V48.7559Z" fill="#E2505E"/>
<path d="M277.164 36.5717H265.614V48.756H277.164V36.5717Z" fill="#AA2639"/>
<path d="M277.164 24.3811H265.614V36.5716H277.164V24.3811Z" fill="#AA2639"/>
<path d="M277.164 12.1906H265.614V24.3811H277.164V12.1906Z" fill="#AA2639"/>
<path d="M265.614 353.488H254.064V365.679H265.614V353.488Z" fill="#7C192C"/>
<path d="M265.614 341.298H254.064V353.488H265.614V341.298Z" fill="#E2505E"/>
<path d="M265.614 329.107H254.064V341.298H265.614V329.107Z" fill="#E2505E"/>
<path d="M265.614 316.923H254.064V329.107H265.614V316.923Z" fill="#E2505E"/>
<path d="M265.614 304.732H254.064V316.923H265.614V304.732Z" fill="#E2505E"/>
<path d="M265.614 292.542H254.064V304.732H265.614V292.542Z" fill="#E2505E"/>
<path d="M265.614 280.351H254.064V292.542H265.614V280.351Z" fill="#E2505E"/>
<path d="M265.614 268.167H254.064V280.351H265.614V268.167Z" fill="#E2505E"/>
<path d="M265.614 255.976H254.064V268.167H265.614V255.976Z" fill="#E2505E"/>
<path d="M265.614 243.786H254.064V255.976H265.614V243.786Z" fill="#E2505E"/>
<path d="M265.614 231.595H254.064V243.786H265.614V231.595Z" fill="#E2505E"/>
<path d="M265.614 219.405H254.064V231.595H265.614V219.405Z" fill="#E2505E"/>
<path d="M265.614 207.22H254.064V219.405H265.614V207.22Z" fill="#F4E1E1"/>
<path d="M265.614 195.03H254.064V207.22H265.614V195.03Z" fill="#F4E1E1"/>
<path d="M265.614 182.839H254.064V195.03H265.614V182.839Z" fill="#F4E1E1"/>
<path d="M265.614 170.649H254.064V182.839H265.614V170.649Z" fill="#F4E1E1"/>
<path d="M265.614 158.458H254.064V170.649H265.614V158.458Z" fill="#23282D"/>
<path d="M265.614 146.274H254.064V158.458H265.614V146.274Z" fill="#23282D"/>
<path d="M265.614 134.083H254.064V146.274H265.614V134.083Z" fill="#23282D"/>
<path d="M265.614 121.893H254.064V134.083H265.614V121.893Z" fill="#E2505E"/>
<path d="M265.614 109.702H254.064V121.893H265.614V109.702Z" fill="#23282D"/>
<path d="M265.614 97.5181H254.064V109.702H265.614V97.5181Z" fill="#E2505E"/>
<path d="M265.614 85.3275H254.064V97.518H265.614V85.3275Z" fill="#E2505E"/>
<path d="M265.614 73.137H254.064V85.3275H265.614V73.137Z" fill="#E2505E"/>
<path d="M265.614 60.9464H254.064V73.137H265.614V60.9464Z" fill="#E2505E"/>
<path d="M265.614 48.7559H254.064V60.9464H265.614V48.7559Z" fill="#E2505E"/>
<path d="M265.614 36.5717H254.064V48.756H265.614V36.5717Z" fill="#E2505E"/>
<path d="M265.614 24.3811H254.064V36.5716H265.614V24.3811Z" fill="#AA2639"/>
<path d="M254.064 353.488H242.515V365.679H254.064V353.488Z" fill="#E2505E"/>
<path d="M254.064 341.298H242.515V353.488H254.064V341.298Z" fill="#E2505E"/>
<path d="M254.064 329.107H242.515V341.298H254.064V329.107Z" fill="#E2505E"/>
<path d="M254.064 316.923H242.515V329.107H254.064V316.923Z" fill="#E2505E"/>
<path d="M254.064 304.732H242.515V316.923H254.064V304.732Z" fill="#E2505E"/>
<path d="M254.064 292.542H242.515V304.732H254.064V292.542Z" fill="#E2505E"/>
<path d="M254.064 280.351H242.515V292.542H254.064V280.351Z" fill="#E2505E"/>
<path d="M254.064 268.167H242.515V280.351H254.064V268.167Z" fill="#E2505E"/>
<path d="M254.064 255.976H242.515V268.167H254.064V255.976Z" fill="#E2505E"/>
<path d="M254.064 243.786H242.515V255.976H254.064V243.786Z" fill="#E2505E"/>
<path d="M254.064 231.595H242.515V243.786H254.064V231.595Z" fill="#E2505E"/>
<path d="M254.064 219.405H242.515V231.595H254.064V219.405Z" fill="#E2505E"/>
<path d="M254.064 207.22H242.515V219.405H254.064V207.22Z" fill="#F4E1E1"/>
<path d="M254.064 195.03H242.515V207.22H254.064V195.03Z" fill="#F4E1E1"/>
<path d="M254.064 182.839H242.515V195.03H254.064V182.839Z" fill="#99D1FF"/>
<path d="M254.064 170.649H242.515V182.839H254.064V170.649Z" fill="#F4E1E1"/>
<path d="M254.064 158.458H242.515V170.649H254.064V158.458Z" fill="#23282D"/>
<path d="M254.064 146.274H242.515V158.458H254.064V146.274Z" fill="#23282D"/>
<path d="M254.064 134.083H242.515V146.274H254.064V134.083Z" fill="#23282D"/>
<path d="M254.064 121.893H242.515V134.083H254.064V121.893Z" fill="#E2505E"/>
<path d="M254.064 109.702H242.515V121.893H254.064V109.702Z" fill="#23282D"/>
<path d="M254.064 97.5181H242.515V109.702H254.064V97.5181Z" fill="#E2505E"/>
<path d="M254.064 85.3275H242.515V97.518H254.064V85.3275Z" fill="#E2505E"/>
<path d="M254.064 73.137H242.515V85.3275H254.064V73.137Z" fill="#E2505E"/>
<path d="M254.064 60.9464H242.515V73.137H254.064V60.9464Z" fill="#E2505E"/>
<path d="M254.064 48.7559H242.515V60.9464H254.064V48.7559Z" fill="#E2505E"/>
<path d="M254.064 36.5717H242.515V48.756H254.064V36.5717Z" fill="#E2505E"/>
<path d="M242.515 426.625H230.965V438.81H242.515V426.625Z" fill="#AA2639"/>
<path d="M242.515 414.435H230.965V426.625H242.515V414.435Z" fill="#AA2639"/>
<path d="M242.515 402.244H230.965V414.435H242.515V402.244Z" fill="#AA2639"/>
<path d="M242.515 390.053H230.965V402.244H242.515V390.053Z" fill="#AA2639"/>
<path d="M242.515 377.869H230.965V390.053H242.515V377.869Z" fill="#7C192C"/>
<path d="M242.515 365.679H230.965V377.869H242.515V365.679Z" fill="#E2505E"/>
<path d="M242.515 353.488H230.965V365.679H242.515V353.488Z" fill="#E2505E"/>
<path d="M242.515 341.298H230.965V353.488H242.515V341.298Z" fill="#E2505E"/>
<path d="M242.515 329.107H230.965V341.298H242.515V329.107Z" fill="#E2505E"/>
<path d="M242.515 316.923H230.965V329.107H242.515V316.923Z" fill="#E2505E"/>
<path d="M242.515 304.732H230.965V316.923H242.515V304.732Z" fill="#E2505E"/>
<path d="M242.515 292.542H230.965V304.732H242.515V292.542Z" fill="#E2505E"/>
<path d="M242.515 280.351H230.965V292.542H242.515V280.351Z" fill="#E2505E"/>
<path d="M242.515 268.167H230.965V280.351H242.515V268.167Z" fill="#E2505E"/>
<path d="M242.515 255.976H230.965V268.167H242.515V255.976Z" fill="#E2505E"/>
<path d="M242.515 243.786H230.965V255.976H242.515V243.786Z" fill="#E2505E"/>
<path d="M242.515 231.595H230.965V243.786H242.515V231.595Z" fill="#E2505E"/>
<path d="M242.515 219.405H230.965V231.595H242.515V219.405Z" fill="#E2505E"/>
<path d="M242.515 207.22H230.965V219.405H242.515V207.22Z" fill="#E2505E"/>
<path d="M242.515 195.03H230.965V207.22H242.515V195.03Z" fill="#99D1FF"/>
<path d="M242.515 182.839H230.965V195.03H242.515V182.839Z" fill="#FDFEFF"/>
<path d="M242.515 170.649H230.965V182.839H242.515V170.649Z" fill="#29A9FF"/>
<path d="M242.515 158.458H230.965V170.649H242.515V158.458Z" fill="#23282D"/>
<path d="M242.515 146.274H230.965V158.458H242.515V146.274Z" fill="#23282D"/>
<path d="M242.515 134.083H230.965V146.274H242.515V134.083Z" fill="#23282D"/>
<path d="M242.515 121.893H230.965V134.083H242.515V121.893Z" fill="#E2505E"/>
<path d="M242.515 109.702H230.965V121.893H242.515V109.702Z" fill="#E2505E"/>
<path d="M242.515 97.5181H230.965V109.702H242.515V97.5181Z" fill="#23282D"/>
<path d="M242.515 85.3275H230.965V97.518H242.515V85.3275Z" fill="#E2505E"/>
<path d="M242.515 73.137H230.965V85.3275H242.515V73.137Z" fill="#E2505E"/>
<path d="M242.515 60.9464H230.965V73.137H242.515V60.9464Z" fill="#E2505E"/>
<path d="M242.515 48.7559H230.965V60.9464H242.515V48.7559Z" fill="#E2505E"/>
<path d="M242.515 36.5717H230.965V48.756H242.515V36.5717Z" fill="#E2505E"/>
<path d="M230.965 438.81H219.421V451H230.965V438.81Z" fill="#AA2639"/>
<path d="M230.965 426.625H219.421V438.81H230.965V426.625Z" fill="#AA2639"/>
<path d="M230.965 414.435H219.421V426.625H230.965V414.435Z" fill="#AA2639"/>
<path d="M230.965 402.244H219.421V414.435H230.965V402.244Z" fill="#AA2639"/>
<path d="M230.965 390.053H219.421V402.244H230.965V390.053Z" fill="#7C192C"/>
<path d="M230.965 377.869H219.421V390.053H230.965V377.869Z" fill="#7C192C"/>
<path d="M230.965 365.679H219.421V377.869H230.965V365.679Z" fill="#E2505E"/>
<path d="M230.965 353.488H219.421V365.679H230.965V353.488Z" fill="#E2505E"/>
<path d="M230.965 341.298H219.421V353.488H230.965V341.298Z" fill="#E2505E"/>
<path d="M230.965 329.107H219.421V341.298H230.965V329.107Z" fill="#E2505E"/>
<path d="M230.965 316.923H219.421V329.107H230.965V316.923Z" fill="#E2505E"/>
<path d="M230.965 304.732H219.421V316.923H230.965V304.732Z" fill="#E2505E"/>
<path d="M230.965 292.542H219.421V304.732H230.965V292.542Z" fill="#E2505E"/>
<path d="M230.965 280.351H219.421V292.542H230.965V280.351Z" fill="#E2505E"/>
<path d="M230.965 268.167H219.421V280.351H230.965V268.167Z" fill="#E2505E"/>
<path d="M230.965 255.976H219.421V268.167H230.965V255.976Z" fill="#E2505E"/>
<path d="M230.965 243.786H219.421V255.976H230.965V243.786Z" fill="#E2505E"/>
<path d="M230.965 231.595H219.421V243.786H230.965V231.595Z" fill="#E2505E"/>
<path d="M230.965 219.405H219.421V231.595H230.965V219.405Z" fill="#E2505E"/>
<path d="M230.965 207.22H219.421V219.405H230.965V207.22Z" fill="#E2505E"/>
<path d="M230.965 195.03H219.421V207.22H230.965V195.03Z" fill="#E2505E"/>
<path d="M230.965 182.839H219.421V195.03H230.965V182.839Z" fill="#29A9FF"/>
<path d="M230.965 170.649H219.421V182.839H230.965V170.649Z" fill="#E2505E"/>
<path d="M230.965 158.458H219.421V170.649H230.965V158.458Z" fill="#E2505E"/>
<path d="M230.965 146.274H219.421V158.458H230.965V146.274Z" fill="#23282D"/>
<path d="M230.965 134.083H219.421V146.274H230.965V134.083Z" fill="#23282D"/>
<path d="M230.965 121.893H219.421V134.083H230.965V121.893Z" fill="#E2505E"/>
<path d="M230.965 109.702H219.421V121.893H230.965V109.702Z" fill="#E2505E"/>
<path d="M230.965 97.5181H219.421V109.702H230.965V97.5181Z" fill="#E2505E"/>
<path d="M230.965 85.3275H219.421V97.518H230.965V85.3275Z" fill="#E2505E"/>
<path d="M230.965 73.137H219.421V85.3275H230.965V73.137Z" fill="#E2505E"/>
<path d="M230.965 60.9464H219.421V73.137H230.965V60.9464Z" fill="#E2505E"/>
<path d="M230.965 48.7559H219.421V60.9464H230.965V48.7559Z" fill="#E2505E"/>
<path d="M230.965 36.5717H219.421V48.756H230.965V36.5717Z" fill="#E2505E"/>
<path d="M219.421 438.81H207.871V451H219.421V438.81Z" fill="#AA2639"/>
<path d="M219.421 426.625H207.871V438.81H219.421V426.625Z" fill="#AA2639"/>
<path d="M219.421 414.435H207.871V426.625H219.421V414.435Z" fill="#AA2639"/>
<path d="M219.421 402.244H207.871V414.435H219.421V402.244Z" fill="#AA2639"/>
<path d="M219.421 390.053H207.871V402.244H219.421V390.053Z" fill="#7C192C"/>
<path d="M219.421 377.869H207.871V390.053H219.421V377.869Z" fill="#E2505E"/>
<path d="M219.421 365.679H207.871V377.869H219.421V365.679Z" fill="#E2505E"/>
<path d="M219.421 353.488H207.871V365.679H219.421V353.488Z" fill="#E2505E"/>
<path d="M219.421 341.298H207.871V353.488H219.421V341.298Z" fill="#E2505E"/>
<path d="M219.421 329.107H207.871V341.298H219.421V329.107Z" fill="#E2505E"/>
<path d="M219.421 316.923H207.871V329.107H219.421V316.923Z" fill="#E2505E"/>
<path d="M219.421 304.732H207.871V316.923H219.421V304.732Z" fill="#E2505E"/>
<path d="M219.421 292.542H207.871V304.732H219.421V292.542Z" fill="#E2505E"/>
<path d="M219.421 280.351H207.871V292.542H219.421V280.351Z" fill="#E2505E"/>
<path d="M219.421 268.167H207.871V280.351H219.421V268.167Z" fill="#E2505E"/>
<path d="M219.421 255.976H207.871V268.167H219.421V255.976Z" fill="#E2505E"/>
<path d="M219.421 243.786H207.871V255.976H219.421V243.786Z" fill="#E2505E"/>
<path d="M219.421 231.595H207.871V243.786H219.421V231.595Z" fill="#E2505E"/>
<path d="M219.421 219.405H207.871V231.595H219.421V219.405Z" fill="#E2505E"/>
<path d="M219.421 207.22H207.871V219.405H219.421V207.22Z" fill="#E2505E"/>
<path d="M219.421 195.03H207.871V207.22H219.421V195.03Z" fill="#E2505E"/>
<path d="M219.421 182.839H207.871V195.03H219.421V182.839Z" fill="#E2505E"/>
<path d="M219.421 170.649H207.871V182.839H219.421V170.649Z" fill="#E2505E"/>
<path d="M219.421 158.458H207.871V170.649H219.421V158.458Z" fill="#E2505E"/>
<path d="M219.421 146.274H207.871V158.458H219.421V146.274Z" fill="#E2505E"/>
<path d="M219.421 134.083H207.871V146.274H219.421V134.083Z" fill="#23282D"/>
<path d="M219.421 121.893H207.871V134.083H219.421V121.893Z" fill="#E2505E"/>
<path d="M219.421 109.702H207.871V121.893H219.421V109.702Z" fill="#E2505E"/>
<path d="M219.421 97.5181H207.871V109.702H219.421V97.5181Z" fill="#E2505E"/>
<path d="M219.421 85.3275H207.871V97.518H219.421V85.3275Z" fill="#E2505E"/>
<path d="M219.421 73.137H207.871V85.3275H219.421V73.137Z" fill="#E2505E"/>
<path d="M219.421 60.9464H207.871V73.137H219.421V60.9464Z" fill="#E2505E"/>
<path d="M219.421 48.7559H207.871V60.9464H219.421V48.7559Z" fill="#E2505E"/>
<path d="M219.421 36.5717H207.871V48.756H219.421V36.5717Z" fill="#E2505E"/>
<path d="M219.421 24.3811H207.871V36.5716H219.421V24.3811Z" fill="#E2505E"/>
<path d="M207.871 438.81H196.322V451H207.871V438.81Z" fill="#AA2639"/>
<path d="M207.871 426.625H196.322V438.81H207.871V426.625Z" fill="#AA2639"/>
<path d="M207.871 414.435H196.322V426.625H207.871V414.435Z" fill="#AA2639"/>
<path d="M207.871 402.244H196.322V414.435H207.871V402.244Z" fill="#AA2639"/>
<path d="M207.871 390.053H196.322V402.244H207.871V390.053Z" fill="#7C192C"/>
<path d="M207.871 377.869H196.322V390.053H207.871V377.869Z" fill="#E2505E"/>
<path d="M207.871 365.679H196.322V377.869H207.871V365.679Z" fill="#E2505E"/>
<path d="M207.871 353.488H196.322V365.679H207.871V353.488Z" fill="#E2505E"/>
<path d="M207.871 341.298H196.322V353.488H207.871V341.298Z" fill="#E2505E"/>
<path d="M207.871 329.107H196.322V341.298H207.871V329.107Z" fill="#E2505E"/>
<path d="M207.871 316.923H196.322V329.107H207.871V316.923Z" fill="#E2505E"/>
<path d="M207.871 304.732H196.322V316.923H207.871V304.732Z" fill="#E2505E"/>
<path d="M207.871 292.542H196.322V304.732H207.871V292.542Z" fill="#E2505E"/>
<path d="M207.871 280.351H196.322V292.542H207.871V280.351Z" fill="#E2505E"/>
<path d="M207.871 268.167H196.322V280.351H207.871V268.167Z" fill="#E2505E"/>
<path d="M207.871 255.976H196.322V268.167H207.871V255.976Z" fill="#E2505E"/>
<path d="M207.871 243.786H196.322V255.976H207.871V243.786Z" fill="#E2505E"/>
<path d="M207.871 231.595H196.322V243.786H207.871V231.595Z" fill="#E2505E"/>
<path d="M207.871 219.405H196.322V231.595H207.871V219.405Z" fill="#E2505E"/>
<path d="M207.871 207.22H196.322V219.405H207.871V207.22Z" fill="#E2505E"/>
<path d="M207.871 195.03H196.322V207.22H207.871V195.03Z" fill="#E2505E"/>
<path d="M207.871 182.839H196.322V195.03H207.871V182.839Z" fill="#E2505E"/>
<path d="M207.871 170.649H196.322V182.839H207.871V170.649Z" fill="#E2505E"/>
<path d="M207.871 158.458H196.322V170.649H207.871V158.458Z" fill="#E2505E"/>
<path d="M207.871 146.274H196.322V158.458H207.871V146.274Z" fill="#E2505E"/>
<path d="M207.871 134.083H196.322V146.274H207.871V134.083Z" fill="#E2505E"/>
<path d="M207.871 121.893H196.322V134.083H207.871V121.893Z" fill="#E2505E"/>
<path d="M207.871 109.702H196.322V121.893H207.871V109.702Z" fill="#E2505E"/>
<path d="M207.871 97.5181H196.322V109.702H207.871V97.5181Z" fill="#E2505E"/>
<path d="M207.871 85.3275H196.322V97.518H207.871V85.3275Z" fill="#E2505E"/>
<path d="M207.871 73.137H196.322V85.3275H207.871V73.137Z" fill="#E2505E"/>
<path d="M207.871 60.9464H196.322V73.137H207.871V60.9464Z" fill="#E2505E"/>
<path d="M207.871 48.7559H196.322V60.9464H207.871V48.7559Z" fill="#E2505E"/>
<path d="M207.871 36.5717H196.322V48.756H207.871V36.5717Z" fill="#E2505E"/>
<path d="M207.871 24.3811H196.322V36.5716H207.871V24.3811Z" fill="#E2505E"/>
<path d="M196.322 377.869H184.772V390.053H196.322V377.869Z" fill="#E2505E"/>
<path d="M196.322 365.679H184.772V377.869H196.322V365.679Z" fill="#E2505E"/>
<path d="M196.322 353.488H184.772V365.679H196.322V353.488Z" fill="#E2505E"/>
<path d="M196.322 341.298H184.772V353.488H196.322V341.298Z" fill="#E2505E"/>
<path d="M196.322 329.107H184.772V341.298H196.322V329.107Z" fill="#E2505E"/>
<path d="M196.322 316.923H184.772V329.107H196.322V316.923Z" fill="#E2505E"/>
<path d="M196.322 304.732H184.772V316.923H196.322V304.732Z" fill="#E2505E"/>
<path d="M196.322 292.542H184.772V304.732H196.322V292.542Z" fill="#E2505E"/>
<path d="M196.322 280.351H184.772V292.542H196.322V280.351Z" fill="#E2505E"/>
<path d="M196.322 268.167H184.772V280.351H196.322V268.167Z" fill="#E2505E"/>
<path d="M196.322 255.976H184.772V268.167H196.322V255.976Z" fill="#E2505E"/>
<path d="M196.322 243.786H184.772V255.976H196.322V243.786Z" fill="#E2505E"/>
<path d="M196.322 231.595H184.772V243.786H196.322V231.595Z" fill="#E2505E"/>
<path d="M196.322 219.405H184.772V231.595H196.322V219.405Z" fill="#E2505E"/>
<path d="M196.322 207.22H184.772V219.405H196.322V207.22Z" fill="#E2505E"/>
<path d="M196.322 195.03H184.772V207.22H196.322V195.03Z" fill="#E2505E"/>
<path d="M196.322 182.839H184.772V195.03H196.322V182.839Z" fill="#E2505E"/>
<path d="M196.322 170.649H184.772V182.839H196.322V170.649Z" fill="#F4E1E1"/>
<path d="M196.322 158.458H184.772V170.649H196.322V158.458Z" fill="#F4E1E1"/>
<path d="M196.322 146.274H184.772V158.458H196.322V146.274Z" fill="#E2505E"/>
<path d="M196.322 134.083H184.772V146.274H196.322V134.083Z" fill="#E2505E"/>
<path d="M196.322 121.893H184.772V134.083H196.322V121.893Z" fill="#E2505E"/>
<path d="M196.322 109.702H184.772V121.893H196.322V109.702Z" fill="#E2505E"/>
<path d="M196.322 97.5181H184.772V109.702H196.322V97.5181Z" fill="#E2505E"/>
<path d="M196.322 85.3275H184.772V97.518H196.322V85.3275Z" fill="#E2505E"/>
<path d="M196.322 73.137H184.772V85.3275H196.322V73.137Z" fill="#E2505E"/>
<path d="M196.322 60.9464H184.772V73.137H196.322V60.9464Z" fill="#E2505E"/>
<path d="M196.322 48.7559H184.772V60.9464H196.322V48.7559Z" fill="#E2505E"/>
<path d="M196.322 36.5717H184.772V48.756H196.322V36.5717Z" fill="#E2505E"/>
<path d="M196.322 24.3811H184.772V36.5716H196.322V24.3811Z" fill="#E2505E"/>
<path d="M184.772 377.869H173.222V390.053H184.772V377.869Z" fill="#E2505E"/>
<path d="M184.772 365.679H173.222V377.869H184.772V365.679Z" fill="#E2505E"/>
<path d="M184.772 353.488H173.222V365.679H184.772V353.488Z" fill="#E2505E"/>
<path d="M184.772 341.298H173.222V353.488H184.772V341.298Z" fill="#E2505E"/>
<path d="M184.772 329.107H173.222V341.298H184.772V329.107Z" fill="#E2505E"/>
<path d="M184.772 316.923H173.222V329.107H184.772V316.923Z" fill="#E2505E"/>
<path d="M184.772 304.732H173.222V316.923H184.772V304.732Z" fill="#E2505E"/>
<path d="M184.772 292.542H173.222V304.732H184.772V292.542Z" fill="#E2505E"/>
<path d="M184.772 280.351H173.222V292.542H184.772V280.351Z" fill="#E2505E"/>
<path d="M184.772 268.167H173.222V280.351H184.772V268.167Z" fill="#E2505E"/>
<path d="M184.772 255.976H173.222V268.167H184.772V255.976Z" fill="#E2505E"/>
<path d="M184.772 243.786H173.222V255.976H184.772V243.786Z" fill="#E2505E"/>
<path d="M184.772 231.595H173.222V243.786H184.772V231.595Z" fill="#E2505E"/>
<path d="M184.772 219.405H173.222V231.595H184.772V219.405Z" fill="#E2505E"/>
<path d="M184.772 207.22H173.222V219.405H184.772V207.22Z" fill="#E2505E"/>
<path d="M184.772 195.03H173.222V207.22H184.772V195.03Z" fill="#E2505E"/>
<path d="M184.772 182.839H173.222V195.03H184.772V182.839Z" fill="#E2505E"/>
<path d="M184.772 170.649H173.222V182.839H184.772V170.649Z" fill="#F4E1E1"/>
<path d="M184.772 158.458H173.222V170.649H184.772V158.458Z" fill="#F4E1E1"/>
<path d="M184.772 146.274H173.222V158.458H184.772V146.274Z" fill="#E2505E"/>
<path d="M184.772 134.083H173.222V146.274H184.772V134.083Z" fill="#E2505E"/>
<path d="M184.772 121.893H173.222V134.083H184.772V121.893Z" fill="#E2505E"/>
<path d="M184.772 109.702H173.222V121.893H184.772V109.702Z" fill="#E2505E"/>
<path d="M184.772 97.5181H173.222V109.702H184.772V97.5181Z" fill="#E2505E"/>
<path d="M184.772 85.3275H173.222V97.518H184.772V85.3275Z" fill="#E2505E"/>
<path d="M184.772 73.137H173.222V85.3275H184.772V73.137Z" fill="#E2505E"/>
<path d="M184.772 60.9464H173.222V73.137H184.772V60.9464Z" fill="#E2505E"/>
<path d="M184.772 48.7559H173.222V60.9464H184.772V48.7559Z" fill="#E2505E"/>
<path d="M184.772 36.5717H173.222V48.756H184.772V36.5717Z" fill="#E2505E"/>
<path d="M184.772 24.3811H173.222V36.5716H184.772V24.3811Z" fill="#E2505E"/>
<path d="M173.222 377.869H161.678V390.053H173.222V377.869Z" fill="#E2505E"/>
<path d="M173.222 365.679H161.678V377.869H173.222V365.679Z" fill="#E2505E"/>
<path d="M173.222 353.488H161.678V365.679H173.222V353.488Z" fill="#E2505E"/>
<path d="M173.222 341.298H161.678V353.488H173.222V341.298Z" fill="#E2505E"/>
<path d="M173.222 329.107H161.678V341.298H173.222V329.107Z" fill="#E2505E"/>
<path d="M173.222 316.923H161.678V329.107H173.222V316.923Z" fill="#E2505E"/>
<path d="M173.222 304.732H161.678V316.923H173.222V304.732Z" fill="#E2505E"/>
<path d="M173.222 292.542H161.678V304.732H173.222V292.542Z" fill="#E2505E"/>
<path d="M173.222 280.351H161.678V292.542H173.222V280.351Z" fill="#E2505E"/>
<path d="M173.222 268.167H161.678V280.351H173.222V268.167Z" fill="#E2505E"/>
<path d="M173.222 255.976H161.678V268.167H173.222V255.976Z" fill="#E2505E"/>
<path d="M173.222 243.786H161.678V255.976H173.222V243.786Z" fill="#E2505E"/>
<path d="M173.222 231.595H161.678V243.786H173.222V231.595Z" fill="#E2505E"/>
<path d="M173.222 219.405H161.678V231.595H173.222V219.405Z" fill="#E2505E"/>
<path d="M173.222 207.22H161.678V219.405H173.222V207.22Z" fill="#E2505E"/>
<path d="M173.222 195.03H161.678V207.22H173.222V195.03Z" fill="#E2505E"/>
<path d="M173.222 182.839H161.678V195.03H173.222V182.839Z" fill="#E2505E"/>
<path d="M173.222 170.649H161.678V182.839H173.222V170.649Z" fill="#F4E1E1"/>
<path d="M173.222 158.458H161.678V170.649H173.222V158.458Z" fill="#F4E1E1"/>
<path d="M173.222 146.274H161.678V158.458H173.222V146.274Z" fill="#E2505E"/>
<path d="M173.222 134.083H161.678V146.274H173.222V134.083Z" fill="#E2505E"/>
<path d="M173.222 121.893H161.678V134.083H173.222V121.893Z" fill="#E2505E"/>
<path d="M173.222 109.702H161.678V121.893H173.222V109.702Z" fill="#E2505E"/>
<path d="M173.222 97.5181H161.678V109.702H173.222V97.5181Z" fill="#E2505E"/>
<path d="M173.222 85.3275H161.678V97.518H173.222V85.3275Z" fill="#E2505E"/>
<path d="M173.222 73.137H161.678V85.3275H173.222V73.137Z" fill="#E2505E"/>
<path d="M173.222 60.9464H161.678V73.137H173.222V60.9464Z" fill="#E2505E"/>
<path d="M173.222 48.7559H161.678V60.9464H173.222V48.7559Z" fill="#E2505E"/>
<path d="M173.222 36.5717H161.678V48.756H173.222V36.5717Z" fill="#E2505E"/>
<path d="M173.222 24.3811H161.678V36.5716H173.222V24.3811Z" fill="#E2505E"/>
<path d="M161.678 438.81H150.129V451H161.678V438.81Z" fill="#AA2639"/>
<path d="M161.678 426.625H150.129V438.81H161.678V426.625Z" fill="#AA2639"/>
<path d="M161.678 414.435H150.129V426.625H161.678V414.435Z" fill="#AA2639"/>
<path d="M161.678 402.244H150.129V414.435H161.678V402.244Z" fill="#AA2639"/>
<path d="M161.678 390.053H150.129V402.244H161.678V390.053Z" fill="#7C192C"/>
<path d="M161.678 377.869H150.129V390.053H161.678V377.869Z" fill="#BC4052"/>
<path d="M161.678 365.679H150.129V377.869H161.678V365.679Z" fill="#E2505E"/>
<path d="M161.678 353.488H150.129V365.679H161.678V353.488Z" fill="#E2505E"/>
<path d="M161.678 341.298H150.129V353.488H161.678V341.298Z" fill="#E2505E"/>
<path d="M161.678 329.107H150.129V341.298H161.678V329.107Z" fill="#E2505E"/>
<path d="M161.678 316.923H150.129V329.107H161.678V316.923Z" fill="#E2505E"/>
<path d="M161.678 304.732H150.129V316.923H161.678V304.732Z" fill="#E2505E"/>
<path d="M161.678 292.542H150.129V304.732H161.678V292.542Z" fill="#E2505E"/>
<path d="M161.678 280.351H150.129V292.542H161.678V280.351Z" fill="#E2505E"/>
<path d="M161.678 268.167H150.129V280.351H161.678V268.167Z" fill="#E2505E"/>
<path d="M161.678 255.976H150.129V268.167H161.678V255.976Z" fill="#E2505E"/>
<path d="M161.678 243.786H150.129V255.976H161.678V243.786Z" fill="#E2505E"/>
<path d="M161.678 231.595H150.129V243.786H161.678V231.595Z" fill="#E2505E"/>
<path d="M161.678 219.405H150.129V231.595H161.678V219.405Z" fill="#E2505E"/>
<path d="M161.678 207.22H150.129V219.405H161.678V207.22Z" fill="#E2505E"/>
<path d="M161.678 195.03H150.129V207.22H161.678V195.03Z" fill="#E2505E"/>
<path d="M161.678 182.839H150.129V195.03H161.678V182.839Z" fill="#E2505E"/>
<path d="M161.678 170.649H150.129V182.839H161.678V170.649Z" fill="#E2505E"/>
<path d="M161.678 158.458H150.129V170.649H161.678V158.458Z" fill="#E2505E"/>
<path d="M161.678 146.274H150.129V158.458H161.678V146.274Z" fill="#E2505E"/>
<path d="M161.678 134.083H150.129V146.274H161.678V134.083Z" fill="#E2505E"/>
<path d="M161.678 121.893H150.129V134.083H161.678V121.893Z" fill="#E2505E"/>
<path d="M161.678 109.702H150.129V121.893H161.678V109.702Z" fill="#E2505E"/>
<path d="M161.678 97.5181H150.129V109.702H161.678V97.5181Z" fill="#E2505E"/>
<path d="M161.678 85.3275H150.129V97.518H161.678V85.3275Z" fill="#E2505E"/>
<path d="M161.678 73.137H150.129V85.3275H161.678V73.137Z" fill="#E2505E"/>
<path d="M161.678 60.9464H150.129V73.137H161.678V60.9464Z" fill="#E2505E"/>
<path d="M161.678 48.7559H150.129V60.9464H161.678V48.7559Z" fill="#E2505E"/>
<path d="M161.678 36.5717H150.129V48.756H161.678V36.5717Z" fill="#E2505E"/>
<path d="M161.678 24.3811H150.129V36.5716H161.678V24.3811Z" fill="#E2505E"/>
<path d="M150.129 438.81H138.579V451H150.129V438.81Z" fill="#AA2639"/>
<path d="M150.129 426.625H138.579V438.81H150.129V426.625Z" fill="#AA2639"/>
<path d="M150.129 414.435H138.579V426.625H150.129V414.435Z" fill="#AA2639"/>
<path d="M150.129 402.244H138.579V414.435H150.129V402.244Z" fill="#AA2639"/>
<path d="M150.129 390.053H138.579V402.244H150.129V390.053Z" fill="#7C192C"/>
<path d="M150.129 377.869H138.579V390.053H150.129V377.869Z" fill="#BC4052"/>
<path d="M150.129 365.679H138.579V377.869H150.129V365.679Z" fill="#BC4052"/>
<path d="M150.129 353.488H138.579V365.679H150.129V353.488Z" fill="#E2505E"/>
<path d="M150.129 341.298H138.579V353.488H150.129V341.298Z" fill="#E2505E"/>
<path d="M150.129 329.107H138.579V341.298H150.129V329.107Z" fill="#E2505E"/>
<path d="M150.129 316.923H138.579V329.107H150.129V316.923Z" fill="#E2505E"/>
<path d="M150.129 304.732H138.579V316.923H150.129V304.732Z" fill="#E2505E"/>
<path d="M150.129 292.542H138.579V304.732H150.129V292.542Z" fill="#E2505E"/>
<path d="M150.129 280.351H138.579V292.542H150.129V280.351Z" fill="#E2505E"/>
<path d="M150.129 268.167H138.579V280.351H150.129V268.167Z" fill="#E2505E"/>
<path d="M150.129 255.976H138.579V268.167H150.129V255.976Z" fill="#E2505E"/>
<path d="M150.129 243.786H138.579V255.976H150.129V243.786Z" fill="#E2505E"/>
<path d="M150.129 231.595H138.579V243.786H150.129V231.595Z" fill="#E2505E"/>
<path d="M150.129 219.405H138.579V231.595H150.129V219.405Z" fill="#E2505E"/>
<path d="M150.129 207.22H138.579V219.405H150.129V207.22Z" fill="#E2505E"/>
<path d="M150.129 195.03H138.579V207.22H150.129V195.03Z" fill="#E2505E"/>
<path d="M150.129 182.839H138.579V195.03H150.129V182.839Z" fill="#E2505E"/>
<path d="M150.129 170.649H138.579V182.839H150.129V170.649Z" fill="#E2505E"/>
<path d="M150.129 158.458H138.579V170.649H150.129V158.458Z" fill="#E2505E"/>
<path d="M150.129 146.274H138.579V158.458H150.129V146.274Z" fill="#E2505E"/>
<path d="M150.129 134.083H138.579V146.274H150.129V134.083Z" fill="#23282D"/>
<path d="M150.129 121.893H138.579V134.083H150.129V121.893Z" fill="#E2505E"/>
<path d="M150.129 109.702H138.579V121.893H150.129V109.702Z" fill="#E2505E"/>
<path d="M150.129 97.5181H138.579V109.702H150.129V97.5181Z" fill="#E2505E"/>
<path d="M150.129 85.3275H138.579V97.518H150.129V85.3275Z" fill="#E2505E"/>
<path d="M150.129 73.137H138.579V85.3275H150.129V73.137Z" fill="#E2505E"/>
<path d="M150.129 60.9464H138.579V73.137H150.129V60.9464Z" fill="#E2505E"/>
<path d="M150.129 48.7559H138.579V60.9464H150.129V48.7559Z" fill="#E2505E"/>
<path d="M150.129 36.5717H138.579V48.756H150.129V36.5717Z" fill="#E2505E"/>
<path d="M150.129 24.3811H138.579V36.5716H150.129V24.3811Z" fill="#E2505E"/>
<path d="M138.579 438.81H127.029V451H138.579V438.81Z" fill="#AA2639"/>
<path d="M138.579 426.625H127.029V438.81H138.579V426.625Z" fill="#AA2639"/>
<path d="M138.579 414.435H127.029V426.625H138.579V414.435Z" fill="#AA2639"/>
<path d="M138.579 402.244H127.029V414.435H138.579V402.244Z" fill="#AA2639"/>
<path d="M138.579 390.053H127.029V402.244H138.579V390.053Z" fill="#7C192C"/>
<path d="M138.579 377.869H127.029V390.053H138.579V377.869Z" fill="#7C192C"/>
<path d="M138.579 365.679H127.029V377.869H138.579V365.679Z" fill="#BC4052"/>
<path d="M138.579 353.488H127.029V365.679H138.579V353.488Z" fill="#BC4052"/>
<path d="M138.579 341.298H127.029V353.488H138.579V341.298Z" fill="#BC4052"/>
<path d="M138.579 329.107H127.029V341.298H138.579V329.107Z" fill="#E2505E"/>
<path d="M138.579 316.923H127.029V329.107H138.579V316.923Z" fill="#E2505E"/>
<path d="M138.579 304.732H127.029V316.923H138.579V304.732Z" fill="#E2505E"/>
<path d="M138.579 292.542H127.029V304.732H138.579V292.542Z" fill="#E2505E"/>
<path d="M138.579 280.351H127.029V292.542H138.579V280.351Z" fill="#E2505E"/>
<path d="M138.579 268.167H127.029V280.351H138.579V268.167Z" fill="#E2505E"/>
<path d="M138.579 255.976H127.029V268.167H138.579V255.976Z" fill="#E2505E"/>
<path d="M138.579 243.786H127.029V255.976H138.579V243.786Z" fill="#E2505E"/>
<path d="M138.579 231.595H127.029V243.786H138.579V231.595Z" fill="#E2505E"/>
<path d="M138.579 219.405H127.029V231.595H138.579V219.405Z" fill="#E2505E"/>
<path d="M138.579 207.22H127.029V219.405H138.579V207.22Z" fill="#E2505E"/>
<path d="M138.579 195.03H127.029V207.22H138.579V195.03Z" fill="#E2505E"/>
<path d="M138.579 182.839H127.029V195.03H138.579V182.839Z" fill="#99D1FF"/>
<path d="M138.579 170.649H127.029V182.839H138.579V170.649Z" fill="#E2505E"/>
<path d="M138.579 158.458H127.029V170.649H138.579V158.458Z" fill="#E2505E"/>
<path d="M138.579 146.274H127.029V158.458H138.579V146.274Z" fill="#23282D"/>
<path d="M138.579 134.083H127.029V146.274H138.579V134.083Z" fill="#23282D"/>
<path d="M138.579 121.893H127.029V134.083H138.579V121.893Z" fill="#E2505E"/>
<path d="M138.579 109.702H127.029V121.893H138.579V109.702Z" fill="#E2505E"/>
<path d="M138.579 97.5181H127.029V109.702H138.579V97.5181Z" fill="#E2505E"/>
<path d="M138.579 85.3275H127.029V97.518H138.579V85.3275Z" fill="#E2505E"/>
<path d="M138.579 73.137H127.029V85.3275H138.579V73.137Z" fill="#E2505E"/>
<path d="M138.579 60.9464H127.029V73.137H138.579V60.9464Z" fill="#E2505E"/>
<path d="M138.579 48.7559H127.029V60.9464H138.579V48.7559Z" fill="#E2505E"/>
<path d="M138.579 36.5717H127.029V48.756H138.579V36.5717Z" fill="#E2505E"/>
<path d="M138.579 24.3811H127.029V36.5716H138.579V24.3811Z" fill="#E2505E"/>
<path d="M127.029 426.625H115.485V438.81H127.029V426.625Z" fill="#AA2639"/>
<path d="M127.029 414.435H115.485V426.625H127.029V414.435Z" fill="#AA2639"/>
<path d="M127.029 402.244H115.485V414.435H127.029V402.244Z" fill="#AA2639"/>
<path d="M127.029 390.053H115.485V402.244H127.029V390.053Z" fill="#AA2639"/>
<path d="M127.029 377.869H115.485V390.053H127.029V377.869Z" fill="#7C192C"/>
<path d="M127.029 365.679H115.485V377.869H127.029V365.679Z" fill="#BC4052"/>
<path d="M127.029 353.488H115.485V365.679H127.029V353.488Z" fill="#BC4052"/>
<path d="M127.029 341.298H115.485V353.488H127.029V341.298Z" fill="#BC4052"/>
<path d="M127.029 329.107H115.485V341.298H127.029V329.107Z" fill="#BC4052"/>
<path d="M127.029 316.923H115.485V329.107H127.029V316.923Z" fill="#BC4052"/>
<path d="M127.029 304.732H115.485V316.923H127.029V304.732Z" fill="#BC4052"/>
<path d="M127.029 292.542H115.485V304.732H127.029V292.542Z" fill="#BC4052"/>
<path d="M127.029 280.351H115.485V292.542H127.029V280.351Z" fill="#BC4052"/>
<path d="M127.029 268.167H115.485V280.351H127.029V268.167Z" fill="#BC4052"/>
<path d="M127.029 255.976H115.485V268.167H127.029V255.976Z" fill="#E2505E"/>
<path d="M127.029 243.786H115.485V255.976H127.029V243.786Z" fill="#E2505E"/>
<path d="M127.029 231.595H115.485V243.786H127.029V231.595Z" fill="#E2505E"/>
<path d="M127.029 219.405H115.485V231.595H127.029V219.405Z" fill="#E2505E"/>
<path d="M127.029 207.22H115.485V219.405H127.029V207.22Z" fill="#E2505E"/>
<path d="M127.029 195.03H115.485V207.22H127.029V195.03Z" fill="#99D1FF"/>
<path d="M127.029 182.839H115.485V195.03H127.029V182.839Z" fill="#FDFEFF"/>
<path d="M127.029 170.649H115.485V182.839H127.029V170.649Z" fill="#29A9FF"/>
<path d="M127.029 158.458H115.485V170.649H127.029V158.458Z" fill="#23282D"/>
<path d="M127.029 146.274H115.485V158.458H127.029V146.274Z" fill="#23282D"/>
<path d="M127.029 134.083H115.485V146.274H127.029V134.083Z" fill="#23282D"/>
<path d="M127.029 121.893H115.485V134.083H127.029V121.893Z" fill="#E2505E"/>
<path d="M127.029 109.702H115.485V121.893H127.029V109.702Z" fill="#E2505E"/>
<path d="M127.029 97.5181H115.485V109.702H127.029V97.5181Z" fill="#23282D"/>
<path d="M127.029 85.3275H115.485V97.518H127.029V85.3275Z" fill="#E2505E"/>
<path d="M127.029 73.137H115.485V85.3275H127.029V73.137Z" fill="#E2505E"/>
<path d="M127.029 60.9464H115.485V73.137H127.029V60.9464Z" fill="#E2505E"/>
<path d="M127.029 48.7559H115.485V60.9464H127.029V48.7559Z" fill="#E2505E"/>
<path d="M127.029 36.5717H115.485V48.756H127.029V36.5717Z" fill="#E2505E"/>
<path d="M115.485 353.488H103.936V365.679H115.485V353.488Z" fill="#BC4052"/>
<path d="M115.485 341.298H103.936V353.488H115.485V341.298Z" fill="#BC4052"/>
<path d="M115.485 329.107H103.936V341.298H115.485V329.107Z" fill="#BC4052"/>
<path d="M115.485 316.923H103.936V329.107H115.485V316.923Z" fill="#BC4052"/>
<path d="M115.485 304.732H103.936V316.923H115.485V304.732Z" fill="#BC4052"/>
<path d="M115.485 292.542H103.936V304.732H115.485V292.542Z" fill="#BC4052"/>
<path d="M115.485 280.351H103.936V292.542H115.485V280.351Z" fill="#BC4052"/>
<path d="M115.485 268.167H103.936V280.351H115.485V268.167Z" fill="#BC4052"/>
<path d="M115.485 255.976H103.936V268.167H115.485V255.976Z" fill="#BC4052"/>
<path d="M115.485 243.786H103.936V255.976H115.485V243.786Z" fill="#E2505E"/>
<path d="M115.485 231.595H103.936V243.786H115.485V231.595Z" fill="#E2505E"/>
<path d="M115.485 219.405H103.936V231.595H115.485V219.405Z" fill="#E2505E"/>
<path d="M115.485 207.22H103.936V219.405H115.485V207.22Z" fill="#F4E1E1"/>
<path d="M115.485 195.03H103.936V207.22H115.485V195.03Z" fill="#F4E1E1"/>
<path d="M115.485 182.839H103.936V195.03H115.485V182.839Z" fill="#29A9FF"/>
<path d="M115.485 170.649H103.936V182.839H115.485V170.649Z" fill="#F4E1E1"/>
<path d="M115.485 158.458H103.936V170.649H115.485V158.458Z" fill="#23282D"/>
<path d="M115.485 146.274H103.936V158.458H115.485V146.274Z" fill="#23282D"/>
<path d="M115.485 134.083H103.936V146.274H115.485V134.083Z" fill="#23282D"/>
<path d="M115.485 121.893H103.936V134.083H115.485V121.893Z" fill="#E2505E"/>
<path d="M115.485 109.702H103.936V121.893H115.485V109.702Z" fill="#23282D"/>
<path d="M115.485 97.5181H103.936V109.702H115.485V97.5181Z" fill="#E2505E"/>
<path d="M115.485 85.3275H103.936V97.518H115.485V85.3275Z" fill="#E2505E"/>
<path d="M115.485 73.137H103.936V85.3275H115.485V73.137Z" fill="#E2505E"/>
<path d="M115.485 60.9464H103.936V73.137H115.485V60.9464Z" fill="#E2505E"/>
<path d="M115.485 48.7559H103.936V60.9464H115.485V48.7559Z" fill="#E2505E"/>
<path d="M115.485 36.5717H103.936V48.756H115.485V36.5717Z" fill="#E2505E"/>
<path d="M103.936 353.488H92.386V365.679H103.936V353.488Z" fill="#7C192C"/>
<path d="M103.936 341.298H92.386V353.488H103.936V341.298Z" fill="#BC4052"/>
<path d="M103.936 329.107H92.386V341.298H103.936V329.107Z" fill="#BC4052"/>
<path d="M103.936 316.923H92.386V329.107H103.936V316.923Z" fill="#BC4052"/>
<path d="M103.936 304.732H92.386V316.923H103.936V304.732Z" fill="#BC4052"/>
<path d="M103.936 292.542H92.386V304.732H103.936V292.542Z" fill="#BC4052"/>
<path d="M103.936 280.351H92.386V292.542H103.936V280.351Z" fill="#BC4052"/>
<path d="M103.936 268.167H92.386V280.351H103.936V268.167Z" fill="#BC4052"/>
<path d="M103.936 255.976H92.386V268.167H103.936V255.976Z" fill="#BC4052"/>
<path d="M103.936 243.786H92.386V255.976H103.936V243.786Z" fill="#BC4052"/>
<path d="M103.936 231.595H92.386V243.786H103.936V231.595Z" fill="#E2505E"/>
<path d="M103.936 219.405H92.386V231.595H103.936V219.405Z" fill="#E2505E"/>
<path d="M103.936 207.22H92.386V219.405H103.936V207.22Z" fill="#F4E1E1"/>
<path d="M103.936 195.03H92.386V207.22H103.936V195.03Z" fill="#F4E1E1"/>
<path d="M103.936 182.839H92.386V195.03H103.936V182.839Z" fill="#F4E1E1"/>
<path d="M103.936 170.649H92.386V182.839H103.936V170.649Z" fill="#F4E1E1"/>
<path d="M103.936 158.458H92.386V170.649H103.936V158.458Z" fill="#23282D"/>
<path d="M103.936 146.274H92.386V158.458H103.936V146.274Z" fill="#23282D"/>
<path d="M103.936 134.083H92.386V146.274H103.936V134.083Z" fill="#23282D"/>
<path d="M103.936 121.893H92.386V134.083H103.936V121.893Z" fill="#E2505E"/>
<path d="M103.936 109.702H92.386V121.893H103.936V109.702Z" fill="#23282D"/>
<path d="M103.936 97.5181H92.386V109.702H103.936V97.5181Z" fill="#E2505E"/>
<path d="M103.936 85.3275H92.386V97.518H103.936V85.3275Z" fill="#E2505E"/>
<path d="M103.936 73.137H92.386V85.3275H103.936V73.137Z" fill="#E2505E"/>
<path d="M103.936 60.9464H92.386V73.137H103.936V60.9464Z" fill="#E2505E"/>
<path d="M103.936 48.7559H92.386V60.9464H103.936V48.7559Z" fill="#E2505E"/>
<path d="M103.936 36.5717H92.386V48.756H103.936V36.5717Z" fill="#E2505E"/>
<path d="M103.936 24.3811H92.386V36.5716H103.936V24.3811Z" fill="#AA2639"/>
<path d="M92.3859 365.679H80.8362V377.869H92.3859V365.679Z" fill="#AA2639"/>
<path d="M92.3859 353.488H80.8362V365.679H92.3859V353.488Z" fill="#AA2639"/>
<path d="M92.3859 341.298H80.8362V353.488H92.3859V341.298Z" fill="#7C192C"/>
<path d="M92.3859 329.107H80.8362V341.298H92.3859V329.107Z" fill="#7C192C"/>
<path d="M92.3859 316.923H80.8362V329.107H92.3859V316.923Z" fill="#BC4052"/>
<path d="M92.3859 304.732H80.8362V316.923H92.3859V304.732Z" fill="#BC4052"/>
<path d="M92.3859 292.542H80.8362V304.732H92.3859V292.542Z" fill="#BC4052"/>
<path d="M92.3859 280.351H80.8362V292.542H92.3859V280.351Z" fill="#BC4052"/>
<path d="M92.3859 268.167H80.8362V280.351H92.3859V268.167Z" fill="#BC4052"/>
<path d="M92.3859 255.976H80.8362V268.167H92.3859V255.976Z" fill="#BC4052"/>
<path d="M92.3859 243.786H80.8362V255.976H92.3859V243.786Z" fill="#BC4052"/>
<path d="M92.3859 231.595H80.8362V243.786H92.3859V231.595Z" fill="#BC4052"/>
<path d="M92.3859 219.405H80.8362V231.595H92.3859V219.405Z" fill="#E2505E"/>
<path d="M92.3859 207.22H80.8362V219.405H92.3859V207.22Z" fill="#E2505E"/>
<path d="M92.3859 195.03H80.8362V207.22H92.3859V195.03Z" fill="#23282D"/>
<path d="M92.3859 182.839H80.8362V195.03H92.3859V182.839Z" fill="#F4E1E1"/>
<path d="M92.3859 170.649H80.8362V182.839H92.3859V170.649Z" fill="#23282D"/>
<path d="M92.3859 158.458H80.8362V170.649H92.3859V158.458Z" fill="#E2505E"/>
<path d="M92.3859 146.274H80.8362V158.458H92.3859V146.274Z" fill="#23282D"/>
<path d="M92.3859 134.083H80.8362V146.274H92.3859V134.083Z" fill="#23282D"/>
<path d="M92.3859 121.893H80.8362V134.083H92.3859V121.893Z" fill="#E2505E"/>
<path d="M92.3859 109.702H80.8362V121.893H92.3859V109.702Z" fill="#E2505E"/>
<path d="M92.3859 97.5181H80.8362V109.702H92.3859V97.5181Z" fill="#E2505E"/>
<path d="M92.3859 85.3275H80.8362V97.518H92.3859V85.3275Z" fill="#E2505E"/>
<path d="M92.3859 73.137H80.8362V85.3275H92.3859V73.137Z" fill="#E2505E"/>
<path d="M92.3859 60.9464H80.8362V73.137H92.3859V60.9464Z" fill="#E2505E"/>
<path d="M92.3859 48.7559H80.8362V60.9464H92.3859V48.7559Z" fill="#E2505E"/>
<path d="M92.3859 36.5717H80.8362V48.756H92.3859V36.5717Z" fill="#AA2639"/>
<path d="M92.3859 24.3811H80.8362V36.5716H92.3859V24.3811Z" fill="#AA2639"/>
<path d="M92.3859 12.1906H80.8362V24.3811H92.3859V12.1906Z" fill="#AA2639"/>
<path d="M80.8362 377.869H69.2865V390.053H80.8362V377.869Z" fill="#AA2639"/>
<path d="M80.8362 365.679H69.2865V377.869H80.8362V365.679Z" fill="#AA2639"/>
<path d="M80.8362 353.488H69.2865V365.679H80.8362V353.488Z" fill="#AA2639"/>
<path d="M80.8362 341.298H69.2865V353.488H80.8362V341.298Z" fill="#AA2639"/>
<path d="M80.8362 329.107H69.2865V341.298H80.8362V329.107Z" fill="#7C192C"/>
<path d="M80.8362 316.923H69.2865V329.107H80.8362V316.923Z" fill="#7C192C"/>
<path d="M80.8362 304.732H69.2865V316.923H80.8362V304.732Z" fill="#BC4052"/>
<path d="M80.8362 292.542H69.2865V304.732H80.8362V292.542Z" fill="#BC4052"/>
<path d="M80.8362 280.351H69.2865V292.542H80.8362V280.351Z" fill="#BC4052"/>
<path d="M80.8362 243.786H69.2865V255.976H80.8362V243.786Z" fill="#BC4052"/>
<path d="M80.8362 231.595H69.2865V243.786H80.8362V231.595Z" fill="#BC4052"/>
<path d="M80.8362 219.405H69.2865V231.595H80.8362V219.405Z" fill="#BC4052"/>
<path d="M80.8362 207.22H69.2865V219.405H80.8362V207.22Z" fill="#23282D"/>
<path d="M80.8362 195.03H69.2865V207.22H80.8362V195.03Z" fill="#E2505E"/>
<path d="M80.8362 182.839H69.2865V195.03H80.8362V182.839Z" fill="#23282D"/>
<path d="M80.8362 170.649H69.2865V182.839H80.8362V170.649Z" fill="#E2505E"/>
<path d="M80.8362 158.458H69.2865V170.649H80.8362V158.458Z" fill="#23282D"/>
<path d="M80.8362 146.274H69.2865V158.458H80.8362V146.274Z" fill="#E2505E"/>
<path d="M80.8362 134.083H69.2865V146.274H80.8362V134.083Z" fill="#23282D"/>
<path d="M80.8362 121.893H69.2865V134.083H80.8362V121.893Z" fill="#E2505E"/>
<path d="M80.8362 109.702H69.2865V121.893H80.8362V109.702Z" fill="#E2505E"/>
<path d="M80.8362 97.5181H69.2865V109.702H80.8362V97.5181Z" fill="#E2505E"/>
<path d="M80.8362 85.3275H69.2865V97.518H80.8362V85.3275Z" fill="#E2505E"/>
<path d="M80.8362 73.137H69.2865V85.3275H80.8362V73.137Z" fill="#BC4052"/>
<path d="M80.8362 60.9464H69.2865V73.137H80.8362V60.9464Z" fill="#BC4052"/>
<path d="M80.8362 48.7559H69.2865V60.9464H80.8362V48.7559Z" fill="#AA2639"/>
<path d="M80.8362 36.5717H69.2865V48.756H80.8362V36.5717Z" fill="#AA2639"/>
<path d="M80.8362 24.3811H69.2865V36.5716H80.8362V24.3811Z" fill="#AA2639"/>
<path d="M80.8362 12.1906H69.2865V24.3811H80.8362V12.1906Z" fill="#AA2639"/>
<path d="M69.2865 377.869H57.7427V390.053H69.2865V377.869Z" fill="#AA2639"/>
<path d="M69.2865 365.679H57.7427V377.869H69.2865V365.679Z" fill="#AA2639"/>
<path d="M69.2865 353.488H57.7427V365.679H69.2865V353.488Z" fill="#AA2639"/>
<path d="M69.2865 341.298H57.7427V353.488H69.2865V341.298Z" fill="#AA2639"/>
<path d="M69.2865 329.107H57.7427V341.298H69.2865V329.107Z" fill="#7C192C"/>
<path d="M69.2865 243.786H57.7427V255.976H69.2865V243.786Z" fill="#BC4052"/>
<path d="M69.2865 231.595H57.7427V243.786H69.2865V231.595Z" fill="#BC4052"/>
<path d="M69.2865 219.405H57.7427V231.595H69.2865V219.405Z" fill="#BC4052"/>
<path d="M69.2865 207.22H57.7427V219.405H69.2865V207.22Z" fill="#BC4052"/>
<path d="M69.2865 195.03H57.7427V207.22H69.2865V195.03Z" fill="#BC4052"/>
<path d="M69.2865 182.839H57.7427V195.03H69.2865V182.839Z" fill="#23282D"/>
<path d="M69.2865 170.649H57.7427V182.839H69.2865V170.649Z" fill="#E2505E"/>
<path d="M69.2865 158.458H57.7427V170.649H69.2865V158.458Z" fill="#E2505E"/>
<path d="M69.2865 146.274H57.7427V158.458H69.2865V146.274Z" fill="#E2505E"/>
<path d="M69.2865 134.083H57.7427V146.274H69.2865V134.083Z" fill="#E2505E"/>
<path d="M69.2865 121.893H57.7427V134.083H69.2865V121.893Z" fill="#E2505E"/>
<path d="M69.2865 109.702H57.7427V121.893H69.2865V109.702Z" fill="#E2505E"/>
<path d="M69.2865 97.5181H57.7427V109.702H69.2865V97.5181Z" fill="#BC4052"/>
<path d="M69.2865 85.3275H57.7427V97.518H69.2865V85.3275Z" fill="#BC4052"/>
<path d="M69.2865 73.137H57.7427V85.3275H69.2865V73.137Z" fill="#BC4052"/>
<path d="M69.2865 60.9464H57.7427V73.137H69.2865V60.9464Z" fill="#BC4052"/>
<path d="M69.2865 48.7559H57.7427V60.9464H69.2865V48.7559Z" fill="#F4E1E1"/>
<path d="M69.2865 36.5717H57.7427V48.756H69.2865V36.5717Z" fill="#AA2639"/>
<path d="M69.2865 24.3811H57.7427V36.5716H69.2865V24.3811Z" fill="#AA2639"/>
<path d="M69.2865 12.1906H57.7427V24.3811H69.2865V12.1906Z" fill="#AA2639"/>
<path d="M69.2865 0H57.7427V12.1905H69.2865V0Z" fill="#AA2639"/>
<path d="M57.7427 377.869H46.193V390.053H57.7427V377.869Z" fill="#AA2639"/>
<path d="M57.7427 365.679H46.193V377.869H57.7427V365.679Z" fill="#AA2639"/>
<path d="M57.7427 353.488H46.193V365.679H57.7427V353.488Z" fill="#AA2639"/>
<path d="M57.7427 231.595H46.193V243.786H57.7427V231.595Z" fill="#BC4052"/>
<path d="M57.7427 219.405H46.193V231.595H57.7427V219.405Z" fill="#BC4052"/>
<path d="M57.7427 207.22H46.193V219.405H57.7427V207.22Z" fill="#BC4052"/>
<path d="M57.7427 195.03H46.193V207.22H57.7427V195.03Z" fill="#BC4052"/>
<path d="M57.7427 182.839H46.193V195.03H57.7427V182.839Z" fill="#BC4052"/>
<path d="M57.7427 170.649H46.193V182.839H57.7427V170.649Z" fill="#BC4052"/>
<path d="M57.7427 158.458H46.193V170.649H57.7427V158.458Z" fill="#BC4052"/>
<path d="M57.7427 146.274H46.193V158.458H57.7427V146.274Z" fill="#BC4052"/>
<path d="M57.7427 134.083H46.193V146.274H57.7427V134.083Z" fill="#BC4052"/>
<path d="M57.7427 121.893H46.193V134.083H57.7427V121.893Z" fill="#BC4052"/>
<path d="M57.7427 109.702H46.193V121.893H57.7427V109.702Z" fill="#BC4052"/>
<path d="M57.7427 97.5181H46.193V109.702H57.7427V97.5181Z" fill="#BC4052"/>
<path d="M57.7427 85.3275H46.193V97.518H57.7427V85.3275Z" fill="#BC4052"/>
<path d="M57.7427 73.137H46.193V85.3275H57.7427V73.137Z" fill="#BC4052"/>
<path d="M57.7427 60.9464H46.193V73.137H57.7427V60.9464Z" fill="#F4E1E1"/>
<path d="M57.7427 48.7559H46.193V60.9464H57.7427V48.7559Z" fill="#F4E1E1"/>
<path d="M57.7427 36.5717H46.193V48.756H57.7427V36.5717Z" fill="#AA2639"/>
<path d="M57.7427 24.3811H46.193V36.5716H57.7427V24.3811Z" fill="#AA2639"/>
<path d="M57.7427 12.1906H46.193V24.3811H57.7427V12.1906Z" fill="#AA2639"/>
<path d="M57.7427 0H46.193V12.1905H57.7427V0Z" fill="#AA2639"/>
<path d="M46.193 219.405H34.6433V231.595H46.193V219.405Z" fill="#BC4052"/>
<path d="M46.193 207.22H34.6433V219.405H46.193V207.22Z" fill="#BC4052"/>
<path d="M46.193 195.03H34.6433V207.22H46.193V195.03Z" fill="#BC4052"/>
<path d="M46.193 182.839H34.6433V195.03H46.193V182.839Z" fill="#BC4052"/>
<path d="M46.193 170.649H34.6433V182.839H46.193V170.649Z" fill="#BC4052"/>
<path d="M46.193 158.458H34.6433V170.649H46.193V158.458Z" fill="#BC4052"/>
<path d="M46.193 146.274H34.6433V158.458H46.193V146.274Z" fill="#BC4052"/>
<path d="M46.193 134.083H34.6433V146.274H46.193V134.083Z" fill="#BC4052"/>
<path d="M46.193 121.893H34.6433V134.083H46.193V121.893Z" fill="#BC4052"/>
<path d="M46.193 109.702H34.6433V121.893H46.193V109.702Z" fill="#BC4052"/>
<path d="M46.193 97.5181H34.6433V109.702H46.193V97.5181Z" fill="#BC4052"/>
<path d="M46.193 85.3275H34.6433V97.518H46.193V85.3275Z" fill="#BC4052"/>
<path d="M46.193 73.137H34.6433V85.3275H46.193V73.137Z" fill="#F4E1E1"/>
<path d="M46.193 60.9464H34.6433V73.137H46.193V60.9464Z" fill="#F4E1E1"/>
<path d="M46.193 48.7559H34.6433V60.9464H46.193V48.7559Z" fill="#F4E1E1"/>
<path d="M46.193 36.5717H34.6433V48.756H46.193V36.5717Z" fill="#F4E1E1"/>
<path d="M46.193 24.3811H34.6433V36.5716H46.193V24.3811Z" fill="#AA2639"/>
<path d="M46.193 12.1906H34.6433V24.3811H46.193V12.1906Z" fill="#AA2639"/>
<path d="M46.193 0H34.6433V12.1905H46.193V0Z" fill="#AA2639"/>
<path d="M34.6432 207.22H23.0935V219.405H34.6432V207.22Z" fill="#BC4052"/>
<path d="M34.6432 195.03H23.0935V207.22H34.6432V195.03Z" fill="#BC4052"/>
<path d="M34.6432 182.839H23.0935V195.03H34.6432V182.839Z" fill="#BC4052"/>
<path d="M34.6432 170.649H23.0935V182.839H34.6432V170.649Z" fill="#BC4052"/>
<path d="M34.6432 158.458H23.0935V170.649H34.6432V158.458Z" fill="#BC4052"/>
<path d="M34.6432 146.274H23.0935V158.458H34.6432V146.274Z" fill="#BC4052"/>
<path d="M34.6432 134.083H23.0935V146.274H34.6432V134.083Z" fill="#BC4052"/>
<path d="M34.6432 121.893H23.0935V134.083H34.6432V121.893Z" fill="#BC4052"/>
<path d="M34.6432 109.702H23.0935V121.893H34.6432V109.702Z" fill="#BC4052"/>
<path d="M34.6432 97.5181H23.0935V109.702H34.6432V97.5181Z" fill="#BC4052"/>
<path d="M34.6432 85.3275H23.0935V97.518H34.6432V85.3275Z" fill="#F4E1E1"/>
<path d="M34.6432 73.137H23.0935V85.3275H34.6432V73.137Z" fill="#F4E1E1"/>
<path d="M34.6432 60.9464H23.0935V73.137H34.6432V60.9464Z" fill="#F4E1E1"/>
<path d="M34.6432 48.7559H23.0935V60.9464H34.6432V48.7559Z" fill="#F4E1E1"/>
<path d="M34.6432 36.5717H23.0935V48.756H34.6432V36.5717Z" fill="#F4E1E1"/>
<path d="M34.6432 24.3811H23.0935V36.5716H34.6432V24.3811Z" fill="#AA2639"/>
<path d="M34.6432 12.1906H23.0935V24.3811H34.6432V12.1906Z" fill="#AA2639"/>
<path d="M34.6432 0H23.0935V12.1905H34.6432V0Z" fill="#AA2639"/>
<path d="M23.0935 182.839H11.5438V195.03H23.0935V182.839Z" fill="#BC4052"/>
<path d="M23.0935 170.649H11.5438V182.839H23.0935V170.649Z" fill="#BC4052"/>
<path d="M23.0935 158.458H11.5438V170.649H23.0935V158.458Z" fill="#BC4052"/>
<path d="M23.0935 146.274H11.5438V158.458H23.0935V146.274Z" fill="#BC4052"/>
<path d="M23.0935 134.083H11.5438V146.274H23.0935V134.083Z" fill="#BC4052"/>
<path d="M23.0935 85.3275H11.5438V97.518H23.0935V85.3275Z" fill="#F4E1E1"/>
<path d="M23.0935 73.137H11.5438V85.3275H23.0935V73.137Z" fill="#F4E1E1"/>
<path d="M23.0935 60.9464H11.5438V73.137H23.0935V60.9464Z" fill="#F4E1E1"/>
<path d="M23.0935 48.7559H11.5438V60.9464H23.0935V48.7559Z" fill="#F4E1E1"/>
<path d="M23.0935 36.5717H11.5438V48.756H23.0935V36.5717Z" fill="#F4E1E1"/>
<path d="M23.0935 24.3811H11.5438V36.5716H23.0935V24.3811Z" fill="#F4E1E1"/>
<path d="M23.0935 12.1906H11.5438V24.3811H23.0935V12.1906Z" fill="#AA2639"/>
<path d="M23.0935 0H11.5438V12.1905H23.0935V0Z" fill="#AA2639"/>
<path d="M11.5438 73.137H0V85.3275H11.5438V73.137Z" fill="#F4E1E1"/>
<path d="M11.5438 60.9464H0V73.137H11.5438V60.9464Z" fill="#F4E1E1"/>
<path d="M11.5438 48.7559H0V60.9464H11.5438V48.7559Z" fill="#F4E1E1"/>
<path d="M11.5438 36.5717H0V48.756H11.5438V36.5717Z" fill="#F4E1E1"/>
</svg>
