<svg width="380" height="490" viewBox="0 0 380 490" fill="none" xmlns="http://www.w3.org/2000/svg">
<path d="M380 291.356H367.74V304.594H380V291.356Z" fill="#FFDC9C"/>
<path d="M380 278.112H367.74V291.356H380V278.112Z" fill="#FFDC9C"/>
<path d="M380 79.4615H367.74V92.7062H380V79.4615Z" fill="#FF91AB"/>
<path d="M380 66.2168H367.74V79.4615H380V66.2168Z" fill="#FF91AB"/>
<path d="M380 52.9721H367.74V66.2168H380V52.9721Z" fill="#FF91AB"/>
<path d="M380 39.7341H367.74V52.9721H380V39.7341Z" fill="#FF91AB"/>
<path d="M367.74 304.594H355.481V317.839H367.74V304.594Z" fill="#EDA751"/>
<path d="M367.74 291.356H355.481V304.594H367.74V291.356Z" fill="#FFDC9C"/>
<path d="M367.74 278.112H355.481V291.356H367.74V278.112Z" fill="#FFDC9C"/>
<path d="M367.74 198.65H355.481V211.895H367.74V198.65Z" fill="#FFDC9C"/>
<path d="M367.74 185.406H355.481V198.65H367.74V185.406Z" fill="#FFDC9C"/>
<path d="M367.74 172.161H355.481V185.406H367.74V172.161Z" fill="#FFDC9C"/>
<path d="M367.74 158.923H355.481V172.161H367.74V158.923Z" fill="#FFDC9C"/>
<path d="M367.74 145.678H355.481V158.923H367.74V145.678Z" fill="#FFDC9C"/>
<path d="M367.74 92.7062H355.481V105.951H367.74V92.7062Z" fill="#FF91AB"/>
<path d="M367.74 79.4615H355.481V92.7062H367.74V79.4615Z" fill="#FF91AB"/>
<path d="M367.74 66.2168H355.481V79.4615H367.74V66.2168Z" fill="#FF91AB"/>
<path d="M367.74 52.9721H355.481V66.2168H367.74V52.9721Z" fill="#FF91AB"/>
<path d="M367.74 39.7341H355.481V52.9721H367.74V39.7341Z" fill="#FF91AB"/>
<path d="M367.74 26.4894H355.481V39.7341H367.74V26.4894Z" fill="#FF91AB"/>
<path d="M367.74 13.2447H355.481V26.4894H367.74V13.2447Z" fill="#EDA751"/>
<path d="M367.74 0H355.481V13.2447H367.74V0Z" fill="#EDA751"/>
<path d="M355.481 331.084H343.228V344.329H355.481V331.084Z" fill="#EDA751"/>
<path d="M355.481 317.839H343.228V331.084H355.481V317.839Z" fill="#EDA751"/>
<path d="M355.481 304.594H343.228V317.839H355.481V304.594Z" fill="#EDA751"/>
<path d="M355.481 291.356H343.228V304.594H355.481V291.356Z" fill="#EDA751"/>
<path d="M355.481 278.112H343.228V291.356H355.481V278.112Z" fill="#EDA751"/>
<path d="M355.481 225.14H343.228V238.378H355.481V225.14Z" fill="#FFDC9C"/>
<path d="M355.481 211.895H343.228V225.14H355.481V211.895Z" fill="#FFDC9C"/>
<path d="M355.481 198.65H343.228V211.895H355.481V198.65Z" fill="#FFDC9C"/>
<path d="M355.481 185.406H343.228V198.65H355.481V185.406Z" fill="#FFDC9C"/>
<path d="M355.481 172.161H343.228V185.406H355.481V172.161Z" fill="#FFDC9C"/>
<path d="M355.481 158.923H343.228V172.161H355.481V158.923Z" fill="#FFDC9C"/>
<path d="M355.481 145.678H343.228V158.923H355.481V145.678Z" fill="#FFDC9C"/>
<path d="M355.481 132.434H343.228V145.678H355.481V132.434Z" fill="#FFDC9C"/>
<path d="M355.481 119.189H343.228V132.434H355.481V119.189Z" fill="#FFDC9C"/>
<path d="M355.481 105.951H343.228V119.189H355.481V105.951Z" fill="#FF91AB"/>
<path d="M355.481 92.7062H343.228V105.951H355.481V92.7062Z" fill="#FF91AB"/>
<path d="M355.481 79.4615H343.228V92.7062H355.481V79.4615Z" fill="#FF91AB"/>
<path d="M355.481 66.2168H343.228V79.4615H355.481V66.2168Z" fill="#FF91AB"/>
<path d="M355.481 52.9721H343.228V66.2168H355.481V52.9721Z" fill="#FF91AB"/>
<path d="M355.481 39.7341H343.228V52.9721H355.481V39.7341Z" fill="#FF91AB"/>
<path d="M355.481 26.4894H343.228V39.7341H355.481V26.4894Z" fill="#EDA751"/>
<path d="M355.481 13.2447H343.228V26.4894H355.481V13.2447Z" fill="#EDA751"/>
<path d="M355.481 0H343.228V13.2447H355.481V0Z" fill="#EDA751"/>
<path d="M343.228 357.566H330.968V370.811H343.228V357.566Z" fill="#EDA751"/>
<path d="M343.228 344.329H330.968V357.566H343.228V344.329Z" fill="#EDA751"/>
<path d="M343.228 331.084H330.968V344.329H343.228V331.084Z" fill="#EDA751"/>
<path d="M343.228 317.839H330.968V331.084H343.228V317.839Z" fill="#EDA751"/>
<path d="M343.228 304.594H330.968V317.839H343.228V304.594Z" fill="#EDA751"/>
<path d="M343.228 291.356H330.968V304.594H343.228V291.356Z" fill="#EDA751"/>
<path d="M343.228 238.378H330.968V251.622H343.228V238.378Z" fill="#FFDC9C"/>
<path d="M343.228 225.14H330.968V238.378H343.228V225.14Z" fill="#FFDC9C"/>
<path d="M343.228 211.895H330.968V225.14H343.228V211.895Z" fill="#FFDC9C"/>
<path d="M343.228 198.65H330.968V211.895H343.228V198.65Z" fill="#FFDC9C"/>
<path d="M343.228 185.406H330.968V198.65H343.228V185.406Z" fill="#FFDC9C"/>
<path d="M343.228 172.161H330.968V185.406H343.228V172.161Z" fill="#FFDC9C"/>
<path d="M343.228 158.923H330.968V172.161H343.228V158.923Z" fill="#FFDC9C"/>
<path d="M343.228 145.678H330.968V158.923H343.228V145.678Z" fill="#FFDC9C"/>
<path d="M343.228 132.434H330.968V145.678H343.228V132.434Z" fill="#FFDC9C"/>
<path d="M343.228 119.189H330.968V132.434H343.228V119.189Z" fill="#FFDC9C"/>
<path d="M343.228 105.951H330.968V119.189H343.228V105.951Z" fill="#FFDC9C"/>
<path d="M343.228 92.7062H330.968V105.951H343.228V92.7062Z" fill="#FFDC9C"/>
<path d="M343.228 79.4615H330.968V92.7062H343.228V79.4615Z" fill="#FF91AB"/>
<path d="M343.228 66.2168H330.968V79.4615H343.228V66.2168Z" fill="#FF91AB"/>
<path d="M343.228 52.9721H330.968V66.2168H343.228V52.9721Z" fill="#FF91AB"/>
<path d="M343.228 39.7341H330.968V52.9721H343.228V39.7341Z" fill="#FF91AB"/>
<path d="M343.228 26.4894H330.968V39.7341H343.228V26.4894Z" fill="#EDA751"/>
<path d="M343.228 13.2447H330.968V26.4894H343.228V13.2447Z" fill="#EDA751"/>
<path d="M343.228 0H330.968V13.2447H343.228V0Z" fill="#EDA751"/>
<path d="M330.968 410.545H318.709V423.783H330.968V410.545Z" fill="#EDA751"/>
<path d="M330.968 397.301H318.709V410.545H330.968V397.301Z" fill="#EDA751"/>
<path d="M330.968 384.056H318.709V397.301H330.968V384.056Z" fill="#EDA751"/>
<path d="M330.968 357.566H318.709V370.811H330.968V357.566Z" fill="#EDA751"/>
<path d="M330.968 344.329H318.709V357.566H330.968V344.329Z" fill="#EDA751"/>
<path d="M330.968 331.084H318.709V344.329H330.968V331.084Z" fill="#EDA751"/>
<path d="M330.968 317.839H318.709V331.084H330.968V317.839Z" fill="#EDA751"/>
<path d="M330.968 251.622H318.709V264.867H330.968V251.622Z" fill="#FFDC9C"/>
<path d="M330.968 238.378H318.709V251.622H330.968V238.378Z" fill="#FFDC9C"/>
<path d="M330.968 225.14H318.709V238.378H330.968V225.14Z" fill="#FFDC9C"/>
<path d="M330.968 211.895H318.709V225.14H330.968V211.895Z" fill="#FFDC9C"/>
<path d="M330.968 198.65H318.709V211.895H330.968V198.65Z" fill="#FFDC9C"/>
<path d="M330.968 185.406H318.709V198.65H330.968V185.406Z" fill="#FFDC9C"/>
<path d="M330.968 172.161H318.709V185.406H330.968V172.161Z" fill="#FFDC9C"/>
<path d="M330.968 158.923H318.709V172.161H330.968V158.923Z" fill="#FFDC9C"/>
<path d="M330.968 145.678H318.709V158.923H330.968V145.678Z" fill="#FFDC9C"/>
<path d="M330.968 132.434H318.709V145.678H330.968V132.434Z" fill="#FFDC9C"/>
<path d="M330.968 119.189H318.709V132.434H330.968V119.189Z" fill="#FFDC9C"/>
<path d="M330.968 105.951H318.709V119.189H330.968V105.951Z" fill="#FFDC9C"/>
<path d="M330.968 92.7062H318.709V105.951H330.968V92.7062Z" fill="#FFDC9C"/>
<path d="M330.968 79.4615H318.709V92.7062H330.968V79.4615Z" fill="#FFDC9C"/>
<path d="M330.968 66.2168H318.709V79.4615H330.968V66.2168Z" fill="#FF91AB"/>
<path d="M330.968 52.9721H318.709V66.2168H330.968V52.9721Z" fill="#FF91AB"/>
<path d="M330.968 39.7341H318.709V52.9721H330.968V39.7341Z" fill="#FF91AB"/>
<path d="M330.968 26.4894H318.709V39.7341H330.968V26.4894Z" fill="#EDA751"/>
<path d="M330.968 13.2447H318.709V26.4894H330.968V13.2447Z" fill="#EDA751"/>
<path d="M330.968 0H318.709V13.2447H330.968V0Z" fill="#EDA751"/>
<path d="M318.709 410.545H306.449V423.783H318.709V410.545Z" fill="#EDA751"/>
<path d="M318.709 397.301H306.449V410.545H318.709V397.301Z" fill="#EDA751"/>
<path d="M318.709 384.056H306.449V397.301H318.709V384.056Z" fill="#EDA751"/>
<path d="M318.709 370.811H306.449V384.056H318.709V370.811Z" fill="#EDA751"/>
<path d="M318.709 357.566H306.449V370.811H318.709V357.566Z" fill="#CC8232"/>
<path d="M318.709 344.329H306.449V357.566H318.709V344.329Z" fill="#EDA751"/>
<path d="M318.709 331.084H306.449V344.329H318.709V331.084Z" fill="#EDA751"/>
<path d="M318.709 264.867H306.449V278.112H318.709V264.867Z" fill="#FFDC9C"/>
<path d="M318.709 251.622H306.449V264.867H318.709V251.622Z" fill="#FFDC9C"/>
<path d="M318.709 238.378H306.449V251.622H318.709V238.378Z" fill="#FFDC9C"/>
<path d="M318.709 225.14H306.449V238.378H318.709V225.14Z" fill="#FFDC9C"/>
<path d="M318.709 211.895H306.449V225.14H318.709V211.895Z" fill="#FFDC9C"/>
<path d="M318.709 198.65H306.449V211.895H318.709V198.65Z" fill="#495059"/>
<path d="M318.709 185.406H306.449V198.65H318.709V185.406Z" fill="#FFDC9C"/>
<path d="M318.709 172.161H306.449V185.406H318.709V172.161Z" fill="#FFDC9C"/>
<path d="M318.709 158.923H306.449V172.161H318.709V158.923Z" fill="#FFDC9C"/>
<path d="M318.709 145.678H306.449V158.923H318.709V145.678Z" fill="#FFDC9C"/>
<path d="M318.709 132.434H306.449V145.678H318.709V132.434Z" fill="#FFDC9C"/>
<path d="M318.709 119.189H306.449V132.434H318.709V119.189Z" fill="#FFDC9C"/>
<path d="M318.709 105.951H306.449V119.189H318.709V105.951Z" fill="#FFDC9C"/>
<path d="M318.709 92.7062H306.449V105.951H318.709V92.7062Z" fill="#FFDC9C"/>
<path d="M318.709 79.4615H306.449V92.7062H318.709V79.4615Z" fill="#FFDC9C"/>
<path d="M318.709 66.2168H306.449V79.4615H318.709V66.2168Z" fill="#FFDC9C"/>
<path d="M318.709 52.9721H306.449V66.2168H318.709V52.9721Z" fill="#FF91AB"/>
<path d="M318.709 39.7341H306.449V52.9721H318.709V39.7341Z" fill="#EDA751"/>
<path d="M318.709 26.4894H306.449V39.7341H318.709V26.4894Z" fill="#EDA751"/>
<path d="M318.709 13.2447H306.449V26.4894H318.709V13.2447Z" fill="#EDA751"/>
<path d="M306.449 410.545H294.196V423.783H306.449V410.545Z" fill="#EDA751"/>
<path d="M306.449 397.301H294.196V410.545H306.449V397.301Z" fill="#EDA751"/>
<path d="M306.449 384.056H294.196V397.301H306.449V384.056Z" fill="#EDA751"/>
<path d="M306.449 370.811H294.196V384.056H306.449V370.811Z" fill="#EDA751"/>
<path d="M306.449 357.566H294.196V370.811H306.449V357.566Z" fill="#CC8232"/>
<path d="M306.449 344.329H294.196V357.566H306.449V344.329Z" fill="#CC8232"/>
<path d="M306.449 331.084H294.196V344.329H306.449V331.084Z" fill="#FFDC9C"/>
<path d="M306.449 317.839H294.196V331.084H306.449V317.839Z" fill="#FFDC9C"/>
<path d="M306.449 304.594H294.196V317.839H306.449V304.594Z" fill="#FFDC9C"/>
<path d="M306.449 264.867H294.196V278.112H306.449V264.867Z" fill="#FFDC9C"/>
<path d="M306.449 251.622H294.196V264.867H306.449V251.622Z" fill="#FFDC9C"/>
<path d="M306.449 238.378H294.196V251.622H306.449V238.378Z" fill="#FFDC9C"/>
<path d="M306.449 225.14H294.196V238.378H306.449V225.14Z" fill="#495059"/>
<path d="M306.449 211.895H294.196V225.14H306.449V211.895Z" fill="#FFDC9C"/>
<path d="M306.449 198.65H294.196V211.895H306.449V198.65Z" fill="#495059"/>
<path d="M306.449 185.406H294.196V198.65H306.449V185.406Z" fill="#FFDC9C"/>
<path d="M306.449 172.161H294.196V185.406H306.449V172.161Z" fill="#495059"/>
<path d="M306.449 158.923H294.196V172.161H306.449V158.923Z" fill="#FFDC9C"/>
<path d="M306.449 145.678H294.196V158.923H306.449V145.678Z" fill="#FFDC9C"/>
<path d="M306.449 132.434H294.196V145.678H306.449V132.434Z" fill="#FFDC9C"/>
<path d="M306.449 119.189H294.196V132.434H306.449V119.189Z" fill="#FFDC9C"/>
<path d="M306.449 105.951H294.196V119.189H306.449V105.951Z" fill="#FFDC9C"/>
<path d="M306.449 92.7062H294.196V105.951H306.449V92.7062Z" fill="#FFDC9C"/>
<path d="M306.449 79.4615H294.196V92.7062H306.449V79.4615Z" fill="#FFDC9C"/>
<path d="M306.449 66.2168H294.196V79.4615H306.449V66.2168Z" fill="#FFDC9C"/>
<path d="M306.449 52.9721H294.196V66.2168H306.449V52.9721Z" fill="#EDA751"/>
<path d="M306.449 39.7341H294.196V52.9721H306.449V39.7341Z" fill="#EDA751"/>
<path d="M306.449 26.4894H294.196V39.7341H306.449V26.4894Z" fill="#EDA751"/>
<path d="M306.449 13.2447H294.196V26.4894H306.449V13.2447Z" fill="#EDA751"/>
<path d="M294.196 397.301H281.937V410.545H294.196V397.301Z" fill="#EDA751"/>
<path d="M294.196 384.056H281.937V397.301H294.196V384.056Z" fill="#EDA751"/>
<path d="M294.196 370.811H281.937V384.056H294.196V370.811Z" fill="#CC8232"/>
<path d="M294.196 357.566H281.937V370.811H294.196V357.566Z" fill="#CC8232"/>
<path d="M294.196 344.329H281.937V357.566H294.196V344.329Z" fill="#FFDC9C"/>
<path d="M294.196 331.084H281.937V344.329H294.196V331.084Z" fill="#FFDC9C"/>
<path d="M294.196 317.839H281.937V331.084H294.196V317.839Z" fill="#FFDC9C"/>
<path d="M294.196 304.594H281.937V317.839H294.196V304.594Z" fill="#FFDC9C"/>
<path d="M294.196 291.356H281.937V304.594H294.196V291.356Z" fill="#FFDC9C"/>
<path d="M294.196 278.112H281.937V291.356H294.196V278.112Z" fill="#FFDC9C"/>
<path d="M294.196 264.867H281.937V278.112H294.196V264.867Z" fill="#FFDC9C"/>
<path d="M294.196 251.622H281.937V264.867H294.196V251.622Z" fill="#FFDC9C"/>
<path d="M294.196 238.378H281.937V251.622H294.196V238.378Z" fill="#FFDC9C"/>
<path d="M294.196 225.14H281.937V238.378H294.196V225.14Z" fill="#FFDC9C"/>
<path d="M294.196 211.895H281.937V225.14H294.196V211.895Z" fill="#495059"/>
<path d="M294.196 198.65H281.937V211.895H294.196V198.65Z" fill="#FF91AB"/>
<path d="M294.196 185.406H281.937V198.65H294.196V185.406Z" fill="#495059"/>
<path d="M294.196 172.161H281.937V185.406H294.196V172.161Z" fill="#FFDC9C"/>
<path d="M294.196 158.923H281.937V172.161H294.196V158.923Z" fill="#FFDC9C"/>
<path d="M294.196 145.678H281.937V158.923H294.196V145.678Z" fill="#FFDC9C"/>
<path d="M294.196 132.434H281.937V145.678H294.196V132.434Z" fill="#FFDC9C"/>
<path d="M294.196 119.189H281.937V132.434H294.196V119.189Z" fill="#FFDC9C"/>
<path d="M294.196 105.951H281.937V119.189H294.196V105.951Z" fill="#FFDC9C"/>
<path d="M294.196 92.7062H281.937V105.951H294.196V92.7062Z" fill="#FFDC9C"/>
<path d="M294.196 79.4615H281.937V92.7062H294.196V79.4615Z" fill="#FFDC9C"/>
<path d="M294.196 66.2168H281.937V79.4615H294.196V66.2168Z" fill="#FFDC9C"/>
<path d="M294.196 52.9721H281.937V66.2168H294.196V52.9721Z" fill="#FFDC9C"/>
<path d="M294.196 39.7341H281.937V52.9721H294.196V39.7341Z" fill="#EDA751"/>
<path d="M294.196 26.4894H281.937V39.7341H294.196V26.4894Z" fill="#EDA751"/>
<path d="M294.196 13.2447H281.937V26.4894H294.196V13.2447Z" fill="#EDA751"/>
<path d="M281.937 384.056H269.677V397.301H281.937V384.056Z" fill="#CC8232"/>
<path d="M281.937 370.811H269.677V384.056H281.937V370.811Z" fill="#FFDC9C"/>
<path d="M281.937 357.566H269.677V370.811H281.937V357.566Z" fill="#FFDC9C"/>
<path d="M281.937 344.329H269.677V357.566H281.937V344.329Z" fill="#FFDC9C"/>
<path d="M281.937 331.084H269.677V344.329H281.937V331.084Z" fill="#FFDC9C"/>
<path d="M281.937 317.839H269.677V331.084H281.937V317.839Z" fill="#FFDC9C"/>
<path d="M281.937 304.594H269.677V317.839H281.937V304.594Z" fill="#FFDC9C"/>
<path d="M281.937 291.356H269.677V304.594H281.937V291.356Z" fill="#FFDC9C"/>
<path d="M281.937 278.112H269.677V291.356H281.937V278.112Z" fill="#FFDC9C"/>
<path d="M281.937 264.867H269.677V278.112H281.937V264.867Z" fill="#FFDC9C"/>
<path d="M281.937 251.622H269.677V264.867H281.937V251.622Z" fill="#FFDC9C"/>
<path d="M281.937 238.378H269.677V251.622H281.937V238.378Z" fill="#FFDC9C"/>
<path d="M281.937 225.14H269.677V238.378H281.937V225.14Z" fill="#FF91AB"/>
<path d="M281.937 211.895H269.677V225.14H281.937V211.895Z" fill="#FF91AB"/>
<path d="M281.937 198.65H269.677V211.895H281.937V198.65Z" fill="#5CE5E5"/>
<path d="M281.937 185.406H269.677V198.65H281.937V185.406Z" fill="#FF91AB"/>
<path d="M281.937 172.161H269.677V185.406H281.937V172.161Z" fill="#FFDC9C"/>
<path d="M281.937 158.923H269.677V172.161H281.937V158.923Z" fill="#FFDC9C"/>
<path d="M281.937 145.678H269.677V158.923H281.937V145.678Z" fill="#FFDC9C"/>
<path d="M281.937 132.434H269.677V145.678H281.937V132.434Z" fill="#FFDC9C"/>
<path d="M281.937 119.189H269.677V132.434H281.937V119.189Z" fill="#495059"/>
<path d="M281.937 105.951H269.677V119.189H281.937V105.951Z" fill="#FFDC9C"/>
<path d="M281.937 92.7062H269.677V105.951H281.937V92.7062Z" fill="#FFDC9C"/>
<path d="M281.937 79.4615H269.677V92.7062H281.937V79.4615Z" fill="#FFDC9C"/>
<path d="M281.937 66.2168H269.677V79.4615H281.937V66.2168Z" fill="#FFDC9C"/>
<path d="M281.937 52.9721H269.677V66.2168H281.937V52.9721Z" fill="#FFDC9C"/>
<path d="M281.937 39.7341H269.677V52.9721H281.937V39.7341Z" fill="#FFDC9C"/>
<path d="M281.937 26.4894H269.677V39.7341H281.937V26.4894Z" fill="#EDA751"/>
<path d="M269.677 384.056H257.418V397.301H269.677V384.056Z" fill="#FFDC9C"/>
<path d="M269.677 370.811H257.418V384.056H269.677V370.811Z" fill="#FFDC9C"/>
<path d="M269.677 357.566H257.418V370.811H269.677V357.566Z" fill="#FFDC9C"/>
<path d="M269.677 344.329H257.418V357.566H269.677V344.329Z" fill="#FFDC9C"/>
<path d="M269.677 331.084H257.418V344.329H269.677V331.084Z" fill="#FFDC9C"/>
<path d="M269.677 317.839H257.418V331.084H269.677V317.839Z" fill="#FFDC9C"/>
<path d="M269.677 304.594H257.418V317.839H269.677V304.594Z" fill="#FFDC9C"/>
<path d="M269.677 291.356H257.418V304.594H269.677V291.356Z" fill="#FFDC9C"/>
<path d="M269.677 278.112H257.418V291.356H269.677V278.112Z" fill="#FFDC9C"/>
<path d="M269.677 264.867H257.418V278.112H269.677V264.867Z" fill="#FFDC9C"/>
<path d="M269.677 251.622H257.418V264.867H269.677V251.622Z" fill="#FFDC9C"/>
<path d="M269.677 238.378H257.418V251.622H269.677V238.378Z" fill="#FFDC9C"/>
<path d="M269.677 225.14H257.418V238.378H269.677V225.14Z" fill="#FF91AB"/>
<path d="M269.677 211.895H257.418V225.14H269.677V211.895Z" fill="#5CE5E5"/>
<path d="M269.677 198.65H257.418V211.895H269.677V198.65Z" fill="#5CE5E5"/>
<path d="M269.677 185.406H257.418V198.65H269.677V185.406Z" fill="#4BB9F7"/>
<path d="M269.677 172.161H257.418V185.406H269.677V172.161Z" fill="#495059"/>
<path d="M269.677 158.923H257.418V172.161H269.677V158.923Z" fill="#495059"/>
<path d="M269.677 145.678H257.418V158.923H269.677V145.678Z" fill="#495059"/>
<path d="M269.677 132.434H257.418V145.678H269.677V132.434Z" fill="#FFDC9C"/>
<path d="M269.677 119.189H257.418V132.434H269.677V119.189Z" fill="#495059"/>
<path d="M269.677 105.951H257.418V119.189H269.677V105.951Z" fill="#FFDC9C"/>
<path d="M269.677 92.7062H257.418V105.951H269.677V92.7062Z" fill="#FFDC9C"/>
<path d="M269.677 79.4615H257.418V92.7062H269.677V79.4615Z" fill="#FFDC9C"/>
<path d="M269.677 66.2168H257.418V79.4615H269.677V66.2168Z" fill="#FFDC9C"/>
<path d="M269.677 52.9721H257.418V66.2168H269.677V52.9721Z" fill="#FFDC9C"/>
<path d="M269.677 39.7341H257.418V52.9721H269.677V39.7341Z" fill="#FFDC9C"/>
<path d="M257.418 463.517H245.158V476.755H257.418V463.517Z" fill="#EDA751"/>
<path d="M257.418 450.273H245.158V463.517H257.418V450.273Z" fill="#EDA751"/>
<path d="M257.418 437.028H245.158V450.273H257.418V437.028Z" fill="#EDA751"/>
<path d="M257.418 423.783H245.158V437.028H257.418V423.783Z" fill="#EDA751"/>
<path d="M257.418 410.545H245.158V423.783H257.418V410.545Z" fill="#CC8232"/>
<path d="M257.418 397.301H245.158V410.545H257.418V397.301Z" fill="#FFDC9C"/>
<path d="M257.418 384.056H245.158V397.301H257.418V384.056Z" fill="#FFDC9C"/>
<path d="M257.418 370.811H245.158V384.056H257.418V370.811Z" fill="#FFDC9C"/>
<path d="M257.418 357.566H245.158V370.811H257.418V357.566Z" fill="#FFDC9C"/>
<path d="M257.418 344.329H245.158V357.566H257.418V344.329Z" fill="#FFDC9C"/>
<path d="M257.418 331.084H245.158V344.329H257.418V331.084Z" fill="#FFDC9C"/>
<path d="M257.418 317.839H245.158V331.084H257.418V317.839Z" fill="#FFDC9C"/>
<path d="M257.418 304.594H245.158V317.839H257.418V304.594Z" fill="#FFDC9C"/>
<path d="M257.418 291.356H245.158V304.594H257.418V291.356Z" fill="#FFDC9C"/>
<path d="M257.418 278.112H245.158V291.356H257.418V278.112Z" fill="#FFDC9C"/>
<path d="M257.418 264.867H245.158V278.112H257.418V264.867Z" fill="#FFDC9C"/>
<path d="M257.418 251.622H245.158V264.867H257.418V251.622Z" fill="#FFDC9C"/>
<path d="M257.418 238.378H245.158V251.622H257.418V238.378Z" fill="#FFDC9C"/>
<path d="M257.418 225.14H245.158V238.378H257.418V225.14Z" fill="#FFDC9C"/>
<path d="M257.418 211.895H245.158V225.14H257.418V211.895Z" fill="#FF91AB"/>
<path d="M257.418 198.65H245.158V211.895H257.418V198.65Z" fill="#4BB9F7"/>
<path d="M257.418 185.406H245.158V198.65H257.418V185.406Z" fill="#FFDC9C"/>
<path d="M257.418 172.161H245.158V185.406H257.418V172.161Z" fill="#495059"/>
<path d="M257.418 158.923H245.158V172.161H257.418V158.923Z" fill="#495059"/>
<path d="M257.418 145.678H245.158V158.923H257.418V145.678Z" fill="#DEE2E5"/>
<path d="M257.418 132.434H245.158V145.678H257.418V132.434Z" fill="#FFDC9C"/>
<path d="M257.418 119.189H245.158V132.434H257.418V119.189Z" fill="#FFDC9C"/>
<path d="M257.418 105.951H245.158V119.189H257.418V105.951Z" fill="#495059"/>
<path d="M257.418 92.7062H245.158V105.951H257.418V92.7062Z" fill="#FFDC9C"/>
<path d="M257.418 79.4615H245.158V92.7062H257.418V79.4615Z" fill="#FFDC9C"/>
<path d="M257.418 66.2168H245.158V79.4615H257.418V66.2168Z" fill="#FFDC9C"/>
<path d="M257.418 52.9721H245.158V66.2168H257.418V52.9721Z" fill="#FFDC9C"/>
<path d="M257.418 39.7341H245.158V52.9721H257.418V39.7341Z" fill="#FFDC9C"/>
<path d="M245.158 476.755H232.905V490H245.158V476.755Z" fill="#EDA751"/>
<path d="M245.158 463.517H232.905V476.755H245.158V463.517Z" fill="#EDA751"/>
<path d="M245.158 450.273H232.905V463.517H245.158V450.273Z" fill="#EDA751"/>
<path d="M245.158 437.028H232.905V450.273H245.158V437.028Z" fill="#EDA751"/>
<path d="M245.158 423.783H232.905V437.028H245.158V423.783Z" fill="#CC8232"/>
<path d="M245.158 410.545H232.905V423.783H245.158V410.545Z" fill="#CC8232"/>
<path d="M245.158 397.301H232.905V410.545H245.158V397.301Z" fill="#FFDC9C"/>
<path d="M245.158 384.056H232.905V397.301H245.158V384.056Z" fill="#FFDC9C"/>
<path d="M245.158 370.811H232.905V384.056H245.158V370.811Z" fill="#FFDC9C"/>
<path d="M245.158 357.566H232.905V370.811H245.158V357.566Z" fill="#FFDC9C"/>
<path d="M245.158 344.329H232.905V357.566H245.158V344.329Z" fill="#FFDC9C"/>
<path d="M245.158 331.084H232.905V344.329H245.158V331.084Z" fill="#FFDC9C"/>
<path d="M245.158 317.839H232.905V331.084H245.158V317.839Z" fill="#FFDC9C"/>
<path d="M245.158 304.594H232.905V317.839H245.158V304.594Z" fill="#FFDC9C"/>
<path d="M245.158 291.356H232.905V304.594H245.158V291.356Z" fill="#FFDC9C"/>
<path d="M245.158 278.112H232.905V291.356H245.158V278.112Z" fill="#FFDC9C"/>
<path d="M245.158 264.867H232.905V278.112H245.158V264.867Z" fill="#FFDC9C"/>
<path d="M245.158 251.622H232.905V264.867H245.158V251.622Z" fill="#FFDC9C"/>
<path d="M245.158 238.378H232.905V251.622H245.158V238.378Z" fill="#FFDC9C"/>
<path d="M245.158 225.14H232.905V238.378H245.158V225.14Z" fill="#FFDC9C"/>
<path d="M245.158 211.895H232.905V225.14H245.158V211.895Z" fill="#FFDC9C"/>
<path d="M245.158 198.65H232.905V211.895H245.158V198.65Z" fill="#FFDC9C"/>
<path d="M245.158 185.406H232.905V198.65H245.158V185.406Z" fill="#FFDC9C"/>
<path d="M245.158 172.161H232.905V185.406H245.158V172.161Z" fill="#FFDC9C"/>
<path d="M245.158 158.923H232.905V172.161H245.158V158.923Z" fill="#FFDC9C"/>
<path d="M245.158 145.678H232.905V158.923H245.158V145.678Z" fill="#FFDC9C"/>
<path d="M245.158 132.434H232.905V145.678H245.158V132.434Z" fill="#FFDC9C"/>
<path d="M245.158 119.189H232.905V132.434H245.158V119.189Z" fill="#FFDC9C"/>
<path d="M245.158 105.951H232.905V119.189H245.158V105.951Z" fill="#FFDC9C"/>
<path d="M245.158 92.7062H232.905V105.951H245.158V92.7062Z" fill="#FFDC9C"/>
<path d="M245.158 79.4615H232.905V92.7062H245.158V79.4615Z" fill="#FFDC9C"/>
<path d="M245.158 66.2168H232.905V79.4615H245.158V66.2168Z" fill="#FFDC9C"/>
<path d="M245.158 52.9721H232.905V66.2168H245.158V52.9721Z" fill="#FFDC9C"/>
<path d="M245.158 39.7341H232.905V52.9721H245.158V39.7341Z" fill="#FFDC9C"/>
<path d="M245.158 26.4894H232.905V39.7341H245.158V26.4894Z" fill="#FFDC9C"/>
<path d="M232.905 476.755H220.646V490H232.905V476.755Z" fill="#EDA751"/>
<path d="M232.905 463.517H220.646V476.755H232.905V463.517Z" fill="#EDA751"/>
<path d="M232.905 450.273H220.646V463.517H232.905V450.273Z" fill="#EDA751"/>
<path d="M232.905 437.028H220.646V450.273H232.905V437.028Z" fill="#EDA751"/>
<path d="M232.905 423.783H220.646V437.028H232.905V423.783Z" fill="#CC8232"/>
<path d="M232.905 410.545H220.646V423.783H232.905V410.545Z" fill="#FFDC9C"/>
<path d="M232.905 397.301H220.646V410.545H232.905V397.301Z" fill="#FFDC9C"/>
<path d="M232.905 384.056H220.646V397.301H232.905V384.056Z" fill="#FFDC9C"/>
<path d="M232.905 370.811H220.646V384.056H232.905V370.811Z" fill="#FFDC9C"/>
<path d="M232.905 357.566H220.646V370.811H232.905V357.566Z" fill="#FFDC9C"/>
<path d="M232.905 344.329H220.646V357.566H232.905V344.329Z" fill="#FFDC9C"/>
<path d="M232.905 331.084H220.646V344.329H232.905V331.084Z" fill="#FFDC9C"/>
<path d="M232.905 317.839H220.646V331.084H232.905V317.839Z" fill="#FFDC9C"/>
<path d="M232.905 304.594H220.646V317.839H232.905V304.594Z" fill="#FFDC9C"/>
<path d="M232.905 291.356H220.646V304.594H232.905V291.356Z" fill="#FFDC9C"/>
<path d="M232.905 278.112H220.646V291.356H232.905V278.112Z" fill="#FFDC9C"/>
<path d="M232.905 264.867H220.646V278.112H232.905V264.867Z" fill="#FFDC9C"/>
<path d="M232.905 251.622H220.646V264.867H232.905V251.622Z" fill="#FFDC9C"/>
<path d="M232.905 238.378H220.646V251.622H232.905V238.378Z" fill="#FFDC9C"/>
<path d="M232.905 225.14H220.646V238.378H232.905V225.14Z" fill="#FFDC9C"/>
<path d="M232.905 211.895H220.646V225.14H232.905V211.895Z" fill="#FFDC9C"/>
<path d="M232.905 198.65H220.646V211.895H232.905V198.65Z" fill="#FFDC9C"/>
<path d="M232.905 185.406H220.646V198.65H232.905V185.406Z" fill="#FFDC9C"/>
<path d="M232.905 172.161H220.646V185.406H232.905V172.161Z" fill="#FFDC9C"/>
<path d="M232.905 158.923H220.646V172.161H232.905V158.923Z" fill="#FFDC9C"/>
<path d="M232.905 145.678H220.646V158.923H232.905V145.678Z" fill="#FFDC9C"/>
<path d="M232.905 132.434H220.646V145.678H232.905V132.434Z" fill="#FFDC9C"/>
<path d="M232.905 119.189H220.646V132.434H232.905V119.189Z" fill="#FFDC9C"/>
<path d="M232.905 105.951H220.646V119.189H232.905V105.951Z" fill="#FFDC9C"/>
<path d="M232.905 92.7062H220.646V105.951H232.905V92.7062Z" fill="#FFDC9C"/>
<path d="M232.905 79.4615H220.646V92.7062H232.905V79.4615Z" fill="#FFDC9C"/>
<path d="M232.905 66.2168H220.646V79.4615H232.905V66.2168Z" fill="#FFDC9C"/>
<path d="M232.905 52.9721H220.646V66.2168H232.905V52.9721Z" fill="#FFDC9C"/>
<path d="M232.905 39.7341H220.646V52.9721H232.905V39.7341Z" fill="#FFDC9C"/>
<path d="M232.905 26.4894H220.646V39.7341H232.905V26.4894Z" fill="#FFDC9C"/>
<path d="M220.646 476.755H208.386V490H220.646V476.755Z" fill="#EDA751"/>
<path d="M220.646 463.517H208.386V476.755H220.646V463.517Z" fill="#EDA751"/>
<path d="M220.646 450.273H208.386V463.517H220.646V450.273Z" fill="#EDA751"/>
<path d="M220.646 437.028H208.386V450.273H220.646V437.028Z" fill="#EDA751"/>
<path d="M220.646 423.783H208.386V437.028H220.646V423.783Z" fill="#CC8232"/>
<path d="M220.646 410.545H208.386V423.783H220.646V410.545Z" fill="#FFDC9C"/>
<path d="M220.646 397.301H208.386V410.545H220.646V397.301Z" fill="#FFDC9C"/>
<path d="M220.646 384.056H208.386V397.301H220.646V384.056Z" fill="#FFDC9C"/>
<path d="M220.646 370.811H208.386V384.056H220.646V370.811Z" fill="#FFDC9C"/>
<path d="M220.646 357.566H208.386V370.811H220.646V357.566Z" fill="#FFDC9C"/>
<path d="M220.646 344.329H208.386V357.566H220.646V344.329Z" fill="#FFDC9C"/>
<path d="M220.646 331.084H208.386V344.329H220.646V331.084Z" fill="#FFDC9C"/>
<path d="M220.646 317.839H208.386V331.084H220.646V317.839Z" fill="#FFDC9C"/>
<path d="M220.646 304.594H208.386V317.839H220.646V304.594Z" fill="#FFDC9C"/>
<path d="M220.646 291.356H208.386V304.594H220.646V291.356Z" fill="#FFDC9C"/>
<path d="M220.646 278.112H208.386V291.356H220.646V278.112Z" fill="#FFDC9C"/>
<path d="M220.646 264.867H208.386V278.112H220.646V264.867Z" fill="#FFDC9C"/>
<path d="M220.646 251.622H208.386V264.867H220.646V251.622Z" fill="#FFDC9C"/>
<path d="M220.646 238.378H208.386V251.622H220.646V238.378Z" fill="#FFDC9C"/>
<path d="M220.646 225.14H208.386V238.378H220.646V225.14Z" fill="#FFDC9C"/>
<path d="M220.646 211.895H208.386V225.14H220.646V211.895Z" fill="#FFDC9C"/>
<path d="M220.646 198.65H208.386V211.895H220.646V198.65Z" fill="#FFDC9C"/>
<path d="M220.646 185.406H208.386V198.65H220.646V185.406Z" fill="#FFDC9C"/>
<path d="M220.646 172.161H208.386V185.406H220.646V172.161Z" fill="#FFDC9C"/>
<path d="M220.646 158.923H208.386V172.161H220.646V158.923Z" fill="#FFDC9C"/>
<path d="M220.646 145.678H208.386V158.923H220.646V145.678Z" fill="#FFDC9C"/>
<path d="M220.646 132.434H208.386V145.678H220.646V132.434Z" fill="#FFDC9C"/>
<path d="M220.646 119.189H208.386V132.434H220.646V119.189Z" fill="#FFDC9C"/>
<path d="M220.646 105.951H208.386V119.189H220.646V105.951Z" fill="#FFDC9C"/>
<path d="M220.646 92.7062H208.386V105.951H220.646V92.7062Z" fill="#FFDC9C"/>
<path d="M220.646 79.4615H208.386V92.7062H220.646V79.4615Z" fill="#FFDC9C"/>
<path d="M220.646 66.2168H208.386V79.4615H220.646V66.2168Z" fill="#FFDC9C"/>
<path d="M220.646 52.9721H208.386V66.2168H220.646V52.9721Z" fill="#FFDC9C"/>
<path d="M220.646 39.7341H208.386V52.9721H220.646V39.7341Z" fill="#FFDC9C"/>
<path d="M220.646 26.4894H208.386V39.7341H220.646V26.4894Z" fill="#FFDC9C"/>
<path d="M208.386 410.545H196.127V423.783H208.386V410.545Z" fill="#FFDC9C"/>
<path d="M208.386 397.301H196.127V410.545H208.386V397.301Z" fill="#FFDC9C"/>
<path d="M208.386 384.056H196.127V397.301H208.386V384.056Z" fill="#FFDC9C"/>
<path d="M208.386 370.811H196.127V384.056H208.386V370.811Z" fill="#FFDC9C"/>
<path d="M208.386 357.566H196.127V370.811H208.386V357.566Z" fill="#FFDC9C"/>
<path d="M208.386 344.329H196.127V357.566H208.386V344.329Z" fill="#FFDC9C"/>
<path d="M208.386 331.084H196.127V344.329H208.386V331.084Z" fill="#FFDC9C"/>
<path d="M208.386 317.839H196.127V331.084H208.386V317.839Z" fill="#FFDC9C"/>
<path d="M208.386 304.594H196.127V317.839H208.386V304.594Z" fill="#FFDC9C"/>
<path d="M208.386 291.356H196.127V304.594H208.386V291.356Z" fill="#FFDC9C"/>
<path d="M208.386 278.112H196.127V291.356H208.386V278.112Z" fill="#FFDC9C"/>
<path d="M208.386 264.867H196.127V278.112H208.386V264.867Z" fill="#FFDC9C"/>
<path d="M208.386 251.622H196.127V264.867H208.386V251.622Z" fill="#FFDC9C"/>
<path d="M208.386 238.378H196.127V251.622H208.386V238.378Z" fill="#FFDC9C"/>
<path d="M208.386 225.14H196.127V238.378H208.386V225.14Z" fill="#FFDC9C"/>
<path d="M208.386 211.895H196.127V225.14H208.386V211.895Z" fill="#FFDC9C"/>
<path d="M208.386 198.65H196.127V211.895H208.386V198.65Z" fill="#FFDC9C"/>
<path d="M208.386 185.406H196.127V198.65H208.386V185.406Z" fill="#FF91AB"/>
<path d="M208.386 172.161H196.127V185.406H208.386V172.161Z" fill="#FF91AB"/>
<path d="M208.386 158.923H196.127V172.161H208.386V158.923Z" fill="#FFDC9C"/>
<path d="M208.386 145.678H196.127V158.923H208.386V145.678Z" fill="#FFDC9C"/>
<path d="M208.386 132.434H196.127V145.678H208.386V132.434Z" fill="#FFDC9C"/>
<path d="M208.386 119.189H196.127V132.434H208.386V119.189Z" fill="#FFDC9C"/>
<path d="M208.386 105.951H196.127V119.189H208.386V105.951Z" fill="#FFDC9C"/>
<path d="M208.386 92.7062H196.127V105.951H208.386V92.7062Z" fill="#FFDC9C"/>
<path d="M208.386 79.4615H196.127V92.7062H208.386V79.4615Z" fill="#FFDC9C"/>
<path d="M208.386 66.2168H196.127V79.4615H208.386V66.2168Z" fill="#FFDC9C"/>
<path d="M208.386 52.9721H196.127V66.2168H208.386V52.9721Z" fill="#FFDC9C"/>
<path d="M208.386 39.7341H196.127V52.9721H208.386V39.7341Z" fill="#FFDC9C"/>
<path d="M208.386 26.4894H196.127V39.7341H208.386V26.4894Z" fill="#FFDC9C"/>
<path d="M196.127 410.545H183.867V423.783H196.127V410.545Z" fill="#FFDC9C"/>
<path d="M196.127 397.301H183.867V410.545H196.127V397.301Z" fill="#FFDC9C"/>
<path d="M196.127 384.056H183.867V397.301H196.127V384.056Z" fill="#FFDC9C"/>
<path d="M196.127 370.811H183.867V384.056H196.127V370.811Z" fill="#FFDC9C"/>
<path d="M196.127 357.566H183.867V370.811H196.127V357.566Z" fill="#FFDC9C"/>
<path d="M196.127 344.329H183.867V357.566H196.127V344.329Z" fill="#FFDC9C"/>
<path d="M196.127 331.084H183.867V344.329H196.127V331.084Z" fill="#FFDC9C"/>
<path d="M196.127 317.839H183.867V331.084H196.127V317.839Z" fill="#FFDC9C"/>
<path d="M196.127 304.594H183.867V317.839H196.127V304.594Z" fill="#FFDC9C"/>
<path d="M196.127 291.356H183.867V304.594H196.127V291.356Z" fill="#FFDC9C"/>
<path d="M196.127 278.112H183.867V291.356H196.127V278.112Z" fill="#FFDC9C"/>
<path d="M196.127 264.867H183.867V278.112H196.127V264.867Z" fill="#FFDC9C"/>
<path d="M196.127 251.622H183.867V264.867H196.127V251.622Z" fill="#FFDC9C"/>
<path d="M196.127 238.378H183.867V251.622H196.127V238.378Z" fill="#FFDC9C"/>
<path d="M196.127 225.14H183.867V238.378H196.127V225.14Z" fill="#FFDC9C"/>
<path d="M196.127 211.895H183.867V225.14H196.127V211.895Z" fill="#FFDC9C"/>
<path d="M196.127 198.65H183.867V211.895H196.127V198.65Z" fill="#FFDC9C"/>
<path d="M196.127 185.406H183.867V198.65H196.127V185.406Z" fill="#FF91AB"/>
<path d="M196.127 172.161H183.867V185.406H196.127V172.161Z" fill="#FF91AB"/>
<path d="M196.127 158.923H183.867V172.161H196.127V158.923Z" fill="#FFDC9C"/>
<path d="M196.127 145.678H183.867V158.923H196.127V145.678Z" fill="#FFDC9C"/>
<path d="M196.127 132.434H183.867V145.678H196.127V132.434Z" fill="#FFDC9C"/>
<path d="M196.127 119.189H183.867V132.434H196.127V119.189Z" fill="#FFDC9C"/>
<path d="M196.127 105.951H183.867V119.189H196.127V105.951Z" fill="#FFDC9C"/>
<path d="M196.127 92.7062H183.867V105.951H196.127V92.7062Z" fill="#FFDC9C"/>
<path d="M196.127 79.4615H183.867V92.7062H196.127V79.4615Z" fill="#FFDC9C"/>
<path d="M196.127 66.2168H183.867V79.4615H196.127V66.2168Z" fill="#FFDC9C"/>
<path d="M196.127 52.9721H183.867V66.2168H196.127V52.9721Z" fill="#FFDC9C"/>
<path d="M196.127 39.7341H183.867V52.9721H196.127V39.7341Z" fill="#FFDC9C"/>
<path d="M196.127 26.4894H183.867V39.7341H196.127V26.4894Z" fill="#FFDC9C"/>
<path d="M183.867 410.545H171.614V423.783H183.867V410.545Z" fill="#FFDC9C"/>
<path d="M183.867 397.301H171.614V410.545H183.867V397.301Z" fill="#FFDC9C"/>
<path d="M183.867 384.056H171.614V397.301H183.867V384.056Z" fill="#FFDC9C"/>
<path d="M183.867 370.811H171.614V384.056H183.867V370.811Z" fill="#FFDC9C"/>
<path d="M183.867 357.566H171.614V370.811H183.867V357.566Z" fill="#FFDC9C"/>
<path d="M183.867 344.329H171.614V357.566H183.867V344.329Z" fill="#FFDC9C"/>
<path d="M183.867 331.084H171.614V344.329H183.867V331.084Z" fill="#FFDC9C"/>
<path d="M183.867 317.839H171.614V331.084H183.867V317.839Z" fill="#FFDC9C"/>
<path d="M183.867 304.594H171.614V317.839H183.867V304.594Z" fill="#FFDC9C"/>
<path d="M183.867 291.356H171.614V304.594H183.867V291.356Z" fill="#FFDC9C"/>
<path d="M183.867 278.112H171.614V291.356H183.867V278.112Z" fill="#FFDC9C"/>
<path d="M183.867 264.867H171.614V278.112H183.867V264.867Z" fill="#FFDC9C"/>
<path d="M183.867 251.622H171.614V264.867H183.867V251.622Z" fill="#FFDC9C"/>
<path d="M183.867 238.378H171.614V251.622H183.867V238.378Z" fill="#FFDC9C"/>
<path d="M183.867 225.14H171.614V238.378H183.867V225.14Z" fill="#FFDC9C"/>
<path d="M183.867 211.895H171.614V225.14H183.867V211.895Z" fill="#FFDC9C"/>
<path d="M183.867 198.65H171.614V211.895H183.867V198.65Z" fill="#FFDC9C"/>
<path d="M183.867 185.406H171.614V198.65H183.867V185.406Z" fill="#FF91AB"/>
<path d="M183.867 172.161H171.614V185.406H183.867V172.161Z" fill="#FF91AB"/>
<path d="M183.867 158.923H171.614V172.161H183.867V158.923Z" fill="#FFDC9C"/>
<path d="M183.867 145.678H171.614V158.923H183.867V145.678Z" fill="#FFDC9C"/>
<path d="M183.867 132.434H171.614V145.678H183.867V132.434Z" fill="#FFDC9C"/>
<path d="M183.867 119.189H171.614V132.434H183.867V119.189Z" fill="#FFDC9C"/>
<path d="M183.867 105.951H171.614V119.189H183.867V105.951Z" fill="#FFDC9C"/>
<path d="M183.867 92.7062H171.614V105.951H183.867V92.7062Z" fill="#FFDC9C"/>
<path d="M183.867 79.4615H171.614V92.7062H183.867V79.4615Z" fill="#FFDC9C"/>
<path d="M183.867 66.2168H171.614V79.4615H183.867V66.2168Z" fill="#FFDC9C"/>
<path d="M183.867 52.9721H171.614V66.2168H183.867V52.9721Z" fill="#FFDC9C"/>
<path d="M183.867 39.7341H171.614V52.9721H183.867V39.7341Z" fill="#FFDC9C"/>
<path d="M183.867 26.4894H171.614V39.7341H183.867V26.4894Z" fill="#FFDC9C"/>
<path d="M171.614 476.755H159.354V490H171.614V476.755Z" fill="#EDA751"/>
<path d="M171.614 463.517H159.354V476.755H171.614V463.517Z" fill="#EDA751"/>
<path d="M171.614 450.273H159.354V463.517H171.614V450.273Z" fill="#EDA751"/>
<path d="M171.614 437.028H159.354V450.273H171.614V437.028Z" fill="#EDA751"/>
<path d="M171.614 423.783H159.354V437.028H171.614V423.783Z" fill="#CC8232"/>
<path d="M171.614 410.545H159.354V423.783H171.614V410.545Z" fill="#E5BD7C"/>
<path d="M171.614 397.301H159.354V410.545H171.614V397.301Z" fill="#FFDC9C"/>
<path d="M171.614 384.056H159.354V397.301H171.614V384.056Z" fill="#FFDC9C"/>
<path d="M171.614 370.811H159.354V384.056H171.614V370.811Z" fill="#FFDC9C"/>
<path d="M171.614 357.566H159.354V370.811H171.614V357.566Z" fill="#FFDC9C"/>
<path d="M171.614 344.329H159.354V357.566H171.614V344.329Z" fill="#FFDC9C"/>
<path d="M171.614 331.084H159.354V344.329H171.614V331.084Z" fill="#FFDC9C"/>
<path d="M171.614 317.839H159.354V331.084H171.614V317.839Z" fill="#FFDC9C"/>
<path d="M171.614 304.594H159.354V317.839H171.614V304.594Z" fill="#FFDC9C"/>
<path d="M171.614 291.356H159.354V304.594H171.614V291.356Z" fill="#FFDC9C"/>
<path d="M171.614 278.112H159.354V291.356H171.614V278.112Z" fill="#FFDC9C"/>
<path d="M171.614 264.867H159.354V278.112H171.614V264.867Z" fill="#FFDC9C"/>
<path d="M171.614 251.622H159.354V264.867H171.614V251.622Z" fill="#FFDC9C"/>
<path d="M171.614 238.378H159.354V251.622H171.614V238.378Z" fill="#FFDC9C"/>
<path d="M171.614 225.14H159.354V238.378H171.614V225.14Z" fill="#FFDC9C"/>
<path d="M171.614 211.895H159.354V225.14H171.614V211.895Z" fill="#FFDC9C"/>
<path d="M171.614 198.65H159.354V211.895H171.614V198.65Z" fill="#FFDC9C"/>
<path d="M171.614 185.406H159.354V198.65H171.614V185.406Z" fill="#FFDC9C"/>
<path d="M171.614 172.161H159.354V185.406H171.614V172.161Z" fill="#FFDC9C"/>
<path d="M171.614 158.923H159.354V172.161H171.614V158.923Z" fill="#FFDC9C"/>
<path d="M171.614 145.678H159.354V158.923H171.614V145.678Z" fill="#FFDC9C"/>
<path d="M171.614 132.434H159.354V145.678H171.614V132.434Z" fill="#FFDC9C"/>
<path d="M171.614 119.189H159.354V132.434H171.614V119.189Z" fill="#FFDC9C"/>
<path d="M171.614 105.951H159.354V119.189H171.614V105.951Z" fill="#FFDC9C"/>
<path d="M171.614 92.7062H159.354V105.951H171.614V92.7062Z" fill="#FFDC9C"/>
<path d="M171.614 79.4615H159.354V92.7062H171.614V79.4615Z" fill="#FFDC9C"/>
<path d="M171.614 66.2168H159.354V79.4615H171.614V66.2168Z" fill="#FFDC9C"/>
<path d="M171.614 52.9721H159.354V66.2168H171.614V52.9721Z" fill="#FFDC9C"/>
<path d="M171.614 39.7341H159.354V52.9721H171.614V39.7341Z" fill="#FFDC9C"/>
<path d="M171.614 26.4894H159.354V39.7341H171.614V26.4894Z" fill="#FFDC9C"/>
<path d="M159.354 476.755H147.095V490H159.354V476.755Z" fill="#EDA751"/>
<path d="M159.354 463.517H147.095V476.755H159.354V463.517Z" fill="#EDA751"/>
<path d="M159.354 450.273H147.095V463.517H159.354V450.273Z" fill="#EDA751"/>
<path d="M159.354 437.028H147.095V450.273H159.354V437.028Z" fill="#EDA751"/>
<path d="M159.354 423.783H147.095V437.028H159.354V423.783Z" fill="#CC8232"/>
<path d="M159.354 410.545H147.095V423.783H159.354V410.545Z" fill="#E5BD7C"/>
<path d="M159.354 397.301H147.095V410.545H159.354V397.301Z" fill="#E5BD7C"/>
<path d="M159.354 384.056H147.095V397.301H159.354V384.056Z" fill="#FFDC9C"/>
<path d="M159.354 370.811H147.095V384.056H159.354V370.811Z" fill="#FFDC9C"/>
<path d="M159.354 357.566H147.095V370.811H159.354V357.566Z" fill="#FFDC9C"/>
<path d="M159.354 344.329H147.095V357.566H159.354V344.329Z" fill="#FFDC9C"/>
<path d="M159.354 331.084H147.095V344.329H159.354V331.084Z" fill="#FFDC9C"/>
<path d="M159.354 317.839H147.095V331.084H159.354V317.839Z" fill="#FFDC9C"/>
<path d="M159.354 304.594H147.095V317.839H159.354V304.594Z" fill="#FFDC9C"/>
<path d="M159.354 291.356H147.095V304.594H159.354V291.356Z" fill="#FFDC9C"/>
<path d="M159.354 278.112H147.095V291.356H159.354V278.112Z" fill="#FFDC9C"/>
<path d="M159.354 264.867H147.095V278.112H159.354V264.867Z" fill="#FFDC9C"/>
<path d="M159.354 251.622H147.095V264.867H159.354V251.622Z" fill="#FFDC9C"/>
<path d="M159.354 238.378H147.095V251.622H159.354V238.378Z" fill="#FFDC9C"/>
<path d="M159.354 225.14H147.095V238.378H159.354V225.14Z" fill="#FFDC9C"/>
<path d="M159.354 211.895H147.095V225.14H159.354V211.895Z" fill="#FFDC9C"/>
<path d="M159.354 198.65H147.095V211.895H159.354V198.65Z" fill="#FFDC9C"/>
<path d="M159.354 185.406H147.095V198.65H159.354V185.406Z" fill="#FFDC9C"/>
<path d="M159.354 172.161H147.095V185.406H159.354V172.161Z" fill="#FFDC9C"/>
<path d="M159.354 158.923H147.095V172.161H159.354V158.923Z" fill="#FFDC9C"/>
<path d="M159.354 145.678H147.095V158.923H159.354V145.678Z" fill="#FFDC9C"/>
<path d="M159.354 132.434H147.095V145.678H159.354V132.434Z" fill="#FFDC9C"/>
<path d="M159.354 119.189H147.095V132.434H159.354V119.189Z" fill="#FFDC9C"/>
<path d="M159.354 105.951H147.095V119.189H159.354V105.951Z" fill="#FFDC9C"/>
<path d="M159.354 92.7062H147.095V105.951H159.354V92.7062Z" fill="#FFDC9C"/>
<path d="M159.354 79.4615H147.095V92.7062H159.354V79.4615Z" fill="#FFDC9C"/>
<path d="M159.354 66.2168H147.095V79.4615H159.354V66.2168Z" fill="#FFDC9C"/>
<path d="M159.354 52.9721H147.095V66.2168H159.354V52.9721Z" fill="#FFDC9C"/>
<path d="M159.354 39.7341H147.095V52.9721H159.354V39.7341Z" fill="#FFDC9C"/>
<path d="M159.354 26.4894H147.095V39.7341H159.354V26.4894Z" fill="#FFDC9C"/>
<path d="M147.095 476.755H134.835V490H147.095V476.755Z" fill="#EDA751"/>
<path d="M147.095 463.517H134.835V476.755H147.095V463.517Z" fill="#EDA751"/>
<path d="M147.095 450.273H134.835V463.517H147.095V450.273Z" fill="#EDA751"/>
<path d="M147.095 437.028H134.835V450.273H147.095V437.028Z" fill="#EDA751"/>
<path d="M147.095 423.783H134.835V437.028H147.095V423.783Z" fill="#CC8232"/>
<path d="M147.095 410.545H134.835V423.783H147.095V410.545Z" fill="#CC8232"/>
<path d="M147.095 397.301H134.835V410.545H147.095V397.301Z" fill="#E5BD7C"/>
<path d="M147.095 384.056H134.835V397.301H147.095V384.056Z" fill="#E5BD7C"/>
<path d="M147.095 370.811H134.835V384.056H147.095V370.811Z" fill="#E5BD7C"/>
<path d="M147.095 357.566H134.835V370.811H147.095V357.566Z" fill="#FFDC9C"/>
<path d="M147.095 344.329H134.835V357.566H147.095V344.329Z" fill="#FFDC9C"/>
<path d="M147.095 331.084H134.835V344.329H147.095V331.084Z" fill="#FFDC9C"/>
<path d="M147.095 317.839H134.835V331.084H147.095V317.839Z" fill="#FFDC9C"/>
<path d="M147.095 304.594H134.835V317.839H147.095V304.594Z" fill="#FFDC9C"/>
<path d="M147.095 291.356H134.835V304.594H147.095V291.356Z" fill="#FFDC9C"/>
<path d="M147.095 278.112H134.835V291.356H147.095V278.112Z" fill="#FFDC9C"/>
<path d="M147.095 264.867H134.835V278.112H147.095V264.867Z" fill="#FFDC9C"/>
<path d="M147.095 251.622H134.835V264.867H147.095V251.622Z" fill="#FFDC9C"/>
<path d="M147.095 238.378H134.835V251.622H147.095V238.378Z" fill="#FFDC9C"/>
<path d="M147.095 225.14H134.835V238.378H147.095V225.14Z" fill="#FFDC9C"/>
<path d="M147.095 211.895H134.835V225.14H147.095V211.895Z" fill="#FFDC9C"/>
<path d="M147.095 198.65H134.835V211.895H147.095V198.65Z" fill="#FFDC9C"/>
<path d="M147.095 185.406H134.835V198.65H147.095V185.406Z" fill="#FFDC9C"/>
<path d="M147.095 172.161H134.835V185.406H147.095V172.161Z" fill="#FFDC9C"/>
<path d="M147.095 158.923H134.835V172.161H147.095V158.923Z" fill="#FFDC9C"/>
<path d="M147.095 145.678H134.835V158.923H147.095V145.678Z" fill="#FFDC9C"/>
<path d="M147.095 132.434H134.835V145.678H147.095V132.434Z" fill="#FFDC9C"/>
<path d="M147.095 119.189H134.835V132.434H147.095V119.189Z" fill="#FFDC9C"/>
<path d="M147.095 105.951H134.835V119.189H147.095V105.951Z" fill="#FFDC9C"/>
<path d="M147.095 92.7062H134.835V105.951H147.095V92.7062Z" fill="#FFDC9C"/>
<path d="M147.095 79.4615H134.835V92.7062H147.095V79.4615Z" fill="#FFDC9C"/>
<path d="M147.095 66.2168H134.835V79.4615H147.095V66.2168Z" fill="#FFDC9C"/>
<path d="M147.095 52.9721H134.835V66.2168H147.095V52.9721Z" fill="#FFDC9C"/>
<path d="M147.095 39.7341H134.835V52.9721H147.095V39.7341Z" fill="#FFDC9C"/>
<path d="M147.095 26.4894H134.835V39.7341H147.095V26.4894Z" fill="#FFDC9C"/>
<path d="M134.835 463.517H122.582V476.755H134.835V463.517Z" fill="#EDA751"/>
<path d="M134.835 450.273H122.582V463.517H134.835V450.273Z" fill="#EDA751"/>
<path d="M134.835 437.028H122.582V450.273H134.835V437.028Z" fill="#EDA751"/>
<path d="M134.835 423.783H122.582V437.028H134.835V423.783Z" fill="#EDA751"/>
<path d="M134.835 410.545H122.582V423.783H134.835V410.545Z" fill="#CC8232"/>
<path d="M134.835 397.301H122.582V410.545H134.835V397.301Z" fill="#E5BD7C"/>
<path d="M134.835 384.056H122.582V397.301H134.835V384.056Z" fill="#E5BD7C"/>
<path d="M134.835 370.811H122.582V384.056H134.835V370.811Z" fill="#E5BD7C"/>
<path d="M134.835 357.566H122.582V370.811H134.835V357.566Z" fill="#E5BD7C"/>
<path d="M134.835 344.329H122.582V357.566H134.835V344.329Z" fill="#E5BD7C"/>
<path d="M134.835 331.084H122.582V344.329H134.835V331.084Z" fill="#E5BD7C"/>
<path d="M134.835 317.839H122.582V331.084H134.835V317.839Z" fill="#E5BD7C"/>
<path d="M134.835 304.594H122.582V317.839H134.835V304.594Z" fill="#E5BD7C"/>
<path d="M134.835 291.356H122.582V304.594H134.835V291.356Z" fill="#E5BD7C"/>
<path d="M134.835 278.112H122.582V291.356H134.835V278.112Z" fill="#FFDC9C"/>
<path d="M134.835 264.867H122.582V278.112H134.835V264.867Z" fill="#FFDC9C"/>
<path d="M134.835 251.622H122.582V264.867H134.835V251.622Z" fill="#FFDC9C"/>
<path d="M134.835 238.378H122.582V251.622H134.835V238.378Z" fill="#FFDC9C"/>
<path d="M134.835 225.14H122.582V238.378H134.835V225.14Z" fill="#FFDC9C"/>
<path d="M134.835 211.895H122.582V225.14H134.835V211.895Z" fill="#FF91AB"/>
<path d="M134.835 198.65H122.582V211.895H134.835V198.65Z" fill="#5CE5E5"/>
<path d="M134.835 185.406H122.582V198.65H134.835V185.406Z" fill="#FFDC9C"/>
<path d="M134.835 172.161H122.582V185.406H134.835V172.161Z" fill="#495059"/>
<path d="M134.835 158.923H122.582V172.161H134.835V158.923Z" fill="#495059"/>
<path d="M134.835 145.678H122.582V158.923H134.835V145.678Z" fill="#495059"/>
<path d="M134.835 132.434H122.582V145.678H134.835V132.434Z" fill="#FFDC9C"/>
<path d="M134.835 119.189H122.582V132.434H134.835V119.189Z" fill="#FFDC9C"/>
<path d="M134.835 105.951H122.582V119.189H134.835V105.951Z" fill="#495059"/>
<path d="M134.835 92.7062H122.582V105.951H134.835V92.7062Z" fill="#FFDC9C"/>
<path d="M134.835 79.4615H122.582V92.7062H134.835V79.4615Z" fill="#FFDC9C"/>
<path d="M134.835 66.2168H122.582V79.4615H134.835V66.2168Z" fill="#FFDC9C"/>
<path d="M134.835 52.9721H122.582V66.2168H134.835V52.9721Z" fill="#FFDC9C"/>
<path d="M134.835 39.7341H122.582V52.9721H134.835V39.7341Z" fill="#FFDC9C"/>
<path d="M122.582 384.056H110.323V397.301H122.582V384.056Z" fill="#E5BD7C"/>
<path d="M122.582 370.811H110.323V384.056H122.582V370.811Z" fill="#E5BD7C"/>
<path d="M122.582 357.566H110.323V370.811H122.582V357.566Z" fill="#E5BD7C"/>
<path d="M122.582 344.329H110.323V357.566H122.582V344.329Z" fill="#E5BD7C"/>
<path d="M122.582 331.084H110.323V344.329H122.582V331.084Z" fill="#E5BD7C"/>
<path d="M122.582 317.839H110.323V331.084H122.582V317.839Z" fill="#E5BD7C"/>
<path d="M122.582 304.594H110.323V317.839H122.582V304.594Z" fill="#E5BD7C"/>
<path d="M122.582 291.356H110.323V304.594H122.582V291.356Z" fill="#E5BD7C"/>
<path d="M122.582 278.112H110.323V291.356H122.582V278.112Z" fill="#E5BD7C"/>
<path d="M122.582 264.867H110.323V278.112H122.582V264.867Z" fill="#FFDC9C"/>
<path d="M122.582 251.622H110.323V264.867H122.582V251.622Z" fill="#FFDC9C"/>
<path d="M122.582 238.378H110.323V251.622H122.582V238.378Z" fill="#FFDC9C"/>
<path d="M122.582 225.14H110.323V238.378H122.582V225.14Z" fill="#FF91AB"/>
<path d="M122.582 211.895H110.323V225.14H122.582V211.895Z" fill="#5CE5E5"/>
<path d="M122.582 198.65H110.323V211.895H122.582V198.65Z" fill="#5CE5E5"/>
<path d="M122.582 185.406H110.323V198.65H122.582V185.406Z" fill="#4BB9F7"/>
<path d="M122.582 172.161H110.323V185.406H122.582V172.161Z" fill="#495059"/>
<path d="M122.582 158.923H110.323V172.161H122.582V158.923Z" fill="#495059"/>
<path d="M122.582 145.678H110.323V158.923H122.582V145.678Z" fill="#DEE2E5"/>
<path d="M122.582 132.434H110.323V145.678H122.582V132.434Z" fill="#FFDC9C"/>
<path d="M122.582 119.189H110.323V132.434H122.582V119.189Z" fill="#495059"/>
<path d="M122.582 105.951H110.323V119.189H122.582V105.951Z" fill="#FFDC9C"/>
<path d="M122.582 92.7062H110.323V105.951H122.582V92.7062Z" fill="#FFDC9C"/>
<path d="M122.582 79.4615H110.323V92.7062H122.582V79.4615Z" fill="#FFDC9C"/>
<path d="M122.582 66.2168H110.323V79.4615H122.582V66.2168Z" fill="#FFDC9C"/>
<path d="M122.582 52.9721H110.323V66.2168H122.582V52.9721Z" fill="#FFDC9C"/>
<path d="M122.582 39.7341H110.323V52.9721H122.582V39.7341Z" fill="#FFDC9C"/>
<path d="M110.323 384.056H98.0634V397.301H110.323V384.056Z" fill="#CC8232"/>
<path d="M110.323 370.811H98.0634V384.056H110.323V370.811Z" fill="#E5BD7C"/>
<path d="M110.323 357.566H98.0634V370.811H110.323V357.566Z" fill="#E5BD7C"/>
<path d="M110.323 344.329H98.0634V357.566H110.323V344.329Z" fill="#E5BD7C"/>
<path d="M110.323 331.084H98.0634V344.329H110.323V331.084Z" fill="#E5BD7C"/>
<path d="M110.323 317.839H98.0634V331.084H110.323V317.839Z" fill="#E5BD7C"/>
<path d="M110.323 304.594H98.0634V317.839H110.323V304.594Z" fill="#E5BD7C"/>
<path d="M110.323 291.356H98.0634V304.594H110.323V291.356Z" fill="#E5BD7C"/>
<path d="M110.323 278.112H98.0634V291.356H110.323V278.112Z" fill="#E5BD7C"/>
<path d="M110.323 264.867H98.0634V278.112H110.323V264.867Z" fill="#E5BD7C"/>
<path d="M110.323 251.622H98.0634V264.867H110.323V251.622Z" fill="#FFDC9C"/>
<path d="M110.323 238.378H98.0634V251.622H110.323V238.378Z" fill="#FFDC9C"/>
<path d="M110.323 225.14H98.0634V238.378H110.323V225.14Z" fill="#FF91AB"/>
<path d="M110.323 211.895H98.0634V225.14H110.323V211.895Z" fill="#FF91AB"/>
<path d="M110.323 198.65H98.0634V211.895H110.323V198.65Z" fill="#4BB9F7"/>
<path d="M110.323 185.406H98.0634V198.65H110.323V185.406Z" fill="#FF91AB"/>
<path d="M110.323 172.161H98.0634V185.406H110.323V172.161Z" fill="#FFDC9C"/>
<path d="M110.323 158.923H98.0634V172.161H110.323V158.923Z" fill="#FFDC9C"/>
<path d="M110.323 145.678H98.0634V158.923H110.323V145.678Z" fill="#FFDC9C"/>
<path d="M110.323 132.434H98.0634V145.678H110.323V132.434Z" fill="#FFDC9C"/>
<path d="M110.323 119.189H98.0634V132.434H110.323V119.189Z" fill="#495059"/>
<path d="M110.323 105.951H98.0634V119.189H110.323V105.951Z" fill="#FFDC9C"/>
<path d="M110.323 92.7062H98.0634V105.951H110.323V92.7062Z" fill="#FFDC9C"/>
<path d="M110.323 79.4615H98.0634V92.7062H110.323V79.4615Z" fill="#FFDC9C"/>
<path d="M110.323 66.2168H98.0634V79.4615H110.323V66.2168Z" fill="#FFDC9C"/>
<path d="M110.323 52.9721H98.0634V66.2168H110.323V52.9721Z" fill="#FFDC9C"/>
<path d="M110.323 39.7341H98.0634V52.9721H110.323V39.7341Z" fill="#FFDC9C"/>
<path d="M110.323 26.4894H98.0634V39.7341H110.323V26.4894Z" fill="#EDA751"/>
<path d="M98.0633 397.301H85.8038V410.545H98.0633V397.301Z" fill="#EDA751"/>
<path d="M98.0633 384.056H85.8038V397.301H98.0633V384.056Z" fill="#EDA751"/>
<path d="M98.0633 370.811H85.8038V384.056H98.0633V370.811Z" fill="#CC8232"/>
<path d="M98.0633 357.566H85.8038V370.811H98.0633V357.566Z" fill="#CC8232"/>
<path d="M98.0633 344.329H85.8038V357.566H98.0633V344.329Z" fill="#E5BD7C"/>
<path d="M98.0633 331.084H85.8038V344.329H98.0633V331.084Z" fill="#E5BD7C"/>
<path d="M98.0633 317.839H85.8038V331.084H98.0633V317.839Z" fill="#E5BD7C"/>
<path d="M98.0633 304.594H85.8038V317.839H98.0633V304.594Z" fill="#E5BD7C"/>
<path d="M98.0633 291.356H85.8038V304.594H98.0633V291.356Z" fill="#E5BD7C"/>
<path d="M98.0633 278.112H85.8038V291.356H98.0633V278.112Z" fill="#E5BD7C"/>
<path d="M98.0633 264.867H85.8038V278.112H98.0633V264.867Z" fill="#E5BD7C"/>
<path d="M98.0633 251.622H85.8038V264.867H98.0633V251.622Z" fill="#E5BD7C"/>
<path d="M98.0633 238.378H85.8038V251.622H98.0633V238.378Z" fill="#FFDC9C"/>
<path d="M98.0633 225.14H85.8038V238.378H98.0633V225.14Z" fill="#FFDC9C"/>
<path d="M98.0633 211.895H85.8038V225.14H98.0633V211.895Z" fill="#495059"/>
<path d="M98.0633 198.65H85.8038V211.895H98.0633V198.65Z" fill="#FF91AB"/>
<path d="M98.0633 185.406H85.8038V198.65H98.0633V185.406Z" fill="#495059"/>
<path d="M98.0633 172.161H85.8038V185.406H98.0633V172.161Z" fill="#FFDC9C"/>
<path d="M98.0633 158.923H85.8038V172.161H98.0633V158.923Z" fill="#FFDC9C"/>
<path d="M98.0633 145.678H85.8038V158.923H98.0633V145.678Z" fill="#FFDC9C"/>
<path d="M98.0633 132.434H85.8038V145.678H98.0633V132.434Z" fill="#FFDC9C"/>
<path d="M98.0633 119.189H85.8038V132.434H98.0633V119.189Z" fill="#FFDC9C"/>
<path d="M98.0633 105.951H85.8038V119.189H98.0633V105.951Z" fill="#FFDC9C"/>
<path d="M98.0633 92.7062H85.8038V105.951H98.0633V92.7062Z" fill="#FFDC9C"/>
<path d="M98.0633 79.4615H85.8038V92.7062H98.0633V79.4615Z" fill="#FFDC9C"/>
<path d="M98.0633 66.2168H85.8038V79.4615H98.0633V66.2168Z" fill="#FFDC9C"/>
<path d="M98.0633 52.9721H85.8038V66.2168H98.0633V52.9721Z" fill="#FFDC9C"/>
<path d="M98.0633 39.7341H85.8038V52.9721H98.0633V39.7341Z" fill="#EDA751"/>
<path d="M98.0633 26.4894H85.8038V39.7341H98.0633V26.4894Z" fill="#EDA751"/>
<path d="M98.0633 13.2447H85.8038V26.4894H98.0633V13.2447Z" fill="#EDA751"/>
<path d="M85.8038 410.545H73.5443V423.783H85.8038V410.545Z" fill="#EDA751"/>
<path d="M85.8038 397.301H73.5443V410.545H85.8038V397.301Z" fill="#EDA751"/>
<path d="M85.8038 384.056H73.5443V397.301H85.8038V384.056Z" fill="#EDA751"/>
<path d="M85.8038 370.811H73.5443V384.056H85.8038V370.811Z" fill="#EDA751"/>
<path d="M85.8038 357.566H73.5443V370.811H85.8038V357.566Z" fill="#CC8232"/>
<path d="M85.8038 344.329H73.5443V357.566H85.8038V344.329Z" fill="#CC8232"/>
<path d="M85.8038 331.084H73.5443V344.329H85.8038V331.084Z" fill="#E5BD7C"/>
<path d="M85.8038 317.839H73.5443V331.084H85.8038V317.839Z" fill="#E5BD7C"/>
<path d="M85.8038 304.594H73.5443V317.839H85.8038V304.594Z" fill="#E5BD7C"/>
<path d="M85.8038 264.867H73.5443V278.112H85.8038V264.867Z" fill="#E5BD7C"/>
<path d="M85.8038 251.622H73.5443V264.867H85.8038V251.622Z" fill="#E5BD7C"/>
<path d="M85.8038 238.378H73.5443V251.622H85.8038V238.378Z" fill="#E5BD7C"/>
<path d="M85.8038 225.14H73.5443V238.378H85.8038V225.14Z" fill="#495059"/>
<path d="M85.8038 211.895H73.5443V225.14H85.8038V211.895Z" fill="#FFDC9C"/>
<path d="M85.8038 198.65H73.5443V211.895H85.8038V198.65Z" fill="#495059"/>
<path d="M85.8038 185.406H73.5443V198.65H85.8038V185.406Z" fill="#FFDC9C"/>
<path d="M85.8038 172.161H73.5443V185.406H85.8038V172.161Z" fill="#495059"/>
<path d="M85.8038 158.923H73.5443V172.161H85.8038V158.923Z" fill="#FFDC9C"/>
<path d="M85.8038 145.678H73.5443V158.923H85.8038V145.678Z" fill="#FFDC9C"/>
<path d="M85.8038 132.434H73.5443V145.678H85.8038V132.434Z" fill="#FFDC9C"/>
<path d="M85.8038 119.189H73.5443V132.434H85.8038V119.189Z" fill="#FFDC9C"/>
<path d="M85.8038 105.951H73.5443V119.189H85.8038V105.951Z" fill="#FFDC9C"/>
<path d="M85.8038 92.7062H73.5443V105.951H85.8038V92.7062Z" fill="#FFDC9C"/>
<path d="M85.8038 79.4615H73.5443V92.7062H85.8038V79.4615Z" fill="#E5BD7C"/>
<path d="M85.8038 66.2168H73.5443V79.4615H85.8038V66.2168Z" fill="#E5BD7C"/>
<path d="M85.8038 52.9721H73.5443V66.2168H85.8038V52.9721Z" fill="#EDA751"/>
<path d="M85.8038 39.7341H73.5443V52.9721H85.8038V39.7341Z" fill="#EDA751"/>
<path d="M85.8038 26.4894H73.5443V39.7341H85.8038V26.4894Z" fill="#EDA751"/>
<path d="M85.8038 13.2447H73.5443V26.4894H85.8038V13.2447Z" fill="#EDA751"/>
<path d="M73.5444 410.545H61.2911V423.783H73.5444V410.545Z" fill="#EDA751"/>
<path d="M73.5444 397.301H61.2911V410.545H73.5444V397.301Z" fill="#EDA751"/>
<path d="M73.5444 384.056H61.2911V397.301H73.5444V384.056Z" fill="#EDA751"/>
<path d="M73.5444 370.811H61.2911V384.056H73.5444V370.811Z" fill="#EDA751"/>
<path d="M73.5444 357.566H61.2911V370.811H73.5444V357.566Z" fill="#CC8232"/>
<path d="M73.5444 264.867H61.2911V278.112H73.5444V264.867Z" fill="#E5BD7C"/>
<path d="M73.5444 251.622H61.2911V264.867H73.5444V251.622Z" fill="#E5BD7C"/>
<path d="M73.5444 238.378H61.2911V251.622H73.5444V238.378Z" fill="#E5BD7C"/>
<path d="M73.5444 225.14H61.2911V238.378H73.5444V225.14Z" fill="#E5BD7C"/>
<path d="M73.5444 211.895H61.2911V225.14H73.5444V211.895Z" fill="#E5BD7C"/>
<path d="M73.5444 198.65H61.2911V211.895H73.5444V198.65Z" fill="#495059"/>
<path d="M73.5444 185.406H61.2911V198.65H73.5444V185.406Z" fill="#FFDC9C"/>
<path d="M73.5444 172.161H61.2911V185.406H73.5444V172.161Z" fill="#FFDC9C"/>
<path d="M73.5444 158.923H61.2911V172.161H73.5444V158.923Z" fill="#FFDC9C"/>
<path d="M73.5444 145.678H61.2911V158.923H73.5444V145.678Z" fill="#FFDC9C"/>
<path d="M73.5444 132.434H61.2911V145.678H73.5444V132.434Z" fill="#FFDC9C"/>
<path d="M73.5444 119.189H61.2911V132.434H73.5444V119.189Z" fill="#FFDC9C"/>
<path d="M73.5444 105.951H61.2911V119.189H73.5444V105.951Z" fill="#E5BD7C"/>
<path d="M73.5444 92.7062H61.2911V105.951H73.5444V92.7062Z" fill="#E5BD7C"/>
<path d="M73.5444 79.4615H61.2911V92.7062H73.5444V79.4615Z" fill="#E5BD7C"/>
<path d="M73.5444 66.2168H61.2911V79.4615H73.5444V66.2168Z" fill="#E5BD7C"/>
<path d="M73.5444 52.9721H61.2911V66.2168H73.5444V52.9721Z" fill="#FF91AB"/>
<path d="M73.5444 39.7341H61.2911V52.9721H73.5444V39.7341Z" fill="#EDA751"/>
<path d="M73.5444 26.4894H61.2911V39.7341H73.5444V26.4894Z" fill="#EDA751"/>
<path d="M73.5444 13.2447H61.2911V26.4894H73.5444V13.2447Z" fill="#EDA751"/>
<path d="M73.5444 0H61.2911V13.2447H73.5444V0Z" fill="#EDA751"/>
<path d="M61.2911 410.545H49.0316V423.783H61.2911V410.545Z" fill="#EDA751"/>
<path d="M61.2911 397.301H49.0316V410.545H61.2911V397.301Z" fill="#EDA751"/>
<path d="M61.2911 384.056H49.0316V397.301H61.2911V384.056Z" fill="#EDA751"/>
<path d="M61.2911 251.622H49.0316V264.867H61.2911V251.622Z" fill="#E5BD7C"/>
<path d="M61.2911 238.378H49.0316V251.622H61.2911V238.378Z" fill="#E5BD7C"/>
<path d="M61.2911 225.14H49.0316V238.378H61.2911V225.14Z" fill="#E5BD7C"/>
<path d="M61.2911 211.895H49.0316V225.14H61.2911V211.895Z" fill="#E5BD7C"/>
<path d="M61.2911 198.65H49.0316V211.895H61.2911V198.65Z" fill="#E5BD7C"/>
<path d="M61.2911 185.406H49.0316V198.65H61.2911V185.406Z" fill="#E5BD7C"/>
<path d="M61.2911 172.161H49.0316V185.406H61.2911V172.161Z" fill="#E5BD7C"/>
<path d="M61.2911 158.923H49.0316V172.161H61.2911V158.923Z" fill="#E5BD7C"/>
<path d="M61.2911 145.678H49.0316V158.923H61.2911V145.678Z" fill="#E5BD7C"/>
<path d="M61.2911 132.434H49.0316V145.678H61.2911V132.434Z" fill="#E5BD7C"/>
<path d="M61.2911 119.189H49.0316V132.434H61.2911V119.189Z" fill="#E5BD7C"/>
<path d="M61.2911 105.951H49.0316V119.189H61.2911V105.951Z" fill="#E5BD7C"/>
<path d="M61.2911 92.7062H49.0316V105.951H61.2911V92.7062Z" fill="#E5BD7C"/>
<path d="M61.2911 79.4615H49.0316V92.7062H61.2911V79.4615Z" fill="#E5BD7C"/>
<path d="M61.2911 66.2168H49.0316V79.4615H61.2911V66.2168Z" fill="#FF91AB"/>
<path d="M61.2911 52.9721H49.0316V66.2168H61.2911V52.9721Z" fill="#FF91AB"/>
<path d="M61.2911 39.7341H49.0316V52.9721H61.2911V39.7341Z" fill="#EDA751"/>
<path d="M61.2911 26.4894H49.0316V39.7341H61.2911V26.4894Z" fill="#EDA751"/>
<path d="M61.2911 13.2447H49.0316V26.4894H61.2911V13.2447Z" fill="#EDA751"/>
<path d="M61.2911 0H49.0316V13.2447H61.2911V0Z" fill="#EDA751"/>
<path d="M49.0317 238.378H36.7722V251.622H49.0317V238.378Z" fill="#E5BD7C"/>
<path d="M49.0317 225.14H36.7722V238.378H49.0317V225.14Z" fill="#E5BD7C"/>
<path d="M49.0317 211.895H36.7722V225.14H49.0317V211.895Z" fill="#E5BD7C"/>
<path d="M49.0317 198.65H36.7722V211.895H49.0317V198.65Z" fill="#E5BD7C"/>
<path d="M49.0317 185.406H36.7722V198.65H49.0317V185.406Z" fill="#E5BD7C"/>
<path d="M49.0317 172.161H36.7722V185.406H49.0317V172.161Z" fill="#E5BD7C"/>
<path d="M49.0317 158.923H36.7722V172.161H49.0317V158.923Z" fill="#E5BD7C"/>
<path d="M49.0317 145.678H36.7722V158.923H49.0317V145.678Z" fill="#E5BD7C"/>
<path d="M49.0317 132.434H36.7722V145.678H49.0317V132.434Z" fill="#E5BD7C"/>
<path d="M49.0317 119.189H36.7722V132.434H49.0317V119.189Z" fill="#E5BD7C"/>
<path d="M49.0317 105.951H36.7722V119.189H49.0317V105.951Z" fill="#E5BD7C"/>
<path d="M49.0317 92.7062H36.7722V105.951H49.0317V92.7062Z" fill="#E5BD7C"/>
<path d="M49.0317 79.4615H36.7722V92.7062H49.0317V79.4615Z" fill="#FF91AB"/>
<path d="M49.0317 66.2168H36.7722V79.4615H49.0317V66.2168Z" fill="#FF91AB"/>
<path d="M49.0317 52.9721H36.7722V66.2168H49.0317V52.9721Z" fill="#FF91AB"/>
<path d="M49.0317 39.7341H36.7722V52.9721H49.0317V39.7341Z" fill="#FF91AB"/>
<path d="M49.0317 26.4894H36.7722V39.7341H49.0317V26.4894Z" fill="#EDA751"/>
<path d="M49.0317 13.2447H36.7722V26.4894H49.0317V13.2447Z" fill="#EDA751"/>
<path d="M49.0317 0H36.7722V13.2447H49.0317V0Z" fill="#EDA751"/>
<path d="M36.7722 225.14H24.5127V238.378H36.7722V225.14Z" fill="#E5BD7C"/>
<path d="M36.7722 211.895H24.5127V225.14H36.7722V211.895Z" fill="#E5BD7C"/>
<path d="M36.7722 198.65H24.5127V211.895H36.7722V198.65Z" fill="#E5BD7C"/>
<path d="M36.7722 185.406H24.5127V198.65H36.7722V185.406Z" fill="#E5BD7C"/>
<path d="M36.7722 172.161H24.5127V185.406H36.7722V172.161Z" fill="#E5BD7C"/>
<path d="M36.7722 158.923H24.5127V172.161H36.7722V158.923Z" fill="#E5BD7C"/>
<path d="M36.7722 145.678H24.5127V158.923H36.7722V145.678Z" fill="#E5BD7C"/>
<path d="M36.7722 132.434H24.5127V145.678H36.7722V132.434Z" fill="#E5BD7C"/>
<path d="M36.7722 119.189H24.5127V132.434H36.7722V119.189Z" fill="#E5BD7C"/>
<path d="M36.7722 105.951H24.5127V119.189H36.7722V105.951Z" fill="#E5BD7C"/>
<path d="M36.7722 92.7062H24.5127V105.951H36.7722V92.7062Z" fill="#FF91AB"/>
<path d="M36.7722 79.4615H24.5127V92.7062H36.7722V79.4615Z" fill="#FF91AB"/>
<path d="M36.7722 66.2168H24.5127V79.4615H36.7722V66.2168Z" fill="#FF91AB"/>
<path d="M36.7722 52.9721H24.5127V66.2168H36.7722V52.9721Z" fill="#FF91AB"/>
<path d="M36.7722 39.7341H24.5127V52.9721H36.7722V39.7341Z" fill="#FF91AB"/>
<path d="M36.7722 26.4894H24.5127V39.7341H36.7722V26.4894Z" fill="#EDA751"/>
<path d="M36.7722 13.2447H24.5127V26.4894H36.7722V13.2447Z" fill="#EDA751"/>
<path d="M36.7722 0H24.5127V13.2447H36.7722V0Z" fill="#EDA751"/>
<path d="M24.5126 198.65H12.2532V211.895H24.5126V198.65Z" fill="#E5BD7C"/>
<path d="M24.5126 185.406H12.2532V198.65H24.5126V185.406Z" fill="#E5BD7C"/>
<path d="M24.5126 172.161H12.2532V185.406H24.5126V172.161Z" fill="#E5BD7C"/>
<path d="M24.5126 158.923H12.2532V172.161H24.5126V158.923Z" fill="#E5BD7C"/>
<path d="M24.5126 145.678H12.2532V158.923H24.5126V145.678Z" fill="#E5BD7C"/>
<path d="M24.5126 92.7062H12.2532V105.951H24.5126V92.7062Z" fill="#FF91AB"/>
<path d="M24.5126 79.4615H12.2532V92.7062H24.5126V79.4615Z" fill="#FF91AB"/>
<path d="M24.5126 66.2168H12.2532V79.4615H24.5126V66.2168Z" fill="#FF91AB"/>
<path d="M24.5126 52.9721H12.2532V66.2168H24.5126V52.9721Z" fill="#FF91AB"/>
<path d="M24.5126 39.7341H12.2532V52.9721H24.5126V39.7341Z" fill="#FF91AB"/>
<path d="M24.5126 26.4894H12.2532V39.7341H24.5126V26.4894Z" fill="#FF91AB"/>
<path d="M24.5126 13.2447H12.2532V26.4894H24.5126V13.2447Z" fill="#EDA751"/>
<path d="M24.5126 0H12.2532V13.2447H24.5126V0Z" fill="#EDA751"/>
<path d="M12.2532 79.4615H0V92.7062H12.2532V79.4615Z" fill="#FF91AB"/>
<path d="M12.2532 66.2168H0V79.4615H12.2532V66.2168Z" fill="#FF91AB"/>
<path d="M12.2532 52.9721H0V66.2168H12.2532V52.9721Z" fill="#FF91AB"/>
<path d="M12.2532 39.7341H0V52.9721H12.2532V39.7341Z" fill="#FF91AB"/>
</svg>
