<svg width="348" height="362" viewBox="0 0 348 362" fill="none" xmlns="http://www.w3.org/2000/svg">
<g clip-path="url(#clip0_48_829)" filter="url(#filter0_i_48_829)">
<path d="M348 310.288H336.773V323.218H348V310.288Z" fill="#BBC0C4"/>
<path d="M348 297.358H336.773V310.288H348V297.358Z" fill="#BBC0C4"/>
<path d="M348 284.428H336.773V297.358H348V284.428Z" fill="#BBC0C4"/>
<path d="M348 271.505H336.773V284.428H348V271.505Z" fill="#DEE2E5"/>
<path d="M348 258.575H336.773V271.504H348V258.575Z" fill="#DEE2E5"/>
<path d="M348 245.646H336.773V258.575H348V245.646Z" fill="#DEE2E5"/>
<path d="M348 232.716H336.773V245.646H348V232.716Z" fill="#DEE2E5"/>
<path d="M348 219.786H336.773V232.716H348V219.786Z" fill="#DEE2E5"/>
<path d="M348 206.857H336.773V219.786H348V206.857Z" fill="#DEE2E5"/>
<path d="M348 193.933H336.773V206.856H348V193.933Z" fill="#DEE2E5"/>
<path d="M348 181.003H336.773V193.933H348V181.003Z" fill="#DEE2E5"/>
<path d="M348 168.073H336.773V181.003H348V168.073Z" fill="#DEE2E5"/>
<path d="M348 155.144H336.773V168.073H348V155.144Z" fill="#DEE2E5"/>
<path d="M336.773 310.288H325.546V323.218H336.773V310.288Z" fill="#BBC0C4"/>
<path d="M336.773 297.358H325.546V310.288H336.773V297.358Z" fill="#BBC0C4"/>
<path d="M336.773 284.428H325.546V297.358H336.773V284.428Z" fill="#BBC0C4"/>
<path d="M336.773 271.505H325.546V284.428H336.773V271.505Z" fill="#DEE2E5"/>
<path d="M336.773 258.575H325.546V271.504H336.773V258.575Z" fill="#DEE2E5"/>
<path d="M336.773 245.646H325.546V258.575H336.773V245.646Z" fill="#DEE2E5"/>
<path d="M336.773 232.716H325.546V245.646H336.773V232.716Z" fill="#DEE2E5"/>
<path d="M336.773 219.786H325.546V232.716H336.773V219.786Z" fill="#DEE2E5"/>
<path d="M336.773 206.857H325.546V219.786H336.773V206.857Z" fill="#DEE2E5"/>
<path d="M336.773 193.933H325.546V206.856H336.773V193.933Z" fill="#DEE2E5"/>
<path d="M336.773 181.003H325.546V193.933H336.773V181.003Z" fill="#DEE2E5"/>
<path d="M336.773 168.073H325.546V181.003H336.773V168.073Z" fill="#DEE2E5"/>
<path d="M336.773 155.144H325.546V168.073H336.773V155.144Z" fill="#DEE2E5"/>
<path d="M325.547 310.288H314.32V323.218H325.547V310.288Z" fill="#BBC0C4"/>
<path d="M325.547 297.358H314.32V310.288H325.547V297.358Z" fill="#BBC0C4"/>
<path d="M325.547 284.428H314.32V297.358H325.547V284.428Z" fill="#BBC0C4"/>
<path d="M325.547 271.505H314.32V284.428H325.547V271.505Z" fill="#DEE2E5"/>
<path d="M325.547 258.575H314.32V271.504H325.547V258.575Z" fill="#DEE2E5"/>
<path d="M325.546 245.646H314.32V258.575H325.546V245.646Z" fill="#DEE2E5"/>
<path d="M325.546 232.716H314.32V245.646H325.546V232.716Z" fill="#DEE2E5"/>
<path d="M325.546 219.786H314.32V232.716H325.546V219.786Z" fill="#DEE2E5"/>
<path d="M325.547 206.857H314.32V219.786H325.547V206.857Z" fill="#DEE2E5"/>
<path d="M325.546 193.933H314.32V206.856H325.546V193.933Z" fill="#DEE2E5"/>
<path d="M325.547 181.003H314.32V193.933H325.547V181.003Z" fill="#DEE2E5"/>
<path d="M325.546 168.073H314.32V181.003H325.546V168.073Z" fill="#DEE2E5"/>
<path d="M325.546 155.144H314.32V168.073H325.546V155.144Z" fill="#DEE2E5"/>
<path d="M314.32 310.288H303.099V323.218H314.32V310.288Z" fill="#BBC0C4"/>
<path d="M314.32 297.358H303.099V310.288H314.32V297.358Z" fill="#BBC0C4"/>
<path d="M314.32 284.428H303.099V297.358H314.32V284.428Z" fill="#BBC0C4"/>
<path d="M314.32 271.505H303.099V284.428H314.32V271.505Z" fill="#DEE2E5"/>
<path d="M314.32 258.575H303.099V271.504H314.32V258.575Z" fill="#DEE2E5"/>
<path d="M314.32 245.646H303.099V258.575H314.32V245.646Z" fill="#DEE2E5"/>
<path d="M314.32 232.716H303.099V245.646H314.32V232.716Z" fill="#DEE2E5"/>
<path d="M314.32 219.786H303.099V232.716H314.32V219.786Z" fill="#DEE2E5"/>
<path d="M314.32 206.857H303.099V219.786H314.32V206.857Z" fill="#DEE2E5"/>
<path d="M314.32 193.933H303.099V206.856H314.32V193.933Z" fill="#DEE2E5"/>
<path d="M314.32 181.003H303.099V193.933H314.32V181.003Z" fill="#DEE2E5"/>
<path d="M314.32 168.073H303.099V181.003H314.32V168.073Z" fill="#DEE2E5"/>
<path d="M314.32 155.144H303.099V168.073H314.32V155.144Z" fill="#DEE2E5"/>
<path d="M303.099 310.288H291.872V323.218H303.099V310.288Z" fill="#BBC0C4"/>
<path d="M303.099 297.358H291.872V310.288H303.099V297.358Z" fill="#BBC0C4"/>
<path d="M303.099 284.428H291.872V297.358H303.099V284.428Z" fill="#BBC0C4"/>
<path d="M303.099 271.505H291.872V284.428H303.099V271.505Z" fill="#DEE2E5"/>
<path d="M303.099 258.575H291.872V271.504H303.099V258.575Z" fill="#DEE2E5"/>
<path d="M303.099 245.646H291.872V258.575H303.099V245.646Z" fill="#DEE2E5"/>
<path d="M303.099 232.716H291.872V245.646H303.099V232.716Z" fill="#DEE2E5"/>
<path d="M303.099 219.786H291.872V232.716H303.099V219.786Z" fill="#DEE2E5"/>
<path d="M303.099 206.857H291.872V219.786H303.099V206.857Z" fill="#DEE2E5"/>
<path d="M303.099 193.933H291.872V206.856H303.099V193.933Z" fill="#DEE2E5"/>
<path d="M303.099 181.003H291.872V193.933H303.099V181.003Z" fill="#DEE2E5"/>
<path d="M303.099 168.073H291.872V181.003H303.099V168.073Z" fill="#DEE2E5"/>
<path d="M303.099 155.144H291.872V168.073H303.099V155.144Z" fill="#DEE2E5"/>
<path d="M291.872 310.288H280.645V323.218H291.872V310.288Z" fill="#BBC0C4"/>
<path d="M291.872 297.358H280.645V310.288H291.872V297.358Z" fill="#BBC0C4"/>
<path d="M291.872 284.428H280.645V297.358H291.872V284.428Z" fill="#BBC0C4"/>
<path d="M291.872 271.505H280.645V284.428H291.872V271.505Z" fill="#DEE2E5"/>
<path d="M291.872 258.575H280.645V271.504H291.872V258.575Z" fill="#DEE2E5"/>
<path d="M291.872 245.646H280.645V258.575H291.872V245.646Z" fill="#DEE2E5"/>
<path d="M291.872 232.716H280.645V245.646H291.872V232.716Z" fill="#DEE2E5"/>
<path d="M291.872 219.786H280.645V232.716H291.872V219.786Z" fill="#DEE2E5"/>
<path d="M291.872 206.857H280.645V219.786H291.872V206.857Z" fill="#DEE2E5"/>
<path d="M291.872 193.933H280.645V206.856H291.872V193.933Z" fill="#DEE2E5"/>
<path d="M291.872 181.003H280.645V193.933H291.872V181.003Z" fill="#DEE2E5"/>
<path d="M291.872 168.073H280.645V181.003H291.872V168.073Z" fill="#DEE2E5"/>
<path d="M291.872 155.144H280.645V168.073H291.872V155.144Z" fill="#DEE2E5"/>
<path d="M291.872 64.6421H280.645V77.5718H291.872V64.6421Z" fill="#F4E1E1"/>
<path d="M291.872 51.719H280.645V64.6421H291.872V51.719Z" fill="#F4E1E1"/>
<path d="M291.872 38.7893H280.645V51.7191H291.872V38.7893Z" fill="#F4E1E1"/>
<path d="M291.872 25.8596H280.645V38.7894H291.872V25.8596Z" fill="#F4E1E1"/>
<path d="M291.872 12.9299H280.645V25.8597H291.872V12.9299Z" fill="#AA2639"/>
<path d="M280.645 336.147H269.419V349.077H280.645V336.147Z" fill="#842436"/>
<path d="M280.645 323.218H269.419V336.147H280.645V323.218Z" fill="#842436"/>
<path d="M280.645 310.288H269.419V323.218H280.645V310.288Z" fill="#BBC0C4"/>
<path d="M280.645 297.358H269.419V310.288H280.645V297.358Z" fill="#BBC0C4"/>
<path d="M280.645 284.428H269.419V297.358H280.645V284.428Z" fill="#BBC0C4"/>
<path d="M280.645 271.505H269.419V284.428H280.645V271.505Z" fill="#DEE2E5"/>
<path d="M280.645 258.575H269.419V271.504H280.645V258.575Z" fill="#DEE2E5"/>
<path d="M280.645 245.646H269.419V258.575H280.645V245.646Z" fill="#DEE2E5"/>
<path d="M280.645 232.716H269.419V245.646H280.645V232.716Z" fill="#DEE2E5"/>
<path d="M280.645 219.786H269.419V232.716H280.645V219.786Z" fill="#DEE2E5"/>
<path d="M280.645 206.857H269.419V219.786H280.645V206.857Z" fill="#EF5D14"/>
<path d="M280.645 193.933H269.419V206.856H280.645V193.933Z" fill="#EF5D14"/>
<path d="M280.645 181.003H269.419V193.933H280.645V181.003Z" fill="#DEE2E5"/>
<path d="M280.645 168.073H269.419V181.003H280.645V168.073Z" fill="#DEE2E5"/>
<path d="M280.645 155.144H269.419V168.073H280.645V155.144Z" fill="#DEE2E5"/>
<path d="M280.645 142.214H269.419V155.144H280.645V142.214Z" fill="#E2505E"/>
<path d="M280.645 129.291H269.419V142.214H280.645V129.291Z" fill="#E2505E"/>
<path d="M280.645 116.361H269.419V129.291H280.645V116.361Z" fill="#E2505E"/>
<path d="M280.645 103.431H269.419V116.361H280.645V103.431Z" fill="#E2505E"/>
<path d="M280.645 90.5017H269.419V103.431H280.645V90.5017Z" fill="#F4E1E1"/>
<path d="M280.645 77.5718H269.419V90.5015H280.645V77.5718Z" fill="#F4E1E1"/>
<path d="M280.645 64.6421H269.419V77.5718H280.645V64.6421Z" fill="#F4E1E1"/>
<path d="M280.645 51.719H269.419V64.6421H280.645V51.719Z" fill="#F4E1E1"/>
<path d="M280.645 38.7893H269.419V51.7191H280.645V38.7893Z" fill="#F4E1E1"/>
<path d="M280.645 25.8596H269.419V38.7894H280.645V25.8596Z" fill="#F4E1E1"/>
<path d="M280.645 12.9299H269.419V25.8597H280.645V12.9299Z" fill="#AA2639"/>
<path d="M280.645 0H269.419V12.9298H280.645V0Z" fill="#AA2639"/>
<path d="M269.419 349.077H258.192V362H269.419V349.077Z" fill="#842436"/>
<path d="M269.419 336.147H258.192V349.077H269.419V336.147Z" fill="#842436"/>
<path d="M269.419 323.218H258.192V336.147H269.419V323.218Z" fill="#842436"/>
<path d="M269.419 310.288H258.192V323.218H269.419V310.288Z" fill="#BBC0C4"/>
<path d="M269.419 297.358H258.192V310.288H269.419V297.358Z" fill="#BBC0C4"/>
<path d="M269.419 284.428H258.192V297.358H269.419V284.428Z" fill="#BBC0C4"/>
<path d="M269.419 271.505H258.192V284.428H269.419V271.505Z" fill="#DEE2E5"/>
<path d="M269.419 258.575H258.192V271.504H269.419V258.575Z" fill="#DEE2E5"/>
<path d="M269.419 245.646H258.192V258.575H269.419V245.646Z" fill="#DEE2E5"/>
<path d="M269.419 232.716H258.192V245.646H269.419V232.716Z" fill="#DEE2E5"/>
<path d="M269.419 219.786H258.192V232.716H269.419V219.786Z" fill="#EF5D14"/>
<path d="M269.419 206.857H258.192V219.786H269.419V206.857Z" fill="#EF5D14"/>
<path d="M269.419 193.933H258.192V206.856H269.419V193.933Z" fill="#EF5D14"/>
<path d="M269.419 181.003H258.192V193.933H269.419V181.003Z" fill="#FFAA00"/>
<path d="M269.419 168.073H258.192V181.003H269.419V168.073Z" fill="#DEE2E5"/>
<path d="M269.419 155.144H258.192V168.073H269.419V155.144Z" fill="#DEE2E5"/>
<path d="M269.419 142.214H258.192V155.144H269.419V142.214Z" fill="#E2505E"/>
<path d="M269.419 129.291H258.192V142.214H269.419V129.291Z" fill="#23282D"/>
<path d="M269.419 116.361H258.192V129.291H269.419V116.361Z" fill="#E2505E"/>
<path d="M269.419 103.431H258.192V116.361H269.419V103.431Z" fill="#E2505E"/>
<path d="M269.419 90.5017H258.192V103.431H269.419V90.5017Z" fill="#E2505E"/>
<path d="M269.419 77.5718H258.192V90.5015H269.419V77.5718Z" fill="#AA2639"/>
<path d="M269.419 64.6421H258.192V77.5718H269.419V64.6421Z" fill="#AA2639"/>
<path d="M269.419 51.719H258.192V64.6421H269.419V51.719Z" fill="#AA2639"/>
<path d="M269.419 38.7893H258.192V51.7191H269.419V38.7893Z" fill="#AA2639"/>
<path d="M269.419 25.8596H258.192V38.7894H269.419V25.8596Z" fill="#AA2639"/>
<path d="M269.419 12.9299H258.192V25.8597H269.419V12.9299Z" fill="#AA2639"/>
<path d="M258.192 349.077H246.965V362H258.192V349.077Z" fill="#842436"/>
<path d="M258.192 336.147H246.965V349.077H258.192V336.147Z" fill="#842436"/>
<path d="M258.192 323.218H246.965V336.147H258.192V323.218Z" fill="#842436"/>
<path d="M258.192 310.288H246.965V323.218H258.192V310.288Z" fill="#BBC0C4"/>
<path d="M258.192 297.358H246.965V310.288H258.192V297.358Z" fill="#BBC0C4"/>
<path d="M258.192 284.428H246.965V297.358H258.192V284.428Z" fill="#BBC0C4"/>
<path d="M258.192 271.505H246.965V284.428H258.192V271.505Z" fill="#DEE2E5"/>
<path d="M258.192 258.575H246.965V271.504H258.192V258.575Z" fill="#DEE2E5"/>
<path d="M258.192 245.646H246.965V258.575H258.192V245.646Z" fill="#DEE2E5"/>
<path d="M258.192 232.716H246.965V245.646H258.192V232.716Z" fill="#DEE2E5"/>
<path d="M258.192 219.786H246.965V232.716H258.192V219.786Z" fill="#EF5D14"/>
<path d="M258.192 206.857H246.965V219.786H258.192V206.857Z" fill="#EF5D14"/>
<path d="M258.192 193.933H246.965V206.856H258.192V193.933Z" fill="#E1F4FF"/>
<path d="M258.192 181.003H246.965V193.933H258.192V181.003Z" fill="#FFAA00"/>
<path d="M258.192 168.073H246.965V181.003H258.192V168.073Z" fill="#DEE2E5"/>
<path d="M258.192 155.144H246.965V168.073H258.192V155.144Z" fill="#DEE2E5"/>
<path d="M258.192 142.214H246.965V155.144H258.192V142.214Z" fill="#23282D"/>
<path d="M258.192 129.291H246.965V142.214H258.192V129.291Z" fill="#E2505E"/>
<path d="M258.192 116.361H246.965V129.291H258.192V116.361Z" fill="#23282D"/>
<path d="M258.192 103.431H246.965V116.361H258.192V103.431Z" fill="#E2505E"/>
<path d="M258.192 90.5017H246.965V103.431H258.192V90.5017Z" fill="#E2505E"/>
<path d="M258.192 77.5718H246.965V90.5015H258.192V77.5718Z" fill="#E2505E"/>
<path d="M258.192 64.6421H246.965V77.5718H258.192V64.6421Z" fill="#E2505E"/>
<path d="M258.192 51.719H246.965V64.6421H258.192V51.719Z" fill="#AA2639"/>
<path d="M258.192 38.7893H246.965V51.7191H258.192V38.7893Z" fill="#AA2639"/>
<path d="M258.192 25.8596H246.965V38.7894H258.192V25.8596Z" fill="#AA2639"/>
<path d="M258.192 12.9299H246.965V25.8597H258.192V12.9299Z" fill="#AA2639"/>
<path d="M246.965 349.077H235.744V362H246.965V349.077Z" fill="#842436"/>
<path d="M246.965 336.147H235.744V349.077H246.965V336.147Z" fill="#842436"/>
<path d="M246.965 323.218H235.744V336.147H246.965V323.218Z" fill="#842436"/>
<path d="M246.965 310.288H235.744V323.218H246.965V310.288Z" fill="#BBC0C4"/>
<path d="M246.965 297.358H235.744V310.288H246.965V297.358Z" fill="#BBC0C4"/>
<path d="M246.965 284.428H235.744V297.358H246.965V284.428Z" fill="#BBC0C4"/>
<path d="M246.965 271.505H235.744V284.428H246.965V271.505Z" fill="#DEE2E5"/>
<path d="M246.965 258.575H235.744V271.504H246.965V258.575Z" fill="#DEE2E5"/>
<path d="M246.965 245.646H235.744V258.575H246.965V245.646Z" fill="#DEE2E5"/>
<path d="M246.965 232.716H235.744V245.646H246.965V232.716Z" fill="#DEE2E5"/>
<path d="M246.965 219.786H235.744V232.716H246.965V219.786Z" fill="#DEE2E5"/>
<path d="M246.965 206.857H235.744V219.786H246.965V206.857Z" fill="#FFAA00"/>
<path d="M246.965 193.933H235.744V206.856H246.965V193.933Z" fill="#FFAA00"/>
<path d="M246.965 181.003H235.744V193.933H246.965V181.003Z" fill="#DEE2E5"/>
<path d="M246.965 168.073H235.744V181.003H246.965V168.073Z" fill="#DEE2E5"/>
<path d="M246.965 155.144H235.744V168.073H246.965V155.144Z" fill="#DEE2E5"/>
<path d="M246.965 142.214H235.744V155.144H246.965V142.214Z" fill="#23282D"/>
<path d="M246.965 129.291H235.744V142.214H246.965V129.291Z" fill="#23282D"/>
<path d="M246.965 116.361H235.744V129.291H246.965V116.361Z" fill="#23282D"/>
<path d="M246.965 103.431H235.744V116.361H246.965V103.431Z" fill="#E2505E"/>
<path d="M246.965 90.5017H235.744V103.431H246.965V90.5017Z" fill="#E2505E"/>
<path d="M246.965 77.5718H235.744V90.5015H246.965V77.5718Z" fill="#E2505E"/>
<path d="M246.965 64.6421H235.744V77.5718H246.965V64.6421Z" fill="#E2505E"/>
<path d="M246.965 51.719H235.744V64.6421H246.965V51.719Z" fill="#E2505E"/>
<path d="M246.965 38.7893H235.744V51.7191H246.965V38.7893Z" fill="#AA2639"/>
<path d="M246.965 25.8596H235.744V38.7894H246.965V25.8596Z" fill="#AA2639"/>
<path d="M246.965 12.9299H235.744V25.8597H246.965V12.9299Z" fill="#AA2639"/>
<path d="M235.744 349.077H224.517V362H235.744V349.077Z" fill="#842436"/>
<path d="M235.744 336.147H224.517V349.077H235.744V336.147Z" fill="#842436"/>
<path d="M235.744 323.218H224.517V336.147H235.744V323.218Z" fill="#842436"/>
<path d="M235.744 310.288H224.517V323.218H235.744V310.288Z" fill="#BBC0C4"/>
<path d="M235.744 297.358H224.517V310.288H235.744V297.358Z" fill="#BBC0C4"/>
<path d="M235.744 284.428H224.517V297.358H235.744V284.428Z" fill="#BBC0C4"/>
<path d="M235.744 271.505H224.517V284.428H235.744V271.505Z" fill="#DEE2E5"/>
<path d="M235.744 258.575H224.517V271.504H235.744V258.575Z" fill="#DEE2E5"/>
<path d="M235.744 245.646H224.517V258.575H235.744V245.646Z" fill="#DEE2E5"/>
<path d="M235.744 232.716H224.517V245.646H235.744V232.716Z" fill="#DEE2E5"/>
<path d="M235.744 219.786H224.517V232.716H235.744V219.786Z" fill="#DEE2E5"/>
<path d="M235.744 206.857H224.517V219.786H235.744V206.857Z" fill="#DEE2E5"/>
<path d="M235.744 193.933H224.517V206.856H235.744V193.933Z" fill="#DEE2E5"/>
<path d="M235.744 181.003H224.517V193.933H235.744V181.003Z" fill="#DEE2E5"/>
<path d="M235.744 168.073H224.517V181.003H235.744V168.073Z" fill="#DEE2E5"/>
<path d="M235.744 155.144H224.517V168.073H235.744V155.144Z" fill="#DEE2E5"/>
<path d="M235.744 142.214H224.517V155.144H235.744V142.214Z" fill="#23282D"/>
<path d="M235.744 129.291H224.517V142.214H235.744V129.291Z" fill="#F4E1E1"/>
<path d="M235.744 116.361H224.517V129.291H235.744V116.361Z" fill="#23282D"/>
<path d="M235.744 103.431H224.517V116.361H235.744V103.431Z" fill="#E2505E"/>
<path d="M235.744 90.5017H224.517V103.431H235.744V90.5017Z" fill="#E2505E"/>
<path d="M235.744 77.5718H224.517V90.5015H235.744V77.5718Z" fill="#23282D"/>
<path d="M235.744 64.6421H224.517V77.5718H235.744V64.6421Z" fill="#E2505E"/>
<path d="M235.744 51.719H224.517V64.6421H235.744V51.719Z" fill="#E2505E"/>
<path d="M235.744 38.7893H224.517V51.7191H235.744V38.7893Z" fill="#AA2639"/>
<path d="M235.744 25.8596H224.517V38.7894H235.744V25.8596Z" fill="#AA2639"/>
<path d="M224.517 349.077H213.291V362H224.517V349.077Z" fill="#842436"/>
<path d="M224.517 336.147H213.291V349.077H224.517V336.147Z" fill="#AA2639"/>
<path d="M224.517 323.218H213.291V336.147H224.517V323.218Z" fill="#AA2639"/>
<path d="M224.517 310.288H213.291V323.218H224.517V310.288Z" fill="#BBC0C4"/>
<path d="M224.517 297.358H213.291V310.288H224.517V297.358Z" fill="#BBC0C4"/>
<path d="M224.517 284.428H213.291V297.358H224.517V284.428Z" fill="#BBC0C4"/>
<path d="M224.517 271.505H213.291V284.428H224.517V271.505Z" fill="#DEE2E5"/>
<path d="M224.517 258.575H213.291V271.504H224.517V258.575Z" fill="#DEE2E5"/>
<path d="M224.517 245.646H213.291V258.575H224.517V245.646Z" fill="#DEE2E5"/>
<path d="M224.517 232.716H213.291V245.646H224.517V232.716Z" fill="#DEE2E5"/>
<path d="M224.517 219.786H213.291V232.716H224.517V219.786Z" fill="#DEE2E5"/>
<path d="M224.517 206.857H213.291V219.786H224.517V206.857Z" fill="#DEE2E5"/>
<path d="M224.517 193.933H213.291V206.856H224.517V193.933Z" fill="#DEE2E5"/>
<path d="M224.517 181.003H213.291V193.933H224.517V181.003Z" fill="#DEE2E5"/>
<path d="M224.517 168.073H213.291V181.003H224.517V168.073Z" fill="#DEE2E5"/>
<path d="M224.517 155.144H213.291V168.073H224.517V155.144Z" fill="#DEE2E5"/>
<path d="M224.517 142.214H213.291V155.144H224.517V142.214Z" fill="#23282D"/>
<path d="M224.517 129.291H213.291V142.214H224.517V129.291Z" fill="#23282D"/>
<path d="M224.517 116.361H213.291V129.291H224.517V116.361Z" fill="#23282D"/>
<path d="M224.517 103.431H213.291V116.361H224.517V103.431Z" fill="#E2505E"/>
<path d="M224.517 90.5017H213.291V103.431H224.517V90.5017Z" fill="#E2505E"/>
<path d="M224.517 77.5718H213.291V90.5015H224.517V77.5718Z" fill="#E2505E"/>
<path d="M224.517 64.6421H213.291V77.5718H224.517V64.6421Z" fill="#23282D"/>
<path d="M224.517 51.719H213.291V64.6421H224.517V51.719Z" fill="#E2505E"/>
<path d="M224.517 38.7893H213.291V51.7191H224.517V38.7893Z" fill="#E2505E"/>
<path d="M224.517 25.8596H213.291V38.7894H224.517V25.8596Z" fill="#AA2639"/>
<path d="M213.291 349.077H202.064V362H213.291V349.077Z" fill="#AA2639"/>
<path d="M213.291 336.147H202.064V349.077H213.291V336.147Z" fill="#AA2639"/>
<path d="M213.291 323.218H202.064V336.147H213.291V323.218Z" fill="#AA2639"/>
<path d="M213.291 310.288H202.064V323.218H213.291V310.288Z" fill="#BBC0C4"/>
<path d="M213.291 297.358H202.064V310.288H213.291V297.358Z" fill="#BBC0C4"/>
<path d="M213.291 284.428H202.064V297.358H213.291V284.428Z" fill="#BBC0C4"/>
<path d="M213.291 271.505H202.064V284.428H213.291V271.505Z" fill="#DEE2E5"/>
<path d="M213.291 258.575H202.064V271.504H213.291V258.575Z" fill="#DEE2E5"/>
<path d="M213.291 245.646H202.064V258.575H213.291V245.646Z" fill="#DEE2E5"/>
<path d="M213.291 232.716H202.064V245.646H213.291V232.716Z" fill="#DEE2E5"/>
<path d="M213.291 219.786H202.064V232.716H213.291V219.786Z" fill="#DEE2E5"/>
<path d="M213.291 206.857H202.064V219.786H213.291V206.857Z" fill="#DEE2E5"/>
<path d="M213.291 193.933H202.064V206.856H213.291V193.933Z" fill="#DEE2E5"/>
<path d="M213.291 181.003H202.064V193.933H213.291V181.003Z" fill="#DEE2E5"/>
<path d="M213.291 168.073H202.064V181.003H213.291V168.073Z" fill="#DEE2E5"/>
<path d="M213.291 155.144H202.064V168.073H213.291V155.144Z" fill="#DEE2E5"/>
<path d="M213.291 142.214H202.064V155.144H213.291V142.214Z" fill="#23282D"/>
<path d="M213.291 129.291H202.064V142.214H213.291V129.291Z" fill="#23282D"/>
<path d="M213.291 116.361H202.064V129.291H213.291V116.361Z" fill="#23282D"/>
<path d="M213.291 103.431H202.064V116.361H213.291V103.431Z" fill="#E2505E"/>
<path d="M213.291 90.5017H202.064V103.431H213.291V90.5017Z" fill="#E2505E"/>
<path d="M213.291 77.5718H202.064V90.5015H213.291V77.5718Z" fill="#E2505E"/>
<path d="M213.291 64.6421H202.064V77.5718H213.291V64.6421Z" fill="#23282D"/>
<path d="M213.291 51.719H202.064V64.6421H213.291V51.719Z" fill="#E2505E"/>
<path d="M213.291 38.7893H202.064V51.7191H213.291V38.7893Z" fill="#E2505E"/>
<path d="M202.064 349.077H190.837V362H202.064V349.077Z" fill="#AA2639"/>
<path d="M202.064 336.147H190.837V349.077H202.064V336.147Z" fill="#AA2639"/>
<path d="M202.064 323.218H190.837V336.147H202.064V323.218Z" fill="#AA2639"/>
<path d="M202.064 310.288H190.837V323.218H202.064V310.288Z" fill="#BBC0C4"/>
<path d="M202.064 297.358H190.837V310.288H202.064V297.358Z" fill="#BBC0C4"/>
<path d="M202.064 284.428H190.837V297.358H202.064V284.428Z" fill="#BBC0C4"/>
<path d="M202.064 271.505H190.837V284.428H202.064V271.505Z" fill="#DEE2E5"/>
<path d="M202.064 258.575H190.837V271.504H202.064V258.575Z" fill="#DEE2E5"/>
<path d="M202.064 245.646H190.837V258.575H202.064V245.646Z" fill="#DEE2E5"/>
<path d="M202.064 232.716H190.837V245.646H202.064V232.716Z" fill="#DEE2E5"/>
<path d="M202.064 219.786H190.837V232.716H202.064V219.786Z" fill="#DEE2E5"/>
<path d="M202.064 206.857H190.837V219.786H202.064V206.857Z" fill="#DEE2E5"/>
<path d="M202.064 193.933H190.837V206.856H202.064V193.933Z" fill="#DEE2E5"/>
<path d="M202.064 181.003H190.837V193.933H202.064V181.003Z" fill="#DEE2E5"/>
<path d="M202.064 168.073H190.837V181.003H202.064V168.073Z" fill="#DEE2E5"/>
<path d="M202.064 155.144H190.837V168.073H202.064V155.144Z" fill="#DEE2E5"/>
<path d="M202.064 142.214H190.837V155.144H202.064V142.214Z" fill="#E2505E"/>
<path d="M202.064 129.291H190.837V142.214H202.064V129.291Z" fill="#E2505E"/>
<path d="M202.064 116.361H190.837V129.291H202.064V116.361Z" fill="#23282D"/>
<path d="M202.064 103.431H190.837V116.361H202.064V103.431Z" fill="#E2505E"/>
<path d="M202.064 90.5017H190.837V103.431H202.064V90.5017Z" fill="#E2505E"/>
<path d="M202.064 77.5718H190.837V90.5015H202.064V77.5718Z" fill="#E2505E"/>
<path d="M202.064 64.6421H190.837V77.5718H202.064V64.6421Z" fill="#E2505E"/>
<path d="M202.064 51.719H190.837V64.6421H202.064V51.719Z" fill="#E2505E"/>
<path d="M202.064 38.7893H190.837V51.7191H202.064V38.7893Z" fill="#E2505E"/>
<path d="M202.064 25.8596H190.837V38.7894H202.064V25.8596Z" fill="#E2505E"/>
<path d="M190.837 349.077H179.616V362H190.837V349.077Z" fill="#AA2639"/>
<path d="M190.837 336.147H179.616V349.077H190.837V336.147Z" fill="#AA2639"/>
<path d="M190.837 323.218H179.616V336.147H190.837V323.218Z" fill="#AA2639"/>
<path d="M190.837 310.288H179.616V323.218H190.837V310.288Z" fill="#BBC0C4"/>
<path d="M190.837 297.358H179.616V310.288H190.837V297.358Z" fill="#BBC0C4"/>
<path d="M190.837 284.428H179.616V297.358H190.837V284.428Z" fill="#BBC0C4"/>
<path d="M190.837 271.505H179.616V284.428H190.837V271.505Z" fill="#DEE2E5"/>
<path d="M190.837 258.575H179.616V271.504H190.837V258.575Z" fill="#DEE2E5"/>
<path d="M190.837 245.646H179.616V258.575H190.837V245.646Z" fill="#DEE2E5"/>
<path d="M190.837 232.716H179.616V245.646H190.837V232.716Z" fill="#DEE2E5"/>
<path d="M190.837 219.786H179.616V232.716H190.837V219.786Z" fill="#DEE2E5"/>
<path d="M190.837 206.857H179.616V219.786H190.837V206.857Z" fill="#DEE2E5"/>
<path d="M190.837 193.933H179.616V206.856H190.837V193.933Z" fill="#DEE2E5"/>
<path d="M190.837 181.003H179.616V193.933H190.837V181.003Z" fill="#DEE2E5"/>
<path d="M190.837 168.073H179.616V181.003H190.837V168.073Z" fill="#DEE2E5"/>
<path d="M190.837 155.144H179.616V168.073H190.837V155.144Z" fill="#DEE2E5"/>
<path d="M190.837 142.214H179.616V155.144H190.837V142.214Z" fill="#E2505E"/>
<path d="M190.837 129.291H179.616V142.214H190.837V129.291Z" fill="#E2505E"/>
<path d="M190.837 116.361H179.616V129.291H190.837V116.361Z" fill="#E2505E"/>
<path d="M190.837 103.431H179.616V116.361H190.837V103.431Z" fill="#E2505E"/>
<path d="M190.837 90.5017H179.616V103.431H190.837V90.5017Z" fill="#E2505E"/>
<path d="M190.837 77.5718H179.616V90.5015H190.837V77.5718Z" fill="#E2505E"/>
<path d="M190.837 64.6421H179.616V77.5718H190.837V64.6421Z" fill="#E2505E"/>
<path d="M190.837 51.719H179.616V64.6421H190.837V51.719Z" fill="#E2505E"/>
<path d="M190.837 38.7893H179.616V51.7191H190.837V38.7893Z" fill="#E2505E"/>
<path d="M190.837 25.8596H179.616V38.7894H190.837V25.8596Z" fill="#E2505E"/>
<path d="M179.616 349.077H168.39V362H179.616V349.077Z" fill="#AA2639"/>
<path d="M179.616 336.147H168.39V349.077H179.616V336.147Z" fill="#AA2639"/>
<path d="M179.616 323.218H168.39V336.147H179.616V323.218Z" fill="#AA2639"/>
<path d="M179.616 310.288H168.389V323.218H179.616V310.288Z" fill="#BBC0C4"/>
<path d="M179.616 297.358H168.389V310.288H179.616V297.358Z" fill="#BBC0C4"/>
<path d="M179.616 284.428H168.389V297.358H179.616V284.428Z" fill="#BBC0C4"/>
<path d="M179.616 271.505H168.389V284.428H179.616V271.505Z" fill="#DEE2E5"/>
<path d="M179.616 258.575H168.389V271.504H179.616V258.575Z" fill="#DEE2E5"/>
<path d="M179.616 245.646H168.39V258.575H179.616V245.646Z" fill="#DEE2E5"/>
<path d="M179.616 232.716H168.39V245.646H179.616V232.716Z" fill="#DEE2E5"/>
<path d="M179.616 219.786H168.39V232.716H179.616V219.786Z" fill="#DEE2E5"/>
<path d="M179.616 206.857H168.389V219.786H179.616V206.857Z" fill="#DEE2E5"/>
<path d="M179.616 193.933H168.39V206.856H179.616V193.933Z" fill="#DEE2E5"/>
<path d="M179.616 181.003H168.389V193.933H179.616V181.003Z" fill="#DEE2E5"/>
<path d="M179.616 168.073H168.39V181.003H179.616V168.073Z" fill="#DEE2E5"/>
<path d="M179.616 155.144H168.39V168.073H179.616V155.144Z" fill="#DEE2E5"/>
<path d="M179.616 142.214H168.39V155.144H179.616V142.214Z" fill="#F4E1E1"/>
<path d="M179.616 129.291H168.39V142.214H179.616V129.291Z" fill="#E2505E"/>
<path d="M179.616 116.361H168.39V129.291H179.616V116.361Z" fill="#E2505E"/>
<path d="M179.616 103.431H168.39V116.361H179.616V103.431Z" fill="#E2505E"/>
<path d="M179.616 90.5017H168.39V103.431H179.616V90.5017Z" fill="#E2505E"/>
<path d="M179.616 77.5718H168.39V90.5015H179.616V77.5718Z" fill="#E2505E"/>
<path d="M179.616 64.6421H168.39V77.5718H179.616V64.6421Z" fill="#E2505E"/>
<path d="M179.616 51.719H168.39V64.6421H179.616V51.719Z" fill="#E2505E"/>
<path d="M179.616 38.7893H168.39V51.7191H179.616V38.7893Z" fill="#E2505E"/>
<path d="M179.616 25.8596H168.39V38.7894H179.616V25.8596Z" fill="#E2505E"/>
<path d="M168.39 349.077H157.163V362H168.39V349.077Z" fill="#AA2639"/>
<path d="M168.39 336.147H157.163V349.077H168.39V336.147Z" fill="#AA2639"/>
<path d="M168.39 323.218H157.163V336.147H168.39V323.218Z" fill="#AA2639"/>
<path d="M168.39 310.288H157.163V323.218H168.39V310.288Z" fill="#BBC0C4"/>
<path d="M168.39 297.358H157.163V310.288H168.39V297.358Z" fill="#BBC0C4"/>
<path d="M168.39 284.428H157.163V297.358H168.39V284.428Z" fill="#BBC0C4"/>
<path d="M168.39 271.505H157.163V284.428H168.39V271.505Z" fill="#DEE2E5"/>
<path d="M168.39 258.575H157.163V271.504H168.39V258.575Z" fill="#DEE2E5"/>
<path d="M168.39 245.646H157.163V258.575H168.39V245.646Z" fill="#DEE2E5"/>
<path d="M168.39 232.716H157.163V245.646H168.39V232.716Z" fill="#DEE2E5"/>
<path d="M168.39 219.786H157.163V232.716H168.39V219.786Z" fill="#DEE2E5"/>
<path d="M168.39 206.857H157.163V219.786H168.39V206.857Z" fill="#DEE2E5"/>
<path d="M168.39 193.933H157.163V206.856H168.39V193.933Z" fill="#DEE2E5"/>
<path d="M168.39 181.003H157.163V193.933H168.39V181.003Z" fill="#DEE2E5"/>
<path d="M168.39 168.073H157.163V181.003H168.39V168.073Z" fill="#DEE2E5"/>
<path d="M168.39 155.144H157.163V168.073H168.39V155.144Z" fill="#DEE2E5"/>
<path d="M168.39 142.214H157.163V155.144H168.39V142.214Z" fill="#F4E1E1"/>
<path d="M168.39 129.291H157.163V142.214H168.39V129.291Z" fill="#E2505E"/>
<path d="M168.39 116.361H157.163V129.291H168.39V116.361Z" fill="#E2505E"/>
<path d="M168.39 103.431H157.163V116.361H168.39V103.431Z" fill="#E2505E"/>
<path d="M168.39 90.5017H157.163V103.431H168.39V90.5017Z" fill="#E2505E"/>
<path d="M168.39 77.5718H157.163V90.5015H168.39V77.5718Z" fill="#E2505E"/>
<path d="M168.39 64.6421H157.163V77.5718H168.39V64.6421Z" fill="#E2505E"/>
<path d="M168.39 51.719H157.163V64.6421H168.39V51.719Z" fill="#E2505E"/>
<path d="M168.39 38.7893H157.163V51.7191H168.39V38.7893Z" fill="#E2505E"/>
<path d="M168.39 25.8596H157.163V38.7894H168.39V25.8596Z" fill="#E2505E"/>
<path d="M157.163 349.077H145.936V362H157.163V349.077Z" fill="#AA2639"/>
<path d="M157.163 336.147H145.936V349.077H157.163V336.147Z" fill="#AA2639"/>
<path d="M157.163 323.218H145.936V336.147H157.163V323.218Z" fill="#AA2639"/>
<path d="M157.163 310.288H145.936V323.218H157.163V310.288Z" fill="#656D72"/>
<path d="M157.163 297.358H145.936V310.288H157.163V297.358Z" fill="#656D72"/>
<path d="M157.163 284.428H145.936V297.358H157.163V284.428Z" fill="#656D72"/>
<path d="M157.163 271.505H145.936V284.428H157.163V271.505Z" fill="#AA2639"/>
<path d="M157.163 258.575H145.936V271.504H157.163V258.575Z" fill="#AA2639"/>
<path d="M157.163 245.646H145.936V258.575H157.163V245.646Z" fill="#AA2639"/>
<path d="M157.163 232.716H145.936V245.646H157.163V232.716Z" fill="#E2505E"/>
<path d="M157.163 219.786H145.936V232.716H157.163V219.786Z" fill="#E2505E"/>
<path d="M157.163 206.857H145.936V219.786H157.163V206.857Z" fill="#E2505E"/>
<path d="M157.163 193.933H145.936V206.856H157.163V193.933Z" fill="#E2505E"/>
<path d="M157.163 181.003H145.936V193.933H157.163V181.003Z" fill="#E2505E"/>
<path d="M157.163 168.073H145.936V181.003H157.163V168.073Z" fill="#E2505E"/>
<path d="M157.163 155.144H145.936V168.073H157.163V155.144Z" fill="#E2505E"/>
<path d="M157.163 142.214H145.936V155.144H157.163V142.214Z" fill="#E2505E"/>
<path d="M157.163 129.291H145.936V142.214H157.163V129.291Z" fill="#E2505E"/>
<path d="M157.163 116.361H145.936V129.291H157.163V116.361Z" fill="#23282D"/>
<path d="M157.163 103.431H145.936V116.361H157.163V103.431Z" fill="#E2505E"/>
<path d="M157.163 90.5017H145.936V103.431H157.163V90.5017Z" fill="#E2505E"/>
<path d="M157.163 77.5718H145.936V90.5015H157.163V77.5718Z" fill="#E2505E"/>
<path d="M157.163 64.6421H145.936V77.5718H157.163V64.6421Z" fill="#E2505E"/>
<path d="M157.163 51.719H145.936V64.6421H157.163V51.719Z" fill="#E2505E"/>
<path d="M157.163 38.7893H145.936V51.7191H157.163V38.7893Z" fill="#E2505E"/>
<path d="M157.163 25.8596H145.936V38.7894H157.163V25.8596Z" fill="#E2505E"/>
<path d="M145.936 349.077H134.709V362H145.936V349.077Z" fill="#BC4052"/>
<path d="M145.936 336.147H134.709V349.077H145.936V336.147Z" fill="#AA2639"/>
<path d="M145.936 323.218H134.709V336.147H145.936V323.218Z" fill="#AA2639"/>
<path d="M145.936 310.288H134.709V323.218H145.936V310.288Z" fill="#656D72"/>
<path d="M145.936 297.358H134.709V310.288H145.936V297.358Z" fill="#656D72"/>
<path d="M145.936 284.428H134.709V297.358H145.936V284.428Z" fill="#656D72"/>
<path d="M145.936 271.505H134.709V284.428H145.936V271.505Z" fill="#AA2639"/>
<path d="M145.936 258.575H134.709V271.504H145.936V258.575Z" fill="#AA2639"/>
<path d="M145.936 245.646H134.709V258.575H145.936V245.646Z" fill="#AA2639"/>
<path d="M145.936 232.716H134.709V245.646H145.936V232.716Z" fill="#BC4052"/>
<path d="M145.936 219.786H134.709V232.716H145.936V219.786Z" fill="#E2505E"/>
<path d="M145.936 206.857H134.709V219.786H145.936V206.857Z" fill="#E2505E"/>
<path d="M145.936 193.933H134.709V206.856H145.936V193.933Z" fill="#E2505E"/>
<path d="M145.936 181.003H134.709V193.933H145.936V181.003Z" fill="#E2505E"/>
<path d="M145.936 168.073H134.709V181.003H145.936V168.073Z" fill="#E2505E"/>
<path d="M145.936 155.144H134.709V168.073H145.936V155.144Z" fill="#E2505E"/>
<path d="M145.936 142.214H134.709V155.144H145.936V142.214Z" fill="#23282D"/>
<path d="M145.936 129.291H134.709V142.214H145.936V129.291Z" fill="#23282D"/>
<path d="M145.936 116.361H134.709V129.291H145.936V116.361Z" fill="#23282D"/>
<path d="M145.936 103.431H134.709V116.361H145.936V103.431Z" fill="#E2505E"/>
<path d="M145.936 90.5017H134.709V103.431H145.936V90.5017Z" fill="#E2505E"/>
<path d="M145.936 77.5718H134.709V90.5015H145.936V77.5718Z" fill="#E2505E"/>
<path d="M145.936 64.6421H134.709V77.5718H145.936V64.6421Z" fill="#E2505E"/>
<path d="M145.936 51.719H134.709V64.6421H145.936V51.719Z" fill="#E2505E"/>
<path d="M145.936 38.7893H134.709V51.7191H145.936V38.7893Z" fill="#E2505E"/>
<path d="M145.936 25.8596H134.709V38.7894H145.936V25.8596Z" fill="#E2505E"/>
<path d="M134.709 349.077H123.483V362H134.709V349.077Z" fill="#BC4052"/>
<path d="M134.709 336.147H123.483V349.077H134.709V336.147Z" fill="#BC4052"/>
<path d="M134.709 323.218H123.483V336.147H134.709V323.218Z" fill="#E2505E"/>
<path d="M134.709 310.288H123.483V323.218H134.709V310.288Z" fill="#656D72"/>
<path d="M134.709 297.358H123.483V310.288H134.709V297.358Z" fill="#656D72"/>
<path d="M134.709 284.428H123.483V297.358H134.709V284.428Z" fill="#656D72"/>
<path d="M134.709 271.505H123.483V284.428H134.709V271.505Z" fill="#E2505E"/>
<path d="M134.709 258.575H123.483V271.504H134.709V258.575Z" fill="#AA2639"/>
<path d="M134.709 245.646H123.483V258.575H134.709V245.646Z" fill="#AA2639"/>
<path d="M134.709 232.716H123.483V245.646H134.709V232.716Z" fill="#AA2639"/>
<path d="M134.709 219.786H123.483V232.716H134.709V219.786Z" fill="#E2505E"/>
<path d="M134.709 206.857H123.483V219.786H134.709V206.857Z" fill="#E2505E"/>
<path d="M134.709 193.933H123.483V206.856H134.709V193.933Z" fill="#E2505E"/>
<path d="M134.709 181.003H123.483V193.933H134.709V181.003Z" fill="#E2505E"/>
<path d="M134.709 168.073H123.483V181.003H134.709V168.073Z" fill="#E2505E"/>
<path d="M134.709 155.144H123.483V168.073H134.709V155.144Z" fill="#E2505E"/>
<path d="M134.709 142.214H123.483V155.144H134.709V142.214Z" fill="#23282D"/>
<path d="M134.709 129.291H123.483V142.214H134.709V129.291Z" fill="#F4E1E1"/>
<path d="M134.709 116.361H123.483V129.291H134.709V116.361Z" fill="#23282D"/>
<path d="M134.709 103.431H123.483V116.361H134.709V103.431Z" fill="#E2505E"/>
<path d="M134.709 90.5017H123.483V103.431H134.709V90.5017Z" fill="#E2505E"/>
<path d="M134.709 77.5718H123.483V90.5015H134.709V77.5718Z" fill="#E2505E"/>
<path d="M134.709 64.6421H123.483V77.5718H134.709V64.6421Z" fill="#23282D"/>
<path d="M134.709 51.719H123.483V64.6421H134.709V51.719Z" fill="#E2505E"/>
<path d="M134.709 38.7893H123.483V51.7191H134.709V38.7893Z" fill="#E2505E"/>
<path d="M134.709 25.8596H123.483V38.7894H134.709V25.8596Z" fill="#E2505E"/>
<path d="M123.483 349.077H112.262V362H123.483V349.077Z" fill="#BC4052"/>
<path d="M123.483 336.147H112.262V349.077H123.483V336.147Z" fill="#BC4052"/>
<path d="M123.483 323.218H112.262V336.147H123.483V323.218Z" fill="#BC4052"/>
<path d="M123.483 310.288H112.262V323.218H123.483V310.288Z" fill="#656D72"/>
<path d="M123.483 297.358H112.262V310.288H123.483V297.358Z" fill="#656D72"/>
<path d="M123.483 284.428H112.262V297.358H123.483V284.428Z" fill="#656D72"/>
<path d="M123.483 271.505H112.262V284.428H123.483V271.505Z" fill="#E2505E"/>
<path d="M123.483 258.575H112.262V271.504H123.483V258.575Z" fill="#AA2639"/>
<path d="M123.483 245.646H112.262V258.575H123.483V245.646Z" fill="#AA2639"/>
<path d="M123.483 232.716H112.262V245.646H123.483V232.716Z" fill="#AA2639"/>
<path d="M123.483 219.786H112.262V232.716H123.483V219.786Z" fill="#E2505E"/>
<path d="M123.483 206.857H112.262V219.786H123.483V206.857Z" fill="#E2505E"/>
<path d="M123.483 193.933H112.262V206.856H123.483V193.933Z" fill="#E2505E"/>
<path d="M123.483 181.003H112.262V193.933H123.483V181.003Z" fill="#E2505E"/>
<path d="M123.483 168.073H112.262V181.003H123.483V168.073Z" fill="#E2505E"/>
<path d="M123.483 155.144H112.262V168.073H123.483V155.144Z" fill="#F4E1E1"/>
<path d="M123.483 142.214H112.262V155.144H123.483V142.214Z" fill="#23282D"/>
<path d="M123.483 129.291H112.262V142.214H123.483V129.291Z" fill="#23282D"/>
<path d="M123.483 116.361H112.262V129.291H123.483V116.361Z" fill="#23282D"/>
<path d="M123.483 103.431H112.262V116.361H123.483V103.431Z" fill="#E2505E"/>
<path d="M123.483 90.5017H112.262V103.431H123.483V90.5017Z" fill="#E2505E"/>
<path d="M123.483 77.5718H112.262V90.5015H123.483V77.5718Z" fill="#E2505E"/>
<path d="M123.483 64.6421H112.262V77.5718H123.483V64.6421Z" fill="#23282D"/>
<path d="M123.483 51.719H112.262V64.6421H123.483V51.719Z" fill="#E2505E"/>
<path d="M123.483 38.7893H112.262V51.7191H123.483V38.7893Z" fill="#E2505E"/>
<path d="M123.483 25.8596H112.262V38.7894H123.483V25.8596Z" fill="#E2505E"/>
<path d="M112.262 336.147H101.035V349.077H112.262V336.147Z" fill="#BC4052"/>
<path d="M112.262 323.218H101.035V336.147H112.262V323.218Z" fill="#BC4052"/>
<path d="M112.262 310.288H101.035V323.218H112.262V310.288Z" fill="#656D72"/>
<path d="M112.262 297.358H101.035V310.288H112.262V297.358Z" fill="#656D72"/>
<path d="M112.262 284.428H101.035V297.358H112.262V284.428Z" fill="#656D72"/>
<path d="M112.262 271.505H101.035V284.428H112.262V271.505Z" fill="#BC4052"/>
<path d="M112.262 258.575H101.035V271.504H112.262V258.575Z" fill="#AA2639"/>
<path d="M112.262 245.646H101.035V258.575H112.262V245.646Z" fill="#AA2639"/>
<path d="M112.262 232.716H101.035V245.646H112.262V232.716Z" fill="#AA2639"/>
<path d="M112.262 219.786H101.035V232.716H112.262V219.786Z" fill="#E2505E"/>
<path d="M112.262 206.857H101.035V219.786H112.262V206.857Z" fill="#E2505E"/>
<path d="M112.262 193.933H101.035V206.856H112.262V193.933Z" fill="#E2505E"/>
<path d="M112.262 181.003H101.035V193.933H112.262V181.003Z" fill="#E2505E"/>
<path d="M112.262 168.073H101.035V181.003H112.262V168.073Z" fill="#F4E1E1"/>
<path d="M112.262 155.144H101.035V168.073H112.262V155.144Z" fill="#F4E1E1"/>
<path d="M112.262 142.214H101.035V155.144H112.262V142.214Z" fill="#23282D"/>
<path d="M112.262 129.291H101.035V142.214H112.262V129.291Z" fill="#23282D"/>
<path d="M112.262 116.361H101.035V129.291H112.262V116.361Z" fill="#23282D"/>
<path d="M112.262 103.431H101.035V116.361H112.262V103.431Z" fill="#E2505E"/>
<path d="M112.262 90.5017H101.035V103.431H112.262V90.5017Z" fill="#E2505E"/>
<path d="M112.262 77.5718H101.035V90.5015H112.262V77.5718Z" fill="#23282D"/>
<path d="M112.262 64.6421H101.035V77.5718H112.262V64.6421Z" fill="#E2505E"/>
<path d="M112.262 51.719H101.035V64.6421H112.262V51.719Z" fill="#E2505E"/>
<path d="M112.262 38.7893H101.035V51.7191H112.262V38.7893Z" fill="#E2505E"/>
<path d="M101.035 336.147H89.8081V349.077H101.035V336.147Z" fill="#AA2639"/>
<path d="M101.035 323.218H89.8081V336.147H101.035V323.218Z" fill="#AA2639"/>
<path d="M101.035 310.288H89.808V323.218H101.035V310.288Z" fill="#656D72"/>
<path d="M101.035 297.358H89.808V310.288H101.035V297.358Z" fill="#656D72"/>
<path d="M101.035 284.428H89.808V297.358H101.035V284.428Z" fill="#656D72"/>
<path d="M101.035 271.505H89.808V284.428H101.035V271.505Z" fill="#AA2639"/>
<path d="M101.035 258.575H89.808V271.504H101.035V258.575Z" fill="#AA2639"/>
<path d="M101.035 245.646H89.8081V258.575H101.035V245.646Z" fill="#AA2639"/>
<path d="M101.035 232.716H89.8081V245.646H101.035V232.716Z" fill="#BC4052"/>
<path d="M101.035 219.786H89.8081V232.716H101.035V219.786Z" fill="#E2505E"/>
<path d="M101.035 206.857H89.808V219.786H101.035V206.857Z" fill="#E2505E"/>
<path d="M101.035 193.933H89.8081V206.856H101.035V193.933Z" fill="#E2505E"/>
<path d="M101.035 181.003H89.808V193.933H101.035V181.003Z" fill="#E2505E"/>
<path d="M101.035 168.073H89.8081V181.003H101.035V168.073Z" fill="#F4E1E1"/>
<path d="M101.035 155.144H89.8081V168.073H101.035V155.144Z" fill="#F4E1E1"/>
<path d="M101.035 142.214H89.8081V155.144H101.035V142.214Z" fill="#F4E1E1"/>
<path d="M101.035 129.291H89.8081V142.214H101.035V129.291Z" fill="#F4E1E1"/>
<path d="M101.035 116.361H89.8081V129.291H101.035V116.361Z" fill="#23282D"/>
<path d="M101.035 103.431H89.8081V116.361H101.035V103.431Z" fill="#E2505E"/>
<path d="M101.035 90.5017H89.8081V103.431H101.035V90.5017Z" fill="#E2505E"/>
<path d="M101.035 77.5718H89.8081V90.5015H101.035V77.5718Z" fill="#E2505E"/>
<path d="M101.035 64.6421H89.8081V77.5718H101.035V64.6421Z" fill="#E2505E"/>
<path d="M101.035 51.719H89.8081V64.6421H101.035V51.719Z" fill="#E2505E"/>
<path d="M101.035 38.7893H89.8081V51.7191H101.035V38.7893Z" fill="#E2505E"/>
<path d="M89.8081 336.147H78.5814V349.077H89.8081V336.147Z" fill="#AA2639"/>
<path d="M89.8081 323.218H78.5814V336.147H89.8081V323.218Z" fill="#AA2639"/>
<path d="M89.8081 310.288H78.5814V323.218H89.8081V310.288Z" fill="#656D72"/>
<path d="M89.8081 297.358H78.5814V310.288H89.8081V297.358Z" fill="#656D72"/>
<path d="M89.8081 284.428H78.5814V297.358H89.8081V284.428Z" fill="#656D72"/>
<path d="M89.8081 271.505H78.5814V284.428H89.8081V271.505Z" fill="#AA2639"/>
<path d="M89.8081 258.575H78.5814V271.504H89.8081V258.575Z" fill="#AA2639"/>
<path d="M89.8081 245.646H78.5814V258.575H89.8081V245.646Z" fill="#AA2639"/>
<path d="M89.8081 232.716H78.5814V245.646H89.8081V232.716Z" fill="#BC4052"/>
<path d="M89.8081 219.786H78.5814V232.716H89.8081V219.786Z" fill="#BC4052"/>
<path d="M89.8081 206.857H78.5814V219.786H89.8081V206.857Z" fill="#E2505E"/>
<path d="M89.8081 193.933H78.5814V206.856H89.8081V193.933Z" fill="#E2505E"/>
<path d="M89.8081 181.003H78.5814V193.933H89.8081V181.003Z" fill="#E2505E"/>
<path d="M89.8081 168.073H78.5814V181.003H89.8081V168.073Z" fill="#23282D"/>
<path d="M89.8081 155.144H78.5814V168.073H89.8081V155.144Z" fill="#F4E1E1"/>
<path d="M89.8081 142.214H78.5814V155.144H89.8081V142.214Z" fill="#23282D"/>
<path d="M89.8081 129.291H78.5814V142.214H89.8081V129.291Z" fill="#23282D"/>
<path d="M89.8081 116.361H78.5814V129.291H89.8081V116.361Z" fill="#E2505E"/>
<path d="M89.8081 103.431H78.5814V116.361H89.8081V103.431Z" fill="#E2505E"/>
<path d="M89.8081 90.5017H78.5814V103.431H89.8081V90.5017Z" fill="#E2505E"/>
<path d="M89.8081 77.5718H78.5814V90.5015H89.8081V77.5718Z" fill="#E2505E"/>
<path d="M89.8081 64.6421H78.5814V77.5718H89.8081V64.6421Z" fill="#E2505E"/>
<path d="M89.8081 51.719H78.5814V64.6421H89.8081V51.719Z" fill="#E2505E"/>
<path d="M89.8081 38.7893H78.5814V51.7191H89.8081V38.7893Z" fill="#AA2639"/>
<path d="M89.8081 25.8596H78.5814V38.7894H89.8081V25.8596Z" fill="#AA2639"/>
<path d="M78.5814 336.147H67.3547V349.077H78.5814V336.147Z" fill="#AA2639"/>
<path d="M78.5814 323.218H67.3547V336.147H78.5814V323.218Z" fill="#AA2639"/>
<path d="M78.5814 232.716H67.3547V245.646H78.5814V232.716Z" fill="#BC4052"/>
<path d="M78.5814 219.786H67.3547V232.716H78.5814V219.786Z" fill="#BC4052"/>
<path d="M78.5813 206.857H67.3546V219.786H78.5813V206.857Z" fill="#BC4052"/>
<path d="M78.5814 193.933H67.3547V206.856H78.5814V193.933Z" fill="#BC4052"/>
<path d="M78.5813 181.003H67.3546V193.933H78.5813V181.003Z" fill="#23282D"/>
<path d="M78.5814 168.073H67.3547V181.003H78.5814V168.073Z" fill="#E2505E"/>
<path d="M78.5814 155.144H67.3547V168.073H78.5814V155.144Z" fill="#E2505E"/>
<path d="M78.5814 142.214H67.3547V155.144H78.5814V142.214Z" fill="#23282D"/>
<path d="M78.5814 129.291H67.3547V142.214H78.5814V129.291Z" fill="#E2505E"/>
<path d="M78.5814 116.361H67.3547V129.291H78.5814V116.361Z" fill="#23282D"/>
<path d="M78.5814 103.431H67.3547V116.361H78.5814V103.431Z" fill="#E2505E"/>
<path d="M78.5814 90.5017H67.3547V103.431H78.5814V90.5017Z" fill="#E2505E"/>
<path d="M78.5814 77.5718H67.3547V90.5015H78.5814V77.5718Z" fill="#E2505E"/>
<path d="M78.5814 64.6421H67.3547V77.5718H78.5814V64.6421Z" fill="#BC4052"/>
<path d="M78.5814 51.719H67.3547V64.6421H78.5814V51.719Z" fill="#BC4052"/>
<path d="M78.5814 38.7893H67.3547V51.7191H78.5814V38.7893Z" fill="#AA2639"/>
<path d="M78.5814 25.8596H67.3547V38.7894H78.5814V25.8596Z" fill="#AA2639"/>
<path d="M78.5814 12.9299H67.3547V25.8597H78.5814V12.9299Z" fill="#AA2639"/>
<path d="M67.3547 336.147H56.1279V349.077H67.3547V336.147Z" fill="#AA2639"/>
<path d="M67.3547 323.218H56.1279V336.147H67.3547V323.218Z" fill="#AA2639"/>
<path d="M67.3547 219.786H56.1279V232.716H67.3547V219.786Z" fill="#BC4052"/>
<path d="M67.3546 206.857H56.1279V219.786H67.3546V206.857Z" fill="#BC4052"/>
<path d="M67.3547 193.933H56.1279V206.856H67.3547V193.933Z" fill="#BC4052"/>
<path d="M67.3546 181.003H56.1279V193.933H67.3546V181.003Z" fill="#BC4052"/>
<path d="M67.3547 168.073H56.1279V181.003H67.3547V168.073Z" fill="#BC4052"/>
<path d="M67.3547 155.144H56.1279V168.073H67.3547V155.144Z" fill="#E2505E"/>
<path d="M67.3547 142.214H56.1279V155.144H67.3547V142.214Z" fill="#23282D"/>
<path d="M67.3547 129.291H56.1279V142.214H67.3547V129.291Z" fill="#E2505E"/>
<path d="M67.3547 116.361H56.1279V129.291H67.3547V116.361Z" fill="#E2505E"/>
<path d="M67.3547 103.431H56.1279V116.361H67.3547V103.431Z" fill="#BC4052"/>
<path d="M67.3547 90.5017H56.1279V103.431H67.3547V90.5017Z" fill="#BC4052"/>
<path d="M67.3547 77.5718H56.1279V90.5015H67.3547V77.5718Z" fill="#BC4052"/>
<path d="M67.3547 64.6421H56.1279V77.5718H67.3547V64.6421Z" fill="#BC4052"/>
<path d="M67.3547 51.719H56.1279V64.6421H67.3547V51.719Z" fill="#F4E1E1"/>
<path d="M67.3547 38.7893H56.1279V51.7191H67.3547V38.7893Z" fill="#AA2639"/>
<path d="M67.3547 25.8596H56.1279V38.7894H67.3547V25.8596Z" fill="#AA2639"/>
<path d="M67.3547 12.9299H56.1279V25.8597H67.3547V12.9299Z" fill="#AA2639"/>
<path d="M56.1279 336.147H44.9069V349.077H56.1279V336.147Z" fill="#AA2639"/>
<path d="M56.1279 323.218H44.9069V336.147H56.1279V323.218Z" fill="#AA2639"/>
<path d="M56.1279 310.288H44.9069V323.218H56.1279V310.288Z" fill="#AA2639"/>
<path d="M56.1279 206.857H44.9069V219.786H56.1279V206.857Z" fill="#BC4052"/>
<path d="M56.1279 193.933H44.9069V206.856H56.1279V193.933Z" fill="#BC4052"/>
<path d="M56.1279 181.003H44.9069V193.933H56.1279V181.003Z" fill="#BC4052"/>
<path d="M56.1279 168.073H44.9069V181.003H56.1279V168.073Z" fill="#BC4052"/>
<path d="M56.1279 155.144H44.9069V168.073H56.1279V155.144Z" fill="#BC4052"/>
<path d="M56.1279 142.214H44.9069V155.144H56.1279V142.214Z" fill="#BC4052"/>
<path d="M56.1279 129.291H44.9069V142.214H56.1279V129.291Z" fill="#BC4052"/>
<path d="M56.1279 116.361H44.9069V129.291H56.1279V116.361Z" fill="#BC4052"/>
<path d="M56.1279 103.431H44.9069V116.361H56.1279V103.431Z" fill="#BC4052"/>
<path d="M56.1279 90.5017H44.9069V103.431H56.1279V90.5017Z" fill="#BC4052"/>
<path d="M56.1279 77.5718H44.9069V90.5015H56.1279V77.5718Z" fill="#BC4052"/>
<path d="M56.1279 64.6421H44.9069V77.5718H56.1279V64.6421Z" fill="#F4E1E1"/>
<path d="M56.1279 51.719H44.9069V64.6421H56.1279V51.719Z" fill="#F4E1E1"/>
<path d="M56.1279 38.7893H44.9069V51.7191H56.1279V38.7893Z" fill="#AA2639"/>
<path d="M56.1279 25.8596H44.9069V38.7894H56.1279V25.8596Z" fill="#AA2639"/>
<path d="M56.1279 12.9299H44.9069V25.8597H56.1279V12.9299Z" fill="#AA2639"/>
<path d="M44.9069 323.218H33.6802V336.147H44.9069V323.218Z" fill="#AA2639"/>
<path d="M44.9069 310.288H33.6801V323.218H44.9069V310.288Z" fill="#AA2639"/>
<path d="M44.9069 297.358H33.6801V310.288H44.9069V297.358Z" fill="#AA2639"/>
<path d="M44.9069 284.428H33.6801V297.358H44.9069V284.428Z" fill="#AA2639"/>
<path d="M44.9069 271.505H33.6801V284.428H44.9069V271.505Z" fill="#AA2639"/>
<path d="M44.9069 258.575H33.6801V271.504H44.9069V258.575Z" fill="#AA2639"/>
<path d="M44.9069 193.933H33.6802V206.856H44.9069V193.933Z" fill="#BC4052"/>
<path d="M44.9069 181.003H33.6801V193.933H44.9069V181.003Z" fill="#BC4052"/>
<path d="M44.9069 168.073H33.6802V181.003H44.9069V168.073Z" fill="#BC4052"/>
<path d="M44.9069 155.144H33.6802V168.073H44.9069V155.144Z" fill="#BC4052"/>
<path d="M44.9069 142.214H33.6802V155.144H44.9069V142.214Z" fill="#BC4052"/>
<path d="M44.9069 129.291H33.6802V142.214H44.9069V129.291Z" fill="#BC4052"/>
<path d="M44.9069 116.361H33.6802V129.291H44.9069V116.361Z" fill="#BC4052"/>
<path d="M44.9069 103.431H33.6802V116.361H44.9069V103.431Z" fill="#BC4052"/>
<path d="M44.9069 90.5017H33.6802V103.431H44.9069V90.5017Z" fill="#BC4052"/>
<path d="M44.9069 77.5718H33.6802V90.5015H44.9069V77.5718Z" fill="#F4E1E1"/>
<path d="M44.9069 64.6421H33.6802V77.5718H44.9069V64.6421Z" fill="#F4E1E1"/>
<path d="M44.9069 51.719H33.6802V64.6421H44.9069V51.719Z" fill="#F4E1E1"/>
<path d="M44.9069 38.7893H33.6802V51.7191H44.9069V38.7893Z" fill="#F4E1E1"/>
<path d="M44.9069 25.8596H33.6802V38.7894H44.9069V25.8596Z" fill="#AA2639"/>
<path d="M44.9069 12.9299H33.6802V25.8597H44.9069V12.9299Z" fill="#AA2639"/>
<path d="M44.9069 0H33.6802V12.9298H44.9069V0Z" fill="#AA2639"/>
<path d="M33.6802 310.288H22.4535V323.218H33.6802V310.288Z" fill="#AA2639"/>
<path d="M33.6802 297.358H22.4535V310.288H33.6802V297.358Z" fill="#AA2639"/>
<path d="M33.6802 284.428H22.4535V297.358H33.6802V284.428Z" fill="#AA2639"/>
<path d="M33.6802 271.505H22.4535V284.428H33.6802V271.505Z" fill="#AA2639"/>
<path d="M33.6802 258.575H22.4535V271.504H33.6802V258.575Z" fill="#E2505E"/>
<path d="M33.6802 245.646H22.4535V258.575H33.6802V245.646Z" fill="#E2505E"/>
<path d="M33.6802 168.073H22.4535V181.003H33.6802V168.073Z" fill="#BC4052"/>
<path d="M33.6802 155.144H22.4535V168.073H33.6802V155.144Z" fill="#BC4052"/>
<path d="M33.6802 142.214H22.4535V155.144H33.6802V142.214Z" fill="#BC4052"/>
<path d="M33.6802 129.291H22.4535V142.214H33.6802V129.291Z" fill="#BC4052"/>
<path d="M33.6802 116.361H22.4535V129.291H33.6802V116.361Z" fill="#BC4052"/>
<path d="M33.6802 90.5017H22.4535V103.431H33.6802V90.5017Z" fill="#F4E1E1"/>
<path d="M33.6802 77.5718H22.4535V90.5015H33.6802V77.5718Z" fill="#F4E1E1"/>
<path d="M33.6802 64.6421H22.4535V77.5718H33.6802V64.6421Z" fill="#F4E1E1"/>
<path d="M33.6802 51.719H22.4535V64.6421H33.6802V51.719Z" fill="#F4E1E1"/>
<path d="M33.6802 38.7893H22.4535V51.7191H33.6802V38.7893Z" fill="#F4E1E1"/>
<path d="M33.6802 25.8596H22.4535V38.7894H33.6802V25.8596Z" fill="#F4E1E1"/>
<path d="M33.6802 12.9299H22.4535V25.8597H33.6802V12.9299Z" fill="#AA2639"/>
<path d="M22.4534 258.575H11.2267V271.504H22.4534V258.575Z" fill="#E2505E"/>
<path d="M22.4535 245.646H11.2267V258.575H22.4535V245.646Z" fill="#E2505E"/>
<path d="M22.4535 232.716H11.2267V245.646H22.4535V232.716Z" fill="#E2505E"/>
<path d="M22.4535 64.6421H11.2267V77.5718H22.4535V64.6421Z" fill="#F4E1E1"/>
<path d="M22.4535 51.719H11.2267V64.6421H22.4535V51.719Z" fill="#F4E1E1"/>
<path d="M11.2267 245.646H0V258.575H11.2267V245.646Z" fill="#E2505E"/>
</g>
<defs>
<filter id="filter0_i_48_829" x="0" y="-4" width="352" height="366" filterUnits="userSpaceOnUse" color-interpolation-filters="sRGB">
<feFlood flood-opacity="0" result="BackgroundImageFix"/>
<feBlend mode="normal" in="SourceGraphic" in2="BackgroundImageFix" result="shape"/>
<feColorMatrix in="SourceAlpha" type="matrix" values="0 0 0 0 0 0 0 0 0 0 0 0 0 0 0 0 0 0 127 0" result="hardAlpha"/>
<feOffset dx="10" dy="-9"/>
<feGaussianBlur stdDeviation="2"/>
<feComposite in2="hardAlpha" operator="arithmetic" k2="-1" k3="1"/>
<feColorMatrix type="matrix" values="0 0 0 0 0 0 0 0 0 0 0 0 0 0 0 0 0 0 0.25 0"/>
<feBlend mode="normal" in2="shape" result="effect1_innerShadow_48_829"/>
</filter>
<clipPath id="clip0_48_829">
<rect width="348" height="362" fill="white"/>
</clipPath>
</defs>
</svg>
